<svg width="130" height="214" viewBox="0 0 130 214" fill="none" xmlns="http://www.w3.org/2000/svg">
<path d="M106.813 119C106.813 112 103.063 106 98.0625 101.5C83.5625 88 68.8125 87.75 50.0625 87.75H25.0625C24.8125 87.75 24.3125 87.75 23.8125 87.5C9.3125 86.25 0.5625 73 0.5625 59C0.5625 51.25 2.3125 40.25 5.3125 33.25C12.5625 16 34.3125 0.249986 53.3125 0.249986C69.3125 0.249986 77.5625 8.5 77.5625 24.5C77.5625 41.25 52.3125 57 37.3125 58.75C35.0625 59.25 32.8125 59.25 30.5625 59.25C29.5625 59.25 28.3125 59.25 27.0625 59.25C30.0625 64.25 34.5625 68.25 40.8125 69.75C41.5625 70 42.3125 70.25 43.0625 70.25H79.0625C86.0625 70.25 93.3125 71 99.8125 73.25C113.563 77.75 129.813 89 129.813 105C129.813 135.25 98.3125 160.5 69.5625 160.5C63.3125 160.5 56.5625 159.75 50.5625 157.75V198.25C50.5625 204 35.5625 214 30.0625 214C29.0625 214 27.5625 213.75 27.5625 212.25V131C27.5625 125.25 42.5625 115.25 48.0625 115.25C49.0625 115.25 50.0625 115.5 50.5625 116.5C51.5625 118.5 52.3125 121 53.0625 123.25C57.3125 133.75 61.3125 138 72.3125 141C77.5625 142.5 83.0625 143.25 88.3125 143.25C90.8125 143.25 98.3125 142.5 100.063 140.75C104.063 136.5 106.813 124.75 106.813 119ZM30.0625 18C27.8125 20.5 26.0625 26 25.0625 31.75C25.0625 32 25.0625 32 25.0625 32.25C25.5625 41.25 43.8125 41.75 50.3125 41.75C51.5625 41.75 52.8125 41.75 54.0625 41.5C54.3125 40.5 54.5625 39.5 54.5625 38.25C54.5625 24.5 48.0625 17.75 34.0625 17.75C32.8125 17.75 31.3125 17.75 30.0625 18Z" fill="black"/>
</svg>
