<svg width="108" height="194" viewBox="0 0 108 194" fill="none" xmlns="http://www.w3.org/2000/svg">
<path d="M25.6953 19.25C24.4453 19.25 23.1953 19 23.1953 17.5C23.1953 11.25 37.6953 2.75 42.6953 2C45.1953 1.5 47.9453 1.5 50.4453 1.5L64.1953 1.25C73.4453 1 82.6953 0.500002 91.9453 0.500002C93.1953 0.500002 94.4453 0.750002 94.4453 2.25C94.4453 5.25 89.4453 9.99999 87.4453 12C73.9453 25.75 56.6953 39.25 39.1953 50.25H56.9453C63.9453 50.25 71.1953 51 77.6953 53.25C91.4453 57.75 107.695 69 107.695 85C107.695 115.25 76.1953 140.5 47.4453 140.5C41.1953 140.5 34.4453 139.75 28.4453 137.75V178.25C28.4453 184 13.4453 194 7.94531 194C6.94531 194 5.44531 193.75 5.44531 192.25V111C5.44531 105.25 20.4453 95.25 25.9453 95.25C26.9453 95.25 27.9453 95.5 28.4453 96.5C29.4453 98.5 30.1953 101 30.9453 103.25C35.1953 113.75 39.1953 118 50.1953 121C55.4453 122.5 60.9453 123.25 66.1953 123.25C68.6953 123.25 76.1953 122.5 77.9453 120.75C81.9453 116.5 84.6953 104.75 84.6953 99C84.6953 92 80.9453 86 75.9453 81.5C61.4453 68 46.6953 67.75 27.9453 67.75H2.94531C1.94531 67.75 0.445313 67.5 0.445313 66C0.445313 60.75 12.9453 52 19.1953 50.5C35.4453 43.25 50.4453 32.75 63.9453 21.25C64.9453 20.25 66.1953 19.25 67.1953 18.25L53.4453 18.5C44.1953 18.75 34.9453 19.25 25.6953 19.25Z" fill="black"/>
</svg>
