<svg width="110" height="190" viewBox="0 0 110 190" fill="none" xmlns="http://www.w3.org/2000/svg">
<path d="M49.627 189.75C46.877 189.75 45.627 185.5 43.877 183.5C40.627 179.5 36.877 176 33.127 172C24.127 162.5 14.627 153.25 5.87695 143.5C5.37695 143.25 5.12695 142.75 5.12695 142.25V61C5.12695 55.25 20.127 45.25 25.627 45.25C26.627 45.25 27.627 45.5 28.127 46.5C29.127 48.5 29.877 51 30.627 53.25C34.877 63.75 38.877 68 49.877 71C55.127 72.5 60.627 73.25 65.877 73.25C68.377 73.25 75.877 72.5 77.627 70.75C81.627 66.5 84.377 54.75 84.377 49C84.377 42 80.627 36 75.627 31.5C61.127 18 46.377 17.75 27.627 17.75H2.62695C1.62695 17.75 0.126953 17.5 0.126953 16C0.126953 10.25 15.127 0.24999 20.627 0.24999H56.627C63.627 0.24999 70.877 0.99999 77.377 3.24999C91.127 7.75 107.377 19 107.377 35C107.377 65.25 75.877 90.5 47.127 90.5C40.877 90.5 34.127 89.75 28.127 87.75V127.5C30.877 130 33.377 133 36.127 135.75C42.627 142.25 49.127 149.25 55.377 156C58.877 159.75 62.627 163 65.877 167C70.877 162 75.377 156.5 79.377 150.5C86.627 139.5 86.627 133 99.377 125.75C101.627 124.5 104.627 123 107.127 123C108.377 123 109.627 123.5 109.627 124.75C109.627 126.5 107.127 130.75 106.377 132.25C102.877 138.25 99.127 144.25 94.877 149.75C87.627 159.5 61.377 189.75 49.627 189.75Z" fill="black"/>
</svg>
