<svg width="128" height="200" viewBox="0 0 128 200" fill="none" xmlns="http://www.w3.org/2000/svg">
<path d="M0.64492 111L21.9449 102H51.9449V-1.78814e-06H75.9449V102H106.245L127.545 111L106.245 120H21.9449L0.64492 111ZM50.3535 168C50.3535 175.5 56.6535 181.5 63.8535 181.5C71.3535 181.5 77.3535 175.5 77.3535 168C77.3535 160.5 71.3535 154.5 63.8535 154.5C56.6535 154.5 50.3535 160.5 50.3535 168ZM32.3535 168C32.3535 150.6 46.4535 136.5 63.8535 136.5C81.2535 136.5 95.3535 150.6 95.3535 168C95.3535 185.4 81.2535 199.5 63.8535 199.5C46.4535 199.5 32.3535 185.4 32.3535 168Z" fill="black"/>
</svg>
