<?xml version="1.0" encoding="UTF-8" standalone="no"?>
<svg
   width="125"
   height="144"
   viewBox="0 0 125 144"
   fill="none"
   version="1.1"
   id="svg1"
   sodipodi:docname="C base.svg"
   inkscape:version="1.4.2 (f4327f4, 2025-05-13)"
   xmlns:inkscape="http://www.inkscape.org/namespaces/inkscape"
   xmlns:sodipodi="http://sodipodi.sourceforge.net/DTD/sodipodi-0.dtd"
   xmlns="http://www.w3.org/2000/svg"
   xmlns:svg="http://www.w3.org/2000/svg">
  <defs
     id="defs1" />
  <sodipodi:namedview
     id="namedview1"
     pagecolor="#ffffff"
     bordercolor="#000000"
     borderopacity="0.25"
     inkscape:showpageshadow="2"
     inkscape:pageopacity="0.0"
     inkscape:pagecheckerboard="0"
     inkscape:deskcolor="#d1d1d1"
     inkscape:zoom="5.7291667"
     inkscape:cx="62.487273"
     inkscape:cy="72"
     inkscape:window-width="1920"
     inkscape:window-height="1027"
     inkscape:window-x="-8"
     inkscape:window-y="-8"
     inkscape:window-maximized="1"
     inkscape:current-layer="svg1" />
  <path
     d="M82 0.49999C94.75 0.49999 110.5 0.74999 119.25 11.25C120 12 121.75 14.5 121.75 15.5C121.75 21.5 106.5 31.25 101.25 31.25C98.5 31.25 96.5 25.5 91.75 22.5C85.5 18.75 71.25 18 63.75 18C46.5 18 36 23.25 28.25 39C25 45.75 23.25 53.25 23.25 60.75C23.25 80.75 30.75 103.5 47.75 115.5C58.25 123 73.75 126.25 86.75 126.25C89.75 126.25 93.5 125.5 96 124C99 122.25 101 117.25 103 114.5C106.25 109.75 116.25 102.25 122 102.25C123.25 102.25 124.5 102.75 124.5 104C124.5 106 121 111 120 112.75C109.25 127.5 87.25 143.75 68.5 143.75C54.25 143.75 38 140.25 26 132C8.25 119.75 0.25 95.5 0.25 74.75C0.25 35.25 44.5 0.49999 82 0.49999Z"
     fill="#CE8DFF"
     id="path1"
     style="fill:#000000;fill-opacity:1" />
</svg>
