<svg width="128" height="289" viewBox="0 0 128 289" fill="none" xmlns="http://www.w3.org/2000/svg">
<path d="M0.64492 199L21.9449 190H51.9449V88H75.9449V190H106.245L127.545 199L106.245 208H21.9449L0.64492 199ZM24.2535 58C24.2535 50.5 30.5535 44.5 37.7535 44.5C45.2535 44.5 51.2535 50.5 51.2535 58C51.2535 65.5 45.2535 71.5 37.7535 71.5C30.5535 71.5 24.2535 65.5 24.2535 58ZM76.4535 58C76.4535 50.5 82.7535 44.5 89.9535 44.5C97.4535 44.5 103.454 50.5 103.454 58C103.454 65.5 97.4535 71.5 89.9535 71.5C82.7535 71.5 76.4535 65.5 76.4535 58ZM50.3535 14.2C50.3535 6.7 56.6535 0.699987 63.8535 0.699987C71.3535 0.699987 77.3535 6.7 77.3535 14.2C77.3535 21.7 71.3535 27.7 63.8535 27.7C56.6535 27.7 50.3535 21.7 50.3535 14.2ZM50.3535 256.9C50.3535 264.4 56.6535 270.4 63.8535 270.4C71.3535 270.4 77.3535 264.4 77.3535 256.9C77.3535 249.4 71.3535 243.4 63.8535 243.4C56.6535 243.4 50.3535 249.4 50.3535 256.9ZM32.3535 256.9C32.3535 239.5 46.4535 225.4 63.8535 225.4C81.2535 225.4 95.3535 239.5 95.3535 256.9C95.3535 274.3 81.2535 288.4 63.8535 288.4C46.4535 288.4 32.3535 274.3 32.3535 256.9Z" fill="black"/>
</svg>
