<svg width="119" height="213" viewBox="0 0 119 213" fill="none" xmlns="http://www.w3.org/2000/svg">
<path d="M26.1289 19.25C24.8789 19.25 23.6289 19 23.6289 17.5C23.6289 11.25 38.1289 2.75 43.1289 2C45.6289 1.5 48.3789 1.5 50.8789 1.5L64.6289 1.25C73.8789 1 83.1289 0.500003 92.3789 0.500003C93.6289 0.500003 94.8789 0.750003 94.8789 2.25C94.8789 5.25 89.8789 9.99999 87.8789 12C74.3789 25.75 57.1289 39.25 39.6289 50.25H57.3789C64.3789 50.25 71.6289 51 78.1289 53.25C91.8789 57.75 108.129 69 108.129 85C108.129 115.25 76.6289 140.5 47.8789 140.5C41.6289 140.5 34.8789 139.75 28.8789 137.75V176.5C39.3789 176.75 48.8789 181.25 58.6289 185.75C58.6289 172.25 79.3789 158 91.3789 157.25C92.8789 157 94.3789 157 95.8789 157C106.379 157 118.879 164.25 118.879 175.75C118.879 195.75 88.6289 212.5 71.1289 212.5C48.1289 212.5 28.3789 194 9.62891 194C9.37891 194 9.37891 194 9.12891 194C8.87891 194 8.62891 194 8.37891 194C7.37891 194 5.87891 193.75 5.87891 192.25V111C5.87891 105.25 20.8789 95.25 26.3789 95.25C27.3789 95.25 28.3789 95.5 28.8789 96.5C29.8789 98.5 30.6289 101 31.3789 103.25C35.6289 113.75 39.6289 118 50.6289 121C55.8789 122.5 61.3789 123.25 66.6289 123.25C69.1289 123.25 76.6289 122.5 78.3789 120.75C82.3789 116.5 85.1289 104.75 85.1289 99C85.1289 92 81.3789 86 76.3789 81.5C61.8789 68 47.1289 67.75 28.3789 67.75H3.37891C2.37891 67.75 0.878906 67.5 0.878906 66C0.878906 60.75 13.3789 52 19.6289 50.5C35.8789 43.25 50.8789 32.75 64.3789 21.25C65.3789 20.25 66.6289 19.25 67.6289 18.25L53.8789 18.5C44.6289 18.75 35.3789 19.25 26.1289 19.25ZM83.3789 183C83.3789 185.75 79.8789 189.75 75.6289 192.75C79.8789 194.25 84.3789 195 89.1289 195C91.1289 195 93.1289 194.75 95.1289 194.25C95.6289 192.75 95.8789 191.25 95.8789 189.5C95.8789 181.75 88.3789 176.5 81.6289 175C81.6289 177.75 83.3789 180.5 83.3789 183Z" fill="black"/>
</svg>
