<svg width="108" height="195" viewBox="0 0 108 195" fill="none" xmlns="http://www.w3.org/2000/svg">
<path d="M59.9453 3.57628e-06C62.6953 3.57628e-06 65.4453 2 67.4453 3.5C75.4453 9.49999 82.4453 17 90.1953 23.5C93.6953 26.5 97.1953 29 100.945 31.75C101.445 32 101.695 32.5 101.695 33C101.695 38.75 86.6953 48.75 81.1953 48.75C76.4453 48.75 54.6953 27.25 49.1953 23C42.9453 33 36.1953 42.5 28.1953 51.25H56.9453C63.9453 51.25 71.1953 52 77.6953 54.25C91.4453 58.75 107.695 70 107.695 86C107.695 116.25 76.1953 141.5 47.4453 141.5C41.1953 141.5 34.4453 140.75 28.4453 138.75V179.25C28.4453 185 13.4453 195 7.94531 195C6.94531 195 5.44531 194.75 5.44531 193.25V112C5.44531 106.25 20.4453 96.25 25.9453 96.25C26.9453 96.25 27.9453 96.5 28.4453 97.5C29.4453 99.5 30.1953 102 30.9453 104.25C35.1953 114.75 39.1953 119 50.1953 122C55.4453 123.5 60.9453 124.25 66.1953 124.25C68.6953 124.25 76.1953 123.5 77.9453 121.75C81.9453 117.5 84.6953 105.75 84.6953 100C84.6953 93 80.9453 87 75.9453 82.5C61.4453 69 46.6953 68.75 27.9453 68.75H2.94531C1.94531 68.75 0.445313 68.5 0.445313 67C0.445313 64 4.69531 59.75 9.19531 56.5C10.1953 55.75 10.9453 55 11.4453 54.5C21.6953 43.25 30.1953 29.75 37.1953 16.5C40.6953 9.74999 52.1953 3.57628e-06 59.9453 3.57628e-06Z" fill="black"/>
</svg>
