<svg width="119" height="163" viewBox="0 0 119 163" fill="none" xmlns="http://www.w3.org/2000/svg">
<path d="M9.73242 144C9.48242 144 9.23242 144 8.98242 144C8.73242 144 8.48242 144 8.23242 144C7.23242 144 5.73242 143.75 5.73242 142.25V61C5.73242 55.25 20.7324 45.25 26.2324 45.25C27.2324 45.25 28.2324 45.5 28.7324 46.5C29.7324 48.5 30.4824 51 31.2324 53.25C35.4824 63.75 39.4824 68 50.4824 71C55.7324 72.5 61.2324 73.25 66.4824 73.25C68.9824 73.25 76.4824 72.5 78.2324 70.75C82.2324 66.5 84.9824 54.75 84.9824 49C84.9824 42 81.2324 36 76.2324 31.5C61.7324 18 46.9824 17.75 28.2324 17.75H3.23242C2.23242 17.75 0.732422 17.5 0.732422 16C0.732422 10.25 15.7324 0.24999 21.2324 0.24999H57.2324C64.2324 0.24999 71.4824 0.99999 77.9824 3.24999C91.7324 7.75 107.982 19 107.982 35C107.982 65.25 76.4824 90.5 47.7324 90.5C41.4824 90.5 34.7324 89.75 28.7324 87.75V126.5C39.4824 126.75 48.9824 131.25 58.7324 135.75C58.7324 122.25 79.4824 108 91.4824 107.25C92.9824 107 94.4824 107 95.9824 107C106.482 107 118.982 114.25 118.982 125.75C118.982 145.75 88.7324 162.5 71.2324 162.5C48.2324 162.5 28.4824 144 9.73242 144ZM83.4824 133C83.4824 135.75 79.9824 139.75 75.7324 142.75C79.9824 144.25 84.4824 145 89.2324 145C91.2324 145 93.2324 144.75 95.2324 144.25C95.7324 142.75 95.9824 141.25 95.9824 139.5C95.9824 131.75 88.4824 126.5 81.7324 125C81.7324 127.75 83.4824 130.5 83.4824 133Z" fill="black"/>
</svg>
