<svg width="134" height="222" viewBox="0 0 134 222" fill="none" xmlns="http://www.w3.org/2000/svg">
<path d="M30.8047 152.75C31.0547 151.25 31.0547 149.5 31.0547 148V141.25C31.0547 141 31.0547 141 31.0547 140.75V61C31.0547 55.25 46.0547 45.25 51.5547 45.25C52.5547 45.25 53.5547 45.5 54.0547 46.5C55.0547 48.5 55.8047 51 56.5547 53.25C60.8047 63.75 64.8047 68 75.8047 71C81.0547 72.5 86.5547 73.25 91.8047 73.25C94.3047 73.25 101.805 72.5 103.555 70.75C107.555 66.5 110.305 54.75 110.305 49C110.305 42 106.555 36 101.555 31.5C87.0547 18 72.3047 17.75 53.5547 17.75H28.5547C27.5547 17.75 26.0547 17.5 26.0547 16C26.0547 10.25 41.0547 0.24999 46.5547 0.24999H82.5547C89.5547 0.24999 96.8047 0.99999 103.305 3.24999C117.055 7.75 133.305 19 133.305 35C133.305 65.25 101.805 90.5 73.0547 90.5C66.8047 90.5 60.0547 89.75 54.0547 87.75V138.25C54.0547 141.75 52.5547 145.25 50.3047 148.25C51.3047 148.25 52.3047 148.25 53.0547 148.25C67.5547 148.25 88.3047 157.75 88.3047 174.25C88.3047 179.5 86.8047 184.5 84.5547 189C76.3047 206.75 61.5547 221.25 40.8047 221.25C21.8047 221.25 0.804687 210.5 0.804687 189.25C0.804687 171.5 16.3047 159.5 30.8047 152.75ZM28.0547 166.5C27.3047 166.5 26.5547 166.25 26.0547 166H25.8047C24.5547 169 23.8047 172.25 23.8047 175.25C23.8047 179.75 25.3047 184 27.3047 187.75C34.5547 200.25 46.8047 203.5 60.3047 203.75C63.0547 199.25 65.3047 193.75 65.3047 188.25C65.3047 174.5 46.8047 165.5 35.0547 165.5C32.5547 165.5 30.3047 166.5 28.0547 166.5Z" fill="black"/>
</svg>
