<svg width="134" height="272" viewBox="0 0 134 272" fill="none" xmlns="http://www.w3.org/2000/svg">
<path d="M30.8047 203C31.0547 201.5 31.0547 199.75 31.0547 198.25V191.5C31.0547 191.25 31.0547 191.25 31.0547 191V111.25C31.0547 105.5 46.0547 95.5 51.5547 95.5C52.5547 95.5 53.5547 95.75 54.0547 96.75C55.0547 98.75 55.8047 101.25 56.5547 103.5C60.8047 114 64.8047 118.25 75.8047 121.25C81.0547 122.75 86.5547 123.5 91.8047 123.5C94.3047 123.5 101.805 122.75 103.555 121C107.555 116.75 110.305 105 110.305 99.25C110.305 92.25 106.555 86.25 101.555 81.75C87.0547 68.25 72.3047 68 53.5547 68H28.5547C27.5547 68 26.0547 67.75 26.0547 66.25C26.0547 60.5 41.0547 50.5 46.5547 50.5H82.5547C89.5547 50.5 96.8047 51.25 103.305 53.5C117.055 58 133.305 69.25 133.305 85.25C133.305 115.5 101.805 140.75 73.0547 140.75C66.8047 140.75 60.0547 140 54.0547 138V188.5C54.0547 192 52.5547 195.5 50.3047 198.5C51.3047 198.5 52.3047 198.5 53.0547 198.5C67.5547 198.5 88.3047 208 88.3047 224.5C88.3047 229.75 86.8047 234.75 84.5547 239.25C76.3047 257 61.5547 271.5 40.8047 271.5C21.8047 271.5 0.804687 260.75 0.804687 239.5C0.804687 221.75 16.3047 209.75 30.8047 203ZM79.5547 14.5C75.5547 14.5 71.3047 14.75 67.5547 16C63.0547 17.5 59.3047 21.5 54.3047 21.5C53.3047 21.5 52.3047 21.25 52.3047 20.25C52.3047 13.5 73.3047 3.75 79.3047 2.25C84.3047 1 89.5547 0.500002 94.5547 0.500002C102.055 0.500002 108.055 2.5 113.305 7.75C118.805 13 121.805 20.5 126.805 26C127.555 26.75 131.055 29.5 131.055 30.5C131.055 35.25 118.555 43.25 114.055 43.25H113.805C98.3047 42.25 82.5547 41.25 67.0547 41.25C56.8047 41.25 46.8047 42 36.5547 43.25H35.8047C34.8047 43.25 33.8047 43 33.8047 42C33.8047 37.25 45.8047 30 50.0547 29.25C60.5547 27.5 71.5547 27 82.0547 27C88.3047 27 94.3047 27.25 100.555 27.5C95.5547 19.75 89.3047 14.5 79.5547 14.5ZM28.0547 216.75C27.3047 216.75 26.5547 216.5 26.0547 216.25H25.8047C24.5547 219.25 23.8047 222.5 23.8047 225.5C23.8047 230 25.3047 234.25 27.3047 238C34.5547 250.5 46.8047 253.75 60.3047 254C63.0547 249.5 65.3047 244 65.3047 238.5C65.3047 224.75 46.8047 215.75 35.0547 215.75C32.5547 215.75 30.3047 216.75 28.0547 216.75Z" fill="black"/>
</svg>
