<svg width="128" height="208" viewBox="0 0 128 208" fill="none" xmlns="http://www.w3.org/2000/svg">
<path d="M0.64492 155L21.9449 146H51.9449V44H75.9449V146H106.245L127.545 155L106.245 164H21.9449L0.64492 155ZM50.3535 14C50.3535 6.49999 56.6535 0.499995 63.8535 0.499995C71.3535 0.499995 77.3535 6.49999 77.3535 14C77.3535 21.5 71.3535 27.5 63.8535 27.5C56.6535 27.5 50.3535 21.5 50.3535 14ZM50.3535 194C50.3535 186.5 56.6535 180.5 63.8535 180.5C71.3535 180.5 77.3535 186.5 77.3535 194C77.3535 201.5 71.3535 207.5 63.8535 207.5C56.6535 207.5 50.3535 201.5 50.3535 194Z" fill="black"/>
</svg>
