<?xml version="1.0" encoding="UTF-8" standalone="no"?>
<svg
   width="127"
   height="141"
   viewBox="0 0 127 141"
   fill="none"
   version="1.1"
   id="svg1"
   sodipodi:docname="S base.svg"
   inkscape:version="1.4.2 (f4327f4, 2025-05-13)"
   xmlns:inkscape="http://www.inkscape.org/namespaces/inkscape"
   xmlns:sodipodi="http://sodipodi.sourceforge.net/DTD/sodipodi-0.dtd"
   xmlns="http://www.w3.org/2000/svg"
   xmlns:svg="http://www.w3.org/2000/svg">
  <defs
     id="defs1" />
  <sodipodi:namedview
     id="namedview1"
     pagecolor="#ffffff"
     bordercolor="#000000"
     borderopacity="0.25"
     inkscape:showpageshadow="2"
     inkscape:pageopacity="0.0"
     inkscape:pagecheckerboard="0"
     inkscape:deskcolor="#d1d1d1"
     inkscape:zoom="5.8510638"
     inkscape:cx="63.492727"
     inkscape:cy="70.5"
     inkscape:window-width="1920"
     inkscape:window-height="1027"
     inkscape:window-x="-8"
     inkscape:window-y="-8"
     inkscape:window-maximized="1"
     inkscape:current-layer="svg1" />
  <path
     d="M68.5 0.74999C86.75 0.74999 100.5 4.25 115.25 15C116.75 15.75 121.25 19 121.25 20.5C121.25 26.5 106 36.25 100.75 36.25C100 36.25 99.25 36.25 98.75 35.75C84.5 23 69.75 18.25 50.5 18.25C45.25 18.25 35.5 19.5 31 22C28.5 23.25 26.5 30.75 26.5 33.25C26.5 36.5 28.5 39.5 31.25 41.25C38.25 46.25 63 46.75 72.25 47.25C102.75 49.5 126.5 62.25 126.5 95C126.5 123.25 90.75 140.5 65.75 140.5C45.5 140.5 16.25 139 4 120.5C2 117.5 0.25 113.25 0.25 109.75C0.25 108 0.500001 106.5 1.25 105C4.25 98 19.75 85 27.5 85C28.75 85 30 85.5 30 86.75C30 90.25 25.25 93.5 23.25 95.75C25 113.25 47.25 120.25 61.75 122C69.25 123 76.5 123 83.75 123C88 123 97 122.5 100.5 120.75C102.25 119.75 103.5 111 103.5 109C103.5 84.25 88.75 70.5 65.25 66C52.5 63.75 18.5 64.5 9.5 58C6 55.5 3.5 51.75 3.5 47.25C3.5 28.25 27.75 11.25 43.75 5.5C51.5 2.49999 60.25 0.74999 68.5 0.74999Z"
     fill="#CE8DFF"
     id="path1"
     style="fill:#000000;fill-opacity:1" />
</svg>
