<svg width="128" height="201" viewBox="0 0 128 201" fill="none" xmlns="http://www.w3.org/2000/svg">
<path d="M0.64492 192L21.9449 183H51.9449V81H75.9449V183H106.245L127.545 192L106.245 201H21.9449L0.64492 192ZM50.3535 32C50.3535 39.5 56.6535 45.5 63.8535 45.5C71.3535 45.5 77.3535 39.5 77.3535 32C77.3535 24.5 71.3535 18.5 63.8535 18.5C56.6535 18.5 50.3535 24.5 50.3535 32ZM32.3535 32C32.3535 14.6 46.4535 0.499994 63.8535 0.499994C81.2535 0.499994 95.3535 14.6 95.3535 32C95.3535 49.4 81.2535 63.5 63.8535 63.5C46.4535 63.5 32.3535 49.4 32.3535 32Z" fill="black"/>
</svg>
