<?xml version="1.0" encoding="UTF-8" standalone="no"?>
<!-- Created with Inkscape (http://www.inkscape.org/) -->

<svg
   version="1.1"
   id="svg1"
   width="1485.6296"
   height="841.13312"
   viewBox="0 0 495.20988 280.3777"
   sodipodi:docname="Abjoid Blocky One - Font Cover landscape.svg"
   inkscape:version="1.4.2 (f4327f4, 2025-05-13)"
   inkscape:export-filename="Font Cover landscape.png"
   inkscape:export-xdpi="96"
   inkscape:export-ydpi="96"
   xmlns:inkscape="http://www.inkscape.org/namespaces/inkscape"
   xmlns:sodipodi="http://sodipodi.sourceforge.net/DTD/sodipodi-0.dtd"
   xmlns="http://www.w3.org/2000/svg"
   xmlns:svg="http://www.w3.org/2000/svg">
  <defs
     id="defs1">
    <rect
       x="198.13704"
       y="58.2756"
       width="26.763609"
       height="44.893795"
       id="rect14" />
    <rect
       x="142.88313"
       y="45.325466"
       width="116.98287"
       height="137.27142"
       id="rect11" />
  </defs>
  <sodipodi:namedview
     id="namedview1"
     pagecolor="#ffffff"
     bordercolor="#000000"
     borderopacity="0.25"
     inkscape:showpageshadow="2"
     inkscape:pageopacity="0.0"
     inkscape:pagecheckerboard="0"
     inkscape:deskcolor="#d1d1d1"
     inkscape:zoom="0.5"
     inkscape:cx="686"
     inkscape:cy="431"
     inkscape:window-width="1920"
     inkscape:window-height="1027"
     inkscape:window-x="-8"
     inkscape:window-y="-8"
     inkscape:window-maximized="1"
     inkscape:current-layer="g1"
     showguides="false"
     showgrid="false" />
  <g
     inkscape:groupmode="layer"
     inkscape:label="Image"
     id="g1"
     transform="translate(-19.645168,-20.665426)">
    <rect
       style="display:inline;opacity:1;fill:#ffffff;fill-opacity:0.578313"
       id="rect3"
       width="495.00003"
       height="279.99997"
       x="19.855019"
       y="20.665426" />
    <rect
       style="opacity:0.744;fill:#88009b;fill-opacity:1;stroke-width:1.00088"
       id="rect1"
       width="495.2099"
       height="280.37769"
       x="19.645168"
       y="20.665426"
       inkscape:label="Background"
       ry="0" />
    <g
       id="g39"
       inkscape:label="Texts"
       transform="translate(7.2499965,-4)"
       style="display:none">
      <text
         xml:space="preserve"
         style="font-style:normal;font-variant:normal;font-weight:normal;font-stretch:normal;font-size:114.327px;line-height:0.8;font-family:'Abjad English Blocky One';-inkscape-font-specification:'Abjad English Blocky One';text-align:start;writing-mode:lr-tb;direction:ltr;text-anchor:start;white-space:pre;inline-size:306.879;display:inline;opacity:1;fill:#3a0043;fill-opacity:0.576471;stroke-width:9.52731"
         x="110.93407"
         y="115.74528"
         id="text1"
         transform="matrix(0.83650525,0,0,0.83650525,-68.191495,3.5354778)"><tspan
           x="110.93407"
           y="115.74528"
           id="tspan9">yxed </tspan><tspan
           x="110.93407"
           y="207.20687"
           id="tspan10">rom</tspan></text>
      <text
         xml:space="preserve"
         style="font-size:50.2451px;line-height:1.6;text-align:end;writing-mode:lr-tb;direction:ltr;text-anchor:end;display:inline;opacity:0.81;fill:#32003a;fill-opacity:1;stroke:#32003a;stroke-width:1.02105;stroke-dasharray:none;stroke-opacity:1;paint-order:normal"
         x="499.85318"
         y="65.819412"
         id="text2"><tspan
           sodipodi:role="line"
           x="499.85318"
           y="65.819412"
           style="font-style:normal;font-variant:normal;font-weight:500;font-stretch:normal;font-family:'Abjad English Blocky One';-inkscape-font-specification:'Abjad English Blocky One Medium';text-align:end;text-anchor:end;fill:#000000;fill-opacity:1;stroke:none;stroke-width:1.02105;stroke-dasharray:none;stroke-opacity:1;paint-order:normal"
           id="tspan4">Abjoid Blocky</tspan><tspan
           sodipodi:role="line"
           x="499.85318"
           y="147.96388"
           style="font-style:normal;font-variant:normal;font-weight:500;font-stretch:normal;font-family:'Abjad English Blocky One';-inkscape-font-specification:'Abjad English Blocky One Medium';text-align:end;text-anchor:end;fill:#000000;fill-opacity:1;stroke:none;stroke-width:1.02105;stroke-dasharray:none;stroke-opacity:1;paint-order:normal"
           id="tspan3">Foundation One</tspan></text>
      <text
         xml:space="preserve"
         style="font-style:normal;font-variant:normal;font-weight:normal;font-stretch:normal;font-size:43.0443px;line-height:0.85;font-family:TallThin;-inkscape-font-specification:TallThin;text-align:end;letter-spacing:0px;writing-mode:lr-tb;direction:ltr;text-anchor:end;opacity:0.861111;fill:#3a0043;fill-opacity:0.576471;stroke:none;stroke-width:1.29132;stroke-dasharray:none;stroke-opacity:1;paint-order:normal"
         x="259.86691"
         y="222.36807"
         id="text56"><tspan
           sodipodi:role="line"
           x="259.86691"
           y="222.36807"
           style="font-style:normal;font-variant:normal;font-weight:normal;font-stretch:normal;line-height:0.85;font-family:'Abjad English Blocky One';-inkscape-font-specification:'Abjad English Blocky One';text-align:center;letter-spacing:0px;text-anchor:middle;fill:#3a0043;fill-opacity:0.576471;stroke-width:1.29132"
           id="tspan8">abcdefghijklmnopqrs</tspan><tspan
           sodipodi:role="line"
           x="259.86691"
           y="261.10794"
           style="font-style:normal;font-variant:normal;font-weight:normal;font-stretch:normal;line-height:0.85;font-family:'Abjad English Blocky One';-inkscape-font-specification:'Abjad English Blocky One';text-align:center;letter-spacing:0px;text-anchor:middle;fill:#3a0043;fill-opacity:0.576471;stroke-width:1.29132"
           id="tspan13">tuvwxyz <tspan
   style="line-height:0.85;text-align:center;text-anchor:middle;fill:#ef73ff;fill-opacity:0.576471;stroke-width:1.29132"
   id="tspan1">̀</tspan></tspan><tspan
           sodipodi:role="line"
           x="259.86691"
           y="299.84781"
           style="font-style:normal;font-variant:normal;font-weight:normal;font-stretch:normal;line-height:0.85;font-family:'Abjad English Blocky One';-inkscape-font-specification:'Abjad English Blocky One';text-align:center;letter-spacing:0px;text-anchor:middle;fill:#3a0043;fill-opacity:0.576471;stroke-width:1.29132"
           id="tspan16">  </tspan></text>
      <text
         xml:space="preserve"
         style="font-style:normal;font-variant:normal;font-weight:normal;font-stretch:normal;font-size:37.7734px;line-height:2;font-family:'Courier New';-inkscape-font-specification:'Courier New';text-align:end;writing-mode:lr-tb;direction:ltr;text-anchor:end;display:inline;opacity:0.81;fill:#32003a;fill-opacity:1;stroke:#32003a;stroke-width:0.767606;stroke-dasharray:none;stroke-opacity:1;paint-order:normal"
         x="500.37204"
         y="109.01574"
         id="text7"><tspan
           sodipodi:role="line"
           x="500.37204"
           y="109.01574"
           style="font-style:normal;font-variant:normal;font-weight:normal;font-stretch:normal;line-height:2;font-family:'Fira Sans';-inkscape-font-specification:'Fira Sans';text-align:end;text-anchor:end;fill:#32003a;fill-opacity:1;stroke:none;stroke-width:0.767606;stroke-dasharray:none;stroke-opacity:1;paint-order:normal"
           id="tspan6">Abjoid Blocky</tspan><tspan
           sodipodi:role="line"
           x="500.37204"
           y="185.10606"
           style="font-style:normal;font-variant:normal;font-weight:normal;font-stretch:normal;line-height:2;font-family:'Fira Sans';-inkscape-font-specification:'Fira Sans';text-align:end;text-anchor:end;fill:#32003a;fill-opacity:1;stroke:none;stroke-width:0.767606;stroke-dasharray:none;stroke-opacity:1;paint-order:normal"
           id="tspan7">Foundation One</tspan></text>
    </g>
    <g
       id="g27"
       inkscape:label="Vectors"
       transform="translate(7.2499965,-4)"
       style="display:inline">
      <g
         id="text19"
         style="font-size:114.327px;line-height:0.8;font-family:'Abjad English Blocky One';-inkscape-font-specification:'Abjad English Blocky One';white-space:pre;inline-size:306.879;fill:#3a0043;fill-opacity:0.576471;stroke-width:9.52731"
         transform="matrix(0.83650525,0,0,0.83650525,-68.191495,3.5354778)"
         aria-label="yxed rom">
        <path
           d="m 102.58772,112.31547 8.11722,3.42981 h 68.71053 l 8.11722,-3.42981 -8.11722,-3.42981 H 167.86844 V 70.014476 h -9.14616 v 38.871184 h -9.14616 V 70.014476 h -9.14616 V 108.88566 H 131.2838 V 70.014476 h -9.14616 v 38.871184 h -11.4327 z m 37.27061,-70.425437 c 0,2.858175 2.40086,5.144715 5.14471,5.144715 2.85818,0 5.14472,-2.28654 5.14472,-5.144715 0,-2.858175 -2.28654,-5.144715 -5.14472,-5.144715 -2.74385,0 -5.14471,2.28654 -5.14471,5.144715 z m -9.94645,16.691743 c 0,2.858175 2.40086,5.144715 5.14471,5.144715 2.85818,0 5.14472,-2.28654 5.14472,-5.144715 0,-2.858175 -2.28654,-5.144715 -5.14472,-5.144715 -2.74385,0 -5.14471,2.28654 -5.14471,5.144715 z m 19.89289,0 c 0,2.858175 2.40087,5.144715 5.14472,5.144715 2.85818,0 5.14472,-2.28654 5.14472,-5.144715 0,-2.858175 -2.28654,-5.144715 -5.14472,-5.144715 -2.74385,0 -5.14472,2.28654 -5.14472,5.144715 z m 20.92192,53.733694 8.11722,3.42981 h 68.71053 l 1.37192,-0.57164 5.94501,-1.60058 -1.37193,-0.34298 2.17222,-0.91461 -8.11722,-3.42981 H 232.5776 l 3.42981,-5.14472 V 87.163527 h -27.43848 v 21.722133 h -9.14616 V 79.160636 h 36.58464 v -9.14616 h -45.7308 v 38.871184 h -11.4327 z m 56.13456,-8.57453 -3.42981,5.14472 h -5.71635 V 92.879877 h 9.14616 z M 208.11162,58.581776 c 0,2.858175 2.40087,5.144715 5.14472,5.144715 2.85817,0 5.14471,-2.28654 5.14471,-5.144715 0,-2.858175 -2.28654,-5.144715 -5.14471,-5.144715 -2.74385,0 -5.14472,2.28654 -5.14472,5.144715 z m 30.75404,53.733694 8.11722,3.42981 h 25.15194 0.45731 0.34298 10.28943 l 8.11722,-3.42981 -8.11722,-3.42981 h -4.91606 v -1.37193 c 0.11432,-4.00144 0.11432,-8.002887 0.11432,-11.890005 0,-4.230099 -0.68596,-10.518085 -2.9725,-15.548473 2.40087,-9.260487 2.9725,-19.43559 2.9725,-28.924732 0,-0.914616 -0.80028,-1.257597 -1.60057,-1.257597 -1.94356,0 -4.91606,1.714905 -5.4877,3.658465 -0.34298,1.028943 -0.22865,2.629521 -0.22865,3.772791 0,3.544137 -0.22866,9.832122 -1.02895,16.00578 -1.37192,-0.800289 -2.9725,-1.257597 -4.80173,-1.257597 -6.85962,0 -13.71924,6.973947 -13.71924,13.833567 0,4.573081 5.48769,8.80318 9.83212,8.80318 3.42981,0 6.63097,-1.714905 8.91751,-4.230099 0.68596,3.086829 1.02894,6.059331 1.02894,8.00289 0,3.42981 -0.22865,6.97395 -0.34298,10.40376 H 246.98288 Z M 265.2752,89.450067 c -2.51519,0 -6.63097,-3.772792 -6.63097,-6.402313 0,-1.257597 1.14327,-5.71635 2.74385,-5.71635 2.9725,0 5.14472,2.515194 6.74529,5.830677 -0.80028,2.743848 -1.7149,4.916062 -2.85817,6.287986 z m 67.79595,19.435593 H 321.52412 V 70.014476 h -9.14616 V 108.88566 H 303.2318 V 70.014476 h -9.14616 v 38.871184 h -11.4327 l -8.11722,3.42981 8.11722,3.42981 h 50.41821 l 8.11721,-3.42981 z m -30.41099,18.29232 c 0,2.85817 2.40087,5.14471 5.14472,5.14471 2.85817,0 5.14471,-2.28654 5.14471,-5.14471 0,-2.85818 -2.28654,-5.14472 -5.14471,-5.14472 -2.74385,0 -5.14472,2.28654 -5.14472,5.14472 z"
           id="path35"
           sodipodi:nodetypes="cccccccccccccccccccssssssssssssssscccccccccccccccccccccccccccsssssccccccccccscsscscssscsccccsscccccccccccccccccsssss" />
        <path
           d="m 161.12315,200.34725 h -11.54703 v -38.87118 h -9.14616 v 38.87118 h -9.14616 v -38.87118 h -9.14616 v 38.87118 h -11.4327 l -8.11722,3.42981 8.11722,3.42981 h 50.41821 l 8.11722,-3.42981 z M 147.51823,141.6975 c 0,-6.51664 -4.91606,-5.03039 -6.17365,-6.85962 2.62952,-2.17222 6.74529,-2.5152 6.74529,-6.85962 0,-0.57164 -0.22865,-1.37193 -1.02894,-1.37193 -0.80029,0 -1.94356,0.80029 -2.62952,1.14327 -3.65847,2.05789 -8.00289,5.14472 -8.00289,9.83213 0,5.37336 6.28798,3.20115 6.51663,6.97394 -3.77279,6.40231 -9.94644,4.57308 -15.89145,5.4877 -1.82923,0.22865 -3.42981,3.08683 -3.42981,4.80173 0,0.57164 0.22866,1.37193 1.02894,1.37193 1.94356,0 3.88712,-0.22866 5.71635,-0.34298 7.20261,-0.45731 10.86107,-2.5152 14.97684,-8.4602 1.14327,-1.71491 2.17221,-3.65847 2.17221,-5.71635 z m 21.03627,13.37626 -1.82923,6.63096 21.72213,5.83068 c -0.34298,1.14327 -0.57164,2.40087 -1.2576,3.77279 -0.68596,1.14327 -1.71491,2.17221 -2.74385,3.20116 -4.45875,4.11577 -8.68885,5.60202 -14.63385,5.60202 -2.5152,0 -4.68741,4.2301 -4.68741,6.40231 0,1.82923 1.2576,1.94356 2.62952,1.94356 10.86106,0 22.29376,-9.48914 25.49492,-19.66424 l 0.11433,-0.34298 c 0.22865,-0.68597 0.45731,-1.48625 0.57163,-2.40087 l 1.02895,-3.88712 z m -16.12011,48.7033 8.11722,3.42981 h 38.98551 l 8.11721,-3.42981 -8.11721,-3.42981 h -38.98551 z m 38.52819,0 8.11721,3.42981 h 32.12589 l 8.11722,-3.42981 -8.11722,-3.42981 h -11.54702 v -38.87118 h -9.14616 v 38.87118 h -11.43271 z m 12.11866,-60.59331 c 0,6.63096 5.37337,12.00433 12.00434,12.00433 6.63096,0 12.00433,-5.37337 12.00433,-12.00433 0,-6.63097 -5.37337,-12.00434 -12.00433,-12.00434 -6.63097,0 -12.00434,5.37337 -12.00434,12.00434 z m 6.85962,0 c 0,-2.85818 2.40087,-5.14472 5.14472,-5.14472 2.85817,0 5.14471,2.28654 5.14471,5.14472 0,2.85817 -2.28654,5.14471 -5.14471,5.14471 -2.74385,0 -5.14472,-2.28654 -5.14472,-5.14471 z m 67.68148,9.94645 c 0,-6.51664 -4.91606,-5.03039 -6.17366,-6.85962 2.62952,-2.17222 6.74529,-2.5152 6.74529,-6.85962 0,-0.57164 -0.22865,-1.37193 -1.02894,-1.37193 -0.80029,0 -1.94356,0.80029 -2.62952,1.14327 -3.65846,2.05789 -8.00289,5.14472 -8.00289,9.83213 0,5.37336 6.28798,3.20115 6.51664,6.97394 -2.9725,5.03039 -7.43126,5.03039 -12.11866,5.14472 0.91461,-6.05933 1.14327,-12.34732 1.14327,-18.52098 0,-0.91461 -0.80029,-1.25759 -1.60058,-1.25759 -1.94356,0 -4.91606,1.7149 -5.4877,3.65846 -0.34298,1.02894 -0.22865,2.62952 -0.22865,3.77279 0,3.54414 -0.22866,9.83212 -1.02894,16.00578 -1.37193,-0.80029 -2.97251,-1.25759 -4.80174,-1.25759 -6.85962,0 -13.71924,6.97394 -13.71924,13.83356 0,4.57308 5.4877,8.80318 9.83212,8.80318 3.42981,0 6.63097,-1.7149 8.91751,-4.2301 0.68596,3.08683 1.02894,6.05933 1.02894,8.00289 0,3.42981 -0.22865,6.97395 -0.34298,10.40376 h -24.00867 l -8.11722,3.42981 8.11722,3.42981 h 25.15194 c 0.11433,0 0.22866,0 0.45731,0 0.11433,0 0.22865,0 0.34298,0 h 25.8379 l 8.11722,-3.42981 -8.11722,-3.42981 h -20.46453 c 0,-0.45731 0,-0.91462 0,-1.37192 0.11433,-4.00145 0.11433,-8.00289 0.11433,-11.89001 0,-4.2301 -0.68597,-10.51809 -2.97251,-15.54847 0.34299,-1.37193 0.68597,-2.74385 0.91462,-4.2301 0.22865,0 0.34298,0 0.45731,0 7.2026,-0.45731 10.86106,-2.5152 14.97684,-8.4602 1.14327,-1.71491 2.17221,-3.65847 2.17221,-5.71635 z m -28.69608,27.78146 c -2.51519,0 -6.63097,-3.77279 -6.63097,-6.40231 0,-1.2576 1.14327,-5.71635 2.74385,-5.71635 2.97251,0 5.14472,2.51519 6.7453,5.83067 -0.80029,2.74385 -1.71491,4.91607 -2.85818,6.28799 z m 24.92321,22.8654 8.11722,3.42981 h 32.12589 l 8.11721,-3.42981 -8.11721,-3.42981 h -11.54703 v -38.87118 h -9.14616 v 38.87118 h -11.4327 z m 18.97835,14.86251 c 0,2.85818 2.40087,5.14472 5.14471,5.14472 2.85818,0 5.14472,-2.28654 5.14472,-5.14472 0,-2.85817 -2.28654,-5.14471 -5.14472,-5.14471 -2.74384,0 -5.14471,2.28654 -5.14471,5.14471 z"
           id="path36" />
      </g>
      <g
         id="text21"
         style="font-size:50.2451px;line-height:1.6;text-align:end;text-anchor:end;opacity:0.81;fill:#32003a;stroke:#32003a;stroke-width:1.02105"
         aria-label="Abjoid Blocky&#10;Foundation One">
        <path
           style="font-weight:500;font-family:'Abjad English Blocky One';-inkscape-font-specification:'Abjad English Blocky One Medium';fill:#000000;stroke:none"
           d="m 225.06262,64.312059 3.5674,1.507353 h 9.14461 l 3.5674,-1.507353 -3.5674,-1.507353 H 234.9609 V 36.677255 h -3.51715 v 26.127451 h -2.81373 z m 8.94363,0 3.5674,1.507353 h 14.11887 l 3.56741,-1.507353 -3.56741,-1.507353 h -5.07475 V 45.721373 h -4.01961 v 17.083333 h -5.02451 z m 8.34069,6.531863 c 0,1.256127 1.05514,2.261029 2.26103,2.261029 1.25612,0 2.26102,-1.004902 2.26102,-2.261029 0,-1.256127 -1.0049,-2.261029 -2.26102,-2.261029 -1.20589,0 -2.26103,1.004902 -2.26103,2.261029 z m 5.52691,-6.531863 3.5674,1.507353 h 30.19731 l 3.5674,-1.507353 -3.5674,-1.507353 H 276.5638 V 45.721373 h -4.01961 v 17.083333 h -4.0196 V 45.721373 h -4.01961 v 17.083333 h -4.01961 V 45.721373 h -4.01961 v 17.083333 h -5.02451 z m 16.3799,6.531863 c 0,1.256127 1.05515,2.261029 2.26103,2.261029 1.25613,0 2.26103,-1.004902 2.26103,-2.261029 0,-1.256127 -1.0049,-2.261029 -2.26103,-2.261029 -1.20588,0 -2.26103,1.004902 -2.26103,2.261029 z m 20.65077,-27.936275 -0.80392,2.914216 9.54657,2.5625 c -0.15074,0.502451 -0.25123,1.055147 -0.5527,1.658088 -0.30147,0.502451 -0.75368,0.954657 -1.20588,1.406863 -1.95956,1.808824 -3.81863,2.46201 -6.43137,2.46201 -1.1054,0 -2.06005,1.859069 -2.06005,2.813725 0,0.803922 0.55269,0.854167 1.15563,0.854167 4.77329,0 9.7978,-4.170343 11.20466,-8.642157 l 0.0503,-0.150735 c 0.10049,-0.301471 0.20098,-0.653186 0.25122,-1.055147 l 0.45221,-1.708333 z m -7.08456,21.404412 3.5674,1.507353 h 17.13358 l 3.5674,-1.507353 -3.5674,-1.507353 h -17.13358 z m 16.93259,0 3.5674,1.507353 h 16.07843 l 3.56741,-1.507353 -3.56741,-1.507353 h -16.07843 z m 5.57721,-14.571078 v 3.014706 h 12.05882 v -3.014706 z m 36.02573,13.063725 h -5.07475 V 45.721373 h -4.01961 v 17.083333 h -4.01961 V 45.721373 h -4.01961 v 17.083333 h -5.02451 l -3.5674,1.507353 3.5674,1.507353 h 22.15809 l 3.5674,-1.507353 z m -13.3652,8.039216 c 0,1.256127 1.05515,2.261029 2.26103,2.261029 1.25613,0 2.26103,-1.004902 2.26103,-2.261029 0,-1.256127 -1.0049,-2.261029 -2.26103,-2.261029 -1.20588,0 -2.26103,1.004902 -2.26103,2.261029 z m 30.59932,-6.531863 3.5674,1.507353 h 14.11888 l 3.5674,-1.507353 -3.5674,-1.507353 h -5.07476 V 45.721373 h -4.01961 v 17.083333 h -5.02451 z m 8.34069,6.531863 c 0,1.256127 1.05515,2.261029 2.26103,2.261029 1.25613,0 2.26103,-1.004902 2.26103,-2.261029 0,-1.256127 -1.0049,-2.261029 -2.26103,-2.261029 -1.20588,0 -2.26103,1.004902 -2.26103,2.261029 z m 31.30265,-8.039216 h -5.07476 V 45.721373 h -4.01961 v 17.083333 h -4.0196 V 45.721373 h -4.01961 v 17.083333 h -5.02451 l -3.5674,1.507353 3.5674,1.507353 h 22.15809 l 3.5674,-1.507353 z m -8.99388,-22.107843 c 0,1.256128 1.05515,2.26103 2.26103,2.26103 1.25613,0 2.26103,-1.004902 2.26103,-2.26103 0,-1.256127 -1.0049,-2.261029 -2.26103,-2.261029 -1.20588,0 -2.26103,1.004902 -2.26103,2.261029 z m -4.37132,-7.335784 c 0,1.256127 1.05515,2.261029 2.26103,2.261029 1.25613,0 2.26103,-1.004902 2.26103,-2.261029 0,-1.256128 -1.0049,-2.26103 -2.26103,-2.26103 -1.20588,0 -2.26103,1.004902 -2.26103,2.26103 z m -4.37132,7.335784 c 0,1.256128 1.05514,2.26103 2.26103,2.26103 1.25612,0 2.26103,-1.004902 2.26103,-2.26103 0,-1.256127 -1.00491,-2.261029 -2.26103,-2.261029 -1.20589,0 -2.26103,1.004902 -2.26103,2.261029 z m 21.00249,2.210784 -0.80392,2.914216 9.54657,2.5625 c -0.15074,0.502451 -0.25123,1.055147 -0.5527,1.658088 -0.30147,0.502451 -0.75367,0.954657 -1.20588,1.406863 -1.95956,1.808824 -3.81863,2.46201 -6.43137,2.46201 -1.10539,0 -2.06005,1.859069 -2.06005,2.813725 0,0.803922 0.55269,0.854167 1.15564,0.854167 4.77328,0 9.79779,-4.170343 11.20465,-8.642157 l 0.0503,-0.150735 c 0.10049,-0.301471 0.20098,-0.653186 0.25122,-1.055147 l 0.45221,-1.708333 z m -7.08456,21.404412 3.5674,1.507353 h 17.13358 l 3.56741,-1.507353 -3.56741,-1.507353 h -17.13358 z m 50.6973,-1.507353 H 418.95847 V 49.740981 h 16.07843 v -4.019608 h -20.09804 v 17.083333 h -5.02451 l -3.5674,1.507353 3.5674,1.507353 h 30.19731 l 3.5674,-1.507353 z M 422.7771,40.696863 c 0,1.256128 1.05514,2.26103 2.26103,2.26103 1.25612,0 2.26103,-1.004902 2.26103,-2.26103 0,-1.256127 -1.00491,-2.261029 -2.26103,-2.261029 -1.20589,0 -2.26103,1.004902 -2.26103,2.261029 z m 47.28066,22.107843 H 448.90458 V 49.740981 h 16.07843 v -4.019608 h -20.09804 v 17.083333 h -5.02451 l -3.5674,1.507353 3.5674,1.507353 h 30.1973 l 3.5674,-1.507353 z m -17.3848,-22.107843 c 0,1.256128 1.05514,2.26103 2.26103,2.26103 1.25612,0 2.26103,-1.004902 2.26103,-2.26103 0,-1.256127 -1.00491,-2.261029 -2.26103,-2.261029 -1.20589,0 -2.26103,1.004902 -2.26103,2.261029 z m 13.56622,23.615196 3.5674,1.507353 h 30.1973 l 3.5674,-1.507353 -3.5674,-1.507353 h -5.07475 V 45.721373 h -4.01961 v 17.083333 h -4.01961 V 45.721373 h -4.01961 v 17.083333 h -4.0196 V 45.721373 h -4.01961 v 17.083333 h -5.02451 z m 16.3799,-30.95098 c 0,1.256127 1.05515,2.261029 2.26103,2.261029 1.25613,0 2.26103,-1.004902 2.26103,-2.261029 0,-1.256128 -1.0049,-2.26103 -2.26103,-2.26103 -1.20588,0 -2.26103,1.004902 -2.26103,2.26103 z m -4.37132,7.335784 c 0,1.256128 1.05514,2.26103 2.26102,2.26103 1.25613,0 2.26103,-1.004902 2.26103,-2.26103 0,-1.256127 -1.0049,-2.261029 -2.26103,-2.261029 -1.20588,0 -2.26102,1.004902 -2.26102,2.261029 z m 8.74264,0 c 0,1.256128 1.05515,2.26103 2.26103,2.26103 1.25613,0 2.26103,-1.004902 2.26103,-2.26103 0,-1.256127 -1.0049,-2.261029 -2.26103,-2.261029 -1.20588,0 -2.26103,1.004902 -2.26103,2.261029 z"
           id="path33" />
        <path
           style="font-weight:500;font-family:'Abjad English Blocky One';-inkscape-font-specification:'Abjad English Blocky One Medium';fill:#000000;stroke:none"
           d="m 260.18388,144.94917 h -5.07475 v -17.08333 h -4.01961 v 17.08333 h -5.02451 l -3.5674,1.50735 3.5674,1.50736 h 14.11887 l 3.5674,-1.50736 z m -10.50122,-19.34436 3.36642,-3.41667 3.41666,3.41667 1.80883,-1.85907 -5.22549,-5.17524 -5.125,5.22549 z m 13.76711,-0.5527 -0.80393,2.91422 9.54657,2.5625 c -0.15073,0.50245 -0.25122,1.05515 -0.55269,1.65809 -0.30147,0.50245 -0.75368,0.95465 -1.20589,1.40686 -1.95955,1.80882 -3.81862,2.46201 -6.43137,2.46201 -1.10539,0 -2.06005,1.85907 -2.06005,2.81372 0,0.80393 0.5527,0.85417 1.15564,0.85417 4.77328,0 9.79779,-4.17034 11.20466,-8.64216 l 0.0502,-0.15073 c 0.10049,-0.30147 0.20098,-0.65319 0.25123,-1.05515 l 0.4522,-1.70833 z m -7.08456,21.40441 3.5674,1.50736 h 17.13358 l 3.5674,-1.50736 -3.5674,-1.50735 h -17.13358 z m 28.23774,-7.28553 c 6.6826,0 8.24019,-8.7929 8.24019,-13.96814 0,-0.50245 0.10049,-1.20588 -0.0502,-1.70834 -0.0502,-0.40196 -0.30147,-0.50245 -0.70343,-0.50245 -0.85417,0 -2.41177,0.85417 -2.41177,1.80883 -0.0502,0.60294 0,1.20588 0,1.80882 0,2.76348 -0.40196,5.52696 -1.45711,8.13971 -0.30147,0.85416 -0.75367,2.11029 -1.90931,2.11029 -1.15564,0 -2.21078,-0.75368 -2.76348,-1.75858 -1.15564,-2.0098 -1.35662,-6.23039 -1.45711,-8.59191 0,-0.60294 0.10049,-1.70833 -0.0502,-2.26103 -0.0503,-0.40196 -0.30147,-0.50245 -0.70343,-0.50245 -0.80393,0 -2.41177,0.85417 -2.41177,1.75858 0,3.16544 0.10049,9.29534 1.90931,11.90809 0.85417,1.15563 2.36152,1.75858 3.76839,1.75858 z m 10.35049,5.77818 H 276.8652 l -3.5674,1.50735 3.5674,1.50736 h 18.08824 l 3.5674,-1.50736 z m 21.95715,0 h -5.07476 v -17.08333 h -4.0196 v 17.08333 h -4.01961 v -17.08333 h -4.01961 v 17.08333 h -5.02451 l -3.5674,1.50735 3.5674,1.50736 h 22.15809 l 3.5674,-1.50736 z m -16.3799,-25.12255 c 0,2.91422 2.36152,5.27574 5.27573,5.27574 2.91422,0 5.27574,-2.36152 5.27574,-5.27574 0,-2.91421 -2.36152,-5.27573 -5.27574,-5.27573 -2.91421,0 -5.27573,2.36152 -5.27573,5.27573 z m 3.0147,0 c 0,-1.25612 1.05515,-2.26103 2.26103,-2.26103 1.25613,0 2.26103,1.00491 2.26103,2.26103 0,1.25613 -1.0049,2.26103 -2.26103,2.26103 -1.20588,0 -2.26103,-1.0049 -2.26103,-2.26103 z m 35.27211,25.12255 h -5.07476 v -17.08333 h -4.01961 v 17.08333 h -4.01961 v -17.08333 h -4.0196 v 17.08333 h -5.02451 l -3.56741,1.50735 3.56741,1.50736 h 22.15809 l 3.5674,-1.50736 z m -13.3652,8.03922 c 0,1.25612 1.05515,2.26103 2.26103,2.26103 1.25613,0 2.26103,-1.00491 2.26103,-2.26103 0,-1.25613 -1.0049,-2.26103 -2.26103,-2.26103 -1.20588,0 -2.26103,1.0049 -2.26103,2.26103 z m 9.54661,-6.53187 3.5674,1.50736 h 9.14461 l 3.5674,-1.50736 -3.5674,-1.50735 h -2.81372 v -26.12745 h -3.51716 v 26.12745 h -2.81373 z m 34.66909,-1.50735 h -5.07476 v -17.08333 h -4.01961 v 17.08333 h -4.0196 v -17.08333 h -4.01961 v 17.08333 h -5.02451 l -3.5674,1.50735 3.5674,1.50736 H 369.668 l 3.5674,-1.50736 z m -13.3652,-22.10784 c 0,1.25613 1.05515,2.26103 2.26103,2.26103 1.25613,0 2.26103,-1.0049 2.26103,-2.26103 0,-1.25613 -1.0049,-2.26103 -2.26103,-2.26103 -1.20588,0 -2.26103,1.0049 -2.26103,2.26103 z m 9.54661,23.61519 3.56741,1.50736 h 16.07843 l 3.5674,-1.50736 -3.5674,-1.50735 h -16.07843 z m 5.57721,-14.57107 v 3.0147 h 12.05882 v -3.0147 z m 17.38481,-6.83334 -0.80392,2.91422 9.54657,2.5625 c -0.15074,0.50245 -0.25123,1.05515 -0.5527,1.65809 -0.30147,0.50245 -0.75368,0.95465 -1.20588,1.40686 -1.95956,1.80882 -3.81863,2.46201 -6.43138,2.46201 -1.10539,0 -2.06004,1.85907 -2.06004,2.81372 0,0.80393 0.55269,0.85417 1.15563,0.85417 4.77329,0 9.7978,-4.17034 11.20466,-8.64216 l 0.0502,-0.15073 c 0.1005,-0.30147 0.20099,-0.65319 0.25123,-1.05515 l 0.45221,-1.70833 z m -7.08456,21.40441 3.5674,1.50736 h 17.13358 l 3.5674,-1.50736 -3.5674,-1.50735 h -17.13358 z m 42.65808,-1.50735 h -5.07476 v -17.08333 h -4.01961 v 17.08333 h -4.0196 v -17.08333 h -4.01961 v 17.08333 h -5.02451 l -3.5674,1.50735 3.5674,1.50736 h 22.15809 l 3.5674,-1.50736 z m -16.37991,-25.12255 c 0,2.91422 2.36152,5.27574 5.27574,5.27574 2.91422,0 5.27574,-2.36152 5.27574,-5.27574 0,-2.91421 -2.36152,-5.27573 -5.27574,-5.27573 -2.91422,0 -5.27574,2.36152 -5.27574,5.27573 z m 3.01471,0 c 0,-1.25612 1.05515,-2.26103 2.26103,-2.26103 1.25613,0 2.26103,1.00491 2.26103,2.26103 0,1.25613 -1.0049,2.26103 -2.26103,2.26103 -1.20588,0 -2.26103,-1.0049 -2.26103,-2.26103 z m 37.73412,5.22549 -0.80392,2.91422 9.54657,2.5625 c -0.15074,0.50245 -0.25123,1.05515 -0.5527,1.65809 -0.30147,0.50245 -0.75367,0.95465 -1.20588,1.40686 -1.95956,1.80882 -3.81863,2.46201 -6.43137,2.46201 -1.10539,0 -2.06005,1.85907 -2.06005,2.81372 0,0.80393 0.5527,0.85417 1.15564,0.85417 4.77328,0 9.79779,-4.17034 11.20465,-8.64216 l 0.0503,-0.15073 c 0.10049,-0.30147 0.20098,-0.65319 0.25122,-1.05515 l 0.45221,-1.70833 z m -7.08456,21.40441 3.56741,1.50736 h 17.13357 l 3.56741,-1.50736 -3.56741,-1.50735 h -17.13357 z m 42.65808,-1.50735 h -5.07475 v -17.08333 h -4.01961 v 17.08333 h -4.01961 v -17.08333 h -4.01961 v 17.08333 h -5.02451 l -3.5674,1.50735 3.5674,1.50736 h 22.15809 l 3.5674,-1.50736 z m -16.3799,-25.12255 c 0,2.91422 2.36152,5.27574 5.27573,5.27574 2.91422,0 5.27574,-2.36152 5.27574,-5.27574 0,-2.91421 -2.36152,-5.27573 -5.27574,-5.27573 -2.91421,0 -5.27573,2.36152 -5.27573,5.27573 z m 3.0147,0 c 0,-1.25612 1.05515,-2.26103 2.26103,-2.26103 1.25613,0 2.26103,1.00491 2.26103,2.26103 0,1.25613 -1.0049,2.26103 -2.26103,2.26103 -1.20588,0 -2.26103,-1.0049 -2.26103,-2.26103 z m 9.54662,26.6299 3.5674,1.50736 h 11.05392 c 0.0503,0 0.10049,0 0.20098,0 0.0502,0 0.10049,0 0.15074,0 h 4.52205 l 3.56741,-1.50736 -3.56741,-1.50735 h -2.16053 c 0,-0.20098 0,-0.40196 0,-0.60294 0.0502,-1.75858 0.0502,-3.51716 0.0502,-5.22549 0,-1.85907 -0.30147,-4.62255 -1.30637,-6.83333 1.05514,-4.06986 1.30637,-8.54167 1.30637,-12.71201 0,-0.40196 -0.35172,-0.5527 -0.70343,-0.5527 -0.85417,0 -2.16054,0.75368 -2.41177,1.60784 -0.15073,0.45221 -0.10049,1.15564 -0.10049,1.65809 0,1.5576 -0.10049,4.32108 -0.4522,7.03432 -0.60294,-0.35172 -1.30637,-0.5527 -2.1103,-0.5527 -3.0147,0 -6.02941,3.06495 -6.02941,6.07966 0,2.0098 2.41177,3.86887 4.32108,3.86887 1.50735,0 2.91422,-0.75368 3.91912,-1.85907 0.30147,1.35662 0.4522,2.66299 0.4522,3.51716 0,1.50735 -0.10049,3.06495 -0.15073,4.5723 h -10.55147 z m 11.60661,-10.04902 c -1.10539,0 -2.91421,-1.65808 -2.91421,-2.81372 0,-0.5527 0.50245,-2.51226 1.20588,-2.51226 1.30637,0 2.26103,1.1054 2.96446,2.5625 -0.35171,1.20589 -0.75367,2.16054 -1.25613,2.76348 z"
           id="path34" />
      </g>
      <g
         id="text25"
         style="font-size:43.0443px;line-height:0.85;font-family:TallThin;-inkscape-font-specification:TallThin;text-align:end;letter-spacing:0px;text-anchor:end;opacity:0.861111;fill:#3a0043;fill-opacity:0.576471;stroke-width:1.29132"
         aria-label="abcdefghijklmnopqrs&#10;tuvwxyz ̀&#10;  ">
        <path
           style="font-family:'Abjad English Blocky One';-inkscape-font-specification:'Abjad English Blocky One';text-align:center;text-anchor:middle"
           d="m 84.633479,221.07674 3.056145,1.29133 h 7.834063 l 3.056145,-1.29133 -3.056145,-1.29133 h -2.410481 v -22.38303 h -3.013101 v 22.38303 h -2.410481 z m 7.661864,0 3.056145,1.29133 h 12.095452 l 3.05614,-1.29133 -3.05614,-1.29133 h -4.34748 v -14.63506 h -3.443542 v 14.63506 h -4.30443 z m 7.145353,5.59576 c 0,1.07611 0.903934,1.937 1.936994,1.937 1.07611,0 1.93699,-0.86089 1.93699,-1.937 0,-1.0761 -0.86088,-1.93699 -1.93699,-1.93699 -1.03306,0 -1.936994,0.86089 -1.936994,1.93699 z M 133.1013,219.78541 H 114.97965 V 208.5939 h 13.77418 v -3.44355 h -17.21772 v 14.63506 h -4.30443 l -3.05615,1.29133 3.05615,1.29133 h 25.86962 l 3.05615,-1.29133 z m -14.85028,-18.93949 c 0,1.07611 0.90393,1.937 1.93699,1.937 1.07611,0 1.93699,-0.86089 1.93699,-1.937 0,-1.07611 -0.86088,-1.93699 -1.93699,-1.93699 -1.03306,0 -1.93699,0.86088 -1.93699,1.93699 z m 33.61762,18.93949 h -4.34747 v -14.63506 h -3.44354 v 14.63506 h -3.44355 v -14.63506 h -3.44354 v 14.63506 h -4.30443 l -3.05615,1.29133 3.05615,1.29133 h 18.98253 l 3.05615,-1.29133 z m -11.44978,6.88709 c 0,1.07611 0.90393,1.937 1.93699,1.937 1.07611,0 1.937,-0.86089 1.937,-1.937 0,-1.0761 -0.86089,-1.93699 -1.937,-1.93699 -1.03306,0 -1.93699,0.86089 -1.93699,1.93699 z m 8.17845,-5.59576 3.05615,1.29133 h 9.46974 c 0.043,0 0.0861,0 0.17218,0 0.043,0 0.0861,0 0.12913,0 h 3.87399 l 3.05615,-1.29133 -3.05615,-1.29133 h -1.8509 c 0,-0.17217 0,-0.34435 0,-0.51653 0.043,-1.50655 0.043,-3.0131 0.043,-4.4766 0,-1.59264 -0.25827,-3.96008 -1.11915,-5.85403 0.90393,-3.48659 1.11915,-7.31753 1.11915,-10.89021 0,-0.34435 -0.30131,-0.47348 -0.60262,-0.47348 -0.73175,0 -1.85091,0.64566 -2.06613,1.37741 -0.12913,0.3874 -0.0861,0.99002 -0.0861,1.42047 0,1.33437 -0.0861,3.7018 -0.38739,6.0262 -0.51654,-0.30131 -1.11916,-0.47349 -1.80786,-0.47349 -2.58266,0 -5.16532,2.6257 -5.16532,5.20836 0,1.72177 2.06613,3.31441 3.70181,3.31441 1.29133,0 2.49657,-0.64566 3.35745,-1.59264 0.25827,1.1622 0.3874,2.28135 0.3874,3.0131 0,1.29133 -0.0861,2.62571 -0.12913,3.91703 h -9.0393 z m 9.94324,-8.60886 c -0.94698,0 -2.49657,-1.42046 -2.49657,-2.41048 0,-0.47348 0.43044,-2.15221 1.03306,-2.15221 1.11915,0 1.93699,0.94697 2.53961,2.19526 -0.30131,1.03306 -0.64566,1.8509 -1.0761,2.36743 z m 18.63819,7.31753 h -4.34747 v -14.63506 h -3.44355 v 14.63506 h -4.30443 l -3.05614,1.29133 3.05614,1.29133 h 12.09545 l 3.05615,-1.29133 z m -8.99626,-16.57205 2.88397,-2.92701 2.92701,2.92701 1.5496,-1.59264 -4.47661,-4.43356 -4.39052,4.4766 z m 34.65063,16.57205 H 184.71146 V 208.5939 h 13.77417 v -3.44355 h -17.21772 v 14.63506 h -4.30443 l -3.05614,1.29133 3.05614,1.29133 h 25.86963 l 3.05614,-1.29133 z m -14.89333,6.88709 c 0,1.07611 0.90393,1.937 1.93699,1.937 1.07611,0 1.93699,-0.86089 1.93699,-1.937 0,-1.0761 -0.86088,-1.93699 -1.93699,-1.93699 -1.03306,0 -1.93699,0.86089 -1.93699,1.93699 z m 40.54775,-6.88709 H 210.36588 V 208.5939 h 13.77418 v -3.44355 h -17.21772 v 14.63506 h -4.30443 l -3.05615,1.29133 3.05615,1.29133 h 25.86962 l 3.05615,-1.29133 z m -17.47598,9.46975 c 0,2.49657 2.02308,4.51965 4.51965,4.51965 2.49657,0 4.51965,-2.02308 4.51965,-4.51965 0,-2.49657 -2.02308,-4.51965 -4.51965,-4.51965 -2.49657,0 -4.51965,2.02308 -4.51965,4.51965 z m 2.58265,0 c 0,-1.07611 0.90393,-1.93699 1.937,-1.93699 1.07611,0 1.93699,0.86088 1.93699,1.93699 0,1.07611 -0.86088,1.93699 -1.93699,1.93699 -1.03307,0 -1.937,-0.86088 -1.937,-1.93699 z m 11.622,-8.17842 3.05614,1.29133 h 13.77418 l 3.05614,-1.29133 -3.05614,-1.29133 h -13.77418 z m 4.77791,-12.48284 v 2.58265 h 10.33064 v -2.58265 z m 8.82409,12.48284 3.05615,1.29133 h 25.86962 l 3.05615,-1.29133 -3.05615,-1.29133 h -4.34747 v -14.63506 h -3.44355 v 14.63506 h -3.44354 v -14.63506 h -3.44354 v 14.63506 h -3.44355 v -14.63506 h -3.44354 v 14.63506 h -4.30443 z m 14.03244,5.59576 c 0,1.07611 0.90393,1.937 1.937,1.937 1.0761,0 1.93699,-0.86089 1.93699,-1.937 0,-1.0761 -0.86089,-1.93699 -1.93699,-1.93699 -1.03307,0 -1.937,0.86089 -1.937,1.93699 z m 40.54777,-6.88709 H 275.27676 V 208.5939 h 13.77417 v -3.44355 h -17.21772 v 14.63506 h -4.30443 l -3.05614,1.29133 3.05614,1.29133 h 25.86963 l 3.05614,-1.29133 z m -14.89333,-18.93949 c 0,1.07611 0.90393,1.937 1.93699,1.937 1.07611,0 1.93699,-0.86089 1.93699,-1.937 0,-1.07611 -0.86088,-1.93699 -1.93699,-1.93699 -1.03306,0 -1.93699,0.86088 -1.93699,1.93699 z m 33.66066,18.93949 h -4.34748 v -14.63506 h -3.44354 v 14.63506 h -3.44355 v -14.63506 h -3.44354 v 14.63506 h -4.30443 l -3.05615,1.29133 3.05615,1.29133 h 18.98254 l 3.05614,-1.29133 z m -7.70493,-18.93949 c 0,1.07611 0.90393,1.937 1.93699,1.937 1.07611,0 1.93699,-0.86089 1.93699,-1.937 0,-1.07611 -0.86088,-1.93699 -1.93699,-1.93699 -1.03306,0 -1.93699,0.86088 -1.93699,1.93699 z m -3.74486,-6.28447 c 0,1.07611 0.90393,1.937 1.937,1.937 1.0761,0 1.93699,-0.86089 1.93699,-1.937 0,-1.0761 -0.86089,-1.93699 -1.93699,-1.93699 -1.03307,0 -1.937,0.86089 -1.937,1.93699 z m -3.74485,6.28447 c 0,1.07611 0.90393,1.937 1.93699,1.937 1.07611,0 1.937,-0.86089 1.937,-1.937 0,-1.07611 -0.86089,-1.93699 -1.937,-1.93699 -1.03306,0 -1.93699,0.86088 -1.93699,1.93699 z m 11.92332,20.23082 3.05614,1.29133 h 12.09545 l 3.05615,-1.29133 -3.05615,-1.29133 h -4.34747 v -14.63506 h -3.44355 v 14.63506 h -4.30443 z m 4.5627,-22.81348 c 0,2.49657 2.02308,4.51966 4.51965,4.51966 2.49657,0 4.51965,-2.02309 4.51965,-4.51966 0,-2.49656 -2.02308,-4.51965 -4.51965,-4.51965 -2.49657,0 -4.51965,2.02309 -4.51965,4.51965 z m 2.58265,0 c 0,-1.0761 0.90393,-1.93699 1.937,-1.93699 1.0761,0 1.93699,0.86089 1.93699,1.93699 0,1.07611 -0.86089,1.937 -1.93699,1.937 -1.03307,0 -1.937,-0.86089 -1.937,-1.937 z m 26.7735,21.52215 h -4.34747 v -14.63506 h -3.44354 v 14.63506 h -3.44355 v -14.63506 h -3.44354 v 14.63506 h -4.30443 l -3.05615,1.29133 3.05615,1.29133 h 18.98253 l 3.05615,-1.29133 z m -14.03244,-21.52215 c 0,2.49657 2.02308,4.51966 4.51965,4.51966 2.49657,0 4.51965,-2.02309 4.51965,-4.51966 0,-2.49656 -2.02308,-4.51965 -4.51965,-4.51965 -2.49657,0 -4.51965,2.02309 -4.51965,4.51965 z m 2.58266,0 c 0,-1.0761 0.90393,-1.93699 1.93699,-1.93699 1.07611,0 1.937,0.86089 1.937,1.93699 0,1.07611 -0.86089,1.937 -1.937,1.937 -1.03306,0 -1.93699,-0.86089 -1.93699,-1.937 z m 14.24771,4.47661 -0.68871,2.49657 8.17842,2.19526 c -0.12913,0.43044 -0.21522,0.90393 -0.47349,1.42046 -0.25826,0.43045 -0.64566,0.81784 -1.03306,1.20524 -1.67873,1.5496 -3.27137,2.10917 -5.50967,2.10917 -0.94697,0 -1.76482,1.59264 -1.76482,2.41048 0,0.68871 0.47349,0.73176 0.99002,0.73176 4.08921,0 8.39364,-3.57268 9.59888,-7.40362 l 0.043,-0.12914 c 0.0861,-0.25826 0.17217,-0.55957 0.21522,-0.90393 l 0.3874,-1.4635 z m -6.06924,18.33687 3.05614,1.29133 h 14.67811 l 3.05614,-1.29133 -3.05614,-1.29133 H 342.5981 Z m 14.50592,0 3.05614,1.29133 h 12.09545 l 3.05615,-1.29133 -3.05615,-1.29133 H 364.852 v -14.63506 h -3.44355 v 14.63506 h -4.30443 z m 7.14535,-20.23082 c 0,1.07611 0.90393,1.937 1.93699,1.937 1.07611,0 1.937,-0.86089 1.937,-1.937 0,-1.07611 -0.86089,-1.93699 -1.937,-1.93699 -1.03306,0 -1.93699,0.86088 -1.93699,1.93699 z m 33.6606,18.93949 H 376.73218 V 208.5939 h 13.77418 v -3.44355 h -17.21772 v 14.63506 h -4.30443 l -3.05614,1.29133 3.05614,1.29133 h 25.86962 l 3.05615,-1.29133 z m -14.85028,-18.93949 c 0,1.07611 0.90393,1.937 1.93699,1.937 1.07611,0 1.937,-0.86089 1.937,-1.937 0,-1.07611 -0.86089,-1.93699 -1.937,-1.93699 -1.03306,0 -1.93699,0.86088 -1.93699,1.93699 z m 33.61762,18.93949 h -4.34748 v -14.63506 h -3.44354 v 14.63506 h -3.44355 v -14.63506 h -3.44354 v 14.63506 h -4.30443 l -3.05615,1.29133 3.05615,1.29133 h 18.98254 l 3.05614,-1.29133 z m -5.12228,-22.08172 c 0,-2.45353 -1.8509,-1.89395 -2.32439,-2.58266 0.99002,-0.81784 2.53962,-0.94697 2.53962,-2.58266 0,-0.21522 -0.0861,-0.51653 -0.3874,-0.51653 -0.30131,0 -0.73176,0.30131 -0.99002,0.43044 -1.37742,0.7748 -3.0131,1.937 -3.0131,3.70181 0,2.02309 2.36743,1.20524 2.45352,2.62571 -1.42046,2.41048 -3.74485,1.72177 -5.98316,2.06612 -0.6887,0.0861 -1.29132,1.1622 -1.29132,1.80786 0,0.21522 0.0861,0.51653 0.38739,0.51653 0.73176,0 1.46351,-0.0861 2.15222,-0.12913 2.71179,-0.17218 4.08921,-0.94697 5.6388,-3.18528 0.43045,-0.64566 0.81784,-1.37741 0.81784,-2.15221 z m 23.58833,22.08172 h -5.98316 l 1.937,-4.64878 v -9.98628 h -10.33064 v 14.63506 h -4.30443 l -3.05614,1.29133 3.05614,1.29133 h 18.68123 l 3.05615,-1.29133 z m -7.48971,-4.64878 -1.93699,4.64878 h -1.50655 V 208.5939 h 3.44354 z m -4.60574,-11.92327 2.88397,-2.92701 2.92701,2.92701 1.5496,-1.59264 -4.47661,-4.43356 -4.39052,4.4766 z"
           id="path29" />
        <path
           style="font-family:'Abjad English Blocky One';-inkscape-font-specification:'Abjad English Blocky One';text-align:center;text-anchor:middle"
           d="m 112.07409,258.52529 h -4.34748 v -14.63507 h -3.44354 v 14.63507 h -3.44355 v -14.63507 h -3.443541 v 14.63507 h -4.30443 l -3.056145,1.29132 3.056145,1.29133 h 18.982541 l 3.05614,-1.29133 z m -11.44979,-18.9395 c 0,1.07611 0.90393,1.937 1.93699,1.937 1.07611,0 1.937,-0.86089 1.937,-1.937 0,-1.0761 -0.86089,-1.93699 -1.937,-1.93699 -1.03306,0 -1.93699,0.86089 -1.93699,1.93699 z m 17.86342,13.9894 c 5.72489,0 7.05927,-7.53275 7.05927,-11.96631 0,-0.43045 0.0861,-1.03307 -0.043,-1.46351 -0.043,-0.34435 -0.25826,-0.43044 -0.60262,-0.43044 -0.73175,0 -2.06612,0.73175 -2.06612,1.54959 -0.043,0.51653 0,1.03306 0,1.5496 0,2.36743 -0.34436,4.73487 -1.24829,6.97317 -0.25826,0.73176 -0.64566,1.80786 -1.63568,1.80786 -0.99002,0 -1.89395,-0.64566 -2.36744,-1.50655 -0.99002,-1.72177 -1.16219,-5.33749 -1.24828,-7.36057 0,-0.51653 0.0861,-1.46351 -0.043,-1.937 -0.043,-0.34435 -0.25826,-0.43044 -0.60262,-0.43044 -0.68871,0 -2.06612,0.73175 -2.06612,1.50655 0,2.71179 0.0861,7.9632 1.63568,10.2015 0.73175,0.99002 2.02308,1.50655 3.22832,1.50655 z m 8.86713,4.9501 H 111.8589 l -3.05615,1.29132 3.05615,1.29133 h 15.49595 l 3.05614,-1.29133 z m -3.22829,1.29132 3.05615,1.29133 h 12.09545 l 3.05614,-1.29133 -3.05614,-1.29132 h -4.34748 v -14.63507 h -3.44354 v 14.63507 h -4.30443 z m 11.96632,3.18528 -2.88397,2.92702 -2.92701,-2.92702 -1.5496,1.59264 4.47661,4.43356 4.39052,-4.4766 z m -0.0861,-3.18528 3.05615,1.29133 h 12.09545 l 3.05614,-1.29133 -3.05614,-1.29132 h -4.34748 v -14.63507 h -3.44354 v 14.63507 h -4.30443 z m 10.89021,-20.27386 c 0,1.07611 0.90393,1.93699 1.93699,1.93699 1.07611,0 1.937,-0.86088 1.937,-1.93699 0,-1.07611 -0.86089,-1.93699 -1.937,-1.93699 -1.03306,0 -1.93699,0.86088 -1.93699,1.93699 z m -3.74485,-6.28447 c 0,1.07611 0.90393,1.93699 1.93699,1.93699 1.07611,0 1.93699,-0.86088 1.93699,-1.93699 0,-1.07611 -0.86088,-1.93699 -1.93699,-1.93699 -1.03306,0 -1.93699,0.86088 -1.93699,1.93699 z m -3.74486,6.28447 c 0,1.07611 0.90393,1.93699 1.93699,1.93699 1.07611,0 1.937,-0.86088 1.937,-1.93699 0,-1.07611 -0.86089,-1.93699 -1.937,-1.93699 -1.03306,0 -1.93699,0.86088 -1.93699,1.93699 z m 8.47969,20.27386 3.05614,1.29133 h 25.86963 l 0.51653,-0.21522 2.2383,-0.60262 -0.51653,-0.12913 0.81784,-0.34436 -3.05614,-1.29132 h -5.6388 l 1.29132,-1.937 v -6.24142 H 162.1346 v 8.17842 h -3.44354 v -11.19152 h 13.77417 v -3.44355 h -17.21772 v 14.63507 h -4.30443 z m 21.13475,-3.22832 -1.29133,1.937 h -2.15221 v -6.02621 h 3.44354 z m -7.05926,-17.0025 c 0,1.07611 0.90393,1.937 1.93699,1.937 1.07611,0 1.93699,-0.86089 1.93699,-1.937 0,-1.0761 -0.86088,-1.93699 -1.93699,-1.93699 -1.03306,0 -1.93699,0.86089 -1.93699,1.93699 z m 11.57894,20.23082 3.05615,1.29133 h 25.86962 l 3.05614,-1.29133 -3.05614,-1.29132 h -4.34747 v -14.63507 h -3.44355 v 14.63507 h -3.44354 v -14.63507 h -3.44355 v 14.63507 h -3.44354 v -14.63507 h -3.44354 v 14.63507 h -4.30443 z m 14.03244,-26.51528 c 0,1.0761 0.90393,1.93699 1.937,1.93699 1.0761,0 1.93699,-0.86089 1.93699,-1.93699 0,-1.07611 -0.86089,-1.937 -1.93699,-1.937 -1.03307,0 -1.937,0.86089 -1.937,1.937 z m -3.74485,6.28446 c 0,1.07611 0.90393,1.937 1.93699,1.937 1.07611,0 1.93699,-0.86089 1.93699,-1.937 0,-1.0761 -0.86088,-1.93699 -1.93699,-1.93699 -1.03306,0 -1.93699,0.86089 -1.93699,1.93699 z m 7.48971,0 c 0,1.07611 0.90393,1.937 1.93699,1.937 1.07611,0 1.93699,-0.86089 1.93699,-1.937 0,-1.0761 -0.86088,-1.93699 -1.93699,-1.93699 -1.03306,0 -1.93699,0.86089 -1.93699,1.93699 z m 29.61451,18.9395 h -5.98316 l 1.93699,-4.64879 v -9.98628 h -10.33063 v 14.63507 h -4.30443 l -3.05615,1.29132 3.05615,1.29133 h 18.68123 l 3.05614,-1.29133 z m -7.48971,-4.64879 -1.937,4.64879 h -1.50655 v -11.19152 h 3.44355 z m 1.0761,9.12539 -2.88396,2.92702 -2.92702,-2.92702 -1.54959,1.59264 4.47661,4.43356 4.39052,-4.4766 z"
           id="path30" />
        <path
           style="font-family:'Abjad English Blocky One';-inkscape-font-specification:'Abjad English Blocky One';text-align:center;text-anchor:middle;fill:#ef73ff"
           d="m 235.74045,259.81661 3.05615,1.29133 h 18.98253 l 3.05615,-1.29133 -3.05615,-1.29132 h -4.34747 v -14.63507 h -3.44355 v 14.63507 h -3.44354 v -14.63507 h -3.44354 v 14.63507 h -4.30443 z m 10.58891,-20.23082 c 0,1.07611 0.90393,1.937 1.93699,1.937 1.07611,0 1.937,-0.86089 1.937,-1.937 0,-1.0761 -0.86089,-1.93699 -1.937,-1.93699 -1.03306,0 -1.93699,0.86089 -1.93699,1.93699 z m 8.17844,20.23082 3.05615,1.29133 h 18.98253 l 3.05615,-1.29133 -3.05615,-1.29132 h -4.34747 v -14.63507 h -3.44355 v 14.63507 h -3.44354 v -14.63507 h -3.44354 v 14.63507 h -4.30443 z m 10.58891,5.59576 c 0,1.07611 0.90393,1.937 1.93699,1.937 1.07611,0 1.93699,-0.86089 1.93699,-1.937 0,-1.0761 -0.86088,-1.93699 -1.93699,-1.93699 -1.03306,0 -1.93699,0.86089 -1.93699,1.93699 z m 8.17844,-5.59576 3.05614,1.29133 h 18.98254 l 3.05615,-1.29133 -3.05615,-1.29132 h -4.34747 v -14.63507 h -3.44355 v 14.63507 h -3.44354 v -14.63507 h -3.44355 v 14.63507 h -4.30443 z m 10.58892,-20.23082 c 0,1.07611 0.90393,1.937 1.937,1.937 1.0761,0 1.93699,-0.86089 1.93699,-1.937 0,-1.0761 -0.86089,-1.93699 -1.93699,-1.93699 -1.03307,0 -1.937,0.86089 -1.937,1.93699 z m 0,25.82658 c 0,1.07611 0.90393,1.937 1.937,1.937 1.0761,0 1.93699,-0.86089 1.93699,-1.937 0,-1.0761 -0.86089,-1.93699 -1.93699,-1.93699 -1.03307,0 -1.937,0.86089 -1.937,1.93699 z m 8.17844,-5.59576 3.05615,1.29133 h 18.98254 l 3.05614,-1.29133 -3.05614,-1.29132 h -4.34748 v -14.63507 h -3.44354 v 14.63507 h -3.44355 v -14.63507 h -3.44354 v 14.63507 h -4.30443 z m 6.84406,-20.23082 c 0,1.07611 0.90393,1.937 1.93699,1.937 1.07611,0 1.93699,-0.86089 1.93699,-1.937 0,-1.0761 -0.86088,-1.93699 -1.93699,-1.93699 -1.03306,0 -1.93699,0.86089 -1.93699,1.93699 z m 7.48971,0 c 0,1.07611 0.90393,1.937 1.93699,1.937 1.07611,0 1.93699,-0.86089 1.93699,-1.937 0,-1.0761 -0.86088,-1.93699 -1.93699,-1.93699 -1.03306,0 -1.93699,0.86089 -1.93699,1.93699 z m -3.74486,-6.28446 c 0,1.0761 0.90393,1.93699 1.937,1.93699 1.0761,0 1.93699,-0.86089 1.93699,-1.93699 0,-1.07611 -0.86089,-1.937 -1.93699,-1.937 -1.03307,0 -1.937,0.86089 -1.937,1.937 z m 8.17844,26.51528 3.05615,1.29133 h 18.98254 l 3.05614,-1.29133 -3.05614,-1.29132 h -4.34748 v -14.63507 h -3.44354 v 14.63507 h -3.44355 v -14.63507 h -3.44354 v 14.63507 h -4.30443 z m 9.64194,-17.86338 2.88396,-2.92701 2.92702,2.92701 1.54959,-1.59264 -4.47661,-4.43356 -4.39051,4.47661 z m 9.12541,17.86338 3.05615,1.29133 h 18.98253 l 3.05615,-1.29133 -3.05615,-1.29132 h -4.34747 v -14.63507 h -3.44354 v 14.63507 h -3.44355 v -14.63507 h -3.44354 v 14.63507 h -4.30443 z m 15.4529,3.14226 -2.88397,2.92701 -2.92701,-2.92701 -1.54959,1.59264 4.4766,4.43356 4.39052,-4.4766 z m 3.31444,-3.14226 3.05614,1.29133 h 18.98254 l 3.05614,-1.29133 -3.05614,-1.29132 h -4.34748 v -14.63507 h -3.44354 v 14.63507 h -3.44354 v -14.63507 h -3.44355 v 14.63507 h -4.30443 z m 6.84408,-20.23082 c 0,1.07611 0.90393,1.937 1.93699,1.937 1.07611,0 1.937,-0.86089 1.937,-1.937 0,-1.0761 -0.86089,-1.93699 -1.937,-1.93699 -1.03306,0 -1.93699,0.86089 -1.93699,1.93699 z m 7.48971,0 c 0,1.07611 0.90393,1.937 1.93699,1.937 1.07611,0 1.937,-0.86089 1.937,-1.937 0,-1.0761 -0.86089,-1.93699 -1.937,-1.93699 -1.03306,0 -1.93699,0.86089 -1.93699,1.93699 z m -3.74486,-6.28446 c 0,1.0761 0.90393,1.93699 1.937,1.93699 1.07611,0 1.93699,-0.86089 1.93699,-1.93699 0,-1.07611 -0.86088,-1.937 -1.93699,-1.937 -1.03307,0 -1.937,0.86089 -1.937,1.937 z m 0,34.82283 c 0,-1.0761 0.90393,-1.93699 1.937,-1.93699 1.07611,0 1.93699,0.86089 1.93699,1.93699 0,1.07611 -0.86088,1.937 -1.93699,1.937 -1.03307,0 -1.937,-0.86089 -1.937,-1.937 z m -2.58265,0 c 0,2.49657 2.02308,4.51966 4.51965,4.51966 2.49657,0 4.51965,-2.02309 4.51965,-4.51966 0,-2.49656 -2.02308,-4.51965 -4.51965,-4.51965 -2.49657,0 -4.51965,2.02309 -4.51965,4.51965 z m 10.76108,-8.30755 3.05615,1.29133 h 18.98253 l 3.05615,-1.29133 -3.05615,-1.29132 h -4.34747 v -14.63507 h -3.44355 v 14.63507 h -3.44354 v -14.63507 h -3.44354 v 14.63507 h -4.30443 z m 10.58894,8.17842 c 0,-1.07611 0.90393,-1.93699 1.93699,-1.93699 1.07611,0 1.937,0.86088 1.937,1.93699 0,1.07611 -0.86089,1.937 -1.937,1.937 -1.03306,0 -1.93699,-0.86089 -1.93699,-1.937 z m -2.58266,0 c 0,2.49657 2.02308,4.51965 4.51965,4.51965 2.49657,0 4.51965,-2.02308 4.51965,-4.51965 0,-2.49657 -2.02308,-4.51965 -4.51965,-4.51965 -2.49657,0 -4.51965,2.02308 -4.51965,4.51965 z m 10.76109,-8.17842 3.05614,1.29133 h 18.98254 l 3.05614,-1.29133 -3.05614,-1.29132 h -4.34748 v -14.63507 h -3.44354 v 14.63507 h -3.44355 v -14.63507 h -3.44354 v 14.63507 h -4.30443 z m 10.5889,-23.02866 c 0,-1.07611 0.90393,-1.93699 1.937,-1.93699 1.0761,0 1.93699,0.86088 1.93699,1.93699 0,1.07611 -0.86089,1.93699 -1.93699,1.93699 -1.03307,0 -1.937,-0.86088 -1.937,-1.93699 z m -2.58265,0 c 0,2.49657 2.02308,4.51965 4.51965,4.51965 2.49657,0 4.51965,-2.02308 4.51965,-4.51965 0,-2.49657 -2.02308,-4.51965 -4.51965,-4.51965 -2.49657,0 -4.51965,2.02308 -4.51965,4.51965 z m 10.76108,23.02866 3.05614,1.29133 h 18.98254 l 3.05615,-1.29133 -3.05615,-1.29132 h -4.34747 v -14.63507 h -3.44355 v 14.63507 h -3.44354 v -14.63507 h -3.44355 v 14.63507 h -4.30443 z m 16.27079,-18.16469 c 0.30131,0 0.47348,-0.55958 0.43044,-1.11916 -3.31441,-1.54959 -4.86401,-2.41048 -8.69495,-6.37055 -0.51653,1.07611 -0.60262,2.15221 -0.34435,2.49657 1.11915,1.54959 5.2514,4.43356 8.60886,4.99314 z"
           id="path31" />
        <path
           style="font-family:'Abjad English Blocky One';-inkscape-font-specification:'Abjad English Blocky One';text-align:center;text-anchor:middle;fill:#ef73ff;fill-opacity:0.576471"
           d="m 55.23428,298.55649 3.056145,1.29132 h 13.774176 l 3.056145,-1.29132 -3.056145,-1.29133 H 58.290425 Z m 4.777917,-12.48285 v 2.58266 h 10.330632 v -2.58266 z m 8.824081,12.48285 3.056145,1.29132 h 9.469746 0.172178 0.129132 3.873987 l 3.056146,-1.29132 -3.056146,-1.29133 h -1.850904 v -0.51653 c 0.04304,-1.50656 0.04304,-3.01311 0.04304,-4.47661 0,-1.59264 -0.258266,-3.96008 -1.119152,-5.85403 0.90393,-3.48659 1.119152,-7.31753 1.119152,-10.8902 0,-0.34436 -0.30131,-0.47349 -0.60262,-0.47349 -0.731753,0 -1.850905,0.64566 -2.066127,1.37742 -0.129133,0.38739 -0.08609,0.99001 -0.08609,1.42046 0,1.33437 -0.08609,3.70181 -0.387399,6.0262 -0.516532,-0.30131 -1.119152,-0.47349 -1.807861,-0.47349 -2.582658,0 -5.165316,2.6257 -5.165316,5.20836 0,1.72177 2.066127,3.31441 3.70181,3.31441 1.291329,0 2.49657,-0.64566 3.357456,-1.59264 0.258265,1.1622 0.387398,2.28135 0.387398,3.01311 0,1.29132 -0.08609,2.6257 -0.129133,3.91703 h -9.039303 z m 9.943233,-8.60886 c -0.946974,0 -2.496569,-1.42047 -2.496569,-2.41049 0,-0.47348 0.430443,-2.15221 1.033063,-2.15221 1.119152,0 1.936994,0.94697 2.539614,2.19526 -0.30131,1.03306 -0.645665,1.8509 -1.076108,2.36744 z m 3.529621,8.60886 3.056145,1.29132 h 7.834063 l 3.056145,-1.29132 -3.056145,-1.29133 h -2.410481 v -22.38304 h -3.013101 v 22.38304 h -2.410481 z m 23.760438,-1.29133 h -2.41049 v -22.38304 h -3.0131 v 22.38304 h -2.195256 v -22.38304 h -3.013101 v 22.38304 h -2.410481 l -3.056145,1.29133 3.056145,1.29132 h 13.042428 l 3.05614,-1.29132 z m 5.25139,-22.38304 v 0.043 -0.043 h -3.0131 v 22.38304 h -2.41048 l -3.05615,1.29133 3.05615,1.29132 h 14.24766 l 3.05615,-1.29132 -3.05615,-1.29133 h -8.82408 v -18.72427 l 5.50967,5.46662 1.80786,-1.80786 z m 10.33062,10.07237 0.60262,2.32439 c 0.25826,3.44354 4.00312,7.23144 7.44666,7.23144 0.17218,0 0.3874,0 0.55958,-0.043 0.90393,-0.12914 1.67872,-1.59264 1.67872,-2.41048 0,-0.60262 -0.25826,-0.64567 -0.60262,-0.64567 -2.6257,0 -4.82096,-1.72177 -6.11229,-3.96007 -0.12913,-0.21523 -0.25826,-0.43045 -0.34435,-0.68871 l 7.40362,-1.98004 -0.68871,-2.49657 z m 12.39675,12.31067 h -14.07548 l -3.05615,1.29133 3.05615,1.29132 h 14.07548 l 3.05615,-1.29132 z m 2.84093,-17.04555 -0.68871,2.49657 8.17842,2.19526 c -0.12914,0.43045 -0.21523,0.90393 -0.47349,1.42046 -0.25827,0.43045 -0.64567,0.81785 -1.03306,1.20524 -1.67873,1.5496 -3.27137,2.10918 -5.50968,2.10918 -0.94697,0 -1.76481,1.59263 -1.76481,2.41048 0,0.68871 0.47349,0.73175 0.99002,0.73175 4.08921,0 8.39364,-3.57268 9.59888,-7.40362 l 0.043,-0.12913 c 0.0861,-0.25827 0.17218,-0.55958 0.21522,-0.90393 l 0.3874,-1.46351 z m -6.06925,18.33688 3.05615,1.29132 h 14.6781 l 3.05615,-1.29132 -3.05615,-1.29133 h -14.6781 z m 14.50592,0 3.05615,1.29132 h 13.602 l 3.05614,-1.29132 -3.05614,-1.29133 h -9.03931 c -0.043,-1.67873 -0.12913,-3.31441 -0.12913,-4.99314 0,-0.47349 0.043,-0.94698 0.0861,-1.46351 0.55957,0.68871 1.29133,1.11915 2.19526,1.11915 1.98004,0 5.16531,-2.19526 5.16531,-4.34747 0,-2.02308 -1.54959,-4.1753 -3.70181,-4.1753 -1.0761,0 -2.06612,0.3874 -2.92701,0.99002 -0.60262,-3.44354 -0.7748,-7.5758 -0.7748,-9.72801 0,-0.47349 -0.0861,-0.7748 -0.64566,-0.7748 -0.68871,0 -2.06613,0.73175 -2.06613,1.50655 0,3.74486 0.21522,8.39364 1.1622,11.96632 -0.81784,1.8509 -1.1622,4.17529 -1.1622,5.94011 0,1.29133 0,2.66875 0.043,3.96008 h -1.80786 z m 8.99626,-12.5259 c 0.17218,-0.30131 0.3874,-0.64566 0.7748,-0.64566 1.42046,0 2.49657,2.02308 2.49657,3.27137 0,0.43044 -0.55958,1.29133 -1.03307,1.29133 -1.33437,0 -2.15221,-2.53962 -2.45352,-3.52964 0.0861,-0.12913 0.12913,-0.25826 0.21522,-0.3874 z m 18.68125,11.23457 h -11.19152 l -3.05615,1.29133 3.05615,1.29132 h 11.19152 l 3.05614,-1.29132 z m -8.17842,-12.48285 c 0,1.42046 1.16219,2.58266 2.58266,2.58266 1.42046,0 2.58265,-1.1622 2.58265,-2.58266 0,-1.42046 -1.16219,-2.58266 -2.58265,-2.58266 -1.42047,0 -2.58266,1.1622 -2.58266,2.58266 z m 14.63508,7.53275 c 5.72489,0 7.05927,-7.53275 7.05927,-11.96631 0,-0.43045 0.0861,-1.03307 -0.0431,-1.46351 -0.043,-0.34435 -0.25826,-0.43044 -0.60262,-0.43044 -0.73175,0 -2.06612,0.73175 -2.06612,1.54959 -0.043,0.51653 0,1.03307 0,1.5496 0,2.36743 -0.34436,4.73487 -1.24829,6.97317 -0.25826,0.73176 -0.64566,1.80786 -1.63568,1.80786 -0.99002,0 -1.89395,-0.64566 -2.36744,-1.50655 -0.99002,-1.72177 -1.16219,-5.33749 -1.24828,-7.36057 0,-0.51653 0.0861,-1.46351 -0.043,-1.93699 -0.043,-0.34436 -0.25826,-0.43045 -0.60262,-0.43045 -0.68871,0 -2.06612,0.73176 -2.06612,1.50655 0,2.71179 0.0861,7.9632 1.63568,10.2015 0.73175,0.99002 2.02308,1.50655 3.22832,1.50655 z m 8.86713,4.9501 h -15.49595 l -3.05614,1.29133 3.05614,1.29132 h 15.49595 l 3.05614,-1.29132 z m 14.85032,1.29133 3.05614,1.29132 h 13.81722 l 3.05615,-1.29132 -3.05615,-1.29133 h -13.81722 z m 4.77791,-10.76108 v 2.58266 h 10.33064 v -2.58266 z m 0,-5.16532 v 2.58266 h 10.33064 v -2.58266 z m 16.39986,-7.74797 v 2.58266 h 4.60574 c 0,2.15221 -0.12913,4.30443 -0.3874,6.4136 -0.51653,-0.30131 -1.11915,-0.47349 -1.80786,-0.47349 -2.58266,0 -5.16532,2.6257 -5.16532,5.20836 0,1.72177 2.06613,3.31441 3.70181,3.31441 1.29133,0 2.49657,-0.64566 3.35746,-1.59264 0.25827,1.1622 0.3874,2.28135 0.3874,3.01311 0,1.29132 -0.0861,2.6257 -0.12913,3.91703 h -9.03931 l -3.05614,1.29133 3.05614,1.29132 h 9.46975 0.17218 0.12913 6.37055 l 3.05615,-1.29132 -3.05615,-1.29133 h -4.34747 v -0.51653 c 0.043,-1.50656 0.043,-3.01311 0.043,-4.47661 0,-1.59264 -0.25826,-3.96008 -1.11915,-5.85403 0.73176,-2.75483 1.07611,-6.06924 1.07611,-8.95321 h 3.0131 v -2.58266 z m 2.41048,15.06551 c -0.94697,0 -2.49657,-1.42047 -2.49657,-2.41049 0,-0.47348 0.43044,-2.15221 1.03306,-2.15221 1.11916,0 1.937,0.94697 2.53962,2.19526 -0.30131,1.03306 -0.64567,1.8509 -1.07611,2.36744 z m 10.41674,-15.06551 v 2.58266 h 1.07611 v 19.80038 h -2.41049 l -3.05614,1.29133 3.05614,1.29132 h 13.04243 l 3.05614,-1.29132 -3.05614,-1.29133 h -2.41048 v -19.80038 h 1.03306 v -2.58266 z m 4.08921,22.38304 v -19.80038 h 2.19526 v 19.80038 z m 9.12538,-12.31067 0.60262,2.32439 c 0.25827,3.44354 4.00312,7.23144 7.44667,7.23144 0.17217,0 0.38739,0 0.55957,-0.043 0.90393,-0.12914 1.67873,-1.59264 1.67873,-2.41048 0,-0.60262 -0.25827,-0.64567 -0.60262,-0.64567 -2.6257,0 -4.82096,-1.72177 -6.11229,-3.96007 -0.12913,-0.21523 -0.25827,-0.43045 -0.34436,-0.68871 l 7.40362,-1.98004 -0.68871,-2.49657 z m 12.39676,12.31067 H 248.7184 l -3.05614,1.29133 3.05614,1.29132 h 14.07549 l 3.05614,-1.29132 z m -12.8272,-16.57206 0.64566,2.49657 9.98628,-2.66875 -0.68871,-2.49657 z m 28.45228,16.57206 h -10.37368 v -9.72802 c 0.64566,0.3874 1.42046,0.55958 2.15222,0.55958 5.72489,0 7.05926,-7.53275 7.05926,-11.96631 0,-0.43045 0.0861,-1.03307 -0.043,-1.46351 -0.043,-0.34436 -0.25827,-0.43044 -0.60262,-0.43044 -0.73176,0 -2.06613,0.73175 -2.06613,1.54959 -0.043,0.51653 0,1.03306 0,1.5496 0,2.36743 -0.34435,4.73487 -1.24828,6.97317 -0.25827,0.73176 -0.64567,1.80786 -1.63569,1.80786 -0.99002,0 -1.89395,-0.64566 -2.36743,-1.50655 -0.99002,-1.72177 -1.1622,-5.33749 -1.24829,-7.36057 0,-0.47349 0.043,-1.29133 0,-1.80786 v -0.55958 h -0.47349 -0.17217 -0.12914 -2.2383 v 22.38304 h -2.41048 l -3.05615,1.29133 3.05615,1.29132 h 15.79726 l 3.05614,-1.29132 z m -3.22828,1.29133 3.05614,1.29132 h 17.73425 l 3.05615,-1.29132 -3.05615,-1.29133 h -13.2146 c -0.043,-1.59264 -0.17218,-3.09919 -0.17218,-4.69183 0,-0.17218 0,-0.43045 0.0431,-0.73176 0.55958,0.3874 1.29133,0.64567 2.2383,0.64567 1.80786,0 5.16532,-1.89395 5.16532,-3.91703 0,-1.937 -1.76482,-3.61572 -3.70181,-3.61572 -0.21522,0 -0.3874,0 -0.60262,0.043 -0.86089,0.0861 -1.72177,0.47349 -2.45353,0.94698 -0.21522,-1.67873 -0.30131,-3.44355 -0.34435,-5.12228 -0.043,-1.54959 -0.12913,-3.09919 -0.17218,-4.64878 -0.043,-0.55958 0.043,-1.29133 -0.0861,-1.85091 -0.0861,-0.34435 -0.25826,-0.43044 -0.60262,-0.43044 -0.68871,0 -2.06612,0.73175 -2.06612,1.50655 v 0.0431 c 0.12913,3.27136 0.21522,6.54273 0.43044,9.8141 0.0861,1.11915 0.17218,2.45352 0.47349,3.65876 -0.73176,1.59264 -1.03307,3.4005 -1.03307,5.16532 0,0.55957 0,2.02308 0.0861,3.18528 h -1.72177 z m 9.98627,-22.72739 c 0,2.45352 0.043,6.84404 3.48659,6.84404 0.51653,0 1.11915,-0.17218 1.5496,-0.43044 2.6257,-1.5496 3.31441,-5.20836 3.31441,-8.00624 0,-0.30131 0,-1.07611 -0.43045,-1.07611 -0.6887,0 -1.33437,1.20524 -1.33437,1.80786 0,0.3874 0.043,0.73175 0.043,1.11915 0,1.37742 -0.34436,4.26139 -2.19526,4.26139 -2.88397,0 -2.7118,-4.08921 -2.7118,-6.11229 0,-0.21523 -0.12913,-0.51654 -0.38739,-0.51654 -0.90393,0 -1.33438,1.37742 -1.33438,2.10918 z m -0.30131,11.10542 c 1.24829,0 2.45353,1.46351 2.45353,2.66875 0,0.47349 -0.55958,0.90393 -0.99002,0.90393 -1.50655,0 -2.28135,-1.20524 -2.66875,-2.58266 0.34436,-0.60262 0.73176,-0.99002 1.20524,-0.99002 z m 13.94638,-6.71491 -0.6887,2.49657 8.17841,2.19526 c -0.12913,0.43045 -0.21522,0.90393 -0.47348,1.42046 -0.25827,0.43045 -0.64567,0.81785 -1.03307,1.20524 -1.67873,1.5496 -3.27136,2.10918 -5.50967,2.10918 -0.94697,0 -1.76481,1.59263 -1.76481,2.41048 0,0.68871 0.47348,0.73175 0.99001,0.73175 3.48659,0 7.10231,-2.6257 8.82409,-5.59576 0.21522,1.5496 0.64566,3.0131 1.29133,3.96008 0.73175,0.94697 2.02308,1.4635 3.22832,1.4635 0.25826,0 0.51653,-0.043 0.7748,-0.0861 5.12227,-0.90393 6.28446,-6.97317 6.28446,-11.36369 0,-0.3874 0.0861,-0.99002 -0.043,-1.37742 -0.043,-0.34435 -0.25827,-0.43044 -0.60262,-0.43044 -0.73175,0 -2.06613,0.73175 -2.06613,1.50655 -0.043,0.47349 0,0.94697 0,1.4635 0,2.28135 -0.34435,4.51966 -1.24828,6.62883 -0.25827,0.73175 -0.64567,1.72177 -1.63569,1.72177 -0.99001,0 -1.89395,-0.60262 -2.36743,-1.42046 -0.99002,-1.63569 -1.1622,-5.07923 -1.24829,-6.97318 0,-0.51653 0.0861,-1.42046 -0.043,-1.89395 -0.043,-0.30131 -0.25827,-0.3874 -0.60262,-0.3874 -0.68871,0 -2.06613,0.68871 -2.06613,1.42046 v 0.99002 z m -6.06924,18.33688 3.05614,1.29132 h 24.87961 l 3.05614,-1.29132 -3.05614,-1.29133 h -24.87961 z m 34.34933,-6.24143 c 2.41049,0 4.21835,-1.4635 5.3375,-3.52963 0.60262,1.80786 1.8509,2.88397 3.87398,2.88397 5.7249,0 7.05927,-7.53275 7.05927,-11.96632 0,-0.43044 0.0861,-1.03306 -0.043,-1.4635 -0.043,-0.34436 -0.25827,-0.43045 -0.60262,-0.43045 -0.73176,0 -2.06613,0.73176 -2.06613,1.5496 -0.0431,0.51653 0,1.03306 0,1.54959 0,2.36744 -0.34436,4.73488 -1.24829,6.97318 -0.25826,0.73175 -0.64566,1.80786 -1.63568,1.80786 -0.99002,0 -1.89395,-0.64566 -2.36744,-1.50655 -0.99001,-1.76482 -1.24828,-5.72489 -1.24828,-7.79102 0.043,-0.21522 0.043,-0.43044 0.043,-0.68871 0,-0.30131 0,-0.60262 -0.0861,-0.81784 -0.043,-0.3874 -0.25827,-0.43044 -0.60262,-0.43044 -0.68871,0 -2.06613,0.73175 -2.06613,1.50655 v 0.043 0.21522 c 0,3.05615 -0.12913,5.46663 -1.24829,8.30755 -0.25826,0.73176 -0.64566,1.80786 -1.63568,1.80786 -0.99002,0 -1.89395,-0.64566 -2.36744,-1.50655 -0.99001,-1.72177 -1.16219,-5.33749 -1.24828,-7.36057 0,-0.51653 0.0861,-1.46351 -0.043,-1.93699 -0.0431,-0.34436 -0.25827,-0.43045 -0.60262,-0.43045 -0.68871,0 -2.06613,0.73176 -2.06613,1.50655 0,2.71179 0.0861,7.9632 1.63568,10.2015 0.73176,0.99002 2.02308,1.50655 3.22832,1.50655 z m -9.64192,6.24143 3.05615,1.29132 h 24.62134 l 3.05614,-1.29132 -3.05614,-1.29133 h -24.62134 z m 42.5278,0 3.05615,1.29132 h 13.81722 l 3.05614,-1.29132 -3.05614,-1.29133 h -13.81722 z m 14.41984,-17.86339 c 0,-2.45352 -1.8509,-1.89395 -2.32439,-2.58266 0.99002,-0.81784 2.53961,-0.94697 2.53961,-2.58265 0,-0.21523 -0.0861,-0.51654 -0.38739,-0.51654 -0.30131,0 -0.73176,0.30131 -0.99002,0.43045 -1.37742,0.77479 -3.0131,1.93699 -3.0131,3.70181 0,2.02308 2.36743,1.20524 2.45352,2.6257 -1.42046,2.41048 -3.74485,1.72177 -5.98316,2.06613 -0.68871,0.0861 -1.29133,1.16219 -1.29133,1.80786 0,0.21522 0.0861,0.51653 0.3874,0.51653 0.73176,0 1.46351,-0.0861 2.15222,-0.12914 2.71179,-0.17217 4.08921,-0.94697 5.6388,-3.18527 0.43044,-0.64567 0.81784,-1.37742 0.81784,-2.15222 z m -9.64192,7.10231 v 2.58266 h 10.33063 v -2.58266 z m 29.61446,-8.30755 c 0,-2.45352 -1.85091,-1.89395 -2.3244,-2.58266 0.99002,-0.81784 2.53962,-0.94697 2.53962,-2.58266 0,-0.21522 -0.0861,-0.51653 -0.3874,-0.51653 -0.30131,0 -0.73176,0.30131 -0.99002,0.43045 -1.37742,0.77479 -3.0131,1.93699 -3.0131,3.70181 0,2.02308 2.36743,1.20524 2.45352,2.6257 -1.11915,1.89395 -2.79788,1.89395 -4.56269,1.93699 0.34435,-2.28135 0.43044,-4.64878 0.43044,-6.97317 0,-0.34436 -0.30131,-0.47349 -0.60262,-0.47349 -0.73175,0 -1.8509,0.64566 -2.06613,1.37742 -0.12913,0.38739 -0.0861,0.99001 -0.0861,1.42046 0,1.33437 -0.0861,3.70181 -0.3874,6.0262 -0.51654,-0.30131 -1.11916,-0.47349 -1.80786,-0.47349 -2.58266,0 -5.16532,2.6257 -5.16532,5.20836 0,1.72177 2.06613,3.31441 3.70181,3.31441 1.29133,0 2.49657,-0.64566 3.35745,-1.59264 0.25827,1.1622 0.3874,2.28135 0.3874,3.01311 0,1.29132 -0.0861,2.6257 -0.12913,3.91703 h -9.0393 l -3.05615,1.29133 3.05615,1.29132 h 9.46974 0.17218 0.12913 9.72802 l 3.05614,-1.29132 -3.05614,-1.29133 h -7.70493 v -0.51653 c 0.043,-1.50656 0.043,-3.01311 0.043,-4.47661 0,-1.59264 -0.25827,-3.96008 -1.11915,-5.85403 0.12913,-0.51653 0.25826,-1.03306 0.34435,-1.59264 h 0.17218 c 2.71179,-0.17217 4.08921,-0.94697 5.6388,-3.18527 0.43045,-0.64567 0.81785,-1.37742 0.81785,-2.15222 z m -10.80412,10.45977 c -0.94698,0 -2.49657,-1.42047 -2.49657,-2.41049 0,-0.47348 0.43044,-2.15221 1.03306,-2.15221 1.11915,0 1.93699,0.94697 2.53961,2.19526 -0.30131,1.03306 -0.64566,1.8509 -1.0761,2.36744 z m 9.38364,8.60886 3.05614,1.29132 h 16.57206 l 3.05614,-1.29132 -3.05614,-1.29133 h -5.94012 v -12.43981 c 2.49657,-0.25826 3.87399,-1.03306 5.3375,-3.18527 0.43044,-0.64567 0.81784,-1.37742 0.81784,-2.15222 0,-2.45352 -1.85091,-1.89395 -2.32439,-2.58266 0.99002,-0.81784 2.53961,-0.94697 2.53961,-2.58266 0,-0.21522 -0.0861,-0.51653 -0.3874,-0.51653 -0.30131,0 -0.73175,0.30131 -0.99002,0.43045 -1.37742,0.77479 -3.0131,1.93699 -3.0131,3.70181 0,2.02308 2.36744,1.20524 2.45353,2.6257 -1.07611,1.8509 -2.71179,1.89395 -4.43357,1.93699 v -7.61884 h -3.0131 v 22.38304 h -2.19526 v -22.38304 h -3.0131 v 22.38304 h -2.41048 z m 16.3999,0 3.05614,1.29132 h 13.81722 l 3.05615,-1.29132 -3.05615,-1.29133 h -9.25452 c -0.043,-1.59264 -0.17218,-3.09919 -0.17218,-4.69183 0,-0.17218 0,-0.43045 0.043,-0.73176 0.55957,0.3874 1.29133,0.64567 2.2383,0.64567 1.80786,0 5.16532,-1.89395 5.16532,-3.91703 0,-1.937 -1.76482,-3.61572 -3.70181,-3.61572 -0.21522,0 -0.3874,0 -0.60262,0.043 -0.86089,0.0861 -1.72178,0.47349 -2.45353,0.94698 -0.043,-0.34436 -0.043,-0.73176 -0.0861,-1.03307 -0.0861,-0.73175 -0.12913,-1.4635 -0.17217,-2.15221 0.38739,-0.043 0.73175,-0.043 1.11915,-0.0861 2.53961,-0.17218 3.87398,-0.81784 5.33749,-2.66875 0.3874,-0.51653 0.7748,-1.11915 0.7748,-1.76481 0,-2.06613 -1.72177,-1.5496 -2.19526,-2.15222 0.94697,-0.68871 2.36744,-0.81784 2.36744,-2.15221 0,-0.17218 -0.0861,-0.43045 -0.34436,-0.43045 -0.25827,0 -0.68871,0.25827 -0.94697,0.3874 -1.29133,0.64567 -2.84093,1.59264 -2.84093,3.05615 0,1.67872 2.23831,0.99002 2.32439,2.19526 -1.33437,1.98003 -3.52963,1.42046 -5.68184,1.67872 -0.043,-1.54959 -0.12914,-3.09919 -0.17218,-4.64878 -0.043,-0.55958 0.043,-1.29133 -0.0861,-1.85091 -0.0861,-0.34435 -0.25826,-0.43044 -0.60262,-0.43044 -0.68871,0 -2.06613,0.73175 -2.06613,1.50655 v 0.0431 c 0.12914,3.27136 0.21523,6.54273 0.43045,9.8141 0.0861,1.11915 0.17217,2.45352 0.47348,3.65876 -0.73175,1.59264 -1.03306,3.4005 -1.03306,5.16532 0,0.55957 0,2.02308 0.0861,3.18528 h -1.76482 z m 9.72801,-11.62197 c 1.24829,0 2.45353,1.46351 2.45353,2.66875 0,0.47349 -0.55958,0.90393 -0.99002,0.90393 -1.50655,0 -2.28135,-1.20524 -2.66875,-2.58266 0.34435,-0.60262 0.73175,-0.99002 1.20524,-0.99002 z m 8.65188,-1.98003 0.60262,2.32439 c 0.25827,3.44354 4.00312,7.23144 7.44667,7.23144 0.17217,0 0.38739,0 0.55957,-0.043 0.90393,-0.12914 1.67873,-1.59264 1.67873,-2.41048 0,-0.60262 -0.25827,-0.64567 -0.60262,-0.64567 -2.6257,0 -4.82096,-1.72177 -6.11229,-3.96007 -0.12913,-0.21523 -0.25827,-0.43045 -0.34436,-0.68871 l 7.40362,-1.98004 -0.68871,-2.49657 z m 12.39676,12.31067 h -14.07549 l -3.05614,1.29133 3.05614,1.29132 h 14.07549 l 3.05614,-1.29132 z m -3.0131,-18.89645 c 0,-1.93699 -1.85091,-1.50655 -2.32439,-2.02308 0.99002,-0.64567 2.53961,-0.7748 2.53961,-2.06613 0,-0.17218 -0.0861,-0.3874 -0.3874,-0.3874 -0.30131,0 -0.73175,0.21522 -0.99002,0.34436 -1.37742,0.60262 -3.0131,1.50655 -3.0131,2.88396 0,1.59264 2.36744,0.99002 2.45353,2.10917 -1.42047,1.85091 -3.74486,1.33438 -5.98316,1.59264 -0.68871,0.0861 -1.29133,0.94698 -1.29133,1.42047 0,0.17217 0.0861,0.43044 0.3874,0.43044 0.73175,0 1.4635,-0.0861 2.15221,-0.12913 2.71179,-0.12914 4.08921,-0.73176 5.63881,-2.49657 0.43044,-0.51653 0.81784,-1.07611 0.81784,-1.67873 z m 22.55519,4.00312 c 0,-2.45353 -1.8509,-1.89395 -2.32439,-2.58266 0.99002,-0.81784 2.53961,-0.94697 2.53961,-2.58266 0,-0.21522 -0.0861,-0.51653 -0.38739,-0.51653 -0.30131,0 -0.73176,0.30131 -0.99002,0.43044 -1.37742,0.7748 -3.0131,1.937 -3.0131,3.70181 0,2.02309 2.36743,1.20524 2.45352,2.62571 -1.20524,2.02308 -3.0131,1.8509 -4.86401,1.98003 0.3874,-1.67872 0.51654,-3.4005 0.51654,-5.07922 0,-0.43045 0.0861,-1.03307 -0.043,-1.46351 -0.043,-0.34435 -0.25826,-0.43044 -0.60262,-0.43044 -0.73175,0 -2.06612,0.73175 -2.06612,1.54959 -0.043,0.51653 0,1.03307 0,1.5496 0,2.36743 -0.34436,4.73487 -1.24829,6.97317 -0.25827,0.73176 -0.64566,1.80786 -1.63568,1.80786 -0.99002,0 -1.89395,-0.64566 -2.36744,-1.50655 -0.99002,-1.72177 -1.1622,-5.33749 -1.24828,-7.36057 0,-0.51653 0.0861,-1.46351 -0.0431,-1.93699 -0.043,-0.34436 -0.25826,-0.43045 -0.60262,-0.43045 -0.68871,0 -2.06612,0.73176 -2.06612,1.50655 0,2.71179 0.0861,7.9632 1.63568,10.2015 0.73175,0.99002 2.02308,1.50655 3.22832,1.50655 2.84092,0 4.77792,-2.02308 5.76794,-4.51965 0.30131,-0.043 0.60262,-0.043 0.90393,-0.0861 2.71179,-0.17218 4.08921,-0.94697 5.6388,-3.18528 0.43044,-0.64566 0.81784,-1.37741 0.81784,-2.15221 z m -22.77043,16.18466 3.05614,1.29132 h 21.47911 l 3.05614,-1.29132 -3.05614,-1.29133 h -21.47911 z"
           id="path32"
           sodipodi:nodetypes="ccccccccccccccccccccccscsscscssscsccccssccccccccccccccccccccccccccccccccccccccccccccccscsscccccccccccccccccssscsccccccccccccccccscssscssscsccccssscccccccccssssssscscscscccsscsccccccccccccccccccccccccccccssscsccccccccccccsccccccssccccccccccccccccccccccccscssccccccccccccccccccccsscscscscccccccccccccccccccccscssscccccsscccscccsscsssssssssssscscccccsssccscscscscscccsscccccccccscsscscscsccscsscscscccsscssccccccccccccccscsscsccssccscccccscsscsccsscscssscsccccccccccccsccccsscssccccccccccscsscscccccccccccccccccscsssccccccscssssccccsscccscccssscsccscssccccccccccccscsscsccssccsscsscsccscscscscccsscscccssccccccc" />
      </g>
      <g
         id="text27"
         style="font-size:37.7734px;line-height:2;font-family:'Courier New';-inkscape-font-specification:'Courier New';text-align:end;text-anchor:end;opacity:0.81;fill:#32003a;stroke:#32003a;stroke-width:0.767606"
         aria-label="Abjoid Blocky&#10;Foundation One">
        <path
           style="font-family:'Fira Sans';-inkscape-font-specification:'Fira Sans';stroke:none"
           d="m 286.15915,109.01574 -1.96422,-6.5348 h -9.85886 l -1.96422,6.5348 h -3.62624 l 8.34792,-26.025873 h 4.53281 l 8.31015,26.025873 z m -10.95429,-9.44335 h 8.12128 l -4.04175,-13.598424 z m 27.65013,-10.916513 q 3.3996,0 5.40159,2.757458 2.00199,2.719685 2.00199,7.630227 0,3.097418 -0.94433,5.477138 -0.94434,2.34196 -2.71969,3.66402 -1.77535,1.2843 -4.15507,1.2843 -3.13519,0 -5.28828,-2.64414 l -0.33996,2.19086 H 293.7516 V 81.101197 l 3.47515,-0.415507 v 10.916512 q 2.15308,-2.946325 5.62824,-2.946325 z m -1.24653,18.055683 q 2.30418,0 3.58848,-1.85089 1.32207,-1.88867 1.32207,-5.817108 0,-4.041754 -1.20875,-5.817103 -1.20875,-1.813124 -3.43738,-1.813124 -2.64414,0 -4.64613,3.097419 v 9.518896 q 0.79324,1.24652 1.92644,1.96422 1.17098,0.71769 2.45527,0.71769 z m 17.98014,1.09543 q 0,2.75746 -0.67992,4.41949 -0.67992,1.66203 -2.00199,2.68191 -1.2843,1.05765 -3.62625,2.11531 l -1.01988,-2.53082 q 1.47316,-0.67992 2.2664,-1.35984 0.79324,-0.64215 1.17098,-1.8509 0.4155,-1.17097 0.4155,-3.24851 V 89.109158 h 3.47516 z m -1.73758,-28.254502 q 1.09543,0 1.77535,0.679921 0.67992,0.679921 0.67992,1.699803 0,1.019882 -0.67992,1.699803 -0.67992,0.642148 -1.77535,0.642148 -1.05765,0 -1.73758,-0.642148 -0.67992,-0.679921 -0.67992,-1.699803 0,-1.019882 0.67992,-1.699803 0.67993,-0.679921 1.73758,-0.679921 z m 16.39368,9.103389 q 4.19285,0 6.49703,2.795232 2.34195,2.795231 2.34195,7.592453 0,3.097418 -1.05766,5.477138 -1.05765,2.34196 -3.05964,3.66402 -2.00199,1.2843 -4.75945,1.2843 -4.19285,0 -6.5348,-2.79523 -2.34195,-2.79523 -2.34195,-7.592455 0,-3.097418 1.05765,-5.439369 1.05766,-2.379724 3.05965,-3.66402 2.00199,-1.322069 4.79722,-1.322069 z m 0,2.795232 q -5.17495,0 -5.17495,7.630226 0,7.592455 5.13718,7.592455 5.13718,0 5.13718,-7.630228 0,-7.592453 -5.09941,-7.592453 z m 18.05567,-2.341951 v 19.906582 h -3.47515 V 89.109158 Z m -1.77534,-9.55667 q 1.09542,0 1.77534,0.679921 0.67993,0.679921 0.67993,1.699803 0,1.019882 -0.67993,1.699803 -0.67992,0.642148 -1.77534,0.642148 -1.05766,0 -1.73758,-0.642148 -0.67992,-0.679921 -0.67992,-1.699803 0,-1.019882 0.67992,-1.699803 0.67992,-0.679921 1.73758,-0.679921 z m 24.36382,1.548709 v 27.914543 h -3.05964 l -0.33996,-2.75746 q -0.98211,1.51094 -2.45527,2.37973 -1.47317,0.83101 -3.28629,0.83101 -3.5507,0 -5.55269,-2.79523 -1.96422,-2.79523 -1.96422,-7.516908 0,-3.059645 0.94434,-5.439369 0.94433,-2.379724 2.71968,-3.701793 1.77535,-1.359843 4.15508,-1.359843 3.05964,0 5.36382,2.455271 V 80.68569 Z m -8.38569,25.610363 q 1.58648,0 2.71968,-0.71769 1.13321,-0.75547 2.19086,-2.22863 V 94.0197 q -0.98211,-1.284296 -2.11531,-1.926443 -1.09543,-0.679922 -2.49304,-0.679922 -2.30418,0 -3.58848,1.926444 -1.24652,1.926443 -1.24652,5.741556 0,3.852885 1.17098,5.741555 1.17097,1.88867 3.36183,1.88867 z m 37.24453,-11.445338 q 2.68191,0.453281 4.34394,1.88867 1.66203,1.435389 1.66203,4.457258 0,7.40359 -10.31214,7.40359 h -7.17694 V 82.989867 h 6.15706 q 4.94832,0 7.55468,1.624256 2.64414,1.624257 2.64414,4.948316 0,2.266404 -1.43539,3.77734 -1.39762,1.510936 -3.43738,1.926443 z m -7.89464,-9.44335 V 94.0197 h 3.92843 q 2.26641,0 3.7018,-1.095429 1.47316,-1.095428 1.47316,-3.097418 0,-2.266404 -1.54871,-3.135193 -1.51094,-0.868788 -4.60835,-0.868788 z m 3.58847,20.322088 q 3.17297,0 4.835,-0.94433 1.6998,-0.94434 1.6998,-3.58848 0,-2.568588 -1.62425,-3.70179 -1.62426,-1.133202 -4.23063,-1.133202 h -4.26839 v 9.367802 z m 19.56661,3.32406 q -1.92645,0 -3.05965,-1.1332 -1.09543,-1.17098 -1.09543,-3.24851 V 81.101197 l 3.47516,-0.415507 v 24.32607 q 0,0.83101 0.26441,1.20875 0.30219,0.37773 0.98211,0.37773 0.71769,0 1.28429,-0.22664 l 0.90656,2.4175 q -1.24652,0.67992 -2.75745,0.67992 z m 14.39168,-20.813143 q 4.19284,0 6.49702,2.795232 2.34195,2.795231 2.34195,7.592453 0,3.097418 -1.05765,5.477138 -1.05766,2.34196 -3.05965,3.66402 -2.00199,1.2843 -4.75945,1.2843 -4.19284,0 -6.53479,-2.79523 -2.34196,-2.79523 -2.34196,-7.592455 0,-3.097418 1.05766,-5.439369 1.05765,-2.379724 3.05964,-3.66402 2.002,-1.322069 4.79723,-1.322069 z m 0,2.795232 q -5.17496,0 -5.17496,7.630226 0,7.592455 5.13718,7.592455 5.13719,0 5.13719,-7.630228 0,-7.592453 -5.09941,-7.592453 z m 21.833,-2.795232 q 1.77535,0 3.24852,0.528828 1.47316,0.491054 2.833,1.624256 l -1.66203,2.190857 q -1.05765,-0.755468 -2.07754,-1.095428 -0.9821,-0.377734 -2.19085,-0.377734 -2.4175,0 -3.77734,1.926443 -1.32207,1.926443 -1.32207,5.703783 0,3.777338 1.32207,5.590468 1.32207,1.77535 3.77734,1.77535 1.17097,0 2.15308,-0.33997 0.98211,-0.37773 2.19086,-1.17097 l 1.58648,2.2664 q -2.71968,2.19086 -6.08152,2.19086 -4.04175,0 -6.3837,-2.71968 -2.30418,-2.71969 -2.30418,-7.516911 0,-3.172966 1.05766,-5.55269 1.05765,-2.379724 2.98409,-3.701793 1.96422,-1.322069 4.64613,-1.322069 z m 14.27837,-7.970187 v 28.33005 h -3.47515 V 81.101197 Z m 11.44534,8.423468 -7.32804,8.801202 8.15906,11.10538 h -4.15508 l -7.89464,-10.87874 7.32804,-9.027842 z m 12.38965,20.019902 q -1.17098,3.47515 -3.28629,5.47714 -2.07753,2.03977 -5.9682,2.45527 l -0.37773,-2.71968 q 1.96422,-0.33996 3.13519,-0.98211 1.17098,-0.64215 1.8509,-1.66203 0.71769,-0.98211 1.32207,-2.68191 h -1.17098 l -6.68589,-19.906582 h 3.70179 l 5.32605,17.375762 5.21273,-17.375762 h 3.58848 z"
           id="path27" />
        <path
           style="font-family:'Fira Sans';-inkscape-font-specification:'Fira Sans';stroke:none"
           d="m 230.25448,185.10606 v -26.02587 h 13.82507 l -0.41551,2.87078 h -9.82109 v 8.87675 h 8.49902 v 2.833 h -8.49902 v 11.44534 z m 24.51491,-20.35986 q 4.19285,0 6.49703,2.79523 2.34195,2.79523 2.34195,7.59246 0,3.09741 -1.05766,5.47714 -1.05765,2.34195 -3.05964,3.66402 -2.00199,1.28429 -4.75945,1.28429 -4.19285,0 -6.5348,-2.79523 -2.34195,-2.79523 -2.34195,-7.59245 0,-3.09742 1.05766,-5.43937 1.05765,-2.37972 3.05964,-3.66402 2.00199,-1.32207 4.79722,-1.32207 z m 0,2.79523 q -5.17495,0 -5.17495,7.63023 0,7.59245 5.13718,7.59245 5.13718,0 5.13718,-7.63022 0,-7.59246 -5.09941,-7.59246 z m 29.3877,17.56463 h -2.9841 l -0.26442,-3.09742 q -1.1332,1.8509 -2.60636,2.71969 -1.47316,0.83101 -3.58847,0.83101 -2.60637,0 -4.07953,-1.58648 -1.47316,-1.58648 -1.47316,-4.49503 v -14.27835 h 3.47515 v 13.90061 q 0,2.03977 0.71769,2.90855 0.7177,0.83102 2.34195,0.83102 2.90856,0 4.98609,-3.43738 v -14.2028 h 3.47516 z m 16.54477,-20.35986 q 2.71969,0 4.23062,1.62426 1.54871,1.62425 1.54871,4.45726 v 14.27834 h -3.47515 v -13.78729 q 0,-2.11531 -0.79324,-2.9841 -0.79324,-0.86878 -2.34195,-0.86878 -1.58649,0 -2.79523,0.90656 -1.20875,0.90656 -2.26641,2.60636 v 14.12725 h -3.47515 v -19.90658 h 2.9841 l 0.30218,2.94633 q 1.05766,-1.58649 2.60637,-2.49305 1.58648,-0.90656 3.47515,-0.90656 z m 28.17897,-7.55468 v 27.91454 h -3.05964 l -0.33996,-2.75746 q -0.98211,1.51094 -2.45527,2.37973 -1.47317,0.83101 -3.28629,0.83101 -3.5507,0 -5.55269,-2.79523 -1.96422,-2.79523 -1.96422,-7.5169 0,-3.05965 0.94434,-5.43937 0.94433,-2.37973 2.71968,-3.7018 1.77535,-1.35984 4.15508,-1.35984 3.05964,0 5.36382,2.45527 v -10.42546 z m -8.38569,25.61037 q 1.58648,0 2.71968,-0.7177 1.13321,-0.75547 2.19086,-2.22863 v -9.74554 q -0.98211,-1.28429 -2.11531,-1.92644 -1.09543,-0.67992 -2.49304,-0.67992 -2.30418,0 -3.58848,1.92644 -1.24652,1.92645 -1.24652,5.74156 0,3.85289 1.17098,5.74156 1.17097,1.88867 3.36183,1.88867 z m 28.97218,-2.34196 q 0,1.20875 0.41551,1.81313 0.41551,0.5666 1.24652,0.86879 l -0.79324,2.41749 q -1.54871,-0.18886 -2.49305,-0.86878 -0.94433,-0.67993 -1.39761,-2.11531 -2.00199,2.98409 -5.93042,2.98409 -2.94633,0 -4.64613,-1.66203 -1.69981,-1.66203 -1.69981,-4.34394 0,-3.17296 2.26641,-4.87277 2.30418,-1.6998 6.49702,-1.6998 h 3.05965 v -1.47316 q 0,-2.11531 -1.01988,-3.02187 -1.01989,-0.90656 -3.1352,-0.90656 -2.19085,0 -5.36382,1.05765 l -0.86879,-2.53082 q 3.7018,-1.35984 6.87476,-1.35984 3.51293,0 5.2505,1.73758 1.73758,1.6998 1.73758,4.87277 z m -8.15905,2.49305 q 2.9841,0 4.6839,-3.09742 v -4.57058 h -2.60637 q -5.51491,0 -5.51491,4.07953 0,1.77535 0.86879,2.68191 0.86878,0.90656 2.56859,0.90656 z m 25.34597,1.24652 q -1.96422,1.35984 -4.45726,1.35984 -2.53082,0 -3.96621,-1.43539 -1.39761,-1.47316 -1.39761,-4.23062 V 167.88139 H 353.358 v -2.68191 h 3.47516 v -4.49503 l 3.47515,-0.41551 v 4.91054 h 4.72167 l -0.37773,2.68191 h -4.34394 v 11.86085 q 0,1.54871 0.52883,2.2664 0.5666,0.67993 1.85089,0.67993 1.17098,0 2.64414,-0.79325 z m 7.06364,-19.00002 v 19.90658 h -3.47516 v -19.90658 z m -1.77535,-9.55667 q 1.09543,0 1.77535,0.67992 0.67992,0.67992 0.67992,1.69981 0,1.01988 -0.67992,1.6998 -0.67992,0.64215 -1.77535,0.64215 -1.05766,0 -1.73758,-0.64215 -0.67992,-0.67992 -0.67992,-1.6998 0,-1.01989 0.67992,-1.69981 0.67992,-0.67992 1.73758,-0.67992 z m 16.43141,9.10339 q 4.19285,0 6.49703,2.79523 2.34195,2.79523 2.34195,7.59246 0,3.09741 -1.05766,5.47714 -1.05765,2.34195 -3.05964,3.66402 -2.00199,1.28429 -4.75945,1.28429 -4.19285,0 -6.5348,-2.79523 -2.34195,-2.79523 -2.34195,-7.59245 0,-3.09742 1.05765,-5.43937 1.05766,-2.37972 3.05965,-3.66402 2.00199,-1.32207 4.79722,-1.32207 z m 0,2.79523 q -5.17495,0 -5.17495,7.63023 0,7.59245 5.13718,7.59245 5.13718,0 5.13718,-7.63022 0,-7.59246 -5.09941,-7.59246 z m 23.94832,-2.79523 q 2.71968,0 4.23062,1.62426 1.54871,1.62425 1.54871,4.45726 v 14.27834 h -3.47516 v -13.78729 q 0,-2.11531 -0.79324,-2.9841 -0.79324,-0.86878 -2.34195,-0.86878 -1.58648,0 -2.79523,0.90656 -1.20875,0.90656 -2.2664,2.60636 v 14.12725 h -3.47516 v -19.90658 h 2.9841 l 0.30219,2.94633 q 1.05766,-1.58649 2.60636,-2.49305 1.58649,-0.90656 3.47516,-0.90656 z m 32.25847,-6.11929 q 3.28629,0 5.74156,1.58648 2.49305,1.54871 3.85289,4.57058 1.39761,3.02188 1.39761,7.32804 0,4.23062 -1.39761,7.2525 -1.35984,3.02187 -3.85289,4.60835 -2.45527,1.58648 -5.74156,1.58648 -3.28628,0 -5.77933,-1.54871 -2.45527,-1.5487 -3.85288,-4.57058 -1.35984,-3.02187 -1.35984,-7.29026 0,-4.19285 1.35984,-7.2525 1.39761,-3.05964 3.89066,-4.64612 2.49304,-1.62426 5.74155,-1.62426 z m 0,2.94633 q -3.3996,0 -5.28827,2.56859 -1.88867,2.56859 -1.88867,8.00796 0,5.40159 1.88867,7.93241 1.92644,2.53082 5.28827,2.53082 7.17695,0 7.17695,-10.50101 0,-10.53877 -7.17695,-10.53877 z m 26.02586,3.17296 q 2.71968,0 4.23062,1.62426 1.54871,1.62425 1.54871,4.45726 v 14.27834 h -3.47515 v -13.78729 q 0,-2.11531 -0.79324,-2.9841 -0.79325,-0.86878 -2.34195,-0.86878 -1.58649,0 -2.79524,0.90656 -1.20875,0.90656 -2.2664,2.60636 v 14.12725 h -3.47515 v -19.90658 h 2.9841 l 0.30218,2.94633 q 1.05766,-1.58649 2.60637,-2.49305 1.58648,-0.90656 3.47515,-0.90656 z m 27.80123,9.82108 q 0,0.86879 -0.0755,1.77535 h -12.69187 q 0.22664,3.28629 1.66203,4.835 1.43539,1.54871 3.7018,1.54871 1.43539,0 2.64413,-0.41551 1.20875,-0.41551 2.53082,-1.32207 l 1.51094,2.07754 q -3.17297,2.49304 -6.95031,2.49304 -4.15507,0 -6.49702,-2.71968 -2.30418,-2.71969 -2.30418,-7.47913 0,-3.09742 0.98211,-5.47715 1.01988,-2.41749 2.87078,-3.77734 1.88867,-1.35984 4.41949,-1.35984 3.9662,0 6.08151,2.60637 2.11531,2.60636 2.11531,7.21471 z m -3.43738,-1.01988 q 0,-2.94632 -1.17097,-4.49503 -1.17098,-1.54871 -3.51293,-1.54871 -4.26839,0 -4.64613,6.27038 h 9.33003 z"
           id="path28" />
      </g>
    </g>
  </g>
</svg>
