<svg width="108" height="195" viewBox="0 0 108 195" fill="none" xmlns="http://www.w3.org/2000/svg">
<path d="M84.6953 99.5C84.6953 92.5 80.9453 86.5 75.9453 82C61.4453 68.5 46.6953 68.25 27.9453 68.25H2.94531C1.94531 68.25 0.445313 68 0.445313 66.5C0.445313 60.75 15.4453 50.75 20.9453 50.75H56.9453C63.9453 50.75 71.1953 51.5 77.6953 53.75C91.4453 58.25 107.695 69.5 107.695 85.5C107.695 115.75 76.1953 141 47.4453 141C41.1953 141 34.4453 140.25 28.4453 138.25V178.75C28.4453 184.5 13.4453 194.5 7.94531 194.5C6.94531 194.5 5.44531 194.25 5.44531 192.75V111.5C5.44531 105.75 20.4453 95.75 25.9453 95.75C26.9453 95.75 27.9453 96 28.4453 97C29.4453 99 30.1953 101.5 30.9453 103.75C35.1953 114.25 39.1953 118.5 50.1953 121.5C55.4453 123 60.9453 123.75 66.1953 123.75C68.6953 123.75 76.1953 123 77.9453 121.25C81.9453 117 84.6953 105.25 84.6953 99.5ZM51.4453 14.5C47.4453 14.5 43.1953 14.75 39.4453 16C34.9453 17.5 31.1953 21.5 26.1953 21.5C25.1953 21.5 24.1953 21.25 24.1953 20.25C24.1953 13.5 45.1953 3.75 51.1953 2.25C56.1953 1 61.4453 0.500002 66.4453 0.500002C73.9453 0.500002 79.9453 2.5 85.1953 7.75C90.6953 13 93.6953 20.5 98.6953 26C99.4453 26.75 102.945 29.5 102.945 30.5C102.945 35.25 90.4453 43.25 85.9453 43.25H85.6953C70.1953 42.25 54.4453 41.25 38.9453 41.25C28.6953 41.25 18.6953 42 8.44531 43.25H7.69531C6.69531 43.25 5.69531 43 5.69531 42C5.69531 37.25 17.6953 30 21.9453 29.25C32.4453 27.5 43.4453 27 53.9453 27C60.1953 27 66.1953 27.25 72.4453 27.5C67.4453 19.75 61.1953 14.5 51.4453 14.5Z" fill="black"/>
</svg>
