<svg width="108" height="177" viewBox="0 0 108 177" fill="none" xmlns="http://www.w3.org/2000/svg">
<path d="M84.6953 82C84.6953 75 80.9453 69 75.9453 64.5C61.4453 51 46.6953 50.75 27.9453 50.75H2.94531C1.94531 50.75 0.445313 50.5 0.445313 49C0.445313 43.25 15.4453 33.25 20.9453 33.25H56.9453C63.9453 33.25 71.1953 34 77.6953 36.25C91.4453 40.75 107.695 52 107.695 68C107.695 98.25 76.1953 123.5 47.4453 123.5C41.1953 123.5 34.4453 122.75 28.4453 120.75V161.25C28.4453 167 13.4453 177 7.94531 177C6.94531 177 5.44531 176.75 5.44531 175.25V94C5.44531 88.25 20.4453 78.25 25.9453 78.25C26.9453 78.25 27.9453 78.5 28.4453 79.5C29.4453 81.5 30.1953 84 30.9453 86.25C35.1953 96.75 39.1953 101 50.1953 104C55.4453 105.5 60.9453 106.25 66.1953 106.25C68.6953 106.25 76.1953 105.5 77.9453 103.75C81.9453 99.5 84.6953 87.75 84.6953 82ZM97.3086 15.75C97.3086 21.25 79.5586 21.5 75.5586 21.5C59.5586 21.5 38.5586 21.25 25.5586 10.25C24.8086 9.5 22.3086 7 22.3086 6C22.3086 1.74999 34.8086 0.24999 38.0586 0.24999C40.3086 0.24999 43.8086 0.499989 45.5586 2.24999C54.8086 13 70.3086 13 83.3086 13C85.5586 13 97.3086 12.25 97.3086 15.75Z" fill="black"/>
</svg>
