<?xml version="1.0" encoding="UTF-8" standalone="no"?>
<!-- Created with Inkscape (http://www.inkscape.org/) -->

<svg
   width="695.35577"
   height="811.26917"
   viewBox="0 0 695.35577 811.26917"
   version="1.1"
   id="svg1"
   inkscape:version="1.4 (86a8ad7, 2024-10-11)"
   sodipodi:docname="Alphabet Hangeulic Chunky Uppercase.svg"
   xmlns:inkscape="http://www.inkscape.org/namespaces/inkscape"
   xmlns:sodipodi="http://sodipodi.sourceforge.net/DTD/sodipodi-0.dtd"
   xmlns="http://www.w3.org/2000/svg"
   xmlns:svg="http://www.w3.org/2000/svg">
  <sodipodi:namedview
     id="namedview1"
     pagecolor="#ffffff"
     bordercolor="#000000"
     borderopacity="0.25"
     inkscape:showpageshadow="2"
     inkscape:pageopacity="0.0"
     inkscape:pagecheckerboard="0"
     inkscape:deskcolor="#d1d1d1"
     inkscape:document-units="px"
     inkscape:zoom="1.0393815"
     inkscape:cx="293.9248"
     inkscape:cy="387.24953"
     inkscape:window-width="1920"
     inkscape:window-height="1027"
     inkscape:window-x="-8"
     inkscape:window-y="-8"
     inkscape:window-maximized="1"
     inkscape:current-layer="layer1" />
  <defs
     id="defs1" />
  <g
     inkscape:label="Layer 1"
     inkscape:groupmode="layer"
     id="layer1"
     transform="translate(210.20596,-8.1738031)">
    <text
       xml:space="preserve"
       style="font-style:normal;font-variant:normal;font-weight:normal;font-stretch:normal;font-size:106.667px;line-height:1.1;font-family:'NewEng Hangeul';-inkscape-font-specification:'NewEng Hangeul';text-align:center;letter-spacing:1.65201px;writing-mode:lr-tb;direction:ltr;text-anchor:middle;display:none;fill:#19919b;stroke:#7c7c7c;stroke-width:4;stroke-dasharray:none"
       x="138.29799"
       y="100.52075"
       id="text9"><tspan
         sodipodi:role="line"
         id="tspan9"
         style="font-weight:bold;font-size:106.667px;line-height:1.1;stroke-width:4;stroke-dasharray:none"
         x="138.29797"
         y="100.52075">AÆBCÇD</tspan><tspan
         sodipodi:role="line"
         style="font-weight:bold;font-size:106.667px;line-height:1.1;stroke-width:4;stroke-dasharray:none"
         x="138.298"
         y="217.85446"
         id="tspan10">EFΦÞÐG</tspan><tspan
         sodipodi:role="line"
         style="font-weight:bold;font-size:106.667px;line-height:1.1;stroke-width:4;stroke-dasharray:none"
         x="138.29797"
         y="335.18817"
         id="tspan11">ȜHǶIJK</tspan><tspan
         sodipodi:role="line"
         style="font-weight:bold;font-size:106.667px;line-height:1.1;stroke-width:4;stroke-dasharray:none"
         x="138.29799"
         y="452.52185"
         id="tspan12">ꞰLMNИŊ</tspan><tspan
         sodipodi:role="line"
         style="font-weight:bold;font-size:106.667px;line-height:1.1;stroke-width:4;stroke-dasharray:none"
         x="138.29797"
         y="571.46887"
         id="tspan13">OŒPQRS</tspan><tspan
         sodipodi:role="line"
         style="font-weight:bold;font-size:106.667px;line-height:1.1;stroke-width:4;stroke-dasharray:none"
         x="138.29797"
         y="688.80261"
         id="tspan14">ƩTЧUȢV</tspan><tspan
         sodipodi:role="line"
         style="font-weight:bold;font-size:106.667px;line-height:1.1;stroke-width:4;stroke-dasharray:none"
         x="139.12398"
         y="806.13629"
         id="tspan15">WꝎXYZ</tspan></text>
    <g
       id="text7"
       style="font-size:106.667px;line-height:1.1;font-family:'NewEng Hangeul';-inkscape-font-specification:'NewEng Hangeul';text-align:center;letter-spacing:1.65201px;text-anchor:middle;fill:#19919b;stroke:#7c7c7c;stroke-width:4"
       aria-label="AÆBCÇD&#10;EFΦÞÐG&#10;ȜHǶIJK&#10;ꞰLMNИŊ&#10;OŒPQRS&#10;ƩTЧUȢV&#10;WꝎXYZ">
      <path
         style="font-weight:bold"
         d="m -180.4726,94.654067 v -22.40007 h 48.85349 l 5.44001,-4.586681 V 106.4941 l 4.37335,5.33335 20.48007,-17.173383 V 15.507153 l -4.48002,-5.33335 h -69.22688 l -5.86669,4.906682 -4.05334,-4.906682 -20.3734,17.173387 v 79.14691 l 4.37335,5.33335 z m 0,-61.973527 h 54.2935 v 17.06672 h -48.85348 l -5.44002,4.586681 z m 155.785906,0 c 6.40002,0 12.80004,0 19.306727,0 L 14.99343,15.507153 10.513416,10.173803 h -29.760093 l -5.760018,4.906682 -4.160013,-4.906682 h -29.546759 l -5.760018,4.906682 -4.160013,-4.906682 -20.373397,17.173387 v 79.14691 l 4.480014,5.33335 20.373397,-17.173383 v -22.40007 h 14.613379 V 106.4941 l 4.480014,5.33335 5.760018,-4.90668 4.160013,4.90668 H -5.379967 L 14.99343,94.654067 10.513416,89.320717 h -29.760093 l -5.440017,4.586681 V 72.253997 h 8.426693 L 4.113396,55.08061 -0.36661803,49.74726 H -20.313347 v 0 h -4.373347 z m -39.46679,21.653401 V 32.68054 c 4.906682,0 9.706697,0 14.613379,0 v 17.06672 h -9.173362 z M 27.31222,27.34719 v 79.14691 l 4.373347,5.33335 5.866685,-4.90668 4.053346,4.90668 h 59.413522 l 5.76001,-4.90668 4.05335,4.90668 20.48006,-17.173383 V 55.08061 l -4.48001,-5.33335 h -20.80006 l 5.44001,-4.586681 V 15.507153 l -4.37334,-5.33335 H 57.605648 l -5.866685,4.906682 -4.053346,-4.906682 z m 24.853411,5.33335 H 86.619072 V 49.74726 H 57.605648 l -5.440017,4.586681 z m 0,39.573457 h 54.293499 v 17.06672 H 57.605648 l -5.440017,4.586681 z M 148.00467,32.68054 h 1.06667 l -5.44001,4.586681 V 106.4941 l 4.37334,5.33335 h 79.14692 l 20.48006,-17.173383 -4.48001,-5.33335 h -74.6669 V 32.68054 h 58.66685 l 20.48006,-17.173387 -4.48001,-5.33335 H 164.00472 L 143.63133,27.34719 Z m 116.31913,0 h 1.06667 l -5.44002,4.586681 v 29.760093 l 4.37335,5.33335 h 67.30687 l -17.17338,14.293378 v 2.666675 h -19.4134 l -20.37339,17.173383 4.48001,5.33335 H 318.9373 L 339.41736,94.654067 V 74.920672 l -2.13334,-2.560008 h 6.18669 l 20.48006,-17.173387 -4.48001,-5.33335 h -74.6669 V 32.68054 h 58.66685 l 20.48006,-17.173387 -4.48001,-5.33335 h -79.14691 l -20.3734,17.173387 z m 111.94577,-5.33335 v 79.14691 l 4.37335,5.33335 5.86668,-4.90668 4.05335,4.90668 h 59.41352 l 5.76002,-4.90668 4.05334,4.90668 20.48007,-17.173383 V 35.240548 L 475.78988,30.013865 456.05649,10.173803 H 406.563 l -5.86669,4.906682 -4.05334,-4.906682 z m 24.85341,5.33335 h 38.93346 l 15.36005,15.253381 V 89.320717 H 406.563 l -5.44002,4.586681 z"
         id="path7" />
      <path
         style="font-weight:bold"
         d="m -203.83262,150.01424 h 1.06667 l -5.44001,4.58668 v 69.22689 l 4.37334,5.33335 h 79.14692 l 20.48006,-17.17339 -4.48001,-5.33335 h -74.6669 V 189.5877 h 38.93345 l 20.3734,-17.17339 -4.37335,-5.33335 h -50.56015 l -4.37335,3.73335 v -20.80007 h 58.66685 l 20.48006,-17.17338 -4.48001,-5.33335 h -79.14692 l -20.37339,17.17338 z m 136.799183,39.57346 h 38.933455 l 20.3733971,-17.17339 -4.3733471,-5.33335 H -61.59342 l -5.440017,4.58668 v -21.6534 H -8.3665869 L 12.113477,132.84086 7.6334631,127.50751 H -71.513451 l -20.373397,17.17338 4.373347,5.33335 h 1.06667 l -5.440017,4.58668 v 69.22689 l 4.373347,5.33335 20.480064,-17.17339 z M 64.005724,134.76086 v 12.58671 h -19.20006 l -20.373397,17.06672 v 39.57345 l 4.373347,5.33335 h 35.20011 v 24.42675 l 4.373347,5.33335 20.480064,-17.17339 v -12.58671 h 19.093395 l 20.48006,-17.06672 v -39.68012 l -4.48001,-5.22668 H 88.859135 v -24.42675 l -4.480014,-5.33335 z m 0,34.98678 v 17.17338 H 49.285678 v -17.17338 z m 24.853411,0 h 14.720045 v 17.17338 H 88.859135 Z m 51.892235,-25.06675 v 79.14692 l 4.37335,5.33335 20.48006,-17.17339 v -5.33335 h 48.85349 l 6.08002,-5.12002 4.26668,5.12002 20.48006,-17.06672 v -34.34677 l -4.48001,-5.33335 H 171.0448 l -5.44002,4.58668 v -21.6534 l -4.48001,-5.33335 z m 24.85341,27.62676 h 54.82684 v 11.9467 H 171.0448 l -5.44002,4.58668 z m 96.26563,6.61335 v 44.90681 l 4.48001,5.33335 5.86669,-4.90669 4.05334,4.90669 h 58.77352 c 3.52001,-2.98668 7.04002,-5.86669 10.56003,-8.85336 v 0 l 20.48007,-17.06672 v -50.66683 l -4.48002,-5.33335 -19.84006,-19.73339 H 292.2705 l -5.86668,4.90668 -4.05335,-4.90668 -20.48006,17.17338 v 11.73337 h 3.84001 l -20.37339,17.17339 4.37334,5.33335 z m 24.96008,-28.90676 h 38.93345 l 15.36005,15.25338 v 41.3868 H 292.2705 l -5.44001,4.58668 V 178.921 h 9.17336 l 20.3734,-17.17339 -4.48002,-5.33335 h -25.06674 z m 97.11903,0 h 0.64 l -5.44001,4.58668 v 69.22689 l 4.37334,5.33335 h 79.14692 l 20.48006,-17.17339 -4.48001,-5.33335 h -0.96001 l 5.44002,-4.58668 v -29.65343 l -4.48001,-5.33335 h -39.57346 l -20.3734,17.17339 4.37335,5.33335 h 35.20011 v 17.06672 h -54.2935 v -56.64018 h 58.66685 l 20.48006,-17.17338 -4.48001,-5.33335 h -78.72025 l -20.48006,17.17338 z"
         id="path8" />
      <path
         style="font-weight:bold"
         d="m -120.25908,267.34794 v 11.84004 l -6.50668,5.33335 h -28.90676 l -20.3734,17.17339 4.37335,5.33335 h 28.90676 c 15.78671,-13.22671 31.57343,-26.34675 47.360144,-39.57346 v -17.28005 l -4.480014,-5.33335 h -78.40025 l -20.37339,17.17338 4.37334,5.33335 z m -74.0269,79.14692 h 51.4135 c 15.89338,-13.22671 31.6801,-26.45342 47.466814,-39.68013 v -16.96005 l -4.480014,-5.33335 h -10.6667 l -20.3734,17.17339 4.37335,5.33335 h 6.18669 v 11.52003 l -6.50669,5.44002 h -51.4135 l -20.37339,17.17339 z m 111.199107,-84.48027 v 79.14692 l 4.373347,5.33335 20.480064,-17.17339 V 306.9214 h 48.8534855 l 5.440017,-4.58668 v 38.82679 l 4.37334702,5.33335 20.48006348,-17.17339 v -79.14691 l -4.480014,-5.33335 -20.3733965,17.17338 v 22.40007 H -52.793445 l -5.440017,4.58669 v -38.82679 l -4.480014,-5.33335 z m 116.319122,0 v 79.14692 l 4.373347,5.33335 20.480064,-17.17339 V 306.9214 h 9.173362 l 5.440017,-4.58668 v 38.82679 l 4.480014,5.33335 h 29.546757 l 5.86669,-5.01335 4.26668,5.01335 20.37339,-17.17339 v -79.14691 l -4.48001,-5.33335 -20.3734,17.17338 v 61.97353 H 97.55245 v -62.61353 l -4.480014,-5.33335 -20.373397,17.17339 v 11.20003 h -9.173362 l -5.440017,4.58669 v -38.82679 l -4.480014,-5.33335 z m 120.692471,5.33335 h 39.89346 l -4.90669,4.05335 v 52.58683 h -18.98672 l -20.3734,17.17339 4.37335,5.33335 h 79.14691 l 20.48007,-17.17339 -4.48002,-5.33335 h -40.64012 l 5.44001,-4.58668 v -52.0535 h 19.20006 l 20.48007,-17.17338 -4.48002,-5.33335 h -79.14691 l -20.3734,17.17338 z m 116.31909,0 h 40.64013 l -5.44002,4.58669 v 52.05349 h -14.72005 v -14.40004 l -4.48001,-5.33335 -20.3734,17.06672 v 19.84006 l 4.37335,5.33335 h 29.76009 l 5.76002,-4.90668 4.05335,4.90668 20.48006,-17.17339 v -61.97353 h 19.09339 l 20.48007,-17.17338 -4.48002,-5.33335 h -79.14691 l -20.3734,17.17338 z m 167.73262,-7.57335 -24.64008,24.64007 h -13.44004 l -5.44001,4.58669 v -38.82679 l -4.48002,-5.33335 -20.3734,17.17338 v 79.14692 l 4.37335,5.33335 20.48007,-17.17339 V 306.9214 h 37.12011 l 17.17339,34.24011 4.37335,5.33335 20.48006,-17.17339 -19.84006,-39.57346 -4.37335,-5.33335 h -18.56006 l 4.05335,-2.34667 29.65342,-29.65343 -3.41334,-5.97335 z"
         id="path9" />
      <path
         style="font-weight:bold"
         d="m -154.65916,448.89518 24.74674,-24.64008 h 13.44004 l 5.44002,-4.58668 v 38.82679 l 4.37335,5.33335 20.48006,-17.17339 v -79.14691 l -4.480014,-5.33335 -20.373396,17.17339 v 22.40007 h -37.22678 l -17.06672,-34.24011 -4.48002,-5.33335 -20.37339,17.17339 19.73339,39.57345 4.48001,5.33335 h 18.56006 l -4.05334,2.34668 -29.7601,29.65342 3.52001,5.97336 z m 80.799,-69.54688 v 79.14691 l 4.373347,5.33335 H 9.6601011 l 20.4800639,-17.17339 -4.480014,-5.33335 h -74.6669 v -73.81356 l -4.480014,-5.33335 z m 116.319115,0 v 79.14691 l 4.373347,5.33335 20.480064,-17.17339 v -41.60013 l 19.093393,19.20006 20.480061,-17.17338 14.72005,-14.72005 v 66.13354 l 4.37335,5.33335 20.48006,-17.17339 v -79.14691 l -4.48001,-5.33335 -20.3734,17.17339 v 1.6 l -9.92003,8.32003 -10.88004,10.88003 -28.053417,-28.05342 -5.440017,4.58668 v -9.17336 l -4.480014,-5.33335 z m 116.319105,0 v 79.14691 l 4.37335,5.33335 20.48006,-17.17339 v -41.60013 l 48.85349,48.85349 5.44002,-4.58668 v 9.17336 l 4.37334,5.33335 20.48007,-17.17339 v -79.14691 l -4.48002,-5.33335 -20.37339,17.17339 v 41.60013 l -48.85349,-48.85349 -5.44002,4.58668 v -9.17336 l -4.48001,-5.33335 z m 120.5858,73.17356 v -76.16024 h 16.10672 v 37.01345 q 0,3.52001 -0.10667,7.78669 -0.10666,4.16001 -0.32,7.57336 -0.10666,3.30668 -0.21333,4.37335 h 0.32 l 28.90676,-56.74685 h 20.05339 v 76.16024 h -16.10671 v -35.20011 q 0,-2.88001 0.10666,-6.29335 0.10667,-3.52001 0.21334,-6.72002 0.21333,-3.20001 0.32,-5.54669 0.10667,-2.45334 0.21333,-3.20001 h -0.42667 l -29.01342,56.96018 z m 81.75899,-73.17356 v 79.14691 l 4.37335,5.33335 20.48006,-17.17339 v -50.34682 l 48.85349,27.94675 5.44001,-4.58668 v 21.6534 H 421.0697 l -20.37339,17.17339 4.37334,5.33335 h 39.57346 l 20.48006,-17.17339 v -79.14691 l -4.48001,-5.33335 -20.3734,17.17339 v 16.42672 l -48.85348,-27.94676 -5.44002,4.58668 v -4.90668 l -4.48001,-5.33335 z"
         id="path10" />
      <path
         style="font-weight:bold"
         d="m -205.32601,527.94874 v 19.84007 c 0,14.18671 0,21.54673 3.20001,25.38674 l 4.48001,5.33335 c 3.52002,4.26668 10.88004,4.26668 26.45342,4.26668 h 19.7334 c 14.18671,0 21.6534,0 25.49341,-3.30667 l 20.3734,-17.06672 c 4.26668,-3.62668 4.26668,-10.98671 4.26668,-26.45342 v -19.84006 c 0,-14.18671 0,-21.54674 -3.20001,-25.49342 l -4.48002,-5.22668 c -3.52001,-4.26668 -10.9867,-4.26668 -26.45341,-4.26668 h -19.84007 c -14.18671,0 -21.54673,0 -25.38674,3.30668 l -20.48007,17.06672 c -4.16001,3.52001 -4.16001,10.9867 -4.16001,26.45341 z m 24.85341,-11.84003 c 0,-4.90668 0,-9.0667 0.10667,-12.48004 2.66667,0 5.76002,0 9.17336,0 h 19.7334 c 12.2667,0 19.52006,0 23.78674,2.02667 0,4.37335 1.49333,11.3067 1.49333,22.2934 v 19.84007 c 0,4.90668 0,9.06669 -0.21333,12.48004 -2.66667,0 -5.65335,0 -9.06669,0 h -19.84007 c -12.2667,0 -19.52006,0 -23.68007,-2.13334 0,-4.26668 -1.49334,-11.20004 -1.49334,-22.18674 z m 155.785906,44.16014 v -17.06672 h 9.386696 L 5.073399,526.02874 0.59338497,520.69539 H -18.180007 l -6.506687,5.54668 v -10.13336 -12.48004 c 6.40002,0 12.80004,0 19.306727,0 l 20.373397,-17.17339 -4.480014,-5.33335 h -29.760093 l -5.760018,4.90668 -4.160013,-4.90668 -3.840012,3.30668 c -2.773342,-3.30668 -7.573357,-3.30668 -15.360048,-3.30668 h -1.600005 c -6.826688,0 -11.306702,0 -14.080044,2.34668 l -20.373397,17.17338 c -3.733345,3.09335 -4.586681,10.45337 -4.586681,27.30675 v 19.84007 c 0,15.46671 0.746669,22.82673 3.733345,26.34675 l 4.373347,5.33335 c 2.773342,3.30667 7.360023,3.30667 15.040047,3.30667 h 1.600005 c 7.253356,0 11.840037,0 14.720046,-2.45334 l 1.386671,-1.17334 3.093343,3.62668 H -5.379967 L 14.99343,565.6022 10.513416,560.26885 Z m -39.46679,-44.16014 c 0,-4.90668 0.106667,-9.0667 0.320001,-12.48004 5.546684,0 9.493363,0 12.266705,1.28 1.600005,4.37335 2.026673,11.41337 2.026673,23.04007 v 19.84007 c 0,4.90668 -0.106667,9.06669 -0.213334,12.48004 h -0.213334 c -5.546684,0 -9.493363,0 -12.266705,-1.28001 -1.493338,-4.26668 -1.920006,-11.3067 -1.920006,-23.04007 z M 27.31222,498.29532 v 79.14691 l 4.373347,5.33335 20.480064,-17.17338 v -12.58671 h 48.853489 l 5.76001,-4.80002 4.05335,4.80002 20.48006,-17.06672 v -49.49349 l -4.48001,-5.33335 H 57.605648 l -5.866685,4.90668 -4.053346,-4.90668 z m 24.853411,5.33335 h 54.293499 v 26.98675 H 57.605648 l -5.440017,4.58668 z m 91.465699,-5.33335 v 69.22688 l 4.37334,5.33335 h 35.20011 v 14.50671 l 4.37335,5.33335 20.48006,-17.17338 v -2.66668 h 19.0934 l 20.48006,-17.17339 -4.48001,-5.33335 h -0.96001 l 5.44002,-4.48001 v -59.41352 l -4.48001,-5.33335 h -69.22689 l -5.86668,4.90668 -4.05335,-4.90668 z m 39.57345,39.57346 v 12.48003 h -14.72004 v -46.72014 h 54.2935 v 46.72014 h -14.72005 v -24.32007 l -4.48001,-5.33335 z m 76.74567,-39.57346 v 79.14691 l 4.37335,5.33335 20.48006,-17.17338 v -22.40007 h 30.08009 l -5.54668,4.58668 4.48001,5.22668 29.65343,29.76009 20.48006,-17.17338 -4.48001,-5.33335 -21.12007,-21.12007 1.06667,-0.85334 4.05335,4.90669 20.48006,-17.17339 v -39.57346 l -4.48001,-5.33335 h -69.22688 l -5.86669,4.90668 -4.05334,-4.90668 z m 24.85341,5.33335 h 54.2935 v 17.06672 h -48.85348 l -5.44002,4.58668 z m 95.83906,0 h 1.06667 l -5.44002,4.58668 v 29.65343 l 4.37335,5.33335 h 74.77357 v 17.06672 h -58.77352 l -20.3734,17.17338 4.37335,5.33335 h 69.33355 l 5.76002,-4.90668 4.05334,4.90668 20.48007,-17.17338 v -39.57346 l -4.48002,-5.33335 h -74.6669 v -17.06672 h 58.66685 l 20.48007,-17.17339 -4.48002,-5.33335 h -79.14691 l -20.3734,17.17339 z"
         id="path11" />
      <path
         style="font-weight:bold"
         d="m -191.03263,630.77573 46.82681,46.82682 h -36.26678 v -24.32008 l -4.48001,-5.33335 -20.3734,17.17339 v 29.65342 l 4.37335,5.33335 h 79.14691 l 20.48007,-17.17338 -4.48002,-5.33335 h -10.88003 l 5.44001,-4.58668 -4.48001,-5.33335 -46.82681,-46.72015 h 36.37344 v 24.32008 l 4.37335,5.33335 20.48007,-17.17339 v -29.65343 l -4.48002,-5.33335 h -79.14691 l -20.3734,17.17339 4.37335,5.33335 h 10.88003 l -5.44002,4.58668 z m 106.399082,-9.81336 h 40.640127 l -5.440017,4.58668 v 69.22688 l 4.373347,5.33335 20.480064,-17.17338 v -61.97353 h 19.093393 l 20.480064,-17.17339 -4.480014,-5.33335 h -79.146914 l -20.373397,17.17339 z M 27.31222,615.62902 v 49.49349 l 4.373347,5.22668 h 69.333553 l 5.44001,-4.48001 v 28.90675 l 4.37335,5.33335 20.48006,-17.17338 v -79.14692 l -4.48001,-5.33335 -20.3734,17.17339 v 32.3201 H 52.165631 v -44.16014 l -4.480014,-5.33335 z m 116.31911,0 v 79.14691 l 4.37334,5.33335 h 69.33355 l 5.76002,-4.90668 4.05335,4.90668 20.48006,-17.17338 v -79.14692 l -4.48001,-5.33335 -20.3734,17.17339 v 61.97353 h -54.2935 v -73.81357 l -4.48002,-5.33335 z m 162.50593,18.02672 c -10.56003,0 -16.64005,-1.28 -20.26673,-1.28 -0.64,-2.77334 -0.74667,-5.76002 -1.06667,-15.36005 v -13.22671 l -4.48001,-5.33335 -20.3734,17.17339 v 13.22671 l 0.10667,4.48001 c 0.32,7.46669 0.42666,11.73337 2.56,14.18671 l 3.84002,4.58668 -2.34668,1.92001 c -2.88001,2.45334 -3.73334,6.82669 -4.05334,14.29338 -0.10667,3.20001 -0.10667,4.37335 -0.10667,4.48001 v 0 c 0,0.10667 0,0.74667 0.10667,3.62668 0.21333,7.14669 0.85333,11.41337 3.09334,14.08004 l 4.48001,5.33335 c 3.52001,4.26668 10.9867,4.26668 26.45342,4.26668 h 19.73339 c 14.18672,0 21.65341,0 25.49342,-3.30667 l 20.48006,-17.06672 c 2.98668,-2.56001 3.84001,-7.04002 4.05335,-15.04005 0.10666,-2.88001 0.10666,-3.62668 0.10666,-3.73334 v 0 c 0,-0.10667 0,-1.28001 -0.10666,-4.48002 -0.21334,-6.61335 -0.96001,-10.6667 -3.09335,-13.22671 l -2.24,-2.66667 5.44001,-4.48002 v -32.3201 l -4.48001,-5.33335 -20.3734,17.17339 v 18.13339 c -2.77334,0 -5.76001,-0.10667 -9.28003,-0.10667 z m -21.3334,27.30676 c 0,-1.28001 0.10667,-4.69335 0.10667,-4.80002 2.66667,0 5.76002,0 9.17336,0 h 19.73339 c 12.37338,0 19.52007,2.13334 23.78675,2.13334 1.28,3.73335 1.49333,10.77337 1.49333,14.50671 0,0.74667 -0.10666,4.69335 -0.10666,4.80002 -2.66668,0 -5.76002,0 -9.17337,0 h -19.73339 c -12.37337,0 -19.52006,-2.13334 -23.78674,-2.13334 -1.17334,-3.41335 -1.49334,-9.7067 -1.49334,-14.50671 z m 95.83906,-40.00013 79.14691,79.14691 20.48007,-17.17338 -4.48002,-5.33335 -5.86668,-5.76002 10.3467,-8.64003 v -59.41352 l -4.48002,-5.33335 -20.37339,17.17339 v 41.60013 l -58.77352,-58.77352 -20.3734,17.17339 z"
         id="path12" />
      <path
         style="font-weight:bold"
         d="m -140.04709,732.96272 v 79.14692 l 4.37335,5.33335 h 29.76009 l 5.76002,-4.90669 4.053342,4.90669 h 29.760093 l 5.760018,-4.90669 4.053346,4.90669 20.480064,-17.17339 v -79.14691 l -4.480014,-5.33335 -20.373397,17.17338 v 61.97353 h -14.720046 v -54.08017 l -4.480014,-5.22668 -20.373392,17.06672 v 42.24013 h -14.72005 v -73.81356 l -4.48001,-5.33335 z M 15.84548,746.6161 v 48.32015 H 3.5787748 l -2.453341,-0.10667 v -1.06667 -55.46684 h 9.1733622 l 20.480064,-17.17338 -4.480014,-5.33335 -22.7200712,0.10666 -4.906682,0.42667 -20.3733968,17.17339 -1.813339,3.52001 -0.213334,9.7067 v 58.88018 l 0.213334,4.58668 4.480014,5.33335 1.813339,1.60001 4.800015,0.32 h 25.920081 l 4.693348,-0.53334 20.480064,-17.17339 1.706672,-3.73334 0.320001,-9.81336 v -47.89349 h 8.426693 3.733345 l 2.453341,0.10667 0.106667,1.06667 v 55.46684 H 47.84558 l -20.373397,17.17339 4.373347,5.33335 h 17.280054 l 3.733345,-0.10667 4.906682,-0.42667 20.480064,-17.17339 1.706672,-3.52001 0.320001,-9.70669 v -58.88019 l -0.320001,-4.58668 -4.373347,-5.33335 -1.813339,-1.6 -4.906682,-0.32 H 65.125634 43.045565 l -4.800015,2.02667 -20.373397,17.06672 -1.813339,5.01335 z m 155.89257,-13.65338 -22.50674,22.40007 h -31.78676 v -34.2401 l -4.48002,-5.33335 -20.373393,17.17338 v 39.57346 l 4.373347,5.33335 h 29.866756 l -34.240103,34.24011 4.373347,5.33335 20.480066,-17.17339 22.40007,-22.40007 h 31.89343 v 34.24011 l 4.37335,5.33335 20.48006,-17.17339 v -39.57346 l -4.48001,-5.33335 h -29.76009 l 34.2401,-34.2401 -4.48001,-5.33335 z m 116.31911,0 -22.50674,22.40007 h -31.78676 v -34.2401 l -4.48002,-5.33335 -20.3734,17.17338 v 39.57346 l 4.37335,5.33335 h 29.86676 l -34.24011,34.24011 4.37335,5.33335 20.48007,-17.17339 79.14691,-79.14691 -4.48001,-5.33335 z m 54.77227,61.97353 73.81356,-73.81356 -4.48001,-5.33335 h -79.14692 l -20.37339,17.17338 4.37334,5.33335 h 69.44022 l -73.81356,73.81357 4.37334,5.33335 h 79.14692 l 20.48006,-17.17339 -4.48001,-5.33335 z"
         id="path13" />
    </g>
  </g>
</svg>
