<?xml version="1.0" encoding="UTF-8" standalone="no"?>
<!-- Created with Inkscape (http://www.inkscape.org/) -->

<svg
   width="694.43903"
   height="932.91925"
   viewBox="0 0 183.737 246.83489"
   version="1.1"
   id="svg1"
   inkscape:version="1.4 (86a8ad7, 2024-10-11)"
   sodipodi:docname="Alphabet Leaf Tech Vietnamese Uppercase.svg"
   xmlns:inkscape="http://www.inkscape.org/namespaces/inkscape"
   xmlns:sodipodi="http://sodipodi.sourceforge.net/DTD/sodipodi-0.dtd"
   xmlns="http://www.w3.org/2000/svg"
   xmlns:svg="http://www.w3.org/2000/svg">
  <sodipodi:namedview
     id="namedview1"
     pagecolor="#ffffff"
     bordercolor="#000000"
     borderopacity="0.25"
     inkscape:showpageshadow="2"
     inkscape:pageopacity="0.0"
     inkscape:pagecheckerboard="0"
     inkscape:deskcolor="#d1d1d1"
     inkscape:document-units="px"
     inkscape:zoom="0.85280275"
     inkscape:cx="357.05795"
     inkscape:cy="471.97315"
     inkscape:window-width="1920"
     inkscape:window-height="1027"
     inkscape:window-x="-8"
     inkscape:window-y="-8"
     inkscape:window-maximized="1"
     inkscape:current-layer="layer1" />
  <defs
     id="defs1" />
  <g
     inkscape:label="Layer 1"
     inkscape:groupmode="layer"
     id="layer1"
     transform="translate(-45.000079,-62.435143)">
    <text
       xml:space="preserve"
       style="font-size:28.2222px;line-height:1.3;font-family:'BlockTrain Hand';-inkscape-font-specification:'BlockTrain Hand';text-align:start;letter-spacing:2.64583px;writing-mode:lr-tb;direction:ltr;text-anchor:start;display:none;fill:#17a23e;fill-opacity:0.854902;stroke:#4d804f;stroke-width:0.79375;stroke-dasharray:none;stroke-opacity:1"
       x="138.19148"
       y="88.739998"
       id="text1"><tspan
         style="font-style:normal;font-variant:normal;font-weight:bold;font-stretch:normal;font-size:28.2222px;line-height:1.3;font-family:'Leaf Tech';-inkscape-font-specification:'Leaf Tech Bold';text-align:center;letter-spacing:2.64583px;text-anchor:middle;fill:#17a23e;fill-opacity:0.854902;stroke:#4d804f;stroke-width:0.79375;stroke-dasharray:none;stroke-opacity:1"
         x="138.19148"
         y="88.739998"
         sodipodi:role="line"
         id="tspan36">AÂĂEÊIOÔƠUƯY</tspan><tspan
         style="font-style:normal;font-variant:normal;font-weight:bold;font-stretch:normal;font-size:28.2222px;line-height:1.3;font-family:'Leaf Tech';-inkscape-font-specification:'Leaf Tech Bold';text-align:center;letter-spacing:2.64583px;text-anchor:middle;fill:#17a23e;fill-opacity:0.854902;stroke:#4d804f;stroke-width:0.79375;stroke-dasharray:none;stroke-opacity:1"
         x="138.19148"
         y="125.42886"
         sodipodi:role="line"
         id="tspan18">ÁẤẮÉẾÍÓỐỚÚỨÝ</tspan><tspan
         style="font-style:normal;font-variant:normal;font-weight:bold;font-stretch:normal;font-size:28.2222px;line-height:1.3;font-family:'Leaf Tech';-inkscape-font-specification:'Leaf Tech Bold';text-align:center;letter-spacing:2.64583px;text-anchor:middle;fill:#17a23e;fill-opacity:0.854902;stroke:#4d804f;stroke-width:0.79375;stroke-dasharray:none;stroke-opacity:1"
         x="138.19148"
         y="162.11772"
         sodipodi:role="line"
         id="tspan19">ÀẦẰÈỀÌÒỒỜÙỪỲ</tspan><tspan
         style="font-style:normal;font-variant:normal;font-weight:bold;font-stretch:normal;font-size:28.2222px;line-height:1.3;font-family:'Leaf Tech';-inkscape-font-specification:'Leaf Tech Bold';text-align:center;letter-spacing:2.64583px;text-anchor:middle;fill:#17a23e;fill-opacity:0.854902;stroke:#4d804f;stroke-width:0.79375;stroke-dasharray:none;stroke-opacity:1"
         x="138.19148"
         y="198.80658"
         sodipodi:role="line"
         id="tspan20">ẢẨẲẺỂỈỎỔỞỦỬỶ</tspan><tspan
         style="font-style:normal;font-variant:normal;font-weight:bold;font-stretch:normal;font-size:28.2222px;line-height:1.3;font-family:'Leaf Tech';-inkscape-font-specification:'Leaf Tech Bold';text-align:center;letter-spacing:2.64583px;text-anchor:middle;fill:#17a23e;fill-opacity:0.854902;stroke:#4d804f;stroke-width:0.79375;stroke-dasharray:none;stroke-opacity:1"
         x="138.19148"
         y="235.49544"
         sodipodi:role="line"
         id="tspan21">ÃẪẴẼỄĨÕỖỠŨỮỸ</tspan><tspan
         style="font-style:normal;font-variant:normal;font-weight:bold;font-stretch:normal;font-size:28.2222px;line-height:1.3;font-family:'Leaf Tech';-inkscape-font-specification:'Leaf Tech Bold';text-align:center;letter-spacing:2.64583px;text-anchor:middle;fill:#17a23e;fill-opacity:0.854902;stroke:#4d804f;stroke-width:0.79375;stroke-dasharray:none;stroke-opacity:1"
         x="138.19148"
         y="272.1843"
         sodipodi:role="line"
         id="tspan22">ẠẬẶẸỆỊỌỘỢỤỰỴ</tspan><tspan
         style="font-style:normal;font-variant:normal;font-weight:bold;font-stretch:normal;font-size:28.2222px;line-height:1.3;font-family:'Leaf Tech';-inkscape-font-specification:'Leaf Tech Bold';text-align:center;letter-spacing:2.64583px;text-anchor:middle;fill:#17a23e;fill-opacity:0.854902;stroke:#4d804f;stroke-width:0.79375;stroke-dasharray:none;stroke-opacity:1"
         x="138.19148"
         y="308.87314"
         sodipodi:role="line"
         id="tspan24">Đ</tspan><tspan
         style="font-style:normal;font-variant:normal;font-weight:bold;font-stretch:normal;font-size:28.2222px;line-height:1.3;font-family:'Leaf Tech';-inkscape-font-specification:'Leaf Tech Bold';text-align:center;letter-spacing:2.64583px;text-anchor:middle;fill:#17a23e;fill-opacity:0.854902;stroke:#4d804f;stroke-width:0.79375;stroke-dasharray:none;stroke-opacity:1"
         x="138.19148"
         y="345.56201"
         sodipodi:role="line"
         id="tspan25" /></text>
    <g
       id="text33"
       style="font-size:28.2222px;line-height:1.3;font-family:'BlockTrain Hand';-inkscape-font-specification:'BlockTrain Hand';letter-spacing:2.64583px;fill:#17a23e;fill-opacity:0.854902;stroke:#4d804f;stroke-width:0.79375"
       aria-label="AÂĂEÊIOÔƠUƯY&#10;ÁẤẮÉẾÍÓỐỚÚỨÝ&#10;ÀẦẰÈỀÌÒỒỜÙỪỲ&#10;ẢẨẲẺỂỈỎỔỞỦỬỶ&#10;ÃẪẴẼỄĨÕỖỠŨỮỸ&#10;ẠẬẶẸỆỊỌỘỢỤỰỴ&#10;Đ&#10;">
      <path
         style="font-weight:bold;font-family:'Leaf Tech';-inkscape-font-specification:'Leaf Tech Bold';text-align:center;text-anchor:middle"
         d="m 51.351839,67.460459 h 4.684885 v 4.684885 1.326443 c 0,1.862666 -1.495777,3.33022 -3.358442,3.33022 h -2.652887 c -1.326443,0 -2.511776,0.592666 -3.358442,1.467555 V 77.47934 72.145344 c 0,-2.596442 2.088443,-4.684885 4.684886,-4.684885 z m 0,-1.269999 c -3.273776,0 -5.954885,2.652887 -5.954885,5.954884 v 5.333996 3.97933 6.660439 c 0,0.366889 0.282222,0.620889 0.620889,0.620889 0.366888,0 0.64911,-0.254 0.64911,-0.620889 V 81.45867 c 0,-1.862665 1.495777,-3.358442 3.358442,-3.358442 h 2.652887 c 1.326443,0 2.511776,-0.564444 3.358442,-1.439332 v 0.818444 7.986883 c 0,1.128888 -0.874888,2.003776 -2.003776,2.003776 -0.366889,0 -0.649111,0.310444 -0.649111,0.64911 0,0.366889 0.282222,0.620889 0.649111,0.620889 1.80622,0 3.301997,-1.467555 3.301997,-3.273775 V 77.47934 73.471787 72.145344 66.19046 Z m 16.672258,-3.301998 -0.564444,0.762 c -0.423333,0.564444 -0.846666,0.761999 -1.269999,0.987777 -0.451556,0.225777 -1.044222,0.338666 -2.003777,0.338666 -0.338666,0 -0.592666,0.197556 -0.592666,0.423333 0,0.254 0.254,0.479778 0.592666,0.479778 1.128888,0 2.088443,-0.254 2.793998,-0.620889 0.395111,-0.225777 0.733777,-0.507999 1.044222,-0.818444 0.310444,0.310445 0.620888,0.592667 1.044221,0.818444 0.705555,0.366889 1.636888,0.620889 2.765776,0.620889 0.366888,0 0.592666,-0.225778 0.592666,-0.479778 0,-0.225777 -0.225778,-0.423333 -0.592666,-0.423333 -0.931333,0 -1.523999,-0.112889 -1.975554,-0.338666 -0.451556,-0.225778 -0.846666,-0.423333 -1.298222,-0.987777 z m -0.395111,3.301998 c -3.273775,0 -5.954884,2.652887 -5.954884,5.954884 v 5.333996 3.97933 6.660439 c 0,0.366889 0.282222,0.620889 0.620888,0.620889 0.366889,0 0.649111,-0.254 0.649111,-0.620889 V 81.45867 c 0,-1.862665 1.495776,-3.358442 3.358441,-3.358442 h 2.652887 c 1.326444,0 2.511776,-0.564444 3.358442,-1.439332 v 0.818444 7.986883 c 0,1.128888 -0.874888,2.003776 -2.003776,2.003776 -0.366889,0 -0.649111,0.310444 -0.649111,0.64911 0,0.366889 0.282222,0.620889 0.649111,0.620889 1.806221,0 3.301997,-1.467555 3.301997,-3.273775 V 77.47934 73.471787 72.145344 66.19046 Z m 0,1.269999 h 4.684885 v 4.684885 1.326443 c 0,1.862666 -1.495777,3.33022 -3.358442,3.33022 h -2.652887 c -1.326443,0 -2.511775,0.592666 -3.358441,1.467555 V 77.47934 72.145344 c 0,-2.596442 2.088442,-4.684885 4.684885,-4.684885 z m 12.326039,-3.217331 c 0,0.141111 0.05644,0.254 0.169333,0.338666 0.959555,0.677333 2.088443,1.100666 4.261553,1.100666 2.173109,0 3.273775,-0.423333 4.23333,-1.100666 0.112888,-0.08467 0.169333,-0.197555 0.169333,-0.338666 0,-0.254 -0.141111,-0.508 -0.508,-0.508 -0.169333,0 -0.254,0.08467 -0.395111,0.169334 -0.846666,0.592666 -1.523998,0.90311 -3.499552,0.90311 -2.003777,0 -2.709332,-0.310444 -3.555998,-0.90311 -0.112889,-0.08467 -0.225777,-0.169334 -0.395111,-0.169334 -0.338666,0 -0.479777,0.254 -0.479777,0.508 z m 3.951108,1.947332 c -3.273775,0 -5.954884,2.652887 -5.954884,5.954884 v 5.333996 3.97933 6.660439 c 0,0.366889 0.282222,0.620889 0.620888,0.620889 0.366889,0 0.649111,-0.254 0.649111,-0.620889 V 81.45867 c 0,-1.862665 1.495776,-3.358442 3.358442,-3.358442 h 2.652887 c 1.326443,0 2.511775,-0.564444 3.358441,-1.439332 v 0.818444 7.986883 c 0,1.128888 -0.874888,2.003776 -2.003776,2.003776 -0.366888,0 -0.64911,0.310444 -0.64911,0.64911 0,0.366889 0.282222,0.620889 0.64911,0.620889 1.806221,0 3.301998,-1.467555 3.301998,-3.273775 V 77.47934 73.471787 72.145344 66.19046 Z m 0,1.269999 h 4.684885 v 4.684885 1.326443 c 0,1.862666 -1.495776,3.33022 -3.358441,3.33022 H 82.57969 c -1.326444,0 -2.511776,0.592666 -3.358442,1.467555 V 77.47934 72.145344 c 0,-2.596442 2.088443,-4.684885 4.684885,-4.684885 z M 102.63861,77.47934 v -0.02822 c 0,-0.366889 -0.28222,-0.649111 -0.64911,-0.649111 h -3.104443 c -1.862665,0 -3.358442,-1.467554 -3.358442,-3.33022 v -6.011328 h 7.365995 c 1.10067,0 2.00378,0.874888 2.00378,2.003776 0,0.366889 0.28222,0.649111 0.64911,0.649111 0.33866,0 0.64911,-0.282222 0.64911,-0.649111 0,-1.806221 -1.49578,-3.273775 -3.302,-3.273775 h -8.664216 v 7.281327 c 0,1.693332 0.959555,3.189109 2.342443,4.007553 -1.382888,0.790222 -2.342443,2.285998 -2.342443,3.97933 v 7.281328 h 8.664216 c 1.80622,0 3.302,-1.467555 3.302,-3.273775 0,-0.366889 -0.31045,-0.649111 -0.64911,-0.649111 -0.36689,0 -0.64911,0.282222 -0.64911,0.649111 0,1.128888 -0.90311,2.003776 -2.00378,2.003776 H 95.526615 V 81.45867 c 0,-1.862665 1.495777,-3.358442 3.358442,-3.358442 h 3.104443 c 0.36689,0 0.64911,-0.253999 0.64911,-0.620888 z m 13.3138,-14.590878 -0.56444,0.762 c -0.42334,0.564444 -0.84667,0.761999 -1.27,0.987777 -0.45156,0.225777 -1.04422,0.338666 -2.00378,0.338666 -0.33866,0 -0.59266,0.197556 -0.59266,0.423333 0,0.254 0.254,0.479778 0.59266,0.479778 1.12889,0 2.08845,-0.254 2.794,-0.620889 0.39511,-0.225777 0.73378,-0.507999 1.04422,-0.818444 0.31045,0.310445 0.62089,0.592667 1.04422,0.818444 0.70556,0.366889 1.63689,0.620889 2.76578,0.620889 0.36689,0 0.59267,-0.225778 0.59267,-0.479778 0,-0.225777 -0.22578,-0.423333 -0.59267,-0.423333 -0.93133,0 -1.524,-0.112889 -1.97556,-0.338666 -0.45155,-0.225778 -0.84666,-0.423333 -1.29822,-0.987777 z m 2.99155,14.590878 v -0.02822 c 0,-0.366889 -0.28222,-0.649111 -0.64911,-0.649111 h -3.10444 c -1.86266,0 -3.35844,-1.467554 -3.35844,-3.33022 v -6.011328 h 7.36599 c 1.10067,0 2.00378,0.874888 2.00378,2.003776 0,0.366889 0.28222,0.649111 0.64911,0.649111 0.33867,0 0.64911,-0.282222 0.64911,-0.649111 0,-1.806221 -1.49577,-3.273775 -3.302,-3.273775 h -8.66421 v 7.281327 c 0,1.693332 0.95955,3.189109 2.34244,4.007553 -1.38289,0.790222 -2.34244,2.285998 -2.34244,3.97933 v 7.281328 h 8.66421 c 1.80623,0 3.302,-1.467555 3.302,-3.273775 0,-0.366889 -0.31044,-0.649111 -0.64911,-0.649111 -0.36689,0 -0.64911,0.282222 -0.64911,0.649111 0,1.128888 -0.90311,2.003776 -2.00378,2.003776 h -7.36599 V 81.45867 c 0,-1.862665 1.49578,-3.358442 3.35844,-3.358442 h 3.10444 c 0.36689,0 0.64911,-0.253999 0.64911,-0.620888 z m 10.83025,-11.317102 c -0.36689,0 -0.64911,0.253999 -0.64911,0.64911 0,1.100666 -0.90311,2.003776 -2.00378,2.003776 -0.36689,0 -0.64911,0.282222 -0.64911,0.649111 0,0.366889 0.28222,0.649111 0.64911,0.649111 0.762,0 1.43933,-0.282222 2.00378,-0.705555 v 16.058432 c 0,1.128888 -0.90311,2.003776 -2.00378,2.003776 -0.36689,0 -0.64911,0.310444 -0.64911,0.64911 0,0.366889 0.28222,0.620889 0.64911,0.620889 1.80622,0 3.302,-1.467555 3.302,-3.273775 v -18.654875 -0.02822 c 0,-0.338666 -0.28222,-0.620888 -0.64911,-0.620888 z m 11.11252,1.298221 h 4.68488 v 15.324655 c 0,2.596442 -2.08844,4.684885 -4.68488,4.684885 h -4.68489 V 72.145344 c 0,-2.596442 2.08845,-4.684885 4.68489,-4.684885 z m 0,-1.298221 c -3.27378,0 -5.95489,2.681109 -5.95489,5.983106 v 16.594654 h 5.95489 c 3.302,0 5.9831,-2.652887 5.9831,-5.954884 V 66.162238 Z m 16.67225,-3.33022 -0.56444,0.761999 c -0.42333,0.564444 -0.84667,0.762 -1.27,0.987777 -0.45155,0.225778 -1.04422,0.338667 -2.00378,0.338667 -0.33866,0 -0.59266,0.197555 -0.59266,0.423333 0,0.254 0.254,0.479777 0.59266,0.479777 1.12889,0 2.08845,-0.254 2.794,-0.620888 0.39511,-0.225778 0.73378,-0.508 1.04422,-0.818444 0.31045,0.310444 0.62089,0.592666 1.04423,0.818444 0.70555,0.366888 1.63688,0.620888 2.76577,0.620888 0.36689,0 0.59267,-0.225777 0.59267,-0.479777 0,-0.225778 -0.22578,-0.423333 -0.59267,-0.423333 -0.93133,0 -1.524,-0.112889 -1.97555,-0.338667 -0.45156,-0.225777 -0.84667,-0.423333 -1.29822,-0.987777 z m -0.39511,3.33022 c -3.27377,0 -5.95488,2.681109 -5.95488,5.983106 v 16.594654 h 5.95488 c 3.302,0 5.98311,-2.652887 5.98311,-5.954884 V 66.162238 Z m 0,1.298221 h 4.68489 v 15.324655 c 0,2.596442 -2.08844,4.684885 -4.68489,4.684885 h -4.68488 V 72.145344 c 0,-2.596442 2.08844,-4.684885 4.68488,-4.684885 z m 21.58292,-4.063997 c -1.07244,0 -1.97555,0.90311 -1.97555,1.975554 h 1.18533 c 0,-0.395111 0.39511,-0.790222 0.79022,-0.790222 h 0.79022 v 0.790222 c 0,0.395111 -0.39511,0.790222 -0.79022,0.790222 h -5.30577 c -3.27378,0 -5.95489,2.681109 -5.95489,5.983106 v 16.594654 h 5.95489 c 3.302,0 5.9831,-2.652887 5.9831,-5.954884 V 67.234681 c 0.73378,-0.282222 1.29823,-1.015999 1.29823,-1.862665 v -1.975554 z m -5.30577,4.063997 h 4.68488 v 15.324655 c 0,2.596442 -2.08844,4.684885 -4.68488,4.684885 h -4.68489 V 72.145344 c 0,-2.596442 2.08845,-4.684885 4.68489,-4.684885 z m 10.97138,-1.298221 c -0.33867,0 -0.64911,0.282222 -0.64911,0.64911 v 15.945543 c 0,3.301998 2.70933,5.983107 6.01133,5.983107 h 5.95488 v -21.92865 c 0,-0.366888 -0.31044,-0.64911 -0.64911,-0.64911 -0.36689,0 -0.64911,0.282222 -0.64911,0.64911 v 20.658651 h -4.65666 c -2.59645,0 -4.71311,-2.088443 -4.71311,-4.713108 V 66.811348 c 0,-0.366888 -0.28222,-0.64911 -0.64911,-0.64911 z m 26.97333,-2.765776 c -1.07244,0 -1.97555,0.90311 -1.97555,1.975554 h 1.18533 c 0,-0.395111 0.39511,-0.790222 0.79022,-0.790222 h 0.79022 v 0.790222 c 0,0.395111 -0.39511,0.790222 -0.79022,0.790222 -0.36689,0 -0.64911,0.282222 -0.64911,0.64911 v 20.658651 h -4.65666 c -2.59644,0 -4.71311,-2.088443 -4.71311,-4.713108 V 66.811348 c 0,-0.366888 -0.28222,-0.64911 -0.64911,-0.64911 -0.33866,0 -0.64911,0.282222 -0.64911,0.64911 v 15.945543 c 0,3.301998 2.70933,5.983107 6.01133,5.983107 h 5.95488 V 67.234681 c 0.762,-0.254 1.32645,-1.015999 1.32645,-1.862665 v -1.975554 z m 5.63737,2.765776 c -0.36689,0 -0.64911,0.282222 -0.64911,0.64911 V 72.0889 c 0,3.330219 2.70933,6.011328 6.01133,6.011328 h 4.65666 v 4.684886 c 0,2.596442 -2.08844,4.684885 -4.68488,4.684885 -0.36689,0 -0.64911,0.310444 -0.64911,0.64911 0,0.366889 0.28222,0.620889 0.64911,0.620889 3.27377,0 5.9831,-2.652887 5.9831,-5.954884 V 66.811348 c 0,-0.366888 -0.31044,-0.64911 -0.64911,-0.64911 -0.36689,0 -0.64911,0.282222 -0.64911,0.64911 v 9.990659 h -4.65666 c -2.59644,0 -4.71311,-2.088443 -4.71311,-4.713107 v -5.277552 c 0,-0.366888 -0.28222,-0.64911 -0.64911,-0.64911 z"
         id="path33" />
      <path
         style="font-weight:bold;font-family:'Leaf Tech';-inkscape-font-specification:'Leaf Tech Bold';text-align:center;text-anchor:middle"
         d="m 54.682058,98.081545 -0.790221,0.874888 c -0.620889,0.705555 -1.157111,1.298217 -1.890888,2.201327 l -0.90311,1.12889 1.467554,-0.59266 c 1.072444,-0.45156 1.608666,-0.81845 1.890888,-1.27 0.197555,-0.28222 0.225777,-0.592669 0.225777,-0.874891 0,-0.112889 0,-0.254 0,-0.366888 z m -3.330219,4.797775 c -3.273776,0 -5.954885,2.65289 -5.954885,5.95488 v 5.334 3.97933 6.66044 c 0,0.36689 0.282222,0.62089 0.620889,0.62089 0.366888,0 0.64911,-0.254 0.64911,-0.62089 v -6.66044 c 0,-1.86267 1.495777,-3.35844 3.358442,-3.35844 h 2.652887 c 1.326443,0 2.511776,-0.56445 3.358442,-1.43933 v 0.81844 7.98688 c 0,1.12889 -0.874888,2.00378 -2.003776,2.00378 -0.366889,0 -0.649111,0.31044 -0.649111,0.64911 0,0.36689 0.282222,0.62089 0.649111,0.62089 1.80622,0 3.301997,-1.46756 3.301997,-3.27378 v -7.98688 -4.00755 -1.32645 -5.95488 z m 0,1.27 h 4.684885 v 4.68488 1.32645 c 0,1.86266 -1.495777,3.33022 -3.358442,3.33022 h -2.652887 c -1.326443,0 -2.511776,0.59266 -3.358442,1.46755 v -0.79022 -5.334 c 0,-2.59644 2.088443,-4.68488 4.684886,-4.68488 z m 21.752254,-7.253108 -0.733778,0.818444 c -0.592666,0.649111 -1.100665,1.213555 -1.80622,2.031999 l -0.846666,1.044225 1.382887,-0.53623 c 1.044222,-0.423329 1.552221,-0.761995 1.806221,-1.185328 0.169333,-0.282222 0.225778,-0.536222 0.225778,-0.818444 0,-0.112889 -0.02822,-0.225778 -0.02822,-0.338666 z m -5.475107,5.983108 c -3.273775,0 -5.954884,2.65289 -5.954884,5.95488 v 5.334 3.97933 6.66044 c 0,0.36689 0.282222,0.62089 0.620888,0.62089 0.366889,0 0.649111,-0.254 0.649111,-0.62089 v -6.66044 c 0,-1.86267 1.495776,-3.35844 3.358441,-3.35844 h 2.652887 c 1.326444,0 2.511776,-0.56445 3.358442,-1.43933 v 0.81844 7.98688 c 0,1.12889 -0.874888,2.00378 -2.003776,2.00378 -0.366889,0 -0.649111,0.31044 -0.649111,0.64911 0,0.36689 0.282222,0.62089 0.649111,0.62089 1.806221,0 3.301997,-1.46756 3.301997,-3.27378 v -7.98688 -4.00755 -1.32645 -5.95488 z m 0,1.27 h 4.684885 v 4.68488 1.32645 c 0,1.86266 -1.495777,3.33022 -3.358442,3.33022 h -2.652887 c -1.326443,0 -2.511775,0.59266 -3.358441,1.46755 v -0.79022 -5.334 c 0,-2.59644 2.088442,-4.68488 4.684885,-4.68488 z m 0.395111,-4.571999 -0.564444,0.761999 c -0.423333,0.56444 -0.846666,0.762 -1.269999,0.98778 -0.451556,0.22578 -1.044222,0.33866 -2.003777,0.33866 -0.338666,0 -0.592666,0.19756 -0.592666,0.42334 0,0.254 0.254,0.47977 0.592666,0.47977 1.128888,0 2.088443,-0.254 2.793998,-0.62088 0.395111,-0.22578 0.733777,-0.508 1.044222,-0.81845 0.310444,0.31045 0.620888,0.59267 1.044221,0.81845 0.705555,0.36688 1.636888,0.62088 2.765776,0.62088 0.366888,0 0.592666,-0.22577 0.592666,-0.47977 0,-0.22578 -0.225778,-0.42334 -0.592666,-0.42334 -0.931333,0 -1.523999,-0.11288 -1.975554,-0.33866 -0.451556,-0.22578 -0.846666,-0.42334 -1.298222,-0.98778 z m 19.635589,-3.640663 -0.762,0.931332 c -0.592666,0.733777 -1.128888,1.382888 -1.834443,2.342443 l -0.874888,1.185337 1.41111,-0.620893 c 1.072444,-0.479778 1.580443,-0.874888 1.862665,-1.354666 0.169334,-0.310444 0.197556,-0.620888 0.197556,-0.931332 0,-0.141111 0,-0.254 0,-0.395111 z m -3.753553,6.942662 c -3.273775,0 -5.954884,2.65289 -5.954884,5.95488 v 5.334 3.97933 6.66044 c 0,0.36689 0.282222,0.62089 0.620888,0.62089 0.366889,0 0.649111,-0.254 0.649111,-0.62089 v -6.66044 c 0,-1.86267 1.495776,-3.35844 3.358442,-3.35844 h 2.652887 c 1.326443,0 2.511775,-0.56445 3.358441,-1.43933 v 0.81844 7.98688 c 0,1.12889 -0.874888,2.00378 -2.003776,2.00378 -0.366888,0 -0.64911,0.31044 -0.64911,0.64911 0,0.36689 0.282222,0.62089 0.64911,0.62089 1.806221,0 3.301998,-1.46756 3.301998,-3.27378 v -7.98688 -4.00755 -1.32645 -5.95488 z m 0,1.27 h 4.684885 v 4.68488 1.32645 c 0,1.86266 -1.495776,3.33022 -3.358441,3.33022 H 82.57969 c -1.326444,0 -2.511776,0.59266 -3.358442,1.46755 v -0.79022 -5.334 c 0,-2.59644 2.088443,-4.68488 4.684885,-4.68488 z m -3.951108,-3.21733 c 0,0.14111 0.05644,0.254 0.169333,0.33866 0.959555,0.67734 2.088443,1.10067 4.261553,1.10067 2.173109,0 3.273775,-0.42333 4.23333,-1.10067 0.112888,-0.0847 0.169333,-0.19755 0.169333,-0.33866 0,-0.254 -0.141111,-0.508 -0.508,-0.508 -0.169333,0 -0.254,0.0847 -0.395111,0.16933 -0.846666,0.59267 -1.523998,0.90311 -3.499552,0.90311 -2.003777,0 -2.709332,-0.31044 -3.555998,-0.90311 -0.112889,-0.0847 -0.225777,-0.16933 -0.395111,-0.16933 -0.338666,0 -0.479777,0.254 -0.479777,0.508 z m 23.784255,-3.076223 -0.73378,0.903111 c -0.59267,0.705555 -1.10067,1.326442 -1.80622,2.257772 l -0.84667,1.15711 1.38289,-0.62088 c 1.04422,-0.45156 1.55222,-0.81845 1.80622,-1.29823 0.16933,-0.282218 0.22578,-0.592662 0.22578,-0.874884 0,-0.141111 -0.0282,-0.282222 -0.0282,-0.395111 z m -1.10067,16.312433 v -0.0282 c 0,-0.36689 -0.28222,-0.64911 -0.64911,-0.64911 h -3.104443 c -1.862665,0 -3.358442,-1.46756 -3.358442,-3.33022 v -6.01133 h 7.365995 c 1.10067,0 2.00378,0.87489 2.00378,2.00377 0,0.36689 0.28222,0.64911 0.64911,0.64911 0.33866,0 0.64911,-0.28222 0.64911,-0.64911 0,-1.80622 -1.49578,-3.27377 -3.302,-3.27377 h -8.664216 v 7.28133 c 0,1.69333 0.959555,3.18911 2.342443,4.00755 -1.382888,0.79022 -2.342443,2.286 -2.342443,3.97933 v 7.28133 h 8.664216 c 1.80622,0 3.302,-1.46756 3.302,-3.27378 0,-0.36689 -0.31045,-0.64911 -0.64911,-0.64911 -0.36689,0 -0.64911,0.28222 -0.64911,0.64911 0,1.12889 -0.90311,2.00378 -2.00378,2.00378 h -7.365995 v -6.01133 c 0,-1.86267 1.495777,-3.35844 3.358442,-3.35844 h 3.104443 c 0.36689,0 0.64911,-0.254 0.64911,-0.62089 z m 18.70424,-17.667098 -0.70555,0.90311 c -0.59267,0.705555 -1.07245,1.326443 -1.74978,2.229554 l -0.81844,1.157114 1.32644,-0.59267 c 1.016,-0.479778 1.49578,-0.846666 1.74978,-1.298221 0.16933,-0.310445 0.19755,-0.620889 0.19755,-0.903111 0,-0.112889 0,-0.254 0,-0.366888 z m -2.39889,17.667098 v -0.0282 c 0,-0.36689 -0.28222,-0.64911 -0.64911,-0.64911 h -3.10444 c -1.86266,0 -3.35844,-1.46756 -3.35844,-3.33022 v -6.01133 h 7.36599 c 1.10067,0 2.00378,0.87489 2.00378,2.00377 0,0.36689 0.28222,0.64911 0.64911,0.64911 0.33867,0 0.64911,-0.28222 0.64911,-0.64911 0,-1.80622 -1.49577,-3.27377 -3.302,-3.27377 h -8.66421 v 7.28133 c 0,1.69333 0.95955,3.18911 2.34244,4.00755 -1.38289,0.79022 -2.34244,2.286 -2.34244,3.97933 v 7.28133 h 8.66421 c 1.80623,0 3.302,-1.46756 3.302,-3.27378 0,-0.36689 -0.31044,-0.64911 -0.64911,-0.64911 -0.36689,0 -0.64911,0.28222 -0.64911,0.64911 0,1.12889 -0.90311,2.00378 -2.00378,2.00378 h -7.36599 v -6.01133 c 0,-1.86267 1.49578,-3.35844 3.35844,-3.35844 h 3.10444 c 0.36689,0 0.64911,-0.254 0.64911,-0.62089 z m -2.99155,-14.590879 -0.56444,0.761999 c -0.42334,0.56444 -0.84667,0.762 -1.27,0.98778 -0.45156,0.22578 -1.04422,0.33866 -2.00378,0.33866 -0.33866,0 -0.59266,0.19756 -0.59266,0.42334 0,0.254 0.254,0.47977 0.59266,0.47977 1.12889,0 2.08845,-0.254 2.794,-0.62088 0.39511,-0.22578 0.73378,-0.508 1.04422,-0.81845 0.31045,0.31045 0.62089,0.59267 1.04422,0.81845 0.70556,0.36688 1.63689,0.62088 2.76578,0.62088 0.36689,0 0.59267,-0.22577 0.59267,-0.47977 0,-0.22578 -0.22578,-0.42334 -0.59267,-0.42334 -0.93133,0 -1.524,-0.11288 -1.97556,-0.33866 -0.45155,-0.22578 -0.84666,-0.42334 -1.29822,-0.98778 z m 13.93469,-0.761999 -0.73378,0.90311 c -0.62089,0.705558 -1.12889,1.326448 -1.86266,2.229558 l -0.87489,1.15711 1.43933,-0.59267 c 1.04422,-0.47978 1.55222,-0.84667 1.83444,-1.29822 0.16934,-0.31045 0.19756,-0.62089 0.19756,-0.90311 0,-0.11289 0,-0.254 0,-0.36689 z m -0.11289,4.035778 c -0.36689,0 -0.64911,0.254 -0.64911,0.64911 0,1.10066 -0.90311,2.00377 -2.00378,2.00377 -0.36689,0 -0.64911,0.28223 -0.64911,0.64911 0,0.36689 0.28222,0.64911 0.64911,0.64911 0.762,0 1.43933,-0.28222 2.00378,-0.70555 v 16.05843 c 0,1.12889 -0.90311,2.00378 -2.00378,2.00378 -0.36689,0 -0.64911,0.31044 -0.64911,0.64911 0,0.36689 0.28222,0.62089 0.64911,0.62089 1.80622,0 3.302,-1.46756 3.302,-3.27378 v -18.65487 -0.0282 c 0,-0.33867 -0.28222,-0.62089 -0.64911,-0.62089 z m 14.92251,-4.910666 -0.76199,0.874888 c -0.62089,0.677333 -1.12889,1.269998 -1.86267,2.144888 l -0.87489,1.10067 1.41111,-0.59267 c 1.07245,-0.42333 1.60867,-0.79022 1.86267,-1.24178 0.19755,-0.28222 0.22577,-0.564442 0.22577,-0.846664 0,-0.112889 0,-0.254 0,-0.366889 z m -3.80999,4.910666 c -3.27378,0 -5.95489,2.68111 -5.95489,5.9831 v 16.59466 h 5.95489 c 3.302,0 5.9831,-2.65289 5.9831,-5.95489 V 102.8511 Z m 0,1.29822 h 4.68488 v 15.32465 c 0,2.59645 -2.08844,4.68489 -4.68488,4.68489 h -4.68489 V 108.8342 c 0,-2.59644 2.08845,-4.68488 4.68489,-4.68488 z m 21.52647,-7.563552 -0.73377,0.846666 c -0.59267,0.649111 -1.10067,1.241777 -1.80623,2.116665 l -0.84666,1.072441 1.38289,-0.56444 c 1.04422,-0.451556 1.55222,-0.790223 1.80622,-1.241778 0.16933,-0.282222 0.22577,-0.564444 0.22577,-0.818444 0,-0.141111 -0.0282,-0.254 -0.0282,-0.366888 z m -5.24933,6.265332 c -3.27377,0 -5.95488,2.68111 -5.95488,5.9831 v 16.59466 h 5.95488 c 3.302,0 5.98311,-2.65289 5.98311,-5.95489 V 102.8511 Z m 0,1.29822 h 4.68489 v 15.32465 c 0,2.59645 -2.08844,4.68489 -4.68489,4.68489 h -4.68488 V 108.8342 c 0,-2.59644 2.08844,-4.68488 4.68488,-4.68488 z m 0.39511,-4.628443 -0.56444,0.762003 c -0.42333,0.56444 -0.84667,0.762 -1.27,0.98777 -0.45155,0.22578 -1.04422,0.33867 -2.00378,0.33867 -0.33866,0 -0.59266,0.19756 -0.59266,0.42333 0,0.254 0.254,0.47978 0.59266,0.47978 1.12889,0 2.08845,-0.254 2.794,-0.62089 0.39511,-0.22578 0.73378,-0.508 1.04422,-0.81844 0.31045,0.31044 0.62089,0.59266 1.04423,0.81844 0.70555,0.36689 1.63688,0.62089 2.76577,0.62089 0.36689,0 0.59267,-0.22578 0.59267,-0.47978 0,-0.22577 -0.22578,-0.42333 -0.59267,-0.42333 -0.93133,0 -1.524,-0.11289 -1.97555,-0.33867 -0.45156,-0.22577 -0.84667,-0.42333 -1.29822,-0.98777 z m 17.71648,-1.777999 -0.73378,0.931333 c -0.62088,0.733777 -1.12888,1.354669 -1.86266,2.314219 l -0.84667,1.18533 1.41111,-0.62088 c 1.04422,-0.47978 1.55222,-0.87489 1.83445,-1.35467 0.19755,-0.310444 0.22577,-0.620889 0.22577,-0.903111 0,-0.141111 -0.0282,-0.282222 -0.0282,-0.39511 z m -1.83444,6.406442 h 4.68488 v 15.32465 c 0,2.59645 -2.08844,4.68489 -4.68488,4.68489 h -4.68489 V 108.8342 c 0,-2.59644 2.08845,-4.68488 4.68489,-4.68488 z m 5.30577,-4.064 c -1.07244,0 -1.97555,0.90311 -1.97555,1.97556 h 1.18533 c 0,-0.39512 0.39511,-0.79023 0.79022,-0.79023 h 0.79022 v 0.79023 c 0,0.39511 -0.39511,0.79022 -0.79022,0.79022 h -5.30577 c -3.27378,0 -5.95489,2.68111 -5.95489,5.9831 v 16.59466 h 5.95489 c 3.302,0 5.9831,-2.65289 5.9831,-5.95489 v -15.55043 c 0.73378,-0.28222 1.29823,-1.016 1.29823,-1.86266 v -1.97556 z m 14.0476,-0.733776 -0.762,0.903106 c -0.62089,0.73378 -1.15711,1.35467 -1.91911,2.286 l -0.87489,1.15711 1.43934,-0.62089 c 1.10066,-0.45155 1.63688,-0.84666 1.91911,-1.29822 0.16933,-0.31044 0.22577,-0.62089 0.22577,-0.90311 0,-0.14111 -0.0282,-0.254 -0.0282,-0.39511 z m -8.38199,3.499556 c -0.33867,0 -0.64911,0.28222 -0.64911,0.64911 v 15.94554 c 0,3.302 2.70933,5.98311 6.01133,5.98311 h 5.95488 v -21.92865 c 0,-0.36689 -0.31044,-0.64911 -0.64911,-0.64911 -0.36689,0 -0.64911,0.28222 -0.64911,0.64911 v 20.65865 h -4.65666 c -2.59645,0 -4.71311,-2.08844 -4.71311,-4.71311 v -15.94554 c 0,-0.36689 -0.28222,-0.64911 -0.64911,-0.64911 z m 22.54245,-4.628444 -0.73378,0.931332 c -0.59267,0.733778 -1.10067,1.382892 -1.83444,2.342442 l -0.84667,1.21356 1.38289,-0.64911 c 1.04422,-0.47978 1.55222,-0.87489 1.83444,-1.35467 0.16934,-0.31044 0.19756,-0.62089 0.19756,-0.931333 0,-0.141111 0,-0.254 0,-0.395111 z m -6.23711,4.628444 c -0.33866,0 -0.64911,0.28222 -0.64911,0.64911 v 15.94554 c 0,3.302 2.70933,5.98311 6.01133,5.98311 h 5.95488 v -21.50532 c 0.762,-0.254 1.32645,-1.016 1.32645,-1.86266 v -1.97556 h -1.97556 c -1.07244,0 -1.97555,0.90311 -1.97555,1.97556 h 1.18533 c 0,-0.39512 0.39511,-0.79023 0.79022,-0.79023 h 0.79022 v 0.79023 c 0,0.39511 -0.39511,0.79022 -0.79022,0.79022 -0.36689,0 -0.64911,0.28222 -0.64911,0.64911 v 20.65865 h -4.65666 c -2.59644,0 -4.71311,-2.08844 -4.71311,-4.71311 v -15.94554 c 0,-0.36689 -0.28222,-0.64911 -0.64911,-0.64911 z m 24.63091,-3.499556 -0.762,0.903106 c -0.62089,0.73378 -1.12889,1.35467 -1.86267,2.286 l -0.87488,1.15711 1.43933,-0.62089 c 1.04422,-0.45155 1.58044,-0.84666 1.86266,-1.29822 0.16934,-0.31044 0.22578,-0.62089 0.22578,-0.90311 0,-0.14111 -0.0282,-0.254 -0.0282,-0.39511 z m -8.32555,3.499556 c -0.36689,0 -0.64911,0.28222 -0.64911,0.64911 v 5.27755 c 0,3.33022 2.70933,6.01133 6.01133,6.01133 h 4.65666 v 4.68488 c 0,2.59645 -2.08844,4.68489 -4.68488,4.68489 -0.36689,0 -0.64911,0.31044 -0.64911,0.64911 0,0.36689 0.28222,0.62089 0.64911,0.62089 3.27377,0 5.9831,-2.65289 5.9831,-5.95489 v -15.97376 c 0,-0.36689 -0.31044,-0.64911 -0.64911,-0.64911 -0.36689,0 -0.64911,0.28222 -0.64911,0.64911 v 9.99066 h -4.65666 c -2.59644,0 -4.71311,-2.08845 -4.71311,-4.71311 v -5.27755 c 0,-0.36689 -0.28222,-0.64911 -0.64911,-0.64911 z"
         id="path34" />
      <path
         style="font-weight:bold;font-family:'Leaf Tech';-inkscape-font-specification:'Leaf Tech Bold';text-align:center;text-anchor:middle"
         d="m 50.73095,135.61707 0.620889,1.38289 c 0.479777,1.016 0.846666,1.524 1.326443,1.80622 0.479777,0.254 0.90311,0.254 1.354666,0.28222 h 1.185332 l -0.90311,-0.73378 c -0.762,-0.62088 -1.382888,-1.12888 -2.342443,-1.83444 z m 0.620889,3.95111 c -3.273776,0 -5.954885,2.65288 -5.954885,5.95488 v 5.334 3.97933 6.66044 c 0,0.36689 0.282222,0.62089 0.620889,0.62089 0.366888,0 0.64911,-0.254 0.64911,-0.62089 v -6.66044 c 0,-1.86267 1.495777,-3.35844 3.358442,-3.35844 h 2.652887 c 1.326443,0 2.511776,-0.56445 3.358442,-1.43934 v 0.81845 7.98688 c 0,1.12889 -0.874888,2.00378 -2.003776,2.00378 -0.366889,0 -0.649111,0.31044 -0.649111,0.64911 0,0.36689 0.282222,0.62089 0.649111,0.62089 1.80622,0 3.301997,-1.46756 3.301997,-3.27378 v -7.98688 -4.00755 -1.32645 -5.95488 z m 0,1.27 h 4.684885 v 4.68488 1.32645 c 0,1.86266 -1.495777,3.33022 -3.358442,3.33022 h -2.652887 c -1.326443,0 -2.511776,0.59266 -3.358442,1.46755 v -0.79022 -5.334 c 0,-2.59644 2.088443,-4.68488 4.684886,-4.68488 z m 17.123813,-6.12422 0.592666,1.15711 c 0.451555,0.81844 0.790222,1.27 1.269999,1.49578 0.423333,0.22577 0.846666,0.22577 1.269999,0.22577 h 1.128888 l -0.874888,-0.59266 c -0.705555,-0.508 -1.298221,-0.93133 -2.229554,-1.524 z m -0.846666,4.85422 c -3.273775,0 -5.954884,2.65288 -5.954884,5.95488 v 5.334 3.97933 6.66044 c 0,0.36689 0.282222,0.62089 0.620888,0.62089 0.366889,0 0.649111,-0.254 0.649111,-0.62089 v -6.66044 c 0,-1.86267 1.495776,-3.35844 3.358441,-3.35844 h 2.652887 c 1.326444,0 2.511776,-0.56445 3.358442,-1.43934 v 0.81845 7.98688 c 0,1.12889 -0.874888,2.00378 -2.003776,2.00378 -0.366889,0 -0.649111,0.31044 -0.649111,0.64911 0,0.36689 0.282222,0.62089 0.649111,0.62089 1.806221,0 3.301997,-1.46756 3.301997,-3.27378 v -7.98688 -4.00755 -1.32645 -5.95488 z m 0,1.27 h 4.684885 v 4.68488 1.32645 c 0,1.86266 -1.495777,3.33022 -3.358442,3.33022 h -2.652887 c -1.326443,0 -2.511775,0.59266 -3.358441,1.46755 v -0.79022 -5.334 c 0,-2.59644 2.088442,-4.68488 4.684885,-4.68488 z m 0.395111,-4.572 -0.564444,0.762 c -0.423333,0.56444 -0.846666,0.762 -1.269999,0.98778 -0.451556,0.22577 -1.044222,0.33866 -2.003777,0.33866 -0.338666,0 -0.592666,0.19756 -0.592666,0.42334 0,0.254 0.254,0.47977 0.592666,0.47977 1.128888,0 2.088443,-0.254 2.793998,-0.62088 0.395111,-0.22578 0.733777,-0.508 1.044222,-0.81845 0.310444,0.31045 0.620888,0.59267 1.044221,0.81845 0.705555,0.36688 1.636888,0.62088 2.765776,0.62088 0.366888,0 0.592666,-0.22577 0.592666,-0.47977 0,-0.22578 -0.225778,-0.42334 -0.592666,-0.42334 -0.931333,0 -1.523999,-0.11289 -1.975554,-0.33866 -0.451556,-0.22578 -0.846666,-0.42334 -1.298222,-0.98778 z m 14.894259,-2.25778 0.620888,1.27 c 0.451556,0.90311 0.818444,1.38289 1.298222,1.63689 0.451555,0.254 0.874888,0.254 1.298221,0.254 h 1.15711 l -0.874888,-0.67733 c -0.733777,-0.53622 -1.354666,-1.016 -2.285998,-1.66511 z m 0.987777,5.55978 c -3.273775,0 -5.954884,2.65288 -5.954884,5.95488 v 5.334 3.97933 6.66044 c 0,0.36689 0.282222,0.62089 0.620888,0.62089 0.366889,0 0.649111,-0.254 0.649111,-0.62089 v -6.66044 c 0,-1.86267 1.495776,-3.35844 3.358442,-3.35844 h 2.652887 c 1.326443,0 2.511775,-0.56445 3.358441,-1.43934 v 0.81845 7.98688 c 0,1.12889 -0.874888,2.00378 -2.003776,2.00378 -0.366888,0 -0.64911,0.31044 -0.64911,0.64911 0,0.36689 0.282222,0.62089 0.64911,0.62089 1.806221,0 3.301998,-1.46756 3.301998,-3.27378 v -7.98688 -4.00755 -1.32645 -5.95488 z m 0,1.27 h 4.684885 v 4.68488 1.32645 c 0,1.86266 -1.495776,3.33022 -3.358441,3.33022 H 82.57969 c -1.326444,0 -2.511776,0.59266 -3.358442,1.46755 v -0.79022 -5.334 c 0,-2.59644 2.088443,-4.68488 4.684885,-4.68488 z m -3.951108,-3.21733 c 0,0.14111 0.05644,0.254 0.169333,0.33866 0.959555,0.67734 2.088443,1.10067 4.261553,1.10067 2.173109,0 3.273775,-0.42333 4.23333,-1.10067 0.112888,-0.0847 0.169333,-0.19755 0.169333,-0.33866 0,-0.254 -0.141111,-0.508 -0.508,-0.508 -0.169333,0 -0.254,0.0847 -0.395111,0.16933 -0.846666,0.59267 -1.523998,0.90311 -3.499552,0.90311 -2.003777,0 -2.709332,-0.31044 -3.555998,-0.90311 -0.112889,-0.0847 -0.225777,-0.16933 -0.395111,-0.16933 -0.338666,0 -0.479777,0.254 -0.479777,0.508 z m 19.268699,-1.83445 0.620888,1.29822 c 0.451558,0.93134 0.818448,1.41111 1.298218,1.69334 0.45156,0.254 0.87489,0.254 1.29822,0.254 h 1.15711 l -0.87488,-0.67734 c -0.73378,-0.56444 -1.35467,-1.04422 -2.286,-1.72155 z m 3.414886,15.07066 v -0.0282 c 0,-0.36689 -0.28222,-0.64911 -0.64911,-0.64911 h -3.104443 c -1.862665,0 -3.358442,-1.46756 -3.358442,-3.33022 v -6.01133 h 7.365995 c 1.10067,0 2.00378,0.87489 2.00378,2.00377 0,0.36689 0.28222,0.64911 0.64911,0.64911 0.33866,0 0.64911,-0.28222 0.64911,-0.64911 0,-1.80622 -1.49578,-3.27377 -3.302,-3.27377 h -8.664216 v 7.28133 c 0,1.69333 0.959555,3.1891 2.342443,4.00755 -1.382888,0.79022 -2.342443,2.286 -2.342443,3.97933 v 7.28133 h 8.664216 c 1.80622,0 3.302,-1.46756 3.302,-3.27378 0,-0.36689 -0.31045,-0.64911 -0.64911,-0.64911 -0.36689,0 -0.64911,0.28222 -0.64911,0.64911 0,1.12889 -0.90311,2.00378 -2.00378,2.00378 h -7.365995 v -6.01133 c 0,-1.86267 1.495777,-3.35844 3.358442,-3.35844 h 3.104443 c 0.36689,0 0.64911,-0.254 0.64911,-0.62089 z m 13.96291,-16.50999 0.64911,1.24178 c 0.47978,0.90311 0.84667,1.35466 1.35467,1.60866 0.47978,0.254 0.90311,0.254 1.35466,0.254 h 1.21356 l -0.93133,-0.64911 c -0.762,-0.56444 -1.41111,-1.016 -2.37067,-1.66511 z m 2.34244,16.50999 v -0.0282 c 0,-0.36689 -0.28222,-0.64911 -0.64911,-0.64911 h -3.10444 c -1.86266,0 -3.35844,-1.46756 -3.35844,-3.33022 v -6.01133 h 7.36599 c 1.10067,0 2.00378,0.87489 2.00378,2.00377 0,0.36689 0.28222,0.64911 0.64911,0.64911 0.33867,0 0.64911,-0.28222 0.64911,-0.64911 0,-1.80622 -1.49577,-3.27377 -3.302,-3.27377 h -8.66421 v 7.28133 c 0,1.69333 0.95955,3.1891 2.34244,4.00755 -1.38289,0.79022 -2.34244,2.286 -2.34244,3.97933 v 7.28133 h 8.66421 c 1.80623,0 3.302,-1.46756 3.302,-3.27378 0,-0.36689 -0.31044,-0.64911 -0.64911,-0.64911 -0.36689,0 -0.64911,0.28222 -0.64911,0.64911 0,1.12889 -0.90311,2.00378 -2.00378,2.00378 h -7.36599 v -6.01133 c 0,-1.86267 1.49578,-3.35844 3.35844,-3.35844 h 3.10444 c 0.36689,0 0.64911,-0.254 0.64911,-0.62089 z m -2.99155,-14.59088 -0.56444,0.762 c -0.42334,0.56444 -0.84667,0.762 -1.27,0.98778 -0.45156,0.22577 -1.04422,0.33866 -2.00378,0.33866 -0.33866,0 -0.59266,0.19756 -0.59266,0.42334 0,0.254 0.254,0.47977 0.59266,0.47977 1.12889,0 2.08845,-0.254 2.794,-0.62088 0.39511,-0.22578 0.73378,-0.508 1.04422,-0.81845 0.31045,0.31045 0.62089,0.59267 1.04422,0.81845 0.70556,0.36688 1.63689,0.62088 2.76578,0.62088 0.36689,0 0.59267,-0.22577 0.59267,-0.47977 0,-0.22578 -0.22578,-0.42334 -0.59267,-0.42334 -0.93133,0 -1.524,-0.11289 -1.97556,-0.33866 -0.45155,-0.22578 -0.84666,-0.42334 -1.29822,-0.98778 z m 10.0118,-1.83444 0.62089,1.35466 c 0.45156,0.98778 0.81844,1.49578 1.29822,1.778 0.45156,0.254 0.87489,0.254 1.29822,0.28222 h 1.15711 l -0.87488,-0.73377 c -0.73378,-0.59267 -1.35467,-1.10067 -2.286,-1.80622 z m 3.81,5.10822 c -0.36689,0 -0.64911,0.254 -0.64911,0.64911 0,1.10066 -0.90311,2.00377 -2.00378,2.00377 -0.36689,0 -0.64911,0.28222 -0.64911,0.64911 0,0.36689 0.28222,0.64911 0.64911,0.64911 0.762,0 1.43933,-0.28222 2.00378,-0.70555 v 16.05843 c 0,1.12889 -0.90311,2.00378 -2.00378,2.00378 -0.36689,0 -0.64911,0.31044 -0.64911,0.64911 0,0.36689 0.28222,0.62089 0.64911,0.62089 1.80622,0 3.302,-1.46756 3.302,-3.27378 v -18.65487 -0.0282 c 0,-0.33866 -0.28222,-0.62088 -0.64911,-0.62088 z m 11.70518,-4.37445 0.62089,1.41111 c 0.47978,1.016 0.84667,1.55223 1.32645,1.83445 0.47977,0.254 0.90311,0.254 1.35466,0.31044 h 1.18533 l -0.90311,-0.762 c -0.762,-0.62089 -1.38288,-1.15711 -2.34244,-1.86266 z m -0.59266,4.37445 c -3.27378,0 -5.95489,2.6811 -5.95489,5.9831 v 16.59466 h 5.95489 c 3.302,0 5.9831,-2.65289 5.9831,-5.95489 v -16.62287 z m 0,1.29822 h 4.68488 v 15.32465 c 0,2.59644 -2.08844,4.68489 -4.68488,4.68489 h -4.68489 v -15.32466 c 0,-2.59644 2.08845,-4.68488 4.68489,-4.68488 z m 17.26492,-6.35 0.62089,1.27 c 0.45155,0.93133 0.81844,1.43933 1.29822,1.69333 0.45155,0.254 0.87489,0.254 1.29822,0.254 h 1.18533 l -0.90311,-0.67733 c -0.73377,-0.56444 -1.35466,-1.04422 -2.286,-1.72155 z m -0.98778,5.05178 c -3.27377,0 -5.95488,2.6811 -5.95488,5.9831 v 16.59466 h 5.95488 c 3.302,0 5.98311,-2.65289 5.98311,-5.95489 v -16.62287 z m 0,1.29822 h 4.68489 v 15.32465 c 0,2.59644 -2.08844,4.68489 -4.68489,4.68489 h -4.68488 v -15.32466 c 0,-2.59644 2.08844,-4.68488 4.68488,-4.68488 z m 0.39511,-4.62844 -0.56444,0.762 c -0.42333,0.56444 -0.84667,0.762 -1.27,0.98777 -0.45155,0.22578 -1.04422,0.33867 -2.00378,0.33867 -0.33866,0 -0.59266,0.19755 -0.59266,0.42333 0,0.254 0.254,0.47978 0.59266,0.47978 1.12889,0 2.08845,-0.254 2.794,-0.62089 0.39511,-0.22578 0.73378,-0.508 1.04422,-0.81844 0.31045,0.31044 0.62089,0.59266 1.04423,0.81844 0.70555,0.36689 1.63688,0.62089 2.76577,0.62089 0.36689,0 0.59267,-0.22578 0.59267,-0.47978 0,-0.22578 -0.22578,-0.42333 -0.59267,-0.42333 -0.93133,0 -1.524,-0.11289 -1.97555,-0.33867 -0.45156,-0.22577 -0.84667,-0.42333 -1.29822,-0.98777 z m 13.56782,-0.56445 0.62089,1.27 c 0.45155,0.95956 0.81844,1.43933 1.32644,1.69333 0.45156,0.254 0.87489,0.254 1.29822,0.254 h 1.18533 l -0.87488,-0.67733 c -0.762,-0.56444 -1.38289,-1.04422 -2.34245,-1.72155 z m 2.31422,5.19289 h 4.68488 v 15.32465 c 0,2.59644 -2.08844,4.68489 -4.68488,4.68489 h -4.68489 v -15.32466 c 0,-2.59644 2.08845,-4.68488 4.68489,-4.68488 z m 5.30577,-4.064 c -1.07244,0 -1.97555,0.90311 -1.97555,1.97555 h 1.18533 c 0,-0.39511 0.39511,-0.79022 0.79022,-0.79022 h 0.79022 v 0.79022 c 0,0.39512 -0.39511,0.79023 -0.79022,0.79023 h -5.30577 c -3.27378,0 -5.95489,2.6811 -5.95489,5.9831 v 16.59466 h 5.95489 c 3.302,0 5.9831,-2.65289 5.9831,-5.95489 V 140.6124 c 0.73378,-0.28222 1.29823,-1.016 1.29823,-1.86267 v -1.97555 z m 10.15294,-1.15711 0.62089,1.32644 c 0.45155,0.93134 0.84666,1.41111 1.32644,1.69334 0.45155,0.254 0.90311,0.254 1.32644,0.254 h 1.18534 l -0.90312,-0.67734 c -0.73377,-0.59266 -1.38288,-1.07244 -2.34244,-1.74977 z m -4.48733,3.92289 c -0.33867,0 -0.64911,0.28222 -0.64911,0.64911 v 15.94554 c 0,3.302 2.70933,5.98311 6.01133,5.98311 h 5.95488 v -21.92865 c 0,-0.36689 -0.31044,-0.64911 -0.64911,-0.64911 -0.36689,0 -0.64911,0.28222 -0.64911,0.64911 v 20.65865 h -4.65666 c -2.59645,0 -4.71311,-2.08845 -4.71311,-4.71311 v -15.94554 c 0,-0.36689 -0.28222,-0.64911 -0.64911,-0.64911 z m 19.32512,-3.33022 0.62089,1.32644 c 0.47977,0.95955 0.84666,1.46755 1.32644,1.74978 0.47978,0.254 0.90311,0.254 1.35466,0.254 h 1.18534 l -0.90311,-0.70556 c -0.762,-0.59267 -1.38289,-1.07244 -2.34245,-1.778 z m -3.01978,3.33022 c -0.33866,0 -0.64911,0.28222 -0.64911,0.64911 v 15.94554 c 0,3.302 2.70933,5.98311 6.01133,5.98311 h 5.95488 V 140.6124 c 0.762,-0.254 1.32645,-1.016 1.32645,-1.86267 v -1.97555 h -1.97556 c -1.07244,0 -1.97555,0.90311 -1.97555,1.97555 h 1.18533 c 0,-0.39511 0.39511,-0.79022 0.79022,-0.79022 h 0.79022 v 0.79022 c 0,0.39512 -0.39511,0.79023 -0.79022,0.79023 -0.36689,0 -0.64911,0.28222 -0.64911,0.64911 v 20.65865 h -4.65666 c -2.59644,0 -4.71311,-2.08845 -4.71311,-4.71311 v -15.94554 c 0,-0.36689 -0.28222,-0.64911 -0.64911,-0.64911 z m 20.36936,-3.47133 0.62089,1.24177 c 0.45155,0.87489 0.81844,1.32645 1.32644,1.58045 0.45155,0.254 0.87489,0.254 1.29822,0.254 h 1.18533 l -0.87489,-0.64912 c -0.76199,-0.53622 -1.38288,-0.98777 -2.34244,-1.63688 z m -4.064,3.47133 c -0.36689,0 -0.64911,0.28222 -0.64911,0.64911 v 5.27755 c 0,3.33022 2.70933,6.01133 6.01133,6.01133 h 4.65666 v 4.68488 c 0,2.59644 -2.08844,4.68489 -4.68488,4.68489 -0.36689,0 -0.64911,0.31044 -0.64911,0.64911 0,0.36689 0.28222,0.62089 0.64911,0.62089 3.27377,0 5.9831,-2.65289 5.9831,-5.95489 v -15.97376 c 0,-0.36689 -0.31044,-0.64911 -0.64911,-0.64911 -0.36689,0 -0.64911,0.28222 -0.64911,0.64911 v 9.99066 h -4.65666 c -2.59644,0 -4.71311,-2.08845 -4.71311,-4.71311 v -5.27755 c 0,-0.36689 -0.28222,-0.64911 -0.64911,-0.64911 z"
         id="path35" />
      <path
         style="font-weight:bold;font-family:'Leaf Tech';-inkscape-font-specification:'Leaf Tech Bold';text-align:center;text-anchor:middle"
         d="m 53.186282,169.79415 -1.580444,0.98778 c -0.564444,0.36689 -0.874888,1.07244 -0.874888,1.74978 0,0.36689 0.02822,0.67733 0.197556,0.98777 l 1.015999,-0.64911 c -0.05644,-0.11289 -0.05644,-0.254 -0.05644,-0.33866 0,-0.254 0.112889,-0.45156 0.310445,-0.59267 l 0.564444,-0.33867 0.310444,0.59267 c 0.05644,0.11289 0.08467,0.22578 0.08467,0.33867 0,0.28222 -0.112888,0.47977 -0.310444,0.62089 l -1.580443,1.01599 c 0,0 0.395111,0.73378 0.592666,1.15711 0.225778,0.39512 0.620889,0.67734 1.100666,0.762 0.08467,-0.22577 0.112889,-0.42333 0.112889,-0.62088 0,-0.28223 -0.05645,-0.59267 -0.197556,-0.81845 l 0.564444,-0.36689 c 0.564444,-0.39511 0.903111,-1.07244 0.903111,-1.778 0,-0.33866 -0.08467,-0.64911 -0.225778,-0.95955 z m -1.834443,6.46289 c -3.273776,0 -5.954885,2.65288 -5.954885,5.95488 v 5.334 3.97933 6.66044 c 0,0.36689 0.282222,0.62089 0.620889,0.62089 0.366888,0 0.64911,-0.254 0.64911,-0.62089 v -6.66044 c 0,-1.86267 1.495777,-3.35844 3.358442,-3.35844 h 2.652887 c 1.326443,0 2.511776,-0.56445 3.358442,-1.43934 v 0.81845 7.98688 c 0,1.12889 -0.874888,2.00378 -2.003776,2.00378 -0.366889,0 -0.649111,0.31044 -0.649111,0.64911 0,0.36689 0.282222,0.62089 0.649111,0.62089 1.80622,0 3.301997,-1.46756 3.301997,-3.27378 v -7.98688 -4.00756 -1.32644 -5.95488 z m 0,1.27 h 4.684885 v 4.68488 1.32644 c 0,1.86267 -1.495777,3.33022 -3.358442,3.33022 h -2.652887 c -1.326443,0 -2.511776,0.59267 -3.358442,1.46756 v -0.79022 -5.334 c 0,-2.59644 2.088443,-4.68488 4.684886,-4.68488 z m 20.990254,-8.09978 -1.241777,1.27 c -0.451555,0.45156 -0.592666,1.15711 -0.423333,1.74978 0.08467,0.31044 0.197556,0.59267 0.423333,0.81844 l 0.790222,-0.84666 c -0.05644,-0.0847 -0.08467,-0.16934 -0.112889,-0.254 -0.05644,-0.22578 0,-0.42333 0.141111,-0.62089 l 0.451555,-0.45156 0.423333,0.47978 c 0.08467,0.0847 0.141111,0.16934 0.169334,0.28222 0.05644,0.22578 0,0.42334 -0.169334,0.59267 l -1.213554,1.29822 c 0,0 0.536222,0.56445 0.818444,0.87489 0.282222,0.28222 0.733777,0.45155 1.213554,0.39511 0.02822,-0.22578 0,-0.39511 -0.05644,-0.59267 -0.05645,-0.254 -0.169333,-0.47977 -0.366889,-0.64911 l 0.451555,-0.47977 c 0.451556,-0.47978 0.592667,-1.15711 0.423333,-1.778 -0.08467,-0.31045 -0.225777,-0.56445 -0.451555,-0.79022 z m -4.713107,6.82978 c -3.273775,0 -5.954884,2.65288 -5.954884,5.95488 v 5.334 3.97933 6.66044 c 0,0.36689 0.282222,0.62089 0.620888,0.62089 0.366889,0 0.649111,-0.254 0.649111,-0.62089 v -6.66044 c 0,-1.86267 1.495776,-3.35844 3.358441,-3.35844 h 2.652887 c 1.326444,0 2.511776,-0.56445 3.358442,-1.43934 v 0.81845 7.98688 c 0,1.12889 -0.874888,2.00378 -2.003776,2.00378 -0.366889,0 -0.649111,0.31044 -0.649111,0.64911 0,0.36689 0.282222,0.62089 0.649111,0.62089 1.806221,0 3.301997,-1.46756 3.301997,-3.27378 v -7.98688 -4.00756 -1.32644 -5.95488 z m 0,1.27 h 4.684885 v 4.68488 1.32644 c 0,1.86267 -1.495777,3.33022 -3.358442,3.33022 h -2.652887 c -1.326443,0 -2.511775,0.59267 -3.358441,1.46756 v -0.79022 -5.334 c 0,-2.59644 2.088442,-4.68488 4.684885,-4.68488 z m 0.395111,-4.572 -0.564444,0.762 c -0.423333,0.56444 -0.846666,0.762 -1.269999,0.98778 -0.451556,0.22577 -1.044222,0.33866 -2.003777,0.33866 -0.338666,0 -0.592666,0.19756 -0.592666,0.42334 0,0.254 0.254,0.47977 0.592666,0.47977 1.128888,0 2.088443,-0.254 2.793998,-0.62089 0.395111,-0.22577 0.733777,-0.50799 1.044222,-0.81844 0.310444,0.31045 0.620888,0.59267 1.044221,0.81844 0.705555,0.36689 1.636888,0.62089 2.765776,0.62089 0.366888,0 0.592666,-0.22577 0.592666,-0.47977 0,-0.22578 -0.225778,-0.42334 -0.592666,-0.42334 -0.931333,0 -1.523999,-0.11289 -1.975554,-0.33866 -0.451556,-0.22578 -0.846666,-0.42334 -1.298222,-0.98778 z m 21.159588,-3.302 -1.157111,1.10067 c -0.39511,0.39511 -0.507999,0.98778 -0.366888,1.524 0.05644,0.254 0.169333,0.47977 0.366888,0.67733 l 0.705555,-0.70556 c -0.05644,-0.0847 -0.08467,-0.16933 -0.08467,-0.22577 -0.05644,-0.19756 -0.02822,-0.39511 0.141111,-0.53622 l 0.366888,-0.39512 0.395111,0.39512 c 0.05644,0.0847 0.112889,0.16933 0.141111,0.254 0.05645,0.19755 0,0.36688 -0.141111,0.50799 l -1.100666,1.12889 c 0,0 0.479778,0.47978 0.733778,0.73378 0.253999,0.254 0.620888,0.39511 1.072443,0.33867 0,-0.19756 0,-0.33867 -0.05644,-0.508 -0.05645,-0.19756 -0.141111,-0.42334 -0.310444,-0.56445 l 0.39511,-0.39511 c 0.395111,-0.42333 0.536222,-1.016 0.395111,-1.55222 -0.05644,-0.254 -0.197555,-0.47978 -0.395111,-0.67733 z m -5.277552,6.604 c -3.273775,0 -5.954884,2.65288 -5.954884,5.95488 v 5.334 3.97933 6.66044 c 0,0.36689 0.282222,0.62089 0.620888,0.62089 0.366889,0 0.649111,-0.254 0.649111,-0.62089 v -6.66044 c 0,-1.86267 1.495776,-3.35844 3.358442,-3.35844 h 2.652887 c 1.326443,0 2.511775,-0.56445 3.358441,-1.43934 v 0.81845 7.98688 c 0,1.12889 -0.874888,2.00378 -2.003776,2.00378 -0.366888,0 -0.64911,0.31044 -0.64911,0.64911 0,0.36689 0.282222,0.62089 0.64911,0.62089 1.806221,0 3.301998,-1.46756 3.301998,-3.27378 v -7.98688 -4.00756 -1.32644 -5.95488 z m 0,1.27 h 4.684885 v 4.68488 1.32644 c 0,1.86267 -1.495776,3.33022 -3.358441,3.33022 H 82.57969 c -1.326444,0 -2.511776,0.59267 -3.358442,1.46756 v -0.79022 -5.334 c 0,-2.59644 2.088443,-4.68488 4.684885,-4.68488 z m -3.951108,-3.21733 c 0,0.14111 0.05644,0.254 0.169333,0.33866 0.959555,0.67733 2.088443,1.10067 4.261553,1.10067 2.173109,0 3.273775,-0.42334 4.23333,-1.10067 0.112888,-0.0847 0.169333,-0.19755 0.169333,-0.33866 0,-0.254 -0.141111,-0.508 -0.508,-0.508 -0.169333,0 -0.254,0.0847 -0.395111,0.16933 -0.846666,0.59267 -1.523998,0.90311 -3.499552,0.90311 -2.003777,0 -2.709332,-0.31044 -3.555998,-0.90311 -0.112889,-0.0847 -0.225777,-0.16933 -0.395111,-0.16933 -0.338666,0 -0.479777,0.254 -0.479777,0.508 z m 24.518025,-3.81 -1.27,1.24178 c -0.45155,0.47977 -0.59266,1.12888 -0.45155,1.72155 0.0847,0.31044 0.22578,0.56444 0.42333,0.79022 l 0.81845,-0.81844 c -0.0847,-0.0847 -0.11289,-0.19756 -0.11289,-0.254 -0.0847,-0.22578 -0.0282,-0.42334 0.14111,-0.59267 l 0.45155,-0.45155 0.42334,0.45155 c 0.0847,0.0847 0.11288,0.16933 0.14111,0.254 0.0564,0.22578 0.0282,0.42333 -0.14111,0.59267 l -1.24178,1.27 c 0,0 0.53622,0.53622 0.81844,0.81844 0.28222,0.31044 0.73378,0.45156 1.21356,0.39511 0.0282,-0.22578 0,-0.39511 -0.0564,-0.56444 -0.0564,-0.254 -0.16933,-0.47978 -0.33866,-0.64911 l 0.42333,-0.45156 c 0.45155,-0.45155 0.62089,-1.12889 0.45155,-1.72155 -0.0847,-0.31045 -0.22577,-0.53623 -0.45155,-0.79022 z m -1.83444,17.04621 v -0.0282 c 0,-0.36689 -0.28222,-0.64912 -0.64911,-0.64912 h -3.104443 c -1.862665,0 -3.358442,-1.46755 -3.358442,-3.33022 v -6.01132 h 7.365995 c 1.10067,0 2.00378,0.87488 2.00378,2.00377 0,0.36689 0.28222,0.64911 0.64911,0.64911 0.33866,0 0.64911,-0.28222 0.64911,-0.64911 0,-1.80622 -1.49578,-3.27377 -3.302,-3.27377 h -8.664216 v 7.28132 c 0,1.69334 0.959555,3.18911 2.342443,4.00756 -1.382888,0.79022 -2.342443,2.286 -2.342443,3.97933 v 7.28133 h 8.664216 c 1.80622,0 3.302,-1.46756 3.302,-3.27378 0,-0.36689 -0.31045,-0.64911 -0.64911,-0.64911 -0.36689,0 -0.64911,0.28222 -0.64911,0.64911 0,1.12889 -0.90311,2.00378 -2.00378,2.00378 h -7.365995 v -6.01133 c 0,-1.86267 1.495777,-3.35844 3.358442,-3.35844 h 3.104443 c 0.36689,0 0.64911,-0.254 0.64911,-0.62089 z m 18.08335,-17.46954 -1.27,1.24177 c -0.45155,0.47978 -0.59266,1.12889 -0.42333,1.72156 0.0847,0.31044 0.19756,0.56444 0.42333,0.79022 l 0.79023,-0.81845 c -0.0564,-0.0847 -0.0847,-0.19755 -0.11289,-0.254 -0.0564,-0.22577 0,-0.42333 0.16933,-0.59266 l 0.42333,-0.45156 0.42334,0.45156 c 0.0847,0.0847 0.14111,0.16933 0.16933,0.254 0.0564,0.22578 0,0.42333 -0.16933,0.59266 l -1.24178,1.27 c 0,0 0.53622,0.53623 0.84667,0.81845 0.28222,0.31044 0.70555,0.45155 1.18533,0.39511 0.0282,-0.22578 0,-0.39511 -0.0282,-0.56445 -0.0847,-0.254 -0.19756,-0.47977 -0.36689,-0.64911 l 0.42333,-0.45155 c 0.45156,-0.45156 0.62089,-1.12889 0.47978,-1.72156 -0.0847,-0.31044 -0.22578,-0.53622 -0.45156,-0.79022 z m -1.778,17.46954 v -0.0282 c 0,-0.36689 -0.28222,-0.64912 -0.64911,-0.64912 h -3.10444 c -1.86266,0 -3.35844,-1.46755 -3.35844,-3.33022 v -6.01132 h 7.36599 c 1.10067,0 2.00378,0.87488 2.00378,2.00377 0,0.36689 0.28222,0.64911 0.64911,0.64911 0.33867,0 0.64911,-0.28222 0.64911,-0.64911 0,-1.80622 -1.49577,-3.27377 -3.302,-3.27377 h -8.66421 v 7.28132 c 0,1.69334 0.95955,3.18911 2.34244,4.00756 -1.38289,0.79022 -2.34244,2.286 -2.34244,3.97933 v 7.28133 h 8.66421 c 1.80623,0 3.302,-1.46756 3.302,-3.27378 0,-0.36689 -0.31044,-0.64911 -0.64911,-0.64911 -0.36689,0 -0.64911,0.28222 -0.64911,0.64911 0,1.12889 -0.90311,2.00378 -2.00378,2.00378 h -7.36599 v -6.01133 c 0,-1.86267 1.49578,-3.35844 3.35844,-3.35844 h 3.10444 c 0.36689,0 0.64911,-0.254 0.64911,-0.62089 z m -2.99155,-14.59088 -0.56444,0.762 c -0.42334,0.56444 -0.84667,0.762 -1.27,0.98778 -0.45156,0.22577 -1.04422,0.33866 -2.00378,0.33866 -0.33866,0 -0.59266,0.19756 -0.59266,0.42334 0,0.254 0.254,0.47977 0.59266,0.47977 1.12889,0 2.08845,-0.254 2.794,-0.62089 0.39511,-0.22577 0.73378,-0.50799 1.04422,-0.81844 0.31045,0.31045 0.62089,0.59267 1.04422,0.81844 0.70556,0.36689 1.63689,0.62089 2.76578,0.62089 0.36689,0 0.59267,-0.22577 0.59267,-0.47977 0,-0.22578 -0.22578,-0.42334 -0.59267,-0.42334 -0.93133,0 -1.524,-0.11289 -1.97556,-0.33866 -0.45155,-0.22578 -0.84666,-0.42334 -1.29822,-0.98778 z m 14.0758,-4.572 -1.72156,0.95956 c -0.62088,0.36689 -0.95955,1.04422 -0.95955,1.72155 0,0.33867 0.0564,0.64911 0.22578,0.95956 l 1.10066,-0.64911 c -0.0564,-0.11289 -0.0564,-0.22578 -0.0564,-0.31045 0,-0.254 0.11289,-0.45155 0.33867,-0.59266 l 0.59266,-0.33867 0.33867,0.59267 c 0.0564,0.11288 0.0847,0.22577 0.0847,0.33866 0,0.254 -0.11288,0.45156 -0.33866,0.59267 l -1.69333,0.98778 c 0,0 0.42333,0.73377 0.64911,1.12888 0.22577,0.39511 0.64911,0.67734 1.18533,0.762 0.0847,-0.22577 0.11289,-0.42333 0.11289,-0.62089 0,-0.28222 -0.0565,-0.56444 -0.19756,-0.79022 l 0.59267,-0.36689 c 0.62089,-0.36688 0.98778,-1.04422 0.98778,-1.72155 0,-0.33867 -0.0847,-0.64911 -0.254,-0.95955 z m -0.254,7.84578 c -0.36689,0 -0.64911,0.25399 -0.64911,0.64911 0,1.10066 -0.90311,2.00377 -2.00378,2.00377 -0.36689,0 -0.64911,0.28222 -0.64911,0.64911 0,0.36689 0.28222,0.64911 0.64911,0.64911 0.762,0 1.43933,-0.28222 2.00378,-0.70555 v 16.05843 c 0,1.12889 -0.90311,2.00378 -2.00378,2.00378 -0.36689,0 -0.64911,0.31044 -0.64911,0.64911 0,0.36689 0.28222,0.62089 0.64911,0.62089 1.80622,0 3.302,-1.46756 3.302,-3.27378 v -18.65487 -0.0282 c 0,-0.33866 -0.28222,-0.62088 -0.64911,-0.62088 z m 12.04385,-5.39045 -1.12889,1.10067 c -0.39511,0.42333 -0.53622,1.016 -0.39511,1.524 0.0847,0.254 0.19756,0.47978 0.39511,0.70555 l 0.70556,-0.73377 c -0.0565,-0.0847 -0.0847,-0.16934 -0.11289,-0.22578 -0.0564,-0.19756 0,-0.36689 0.14111,-0.53622 l 0.39511,-0.39511 0.36689,0.39511 c 0.0847,0.0847 0.11289,0.16933 0.14111,0.254 0.0564,0.19755 0,0.36689 -0.14111,0.53622 l -1.10067,1.10067 c 0,0 0.47978,0.47977 0.73378,0.73377 0.254,0.254 0.64911,0.39511 1.07244,0.33867 0.0282,-0.16933 0,-0.33867 -0.0282,-0.47978 -0.0564,-0.22578 -0.16933,-0.42333 -0.31044,-0.59266 l 0.36689,-0.39512 c 0.39511,-0.42333 0.56444,-1.01599 0.42333,-1.52399 -0.0847,-0.28223 -0.19756,-0.508 -0.39511,-0.70556 z m -0.93133,5.39045 c -3.27378,0 -5.95489,2.6811 -5.95489,5.9831 v 16.59466 h 5.95489 c 3.302,0 5.9831,-2.65289 5.9831,-5.95489 v -16.62287 z m 0,1.29822 h 4.68488 v 15.32465 c 0,2.59644 -2.08844,4.68489 -4.68488,4.68489 h -4.68489 v -15.32466 c 0,-2.59644 2.08845,-4.68488 4.68489,-4.68488 z m 20.70803,-7.42244 -1.12889,1.10066 c -0.42333,0.42334 -0.53622,1.016 -0.39511,1.524 0.0564,0.254 0.16933,0.47978 0.36689,0.70556 l 0.70555,-0.73378 c -0.0564,-0.0847 -0.0847,-0.16933 -0.0847,-0.22578 -0.0564,-0.19755 -0.0282,-0.36689 0.14111,-0.53622 l 0.36689,-0.39511 0.39511,0.39511 c 0.0564,0.0847 0.11289,0.16933 0.14111,0.254 0.0564,0.19756 0,0.36689 -0.14111,0.53622 l -1.10067,1.10067 c 0,0 0.47978,0.47978 0.73378,0.73378 0.254,0.254 0.62089,0.39511 1.07244,0.33866 0,-0.16933 0,-0.33866 -0.0564,-0.47978 -0.0565,-0.22577 -0.14111,-0.42333 -0.31045,-0.59266 l 0.39511,-0.39511 c 0.39512,-0.42334 0.53623,-1.016 0.39512,-1.524 -0.0565,-0.28222 -0.19756,-0.508 -0.39512,-0.70556 z m -4.43089,6.12422 c -3.27377,0 -5.95488,2.6811 -5.95488,5.9831 v 16.59466 h 5.95488 c 3.302,0 5.98311,-2.65289 5.98311,-5.95489 v -16.62287 z m 0,1.29822 h 4.68489 v 15.32465 c 0,2.59644 -2.08844,4.68489 -4.68489,4.68489 h -4.68488 v -15.32466 c 0,-2.59644 2.08844,-4.68488 4.68488,-4.68488 z m 0.39511,-4.62844 -0.56444,0.76199 c -0.42333,0.56445 -0.84667,0.762 -1.27,0.98778 -0.45155,0.22578 -1.04422,0.33867 -2.00378,0.33867 -0.33866,0 -0.59266,0.19755 -0.59266,0.42333 0,0.254 0.254,0.47978 0.59266,0.47978 1.12889,0 2.08845,-0.254 2.794,-0.62089 0.39511,-0.22578 0.73378,-0.508 1.04422,-0.81844 0.31045,0.31044 0.62089,0.59266 1.04423,0.81844 0.70555,0.36689 1.63688,0.62089 2.76577,0.62089 0.36689,0 0.59267,-0.22578 0.59267,-0.47978 0,-0.22578 -0.22578,-0.42333 -0.59267,-0.42333 -0.93133,0 -1.524,-0.11289 -1.97555,-0.33867 -0.45156,-0.22578 -0.84667,-0.42333 -1.29822,-0.98778 z m 16.10782,-2.17311 -1.12889,1.10066 c -0.39511,0.42333 -0.53622,1.016 -0.39511,1.524 0.0847,0.254 0.19755,0.47978 0.39511,0.70556 l 0.70555,-0.73378 c -0.0564,-0.0847 -0.0847,-0.16933 -0.11289,-0.22578 -0.0564,-0.19755 0,-0.36689 0.14112,-0.53622 l 0.39511,-0.39511 0.36688,0.39511 c 0.0847,0.0847 0.11289,0.16933 0.14112,0.254 0.0564,0.19755 0,0.36689 -0.14112,0.53622 l -1.10066,1.10067 c 0,0 0.47978,0.47977 0.73378,0.73377 0.254,0.254 0.64911,0.39511 1.07244,0.33867 0.0282,-0.16933 0,-0.33867 -0.0282,-0.47978 -0.0564,-0.22577 -0.16934,-0.42333 -0.31045,-0.59266 l 0.36689,-0.39511 c 0.39511,-0.42334 0.56445,-1.016 0.42333,-1.524 -0.0847,-0.28223 -0.19755,-0.508 -0.39511,-0.70556 z m -0.22578,6.80155 h 4.68488 v 15.32465 c 0,2.59644 -2.08844,4.68489 -4.68488,4.68489 h -4.68489 v -15.32466 c 0,-2.59644 2.08845,-4.68488 4.68489,-4.68488 z m 5.30577,-4.064 c -1.07244,0 -1.97555,0.90311 -1.97555,1.97555 h 1.18533 c 0,-0.39511 0.39511,-0.79022 0.79022,-0.79022 h 0.79022 v 0.79022 c 0,0.39511 -0.39511,0.79023 -0.79022,0.79023 h -5.30577 c -3.27378,0 -5.95489,2.6811 -5.95489,5.9831 v 16.59466 h 5.95489 c 3.302,0 5.9831,-2.65289 5.9831,-5.95489 v -15.55043 c 0.73378,-0.28222 1.29823,-1.016 1.29823,-1.86267 v -1.97555 z m 11.31005,-1.94733 -1.12889,1.10066 c -0.39511,0.42334 -0.53622,1.016 -0.39511,1.524 0.0847,0.254 0.19755,0.47978 0.39511,0.70556 l 0.70555,-0.73378 c -0.0564,-0.0847 -0.0847,-0.16933 -0.11288,-0.22578 -0.0565,-0.19755 0,-0.36689 0.14111,-0.53622 l 0.39511,-0.39511 0.36689,0.39511 c 0.0847,0.0847 0.11289,0.16933 0.14111,0.254 0.0564,0.19756 0,0.36689 -0.14111,0.53622 l -1.10067,1.10067 c 0,0 0.47978,0.47978 0.73378,0.73378 0.254,0.254 0.64911,0.39511 1.07244,0.33866 0.0282,-0.16933 0,-0.33866 -0.0282,-0.47978 -0.0564,-0.22577 -0.16933,-0.42333 -0.31044,-0.59266 l 0.36688,-0.39511 c 0.39511,-0.42334 0.56445,-1.016 0.42334,-1.524 -0.0847,-0.28222 -0.19756,-0.508 -0.39511,-0.70556 z m -5.64444,4.71311 c -0.33867,0 -0.64911,0.28222 -0.64911,0.64911 v 15.94554 c 0,3.302 2.70933,5.98311 6.01133,5.98311 h 5.95488 v -21.92865 c 0,-0.36689 -0.31044,-0.64911 -0.64911,-0.64911 -0.36689,0 -0.64911,0.28222 -0.64911,0.64911 v 20.65865 h -4.65666 c -2.59645,0 -4.71311,-2.08845 -4.71311,-4.71311 v -15.94554 c 0,-0.36689 -0.28222,-0.64911 -0.64911,-0.64911 z m 21.07489,-5.87022 -1.41111,1.38289 c -0.508,0.50799 -0.67733,1.24177 -0.508,1.9191 0.11289,0.31045 0.22578,0.59267 0.47978,0.84667 l 0.90311,-0.90311 c -0.0847,-0.0847 -0.11289,-0.19755 -0.14111,-0.28222 -0.0564,-0.254 0,-0.45156 0.16933,-0.64911 l 0.47978,-0.47978 0.47978,0.47978 c 0.0847,0.0847 0.14111,0.19755 0.16933,0.31044 0.0847,0.22578 0.0282,0.45156 -0.16933,0.64911 l -1.38289,1.38289 c 0,0 0.59267,0.62089 0.93133,0.93133 0.31045,0.31045 0.79022,0.47978 1.32645,0.42334 0.0282,-0.22578 0,-0.42334 -0.0282,-0.62089 -0.0847,-0.28222 -0.22577,-0.53622 -0.39511,-0.70556 l 0.45156,-0.508 c 0.508,-0.53622 0.70555,-1.27 0.508,-1.91911 -0.0847,-0.33866 -0.22578,-0.62089 -0.47978,-0.87488 z m -4.76955,5.87022 c -0.33866,0 -0.64911,0.28222 -0.64911,0.64911 v 15.94554 c 0,3.302 2.70933,5.98311 6.01133,5.98311 h 5.95488 v -21.50532 c 0.762,-0.254 1.32645,-1.016 1.32645,-1.86267 v -1.97555 h -1.97556 c -1.07244,0 -1.97555,0.90311 -1.97555,1.97555 h 1.18533 c 0,-0.39511 0.39511,-0.79022 0.79022,-0.79022 h 0.79022 v 0.79022 c 0,0.39511 -0.39511,0.79023 -0.79022,0.79023 -0.36689,0 -0.64911,0.28222 -0.64911,0.64911 v 20.65865 h -4.65666 c -2.59644,0 -4.71311,-2.08845 -4.71311,-4.71311 v -15.94554 c 0,-0.36689 -0.28222,-0.64911 -0.64911,-0.64911 z m 21.83691,-5.64445 -1.41111,1.38289 c -0.508,0.508 -0.67733,1.27 -0.508,1.91911 0.11289,0.31045 0.22578,0.59267 0.47978,0.87489 l 0.90311,-0.93133 c -0.0847,-0.0847 -0.11289,-0.19756 -0.14111,-0.28222 -0.0564,-0.254 0,-0.45156 0.16933,-0.64911 l 0.47978,-0.47978 0.47978,0.47978 c 0.0847,0.0847 0.14111,0.19755 0.16933,0.31044 0.0847,0.22578 0.0282,0.45155 -0.16933,0.64911 l -1.38289,1.38289 c 0,0 0.59267,0.62089 0.93133,0.93133 0.31045,0.33867 0.79022,0.47978 1.32645,0.42333 0.0282,-0.22577 0,-0.42333 -0.0282,-0.62088 -0.0847,-0.28223 -0.22577,-0.53623 -0.39511,-0.70556 l 0.45156,-0.508 c 0.508,-0.508 0.70555,-1.27 0.508,-1.91911 -0.0847,-0.33867 -0.22578,-0.62089 -0.47978,-0.87489 z m -5.53155,5.64445 c -0.36689,0 -0.64911,0.28222 -0.64911,0.64911 v 5.27755 c 0,3.33022 2.70933,6.01133 6.01133,6.01133 h 4.65666 v 4.68488 c 0,2.59644 -2.08844,4.68489 -4.68488,4.68489 -0.36689,0 -0.64911,0.31044 -0.64911,0.64911 0,0.36689 0.28222,0.62089 0.64911,0.62089 3.27377,0 5.9831,-2.65289 5.9831,-5.95489 v -15.97376 c 0,-0.36689 -0.31044,-0.64911 -0.64911,-0.64911 -0.36689,0 -0.64911,0.28222 -0.64911,0.64911 v 9.99065 h -4.65666 c -2.59644,0 -4.71311,-2.08844 -4.71311,-4.7131 v -5.27755 c 0,-0.36689 -0.28222,-0.64911 -0.64911,-0.64911 z"
         id="path36" />
      <path
         style="font-weight:bold;font-family:'Leaf Tech';-inkscape-font-specification:'Leaf Tech Bold';text-align:center;text-anchor:middle"
         d="m 48.868285,212.26856 c 0.310444,0 0.564444,-0.16933 0.620888,-0.42333 0.08467,-0.28222 0.338667,-0.47978 0.620889,-0.47978 0.05644,0 0.141111,0 0.197555,0.0282 l 2.483554,0.84666 c 0.169333,0.0564 0.338666,0.0564 0.536222,0.0564 0.846666,0 1.665109,-0.508 1.890887,-1.32645 0.02822,-0.0564 0.02822,-0.11289 0.02822,-0.14111 0,-0.31044 -0.254,-0.59266 -0.64911,-0.59266 -0.282222,0 -0.536222,0.16933 -0.620889,0.42333 -0.08467,0.28222 -0.338666,0.45155 -0.64911,0.45155 -0.05645,0 -0.112889,0 -0.169334,0 l -2.455331,-0.87488 c -0.197556,-0.0282 -0.366889,-0.0565 -0.564444,-0.0565 -0.874888,0 -1.66511,0.53622 -1.890888,1.32644 0,0.0564 -0.02822,0.11289 -0.02822,0.16934 0,0.31044 0.282222,0.59266 0.649111,0.59266 z m 2.483554,0.67734 c -3.273776,0 -5.954885,2.65288 -5.954885,5.95488 v 5.334 3.97933 6.66044 c 0,0.36688 0.282222,0.62088 0.620889,0.62088 0.366888,0 0.64911,-0.254 0.64911,-0.62088 v -6.66044 c 0,-1.86267 1.495777,-3.35845 3.358442,-3.35845 h 2.652887 c 1.326443,0 2.511776,-0.56444 3.358442,-1.43933 v 0.81845 7.98688 c 0,1.12889 -0.874888,2.00378 -2.003776,2.00378 -0.366889,0 -0.649111,0.31044 -0.649111,0.64911 0,0.36688 0.282222,0.62088 0.649111,0.62088 1.80622,0 3.301997,-1.46755 3.301997,-3.27377 v -7.98688 -4.00756 -1.32644 -5.95488 z m 0,1.27 h 4.684885 v 4.68488 1.32644 c 0,1.86267 -1.495777,3.33022 -3.358442,3.33022 h -2.652887 c -1.326443,0 -2.511776,0.59267 -3.358442,1.46756 v -0.79022 -5.334 c 0,-2.59644 2.088443,-4.68488 4.684886,-4.68488 z m 14.612037,-4.28978 c 0.282222,0 0.536222,-0.19755 0.592666,-0.47978 0.08467,-0.28222 0.338667,-0.508 0.592666,-0.508 0.08467,0 0.141111,0.0282 0.197556,0.0282 l 2.398887,0.93133 c 0.169333,0.0564 0.338666,0.0564 0.507999,0.0564 0.818444,0 1.608666,-0.53622 1.834443,-1.41111 0.02822,-0.0564 0.02822,-0.11289 0.02822,-0.16933 0,-0.33867 -0.254,-0.64911 -0.620889,-0.64911 -0.282222,0 -0.536222,0.19755 -0.620888,0.47978 -0.05644,0.31044 -0.310444,0.47977 -0.620889,0.47977 -0.05644,0 -0.112888,0 -0.169333,0 l -2.370665,-0.93133 c -0.169333,-0.0564 -0.338666,-0.0847 -0.536221,-0.0847 -0.846666,0 -1.580444,0.59267 -1.806221,1.43934 0,0.0564 -0.02822,0.11289 -0.02822,0.16933 0,0.33867 0.253999,0.64911 0.620888,0.64911 z m 1.66511,3.01978 c -3.273775,0 -5.954884,2.65288 -5.954884,5.95488 v 5.334 3.97933 6.66044 c 0,0.36688 0.282222,0.62088 0.620888,0.62088 0.366889,0 0.649111,-0.254 0.649111,-0.62088 v -6.66044 c 0,-1.86267 1.495776,-3.35845 3.358441,-3.35845 h 2.652887 c 1.326444,0 2.511776,-0.56444 3.358442,-1.43933 v 0.81845 7.98688 c 0,1.12889 -0.874888,2.00378 -2.003776,2.00378 -0.366889,0 -0.649111,0.31044 -0.649111,0.64911 0,0.36688 0.282222,0.62088 0.649111,0.62088 1.806221,0 3.301997,-1.46755 3.301997,-3.27377 v -7.98688 -4.00756 -1.32644 -5.95488 z m 0,1.27 h 4.684885 v 4.68488 1.32644 c 0,1.86267 -1.495777,3.33022 -3.358442,3.33022 h -2.652887 c -1.326443,0 -2.511775,0.59267 -3.358441,1.46756 v -0.79022 -5.334 c 0,-2.59644 2.088442,-4.68488 4.684885,-4.68488 z m 0.395111,-4.572 -0.564444,0.762 c -0.423333,0.56444 -0.846666,0.762 -1.269999,0.98778 -0.451556,0.22577 -1.044222,0.33866 -2.003777,0.33866 -0.338666,0 -0.592666,0.19756 -0.592666,0.42333 0,0.254 0.254,0.47978 0.592666,0.47978 1.128888,0 2.088443,-0.254 2.793998,-0.62089 0.395111,-0.22577 0.733777,-0.508 1.044222,-0.81844 0.310444,0.31044 0.620888,0.59267 1.044221,0.81844 0.705555,0.36689 1.636888,0.62089 2.765776,0.62089 0.366888,0 0.592666,-0.22578 0.592666,-0.47978 0,-0.22577 -0.225778,-0.42333 -0.592666,-0.42333 -0.931333,0 -1.523999,-0.11289 -1.975554,-0.33866 -0.451556,-0.22578 -0.846666,-0.42334 -1.298222,-0.98778 z m 14.273371,0.87489 c 0.282222,0 0.507999,-0.16934 0.564444,-0.42334 0.08467,-0.254 0.310444,-0.45155 0.592666,-0.45155 0.05644,0 0.112889,0 0.169333,0.0282 l 2.285998,0.81844 c 0.141111,0.0565 0.310445,0.0565 0.479778,0.0565 0.790221,0 1.523999,-0.47978 1.749776,-1.27 0.02822,-0.0564 0.02822,-0.11289 0.02822,-0.16933 0,-0.28222 -0.253999,-0.56445 -0.620888,-0.56445 -0.254,0 -0.479777,0.16934 -0.564444,0.42334 -0.05644,0.28222 -0.310444,0.45155 -0.592666,0.45155 -0.05644,0 -0.112889,0 -0.141111,-0.0282 L 83.9908,208.57146 c -0.169334,-0.0565 -0.338667,-0.0847 -0.508,-0.0847 -0.818444,0 -1.523999,0.53622 -1.749776,1.29822 0,0.0564 -0.02822,0.11289 -0.02822,0.16933 0,0.28223 0.254,0.56445 0.592667,0.56445 z m 1.608665,2.42711 c -3.273775,0 -5.954884,2.65288 -5.954884,5.95488 v 5.334 3.97933 6.66044 c 0,0.36688 0.282222,0.62088 0.620888,0.62088 0.366889,0 0.649111,-0.254 0.649111,-0.62088 v -6.66044 c 0,-1.86267 1.495776,-3.35845 3.358442,-3.35845 h 2.652887 c 1.326443,0 2.511775,-0.56444 3.358441,-1.43933 v 0.81845 7.98688 c 0,1.12889 -0.874888,2.00378 -2.003776,2.00378 -0.366888,0 -0.64911,0.31044 -0.64911,0.64911 0,0.36688 0.282222,0.62088 0.64911,0.62088 1.806221,0 3.301998,-1.46755 3.301998,-3.27377 v -7.98688 -4.00756 -1.32644 -5.95488 z m 0,1.27 h 4.684885 v 4.68488 1.32644 c 0,1.86267 -1.495776,3.33022 -3.358441,3.33022 H 82.57969 c -1.326444,0 -2.511776,0.59267 -3.358442,1.46756 v -0.79022 -5.334 c 0,-2.59644 2.088443,-4.68488 4.684885,-4.68488 z m -3.951108,-3.21734 c 0,0.14112 0.05644,0.254 0.169333,0.33867 0.959555,0.67733 2.088443,1.10067 4.261553,1.10067 2.173109,0 3.273775,-0.42334 4.23333,-1.10067 0.112888,-0.0847 0.169333,-0.19755 0.169333,-0.33867 0,-0.254 -0.141111,-0.508 -0.508,-0.508 -0.169333,0 -0.254,0.0847 -0.395111,0.16934 -0.846666,0.59266 -1.523998,0.90311 -3.499552,0.90311 -2.003777,0 -2.709332,-0.31045 -3.555998,-0.90311 -0.112889,-0.0847 -0.225777,-0.16934 -0.395111,-0.16934 -0.338666,0 -0.479777,0.254 -0.479777,0.508 z m 17.010923,1.38289 c 0.282222,0 0.536221,-0.16933 0.564444,-0.42333 0.08467,-0.28222 0.338666,-0.45156 0.592666,-0.45156 0.05644,0 0.112889,0 0.169333,0 l 2.285999,0.84667 c 0.16933,0.0564 0.33867,0.0564 0.47978,0.0564 0.81844,0 1.55222,-0.47977 1.778,-1.29822 0.0282,-0.0564 0.0282,-0.11289 0.0282,-0.14111 0,-0.31044 -0.254,-0.59266 -0.62089,-0.59266 -0.254,0 -0.47978,0.16933 -0.56444,0.42333 -0.0565,0.28222 -0.31045,0.45155 -0.59267,0.45155 -0.0564,0 -0.11289,0 -0.16933,0 l -2.25778,-0.84666 c -0.169334,-0.0565 -0.338667,-0.0847 -0.508,-0.0847 -0.818444,0 -1.523999,0.53622 -1.749776,1.32645 0,0.0564 -0.02822,0.11288 -0.02822,0.14111 0,0.31044 0.254,0.59266 0.592667,0.59266 z m 5.672662,11.85333 v -0.0282 c 0,-0.36688 -0.28222,-0.64911 -0.64911,-0.64911 h -3.104443 c -1.862665,0 -3.358442,-1.46755 -3.358442,-3.33022 v -6.01132 h 7.365995 c 1.10067,0 2.00378,0.87488 2.00378,2.00377 0,0.36689 0.28222,0.64911 0.64911,0.64911 0.33866,0 0.64911,-0.28222 0.64911,-0.64911 0,-1.80622 -1.49578,-3.27377 -3.302,-3.27377 h -8.664216 v 7.28132 c 0,1.69334 0.959555,3.18911 2.342443,4.00756 -1.382888,0.79022 -2.342443,2.28599 -2.342443,3.97933 v 7.28132 h 8.664216 c 1.80622,0 3.302,-1.46755 3.302,-3.27377 0,-0.36689 -0.31045,-0.64911 -0.64911,-0.64911 -0.36689,0 -0.64911,0.28222 -0.64911,0.64911 0,1.12889 -0.90311,2.00378 -2.00378,2.00378 h -7.365995 v -6.01133 c 0,-1.86267 1.495777,-3.35845 3.358442,-3.35845 h 3.104443 c 0.36689,0 0.64911,-0.25399 0.64911,-0.62088 z m 11.64869,-14.3651 c 0.254,0 0.45156,-0.16934 0.508,-0.39511 0.0847,-0.22578 0.28222,-0.39512 0.53622,-0.39512 0.0282,0 0.0847,0 0.14111,0 l 2.08845,0.762 c 0.14111,0.0564 0.28222,0.0564 0.42333,0.0564 0.73378,0 1.38289,-0.45156 1.58044,-1.18533 0.0282,-0.0282 0.0282,-0.0847 0.0282,-0.11289 0,-0.28222 -0.19756,-0.53622 -0.53623,-0.53622 -0.22577,0 -0.45155,0.16933 -0.508,0.39511 -0.0847,0.254 -0.31044,0.39511 -0.56444,0.39511 -0.0282,0 -0.0847,0 -0.14111,0 l -2.032,-0.762 c -0.16933,-0.0564 -0.31044,-0.0847 -0.47978,-0.0847 -0.73377,0 -1.38288,0.508 -1.58044,1.21356 0,0.0282 0,0.0847 0,0.11288 0,0.28223 0.22578,0.53623 0.53622,0.53623 z m 4.65666,14.3651 v -0.0282 c 0,-0.36688 -0.28222,-0.64911 -0.64911,-0.64911 h -3.10444 c -1.86266,0 -3.35844,-1.46755 -3.35844,-3.33022 v -6.01132 h 7.36599 c 1.10067,0 2.00378,0.87488 2.00378,2.00377 0,0.36689 0.28222,0.64911 0.64911,0.64911 0.33867,0 0.64911,-0.28222 0.64911,-0.64911 0,-1.80622 -1.49577,-3.27377 -3.302,-3.27377 h -8.66421 v 7.28132 c 0,1.69334 0.95955,3.18911 2.34244,4.00756 -1.38289,0.79022 -2.34244,2.28599 -2.34244,3.97933 v 7.28132 h 8.66421 c 1.80623,0 3.302,-1.46755 3.302,-3.27377 0,-0.36689 -0.31044,-0.64911 -0.64911,-0.64911 -0.36689,0 -0.64911,0.28222 -0.64911,0.64911 0,1.12889 -0.90311,2.00378 -2.00378,2.00378 h -7.36599 v -6.01133 c 0,-1.86267 1.49578,-3.35845 3.35844,-3.35845 h 3.10444 c 0.36689,0 0.64911,-0.25399 0.64911,-0.62088 z m -2.99155,-14.59088 -0.56444,0.762 c -0.42334,0.56444 -0.84667,0.762 -1.27,0.98778 -0.45156,0.22577 -1.04422,0.33866 -2.00378,0.33866 -0.33866,0 -0.59266,0.19756 -0.59266,0.42333 0,0.254 0.254,0.47978 0.59266,0.47978 1.12889,0 2.08845,-0.254 2.794,-0.62089 0.39511,-0.22577 0.73378,-0.508 1.04422,-0.81844 0.31045,0.31044 0.62089,0.59267 1.04422,0.81844 0.70556,0.36689 1.63689,0.62089 2.76578,0.62089 0.36689,0 0.59267,-0.22578 0.59267,-0.47978 0,-0.22577 -0.22578,-0.42333 -0.59267,-0.42333 -0.93133,0 -1.524,-0.11289 -1.97556,-0.33866 -0.45155,-0.22578 -0.84666,-0.42334 -1.29822,-0.98778 z m 10.94313,1.55222 c 0.31045,0 0.56445,-0.19756 0.62089,-0.47978 0.0847,-0.31044 0.33867,-0.508 0.62089,-0.508 0.0565,0 0.14111,0 0.19756,0.0282 l 2.48355,0.93133 c 0.16933,0.0564 0.33867,0.0564 0.53622,0.0564 0.84667,0 1.66511,-0.53622 1.89089,-1.43933 0.0282,-0.0564 0.0282,-0.11289 0.0282,-0.16933 0,-0.33867 -0.254,-0.64911 -0.64911,-0.64911 -0.28222,0 -0.53622,0.19755 -0.62089,0.47977 -0.0847,0.31045 -0.33866,0.508 -0.64911,0.508 -0.0564,0 -0.11289,-0.0282 -0.16933,-0.0282 l -2.45533,-0.93133 c -0.19756,-0.0564 -0.36689,-0.0847 -0.56445,-0.0847 -0.87488,0 -1.66511,0.59267 -1.89088,1.46756 0,0.0564 -0.0282,0.11288 -0.0282,0.16933 0,0.33867 0.28223,0.64911 0.64911,0.64911 z m 2.87867,1.72155 c -0.36689,0 -0.64911,0.254 -0.64911,0.64911 0,1.10067 -0.90311,2.00378 -2.00378,2.00378 -0.36689,0 -0.64911,0.28222 -0.64911,0.64911 0,0.36689 0.28222,0.64911 0.64911,0.64911 0.762,0 1.43933,-0.28222 2.00378,-0.70555 v 16.05843 c 0,1.12889 -0.90311,2.00378 -2.00378,2.00378 -0.36689,0 -0.64911,0.31044 -0.64911,0.64911 0,0.36688 0.28222,0.62088 0.64911,0.62088 1.80622,0 3.302,-1.46755 3.302,-3.27377 v -18.65488 -0.0282 c 0,-0.33866 -0.28222,-0.62089 -0.64911,-0.62089 z m 8.91119,-0.59266 c 0.28222,0 0.508,-0.16934 0.56444,-0.39511 0.0564,-0.22578 0.28222,-0.39511 0.53622,-0.39511 0.0565,0 0.11289,0 0.16934,0.0282 l 2.20133,0.73378 c 0.14111,0.0564 0.28222,0.0564 0.45155,0.0564 0.762,0 1.46756,-0.45156 1.66511,-1.15711 0.0282,-0.0564 0.0282,-0.0847 0.0282,-0.14111 0,-0.254 -0.22577,-0.508 -0.56444,-0.508 -0.254,0 -0.47978,0.14111 -0.56444,0.36689 -0.0565,0.254 -0.28223,0.42333 -0.56445,0.42333 -0.0564,0 -0.0847,-0.0282 -0.14111,-0.0282 l -2.17311,-0.73378 c -0.14111,-0.0564 -0.31044,-0.0847 -0.47978,-0.0847 -0.79022,0 -1.46755,0.47978 -1.66511,1.18534 0,0.0282 -0.0282,0.0847 -0.0282,0.14111 0,0.254 0.254,0.508 0.56445,0.508 z m 2.20133,0.59266 c -3.27378,0 -5.95489,2.68111 -5.95489,5.98311 v 16.59465 h 5.95489 c 3.302,0 5.9831,-2.65288 5.9831,-5.95488 v -16.62288 z m 0,1.29823 h 4.68488 v 15.32465 c 0,2.59644 -2.08844,4.68489 -4.68488,4.68489 h -4.68489 v -15.32466 c 0,-2.59644 2.08845,-4.68488 4.68489,-4.68488 z m 14.07581,-4.51556 c 0.31045,0 0.53622,-0.19755 0.59267,-0.45155 0.0847,-0.28222 0.33866,-0.47978 0.62089,-0.47978 0.0564,0 0.11288,0 0.16933,0.0282 l 2.39889,0.87489 c 0.16933,0.0564 0.33866,0.0564 0.508,0.0564 0.84666,0 1.60866,-0.508 1.86266,-1.35467 0.0282,-0.0564 0.0282,-0.11289 0.0282,-0.16933 0,-0.31045 -0.254,-0.62089 -0.64911,-0.62089 -0.254,0 -0.508,0.19755 -0.59266,0.45155 -0.0565,0.31045 -0.33867,0.47978 -0.62089,0.47978 -0.0565,0 -0.11289,0 -0.16934,-0.0282 l -2.37066,-0.87489 c -0.19756,-0.0564 -0.36689,-0.0847 -0.53622,-0.0847 -0.87489,0 -1.60867,0.56445 -1.83444,1.41111 0,0.0282 -0.0282,0.0847 -0.0282,0.14111 0,0.33867 0.254,0.62089 0.62089,0.62089 z m 2.20133,3.21733 c -3.27377,0 -5.95488,2.68111 -5.95488,5.98311 v 16.59465 h 5.95488 c 3.302,0 5.98311,-2.65288 5.98311,-5.95488 v -16.62288 z m 0,1.29823 h 4.68489 v 15.32465 c 0,2.59644 -2.08844,4.68489 -4.68489,4.68489 h -4.68488 v -15.32466 c 0,-2.59644 2.08844,-4.68488 4.68488,-4.68488 z m 0.39511,-4.62845 -0.56444,0.762 c -0.42333,0.56445 -0.84667,0.762 -1.27,0.98778 -0.45155,0.22578 -1.04422,0.33867 -2.00378,0.33867 -0.33866,0 -0.59266,0.19755 -0.59266,0.42333 0,0.254 0.254,0.47978 0.59266,0.47978 1.12889,0 2.08845,-0.254 2.794,-0.62089 0.39511,-0.22578 0.73378,-0.508 1.04422,-0.81844 0.31045,0.31044 0.62089,0.59266 1.04423,0.81844 0.70555,0.36689 1.63688,0.62089 2.76577,0.62089 0.36689,0 0.59267,-0.22578 0.59267,-0.47978 0,-0.22578 -0.22578,-0.42333 -0.59267,-0.42333 -0.93133,0 -1.524,-0.11289 -1.97555,-0.33867 -0.45156,-0.22578 -0.84667,-0.42333 -1.29822,-0.98778 z m 12.66471,1.778 c 0.254,0 0.45155,-0.16933 0.508,-0.39511 0.0564,-0.22578 0.28222,-0.39511 0.508,-0.39511 0.0564,0 0.11289,0 0.14111,0.0282 l 2.06022,0.73378 c 0.14111,0.0564 0.28222,0.0564 0.42333,0.0564 0.70556,0 1.35467,-0.45156 1.55222,-1.15711 0.0282,-0.0565 0.0282,-0.0847 0.0282,-0.14112 0,-0.254 -0.22577,-0.508 -0.53622,-0.508 -0.22577,0 -0.45155,0.14112 -0.508,0.36689 -0.0564,0.254 -0.28222,0.42334 -0.53622,0.42334 -0.0564,0 -0.0847,-0.0282 -0.14111,-0.0282 l -2.00378,-0.73377 c -0.14111,-0.0564 -0.31044,-0.0847 -0.45155,-0.0847 -0.73378,0 -1.35467,0.47978 -1.55222,1.18533 0,0.0282 -0.0282,0.0847 -0.0282,0.14111 0,0.254 0.22577,0.508 0.53622,0.508 z m 3.21733,2.85045 h 4.68488 v 15.32465 c 0,2.59644 -2.08844,4.68489 -4.68488,4.68489 h -4.68489 v -15.32466 c 0,-2.59644 2.08845,-4.68488 4.68489,-4.68488 z m 5.30577,-4.064 c -1.07244,0 -1.97555,0.90311 -1.97555,1.97555 h 1.18533 c 0,-0.39511 0.39511,-0.79022 0.79022,-0.79022 h 0.79022 v 0.79022 c 0,0.39511 -0.39511,0.79022 -0.79022,0.79022 h -5.30577 c -3.27378,0 -5.95489,2.68111 -5.95489,5.98311 v 16.59465 h 5.95489 c 3.302,0 5.9831,-2.65288 5.9831,-5.95488 v -15.55043 c 0.73378,-0.28222 1.29823,-1.016 1.29823,-1.86267 v -1.97555 z m 8.60072,2.20133 c 0.254,0 0.47977,-0.16933 0.508,-0.39511 0.0847,-0.254 0.28222,-0.42333 0.53622,-0.42333 0.0564,0 0.11289,0 0.14111,0.0282 l 2.08844,0.762 c 0.14111,0.0564 0.28222,0.0564 0.42333,0.0564 0.73378,0 1.38289,-0.45155 1.58045,-1.18533 0.0282,-0.0564 0.0282,-0.0847 0.0282,-0.14111 0,-0.28222 -0.22578,-0.53622 -0.53622,-0.53622 -0.254,0 -0.45156,0.16933 -0.53622,0.39511 -0.0564,0.254 -0.28223,0.42333 -0.53623,0.42333 -0.0282,0 -0.0847,-0.0282 -0.14111,-0.0282 l -2.03199,-0.762 c -0.14112,-0.0565 -0.31045,-0.0847 -0.45156,-0.0847 -0.73378,0 -1.38289,0.508 -1.58044,1.21356 0,0.0564 -0.0282,0.0847 -0.0282,0.14111 0,0.28222 0.22578,0.53622 0.53623,0.53622 z m -2.93511,0.56444 c -0.33867,0 -0.64911,0.28223 -0.64911,0.64911 v 15.94555 c 0,3.302 2.70933,5.9831 6.01133,5.9831 h 5.95488 v -21.92865 c 0,-0.36688 -0.31044,-0.64911 -0.64911,-0.64911 -0.36689,0 -0.64911,0.28223 -0.64911,0.64911 v 20.65866 h -4.65666 c -2.59645,0 -4.71311,-2.08845 -4.71311,-4.71311 v -15.94555 c 0,-0.36688 -0.28222,-0.64911 -0.64911,-0.64911 z m 18.30912,-0.73377 c 0.28222,0 0.508,-0.16934 0.56444,-0.39511 0.0565,-0.22578 0.28222,-0.39511 0.53622,-0.39511 0.0564,0 0.11289,0 0.16934,0.0282 l 2.20133,0.73377 c 0.14111,0.0565 0.28222,0.0565 0.45155,0.0565 0.762,0 1.46756,-0.45156 1.66511,-1.15711 0.0282,-0.0565 0.0282,-0.0847 0.0282,-0.14111 0,-0.254 -0.22578,-0.508 -0.56445,-0.508 -0.254,0 -0.47978,0.14111 -0.56444,0.36689 -0.0565,0.254 -0.28222,0.42333 -0.56445,0.42333 -0.0564,0 -0.0847,-0.0282 -0.14111,-0.0282 l -2.17311,-0.73378 c -0.14111,-0.0564 -0.31044,-0.0847 -0.47977,-0.0847 -0.79023,0 -1.46756,0.47978 -1.66511,1.18534 0,0.0282 -0.0282,0.0847 -0.0282,0.14111 0,0.254 0.254,0.508 0.56445,0.508 z m -2.00378,0.73377 c -0.33866,0 -0.64911,0.28223 -0.64911,0.64911 v 15.94555 c 0,3.302 2.70933,5.9831 6.01133,5.9831 h 5.95488 v -21.50531 c 0.762,-0.254 1.32645,-1.016 1.32645,-1.86267 v -1.97555 h -1.97556 c -1.07244,0 -1.97555,0.90311 -1.97555,1.97555 h 1.18533 c 0,-0.39511 0.39511,-0.79022 0.79022,-0.79022 h 0.79022 v 0.79022 c 0,0.39511 -0.39511,0.79022 -0.79022,0.79022 -0.36689,0 -0.64911,0.28223 -0.64911,0.64911 v 20.65866 h -4.65666 c -2.59644,0 -4.71311,-2.08845 -4.71311,-4.71311 v -15.94555 c 0,-0.36688 -0.28222,-0.64911 -0.64911,-0.64911 z m 19.1558,-0.31044 c 0.28222,0 0.508,-0.16933 0.56445,-0.39511 0.0847,-0.254 0.31044,-0.42333 0.56444,-0.42333 0.0564,0 0.11289,0 0.16933,0.0282 l 2.22956,0.762 c 0.14111,0.0564 0.31044,0.0564 0.45155,0.0564 0.79022,0 1.49578,-0.45155 1.72156,-1.18533 0.0282,-0.0564 0.0282,-0.0847 0.0282,-0.14111 0,-0.28222 -0.254,-0.53622 -0.59267,-0.53622 -0.254,0 -0.47977,0.16933 -0.56444,0.39511 -0.0564,0.254 -0.31045,0.42333 -0.56444,0.42333 -0.0565,0 -0.11289,-0.0282 -0.16934,-0.0282 l -2.17311,-0.762 c -0.16933,-0.0564 -0.33866,-0.0847 -0.508,-0.0847 -0.79022,0 -1.49577,0.508 -1.69333,1.21356 0,0.0564 -0.0282,0.0847 -0.0282,0.14111 0,0.28222 0.254,0.53622 0.56444,0.53622 z m -2.85044,0.31044 c -0.36689,0 -0.64911,0.28223 -0.64911,0.64911 v 5.27756 c 0,3.33022 2.70933,6.01132 6.01133,6.01132 h 4.65666 v 4.68489 c 0,2.59644 -2.08844,4.68489 -4.68488,4.68489 -0.36689,0 -0.64911,0.31044 -0.64911,0.64911 0,0.36688 0.28222,0.62088 0.64911,0.62088 3.27377,0 5.9831,-2.65288 5.9831,-5.95488 v -15.97377 c 0,-0.36688 -0.31044,-0.64911 -0.64911,-0.64911 -0.36689,0 -0.64911,0.28223 -0.64911,0.64911 v 9.99066 h -4.65666 c -2.59644,0 -4.71311,-2.08844 -4.71311,-4.7131 v -5.27756 c 0,-0.36688 -0.28222,-0.64911 -0.64911,-0.64911 z"
         id="path37" />
      <path
         style="font-weight:bold;font-family:'Leaf Tech';-inkscape-font-specification:'Leaf Tech Bold';text-align:center;text-anchor:middle"
         d="m 51.154283,273.87763 c -0.423333,0 -0.818444,0.16933 -1.128888,0.47977 l -1.100666,1.10067 1.100666,1.10066 c 0.310444,0.31045 0.705555,0.47978 1.100666,0.47978 0.423333,0 0.818444,-0.16933 1.128888,-0.47978 l 1.128888,-1.10066 -1.128888,-1.10067 c -0.310444,-0.31044 -0.705555,-0.47977 -1.100666,-0.47977 z m 0,1.29822 c 0.05645,0 0.141111,0.0282 0.197556,0.0847 l 0.197555,0.19756 -0.197555,0.19755 c -0.112889,0.11289 -0.282222,0.11289 -0.395111,0 l -0.225778,-0.19755 0.225778,-0.19756 c 0.05644,-0.0564 0.112889,-0.0847 0.197555,-0.0847 z m 0.197556,-25.54109 c -3.273776,0 -5.954885,2.65288 -5.954885,5.95488 v 5.334 3.97933 6.66044 c 0,0.36688 0.282222,0.62088 0.620889,0.62088 0.366888,0 0.64911,-0.254 0.64911,-0.62088 v -6.66044 c 0,-1.86267 1.495777,-3.35845 3.358442,-3.35845 h 2.652887 c 1.326443,0 2.511776,-0.56444 3.358442,-1.43933 v 0.81845 7.98688 c 0,1.12889 -0.874888,2.00377 -2.003776,2.00377 -0.366889,0 -0.649111,0.31045 -0.649111,0.64912 0,0.36688 0.282222,0.62088 0.649111,0.62088 1.80622,0 3.301997,-1.46755 3.301997,-3.27377 v -7.98688 -4.00756 -1.32644 -5.95488 z m 0,1.26999 h 4.684885 v 4.68489 1.32644 c 0,1.86267 -1.495777,3.33022 -3.358442,3.33022 h -2.652887 c -1.326443,0 -2.511776,0.59267 -3.358442,1.46756 v -0.79022 -5.334 c 0,-2.59644 2.088443,-4.68489 4.684886,-4.68489 z m 16.728702,-4.57199 -0.564444,0.762 c -0.423333,0.56444 -0.846666,0.762 -1.269999,0.98777 -0.451555,0.22578 -1.044221,0.33867 -2.003776,0.33867 -0.338667,0 -0.592666,0.19756 -0.592666,0.42333 0,0.254 0.253999,0.47978 0.592666,0.47978 1.128888,0 2.088443,-0.254 2.793998,-0.62089 0.39511,-0.22577 0.733777,-0.508 1.044221,-0.81844 0.310444,0.31044 0.620888,0.59267 1.044221,0.81844 0.705555,0.36689 1.636888,0.62089 2.765776,0.62089 0.366889,0 0.592666,-0.22578 0.592666,-0.47978 0,-0.22577 -0.225777,-0.42333 -0.592666,-0.42333 -0.931333,0 -1.523999,-0.11289 -1.975554,-0.33867 -0.451555,-0.22577 -0.846666,-0.42333 -1.298221,-0.98777 z m -0.451555,3.302 c -3.273775,0 -5.954884,2.65288 -5.954884,5.95488 v 5.334 3.97933 6.66044 c 0,0.36688 0.282222,0.62088 0.620888,0.62088 0.366889,0 0.649111,-0.254 0.649111,-0.62088 v -6.66044 c 0,-1.86267 1.495776,-3.35845 3.358441,-3.35845 h 2.652887 c 1.326444,0 2.511776,-0.56444 3.358442,-1.43933 v 0.81845 7.98688 c 0,1.12889 -0.874888,2.00377 -2.003776,2.00377 -0.366889,0 -0.649111,0.31045 -0.649111,0.64912 0,0.36688 0.282222,0.62088 0.649111,0.62088 1.806221,0 3.301997,-1.46755 3.301997,-3.27377 v -7.98688 -4.00756 -1.32644 -5.95488 z m 0,1.26999 h 4.684885 v 4.68489 1.32644 c 0,1.86267 -1.495777,3.33022 -3.358442,3.33022 h -2.652887 c -1.326443,0 -2.511775,0.59267 -3.358441,1.46756 v -0.79022 -5.334 c 0,-2.59644 2.088442,-4.68489 4.684885,-4.68489 z m -0.197556,22.97288 c -0.423333,0 -0.818443,0.16933 -1.128888,0.47977 l -1.100665,1.10067 1.100665,1.10066 c 0.310445,0.31045 0.705555,0.47978 1.100666,0.47978 0.423333,0 0.818444,-0.16933 1.128888,-0.47978 l 1.128888,-1.10066 -1.128888,-1.10067 c -0.310444,-0.31044 -0.705555,-0.47977 -1.100666,-0.47977 z m 0,1.29822 c 0.05644,0 0.141111,0.0282 0.197556,0.0847 l 0.197555,0.19756 -0.197555,0.19755 c -0.112889,0.11289 -0.282222,0.11289 -0.395111,0 l -0.225778,-0.19755 0.225778,-0.19756 c 0.05644,-0.0564 0.112889,-0.0847 0.197555,-0.0847 z m 12.438928,-29.26642 c 0,0.19755 0.08467,0.33866 0.197556,0.45155 0.959555,0.95956 2.06022,1.55222 4.23333,1.55222 2.173109,0 3.273775,-0.59266 4.23333,-1.55222 0.112889,-0.11289 0.169333,-0.254 0.169333,-0.45155 0,-0.33867 -0.282222,-0.64912 -0.64911,-0.64912 -0.169334,0 -0.310445,0.0847 -0.451556,0.19756 -0.846666,0.84667 -1.326443,1.15711 -3.301997,1.15711 -2.003776,0 -2.483554,-0.31044 -3.33022,-1.15711 -0.112889,-0.11289 -0.282222,-0.19756 -0.451555,-0.19756 -0.338666,0 -0.649111,0.31045 -0.649111,0.64912 z m 4.035775,3.72533 c -3.273775,0 -5.954884,2.65288 -5.954884,5.95488 v 5.334 3.97933 6.66044 c 0,0.36688 0.282222,0.62088 0.620888,0.62088 0.366889,0 0.649111,-0.254 0.649111,-0.62088 v -6.66044 c 0,-1.86267 1.495776,-3.35845 3.358442,-3.35845 h 2.652887 c 1.326443,0 2.511775,-0.56444 3.358441,-1.43933 v 0.81845 7.98688 c 0,1.12889 -0.874888,2.00377 -2.003776,2.00377 -0.366888,0 -0.64911,0.31045 -0.64911,0.64912 0,0.36688 0.282222,0.62088 0.64911,0.62088 1.806221,0 3.301998,-1.46755 3.301998,-3.27377 v -7.98688 -4.00756 -1.32644 -5.95488 z m 0,1.26999 h 4.684885 v 4.68489 1.32644 c 0,1.86267 -1.495776,3.33022 -3.358441,3.33022 H 82.57969 c -1.326444,0 -2.511776,0.59267 -3.358442,1.46756 v -0.79022 -5.334 c 0,-2.59644 2.088443,-4.68489 4.684885,-4.68489 z m -0.197555,22.97288 c -0.423333,0 -0.818444,0.16933 -1.128888,0.47977 l -1.100666,1.10067 1.100666,1.10066 c 0.310444,0.31045 0.705555,0.47978 1.100665,0.47978 0.423333,0 0.818444,-0.16933 1.128889,-0.47978 l 1.128888,-1.10066 -1.128888,-1.10067 c -0.310445,-0.31044 -0.705556,-0.47977 -1.100666,-0.47977 z m 0,1.29822 c 0.05644,0 0.141111,0.0282 0.197555,0.0847 l 0.197555,0.19756 -0.197555,0.19755 c -0.112889,0.11289 -0.282222,0.11289 -0.395111,0 l -0.225777,-0.19755 0.225777,-0.19756 c 0.05644,-0.0564 0.112889,-0.0847 0.197556,-0.0847 z m 16.248923,-1.29822 c -0.423333,0 -0.818444,0.16933 -1.128888,0.47977 l -1.100666,1.10067 1.100666,1.10066 c 0.310444,0.31045 0.733777,0.47978 1.128888,0.47978 0.395109,0 0.818439,-0.16933 1.100669,-0.47978 l 1.12888,-1.10066 -1.12888,-1.10067 c -0.31045,-0.31044 -0.70556,-0.47977 -1.100669,-0.47977 z m 0,1.29822 c 0.05645,0 0.141109,0.0282 0.197559,0.0847 l 0.19755,0.19756 -0.19755,0.19755 c -0.11289,0.11289 -0.282226,0.11289 -0.395115,0 l -0.225777,-0.19755 0.225777,-0.19756 c 0.05644,-0.0564 0.112889,-0.0847 0.197556,-0.0847 z m 2.681109,-14.25221 v -0.0282 c 0,-0.36689 -0.28222,-0.64911 -0.64911,-0.64911 h -3.104443 c -1.862665,0 -3.358442,-1.46755 -3.358442,-3.33022 v -6.01133 h 7.365995 c 1.10067,0 2.00378,0.87489 2.00378,2.00378 0,0.36689 0.28222,0.64911 0.64911,0.64911 0.33866,0 0.64911,-0.28222 0.64911,-0.64911 0,-1.80622 -1.49578,-3.27377 -3.302,-3.27377 h -8.664216 v 7.28132 c 0,1.69334 0.959555,3.18911 2.342443,4.00756 -1.382888,0.79022 -2.342443,2.28599 -2.342443,3.97933 v 7.28132 h 8.664216 c 1.80622,0 3.302,-1.46755 3.302,-3.27377 0,-0.36689 -0.31045,-0.64911 -0.64911,-0.64911 -0.36689,0 -0.64911,0.28222 -0.64911,0.64911 0,1.12889 -0.90311,2.00377 -2.00378,2.00377 h -7.365995 v -6.01132 c 0,-1.86267 1.495777,-3.35845 3.358442,-3.35845 h 3.104443 c 0.36689,0 0.64911,-0.254 0.64911,-0.62088 z m 13.3138,-14.59088 -0.56444,0.762 c -0.42334,0.56444 -0.84667,0.762 -1.27,0.98777 -0.45156,0.22578 -1.04422,0.33867 -2.00378,0.33867 -0.33866,0 -0.59266,0.19756 -0.59266,0.42333 0,0.254 0.254,0.47978 0.59266,0.47978 1.12889,0 2.08845,-0.254 2.794,-0.62089 0.39511,-0.22577 0.73378,-0.508 1.04422,-0.81844 0.31045,0.31044 0.62089,0.59267 1.04422,0.81844 0.70556,0.36689 1.63689,0.62089 2.76578,0.62089 0.36689,0 0.59267,-0.22578 0.59267,-0.47978 0,-0.22577 -0.22578,-0.42333 -0.59267,-0.42333 -0.93133,0 -1.524,-0.11289 -1.97556,-0.33867 -0.45155,-0.22577 -0.84666,-0.42333 -1.29822,-0.98777 z m 2.99155,14.59088 v -0.0282 c 0,-0.36689 -0.28222,-0.64911 -0.64911,-0.64911 h -3.10444 c -1.86266,0 -3.35844,-1.46755 -3.35844,-3.33022 v -6.01133 h 7.36599 c 1.10067,0 2.00378,0.87489 2.00378,2.00378 0,0.36689 0.28222,0.64911 0.64911,0.64911 0.33867,0 0.64911,-0.28222 0.64911,-0.64911 0,-1.80622 -1.49577,-3.27377 -3.302,-3.27377 h -8.66421 v 7.28132 c 0,1.69334 0.95955,3.18911 2.34244,4.00756 -1.38289,0.79022 -2.34244,2.28599 -2.34244,3.97933 v 7.28132 h 8.66421 c 1.80623,0 3.302,-1.46755 3.302,-3.27377 0,-0.36689 -0.31044,-0.64911 -0.64911,-0.64911 -0.36689,0 -0.64911,0.28222 -0.64911,0.64911 0,1.12889 -0.90311,2.00377 -2.00378,2.00377 h -7.36599 v -6.01132 c 0,-1.86267 1.49578,-3.35845 3.35844,-3.35845 h 3.10444 c 0.36689,0 0.64911,-0.254 0.64911,-0.62088 z m -2.6811,12.95399 c -0.42334,0 -0.81845,0.16933 -1.12889,0.47977 l -1.10067,1.10067 1.10067,1.10066 c 0.31044,0.31045 0.73378,0.47978 1.12889,0.47978 0.39511,0 0.81844,-0.16933 1.10066,-0.47978 l 1.12889,-1.10066 -1.12889,-1.10067 c -0.31044,-0.31044 -0.70555,-0.47977 -1.10066,-0.47977 z m 0,1.29822 c 0.0564,0 0.14111,0.0282 0.19755,0.0847 l 0.19756,0.19756 -0.19756,0.19755 c -0.11289,0.11289 -0.28222,0.11289 -0.39511,0 l -0.22578,-0.19755 0.22578,-0.19756 c 0.0564,-0.0564 0.11289,-0.0847 0.19756,-0.0847 z m 10.85846,-1.29822 c -0.42333,0 -0.81844,0.16933 -1.12889,0.47977 l -1.10066,1.10067 1.10066,1.10066 c 0.31045,0.31045 0.70556,0.47978 1.10067,0.47978 0.42333,0 0.81844,-0.16933 1.12889,-0.47978 l 1.12889,-1.10066 -1.12889,-1.10067 c -0.31045,-0.31044 -0.70556,-0.47977 -1.10067,-0.47977 z m 0,1.29822 c 0.0564,0 0.14111,0.0282 0.19756,0.0847 l 0.19755,0.19756 -0.19755,0.19755 c -0.11289,0.11289 -0.28222,0.11289 -0.39511,0 l -0.22578,-0.19755 0.22578,-0.19756 c 0.0564,-0.0564 0.11289,-0.0847 0.19755,-0.0847 z m 2.65289,-25.56932 c -0.36689,0 -0.64911,0.254 -0.64911,0.64911 0,1.10067 -0.90311,2.00378 -2.00378,2.00378 -0.36689,0 -0.64911,0.28222 -0.64911,0.64911 0,0.36689 0.28222,0.64911 0.64911,0.64911 0.762,0 1.43933,-0.28222 2.00378,-0.70555 v 16.05843 c 0,1.12889 -0.90311,2.00377 -2.00378,2.00377 -0.36689,0 -0.64911,0.31045 -0.64911,0.64912 0,0.36688 0.28222,0.62088 0.64911,0.62088 1.80622,0 3.302,-1.46755 3.302,-3.27377 v -18.65488 -0.0282 c 0,-0.33866 -0.28222,-0.62089 -0.64911,-0.62089 z m 10.88674,24.2711 c -0.42333,0 -0.81844,0.16933 -1.12889,0.47977 l -1.10066,1.10067 1.10066,1.10066 c 0.31045,0.31045 0.73378,0.47978 1.12889,0.47978 0.39511,0 0.81844,-0.16933 1.10067,-0.47978 l 1.12888,-1.10066 -1.12888,-1.10067 c -0.31045,-0.31044 -0.70556,-0.47977 -1.10067,-0.47977 z m 0,1.29822 c 0.0564,0 0.14111,0.0282 0.19756,0.0847 l 0.19755,0.19756 -0.19755,0.19755 c -0.11289,0.11289 -0.28223,0.11289 -0.39512,0 l -0.22577,-0.19755 0.22577,-0.19756 c 0.0564,-0.0564 0.11289,-0.0847 0.19756,-0.0847 z m 0.22578,-25.56932 c -3.27378,0 -5.95489,2.68111 -5.95489,5.98311 v 16.59465 h 5.95489 c 3.302,0 5.9831,-2.65288 5.9831,-5.95488 v -16.62288 z m 0,1.29822 h 4.68488 v 15.32466 c 0,2.59644 -2.08844,4.68488 -4.68488,4.68488 h -4.68489 v -15.32465 c 0,-2.59644 2.08845,-4.68489 4.68489,-4.68489 z m 16.67225,-4.62844 -0.56444,0.762 c -0.42333,0.56445 -0.84667,0.762 -1.27,0.98778 -0.45155,0.22578 -1.04422,0.33867 -2.00378,0.33867 -0.33866,0 -0.59266,0.19755 -0.59266,0.42333 0,0.254 0.254,0.47978 0.59266,0.47978 1.12889,0 2.08845,-0.254 2.794,-0.62089 0.39511,-0.22578 0.73378,-0.508 1.04422,-0.81845 0.31045,0.31045 0.62089,0.59267 1.04423,0.81845 0.70555,0.36689 1.63688,0.62089 2.76577,0.62089 0.36689,0 0.59267,-0.22578 0.59267,-0.47978 0,-0.22578 -0.22578,-0.42333 -0.59267,-0.42333 -0.93133,0 -1.524,-0.11289 -1.97555,-0.33867 -0.45156,-0.22578 -0.84667,-0.42333 -1.29822,-0.98778 z m -0.39511,3.33022 c -3.27377,0 -5.95488,2.68111 -5.95488,5.98311 v 16.59465 h 5.95488 c 3.302,0 5.98311,-2.65288 5.98311,-5.95488 v -16.62288 z m 0,1.29822 h 4.68489 v 15.32466 c 0,2.59644 -2.08844,4.68488 -4.68489,4.68488 h -4.68488 v -15.32465 c 0,-2.59644 2.08844,-4.68489 4.68488,-4.68489 z m -0.22577,22.97288 c -0.42334,0 -0.81845,0.16933 -1.12889,0.47977 l -1.10067,1.10067 1.10067,1.10066 c 0.31044,0.31045 0.73377,0.47978 1.12889,0.47978 0.39511,0 0.81844,-0.16933 1.10066,-0.47978 l 1.12889,-1.10066 -1.12889,-1.10067 c -0.31044,-0.31044 -0.70555,-0.47977 -1.10066,-0.47977 z m 0,1.29822 c 0.0564,0 0.14111,0.0282 0.19755,0.0847 l 0.19756,0.19756 -0.19756,0.19755 c -0.11289,0.11289 -0.28222,0.11289 -0.39511,0 l -0.22578,-0.19755 0.22578,-0.19756 c 0.0564,-0.0564 0.11289,-0.0847 0.19756,-0.0847 z m 16.39003,-1.29822 c -0.42333,0 -0.81844,0.16933 -1.12889,0.47977 l -1.10066,1.10067 1.10066,1.10066 c 0.31045,0.31045 0.73378,0.47978 1.12889,0.47978 0.39511,0 0.81844,-0.16933 1.10067,-0.47978 l 1.12888,-1.10066 -1.12888,-1.10067 c -0.31045,-0.31044 -0.70556,-0.47977 -1.10067,-0.47977 z m 0,1.29822 c 0.0564,0 0.14111,0.0282 0.19756,0.0847 l 0.19755,0.19756 -0.19755,0.19755 c -0.11289,0.11289 -0.28223,0.11289 -0.39512,0 l -0.22577,-0.19755 0.22577,-0.19756 c 0.0564,-0.0564 0.11289,-0.0847 0.19756,-0.0847 z m 0.11289,-24.2711 h 4.68488 v 15.32466 c 0,2.59644 -2.08844,4.68488 -4.68488,4.68488 h -4.68489 v -15.32465 c 0,-2.59644 2.08845,-4.68489 4.68489,-4.68489 z m 5.30577,-4.06399 c -1.07244,0 -1.97555,0.90311 -1.97555,1.97555 h 1.18533 c 0,-0.39511 0.39511,-0.79022 0.79022,-0.79022 h 0.79022 v 0.79022 c 0,0.39511 -0.39511,0.79022 -0.79022,0.79022 h -5.30577 c -3.27378,0 -5.95489,2.68111 -5.95489,5.98311 v 16.59465 h 5.95489 c 3.302,0 5.9831,-2.65288 5.9831,-5.95488 v -15.55043 c 0.73378,-0.28223 1.29823,-1.016 1.29823,-1.86267 v -1.97555 z m 11.28183,27.03687 c -0.42334,0 -0.81845,0.16933 -1.12889,0.47977 l -1.10067,1.10067 1.10067,1.10066 c 0.31044,0.31045 0.73377,0.47978 1.12889,0.47978 0.39511,0 0.81844,-0.16933 1.10066,-0.47978 l 1.12889,-1.10066 -1.12889,-1.10067 c -0.31044,-0.31044 -0.70555,-0.47977 -1.10066,-0.47977 z m 0,1.29822 c 0.0564,0 0.14111,0.0282 0.19755,0.0847 l 0.19756,0.19756 -0.19756,0.19755 c -0.11289,0.11289 -0.28222,0.11289 -0.39511,0 l -0.22578,-0.19755 0.22578,-0.19756 c 0.0564,-0.0564 0.11289,-0.0847 0.19756,-0.0847 z m -5.61622,-25.56932 c -0.33867,0 -0.64911,0.28223 -0.64911,0.64911 v 15.94555 c 0,3.30199 2.70933,5.9831 6.01133,5.9831 h 5.95488 v -21.92865 c 0,-0.36688 -0.31044,-0.64911 -0.64911,-0.64911 -0.36689,0 -0.64911,0.28223 -0.64911,0.64911 v 20.65865 h -4.65666 c -2.59645,0 -4.71311,-2.08844 -4.71311,-4.7131 v -15.94555 c 0,-0.36688 -0.28222,-0.64911 -0.64911,-0.64911 z m 21.75223,24.2711 c -0.42334,0 -0.81845,0.16933 -1.12889,0.47977 l -1.10067,1.10067 1.10067,1.10066 c 0.31044,0.31045 0.73378,0.47978 1.12889,0.47978 0.39511,0 0.81844,-0.16933 1.10066,-0.47978 l 1.12889,-1.10066 -1.12889,-1.10067 c -0.31044,-0.31044 -0.70555,-0.47977 -1.10066,-0.47977 z m 0,1.29822 c 0.0564,0 0.14111,0.0282 0.19755,0.0847 l 0.19756,0.19756 -0.19756,0.19755 c -0.11289,0.11289 -0.28222,0.11289 -0.39511,0 l -0.22578,-0.19755 0.22578,-0.19756 c 0.0564,-0.0564 0.11289,-0.0847 0.19756,-0.0847 z m -5.44689,-25.56932 c -0.33866,0 -0.64911,0.28223 -0.64911,0.64911 v 15.94555 c 0,3.30199 2.70933,5.9831 6.01133,5.9831 h 5.95488 v -21.50531 c 0.762,-0.254 1.32645,-1.016 1.32645,-1.86267 v -1.97555 h -1.97556 c -1.07244,0 -1.97555,0.90311 -1.97555,1.97555 h 1.18533 c 0,-0.39511 0.39511,-0.79022 0.79022,-0.79022 h 0.79022 v 0.79022 c 0,0.39511 -0.39511,0.79022 -0.79022,0.79022 -0.36689,0 -0.64911,0.28223 -0.64911,0.64911 v 20.65865 h -4.65666 c -2.59644,0 -4.71311,-2.08844 -4.71311,-4.7131 v -15.94555 c 0,-0.36688 -0.28222,-0.64911 -0.64911,-0.64911 z m 22.03447,24.2711 c -0.42334,0 -0.81845,0.16933 -1.12889,0.47977 l -1.10067,1.10067 1.10067,1.10066 c 0.31044,0.31045 0.70555,0.47978 1.10066,0.47978 0.42334,0 0.81845,-0.16933 1.12889,-0.47978 l 1.12889,-1.10066 -1.12889,-1.10067 c -0.31044,-0.31044 -0.70555,-0.47977 -1.10066,-0.47977 z m 0,1.29822 c 0.0564,0 0.14111,0.0282 0.19755,0.0847 l 0.19756,0.19756 -0.19756,0.19755 c -0.11289,0.11289 -0.28222,0.11289 -0.39511,0 l -0.22578,-0.19755 0.22578,-0.19756 c 0.0564,-0.0564 0.11289,-0.0847 0.19756,-0.0847 z m -5.72911,-25.56932 c -0.36689,0 -0.64911,0.28223 -0.64911,0.64911 v 5.27756 c 0,3.33022 2.70933,6.01132 6.01133,6.01132 h 4.65666 v 4.68489 c 0,2.59644 -2.08844,4.68488 -4.68488,4.68488 -0.36689,0 -0.64911,0.31045 -0.64911,0.64912 0,0.36688 0.28222,0.62088 0.64911,0.62088 3.27377,0 5.9831,-2.65288 5.9831,-5.95488 v -15.97377 c 0,-0.36688 -0.31044,-0.64911 -0.64911,-0.64911 -0.36689,0 -0.64911,0.28223 -0.64911,0.64911 v 9.99066 h -4.65666 c -2.59644,0 -4.71311,-2.08844 -4.71311,-4.7131 v -5.27756 c 0,-0.36688 -0.28222,-0.64911 -0.64911,-0.64911 z"
         id="path38" />
      <path
         style="font-weight:bold;font-family:'Leaf Tech';-inkscape-font-specification:'Leaf Tech Bold';text-align:center;text-anchor:middle"
         d="m 130.15168,296.51183 c 0.28222,0 0.508,-0.16933 0.59267,-0.39511 0.14111,-0.28222 0.73377,-0.56445 1.27,-0.59267 v 13.3491 h 5.95488 c 3.302,0 5.98311,-2.68111 5.98311,-5.95488 v -10.66799 c 0,-3.27378 -2.68111,-5.95489 -5.98311,-5.95489 h -5.95488 v 0.64911 7.30955 c -1.12889,0.0282 -2.08845,0.508 -2.45534,1.35467 -0.0282,0.0847 -0.0564,0.16933 -0.0564,0.254 0,0.33866 0.28222,0.64911 0.64911,0.64911 z m 8.88999,-2.22955 c -0.254,0 -0.47977,0.16933 -0.59266,0.39511 -0.14111,0.36688 -0.81845,0.59266 -1.43934,0.59266 -0.14111,0 -0.254,0 -0.36688,-0.0282 l -3.33022,-0.81844 v -6.82978 h 4.65666 c 2.59644,0 4.68488,2.08845 4.68488,4.65667 v 10.66799 c 0,2.56822 -2.08844,4.65666 -4.68488,4.65666 h -4.65666 v -11.8251 l 3.07622,0.762 c 0.22577,0.0282 0.47977,0.0564 0.70555,0.0564 1.18533,0 2.17311,-0.53622 2.54,-1.38288 0.0564,-0.0847 0.0564,-0.16934 0.0564,-0.254 0,-0.33867 -0.254,-0.64911 -0.64911,-0.64911 z"
         id="path39" />
    </g>
  </g>
</svg>
