<?xml version="1.0" encoding="UTF-8" standalone="no"?>
<!-- Created with Inkscape (http://www.inkscape.org/) -->

<svg
   width="1478.8661"
   height="1290.1782"
   viewBox="0 0 391.28332 341.35966"
   version="1.1"
   id="svg1"
   inkscape:version="1.4 (86a8ad7, 2024-10-11)"
   sodipodi:docname="Alphabet Hangeulic Chunky Vietnamese Glyphs.svg"
   xmlns:inkscape="http://www.inkscape.org/namespaces/inkscape"
   xmlns:sodipodi="http://sodipodi.sourceforge.net/DTD/sodipodi-0.dtd"
   xmlns="http://www.w3.org/2000/svg"
   xmlns:svg="http://www.w3.org/2000/svg">
  <sodipodi:namedview
     id="namedview1"
     pagecolor="#ffffff"
     bordercolor="#000000"
     borderopacity="0.25"
     inkscape:showpageshadow="2"
     inkscape:pageopacity="0.0"
     inkscape:pagecheckerboard="0"
     inkscape:deskcolor="#d1d1d1"
     inkscape:document-units="px"
     inkscape:zoom="0.60302261"
     inkscape:cx="758.67801"
     inkscape:cy="640.93782"
     inkscape:window-width="1920"
     inkscape:window-height="1027"
     inkscape:window-x="-8"
     inkscape:window-y="-8"
     inkscape:window-maximized="1"
     inkscape:current-layer="layer1" />
  <defs
     id="defs1" />
  <g
     inkscape:label="Layer 1"
     inkscape:groupmode="layer"
     id="layer1"
     transform="translate(58.702584,-55.730161)">
    <text
       xml:space="preserve"
       style="font-size:28.2222px;line-height:1.8;font-family:'BlockTrain Hand';-inkscape-font-specification:'BlockTrain Hand';text-align:start;letter-spacing:2.64583px;writing-mode:lr-tb;direction:ltr;text-anchor:start;display:none;fill:#19919b;fill-opacity:1;stroke:#7c7c7c;stroke-width:0.79375;stroke-dasharray:none;stroke-opacity:1"
       x="138.19148"
       y="88.739998"
       id="text1"><tspan
         style="font-style:normal;font-variant:normal;font-weight:bold;font-stretch:normal;font-size:28.2222px;line-height:1.8;font-family:'NewEng Hangeul';-inkscape-font-specification:'NewEng Hangeul Bold';text-align:center;letter-spacing:2.64583px;text-anchor:middle;fill:#19919b;fill-opacity:1;stroke:#7c7c7c;stroke-width:0.79375;stroke-dasharray:none;stroke-opacity:1"
         x="0"
         y="0"
         sodipodi:role="line"
         id="tspan64">aâăeêioôơuưy</tspan><tspan
         style="font-style:normal;font-variant:normal;font-weight:bold;font-stretch:normal;font-size:28.2222px;line-height:1.8;font-family:'NewEng Hangeul';-inkscape-font-specification:'NewEng Hangeul Bold';text-align:center;letter-spacing:2.64583px;text-anchor:middle;fill:#19919b;fill-opacity:1;stroke:#7c7c7c;stroke-width:0.79375;stroke-dasharray:none;stroke-opacity:1"
         x="0"
         y="0"
         sodipodi:role="line"
         id="tspan22">áấắéếíóốớúứý</tspan><tspan
         style="font-style:normal;font-variant:normal;font-weight:bold;font-stretch:normal;font-size:28.2222px;line-height:1.8;font-family:'NewEng Hangeul';-inkscape-font-specification:'NewEng Hangeul Bold';text-align:center;letter-spacing:2.64583px;text-anchor:middle;fill:#19919b;fill-opacity:1;stroke:#7c7c7c;stroke-width:0.79375;stroke-dasharray:none;stroke-opacity:1"
         x="0"
         y="0"
         sodipodi:role="line"
         id="tspan23">àầằèềìòồờùừỳ</tspan><tspan
         style="font-style:normal;font-variant:normal;font-weight:bold;font-stretch:normal;font-size:28.2222px;line-height:1.8;font-family:'NewEng Hangeul';-inkscape-font-specification:'NewEng Hangeul Bold';text-align:center;letter-spacing:2.64583px;text-anchor:middle;fill:#19919b;fill-opacity:1;stroke:#7c7c7c;stroke-width:0.79375;stroke-dasharray:none;stroke-opacity:1"
         x="0"
         y="0"
         sodipodi:role="line"
         id="tspan24">ảẩẳẻểỉỏổởủửỷ</tspan><tspan
         style="font-style:normal;font-variant:normal;font-weight:bold;font-stretch:normal;font-size:28.2222px;line-height:1.8;font-family:'NewEng Hangeul';-inkscape-font-specification:'NewEng Hangeul Bold';text-align:center;letter-spacing:2.64583px;text-anchor:middle;fill:#19919b;fill-opacity:1;stroke:#7c7c7c;stroke-width:0.79375;stroke-dasharray:none;stroke-opacity:1"
         x="0"
         y="0"
         sodipodi:role="line"
         id="tspan25">ãẫẵẽễĩõỗỡũữỹ</tspan><tspan
         style="font-style:normal;font-variant:normal;font-weight:bold;font-stretch:normal;font-size:28.2222px;line-height:1.8;font-family:'NewEng Hangeul';-inkscape-font-specification:'NewEng Hangeul Bold';text-align:center;letter-spacing:2.64583px;text-anchor:middle;fill:#19919b;fill-opacity:1;stroke:#7c7c7c;stroke-width:0.79375;stroke-dasharray:none;stroke-opacity:1"
         x="0"
         y="0"
         sodipodi:role="line"
         id="tspan26">ạậặẹệịọộợụựỵ</tspan><tspan
         style="font-style:normal;font-variant:normal;font-weight:bold;font-stretch:normal;font-size:28.2222px;line-height:1.8;font-family:'NewEng Hangeul';-inkscape-font-specification:'NewEng Hangeul Bold';text-align:center;letter-spacing:2.64583px;text-anchor:middle;fill:#19919b;fill-opacity:1;stroke:#7c7c7c;stroke-width:0.79375;stroke-dasharray:none;stroke-opacity:1"
         x="0"
         y="0"
         sodipodi:role="line"
         id="tspan36">đ</tspan></text>
    <g
       id="text48"
       style="font-size:28.2222px;line-height:1.8;font-family:'BlockTrain Hand';-inkscape-font-specification:'BlockTrain Hand';letter-spacing:2.64583px;fill:#19919b;stroke:#7c7c7c;stroke-width:0.79375"
       aria-label="aâăeêioôơuưy&#10;áấắéếíóốớúứý&#10;àầằèềìòồờùừỳ&#10;ảẩẳẻểỉỏổởủửỷ&#10;ãẫẵẽễĩõỗỡũữỹ&#10;ạậặẹệịọộợụựỵ&#10;đ">
      <path
         style="font-weight:bold;font-family:'NewEng Hangeul';-inkscape-font-specification:'NewEng Hangeul Bold';text-align:center;text-anchor:middle"
         d="m -51.729936,87.187777 v -5.926662 h 12.925768 l 1.439332,-1.213555 v 10.272881 l 1.15711,1.41111 5.418663,-4.543774 V 66.246904 l -1.185333,-1.41111 h -18.316208 l -1.552221,1.298221 -1.072443,-1.298221 -5.390441,4.543774 v 20.940873 l 1.157111,1.41111 z m 0,-16.397099 h 14.3651 v 4.515552 h -12.925768 l -1.439332,1.213555 z M -8.9803401,58.993799 c -0.028222,-0.02822 -0.056444,-0.08467 -0.056444,-0.112889 l -0.5362218,-0.649111 c -3.1326651,1.326444 -6.2653291,2.031999 -6.2653291,2.031999 l -2.596442,2.173109 0.536222,0.649111 c 0,0 3.076219,-0.705555 6.152439,-2.003777 l 0.366889,0.423333 c 0.987777,1.185333 4.2615525,1.523999 4.2615525,1.523999 l 2.5964424,-2.173109 -0.5362218,-0.649111 c 0,0 -2.681109,-0.282222 -3.9228862,-1.213554 z m -9.7648809,28.193978 v -5.926662 h 12.9257673 l 1.4393322,-1.213555 v 10.272881 l 1.1571103,1.41111 5.4186624,-4.543774 V 66.246904 L 1.0103188,64.835794 H -17.305889 l -1.552221,1.298221 -1.072444,-1.298221 -5.39044,4.543774 v 20.940873 l 1.15711,1.41111 z m 0,-16.397099 H -4.3801215 V 75.30623 H -17.305889 l -1.439332,1.213555 z m 39.447598,-7.394216 c 1.495777,0 2.850442,-0.479777 3.809997,-1.269999 l 2.596442,-2.17311 c 0.874889,-0.761999 1.439333,-1.80622 1.439333,-3.019775 l -0.564444,-0.649111 -2.596443,2.17311 c 0,0.620888 -0.141111,1.213554 -0.395111,1.721554 -0.677332,0.254 -1.439332,0.395111 -2.229553,0.395111 0,0 -0.479778,0 -0.649111,0 -1.467554,0 -2.765776,-0.536222 -3.640664,-1.354666 -0.338666,-0.507999 -0.508,-1.072443 -0.508,-1.693332 l -0.564444,-0.64911 -2.596442,2.173109 c 0,0.761999 0.282222,1.439332 0.790222,2.031998 l 0.536221,0.649111 c 0.846666,1.015999 2.285999,1.66511 3.922886,1.66511 0.169334,0 0.649111,0 0.649111,0 z m -6.462884,23.791315 v -5.926662 h 12.925768 l 1.439332,-1.213555 v 10.272881 l 1.15711,1.41111 5.418663,-4.543774 V 66.246904 l -1.185333,-1.41111 H 15.678825 l -1.552221,1.298221 -1.072443,-1.298221 -5.3904406,4.543774 v 20.940873 l 1.1571102,1.41111 z m 0,-16.397099 h 14.3651 V 75.30623 H 15.678825 l -1.439332,1.213555 z m 27.566056,0 h 0.282222 l -1.439332,1.213555 v 18.316208 l 1.15711,1.41111 h 20.940873 l 5.418662,-4.543774 -1.185332,-1.41111 H 47.224211 v -4.515552 h 10.301104 l 5.39044,-4.543775 -1.15711,-1.41111 H 48.381322 l -1.157111,0.987777 v -5.503329 h 15.522211 l 5.418662,-4.543774 -1.185332,-1.41111 H 46.038879 l -5.39044,4.543774 z M 89.973803,58.993799 c -0.02822,-0.02822 -0.05644,-0.08467 -0.05644,-0.112889 l -0.536222,-0.649111 c -3.132664,1.326444 -6.265328,2.031999 -6.265328,2.031999 l -2.596443,2.173109 0.536222,0.649111 c 0,0 3.07622,-0.705555 6.15244,-2.003777 l 0.366888,0.423333 c 0.987777,1.185333 4.261553,1.523999 4.261553,1.523999 l 2.596442,-2.173109 -0.536222,-0.649111 c 0,0 -2.681109,-0.282222 -3.922886,-1.213554 z M 74.79026,70.790678 h 0.282222 l -1.439333,1.213555 v 18.316208 l 1.157111,1.41111 h 20.940872 l 5.418658,-4.543774 -1.185328,-1.41111 h -19.75554 v -4.515552 h 10.301103 l 5.39044,-4.543775 -1.15711,-1.41111 H 81.366032 l -1.15711,0.987777 v -5.503329 h 15.52221 l 5.418658,-4.543774 -1.185328,-1.41111 H 79.02359 l -5.390441,4.543774 z m 32.98473,0 h 10.5551 l -1.29822,1.072444 v 13.913545 h -5.02355 l -5.39044,4.543774 1.15711,1.41111 h 20.94087 l 5.41866,-4.543774 -1.18533,-1.41111 h -10.75266 l 1.43933,-1.213555 V 70.790678 h 5.08 l 5.41866,-4.543774 -1.18533,-1.41111 h -20.94087 l -5.39044,4.543774 z m 31.8276,6.434662 v 5.249329 c 0,3.753553 0,5.700885 0.84666,6.716884 l 1.18533,1.41111 c 0.93134,1.128888 2.87867,1.128888 6.99911,1.128888 h 5.22111 c 3.75355,0 5.7291,0 6.7451,-0.874888 l 5.39044,-4.515552 c 1.12889,-0.959555 1.12889,-2.906887 1.12889,-6.999106 v -5.249329 c 0,-3.753553 0,-5.700885 -0.84666,-6.745106 l -1.18534,-1.382888 c -0.93133,-1.128888 -2.90688,-1.128888 -6.9991,-1.128888 h -5.24933 c -3.75355,0 -5.70089,0 -6.71689,0.874888 l -5.41866,4.515552 c -1.10066,0.931333 -1.10066,2.906887 -1.10066,6.999106 z m 6.57577,-3.132664 c 0,-1.298221 0,-2.398887 0.0282,-3.301998 0.70556,0 1.524,0 2.42711,0 h 5.22111 c 3.24555,0 5.16466,0 6.29355,0.536222 0,1.15711 0.39511,2.991553 0.39511,5.89844 v 5.249329 c 0,1.298222 0,2.398887 -0.0565,3.301998 -0.70555,0 -1.49577,0 -2.39888,0 h -5.24933 c -3.24556,0 -5.16466,0 -6.26533,-0.564444 0,-1.128888 -0.39511,-2.963331 -0.39511,-5.870218 z m 42.74961,-15.098877 c -0.0282,-0.02822 -0.0564,-0.08467 -0.0564,-0.112889 l -0.53622,-0.649111 c -3.13266,1.326444 -6.26533,2.031999 -6.26533,2.031999 l -2.59644,2.173109 0.53622,0.649111 c 0,0 3.07622,-0.705555 6.15244,-2.003777 l 0.36689,0.423333 c 0.98778,1.185333 4.26155,1.523999 4.26155,1.523999 l 2.59644,-2.173109 -0.53622,-0.649111 c 0,0 -2.68111,-0.282222 -3.92288,-1.213554 z M 172.58731,77.22534 v 5.249329 c 0,3.753553 0,5.700885 0.84667,6.716884 l 1.18533,1.41111 c 0.93133,1.128888 2.87866,1.128888 6.99911,1.128888 h 5.2211 c 3.75356,0 5.72911,0 6.74511,-0.874888 l 5.39044,-4.515552 c 1.12889,-0.959555 1.12889,-2.906887 1.12889,-6.999106 v -5.249329 c 0,-3.753553 0,-5.700885 -0.84667,-6.745106 l -1.18533,-1.382888 c -0.93133,-1.128888 -2.90689,-1.128888 -6.99911,-1.128888 h -5.24933 c -3.75355,0 -5.70088,0 -6.71688,0.874888 l -5.41866,4.515552 c -1.10067,0.931333 -1.10067,2.906887 -1.10067,6.999106 z m 6.57577,-3.132664 c 0,-1.298221 0,-2.398887 0.0282,-3.301998 0.70555,0 1.524,0 2.42711,0 h 5.2211 c 3.24556,0 5.16467,0 6.29355,0.536222 0,1.15711 0.39511,2.991553 0.39511,5.89844 v 5.249329 c 0,1.298222 0,2.398887 -0.0564,3.301998 -0.70555,0 -1.49578,0 -2.39889,0 h -5.24933 c -3.24555,0 -5.16466,0 -6.26532,-0.564444 0,-1.128888 -0.39512,-2.963331 -0.39512,-5.870218 z m 32.9847,0 c 0,-1.298221 0,-2.398887 0.0282,-3.301998 0.70556,0 1.524,0 2.42711,0 h 5.22111 c 3.24555,0 5.16466,0 6.29355,0.536222 0,1.15711 0.39511,2.991553 0.39511,5.89844 v 5.249329 c 0,1.298222 0,2.398887 -0.0564,3.301998 -0.70556,0 -1.49578,0 -2.39889,0 h -5.24933 c -3.24555,0 -5.16466,0 -6.26533,-0.564444 0,-1.128888 -0.39511,-2.963331 -0.39511,-5.870218 z m -6.57577,3.132664 v 5.249329 c 0,3.753553 0,5.700885 0.84666,6.716884 l 1.18534,1.41111 c 0.93133,1.128888 2.87866,1.128888 6.9991,1.128888 h 5.22111 c 3.75355,0 5.72911,0 6.7451,-0.874888 l 5.39044,-4.515552 c 1.12889,-0.959555 1.12889,-2.906887 1.12889,-6.999106 v -5.249329 c 0,-3.753553 0,-5.700885 -0.84666,-6.745106 l -0.19756,-0.197555 c 1.97556,-1.636888 3.92289,-3.273776 5.87022,-4.910663 v -3.386664 l -1.18533,-1.41111 -5.39044,4.543774 v 3.358442 l -0.47978,0.395111 c -1.016,0 -2.99155,-0.903111 -6.80155,-0.903111 h -5.24933 c -3.75355,0 -5.70089,0 -6.71688,0.874888 l -5.41867,4.515552 c -1.10066,0.931333 -1.10066,2.906887 -1.10066,6.999106 z m 32.98474,-7.845772 v 20.940873 l 1.15711,1.41111 h 18.34443 l 1.524,-1.298221 1.07244,1.298221 5.41866,-4.543774 V 66.246904 l -1.18533,-1.41111 -5.39044,4.543774 v 16.397099 h -14.3651 V 66.246904 l -1.18533,-1.41111 z m 32.98471,0 v 20.940873 l 1.15711,1.41111 H 291.043 l 1.524,-1.298221 1.07244,1.298221 5.41866,-4.543774 V 66.275126 c 1.60867,-1.326443 3.21734,-2.681109 4.826,-4.035774 v -3.386664 l -1.18533,-1.41111 -5.39044,4.543774 v 3.33022 l -4.826,4.063996 v 16.397099 h -14.3651 V 66.246904 l -1.18533,-1.41111 z m 53.92558,0 -5.95488,5.926662 h -8.41022 v -9.059326 l -1.18533,-1.41111 -5.39044,4.543774 v 10.470437 l 1.15711,1.41111 h 7.90222 l -9.05933,9.059326 1.15711,1.41111 5.41866,-4.543774 20.94088,-20.940873 -1.18534,-1.41111 z"
         id="path48" />
      <path
         style="font-weight:bold;font-family:'NewEng Hangeul';-inkscape-font-specification:'NewEng Hangeul Bold';text-align:center;text-anchor:middle"
         d="m -49.810826,113.34976 c 2.82222,-0.28223 6.999105,-1.60867 8.918215,-2.70934 l 2.596442,-2.17311 -0.536221,-0.64911 c -1.91911,1.10067 -6.095996,2.39889 -8.918216,2.70934 l -2.596442,2.1731 z m -1.91911,24.63798 v -5.92667 h 12.925768 l 1.439332,-1.21355 v 10.27288 l 1.15711,1.41111 5.418663,-4.54377 v -20.94088 l -1.185333,-1.41111 h -18.316208 l -1.552221,1.29822 -1.072443,-1.29822 -5.390441,4.54378 v 20.94087 l 1.157111,1.41111 z m 0,-16.3971 h 14.3651 v 4.51555 h -12.925768 l -1.439332,1.21355 z m 34.988491,-11.85333 c 2.82222,-0.28222 6.9991055,-1.60866 8.9182151,-2.70933 l 2.5964424,-2.17311 -0.5362218,-0.64911 c -1.9191096,1.10067 -6.0959957,2.39889 -8.9182157,2.70933 l -2.596442,2.17311 z m 7.7611049,0.0565 c -0.028222,-0.0282 -0.056444,-0.0847 -0.056444,-0.11289 l -0.5362218,-0.64911 c -3.1326651,1.32644 -6.2653291,2.032 -6.2653291,2.032 l -2.596442,2.17311 0.536222,0.64911 c 0,0 3.076219,-0.70556 6.152439,-2.00378 l 0.366889,0.42333 c 0.987777,1.18534 4.2615525,1.524 4.2615525,1.524 l 2.5964424,-2.17311 -0.5362218,-0.64911 c 0,0 -2.681109,-0.28222 -3.9228862,-1.21355 z m -9.7648809,28.19398 v -5.92667 h 12.9257673 l 1.4393322,-1.21355 v 10.27288 l 1.1571103,1.41111 5.4186624,-4.54377 V 117.04686 L 1.0103188,115.63575 H -17.305889 l -1.552221,1.29822 -1.072444,-1.29822 -5.39044,4.54378 v 20.94087 l 1.15711,1.41111 z m 0,-16.3971 h 14.3650995 v 4.51555 H -17.305889 l -1.439332,1.21355 z M 19.7146,108.60843 c 2.82222,-0.28223 6.999106,-1.60867 8.918215,-2.70934 l 2.596443,-2.17311 -0.536222,-0.64911 c -1.91911,1.10067 -6.095995,2.39889 -8.918215,2.70934 l -2.596443,2.1731 z m 0.987777,5.58799 c 1.495777,0 2.850442,-0.47978 3.809997,-1.27 l 2.596442,-2.17311 c 0.874889,-0.762 1.439333,-1.80622 1.439333,-3.01977 l -0.564444,-0.64911 -2.596443,2.17311 c 0,0.62088 -0.141111,1.21355 -0.395111,1.72155 -0.677332,0.254 -1.439332,0.39511 -2.229553,0.39511 0,0 -0.479778,0 -0.649111,0 -1.467554,0 -2.765776,-0.53622 -3.640664,-1.35466 -0.338666,-0.508 -0.508,-1.07245 -0.508,-1.69334 l -0.564444,-0.64911 -2.596442,2.17311 c 0,0.762 0.282222,1.43933 0.790222,2.032 l 0.536221,0.64911 c 0.846666,1.016 2.285999,1.66511 3.922886,1.66511 0.169334,0 0.649111,0 0.649111,0 z m -6.462884,23.79132 v -5.92667 h 12.925768 l 1.439332,-1.21355 v 10.27288 l 1.15711,1.41111 5.418663,-4.54377 v -20.94088 l -1.185333,-1.41111 H 15.678825 l -1.552221,1.29822 -1.072443,-1.29822 -5.3904406,4.54378 v 20.94087 l 1.1571102,1.41111 z m 0,-16.3971 h 14.3651 v 4.51555 H 15.678825 l -1.439332,1.21355 z m 34.903828,-8.24088 c 2.82222,-0.28223 6.999106,-1.60867 8.918215,-2.70934 l 2.596443,-2.17311 -0.536222,-0.64911 c -1.91911,1.10067 -6.095995,2.39889 -8.918215,2.70934 l -2.596443,2.1731 z m -7.337772,8.24088 h 0.282222 l -1.439332,1.21355 v 18.31621 l 1.15711,1.41111 h 20.940873 l 5.418662,-4.54377 -1.185332,-1.41111 H 47.224211 v -4.51556 h 10.301104 l 5.39044,-4.54377 -1.15711,-1.41111 H 48.381322 l -1.157111,0.98778 v -5.50333 h 15.522211 l 5.418662,-4.54378 -1.185332,-1.41111 H 46.038879 l -5.39044,4.54378 z m 40.491816,-12.41777 c 2.82222,-0.28222 6.999106,-1.60867 8.918215,-2.70933 l 2.596443,-2.17311 -0.536222,-0.64911 c -1.91911,1.10066 -6.095995,2.39889 -8.918215,2.70933 l -2.596443,2.17311 z m 7.676438,0.62089 c -0.02822,-0.0282 -0.05644,-0.0847 -0.05644,-0.11289 l -0.536222,-0.64911 c -3.132664,1.32644 -6.265328,2.032 -6.265328,2.032 l -2.596443,2.17311 0.536222,0.64911 c 0,0 3.07622,-0.70556 6.15244,-2.00378 l 0.366888,0.42333 c 0.987777,1.18534 4.261553,1.524 4.261553,1.524 l 2.596442,-2.17311 -0.536222,-0.64911 c 0,0 -2.681109,-0.28222 -3.922886,-1.21355 z M 74.79026,121.59064 h 0.282222 l -1.439333,1.21355 v 18.31621 l 1.157111,1.41111 h 20.940872 l 5.418658,-4.54377 -1.185328,-1.41111 h -19.75554 v -4.51556 h 10.301103 l 5.39044,-4.54377 -1.15711,-1.41111 H 81.366032 l -1.15711,0.98778 v -5.50333 h 15.52221 l 5.418658,-4.54378 -1.185328,-1.41111 H 79.02359 l -5.390441,4.54378 z m 40.49183,-8.24088 c 2.82222,-0.28223 6.99911,-1.60867 8.91822,-2.70934 l 2.59644,-2.17311 -0.53622,-0.64911 c -1.91911,1.10067 -6.096,2.39889 -8.91822,2.70934 l -2.59644,2.1731 z m -7.5071,8.24088 h 10.5551 l -1.29822,1.07244 v 13.91355 h -5.02355 l -5.39044,4.54377 1.15711,1.41111 h 20.94087 l 5.41866,-4.54377 -1.18533,-1.41111 h -10.75266 l 1.43933,-1.21356 v -13.77243 h 5.08 l 5.41866,-4.54378 -1.18533,-1.41111 h -20.94087 l -5.39044,4.54378 z m 40.32248,-8.24088 c 2.82222,-0.28223 6.9991,-1.60867 8.91821,-2.70934 l 2.59645,-2.17311 -0.53623,-0.64911 c -1.91911,1.10067 -6.09599,2.39889 -8.91821,2.70934 l -2.59644,2.1731 z m -8.49488,14.67554 v 5.24933 c 0,3.75355 0,5.70088 0.84666,6.71688 l 1.18533,1.41111 c 0.93134,1.12889 2.87867,1.12889 6.99911,1.12889 h 5.22111 c 3.75355,0 5.7291,0 6.7451,-0.87489 l 5.39044,-4.51555 c 1.12889,-0.95955 1.12889,-2.90689 1.12889,-6.99911 v -5.24932 c 0,-3.75356 0,-5.70089 -0.84666,-6.74511 l -1.18534,-1.38289 c -0.93133,-1.12889 -2.90688,-1.12889 -6.9991,-1.12889 h -5.24933 c -3.75355,0 -5.70089,0 -6.71689,0.87489 l -5.41866,4.51555 c -1.10066,0.93134 -1.10066,2.90689 -1.10066,6.99911 z m 6.57577,-3.13266 c 0,-1.29823 0,-2.39889 0.0282,-3.302 0.70556,0 1.524,0 2.42711,0 h 5.22111 c 3.24555,0 5.16466,0 6.29355,0.53622 0,1.15711 0.39511,2.99155 0.39511,5.89844 v 5.24933 c 0,1.29822 0,2.39889 -0.0565,3.302 -0.70555,0 -1.49577,0 -2.39888,0 h -5.24933 c -3.24556,0 -5.16466,0 -6.26533,-0.56445 0,-1.12889 -0.39511,-2.96333 -0.39511,-5.87022 z m 35.07317,-15.49399 c 2.82222,-0.28222 6.9991,-1.60867 8.91821,-2.70933 l 2.59645,-2.17311 -0.53623,-0.64911 c -1.91911,1.10066 -6.09599,2.39888 -8.91821,2.70933 l -2.59644,2.17311 z m 7.67644,0.39511 c -0.0282,-0.0282 -0.0564,-0.0847 -0.0564,-0.11289 l -0.53622,-0.64911 c -3.13266,1.32644 -6.26533,2.032 -6.26533,2.032 l -2.59644,2.17311 0.53622,0.64911 c 0,0 3.07622,-0.70556 6.15244,-2.00378 l 0.36689,0.42333 c 0.98778,1.18534 4.26155,1.524 4.26155,1.524 l 2.59644,-2.17311 -0.53622,-0.64911 c 0,0 -2.68111,-0.28222 -3.92288,-1.21355 z m -16.34066,18.23154 v 5.24933 c 0,3.75355 0,5.70088 0.84667,6.71688 l 1.18533,1.41111 c 0.93133,1.12889 2.87866,1.12889 6.99911,1.12889 h 5.2211 c 3.75356,0 5.72911,0 6.74511,-0.87489 l 5.39044,-4.51555 c 1.12889,-0.95955 1.12889,-2.90689 1.12889,-6.99911 v -5.24932 c 0,-3.75356 0,-5.70089 -0.84667,-6.74511 l -1.18533,-1.38289 c -0.93133,-1.12889 -2.90689,-1.12889 -6.99911,-1.12889 h -5.24933 c -3.75355,0 -5.70088,0 -6.71688,0.87489 l -5.41866,4.51555 c -1.10067,0.93134 -1.10067,2.90689 -1.10067,6.99911 z m 6.57577,-3.13266 c 0,-1.29823 0,-2.39889 0.0282,-3.302 0.70555,0 1.524,0 2.42711,0 h 5.2211 c 3.24556,0 5.16467,0 6.29355,0.53622 0,1.15711 0.39511,2.99155 0.39511,5.89844 v 5.24933 c 0,1.29822 0,2.39889 -0.0564,3.302 -0.70555,0 -1.49578,0 -2.39889,0 h -5.24933 c -3.24555,0 -5.16466,0 -6.26532,-0.56445 0,-1.12889 -0.39512,-2.96333 -0.39512,-5.87022 z m 34.90381,-11.54288 c 2.82222,-0.28223 6.99911,-1.60867 8.91822,-2.70934 l 2.59644,-2.17311 -0.53622,-0.64911 c -1.91911,1.10067 -6.096,2.39889 -8.91822,2.70934 l -2.59644,2.1731 z m -1.91911,11.54288 c 0,-1.29823 0,-2.39889 0.0282,-3.302 0.70556,0 1.524,0 2.42711,0 h 5.22111 c 3.24555,0 5.16466,0 6.29355,0.53622 0,1.15711 0.39511,2.99155 0.39511,5.89844 v 5.24933 c 0,1.29822 0,2.39889 -0.0564,3.302 -0.70556,0 -1.49578,0 -2.39889,0 h -5.24933 c -3.24555,0 -5.16466,0 -6.26533,-0.56445 0,-1.12889 -0.39511,-2.96333 -0.39511,-5.87022 z m -6.57577,3.13266 v 5.24933 c 0,3.75355 0,5.70088 0.84666,6.71688 l 1.18534,1.41111 c 0.93133,1.12889 2.87866,1.12889 6.9991,1.12889 h 5.22111 c 3.75355,0 5.72911,0 6.7451,-0.87489 l 5.39044,-4.51555 c 1.12889,-0.95955 1.12889,-2.90689 1.12889,-6.99911 v -5.24932 c 0,-3.75356 0,-5.70089 -0.84666,-6.74511 l -0.19756,-0.19756 c 1.97556,-1.63688 3.92289,-3.27377 5.87022,-4.91066 v -3.38666 l -1.18533,-1.41111 -5.39044,4.54377 v 3.35844 l -0.47978,0.39511 c -1.016,0 -2.99155,-0.90311 -6.80155,-0.90311 h -5.24933 c -3.75355,0 -5.70089,0 -6.71688,0.87489 l -5.41867,4.51555 c -1.10066,0.93134 -1.10066,2.90689 -1.10066,6.99911 z m 41.47962,-14.67554 c 2.82222,-0.28223 6.99911,-1.60867 8.91822,-2.70934 l 2.59644,-2.17311 -0.53622,-0.64911 c -1.91911,1.10067 -6.096,2.39889 -8.91822,2.70934 l -2.59644,2.1731 z m -8.49488,6.82977 v 20.94087 l 1.15711,1.41111 h 18.34443 l 1.524,-1.29822 1.07244,1.29822 5.41866,-4.54377 v -20.94088 l -1.18533,-1.41111 -5.39044,4.54378 v 16.3971 h -14.3651 v -19.52977 l -1.18533,-1.41111 z m 41.47959,-6.82977 c 2.82222,-0.28223 6.99911,-1.60867 8.91822,-2.70934 l 2.59644,-2.17311 -0.53622,-0.64911 c -1.91911,1.10067 -6.096,2.39889 -8.91822,2.70934 l -2.59644,2.1731 z m -8.49488,6.82977 v 20.94087 l 1.15711,1.41111 H 291.043 l 1.524,-1.29822 1.07244,1.29822 5.41866,-4.54377 v -20.91265 c 1.60867,-1.32645 3.21734,-2.68111 4.826,-4.03578 v -3.38666 l -1.18533,-1.41111 -5.39044,4.54377 v 3.33022 l -4.826,4.064 v 16.3971 h -14.3651 v -19.52977 l -1.18533,-1.41111 z m 41.47959,-6.82977 c 2.82222,-0.28223 6.99911,-1.60867 8.91822,-2.70934 l 2.59644,-2.17311 -0.53622,-0.64911 c -1.91911,1.10067 -6.096,2.39889 -8.91822,2.70934 l -2.59644,2.1731 z m 12.44599,6.82977 -5.95488,5.92666 h -8.41022 v -9.05933 l -1.18533,-1.41111 -5.39044,4.54378 v 10.47043 l 1.15711,1.41111 h 7.90222 l -9.05933,9.05933 1.15711,1.41111 5.41866,-4.54377 20.94088,-20.94088 -1.18534,-1.41111 z"
         id="path49" />
      <path
         style="font-weight:bold;font-family:'NewEng Hangeul';-inkscape-font-specification:'NewEng Hangeul Bold';text-align:center;text-anchor:middle"
         d="m -38.719502,162.17416 c -0.507999,-0.39511 -2.596442,-1.83444 -8.918215,-2.70933 l -2.596442,2.17311 0.536221,0.64911 c 6.321773,0.87489 8.410216,2.31422 8.918216,2.70933 l 2.596442,-2.17311 z m -13.010434,26.61354 v -5.92667 h 12.925768 l 1.439332,-1.21355 v 10.27288 l 1.15711,1.41111 5.418663,-4.54377 v -20.94088 l -1.185333,-1.41111 h -18.316208 l -1.552221,1.29822 -1.072443,-1.29822 -5.390441,4.54378 v 20.94087 l 1.157111,1.41111 z m 0,-16.3971 h 14.3651 v 4.51555 h -12.925768 l -1.439332,1.21355 z m 45.9951489,-15.52221 c -0.5079996,-0.39511 -2.5964424,-1.83445 -8.9182149,-2.70933 l -2.596443,2.17311 0.536222,0.64911 c 6.321773,0.87488 8.4102157,2.31422 8.9182153,2.70933 l 2.5964424,-2.17311 z m -3.245553,3.72533 c -0.028222,-0.0282 -0.056444,-0.0847 -0.056444,-0.11289 l -0.5362218,-0.64911 c -3.1326651,1.32644 -6.2653291,2.032 -6.2653291,2.032 l -2.596442,2.17311 0.536222,0.64911 c 0,0 3.076219,-0.70556 6.152439,-2.00378 l 0.366889,0.42333 c 0.987777,1.18534 4.2615525,1.524 4.2615525,1.524 l 2.5964424,-2.17311 -0.5362218,-0.64911 c 0,0 -2.681109,-0.28222 -3.9228862,-1.21355 z m -9.7648809,28.19398 v -5.92667 h 12.9257673 l 1.4393322,-1.21355 v 10.27288 l 1.1571103,1.41111 5.4186624,-4.54377 V 167.84682 L 1.0103188,166.43571 H -17.305889 l -1.552221,1.29822 -1.072444,-1.29822 -5.39044,4.54378 v 20.94087 l 1.15711,1.41111 z m 0,-16.3971 h 14.3650995 v 4.51555 H -17.305889 l -1.439332,1.21355 z m 44.188928,-14.67555 c -0.508,-0.39511 -2.596443,-1.83444 -8.918216,-2.70933 l -2.596442,2.17311 0.536222,0.64911 c 6.321773,0.87489 8.410215,2.31422 8.918215,2.70933 l 2.596442,-2.17311 z m -4.74133,7.28133 c 1.495777,0 2.850442,-0.47978 3.809997,-1.27 l 2.596442,-2.17311 c 0.874889,-0.762 1.439333,-1.80622 1.439333,-3.01977 l -0.564444,-0.64911 -2.596443,2.17311 c 0,0.62088 -0.141111,1.21355 -0.395111,1.72155 -0.677332,0.254 -1.439332,0.39511 -2.229553,0.39511 0,0 -0.479778,0 -0.649111,0 -1.467554,0 -2.765776,-0.53622 -3.640664,-1.35467 -0.338666,-0.50799 -0.508,-1.07244 -0.508,-1.69333 l -0.564444,-0.64911 -2.596442,2.17311 c 0,0.762 0.282222,1.43933 0.790222,2.032 l 0.536221,0.64911 c 0.846666,1.016 2.285999,1.66511 3.922886,1.66511 0.169334,0 0.649111,0 0.649111,0 z m -6.462884,23.79132 v -5.92667 h 12.925768 l 1.439332,-1.21355 v 10.27288 l 1.15711,1.41111 5.418663,-4.54377 v -20.94088 l -1.185333,-1.41111 H 15.678825 l -1.552221,1.29822 -1.072443,-1.29822 -5.3904406,4.54378 v 20.94087 l 1.1571102,1.41111 z m 0,-16.3971 h 14.3651 v 4.51555 H 15.678825 l -1.439332,1.21355 z m 45.995153,-10.21644 c -0.508,-0.39511 -2.596443,-1.83444 -8.918216,-2.70933 l -2.596442,2.17311 0.536222,0.64911 c 6.321773,0.87489 8.410216,2.31422 8.918215,2.70933 l 2.596443,-2.17311 z M 41.805549,172.3906 h 0.282222 l -1.439332,1.21355 v 18.31621 l 1.15711,1.41111 h 20.940873 l 5.418662,-4.54377 -1.185332,-1.41111 H 47.224211 v -4.51556 h 10.301104 l 5.39044,-4.54377 -1.15711,-1.41111 H 48.381322 l -1.157111,0.98778 v -5.50333 h 15.522211 l 5.418662,-4.54378 -1.185332,-1.41111 H 46.038879 l -5.39044,4.54378 z M 93.38869,157.71505 c -0.508,-0.39511 -2.596443,-1.83444 -8.918216,-2.70933 l -2.596442,2.17311 0.536222,0.64911 c 6.321773,0.87489 8.410215,2.31422 8.918215,2.70933 l 2.596442,-2.17311 z m -3.414887,2.87867 c -0.02822,-0.0282 -0.05644,-0.0847 -0.05644,-0.11289 l -0.536222,-0.64911 c -3.132664,1.32644 -6.265328,2.032 -6.265328,2.032 l -2.596443,2.17311 0.536222,0.64911 c 0,0 3.07622,-0.70556 6.15244,-2.00378 l 0.366888,0.42333 c 0.987777,1.18534 4.261553,1.524 4.261553,1.524 l 2.596442,-2.17311 -0.536222,-0.64911 c 0,0 -2.681109,-0.28222 -3.922886,-1.21355 z M 74.79026,172.3906 h 0.282222 l -1.439333,1.21355 v 18.31621 l 1.157111,1.41111 h 20.940872 l 5.418658,-4.54377 -1.185328,-1.41111 h -19.75554 v -4.51556 h 10.301103 l 5.39044,-4.54377 -1.15711,-1.41111 H 81.366032 l -1.15711,0.98778 v -5.50333 h 15.52221 l 5.418658,-4.54378 -1.185328,-1.41111 H 79.02359 l -5.390441,4.54378 z m 51.58316,-10.21644 c -0.508,-0.39511 -2.59645,-1.83444 -8.91822,-2.70933 l -2.59644,2.17311 0.53622,0.64911 c 6.32177,0.87489 8.41022,2.31422 8.91821,2.70933 l 2.59645,-2.17311 z m -18.59843,10.21644 h 10.5551 l -1.29822,1.07244 v 13.91355 h -5.02355 l -5.39044,4.54377 1.15711,1.41111 h 20.94087 l 5.41866,-4.54377 -1.18533,-1.41111 h -10.75266 l 1.43933,-1.21356 V 172.3906 h 5.08 l 5.41866,-4.54378 -1.18533,-1.41111 h -20.94087 l -5.39044,4.54378 z m 51.4138,-10.21644 c -0.508,-0.39511 -2.59644,-1.83444 -8.91821,-2.70933 l -2.59644,2.17311 0.53622,0.64911 c 6.32177,0.87489 8.41021,2.31422 8.91821,2.70933 l 2.59644,-2.17311 z m -19.5862,16.6511 v 5.24933 c 0,3.75355 0,5.70088 0.84666,6.71688 l 1.18533,1.41111 c 0.93134,1.12889 2.87867,1.12889 6.99911,1.12889 h 5.22111 c 3.75355,0 5.7291,0 6.7451,-0.87489 l 5.39044,-4.51555 c 1.12889,-0.95956 1.12889,-2.90689 1.12889,-6.99911 v -5.24933 c 0,-3.75355 0,-5.70088 -0.84666,-6.7451 l -1.18534,-1.38289 c -0.93133,-1.12889 -2.90688,-1.12889 -6.9991,-1.12889 h -5.24933 c -3.75355,0 -5.70089,0 -6.71689,0.87489 l -5.41866,4.51555 c -1.10066,0.93134 -1.10066,2.90689 -1.10066,6.99911 z m 6.57577,-3.13267 c 0,-1.29822 0,-2.39888 0.0282,-3.30199 0.70556,0 1.524,0 2.42711,0 h 5.22111 c 3.24555,0 5.16466,0 6.29355,0.53622 0,1.15711 0.39511,2.99155 0.39511,5.89844 v 5.24933 c 0,1.29822 0,2.39889 -0.0565,3.302 -0.70555,0 -1.49577,0 -2.39888,0 h -5.24933 c -3.24556,0 -5.16466,0 -6.26533,-0.56445 0,-1.12889 -0.39511,-2.96333 -0.39511,-5.87022 z m 45.99516,-18.8242 c -0.508,-0.39511 -2.59644,-1.83445 -8.91822,-2.70933 l -2.59644,2.17311 0.53622,0.64911 c 6.32178,0.87488 8.41022,2.31422 8.91822,2.70933 l 2.59644,-2.17311 z m -3.24555,3.72533 c -0.0282,-0.0282 -0.0564,-0.0847 -0.0564,-0.11289 l -0.53622,-0.64911 c -3.13266,1.32644 -6.26533,2.032 -6.26533,2.032 l -2.59644,2.17311 0.53622,0.64911 c 0,0 3.07622,-0.70556 6.15244,-2.00378 l 0.36689,0.42333 c 0.98778,1.18534 4.26155,1.524 4.26155,1.524 l 2.59644,-2.17311 -0.53622,-0.64911 c 0,0 -2.68111,-0.28222 -3.92288,-1.21355 z m -16.34066,18.23154 v 5.24933 c 0,3.75355 0,5.70088 0.84667,6.71688 l 1.18533,1.41111 c 0.93133,1.12889 2.87866,1.12889 6.99911,1.12889 h 5.2211 c 3.75356,0 5.72911,0 6.74511,-0.87489 l 5.39044,-4.51555 c 1.12889,-0.95956 1.12889,-2.90689 1.12889,-6.99911 v -5.24933 c 0,-3.75355 0,-5.70088 -0.84667,-6.7451 l -1.18533,-1.38289 c -0.93133,-1.12889 -2.90689,-1.12889 -6.99911,-1.12889 h -5.24933 c -3.75355,0 -5.70088,0 -6.71688,0.87489 l -5.41866,4.51555 c -1.10067,0.93134 -1.10067,2.90689 -1.10067,6.99911 z m 6.57577,-3.13267 c 0,-1.29822 0,-2.39888 0.0282,-3.30199 0.70555,0 1.524,0 2.42711,0 h 5.2211 c 3.24556,0 5.16467,0 6.29355,0.53622 0,1.15711 0.39511,2.99155 0.39511,5.89844 v 5.24933 c 0,1.29822 0,2.39889 -0.0564,3.302 -0.70555,0 -1.49578,0 -2.39889,0 h -5.24933 c -3.24555,0 -5.16466,0 -6.26532,-0.56445 0,-1.12889 -0.39512,-2.96333 -0.39512,-5.87022 z m 45.99513,-13.51843 c -0.508,-0.39511 -2.59644,-1.83444 -8.91821,-2.70933 l -2.59644,2.17311 0.53622,0.64911 c 6.32177,0.87489 8.41021,2.31422 8.91821,2.70933 l 2.59645,-2.17311 z m -13.01043,13.51843 c 0,-1.29822 0,-2.39888 0.0282,-3.30199 0.70556,0 1.524,0 2.42711,0 h 5.22111 c 3.24555,0 5.16466,0 6.29355,0.53622 0,1.15711 0.39511,2.99155 0.39511,5.89844 v 5.24933 c 0,1.29822 0,2.39889 -0.0564,3.302 -0.70556,0 -1.49578,0 -2.39889,0 h -5.24933 c -3.24555,0 -5.16466,0 -6.26533,-0.56445 0,-1.12889 -0.39511,-2.96333 -0.39511,-5.87022 z m -6.57577,3.13267 v 5.24933 c 0,3.75355 0,5.70088 0.84666,6.71688 l 1.18534,1.41111 c 0.93133,1.12889 2.87866,1.12889 6.9991,1.12889 h 5.22111 c 3.75355,0 5.72911,0 6.7451,-0.87489 l 5.39044,-4.51555 c 1.12889,-0.95956 1.12889,-2.90689 1.12889,-6.99911 v -5.24933 c 0,-3.75355 0,-5.70088 -0.84666,-6.7451 l -0.19756,-0.19756 c 1.97556,-1.63688 3.92289,-3.27377 5.87022,-4.91066 v -3.38666 l -1.18533,-1.41111 -5.39044,4.54377 v 3.35844 l -0.47978,0.39511 c -1.016,0 -2.99155,-0.90311 -6.80155,-0.90311 h -5.24933 c -3.75355,0 -5.70089,0 -6.71688,0.87489 l -5.41867,4.51555 c -1.10066,0.93134 -1.10066,2.90689 -1.10066,6.99911 z m 52.57095,-16.6511 c -0.508,-0.39511 -2.59645,-1.83444 -8.91822,-2.70933 l -2.59644,2.17311 0.53622,0.64911 c 6.32177,0.87489 8.41022,2.31422 8.91822,2.70933 l 2.59644,-2.17311 z m -19.58621,8.80533 v 20.94087 l 1.15711,1.41111 h 18.34443 l 1.524,-1.29822 1.07244,1.29822 5.41866,-4.54377 v -20.94088 l -1.18533,-1.41111 -5.39044,4.54378 v 16.3971 h -14.3651 v -19.52977 l -1.18533,-1.41111 z m 52.57092,-8.80533 c -0.508,-0.39511 -2.59645,-1.83444 -8.91822,-2.70933 l -2.59644,2.17311 0.53622,0.64911 c 6.32177,0.87489 8.41022,2.31422 8.91822,2.70933 l 2.59644,-2.17311 z m -19.58621,8.80533 v 20.94087 l 1.15711,1.41111 H 291.043 l 1.524,-1.29822 1.07244,1.29822 5.41866,-4.54377 v -20.91265 c 1.60867,-1.32645 3.21734,-2.68111 4.826,-4.03578 v -3.38666 l -1.18533,-1.41111 -5.39044,4.54377 v 3.33022 l -4.826,4.064 v 16.3971 h -14.3651 v -19.52977 l -1.18533,-1.41111 z m 52.74025,-8.80533 c -0.508,-0.39511 -2.59644,-1.83444 -8.91822,-2.70933 l -2.59644,2.17311 0.53622,0.64911 c 6.32178,0.87489 8.41022,2.31422 8.91822,2.70933 l 2.59644,-2.17311 z m 1.18533,8.80533 -5.95488,5.92666 h -8.41022 v -9.05933 l -1.18533,-1.41111 -5.39044,4.54378 v 10.47043 l 1.15711,1.41111 h 7.90222 l -9.05933,9.05933 1.15711,1.41111 5.41866,-4.54377 20.94088,-20.94088 -1.18534,-1.41111 z"
         id="path50" />
      <path
         style="font-weight:bold;font-family:'NewEng Hangeul';-inkscape-font-specification:'NewEng Hangeul Bold';text-align:center;text-anchor:middle"
         d="m -42.783498,210.85745 -2.511776,3.69711 0.536222,0.64911 2.596442,-2.17311 2.963331,-4.34621 -0.536222,-0.64912 h -6.208884 l -2.596442,2.17311 0.536221,0.64911 z m -8.946438,28.7302 v -5.92666 h 12.925768 l 1.439332,-1.21355 v 10.27288 l 1.15711,1.41111 5.418663,-4.54378 v -20.94087 l -1.185333,-1.41111 h -18.316208 l -1.552221,1.29822 -1.072443,-1.29822 -5.390441,4.54378 v 20.94087 l 1.157111,1.41111 z m 0,-16.39709 h 14.3651 v 4.51555 h -12.925768 l -1.439332,1.21355 z m 41.7618189,-17.63888 -2.5117759,3.69711 0.536222,0.64911 2.5964423,-2.17311 2.963331,-4.34622 -0.5362218,-0.64911 h -6.2088845 l -2.596442,2.17311 0.536222,0.64911 z m 0.987777,5.842 c -0.028222,-0.0282 -0.056444,-0.0847 -0.056444,-0.11289 l -0.5362218,-0.64911 c -3.1326651,1.32644 -6.2653291,2.032 -6.2653291,2.032 l -2.596442,2.17311 0.536222,0.64911 c 0,0 3.076219,-0.70556 6.152439,-2.00378 l 0.366889,0.42333 c 0.987777,1.18533 4.2615525,1.524 4.2615525,1.524 l 2.5964424,-2.17311 -0.5362218,-0.64911 c 0,0 -2.681109,-0.28222 -3.9228862,-1.21355 z m -9.7648809,28.19397 v -5.92666 h 12.9257673 l 1.4393322,-1.21355 v 10.27288 l 1.1571103,1.41111 5.4186624,-4.54378 V 218.64678 L 1.0103188,217.23567 H -17.305889 l -1.552221,1.29822 -1.072444,-1.29822 -5.39044,4.54378 v 20.94087 l 1.15711,1.41111 z m 0,-16.39709 h 14.3650995 v 4.51555 H -17.305889 l -1.439332,1.21355 z m 41.931152,-16.22777 -2.511776,3.69711 0.536222,0.64911 2.596442,-2.17311 2.963331,-4.34622 -0.536222,-0.64911 h -6.208884 l -2.596442,2.17311 0.536221,0.64911 z m -2.483554,8.83355 c 1.495777,0 2.850442,-0.47978 3.809997,-1.27 l 2.596442,-2.17311 c 0.874889,-0.762 1.439333,-1.80622 1.439333,-3.01977 l -0.564444,-0.64911 -2.596443,2.1731 c 0,0.62089 -0.141111,1.21356 -0.395111,1.72156 -0.677332,0.254 -1.439332,0.39511 -2.229553,0.39511 0,0 -0.479778,0 -0.649111,0 -1.467554,0 -2.765776,-0.53622 -3.640664,-1.35467 -0.338666,-0.508 -0.508,-1.07244 -0.508,-1.69333 l -0.564444,-0.64911 -2.596442,2.17311 c 0,0.762 0.282222,1.43933 0.790222,2.032 l 0.536221,0.64911 c 0.846666,1.016 2.285999,1.66511 3.922886,1.66511 0.169334,0 0.649111,0 0.649111,0 z m -6.462884,23.79131 v -5.92666 h 12.925768 l 1.439332,-1.21355 v 10.27288 l 1.15711,1.41111 5.418663,-4.54378 v -20.94087 l -1.185333,-1.41111 H 15.678825 l -1.552221,1.29822 -1.072443,-1.29822 -5.3904406,4.54378 v 20.94087 l 1.1571102,1.41111 z m 0,-16.39709 h 14.3651 v 4.51555 H 15.678825 l -1.439332,1.21355 z m 41.931156,-12.33311 -2.511776,3.69711 0.536222,0.64911 2.596442,-2.17311 2.963331,-4.34621 -0.536221,-0.64912 h -6.208885 l -2.596442,2.17311 0.536222,0.64911 z m -14.3651,12.33311 h 0.282222 l -1.439332,1.21355 v 18.31621 l 1.15711,1.41111 h 20.940873 l 5.418662,-4.54378 -1.185332,-1.41111 H 47.224211 v -4.51555 h 10.301104 l 5.39044,-4.54377 -1.15711,-1.41111 H 48.381322 l -1.157111,0.98778 v -5.50333 h 15.522211 l 5.418662,-4.54378 -1.185332,-1.41111 H 46.038879 l -5.39044,4.54378 z m 47.349811,-17.07443 -2.511776,3.6971 0.536222,0.64911 2.596442,-2.17311 2.963331,-4.34621 -0.536222,-0.64911 h -6.208884 l -2.596442,2.1731 0.536222,0.64912 z m 0.818443,5.27755 c -0.02822,-0.0282 -0.05644,-0.0847 -0.05644,-0.11289 l -0.536222,-0.64911 c -3.132664,1.32644 -6.265328,2.032 -6.265328,2.032 l -2.596443,2.17311 0.536222,0.64911 c 0,0 3.07622,-0.70556 6.15244,-2.00378 l 0.366888,0.42333 c 0.987777,1.18533 4.261553,1.524 4.261553,1.524 l 2.596442,-2.17311 -0.536222,-0.64911 c 0,0 -2.681109,-0.28222 -3.922886,-1.21355 z M 74.79026,223.19056 h 0.282222 l -1.439333,1.21355 v 18.31621 l 1.157111,1.41111 h 20.940872 l 5.418658,-4.54378 -1.185328,-1.41111 h -19.75554 v -4.51555 h 10.301103 l 5.39044,-4.54377 -1.15711,-1.41111 H 81.366032 l -1.15711,0.98778 v -5.50333 h 15.52221 l 5.418658,-4.54378 -1.185328,-1.41111 H 79.02359 l -5.390441,4.54378 z m 47.34983,-12.33311 -2.51178,3.69711 0.53622,0.64911 2.59644,-2.17311 2.96333,-4.34621 -0.53622,-0.64912 h -6.20888 l -2.59644,2.17311 0.53622,0.64911 z m -14.3651,12.33311 h 10.5551 l -1.29822,1.07244 v 13.91354 h -5.02355 l -5.39044,4.54378 1.15711,1.41111 h 20.94087 l 5.41866,-4.54378 -1.18533,-1.41111 h -10.75266 l 1.43933,-1.21355 v -13.77243 h 5.08 l 5.41866,-4.54378 -1.18533,-1.41111 h -20.94087 l -5.39044,4.54378 z m 47.34981,-12.33311 -2.51178,3.69711 0.53622,0.64911 2.59644,-2.17311 2.96334,-4.34621 -0.53623,-0.64912 h -6.20888 l -2.59644,2.17311 0.53622,0.64911 z m -15.52221,18.76777 v 5.24933 c 0,3.75355 0,5.70088 0.84666,6.71688 l 1.18533,1.41111 c 0.93134,1.12889 2.87867,1.12889 6.99911,1.12889 h 5.22111 c 3.75355,0 5.7291,0 6.7451,-0.87489 l 5.39044,-4.51555 c 1.12889,-0.95956 1.12889,-2.90689 1.12889,-6.99911 v -5.24933 c 0,-3.75355 0,-5.70088 -0.84666,-6.7451 l -1.18534,-1.38289 c -0.93133,-1.12889 -2.90688,-1.12889 -6.9991,-1.12889 h -5.24933 c -3.75355,0 -5.70089,0 -6.71689,0.87489 l -5.41866,4.51555 c -1.10066,0.93134 -1.10066,2.90689 -1.10066,6.99911 z m 6.57577,-3.13267 c 0,-1.29822 0,-2.39888 0.0282,-3.30199 0.70556,0 1.524,0 2.42711,0 h 5.22111 c 3.24555,0 5.16466,0 6.29355,0.53622 0,1.15711 0.39511,2.99155 0.39511,5.89844 v 5.24933 c 0,1.29822 0,2.39888 -0.0565,3.30199 -0.70555,0 -1.49577,0 -2.39888,0 h -5.24933 c -3.24556,0 -5.16466,0 -6.26533,-0.56444 0,-1.12889 -0.39511,-2.96333 -0.39511,-5.87022 z m 41.93116,-19.5862 -2.51177,3.69711 0.53622,0.64911 2.59644,-2.17311 2.96333,-4.34622 -0.53622,-0.64911 h -6.20888 l -2.59645,2.17311 0.53623,0.64911 z m 0.81845,4.48733 c -0.0282,-0.0282 -0.0564,-0.0847 -0.0564,-0.11289 l -0.53622,-0.64911 c -3.13266,1.32644 -6.26533,2.032 -6.26533,2.032 l -2.59644,2.17311 0.53622,0.64911 c 0,0 3.07622,-0.70556 6.15244,-2.00378 l 0.36689,0.42333 c 0.98778,1.18533 4.26155,1.524 4.26155,1.524 l 2.59644,-2.17311 -0.53622,-0.64911 c 0,0 -2.68111,-0.28222 -3.92288,-1.21355 z m -16.34066,18.23154 v 5.24933 c 0,3.75355 0,5.70088 0.84667,6.71688 l 1.18533,1.41111 c 0.93133,1.12889 2.87866,1.12889 6.99911,1.12889 h 5.2211 c 3.75356,0 5.72911,0 6.74511,-0.87489 l 5.39044,-4.51555 c 1.12889,-0.95956 1.12889,-2.90689 1.12889,-6.99911 v -5.24933 c 0,-3.75355 0,-5.70088 -0.84667,-6.7451 l -1.18533,-1.38289 c -0.93133,-1.12889 -2.90689,-1.12889 -6.99911,-1.12889 h -5.24933 c -3.75355,0 -5.70088,0 -6.71688,0.87489 l -5.41866,4.51555 c -1.10067,0.93134 -1.10067,2.90689 -1.10067,6.99911 z m 6.57577,-3.13267 c 0,-1.29822 0,-2.39888 0.0282,-3.30199 0.70555,0 1.524,0 2.42711,0 h 5.2211 c 3.24556,0 5.16467,0 6.29355,0.53622 0,1.15711 0.39511,2.99155 0.39511,5.89844 v 5.24933 c 0,1.29822 0,2.39888 -0.0564,3.30199 -0.70555,0 -1.49578,0 -2.39889,0 h -5.24933 c -3.24555,0 -5.16466,0 -6.26532,-0.56444 0,-1.12889 -0.39512,-2.96333 -0.39512,-5.87022 z m 41.7618,-15.6351 -2.51177,3.69711 0.53622,0.64911 2.59644,-2.17311 2.96333,-4.34621 -0.53622,-0.64912 H 217.764 l -2.59644,2.17311 0.53622,0.64911 z m -8.7771,15.6351 c 0,-1.29822 0,-2.39888 0.0282,-3.30199 0.70556,0 1.524,0 2.42711,0 h 5.22111 c 3.24555,0 5.16466,0 6.29355,0.53622 0,1.15711 0.39511,2.99155 0.39511,5.89844 v 5.24933 c 0,1.29822 0,2.39888 -0.0564,3.30199 -0.70556,0 -1.49578,0 -2.39889,0 h -5.24933 c -3.24555,0 -5.16466,0 -6.26533,-0.56444 0,-1.12889 -0.39511,-2.96333 -0.39511,-5.87022 z m -6.57577,3.13267 v 5.24933 c 0,3.75355 0,5.70088 0.84666,6.71688 l 1.18534,1.41111 c 0.93133,1.12889 2.87866,1.12889 6.9991,1.12889 h 5.22111 c 3.75355,0 5.72911,0 6.7451,-0.87489 l 5.39044,-4.51555 c 1.12889,-0.95956 1.12889,-2.90689 1.12889,-6.99911 v -5.24933 c 0,-3.75355 0,-5.70088 -0.84666,-6.7451 l -0.19756,-0.19756 c 1.97556,-1.63688 3.92289,-3.27377 5.87022,-4.91066 v -3.38666 l -1.18533,-1.41111 -5.39044,4.54377 v 3.35844 l -0.47978,0.39511 c -1.016,0 -2.99155,-0.90311 -6.80155,-0.90311 h -5.24933 c -3.75355,0 -5.70089,0 -6.71688,0.87489 l -5.41867,4.51555 c -1.10066,0.93134 -1.10066,2.90689 -1.10066,6.99911 z m 48.50695,-18.76777 -2.51178,3.69711 0.53622,0.64911 2.59645,-2.17311 2.96333,-4.34621 -0.53622,-0.64912 h -6.20889 l -2.59644,2.17311 0.53622,0.64911 z m -15.52221,10.922 v 20.94087 l 1.15711,1.41111 h 18.34443 l 1.524,-1.29822 1.07244,1.29822 5.41866,-4.54378 v -20.94087 l -1.18533,-1.41111 -5.39044,4.54378 v 16.39709 h -14.3651 v -19.52976 l -1.18533,-1.41111 z m 48.33759,-10.922 -2.51178,3.69711 0.53622,0.64911 2.59644,-2.17311 2.96334,-4.34621 -0.53623,-0.64912 h -6.20888 l -2.59644,2.17311 0.53622,0.64911 z m -15.35288,10.922 v 20.94087 l 1.15711,1.41111 H 291.043 l 1.524,-1.29822 1.07244,1.29822 5.41866,-4.54378 V 218.675 c 1.60867,-1.32644 3.21734,-2.6811 4.826,-4.03577 v -3.38666 l -1.18533,-1.41111 -5.39044,4.54377 v 3.33022 l -4.826,4.064 v 16.39709 h -14.3651 v -19.52976 l -1.18533,-1.41111 z m 48.50692,-10.922 -2.51178,3.69711 0.53623,0.64911 2.59644,-2.17311 2.96333,-4.34621 -0.53622,-0.64912 h -6.20889 l -2.59644,2.17311 0.53622,0.64911 z m 5.41866,10.922 -5.95488,5.92666 h -8.41022 v -9.05933 l -1.18533,-1.41111 -5.39044,4.54378 v 10.47043 l 1.15711,1.41111 h 7.90222 l -9.05933,9.05933 1.15711,1.41111 5.41866,-4.54378 20.94088,-20.94087 -1.18534,-1.41111 z"
         id="path51" />
      <path
         style="font-weight:bold;font-family:'NewEng Hangeul';-inkscape-font-specification:'NewEng Hangeul Bold';text-align:center;text-anchor:middle"
         d="m -47.468384,259.25853 c -0.790221,0 -1.382888,0.22577 -1.806221,0.56444 l -2.596442,2.17311 c -0.508,0.45156 -0.733777,1.04422 -0.733777,1.66511 0,0.47978 0.141111,0.98778 0.479777,1.38289 l 0.536222,0.64911 c 0.395111,0.45155 1.044221,0.79022 1.890887,0.79022 l 2.596443,-2.17311 -0.536222,-0.64911 c -0.677333,0 -1.185332,-0.19755 -1.580443,-0.508 -0.169333,-0.31044 -0.254,-0.67733 -0.254,-1.016 0,-0.0282 0,-0.0564 0,-0.0564 2.060221,0.0564 4.402663,4.40266 7.789327,4.40266 0.762,0 1.354666,-0.22578 1.777999,-0.59267 l 2.596442,-2.17311 c 0.508,-0.42333 0.762,-1.01599 0.762,-1.63688 0,-0.47978 -0.169333,-0.95956 -0.479778,-1.35467 l -0.564444,-0.64911 c -0.39511,-0.47978 -1.072443,-0.81844 -2.031998,-0.81844 l -2.596442,2.17311 0.536221,0.64911 c 0.762,0 1.326444,0.19755 1.749777,0.53622 0.169333,0.31044 0.254,0.64911 0.254,0.98778 0,0.0282 0,0.0282 0,0.0564 -3.386664,-0.0564 -5.729107,-4.40266 -7.789328,-4.40266 z m -4.261552,31.12908 v -5.92666 h 12.925768 l 1.439332,-1.21355 v 10.27288 l 1.15711,1.41111 5.418663,-4.54378 v -20.94087 l -1.185333,-1.41111 h -18.316208 l -1.552221,1.29822 -1.072443,-1.29822 -5.390441,4.54378 v 20.94087 l 1.157111,1.41111 z m 0,-16.39709 h 14.3651 v 4.51555 h -12.925768 l -1.439332,1.21355 z m 38.459821,-20.03777 c -0.790221,0 -1.382887,0.22578 -1.80622,0.56445 l -2.596443,2.17311 c -0.507999,0.45155 -0.733777,1.04422 -0.733777,1.66511 0,0.47977 0.141111,0.98777 0.479777,1.38288 l 0.536222,0.64912 c 0.395111,0.45155 1.044222,0.79022 1.890888,0.79022 l 2.596442,-2.17311 -0.536222,-0.64911 c -0.677333,0 -1.185332,-0.19756 -1.580443,-0.508 -0.169333,-0.31045 -0.254,-0.67734 -0.254,-1.016 0,-0.0282 0,-0.0564 0,-0.0564 2.060221,0.0564 4.402663,4.40267 7.7893275,4.40267 0.7619994,0 1.3546656,-0.22578 1.7779986,-0.59267 l 2.5964425,-2.17311 c 0.5079996,-0.42333 0.7619994,-1.016 0.7619994,-1.63689 0,-0.47977 -0.1693332,-0.95955 -0.4797774,-1.35466 l -0.564444,-0.64911 c -0.3951109,-0.47978 -1.0724437,-0.81845 -2.0319985,-0.81845 l -2.5964424,2.17311 0.5362218,0.64911 c 0.7619994,0 1.3264434,0.19756 1.7497764,0.53623 0.1693332,0.31044 0.2539998,0.64911 0.2539998,0.98777 0,0.0282 0,0.0282 0,0.0564 -3.386664,-0.0564 -5.7291067,-4.40267 -7.7893277,-4.40267 z m 4.2897749,8.24089 c -0.028222,-0.0282 -0.056444,-0.0847 -0.056444,-0.11289 l -0.5362218,-0.64911 c -3.1326651,1.32644 -6.2653291,2.032 -6.2653291,2.032 l -2.596442,2.1731 0.536222,0.64912 c 0,0 3.076219,-0.70556 6.152439,-2.00378 l 0.366889,0.42333 c 0.987777,1.18533 4.2615525,1.524 4.2615525,1.524 l 2.5964424,-2.17311 -0.5362218,-0.64911 c 0,0 -2.681109,-0.28222 -3.9228862,-1.21355 z m -9.7648809,28.19397 v -5.92666 h 12.9257673 l 1.4393322,-1.21355 v 10.27288 l 1.1571103,1.41111 5.4186624,-4.54378 V 269.44674 L 1.0103188,268.03563 H -17.305889 l -1.552221,1.29822 -1.072444,-1.29822 -5.39044,4.54378 v 20.94087 l 1.15711,1.41111 z m 0,-16.39709 h 14.3650995 v 4.51555 H -17.305889 l -1.439332,1.21355 z m 37.4156,-21.16665 c -0.790222,0 -1.382888,0.22577 -1.806221,0.56444 l -2.596443,2.17311 c -0.507999,0.45155 -0.733777,1.04422 -0.733777,1.66511 0,0.47978 0.141111,0.98778 0.479777,1.38289 l 0.536222,0.64911 c 0.395111,0.45155 1.044222,0.79022 1.890888,0.79022 l 2.596442,-2.17311 -0.536222,-0.64911 c -0.677333,0 -1.185332,-0.19756 -1.580443,-0.508 -0.169333,-0.31044 -0.254,-0.67733 -0.254,-1.016 0,-0.0282 0,-0.0564 0,-0.0564 2.060221,0.0564 4.402664,4.40266 7.789328,4.40266 0.761999,0 1.354665,-0.22578 1.777998,-0.59267 l 2.596443,-2.17311 c 0.507999,-0.42333 0.761999,-1.016 0.761999,-1.63688 0,-0.47978 -0.169333,-0.95956 -0.479777,-1.35467 l -0.564444,-0.64911 c -0.395111,-0.47978 -1.072444,-0.81844 -2.031999,-0.81844 l -2.596442,2.1731 0.536222,0.64912 c 0.761999,0 1.326443,0.19755 1.749776,0.53622 0.169333,0.31044 0.254,0.64911 0.254,0.98777 0,0.0282 0,0.0282 0,0.0565 -3.386664,-0.0565 -5.729107,-4.40266 -7.789327,-4.40266 z m 2.031998,13.77243 c 1.495777,0 2.850442,-0.47978 3.809997,-1.27 l 2.596442,-2.17311 c 0.874889,-0.762 1.439333,-1.80622 1.439333,-3.01977 l -0.564444,-0.64912 -2.596443,2.17311 c 0,0.62089 -0.141111,1.21356 -0.395111,1.72156 -0.677332,0.254 -1.439332,0.39511 -2.229553,0.39511 0,0 -0.479778,0 -0.649111,0 -1.467554,0 -2.765776,-0.53622 -3.640664,-1.35467 -0.338666,-0.508 -0.508,-1.07244 -0.508,-1.69333 l -0.564444,-0.64911 -2.596442,2.17311 c 0,0.762 0.282222,1.43933 0.790222,2.032 l 0.536221,0.64911 c 0.846666,1.016 2.285999,1.66511 3.922886,1.66511 0.169334,0 0.649111,0 0.649111,0 z m -6.462884,23.79131 v -5.92666 h 12.925768 l 1.439332,-1.21355 v 10.27288 l 1.15711,1.41111 5.418663,-4.54378 v -20.94087 l -1.185333,-1.41111 H 15.678825 l -1.552221,1.29822 -1.072443,-1.29822 -5.3904406,4.54378 v 20.94087 l 1.1571102,1.41111 z m 0,-16.39709 h 14.3651 v 4.51555 H 15.678825 l -1.439332,1.21355 z m 37.415604,-14.73199 c -0.790222,0 -1.382888,0.22577 -1.806221,0.56444 l -2.596442,2.17311 c -0.508,0.45156 -0.733778,1.04422 -0.733778,1.66511 0,0.47978 0.141111,0.98778 0.479778,1.38289 l 0.536222,0.64911 c 0.39511,0.45155 1.044221,0.79022 1.890887,0.79022 l 2.596442,-2.17311 -0.536221,-0.64911 c -0.677333,0 -1.185333,-0.19755 -1.580444,-0.508 -0.169333,-0.31044 -0.253999,-0.67733 -0.253999,-1.016 0,-0.0282 0,-0.0564 0,-0.0564 2.06022,0.0564 4.402663,4.40266 7.789327,4.40266 0.761999,0 1.354666,-0.22578 1.777999,-0.59267 l 2.596442,-2.17311 c 0.508,-0.42333 0.761999,-1.01599 0.761999,-1.63688 0,-0.47978 -0.169333,-0.95956 -0.479777,-1.35467 l -0.564444,-0.64911 c -0.395111,-0.47978 -1.072444,-0.81844 -2.031998,-0.81844 l -2.596443,2.17311 0.536222,0.64911 c 0.761999,0 1.326443,0.19755 1.749776,0.53622 0.169334,0.31044 0.254,0.64911 0.254,0.98778 0,0.0282 0,0.0282 0,0.0564 -3.386664,-0.0564 -5.729107,-4.40266 -7.789327,-4.40266 z m -9.849548,14.73199 h 0.282222 l -1.439332,1.21355 v 18.31621 l 1.15711,1.41111 h 20.940873 l 5.418662,-4.54378 -1.185332,-1.41111 H 47.224211 v -4.51555 h 10.301104 l 5.39044,-4.54377 -1.15711,-1.41111 H 48.381322 l -1.157111,0.98777 v -5.50332 h 15.522211 l 5.418662,-4.54378 -1.185332,-1.41111 H 46.038879 l -5.39044,4.54378 z m 42.834259,-20.03777 c -0.790222,0 -1.382888,0.22578 -1.806221,0.56445 l -2.596443,2.17311 c -0.507999,0.45155 -0.733777,1.04422 -0.733777,1.66511 0,0.47977 0.141111,0.98777 0.479777,1.38288 l 0.536222,0.64912 c 0.395111,0.45155 1.044222,0.79022 1.890888,0.79022 l 2.596442,-2.17311 -0.536222,-0.64911 c -0.677332,0 -1.185332,-0.19756 -1.580443,-0.508 -0.169333,-0.31045 -0.254,-0.67734 -0.254,-1.016 0,-0.0282 0,-0.0564 0,-0.0564 2.060221,0.0564 4.402664,4.40267 7.789328,4.40267 0.761999,0 1.354665,-0.22578 1.777998,-0.59267 l 2.596443,-2.17311 c 0.507999,-0.42333 0.761999,-1.016 0.761999,-1.63689 0,-0.47977 -0.169333,-0.95955 -0.479777,-1.35466 l -0.564444,-0.64911 c -0.395111,-0.47978 -1.072444,-0.81845 -2.031999,-0.81845 l -2.596442,2.17311 0.536222,0.64911 c 0.761999,0 1.326443,0.19756 1.749776,0.53623 0.169333,0.31044 0.254,0.64911 0.254,0.98777 0,0.0282 0,0.0282 0,0.0564 -3.386664,-0.0564 -5.729107,-4.40267 -7.789327,-4.40267 z m 5.333995,8.24089 c -0.02822,-0.0282 -0.05644,-0.0847 -0.05644,-0.11289 l -0.536222,-0.64911 c -3.132664,1.32644 -6.265328,2.032 -6.265328,2.032 l -2.596443,2.1731 0.536222,0.64912 c 0,0 3.07622,-0.70556 6.15244,-2.00378 l 0.366888,0.42333 c 0.987777,1.18533 4.261553,1.524 4.261553,1.524 l 2.596442,-2.17311 -0.536222,-0.64911 c 0,0 -2.681109,-0.28222 -3.922886,-1.21355 z M 74.79026,273.99052 h 0.282222 l -1.439333,1.21355 v 18.31621 l 1.157111,1.41111 h 20.940872 l 5.418658,-4.54378 -1.185328,-1.41111 h -19.75554 v -4.51555 h 10.301103 l 5.39044,-4.54377 -1.15711,-1.41111 H 81.366032 l -1.15711,0.98777 v -5.50332 h 15.52221 l 5.418658,-4.54378 -1.185328,-1.41111 H 79.02359 l -5.390441,4.54378 z m 42.66494,-14.73199 c -0.79022,0 -1.38289,0.22577 -1.80622,0.56444 l -2.59644,2.17311 c -0.508,0.45156 -0.73378,1.04422 -0.73378,1.66511 0,0.47978 0.14111,0.98778 0.47978,1.38289 l 0.53622,0.64911 c 0.39511,0.45155 1.04422,0.79022 1.89089,0.79022 l 2.59644,-2.17311 -0.53622,-0.64911 c -0.67734,0 -1.18534,-0.19755 -1.58045,-0.508 -0.16933,-0.31044 -0.254,-0.67733 -0.254,-1.016 0,-0.0282 0,-0.0564 0,-0.0564 2.06022,0.0564 4.40267,4.40266 7.78933,4.40266 0.762,0 1.35467,-0.22578 1.778,-0.59267 l 2.59644,-2.17311 c 0.508,-0.42333 0.762,-1.01599 0.762,-1.63688 0,-0.47978 -0.16933,-0.95956 -0.47978,-1.35467 l -0.56444,-0.64911 c -0.39511,-0.47978 -1.07244,-0.81844 -2.032,-0.81844 l -2.59644,2.17311 0.53622,0.64911 c 0.762,0 1.32644,0.19755 1.74978,0.53622 0.16933,0.31044 0.254,0.64911 0.254,0.98778 0,0.0282 0,0.0282 0,0.0564 -3.38667,-0.0564 -5.72911,-4.40266 -7.78933,-4.40266 z m -9.68021,14.73199 h 10.5551 l -1.29822,1.07244 v 13.91354 h -5.02355 l -5.39044,4.54378 1.15711,1.41111 h 20.94087 l 5.41866,-4.54378 -1.18533,-1.41111 h -10.75266 l 1.43933,-1.21355 v -13.77243 h 5.08 l 5.41866,-4.54378 -1.18533,-1.41111 h -20.94087 l -5.39044,4.54378 z m 42.66492,-14.73199 c -0.79022,0 -1.38289,0.22577 -1.80622,0.56444 l -2.59644,2.17311 c -0.508,0.45156 -0.73378,1.04422 -0.73378,1.66511 0,0.47978 0.14111,0.98778 0.47978,1.38289 l 0.53622,0.64911 c 0.39511,0.45155 1.04422,0.79022 1.89089,0.79022 l 2.59644,-2.17311 -0.53622,-0.64911 c -0.67734,0 -1.18533,-0.19755 -1.58045,-0.508 -0.16933,-0.31044 -0.254,-0.67733 -0.254,-1.016 0,-0.0282 0,-0.0564 0,-0.0564 2.06023,0.0564 4.40267,4.40266 7.78933,4.40266 0.762,0 1.35467,-0.22578 1.778,-0.59267 l 2.59644,-2.17311 c 0.508,-0.42333 0.762,-1.01599 0.762,-1.63688 0,-0.47978 -0.16933,-0.95956 -0.47977,-1.35467 l -0.56445,-0.64911 c -0.39511,-0.47978 -1.07244,-0.81844 -2.032,-0.81844 l -2.59644,2.17311 0.53622,0.64911 c 0.762,0 1.32645,0.19755 1.74978,0.53622 0.16933,0.31044 0.254,0.64911 0.254,0.98778 0,0.0282 0,0.0282 0,0.0564 -3.38667,-0.0564 -5.72911,-4.40266 -7.78933,-4.40266 z m -10.83732,21.16665 v 5.24933 c 0,3.75355 0,5.70088 0.84666,6.71688 l 1.18533,1.41111 c 0.93134,1.12889 2.87867,1.12889 6.99911,1.12889 h 5.22111 c 3.75355,0 5.7291,0 6.7451,-0.87489 l 5.39044,-4.51555 c 1.12889,-0.95956 1.12889,-2.90689 1.12889,-6.99911 v -5.24933 c 0,-3.75355 0,-5.70088 -0.84666,-6.7451 l -1.18534,-1.38289 c -0.93133,-1.12889 -2.90688,-1.12889 -6.9991,-1.12889 h -5.24933 c -3.75355,0 -5.70089,0 -6.71689,0.87489 l -5.41866,4.51555 c -1.10066,0.93133 -1.10066,2.90689 -1.10066,6.99911 z m 6.57577,-3.13267 c 0,-1.29822 0,-2.39888 0.0282,-3.30199 0.70556,0 1.524,0 2.42711,0 h 5.22111 c 3.24555,0 5.16466,0 6.29355,0.53622 0,1.15711 0.39511,2.99155 0.39511,5.89844 v 5.24933 c 0,1.29822 0,2.39888 -0.0565,3.30199 -0.70555,0 -1.49577,0 -2.39888,0 h -5.24933 c -3.24556,0 -5.16466,0 -6.26533,-0.56444 0,-1.12889 -0.39511,-2.96333 -0.39511,-5.87022 z m 37.33094,-23.33976 c -0.79022,0 -1.38288,0.22578 -1.80622,0.56445 l -2.59644,2.17311 c -0.508,0.45155 -0.73378,1.04422 -0.73378,1.66511 0,0.47977 0.14111,0.98777 0.47978,1.38288 l 0.53622,0.64912 c 0.39511,0.45155 1.04422,0.79022 1.89089,0.79022 l 2.59644,-2.17311 -0.53622,-0.64911 c -0.67733,0 -1.18533,-0.19756 -1.58044,-0.508 -0.16934,-0.31045 -0.254,-0.67734 -0.254,-1.016 0,-0.0282 0,-0.0564 0,-0.0564 2.06022,0.0564 4.40266,4.40267 7.78932,4.40267 0.762,0 1.35467,-0.22578 1.778,-0.59267 l 2.59645,-2.17311 c 0.508,-0.42333 0.762,-1.016 0.762,-1.63689 0,-0.47977 -0.16934,-0.95955 -0.47978,-1.35466 l -0.56445,-0.64911 c -0.39511,-0.47978 -1.07244,-0.81845 -2.03199,-0.81845 l -2.59645,2.17311 0.53622,0.64911 c 0.762,0 1.32645,0.19756 1.74978,0.53623 0.16933,0.31044 0.254,0.64911 0.254,0.98777 0,0.0282 0,0.0282 0,0.0564 -3.38666,-0.0564 -5.72911,-4.40267 -7.78933,-4.40267 z m 5.41867,8.24089 c -0.0282,-0.0282 -0.0564,-0.0847 -0.0564,-0.11289 l -0.53622,-0.64911 c -3.13266,1.32644 -6.26533,2.032 -6.26533,2.032 l -2.59644,2.1731 0.53622,0.64912 c 0,0 3.07622,-0.70556 6.15244,-2.00378 l 0.36689,0.42333 c 0.98778,1.18533 4.26155,1.524 4.26155,1.524 l 2.59644,-2.17311 -0.53622,-0.64911 c 0,0 -2.68111,-0.28222 -3.92288,-1.21355 z m -16.34066,18.23154 v 5.24933 c 0,3.75355 0,5.70088 0.84667,6.71688 l 1.18533,1.41111 c 0.93133,1.12889 2.87866,1.12889 6.99911,1.12889 h 5.2211 c 3.75356,0 5.72911,0 6.74511,-0.87489 l 5.39044,-4.51555 c 1.12889,-0.95956 1.12889,-2.90689 1.12889,-6.99911 v -5.24933 c 0,-3.75355 0,-5.70088 -0.84667,-6.7451 l -1.18533,-1.38289 c -0.93133,-1.12889 -2.90689,-1.12889 -6.99911,-1.12889 h -5.24933 c -3.75355,0 -5.70088,0 -6.71688,0.87489 l -5.41866,4.51555 c -1.10067,0.93133 -1.10067,2.90689 -1.10067,6.99911 z m 6.57577,-3.13267 c 0,-1.29822 0,-2.39888 0.0282,-3.30199 0.70555,0 1.524,0 2.42711,0 h 5.2211 c 3.24556,0 5.16467,0 6.29355,0.53622 0,1.15711 0.39511,2.99155 0.39511,5.89844 v 5.24933 c 0,1.29822 0,2.39888 -0.0564,3.30199 -0.70555,0 -1.49578,0 -2.39889,0 h -5.24933 c -3.24555,0 -5.16466,0 -6.26532,-0.56444 0,-1.12889 -0.39512,-2.96333 -0.39512,-5.87022 z m 37.24625,-18.03398 c -0.79022,0 -1.38289,0.22577 -1.80622,0.56444 l -2.59644,2.17311 c -0.508,0.45156 -0.73378,1.04422 -0.73378,1.66511 0,0.47978 0.14111,0.98778 0.47978,1.38289 l 0.53622,0.64911 c 0.39511,0.45155 1.04422,0.79022 1.89089,0.79022 l 2.59644,-2.17311 -0.53622,-0.64911 c -0.67733,0 -1.18533,-0.19755 -1.58044,-0.508 -0.16934,-0.31044 -0.254,-0.67733 -0.254,-1.016 0,-0.0282 0,-0.0564 0,-0.0564 2.06022,0.0564 4.40266,4.40266 7.78932,4.40266 0.762,0 1.35467,-0.22578 1.778,-0.59267 l 2.59644,-2.17311 c 0.508,-0.42333 0.762,-1.01599 0.762,-1.63688 0,-0.47978 -0.16933,-0.95956 -0.47977,-1.35467 l -0.56445,-0.64911 c -0.39511,-0.47978 -1.07244,-0.81844 -2.032,-0.81844 l -2.59644,2.17311 0.53622,0.64911 c 0.762,0 1.32645,0.19755 1.74978,0.53622 0.16933,0.31044 0.254,0.64911 0.254,0.98778 0,0.0282 0,0.0282 0,0.0564 -3.38666,-0.0564 -5.72911,-4.40266 -7.78933,-4.40266 z m -4.26155,18.03398 c 0,-1.29822 0,-2.39888 0.0282,-3.30199 0.70556,0 1.524,0 2.42711,0 h 5.22111 c 3.24555,0 5.16466,0 6.29355,0.53622 0,1.15711 0.39511,2.99155 0.39511,5.89844 v 5.24933 c 0,1.29822 0,2.39888 -0.0564,3.30199 -0.70556,0 -1.49578,0 -2.39889,0 h -5.24933 c -3.24555,0 -5.16466,0 -6.26533,-0.56444 0,-1.12889 -0.39511,-2.96333 -0.39511,-5.87022 z m -6.57577,3.13267 v 5.24933 c 0,3.75355 0,5.70088 0.84666,6.71688 l 1.18534,1.41111 c 0.93133,1.12889 2.87866,1.12889 6.9991,1.12889 h 5.22111 c 3.75355,0 5.72911,0 6.7451,-0.87489 l 5.39044,-4.51555 c 1.12889,-0.95956 1.12889,-2.90689 1.12889,-6.99911 v -5.24933 c 0,-3.75355 0,-5.70088 -0.84666,-6.7451 l -0.19756,-0.19756 c 1.97556,-1.63689 3.92289,-3.27377 5.87022,-4.91066 v -3.38666 l -1.18533,-1.41111 -5.39044,4.54377 v 3.35844 l -0.47978,0.39511 c -1.016,0 -2.99155,-0.90311 -6.80155,-0.90311 h -5.24933 c -3.75355,0 -5.70089,0 -6.71688,0.87489 l -5.41867,4.51555 c -1.10066,0.93133 -1.10066,2.90689 -1.10066,6.99911 z m 43.82206,-21.16665 c -0.79022,0 -1.38288,0.22577 -1.80622,0.56444 l -2.59644,2.17311 c -0.508,0.45156 -0.73378,1.04422 -0.73378,1.66511 0,0.47978 0.14111,0.98778 0.47978,1.38289 l 0.53622,0.64911 c 0.39511,0.45155 1.04422,0.79022 1.89089,0.79022 l 2.59644,-2.17311 -0.53622,-0.64911 c -0.67733,0 -1.18533,-0.19755 -1.58044,-0.508 -0.16934,-0.31044 -0.254,-0.67733 -0.254,-1.016 0,-0.0282 0,-0.0564 0,-0.0564 2.06022,0.0564 4.40266,4.40266 7.78932,4.40266 0.762,0 1.35467,-0.22578 1.778,-0.59267 l 2.59645,-2.17311 c 0.508,-0.42333 0.762,-1.01599 0.762,-1.63688 0,-0.47978 -0.16934,-0.95956 -0.47978,-1.35467 l -0.56445,-0.64911 c -0.39511,-0.47978 -1.07244,-0.81844 -2.03199,-0.81844 l -2.59645,2.17311 0.53622,0.64911 c 0.762,0 1.32645,0.19755 1.74978,0.53622 0.16933,0.31044 0.254,0.64911 0.254,0.98778 0,0.0282 0,0.0282 0,0.0564 -3.38666,-0.0564 -5.72911,-4.40266 -7.78933,-4.40266 z m -10.83732,13.32088 v 20.94087 l 1.15711,1.41111 h 18.34443 l 1.524,-1.29822 1.07244,1.29822 5.41866,-4.54378 v -20.94087 l -1.18533,-1.41111 -5.39044,4.54378 v 16.39709 h -14.3651 v -19.52976 l -1.18533,-1.41111 z m 43.82203,-13.32088 c -0.79022,0 -1.38288,0.22577 -1.80622,0.56444 l -2.59644,2.17311 c -0.508,0.45156 -0.73378,1.04422 -0.73378,1.66511 0,0.47978 0.14111,0.98778 0.47978,1.38289 l 0.53622,0.64911 c 0.39511,0.45155 1.04422,0.79022 1.89089,0.79022 l 2.59644,-2.17311 -0.53622,-0.64911 c -0.67733,0 -1.18533,-0.19755 -1.58044,-0.508 -0.16934,-0.31044 -0.254,-0.67733 -0.254,-1.016 0,-0.0282 0,-0.0564 0,-0.0564 2.06022,0.0564 4.40266,4.40266 7.78933,4.40266 0.76199,0 1.35466,-0.22578 1.77799,-0.59267 l 2.59645,-2.17311 c 0.508,-0.42333 0.762,-1.01599 0.762,-1.63688 0,-0.47978 -0.16934,-0.95956 -0.47978,-1.35467 l -0.56445,-0.64911 c -0.39511,-0.47978 -1.07244,-0.81844 -2.03199,-0.81844 l -2.59645,2.17311 0.53623,0.64911 c 0.76199,0 1.32644,0.19755 1.74977,0.53622 0.16933,0.31044 0.254,0.64911 0.254,0.98778 0,0.0282 0,0.0282 0,0.0564 -3.38666,-0.0564 -5.72911,-4.40266 -7.78933,-4.40266 z m -10.83732,13.32088 v 20.94087 l 1.15711,1.41111 H 291.043 l 1.524,-1.29822 1.07244,1.29822 5.41866,-4.54378 v -20.91265 c 1.60867,-1.32644 3.21734,-2.68111 4.826,-4.03577 v -3.38666 l -1.18533,-1.41111 -5.39044,4.54377 v 3.33022 l -4.826,4.064 v 16.39709 h -14.3651 v -19.52976 l -1.18533,-1.41111 z m 43.99137,-13.32088 c -0.79022,0 -1.38289,0.22577 -1.80622,0.56444 l -2.59645,2.17311 c -0.50799,0.45156 -0.73377,1.04422 -0.73377,1.66511 0,0.47978 0.14111,0.98778 0.47978,1.38289 l 0.53622,0.64911 c 0.39511,0.45155 1.04422,0.79022 1.89088,0.79022 l 2.59645,-2.17311 -0.53623,-0.64911 c -0.67733,0 -1.18533,-0.19755 -1.58044,-0.508 -0.16933,-0.31044 -0.254,-0.67733 -0.254,-1.016 0,-0.0282 0,-0.0564 0,-0.0564 2.06022,0.0564 4.40267,4.40266 7.78933,4.40266 0.762,0 1.35466,-0.22578 1.778,-0.59267 l 2.59644,-2.17311 c 0.508,-0.42333 0.762,-1.01599 0.762,-1.63688 0,-0.47978 -0.16933,-0.95956 -0.47978,-1.35467 l -0.56444,-0.64911 c -0.39511,-0.47978 -1.07245,-0.81844 -2.032,-0.81844 l -2.59644,2.17311 0.53622,0.64911 c 0.762,0 1.32644,0.19755 1.74978,0.53622 0.16933,0.31044 0.254,0.64911 0.254,0.98778 0,0.0282 0,0.0282 0,0.0564 -3.38667,-0.0564 -5.72911,-4.40266 -7.78933,-4.40266 z m 9.93421,13.32088 -5.95488,5.92666 h -8.41022 v -9.05933 l -1.18533,-1.41111 -5.39044,4.54378 v 10.47043 l 1.15711,1.41111 h 7.90222 l -9.05933,9.05933 1.15711,1.41111 5.41866,-4.54378 20.94088,-20.94087 -1.18534,-1.41111 z"
         id="path52" />
      <path
         style="font-weight:bold;font-family:'NewEng Hangeul';-inkscape-font-specification:'NewEng Hangeul Bold';text-align:center;text-anchor:middle"
         d="m -47.609495,351.20645 h 3.555998 l 2.596442,-2.1731 -0.536222,-0.64912 h -3.555997 l -2.596443,2.20134 z m -4.120441,-10.01888 v -5.92666 h 12.925768 l 1.439332,-1.21355 v 10.27288 l 1.15711,1.41111 5.418663,-4.54378 V 320.2467 l -1.185333,-1.41111 h -18.316208 l -1.552221,1.29822 -1.072443,-1.29822 -5.390441,4.54378 v 20.94087 l 1.157111,1.41111 z m 0,-16.39709 h 14.3651 v 4.51555 h -12.925768 l -1.439332,1.21355 z m 42.7778181,-11.74044 c 0,-0.0282 -0.028222,-0.0564 -0.028222,-0.11289 l -0.564444,-0.64911 c -3.1326641,1.32644 -6.2653291,2.032 -6.2653291,2.032 l -2.596442,2.17311 0.564444,0.64911 c 0,0 3.047998,-0.67733 6.15244,-1.97556 l 0.366888,0.39512 c 0.959555,1.18533 4.2615527,1.52399 4.2615527,1.52399 l 2.5964424,-2.1731 -0.564444,-0.64912 c 0,0 -2.681109,-0.28222 -3.922886,-1.21355 z m -5.6726621,38.15641 h 3.555997 l 2.5964425,-2.1731 -0.5362218,-0.64912 H -12.56456 l -2.596442,2.20134 z m -4.120441,-10.01888 v -5.92666 h 12.9257673 l 1.4393322,-1.21355 v 10.27288 l 1.1571103,1.41111 5.4186624,-4.54378 V 320.2467 L 1.0103188,318.83559 H -17.305889 l -1.552221,1.29822 -1.072444,-1.29822 -5.39044,4.54378 v 20.94087 l 1.15711,1.41111 z m 0,-16.39709 h 14.3650995 v 4.51555 H -17.305889 l -1.439332,1.21355 z m 39.447598,-7.39422 c 1.495777,0 2.850442,-0.47978 3.809997,-1.27 l 2.596442,-2.17311 c 0.874889,-0.762 1.439333,-1.80622 1.439333,-3.01978 l -0.564444,-0.64911 -2.596443,2.17311 c 0,0.62089 -0.141111,1.21356 -0.395111,1.72156 -0.677332,0.254 -1.439332,0.39511 -2.229553,0.39511 0,0 -0.479778,0 -0.649111,0 -1.467554,0 -2.765776,-0.53622 -3.640664,-1.35467 -0.338666,-0.508 -0.508,-1.07244 -0.508,-1.69333 l -0.564444,-0.64911 -2.596442,2.17311 c 0,0.762 0.282222,1.43933 0.790222,2.032 l 0.536221,0.64911 c 0.846666,1.016 2.285999,1.66511 3.922886,1.66511 0.169334,0 0.649111,0 0.649111,0 z m -2.342443,33.81019 h 3.555998 l 2.596442,-2.1731 -0.536222,-0.64912 h -3.555997 l -2.596443,2.20134 z m -4.120441,-10.01888 v -5.92666 h 12.925768 l 1.439332,-1.21355 v 10.27288 l 1.15711,1.41111 5.418663,-4.54378 V 320.2467 l -1.185333,-1.41111 H 15.678825 l -1.552221,1.29822 -1.072443,-1.29822 -5.3904406,4.54378 v 20.94087 l 1.1571102,1.41111 z m 0,-16.39709 h 14.3651 v 4.51555 H 15.678825 l -1.439332,1.21355 z m 37.10516,26.41597 h 3.555997 l 2.596442,-2.1731 -0.536221,-0.64912 h -3.555998 l -2.596442,2.20134 z m -9.539104,-26.41597 h 0.282222 l -1.439332,1.21355 v 18.31621 l 1.15711,1.41111 h 20.940873 l 5.418662,-4.54378 -1.185332,-1.41111 H 47.224211 v -4.51555 h 10.301104 l 5.39044,-4.54377 -1.15711,-1.41111 H 48.381322 l -1.157111,0.98777 v -5.50332 h 15.522211 l 5.418662,-4.54378 -1.185332,-1.41111 H 46.038879 l -5.39044,4.54378 z m 48.196477,-11.74044 c 0,-0.0282 -0.02822,-0.0564 -0.02822,-0.11289 l -0.564444,-0.64911 c -3.132664,1.32644 -6.265328,2.032 -6.265328,2.032 l -2.596443,2.17311 0.564444,0.64911 c 0,0 3.047998,-0.67733 6.15244,-1.97556 l 0.366889,0.39512 c 0.959555,1.18533 4.261552,1.52399 4.261552,1.52399 l 2.596442,-2.1731 -0.564444,-0.64912 c 0,0 -2.681109,-0.28222 -3.922885,-1.21355 z m -5.672663,38.15641 h 3.555998 l 2.596442,-2.1731 -0.536222,-0.64912 h -3.555997 l -2.596442,2.20134 z M 74.79026,324.79048 h 0.282222 l -1.439333,1.21355 v 18.31621 l 1.157111,1.41111 h 20.940872 l 5.418658,-4.54378 -1.185328,-1.41111 h -19.75554 v -4.51555 h 10.301103 l 5.39044,-4.54377 -1.15711,-1.41111 H 81.366032 l -1.15711,0.98777 v -5.50332 h 15.52221 l 5.418658,-4.54378 -1.185328,-1.41111 H 79.02359 l -5.390441,4.54378 z m 42.52383,26.41597 h 3.556 l 2.59644,-2.1731 -0.53622,-0.64912 h -3.556 l -2.59644,2.20134 z m -9.5391,-26.41597 h 10.5551 l -1.29822,1.07244 v 13.91354 h -5.02355 l -5.39044,4.54378 1.15711,1.41111 h 20.94087 l 5.41866,-4.54378 -1.18533,-1.41111 h -10.75266 l 1.43933,-1.21355 v -13.77243 h 5.08 l 5.41866,-4.54378 -1.18533,-1.41111 h -20.94087 l -5.39044,4.54378 z m 42.52381,26.41597 h 3.556 l 2.59644,-2.1731 -0.53622,-0.64912 h -3.556 l -2.59644,2.20134 z m -10.69621,-19.98131 v 5.24933 c 0,3.75355 0,5.70088 0.84666,6.71688 l 1.18533,1.41111 c 0.93134,1.12889 2.87867,1.12889 6.99911,1.12889 h 5.22111 c 3.75355,0 5.7291,0 6.7451,-0.87489 l 5.39044,-4.51555 c 1.12889,-0.95956 1.12889,-2.90689 1.12889,-6.99911 v -5.24933 c 0,-3.75355 0,-5.70088 -0.84666,-6.7451 l -1.18534,-1.38289 c -0.93133,-1.12889 -2.90688,-1.12889 -6.9991,-1.12889 h -5.24933 c -3.75355,0 -5.70089,0 -6.71689,0.87489 l -5.41866,4.51555 c -1.10066,0.93133 -1.10066,2.90689 -1.10066,6.99911 z m 6.57577,-3.13267 c 0,-1.29822 0,-2.39888 0.0282,-3.30199 0.70556,0 1.524,0 2.42711,0 h 5.22111 c 3.24555,0 5.16466,0 6.29355,0.53622 0,1.15711 0.39511,2.99155 0.39511,5.89844 v 5.24933 c 0,1.29822 0,2.39888 -0.0565,3.30199 -0.70555,0 -1.49577,0 -2.39888,0 h -5.24933 c -3.24556,0 -5.16466,0 -6.26533,-0.56444 0,-1.12889 -0.39511,-2.96333 -0.39511,-5.87022 z m 42.74961,-15.09887 c -0.0282,-0.0282 -0.0564,-0.0847 -0.0564,-0.11289 l -0.53622,-0.64911 c -3.13266,1.32644 -6.26533,2.03199 -6.26533,2.03199 l -2.59644,2.17311 0.53622,0.64911 c 0,0 3.07622,-0.70555 6.15244,-2.00377 l 0.36689,0.42333 c 0.98778,1.18533 4.26155,1.524 4.26155,1.524 l 2.59644,-2.17311 -0.53622,-0.64911 c 0,0 -2.68111,-0.28222 -3.92288,-1.21355 z m -5.64444,38.21285 h 3.55599 l 2.59645,-2.1731 -0.53623,-0.64912 h -3.55599 l -2.59645,2.20134 z m -10.69622,-19.98131 v 5.24933 c 0,3.75355 0,5.70088 0.84667,6.71688 l 1.18533,1.41111 c 0.93133,1.12889 2.87866,1.12889 6.99911,1.12889 h 5.2211 c 3.75356,0 5.72911,0 6.74511,-0.87489 l 5.39044,-4.51555 c 1.12889,-0.95956 1.12889,-2.90689 1.12889,-6.99911 v -5.24933 c 0,-3.75355 0,-5.70088 -0.84667,-6.7451 l -1.18533,-1.38289 c -0.93133,-1.12889 -2.90689,-1.12889 -6.99911,-1.12889 h -5.24933 c -3.75355,0 -5.70088,0 -6.71688,0.87489 l -5.41866,4.51555 c -1.10067,0.93133 -1.10067,2.90689 -1.10067,6.99911 z m 6.57577,-3.13267 c 0,-1.29822 0,-2.39888 0.0282,-3.30199 0.70555,0 1.524,0 2.42711,0 h 5.2211 c 3.24556,0 5.16467,0 6.29355,0.53622 0,1.15711 0.39511,2.99155 0.39511,5.89844 v 5.24933 c 0,1.29822 0,2.39888 -0.0564,3.30199 -0.70555,0 -1.49578,0 -2.39889,0 h -5.24933 c -3.24555,0 -5.16466,0 -6.26532,-0.56444 0,-1.12889 -0.39512,-2.96333 -0.39512,-5.87022 z m 37.10514,23.11398 h 3.556 l 2.59644,-2.1731 -0.53622,-0.64912 h -3.556 l -2.59644,2.20134 z m -4.12044,-23.11398 c 0,-1.29822 0,-2.39888 0.0282,-3.30199 0.70556,0 1.524,0 2.42711,0 h 5.22111 c 3.24555,0 5.16466,0 6.29355,0.53622 0,1.15711 0.39511,2.99155 0.39511,5.89844 v 5.24933 c 0,1.29822 0,2.39888 -0.0564,3.30199 -0.70556,0 -1.49578,0 -2.39889,0 h -5.24933 c -3.24555,0 -5.16466,0 -6.26533,-0.56444 0,-1.12889 -0.39511,-2.96333 -0.39511,-5.87022 z m -6.57577,3.13267 v 5.24933 c 0,3.75355 0,5.70088 0.84666,6.71688 l 1.18534,1.41111 c 0.93133,1.12889 2.87866,1.12889 6.9991,1.12889 h 5.22111 c 3.75355,0 5.72911,0 6.7451,-0.87489 l 5.39044,-4.51555 c 1.12889,-0.95956 1.12889,-2.90689 1.12889,-6.99911 v -5.24933 c 0,-3.75355 0,-5.70088 -0.84666,-6.7451 l -0.19756,-0.19756 c 1.97556,-1.63689 3.92289,-3.27377 5.87022,-4.91066 v -3.38667 l -1.18533,-1.41111 -5.39044,4.54378 v 3.35844 l -0.47978,0.39511 c -1.016,0 -2.99155,-0.90311 -6.80155,-0.90311 h -5.24933 c -3.75355,0 -5.70089,0 -6.71688,0.87489 l -5.41867,4.51555 c -1.10066,0.93133 -1.10066,2.90689 -1.10066,6.99911 z m 43.68095,19.98131 h 3.556 l 2.59644,-2.1731 -0.53622,-0.64912 h -3.556 l -2.59644,2.20134 z m -10.69621,-27.82708 v 20.94087 l 1.15711,1.41111 h 18.34443 l 1.524,-1.29822 1.07244,1.29822 5.41866,-4.54378 V 320.2467 l -1.18533,-1.41111 -5.39044,4.54378 v 16.39709 h -14.3651 V 320.2467 l -1.18533,-1.41111 z m 43.68092,27.82708 h 3.556 l 2.59644,-2.1731 -0.53622,-0.64912 h -3.556 l -2.59644,2.20134 z m -10.69621,-27.82708 v 20.94087 l 1.15711,1.41111 H 291.043 l 1.524,-1.29822 1.07244,1.29822 5.41866,-4.54378 v -20.91265 c 1.60867,-1.32644 3.21734,-2.68111 4.826,-4.03577 v -3.38667 l -1.18533,-1.41111 -5.39044,4.54378 v 3.33022 l -4.826,4.064 v 16.39709 h -14.3651 V 320.2467 l -1.18533,-1.41111 z m 31.0656,26.86753 h 3.556 l 2.59644,-2.17311 -0.53622,-0.64911 h -3.58422 l -2.56822,2.17311 z m 22.85998,-26.86753 -5.95488,5.92666 h -8.41022 v -9.05933 l -1.18533,-1.41111 -5.39044,4.54378 v 10.47043 l 1.15711,1.41111 h 7.90222 l -9.05933,9.05933 1.15711,1.41111 5.41866,-4.54378 20.94088,-20.94087 -1.18534,-1.41111 z"
         id="path53" />
      <path
         style="font-weight:bold;font-family:'NewEng Hangeul';-inkscape-font-specification:'NewEng Hangeul Bold';text-align:center;text-anchor:middle"
         d="m 124.96937,383.23865 v 11.88155 l 1.18534,1.41111 1.55222,-1.29822 1.07244,1.29822 h 15.55043 c 0.93134,-0.79022 1.86267,-1.55222 2.794,-2.34245 v 0 l 5.41866,-4.51555 v -13.40554 l -1.18533,-1.41111 -5.24933,-5.22111 h -13.0951 l -1.55222,1.29822 -1.07244,-1.29822 -5.41867,4.54377 v 3.10445 h 1.016 l -5.39044,4.54377 1.15711,1.41111 z m 6.604,-7.64822 h 10.3011 l 4.064,4.03578 v 10.95021 H 133.0127 l -1.43933,1.21356 v -8.55133 h 2.42711 l 5.39044,-4.54377 -1.18533,-1.41111 h -6.63222 z"
         id="path54" />
    </g>
  </g>
</svg>
