<?xml version="1.0" encoding="UTF-8" standalone="no"?>
<!-- Created with Inkscape (http://www.inkscape.org/) -->

<svg
   width="810.61328"
   height="594.18896"
   viewBox="0 0 214.47475 157.2125"
   version="1.1"
   id="svg1"
   inkscape:version="1.4 (86a8ad7, 2024-10-11)"
   sodipodi:docname="Alphabet TallThin Uppercase.svg"
   xmlns:inkscape="http://www.inkscape.org/namespaces/inkscape"
   xmlns:sodipodi="http://sodipodi.sourceforge.net/DTD/sodipodi-0.dtd"
   xmlns="http://www.w3.org/2000/svg"
   xmlns:svg="http://www.w3.org/2000/svg">
  <sodipodi:namedview
     id="namedview1"
     pagecolor="#ffffff"
     bordercolor="#000000"
     borderopacity="0.25"
     inkscape:showpageshadow="2"
     inkscape:pageopacity="0.0"
     inkscape:pagecheckerboard="0"
     inkscape:deskcolor="#d1d1d1"
     inkscape:document-units="px"
     inkscape:zoom="1.0393815"
     inkscape:cx="378.10948"
     inkscape:cy="295.84902"
     inkscape:window-width="1920"
     inkscape:window-height="1027"
     inkscape:window-x="-8"
     inkscape:window-y="-8"
     inkscape:window-maximized="1"
     inkscape:current-layer="layer1" />
  <defs
     id="defs1" />
  <g
     inkscape:label="Layer 1"
     inkscape:groupmode="layer"
     id="layer1"
     transform="translate(-30.234586,-66.628678)">
    <text
       xml:space="preserve"
       style="font-size:41.5014px;line-height:1;font-family:'BlockTrain Hand';-inkscape-font-specification:'BlockTrain Hand';text-align:start;letter-spacing:1.32292px;writing-mode:lr-tb;direction:ltr;text-anchor:start;display:none;fill:#19919b;fill-opacity:1;stroke:#7c7c7c;stroke-width:1.16723;stroke-dasharray:none;stroke-opacity:1"
       x="137.9259"
       y="98.753357"
       id="text1"><tspan
         style="font-style:normal;font-variant:normal;font-weight:normal;font-stretch:normal;font-size:41.5014px;font-family:TallThin;-inkscape-font-specification:TallThin;text-align:center;letter-spacing:1.32292px;text-anchor:middle;fill:#19919b;fill-opacity:1;stroke:#7c7c7c;stroke-width:1.16723;stroke-dasharray:none;stroke-opacity:1"
         x="137.9259"
         y="98.753357"
         sodipodi:role="line"
         id="tspan5">AÆBCÇDEFΦÞÐ</tspan><tspan
         style="font-style:normal;font-variant:normal;font-weight:normal;font-stretch:normal;font-size:41.5014px;font-family:TallThin;-inkscape-font-specification:TallThin;text-align:center;letter-spacing:1.32292px;text-anchor:middle;fill:#19919b;fill-opacity:1;stroke:#7c7c7c;stroke-width:1.16723;stroke-dasharray:none;stroke-opacity:1"
         x="137.9259"
         y="140.25476"
         sodipodi:role="line"
         id="tspan18">GȜHǶIJKꞰLM</tspan><tspan
         style="font-style:normal;font-variant:normal;font-weight:normal;font-stretch:normal;font-size:41.5014px;font-family:TallThin;-inkscape-font-specification:TallThin;text-align:center;letter-spacing:1.32292px;text-anchor:middle;fill:#19919b;fill-opacity:1;stroke:#7c7c7c;stroke-width:1.16723;stroke-dasharray:none;stroke-opacity:1"
         x="137.9259"
         y="181.75616"
         sodipodi:role="line"
         id="tspan3">NИŊOŒPQRSƩ</tspan><tspan
         style="font-style:normal;font-variant:normal;font-weight:normal;font-stretch:normal;font-size:41.5014px;font-family:TallThin;-inkscape-font-specification:TallThin;text-align:center;letter-spacing:1.32292px;text-anchor:middle;fill:#19919b;fill-opacity:1;stroke:#7c7c7c;stroke-width:1.16723;stroke-dasharray:none;stroke-opacity:1"
         x="138.58736"
         y="223.25755"
         sodipodi:role="line"
         id="tspan23">TЧUȢVWꝎXYZ</tspan></text>
    <g
       id="text22"
       style="font-size:41.5014px;line-height:1;font-family:'BlockTrain Hand';-inkscape-font-specification:'BlockTrain Hand';letter-spacing:1.32292px;fill:#19919b;stroke:#7c7c7c;stroke-width:1.16723"
       aria-label="AÆBCÇDEFΦÞÐ&#10;GȜHǶIJKꞰLM&#10;NИŊOŒPQRSƩ&#10;TЧUȢVWꝎXYZ">
      <path
         style="font-family:TallThin;-inkscape-font-specification:TallThin;text-align:center;text-anchor:middle"
         d="M 41.193551,87.132965 H 34.138313 V 70.739912 c 0,-1.037535 0.830028,-1.867563 1.867563,-1.867563 h 3.320112 c 1.037535,0 1.867563,0.830028 1.867563,1.867563 z m 0,11.620392 h 3.320112 V 69.079856 c 0,-1.037535 -0.830028,-1.867563 -1.867563,-1.867563 h -9.960336 c -1.037535,0 -1.867563,0.830028 -1.867563,1.867563 v 29.673501 h 3.320112 v -9.960336 h 7.055238 z M 59.947072,87.132965 H 52.891834 V 70.739912 c 0,-1.037535 0.830028,-1.867563 1.867563,-1.867563 h 3.320112 c 1.037535,0 1.867563,0.830028 1.867563,1.867563 z m 0,11.620392 h 2.241076 V 98.25534 c 0.332011,0.29051 0.788526,0.498017 1.286543,0.498017 h 10.167843 v -1.660056 h -8.507787 c -1.037535,0 -1.867563,-0.830028 -1.867563,-1.867563 v -6.432717 h 8.507787 V 87.132965 H 63.267184 V 68.872349 h 10.37535 V 67.212293 H 62.893671 62.478657 c -0.332011,0 -0.622521,0.083 -0.871529,0.207507 -0.249008,-0.124504 -0.539518,-0.207507 -0.871529,-0.207507 h -9.296314 c -1.037535,0 -1.867563,0.830028 -1.867563,1.867563 v 29.673501 h 3.320112 v -9.960336 h 7.055238 z M 89.075925,72.607475 v 10.790364 c 0,2.07507 -1.701558,3.735126 -3.776628,3.735126 h -3.27861 V 68.872349 h 3.320112 c 2.07507,0 3.735126,1.660056 3.735126,3.735126 z m 3.320112,22.410756 v -4.15014 c 0,-1.162039 -0.539519,-2.199574 -1.411048,-2.905098 0.871529,-0.705524 1.411048,-1.743059 1.411048,-2.905098 V 70.947419 c 0,-2.07507 -1.660056,-3.735126 -3.735126,-3.735126 h -9.960336 v 31.541064 h 9.960336 c 2.07507,0 3.735126,-1.660056 3.735126,-3.735126 z m -7.055238,-6.22521 c 2.07507,0 3.735126,1.660056 3.735126,3.735126 v 0.830028 c 0,2.033569 -1.660056,3.735126 -3.735126,3.735126 h -3.320112 v -8.30028 z m 26.223771,8.30028 h -8.50778 c -1.03754,0 -1.86757,-0.830028 -1.86757,-1.867563 V 70.739912 c 0,-1.037535 0.83003,-1.867563 1.86757,-1.867563 h 8.50778 V 67.212293 H 99.736675 c -1.037535,0 -1.867563,0.830028 -1.867563,1.867563 v 27.805938 c 0,1.037535 0.830028,1.867563 1.867563,1.867563 h 11.827895 z m 15.43341,-1.452549 c 0,1.037535 -0.83003,1.452549 -1.86756,1.452549 h -3.32011 c -1.03754,0 -1.86757,-0.830028 -1.86757,-1.867563 h -3.32011 v 1.660056 c 0,1.037535 0.83003,1.867563 1.86756,1.867563 h 9.96034 c 1.03754,0 1.86756,-0.58102 1.86756,-1.618555 v -0.166005 c 0,-0.664023 -0.41501,-1.286544 -1.28654,-2.199574 l -2.15807,-2.241076 h 3.44461 v -1.660056 h -8.50778 c -1.03754,0 -1.86757,-0.830028 -1.86757,-1.867563 V 70.739912 c 0,-1.037535 0.83003,-1.867563 1.86757,-1.867563 h 8.50778 v -1.660056 h -11.8279 c -1.03753,0 -1.86756,0.830028 -1.86756,1.867563 v 21.580728 c 0,1.037535 0.83003,1.867563 1.86756,1.867563 h 6.14221 l 1.53555,1.535552 c 0.70553,0.705524 0.83003,0.954532 0.83003,1.49405 z m 8.37815,-28.428459 v 31.541064 h 9.96034 c 2.07507,0 3.73512,-1.660056 3.73512,-3.735126 V 70.947419 c 0,-2.07507 -1.66005,-3.735126 -3.73512,-3.735126 z m 3.32011,1.660056 h 3.32011 c 2.07507,0 3.73513,1.660056 3.73513,3.735126 v 20.7507 c 0,2.07507 -1.66006,3.735126 -3.73513,3.735126 h -3.32011 z m 29.54389,28.220952 h -8.50779 c -1.03754,0 -1.86756,-0.830028 -1.86756,-1.867563 v -6.432717 h 8.50778 v -1.660056 h -8.50778 V 68.872349 h 10.37535 v -1.660056 h -13.69547 v 29.673501 c 0,1.037535 0.83003,1.867563 1.86757,1.867563 h 11.8279 z m 7.34064,-29.881008 c -1.03754,0 -1.86756,0.830028 -1.86756,1.867563 v 29.673501 h 3.32011 v -9.960336 h 8.50778 v -1.660056 h -8.50778 V 70.739912 c 0,-1.037535 0.83003,-1.867563 1.86756,-1.867563 h 8.50779 v -1.660056 z m 26.01626,27.805938 h 2.07507 c 2.07507,0 3.73513,-1.660056 3.73513,-3.735126 v -16.60056 c 0,-2.07507 -1.66006,-3.735126 -3.73513,-3.735126 h -2.07507 v -3.735126 h -3.32011 v 3.735126 h -2.07507 c -2.07507,0 -3.73513,1.660056 -3.73513,3.735126 v 16.60056 c 0,2.07507 1.66006,3.735126 3.73513,3.735126 h 2.07507 v 3.735126 h 3.32011 z m -0.2075,-1.78456 V 72.731979 c 1.57705,0.456516 2.69759,1.909065 2.69759,3.610622 v 13.280448 c 0,1.701557 -1.12054,3.154106 -2.69759,3.610622 z m -2.9051,-20.501692 v 20.501692 c -1.57706,-0.456516 -2.69759,-1.909065 -2.69759,-3.610622 V 76.342601 c 0,-1.701557 1.12053,-3.154106 2.69759,-3.610622 z m 16.88596,1.535552 h 3.32012 c 2.07507,0 3.73512,1.660056 3.73512,3.735126 v 9.960336 c 0,2.07507 -1.66005,3.735126 -3.73512,3.735126 h -3.32012 z m -3.32011,-7.055238 v 31.541064 h 3.32011 v -5.395182 h 6.64023 c 2.07507,0 3.73512,-1.660056 3.73512,-3.735126 V 76.342601 c 0,-2.07507 -1.66005,-3.735126 -3.73512,-3.735126 h -6.64023 v -5.395182 z m 21.7001,9.130308 v -7.470252 h 3.32011 c 2.07507,0 3.73513,1.660056 3.73513,3.735126 v 20.7507 c 0,2.07507 -1.66006,3.735126 -3.73513,3.735126 h -3.32011 V 79.662713 h 4.56515 v -1.660056 h -7.88526 v 20.7507 h 9.96033 c 2.07507,0 3.73513,-1.660056 3.73513,-3.735126 V 70.947419 c 0,-2.07507 -1.66006,-3.735126 -3.73513,-3.735126 h -9.96033 v 9.130308 z"
         id="path22" />
      <path
         style="font-family:TallThin;-inkscape-font-specification:TallThin;text-align:center;text-anchor:middle"
         d="m 43.535805,110.37375 h 3.320112 c 1.037535,0 1.867563,0.83003 1.867563,1.86756 h 3.320112 v -1.66005 c 0,-1.03754 -0.830028,-1.86757 -1.867563,-1.86757 h -9.960336 c -1.037535,0 -1.867563,0.83003 -1.867563,1.86757 v 27.80593 c 0,1.03754 0.830028,1.86757 1.867563,1.86757 h 8.092773 c 2.07507,0 3.735126,-1.66006 3.735126,-3.73513 V 123.6542 h -7.055238 v 1.66005 h 3.735126 v 9.54532 c 0,2.07507 -1.660056,3.73513 -3.735126,3.73513 h -1.452549 c -1.037535,0 -1.867563,-0.83003 -1.867563,-1.86756 v -24.48583 c 0,-1.03753 0.830028,-1.86756 1.867563,-1.86756 z m 19.210036,0 h 0.996034 c 2.07507,0 3.735126,1.66005 3.735126,3.73512 v 10.79037 c 0,2.07507 -1.701558,3.73512 -3.776628,3.73512 h -3.27861 v 1.66006 h 3.320112 c 2.07507,0 3.735126,1.66006 3.735126,3.73513 v 0.83002 c 0,2.03357 -1.660056,3.73513 -3.735126,3.73513 h -3.320112 -3.320112 v 1.66006 h 9.960336 c 2.07507,0 3.735126,-1.66006 3.735126,-3.73513 v -4.15014 c 0,-1.16204 -0.539518,-2.19957 -1.411048,-2.9051 0.87153,-0.70552 1.411048,-1.74306 1.411048,-2.9051 v -14.11047 c 0,-2.07507 -1.660056,-3.73513 -3.735126,-3.73513 h -7.677759 -0.415014 c -1.037535,0 -1.867563,0.83003 -1.867563,1.86757 v 1.66005 h 3.320112 c 0,-1.03753 0.830028,-1.86756 1.867563,-1.86756 z m 13.109311,-1.66006 v 31.54107 h 3.320112 v -9.96034 h 7.055238 v 9.96034 h 3.320112 v -31.54107 h -3.320112 v 19.92067 h -7.055238 v -19.92067 z m 30.788928,29.549 v -24.98384 h -3.32011 v 15.35551 h -5.395182 v -19.92067 h -3.320112 v 31.54107 h 3.320112 v -9.96034 h 5.395182 v 9.96034 h 1.53555 0.12451 0.083 0.74702 c 0.66403,0 1.36955,-0.29051 1.90907,-0.83003 l 3.90113,-3.85963 c 0,-0.0415 0,-0.0415 2.32408,-2.44858 0.87153,-0.87153 1.41105,-2.40709 1.41105,-4.10864 v -0.20751 -20.08668 h -3.32012 v 21.37322 0.16601 c 0,1.45255 -0.33201,2.78059 -1.03753,3.65212 z m 13.77334,-29.549 v 1.66006 h 4.98017 v 28.22095 h -4.98017 v 1.66006 h 13.69546 v -1.66006 h -5.39518 v -28.22095 h 5.39518 v -1.66006 z m 19.16853,0 v 1.66006 h 4.98017 v 26.35339 c 0,1.03753 -0.74702,1.86756 -1.66005,1.86756 h -3.32012 v 1.66006 h 6.64023 c 0.91303,0 1.66005,-0.83003 1.66005,-1.86757 v -28.01344 h 5.39518 v -1.66006 z m 22.48865,20.87521 6.14221,-6.14221 0.083,-0.083 c 0.83003,-0.83003 0.83003,-1.78456 0.83003,-3.69363 v -0.29051 -10.66586 h 3.32011 v 10.66586 0.24901 c 0,1.36955 -0.49802,2.19958 -1.28655,3.0296 l -2.36557,2.49009 -2.8636,2.78059 2.8636,2.78059 2.36557,2.49009 c 0.78853,0.83003 1.28655,1.66005 1.28655,3.0296 v 0.24901 3.77663 h -3.32011 v -3.77663 -0.29051 c 0,-1.82606 0,-2.8221 -0.66403,-3.48612 l -0.249,-0.29051 -3.40312,-3.40311 -2.73909,2.65609 v 8.59079 h -3.32011 v -31.54107 h 3.32011 z m 23.65068,-0.95454 c -0.083,0 -0.166,0 -0.24901,0 l -3.61062,-16.55905 c -0.41501,-1.99207 -1.32804,-2.8221 -2.65609,-3.36162 h -1.70155 v 2.9466 c 1.07903,0.29051 2.11657,1.45255 2.36558,2.65609 0.0415,0.0415 1.28654,7.26275 3.1126,14.899 -0.33201,0.12451 -0.66402,0.29051 -0.91303,0.41502 -2.73909,1.49405 -4.56515,4.68966 -4.56515,7.71926 v 2.9051 h 3.32011 v -2.9466 c 0,-4.10864 2.40708,-6.88923 7.05524,-6.88923 v 9.83583 h 3.32011 v -31.54107 h -3.32011 v 19.92067 h -1.86757 z m 15.7239,9.96034 c -1.03753,0 -1.86756,-0.83003 -1.86756,-1.86756 v -28.01345 h -3.32011 v 29.6735 c 0,1.03754 0.83002,1.86757 1.86756,1.86757 h 11.8279 v -1.66006 z m 17.30097,1.66006 v -28.05495 c 1.16204,0 2.24108,0.45652 3.0296,1.24504 l 2.36558,2.28258 v 24.52733 h 3.32011 v -24.52733 l 2.36558,-2.28258 c 0.78853,-0.78852 1.86757,-1.24504 3.02961,-1.24504 v 28.05495 h 3.32011 v -31.54107 h -1.49405 -0.33201 -0.24901 c -1.16204,0 -2.24108,0.45652 -3.0296,1.24504 -1.20354,1.16204 -2.40708,2.32408 -3.61063,3.44462 v -4.68966 h -3.32011 v 4.68966 c -1.20354,-1.12054 -2.40708,-2.28258 -3.61062,-3.44462 -0.78853,-0.78852 -1.86756,-1.24504 -3.0296,-1.24504 h -0.29051 -0.29051 -1.49405 v 31.54107 z"
         id="path23" />
      <path
         style="font-family:TallThin;-inkscape-font-specification:TallThin;text-align:center;text-anchor:middle"
         d="m 43.950831,181.75616 v -28.05495 h 1.245042 c 1.162039,0 2.241076,0.45652 3.029602,1.24504 l 2.780594,2.69759 v 24.11232 h 3.320112 v -31.54107 h -3.320112 v 5.10468 c -1.328045,-1.28655 -2.697591,-2.57309 -4.025636,-3.85964 -0.788526,-0.78852 -1.867563,-1.24504 -3.029602,-1.24504 h -0.581019 -2.739093 v 31.54107 z m 29.128871,-30.75254 v -0.78853 H 69.75959 v 0.78853 0.0415 c 0,1.16204 -0.539518,2.24108 -1.328044,3.0296 l -5.727194,5.9762 v -9.83583 H 59.38424 v 31.54107 h 3.320112 v -19.17365 c 1.743059,-1.78456 4.73116,-4.89717 7.055238,-7.30425 v 26.4779 h 3.320112 v -30.66954 z m 7.963138,24.52733 v -21.82974 h 1.245042 c 1.162039,0 2.241076,0.49802 3.029602,1.24504 l 2.780594,2.69759 v 17.88711 0.78852 0.0415 c 0,2.07507 -1.660056,3.73513 -3.735126,3.73513 h -6.22521 v 1.66006 h 9.545322 c 2.07507,0 3.735126,-1.66006 3.735126,-3.73513 v -0.0415 -3.27861 -24.48583 h -3.320112 v 5.10468 c -1.328045,-1.28655 -2.65609,-2.57309 -4.025636,-3.85964 -0.788526,-0.78852 -1.867563,-1.24504 -3.029602,-1.24504 h -0.58102 -2.739092 v 25.31586 z m 15.433392,2.49008 c 0,2.07507 1.660056,3.73513 3.735128,3.73513 h 6.22521 c 2.07507,0 3.73512,-1.66006 3.73512,-3.73513 v -24.07081 c 0,-2.07507 -1.66005,-3.73513 -3.73512,-3.73513 h -6.22521 c -2.075072,0 -3.735128,1.66006 -3.735128,3.73513 z m 3.320112,-22.41076 c 0,-1.99206 1.577056,-3.61062 3.527616,-3.73512 1.95057,0.1245 3.52762,1.74306 3.52762,3.73512 v 20.7507 c 0,1.99207 -1.57705,3.61063 -3.52762,3.73513 -1.95056,-0.1245 -3.527616,-1.74306 -3.527616,-3.73513 z m 15.433406,22.41076 c 0,2.07507 1.66006,3.73513 3.73513,3.73513 h 5.81019 c 0.74703,0 1.45255,-0.20751 2.03357,-0.58102 0.33201,0.37351 0.83003,0.58102 1.36955,0.58102 h 11.12237 v -1.66006 h -8.50778 c -1.03754,0 -1.86757,-0.83003 -1.86757,-1.86756 v -6.43272 h 8.50779 v -1.66006 h -8.50779 v -18.26061 h 10.37535 v -1.66006 h -10.74886 -0.41501 c -0.53952,0 -0.99604,0.20751 -1.36955,0.58102 -0.58102,-0.37351 -1.24504,-0.58102 -1.99207,-0.58102 h -5.81019 c -2.07507,0 -3.73513,1.66006 -3.73513,3.73513 z m 3.32011,-22.41076 c 0,-1.99206 1.57706,-3.61062 3.52762,-3.73512 1.95057,0.1245 3.52762,1.74306 3.52762,3.73512 v 20.7507 c 0,1.99207 -1.57705,3.61063 -3.52762,3.73513 -1.95056,-0.1245 -3.52762,-1.74306 -3.52762,-3.73513 z m 25.80874,-5.39518 v 31.54107 h 3.32011 v -9.96034 h 6.64023 c 2.07507,0 3.73512,-1.66006 3.73512,-3.73513 v -14.11047 c 0,-2.07507 -1.66005,-3.73513 -3.73512,-3.73513 z m 6.64023,19.92067 h -3.32012 v -18.26061 h 3.32012 c 2.07507,0 3.73512,1.66005 3.73512,3.73512 v 10.79037 c 0,2.07507 -1.66005,3.73512 -3.73512,3.73512 z m 15.84842,-14.52549 c 0,-1.99206 1.57705,-3.61062 3.52762,-3.73512 1.95056,0.1245 3.52761,1.74306 3.52761,3.73512 v 20.7507 c 0,1.99207 -1.57705,3.61063 -3.52761,3.73513 -1.95057,-0.1245 -3.52762,-1.74306 -3.52762,-3.73513 z m -3.32012,22.41076 c 0,2.07507 1.66006,3.73513 3.73513,3.73513 h 1.82606 c 1.16204,0 2.24108,0.45651 3.0296,1.24504 l 1.07904,1.03753 c 0.78853,0.78853 1.90907,1.24505 3.0711,1.24505 h 8.42479 v -1.66006 h -5.10467 c -1.16204,0 -2.28258,-0.45652 -3.07111,-1.24504 -1.12053,-1.07904 -1.12053,-1.07904 -1.16204,-1.12054 1.12054,-0.66402 1.86757,-1.86756 1.86757,-3.23711 v -24.07081 c 0,-2.07507 -1.66006,-3.73513 -3.73513,-3.73513 h -6.22521 c -2.07507,0 -3.73513,1.66006 -3.73513,3.73513 z m 24.14871,-7.88527 h -1.66005 v -18.26061 h 3.32011 c 2.07507,0 3.73513,1.66005 3.73513,3.73512 v 9.54533 c 0,2.73909 -2.40709,4.98016 -5.39519,4.98016 z m -4.98016,-19.92067 v 31.54107 h 3.32011 v -9.96034 h 2.15807 v 0.0415 l 4.89717,9.91884 h 3.32011 v -1.66006 l -4.15014,-8.42478 c 2.36558,-0.49802 4.15014,-2.49009 4.15014,-4.85567 v -12.86543 c 0,-2.07507 -1.66006,-3.73513 -3.73513,-3.73513 z m 29.21187,17.8041 -2.07507,-2.03357 -1.12054,-1.12053 -2.49008,-2.49009 c -0.70553,-0.87153 -1.03754,-2.19957 -1.03754,-3.65212 v -0.16601 -4.77266 -0.0415 c 0,-1.03753 0.83003,-1.86756 1.86756,-1.86756 h 3.32012 c 1.03753,0 1.86756,0.83003 1.86756,1.86756 h 3.32011 v -1.66005 c 0,-1.03754 -0.83003,-1.86757 -1.86756,-1.86757 h -9.96034 c -1.03753,0 -1.86756,0.83003 -1.86756,1.86757 v 0.083 5.10467 0.20751 c 0,1.70156 0.53952,3.23711 1.41105,4.10864 2.32408,2.40708 2.32408,2.44858 2.32408,2.44858 l 1.99206,1.95056 1.12054,1.12054 2.69759,2.69759 c 0.62252,0.62252 0.83003,1.36955 0.83003,1.90907 v 0.70552 5.7687 0.0415 c 0,1.03753 -0.83003,1.86756 -1.86756,1.86756 h -3.32012 c -1.03753,0 -1.86756,-0.83003 -1.86756,-1.86756 h -3.32011 v 1.66005 c 0,1.03754 0.83003,1.86757 1.86756,1.86757 h 9.96034 c 1.03753,0 1.86756,-0.83003 1.86756,-1.86757 v -0.083 -0.083 -6.43272 -0.33201 c 0,-0.66402 -0.49802,-1.61855 -1.28654,-2.44858 -2.32408,-2.40708 -2.32408,-2.44859 -2.36558,-2.49009 z m 8.71018,10.04334 v -0.70552 -0.33201 c 0,-0.66403 0.49802,-1.61856 1.28654,-2.44859 2.32408,-2.44858 2.36558,-2.49008 2.36558,-2.49008 l 3.61062,-3.61062 c 0.62252,-0.70552 0.95454,-1.57705 1.03754,-2.49009 -0.083,-0.91303 -0.41502,-1.78456 -1.03754,-2.49008 l -3.52762,-3.52762 c 0,0 0,-0.0415 -2.32407,-2.44858 -0.87153,-0.87153 -1.41105,-2.40708 -1.41105,-4.10864 v -0.20751 -0.49801 -0.53952 -0.083 c 0,-1.03754 0.83003,-1.86757 1.86756,-1.86757 h 9.96034 c 1.03753,0 1.86756,0.83003 1.86756,1.86757 v 1.66005 h -3.32011 c 0,-1.03753 -0.83003,-1.86756 -1.86756,-1.86756 h -3.32012 c -1.03753,0 -1.86756,0.83003 -1.86756,1.86756 v 0.0415 0.16601 0.53952 0.83003 c 0,1.24504 0.0415,1.95056 1.03754,2.9881 l 2.49008,2.49008 5.18767,5.18767 -5.18767,5.18768 -2.69759,2.69759 c -0.78853,0.83003 -0.83003,1.32805 -0.83003,1.90907 v 0.70552 1.57705 0.12451 0.0415 c 0,1.03753 0.83003,1.86756 1.86756,1.86756 h 3.32012 c 1.03753,0 1.86756,-0.83003 1.86756,-1.86756 h 3.32011 v 1.66005 c 0,1.03754 -0.83003,1.86757 -1.86756,1.86757 h -9.96034 c -1.03753,0 -1.86756,-0.83003 -1.86756,-1.86757 v -0.083 -0.083 z"
         id="path24" />
      <path
         style="font-family:TallThin;-inkscape-font-specification:TallThin;text-align:center;text-anchor:middle"
         d="m 37.142023,191.71649 v 1.66006 h 4.980168 v 28.01344 c 0,1.03754 0.747026,1.86757 1.660056,1.86757 h 3.403115 v -1.66006 h -0.083 c -0.91303,0 -1.660056,-0.83003 -1.660056,-1.86756 v -26.35339 h 5.395182 v -1.66006 z m 18.753522,0 v 19.71317 c 0,1.03753 0.830028,1.86756 1.867563,1.86756 h 8.507787 v 9.96034 h 3.320112 v -31.54107 h -3.320112 v 19.92067 H 61.08322 c -1.037535,0 -1.867563,-0.83002 -1.867563,-1.86756 v -18.05311 z m 29.128851,0 v 26.14588 c 0,1.99207 -1.577053,3.61063 -3.527619,3.73513 -1.950566,-0.1245 -3.527619,-1.74306 -3.527619,-3.73513 v -26.14588 h -3.320112 v 27.80594 c 0,2.07507 1.660056,3.73513 3.735126,3.73513 h 6.22521 c 2.07507,0 3.735126,-1.66006 3.735126,-3.73513 v -27.80594 z m 8.378173,27.80594 c 0,2.07507 1.660056,3.73513 3.735126,3.73513 h 6.225215 c 2.07507,0 3.73512,-1.66006 3.73512,-3.73513 v -8.71529 c 0,-1.45255 -0.83003,-2.69759 -2.03357,-3.32012 1.20354,-0.62252 2.03357,-1.86756 2.03357,-3.32011 v -12.45042 h -3.32011 v 10.79037 c 0,1.99206 -1.57705,3.61062 -3.52762,3.73512 -1.950565,-0.1245 -3.527619,-1.74306 -3.527619,-3.73512 v -10.79037 h -3.320112 v 12.45042 c 0,1.45255 0.830028,2.69759 2.033569,3.32011 -1.203541,0.62253 -2.033569,1.86757 -2.033569,3.32012 z m 3.320112,-7.05524 c 0,-1.99206 1.577054,-3.61062 3.527619,-3.73512 1.95057,0.1245 3.52762,1.74306 3.52762,3.73512 v 5.39518 c 0,1.99207 -1.57705,3.61063 -3.52762,3.73513 -1.950565,-0.1245 -3.527619,-1.74306 -3.527619,-3.73513 z m 18.753499,-20.7507 h -3.32011 v 31.54107 h 3.32011 0.12451 c 1.07903,0 2.49008,-1.12054 3.1126,-2.03357 l 3.48612,-5.35368 c 0.33201,-0.49802 0.62252,-0.99604 2.19957,-3.40312 0.70553,-1.12053 1.45255,-2.15807 1.45255,-4.60665 v -1.95057 -14.19348 h -3.32011 v 17.38909 c 0,1.95057 -0.0415,3.27861 -1.03754,4.81416 l -2.36558,3.61062 c -0.62252,0.91303 -1.53555,1.66006 -2.69759,1.90907 l -0.95453,0.20751 z m 27.88383,29.549 v -26.85141 h -3.32011 v 26.85141 l -4.35765,-4.35765 c -0.70552,-0.87153 -1.03754,-2.19957 -1.03754,-3.65212 v -0.16601 -19.71316 -1.66006 h -3.32011 v 20.08668 0.20751 c 0,1.70155 0.53952,3.23711 1.41105,4.10864 2.32408,2.40708 2.32408,2.44858 2.32408,2.44858 l 3.90113,3.85963 c 0.49802,0.49802 1.16204,0.83003 1.90906,0.83003 h 0.70553 0.20751 0.74702 c 0.66402,0 1.36955,-0.29051 1.90906,-0.83003 l 3.90114,-3.85963 c 0,0 0,-0.0415 2.32407,-2.44858 0.87153,-0.87153 1.41105,-2.40709 1.41105,-4.10864 v -0.20751 -20.08668 h -3.32011 v 1.66006 19.71316 0.16601 c 0,1.45255 -0.33201,2.78059 -1.03753,3.65212 z m 13.77336,-1.74306 c 0,2.07507 1.66005,3.73513 3.73512,3.73513 h 6.22521 c 0.78853,0 1.49405,-0.24901 2.07507,-0.62252 0.58102,0.37351 1.28655,0.62252 2.07507,0.62252 h 6.22521 c 2.07507,0 3.73513,-1.66006 3.73513,-3.73513 v -24.07081 c 0,-2.07507 -1.66006,-3.73513 -3.73513,-3.73513 h -5.39518 c -0.87153,0 -1.82606,0.29051 -2.65609,0.78853 -0.62252,-0.49802 -1.45255,-0.78853 -2.32408,-0.78853 h -6.22521 c -2.07507,0 -3.73512,1.66006 -3.73512,3.73513 z m 3.32011,-22.41076 c 0,-1.99206 1.57705,-3.73512 3.52762,-3.73512 h 0.87153 c 1.12053,0 2.11657,0.58102 2.73909,1.45255 -0.0415,0.2075 -0.083,0.41501 -0.083,0.62252 v 22.41075 c 0,1.99207 -1.53556,3.73513 -3.48612,3.73513 h -0.0415 c -1.95057,0 -3.52762,-1.74306 -3.52762,-3.73513 z m 10.33385,23.07478 c 0.0415,-0.2075 0.0415,-0.45651 0.0415,-0.66402 v -22.41076 c 0,-1.99206 1.53555,-3.73512 3.48612,-3.73512 h 0.0415 c 1.95056,0 3.52762,1.74306 3.52762,3.73512 v 20.7507 c 0,1.99207 -1.57706,3.73513 -3.52762,3.73513 h -0.87153 c -1.12054,0 -2.07507,-0.58102 -2.69759,-1.41105 z m 29.17035,-16.22704 v -0.20751 -12.03541 h -3.32011 v 1.66006 11.66189 0.16601 c 0,1.45255 -0.33201,2.78059 -1.03754,3.65212 l -2.49008,2.49009 -2.49009,-2.49009 c -0.70552,-0.87153 -1.03753,-2.19957 -1.03753,-3.65212 v -0.16601 -11.66189 -1.66006 h -3.32011 v 12.03541 0.20751 c 0,1.70155 0.53952,3.23711 1.41104,4.10863 2.32408,2.40709 2.32408,2.44859 2.32408,2.44859 l 1.95057,1.95056 -2.03357,2.03357 c -0.0415,0.0415 -0.0415,0.083 -2.36558,2.49009 -0.78853,0.83002 -1.28654,1.78456 -1.28654,2.44858 v 3.81813 h 3.32011 v -3.61062 -0.74703 -0.70552 c 0,-0.53952 0.20751,-1.28655 0.83003,-1.90907 l 2.69759,-2.69759 2.69759,2.69759 c 0.62252,0.62252 0.83003,1.36955 0.83003,1.90907 v 0.70552 0.74703 3.61062 h 3.32011 v -3.81813 c 0,-0.66402 -0.49802,-1.61856 -1.28654,-2.44858 -2.32408,-2.40709 -2.32408,-2.44859 -2.36558,-2.49009 l -2.03357,-2.03357 1.95056,-1.95056 c 0,0 0,-0.0415 2.32408,-2.44859 0.87153,-0.87152 1.41105,-2.40708 1.41105,-4.10863 z m 19.58355,-0.24901 v -0.20751 -11.7864 h -3.32012 v 1.66006 11.41288 0.16601 c 0,1.45255 -0.33201,2.78059 -1.03753,3.65212 l -2.69759,2.65609 -2.69759,-2.65609 c -0.70553,-0.87153 -1.03754,-2.19957 -1.03754,-3.65212 v -0.16601 -11.41288 -1.66006 h -3.32011 v 11.7864 0.20751 c 0,1.70155 0.53952,3.23711 1.41105,4.10864 2.32408,2.40708 2.32408,2.44858 2.32408,2.44858 l 2.15807,2.15807 -1.82606,1.82606 -2.36558,2.49009 c -0.78853,0.83003 -1.28655,1.78456 -1.28655,2.44858 v 4.06714 h 3.32012 v -3.85963 -0.74703 -0.70552 c 0,-0.53952 0.2075,-1.28655 0.83002,-1.90907 l 5.8102,-5.76869 2.32408,-2.44858 c 0.87153,-0.87153 1.41105,-2.40709 1.41105,-4.10864 z m 8.79319,17.8871 h 10.37535 v 1.66006 h -10.37535 -3.32011 v -1.66006 -12.36742 c 0,-0.83002 0.45651,-1.61855 1.28654,-2.44858 l 8.05127,-8.13427 c 0.74703,-0.78853 1.03754,-2.19958 1.03754,-3.65213 v -1.61855 h -10.37535 v -1.66006 h 10.37535 3.32011 v 1.66006 0.78853 c 0,1.70155 -0.53952,3.2371 -1.41105,4.10863 l -2.57309,2.65609 -4.39914,4.39915 c -1.70156,1.70156 -1.99207,3.40312 -1.99207,6.22521 z"
         id="path25" />
    </g>
  </g>
</svg>
