<?xml version="1.0" encoding="UTF-8" standalone="no"?>
<!-- Created with Inkscape (http://www.inkscape.org/) -->

<svg
   width="471.18399"
   height="519.90625"
   viewBox="0 0 124.66743 137.55853"
   version="1.1"
   id="svg1"
   inkscape:version="1.4 (86a8ad7, 2024-10-11)"
   sodipodi:docname="Alphabet Runic Lowercase.svg"
   xmlns:inkscape="http://www.inkscape.org/namespaces/inkscape"
   xmlns:sodipodi="http://sodipodi.sourceforge.net/DTD/sodipodi-0.dtd"
   xmlns="http://www.w3.org/2000/svg"
   xmlns:svg="http://www.w3.org/2000/svg">
  <sodipodi:namedview
     id="namedview1"
     pagecolor="#ffffff"
     bordercolor="#000000"
     borderopacity="0.25"
     inkscape:showpageshadow="2"
     inkscape:pageopacity="0.0"
     inkscape:pagecheckerboard="0"
     inkscape:deskcolor="#d1d1d1"
     inkscape:document-units="px"
     inkscape:zoom="1.4699074"
     inkscape:cx="223.82362"
     inkscape:cy="255.11811"
     inkscape:window-width="1512"
     inkscape:window-height="1018"
     inkscape:window-x="392"
     inkscape:window-y="0"
     inkscape:window-maximized="0"
     inkscape:current-layer="layer1" />
  <defs
     id="defs1" />
  <g
     inkscape:label="Layer 1"
     inkscape:groupmode="layer"
     id="layer1"
     transform="translate(-75.857776,-65.116252)">
    <text
       xml:space="preserve"
       style="font-size:28.2222px;line-height:1;font-family:'BlockTrain Hand';-inkscape-font-specification:'BlockTrain Hand';text-align:start;writing-mode:lr-tb;direction:ltr;text-anchor:start;display:none;fill:#19919b;fill-opacity:1;stroke:#7c7c7c;stroke-width:0.79375;stroke-dasharray:none;stroke-opacity:1"
       x="138.19148"
       y="88.739998"
       id="text1"><tspan
         style="font-style:normal;font-variant:normal;font-weight:normal;font-stretch:normal;font-size:28.2222px;font-family:'NewEng Rune';-inkscape-font-specification:'NewEng Rune';text-align:center;text-anchor:middle;fill:#19919b;fill-opacity:1;stroke:#7c7c7c;stroke-width:0.79375;stroke-dasharray:none;stroke-opacity:1"
         x="138.19148"
         y="88.739998"
         sodipodi:role="line"
         id="tspan3">aæbcçdef</tspan><tspan
         style="font-style:normal;font-variant:normal;font-weight:normal;font-stretch:normal;font-size:28.2222px;font-family:'NewEng Rune';-inkscape-font-specification:'NewEng Rune';text-align:center;text-anchor:middle;fill:#19919b;fill-opacity:1;stroke:#7c7c7c;stroke-width:0.79375;stroke-dasharray:none;stroke-opacity:1"
         x="138.19148"
         y="116.9622"
         sodipodi:role="line"
         id="tspan2">φþðgȝh ij</tspan><tspan
         style="font-style:normal;font-variant:normal;font-weight:normal;font-stretch:normal;font-size:28.2222px;font-family:'NewEng Rune';-inkscape-font-specification:'NewEng Rune';text-align:center;text-anchor:middle;fill:#19919b;fill-opacity:1;stroke:#7c7c7c;stroke-width:0.79375;stroke-dasharray:none;stroke-opacity:1"
         x="138.19148"
         y="145.1844"
         sodipodi:role="line"
         id="tspan4">kʞlmn ŋo </tspan><tspan
         style="font-style:normal;font-variant:normal;font-weight:normal;font-stretch:normal;font-size:28.2222px;font-family:'NewEng Rune';-inkscape-font-specification:'NewEng Rune';text-align:center;text-anchor:middle;fill:#19919b;fill-opacity:1;stroke:#7c7c7c;stroke-width:0.79375;stroke-dasharray:none;stroke-opacity:1"
         x="138.19148"
         y="173.4066"
         sodipodi:role="line"
         id="tspan5">pqrsʃtчuȣ</tspan><tspan
         style="font-style:normal;font-variant:normal;font-weight:normal;font-stretch:normal;font-size:28.2222px;font-family:'NewEng Rune';-inkscape-font-specification:'NewEng Rune';text-align:center;text-anchor:middle;fill:#19919b;fill-opacity:1;stroke:#7c7c7c;stroke-width:0.79375;stroke-dasharray:none;stroke-opacity:1"
         x="143.83592"
         y="201.6288"
         sodipodi:role="line"
         id="tspan6">vw xyz </tspan></text>
    <g
       id="text11"
       style="font-size:28.2222px;line-height:1;font-family:'BlockTrain Hand';-inkscape-font-specification:'BlockTrain Hand';fill:#19919b;stroke:#7c7c7c;stroke-width:0.79375"
       aria-label="aæbcçdef&#10;φþðgȝh ij&#10;kʞlmn ŋo &#10;pqrsʃtчuȣ&#10;vw xyz ">
      <path
         style="font-family:'NewEng Rune';-inkscape-font-specification:'NewEng Rune';text-align:center;text-anchor:middle"
         d="m 94.813967,71.214011 5.954883,15.917321 1.83444,-0.64911 C 100.28907,80.245116 97.946631,74.008009 95.632411,67.770903 l -1.890888,0.649111 -6.773328,18.062208 0.254,0.64911 1.806221,-0.64911 z m 17.356653,-5.051773 -6.77333,22.57776 0.254,0.64911 1.80622,-0.64911 5.81377,-19.247541 c 0.47978,1.326444 0.87489,2.596443 1.35467,3.922886 l -2.45533,4.035775 0.254,0.64911 6.77333,11.28888 1.83444,-0.64911 -0.19756,-0.649111 -6.03955,-9.990659 h 4.40267 l 1.83444,-0.64911 -0.19756,-0.649111 h -6.15244 l 6.35,-10.639769 -0.19756,-0.649111 -1.89088,0.649111 -3.01978,5.023551 -1.66511,-5.023551 -0.19755,-0.649111 z m 11.68397,0 v 22.57776 l 0.254,0.64911 1.80622,-0.64911 6.80155,-6.773328 -0.19755,-0.649111 -6.604,-6.575773 v -6.067773 l 4.48733,4.48733 -2.032,2.031999 0.254,0.64911 1.83444,-0.64911 2.25778,-2.257776 -0.19755,-0.649111 -6.77333,-6.773328 z m 2.06022,20.517539 v -8.974659 l 4.48733,4.487329 z m 14.78844,-20.517539 -6.77332,11.28888 0.254,0.64911 6.77332,11.28888 1.83445,-0.64911 -0.19756,-0.649111 -6.46288,-10.752658 6.66044,-11.175991 -0.19756,-0.649111 z m 11.65577,0 -6.77332,11.28888 0.254,0.64911 1.94733,3.245553 -2.20133,3.640664 0.254,0.649111 1.72155,2.850442 1.80622,-0.649111 -0.19755,-0.705555 -1.38289,-2.31422 0.98777,-1.721554 3.83822,6.29355 1.83445,-0.64911 -0.19756,-0.649111 -4.51555,-7.535327 -1.94733,-3.217331 6.66044,-11.175991 -0.19756,-0.649111 z m 6.97088,22.57776 6.80155,-11.28888 -0.19756,-0.649111 -6.77332,-11.28888 -1.89089,0.649111 0.254,0.64911 6.46288,10.752659 -4.65666,7.70466 v -7.817549 l -0.16933,-0.649111 -1.89089,0.649111 v 11.28888 l 0.254,0.64911 z m 12.10732,-11.937991 6.35,-10.639769 -0.19756,-0.649111 -1.89088,0.649111 -6.77333,11.28888 0.254,0.64911 6.77333,11.28888 1.83444,-0.64911 -0.19756,-0.649111 -6.03955,-9.990659 h 4.40267 l 1.83444,-0.64911 -0.19756,-0.649111 z m 9.144,-10.639769 v 6.773328 6.773328 9.031104 l 0.254,0.64911 1.80622,-0.64911 v -9.031104 l 6.80155,-6.773328 -0.19756,-0.649111 -1.89088,0.649111 -4.71311,4.713107 v -4.713107 l 6.80155,-6.773328 -0.19756,-0.649111 -1.89088,0.649111 -4.71311,4.62844 v -4.62844 l -0.16934,-0.649111 z"
         id="path11" />
      <path
         style="font-family:'NewEng Rune';-inkscape-font-specification:'NewEng Rune';text-align:center;text-anchor:middle"
         d="m 88.407551,94.384438 v 4.515552 l -6.773328,6.77333 0.253999,0.64911 6.519329,6.57577 v 4.064 l 0.254,0.64911 1.834443,-0.64911 v -4.51555 l 6.773328,-6.77333 -0.197556,-0.64911 -6.575772,-6.575775 v -4.063997 l -0.197556,-0.649111 z m 2.088443,16.001992 v -8.97466 l 4.459107,4.48733 z m -2.088443,-0.47978 -4.48733,-4.45911 4.48733,-4.48733 z M 100.09152,94.384438 v 4.515552 13.54666 4.51555 l 0.254,0.64911 1.80622,-0.64911 v -4.51555 l 6.80155,-6.77333 -0.19755,-0.64911 -6.604,-6.575775 v -4.063997 l -0.16933,-0.649111 z m 2.06022,16.001992 v -8.97466 l 4.48733,4.48733 z m 13.94176,6.57577 6.80155,-11.28888 -0.19756,-0.64911 -6.77333,-11.288883 -1.89088,0.649111 0.254,0.649111 6.46288,10.752661 -4.65666,7.70466 v -7.16844 h 0.45155 l 1.83444,-0.64911 -0.19755,-0.64911 h -2.25778 -2.25777 l -1.89089,0.64911 0.254,0.64911 h 2.00378 v 10.63977 l 0.254,0.64911 z m 16.39708,-22.577762 -6.77333,11.288882 0.254,0.64911 6.77333,11.28888 1.83444,-0.64911 6.77333,-11.28888 -0.19755,-0.64911 h -6.77333 l -1.89089,0.64911 0.254,0.64911 h 6.15244 l -5.27755,8.74888 -5.70088,-9.51088 6.66043,-11.175992 -0.19755,-0.649111 z m 13.94176,8.777102 6.57578,-8.777102 -0.19756,-0.649111 h -6.77333 l -1.89088,0.649111 0.254,0.649111 h 6.01132 l -6.26532,8.381991 0.254,0.64911 6.29355,6.35 -6.54755,6.54755 0.254,0.64911 1.80622,-0.64911 6.80155,-6.77333 -0.19756,-0.64911 z m 9.39799,-8.777102 v 4.515552 4.51555 13.54666 l 0.254,0.64911 1.80622,-0.64911 v -11.51466 l 6.97088,5.24933 v 6.26533 l 0.254,0.64911 1.83445,-0.64911 v -6.77333 -4.51555 -11.288882 l -0.19756,-0.649111 -1.89089,0.649111 v 9.228662 l -6.97088,-5.22111 v -4.007552 l -0.16933,-0.649111 z m 2.06022,6.547552 6.97088,5.24933 v 1.94733 l -6.97088,-5.22111 z m 23.14219,-6.547552 V 116.9622 l 0.254,0.64911 1.80622,-0.64911 V 94.384438 l -0.16933,-0.649111 z m 11.65578,18.824212 -4.88244,-8.18444 -1.89089,0.64911 0.254,0.64911 6.77333,11.28888 1.83444,-0.64911 V 94.384438 l -0.19755,-0.649111 -1.89089,0.649111 z"
         id="path12" />
      <path
         style="font-family:'NewEng Rune';-inkscape-font-specification:'NewEng Rune';text-align:center;text-anchor:middle"
         d="m 82.777214,145.1844 v -8.77711 l 4.967108,4.91067 1.834443,-0.64911 -0.197556,-0.64911 -6.378217,-6.35 6.575773,-6.54755 -0.197556,-0.64911 -1.890887,0.64911 -4.713108,4.71311 v -9.22866 l -0.169333,-0.64911 -1.890887,0.64911 v 11.28888 11.28888 l 0.253999,0.64911 z m 16.36888,-22.57776 v 8.74888 l -4.882441,-4.88244 -1.890887,0.64911 0.254,0.64911 6.29355,6.35 -6.54755,6.54755 0.254,0.64911 1.80622,-0.64911 4.713108,-4.71311 v 9.22866 l 0.254,0.64911 1.834446,-0.64911 v -11.28888 -11.28888 l -0.19756,-0.64911 z m 4.910646,22.57776 0.254,0.64911 1.80622,-0.64911 6.80155,-11.28888 -0.19755,-0.64911 -1.89089,0.64911 -4.71311,7.81755 v -19.10643 l -0.16933,-0.64911 -1.89089,0.64911 z m 25.20243,-15.46577 -4.28977,-2.87866 4.28977,-2.85044 z m 0,2.42711 v 13.03866 l 0.254,0.64911 1.83444,-0.64911 v -13.54666 -9.0311 l -0.19755,-0.64911 -1.89089,0.64911 -5.33399,3.58422 -6.32178,-4.23333 -1.89088,0.64911 v 9.0311 13.54666 l 0.25399,0.64911 1.80623,-0.64911 v -13.54666 l 5.36221,-3.58422 z m -11.48643,-1.91911 v -5.70088 l 4.34621,2.85044 z m 18.42909,-5.10822 6.97089,6.97089 v 13.0951 l 0.254,0.64911 1.83444,-0.64911 v -13.54666 -9.0311 l -0.19756,-0.64911 -1.89088,0.64911 v 6.4911 l -7.14022,-7.14021 -1.89089,0.64911 v 22.57776 l 0.254,0.64911 1.80622,-0.64911 z m 32.1733,6.97089 v 10.5551 l -6.97089,-6.94266 v -10.58333 z m 2.08844,-0.45156 v -9.0311 l -0.19756,-0.64911 -1.89088,0.64911 v 6.4911 l -7.14022,-7.14021 -1.89089,0.64911 v 13.54665 9.03111 l 0.254,0.64911 1.80622,-0.64911 v -6.51933 l 7.22489,7.16844 1.83444,-0.64911 z m 8.26909,-2.794 3.49956,5.16467 -3.27378,4.93888 -3.47133,-5.24933 z m -5.44688,5.05178 0.254,0.64911 4.51555,6.77333 1.83445,-0.64911 4.51555,-6.77333 -0.19756,-0.64911 -4.51555,-6.77333 -1.89089,0.64911 z"
         id="path13" />
      <path
         style="font-family:'NewEng Rune';-inkscape-font-specification:'NewEng Rune';text-align:center;text-anchor:middle"
         d="m 81.464875,173.4066 0.254,0.64911 1.80622,-0.64911 v -9.03111 l 6.801551,-6.77332 -0.197556,-0.64911 -6.773328,-6.77333 -1.890887,0.64911 z m 6.54755,-15.57866 -4.48733,4.48733 v -8.97466 z m 12.135545,16.22777 1.83445,-0.64911 6.77333,-11.28888 -0.19756,-0.64911 -6.77333,-11.28888 -1.890885,0.64911 -6.773328,11.28888 0.254,0.64911 z m -4.825991,-12.05088 5.503331,-9.2851 5.78555,9.51088 -4.62844,7.70466 v -7.81755 l -0.19756,-0.64911 -1.890885,0.64911 v 7.53533 z m 16.227761,-11.17599 v 22.57776 l 0.254,0.64911 1.80622,-0.64911 v -7.53533 l 4.96711,8.18444 1.83444,-0.64911 -0.19755,-0.64911 -6.46289,-10.72444 6.66044,-5.55977 -0.19755,-0.64911 -6.77333,-5.64444 z m 6.49111,5.87022 -4.43089,3.66888 v -7.30955 z m 11.93799,-5.87022 -6.77333,6.77333 0.254,0.64911 6.35,8.49488 -6.604,6.66044 0.254,0.64911 1.80622,-0.64911 6.80155,-6.77333 -0.19755,-0.64911 -6.40644,-8.57955 6.60399,-6.57577 -0.19755,-0.64911 z m 7.30956,0.64911 h 4.60021 l 1.83445,-0.64911 -0.19756,-0.64911 h -6.77333 l -1.89088,0.64911 0.254,0.64911 4.26155,10.66799 -4.51555,11.26066 0.254,0.64911 h 6.77332 l 1.83445,-0.64911 -0.19756,-0.64911 h -6.32177 l 4.26155,-10.63977 -0.19755,-0.64911 z m 15.66331,-1.29822 -1.89089,0.64911 -4.51555,4.51555 0.254,0.64911 1.80622,-0.64911 2.45533,-2.45533 v 20.51754 l 0.254,0.64911 1.83444,-0.64911 v -20.06599 l 2.68111,2.65289 1.83444,-0.64911 -0.19755,-0.64911 z m 16.36887,0.64911 -0.19756,-0.64911 -1.89088,0.64911 v 9.0311 l -4.71311,4.71311 v -9.22866 l -0.16933,-0.64911 -1.89089,0.64911 v 11.28888 l 0.254,0.64911 1.80622,-0.64911 4.71311,-4.71311 v 11.48644 l 0.254,0.64911 1.83444,-0.64911 z m 11.68398,22.57776 v -22.57776 l -0.19756,-0.64911 -1.89089,0.64911 v 18.06221 l -4.7131,3.13266 v -21.19487 l -0.16934,-0.64911 -1.89089,0.64911 v 22.57776 l 0.254,0.64911 1.80623,-0.64911 4.7131,-3.13267 v 3.13267 l 0.254,0.64911 z m 4.99533,-6.97088 3.27378,-5.75733 3.49955,6.03955 -3.302,4.9671 z m 4.48733,-7.81755 4.43089,-7.78933 -0.19756,-0.64911 -1.89088,0.64911 -3.38667,5.95488 -3.75355,-6.60399 -1.89089,0.64911 0.254,0.64911 4.20511,7.36599 -4.45911,7.78933 0.254,0.64911 4.51555,6.77333 1.83445,-0.64911 4.51555,-6.77333 -0.19756,-0.64911 z"
         id="path14" />
      <path
         style="font-family:'NewEng Rune';-inkscape-font-specification:'NewEng Rune';text-align:center;text-anchor:middle"
         d="m 97.17052,179.70015 9.0311,22.57776 1.83445,-0.64911 v -22.57776 l -0.19756,-0.64911 -1.89089,0.64911 v 17.24376 l -7.140213,-17.89287 -1.890887,0.64911 z m 13.65955,21.92865 0.254,0.64911 1.80622,-0.64911 5.36221,-3.58422 6.37822,4.23333 1.83444,-0.64911 v -22.57776 l -0.19755,-0.64911 -1.89089,0.64911 v 20.65865 l -4.88244,-3.24555 -1.89089,0.64911 -4.7131,3.13266 v -12.16377 l 4.54377,-4.51555 -0.19756,-0.64911 -4.51555,-4.51555 -1.89088,0.64911 z m 4.28977,-17.83643 -2.22955,2.22955 v -4.45911 z m 25.68219,-4.09222 4.26155,10.66799 -4.51555,11.26066 0.254,0.64911 1.80622,-0.64911 3.49955,-8.66422 3.72533,9.31333 1.83444,-0.64911 -0.19755,-0.64911 -4.318,-10.66799 4.51555,-11.26066 -0.19755,-0.64911 -1.89089,0.64911 -3.44311,8.66421 -3.6971,-9.31332 -1.89089,0.64911 z m 19.33221,4.40266 -3.78178,-5.70088 -1.89088,0.64911 0.254,0.64911 4.26155,6.40644 v 15.52221 l 0.254,0.64911 1.83444,-0.64911 v -15.80443 l 4.51555,-6.77333 -0.19755,-0.64911 -1.89089,0.64911 z m 12.75643,17.52599 0.254,0.64911 1.83445,-0.64911 4.51555,-4.51555 -0.19756,-0.64911 -1.89088,0.64911 -2.42711,2.45533 v -20.51754 l -0.19756,-0.64911 -1.89089,0.64911 -4.51555,4.51555 0.254,0.64911 1.80622,-0.64911 2.45533,-2.45533 z"
         id="path15" />
    </g>
  </g>
</svg>
