<?xml version="1.0" encoding="UTF-8" standalone="no"?>
<!-- Created with Inkscape (http://www.inkscape.org/) -->

<svg
   width="567.37299"
   height="723.63947"
   viewBox="0 0 150.11743 191.46294"
   version="1.1"
   id="svg1"
   inkscape:version="1.4 (86a8ad7, 2024-10-11)"
   sodipodi:docname="Alphabet DotsNLines Lowercase.svg"
   xmlns:inkscape="http://www.inkscape.org/namespaces/inkscape"
   xmlns:sodipodi="http://sodipodi.sourceforge.net/DTD/sodipodi-0.dtd"
   xmlns="http://www.w3.org/2000/svg"
   xmlns:svg="http://www.w3.org/2000/svg">
  <sodipodi:namedview
     id="namedview1"
     pagecolor="#ffffff"
     bordercolor="#000000"
     borderopacity="0.25"
     inkscape:showpageshadow="2"
     inkscape:pageopacity="0.0"
     inkscape:pagecheckerboard="0"
     inkscape:deskcolor="#d1d1d1"
     inkscape:document-units="px"
     inkscape:zoom="1.0393815"
     inkscape:cx="188.57369"
     inkscape:cy="362.23466"
     inkscape:window-width="1920"
     inkscape:window-height="1027"
     inkscape:window-x="-8"
     inkscape:window-y="-8"
     inkscape:window-maximized="1"
     inkscape:current-layer="layer1" />
  <defs
     id="defs1" />
  <g
     inkscape:label="Layer 1"
     inkscape:groupmode="layer"
     id="layer1"
     transform="translate(-63.132763,-67.515139)">
    <text
       xml:space="preserve"
       style="font-size:28.2222px;line-height:1;font-family:'BlockTrain Hand';-inkscape-font-specification:'BlockTrain Hand';text-align:start;writing-mode:lr-tb;direction:ltr;text-anchor:start;display:none;fill:#19919b;fill-opacity:1;stroke:#7c7c7c;stroke-width:0.79375;stroke-dasharray:none;stroke-opacity:1"
       x="138.19148"
       y="88.739998"
       id="text1"><tspan
         style="font-style:normal;font-variant:normal;font-weight:normal;font-stretch:normal;font-size:28.2222px;font-family:'Dots n Lines';-inkscape-font-specification:'Dots n Lines';text-align:center;text-anchor:middle;fill:#19919b;fill-opacity:1;stroke:#7c7c7c;stroke-width:0.79375;stroke-dasharray:none;stroke-opacity:1"
         x="138.19148"
         y="88.739998"
         sodipodi:role="line"
         id="tspan7">aæbcçd</tspan><tspan
         style="font-style:normal;font-variant:normal;font-weight:normal;font-stretch:normal;font-size:28.2222px;font-family:'Dots n Lines';-inkscape-font-specification:'Dots n Lines';text-align:center;text-anchor:middle;fill:#19919b;fill-opacity:1;stroke:#7c7c7c;stroke-width:0.79375;stroke-dasharray:none;stroke-opacity:1"
         x="138.19148"
         y="116.9622"
         sodipodi:role="line"
         id="tspan10">efφþðg</tspan><tspan
         style="font-style:normal;font-variant:normal;font-weight:normal;font-stretch:normal;font-size:28.2222px;font-family:'Dots n Lines';-inkscape-font-specification:'Dots n Lines';text-align:center;text-anchor:middle;fill:#19919b;fill-opacity:1;stroke:#7c7c7c;stroke-width:0.79375;stroke-dasharray:none;stroke-opacity:1"
         x="138.19148"
         y="145.1844"
         sodipodi:role="line"
         id="tspan11">ȝhƕijkʞ</tspan><tspan
         style="font-style:normal;font-variant:normal;font-weight:normal;font-stretch:normal;font-size:28.2222px;font-family:'Dots n Lines';-inkscape-font-specification:'Dots n Lines';text-align:center;text-anchor:middle;fill:#19919b;fill-opacity:1;stroke:#7c7c7c;stroke-width:0.79375;stroke-dasharray:none;stroke-opacity:1"
         x="138.19148"
         y="173.4066"
         sodipodi:role="line"
         id="tspan5">lmnиŋo</tspan><tspan
         style="font-style:normal;font-variant:normal;font-weight:normal;font-stretch:normal;font-size:28.2222px;font-family:'Dots n Lines';-inkscape-font-specification:'Dots n Lines';text-align:center;text-anchor:middle;fill:#19919b;fill-opacity:1;stroke:#7c7c7c;stroke-width:0.79375;stroke-dasharray:none;stroke-opacity:1"
         x="138.19148"
         y="201.6288"
         sodipodi:role="line"
         id="tspan17">œpqrsʃ</tspan><tspan
         style="font-style:normal;font-variant:normal;font-weight:normal;font-stretch:normal;font-size:28.2222px;font-family:'Dots n Lines';-inkscape-font-specification:'Dots n Lines';text-align:center;text-anchor:middle;fill:#19919b;fill-opacity:1;stroke:#7c7c7c;stroke-width:0.79375;stroke-dasharray:none;stroke-opacity:1"
         x="138.19148"
         y="229.851"
         sodipodi:role="line"
         id="tspan13">tчuȣvw</tspan><tspan
         style="font-style:normal;font-variant:normal;font-weight:normal;font-stretch:normal;font-size:28.2222px;font-family:'Dots n Lines';-inkscape-font-specification:'Dots n Lines';text-align:center;text-anchor:middle;fill:#19919b;fill-opacity:1;stroke:#7c7c7c;stroke-width:0.79375;stroke-dasharray:none;stroke-opacity:1"
         x="145.30347"
         y="258.07321"
         sodipodi:role="line"
         id="tspan23">ꝏxyz </tspan></text>
    <g
       id="text30"
       style="font-size:28.2222px;line-height:1;font-family:'BlockTrain Hand';-inkscape-font-specification:'BlockTrain Hand';fill:#19919b;stroke:#7c7c7c;stroke-width:0.79375"
       aria-label="aæbcçd&#10;efφþðg&#10;ȝhƕijkʞ&#10;lmnиŋo&#10;œpqrsʃ&#10;tчuȣvw&#10;ꝏxyz ">
      <path
         style="font-family:'Dots n Lines';-inkscape-font-specification:'Dots n Lines';text-align:center;text-anchor:middle"
         d="m 78.360413,68.053125 c -0.05644,0 -0.169334,0.05644 -0.649111,0.310444 -0.479777,0.225778 -0.705555,0.338667 -0.818444,0.338667 -0.141111,0 -0.366888,0.08467 -0.479777,0.225777 -0.141111,0.141111 -0.451555,0.254 -0.733777,0.310444 -0.282222,0.05644 -0.451556,0.141111 -0.451556,0.254 0,0.08467 -0.169333,0.338667 -0.338666,0.592666 -0.169333,0.254 -0.338667,0.536222 -0.338667,0.677333 0,0.254 -0.112888,1.015999 -0.620888,2.82222 -0.225778,0.790222 -0.790222,1.91911 -1.15711,2.82222 -1.015999,2.42711 -1.890888,4.854219 -3.07622,7.168439 -0.790222,1.523999 -1.66511,3.019776 -1.91911,3.245553 -0.225777,0.225778 -0.282222,0.451555 -0.310444,0.620889 -0.02822,0.141111 -0.197555,0.39511 -0.366888,0.564444 l -0.254,0.253999 0.254,0.08467 c 0.05644,0.02822 0.05644,0.02822 0.112888,0.02822 0.112889,0 0.395111,0 0.479778,-0.112889 0.141111,-0.141111 0.169333,-0.197555 0.507999,-0.197555 0.366889,0 0.423333,-0.141111 0.564444,-0.310444 0.08467,-0.112889 0.395111,-0.366889 0.818444,-0.705555 0.366889,-0.282222 0.790222,-0.790222 1.015999,-1.072444 1.185333,-1.580443 1.608666,-2.144887 1.693332,-2.427109 0.08467,-0.366889 0.592667,-1.269999 0.987777,-1.777999 0.254,-0.310444 0.705555,-1.354665 0.705555,-1.608665 0,-0.141111 0.479778,-1.128888 0.620889,-1.298221 0.08467,-0.112889 0.169333,-0.338667 0.225777,-0.508 0.112889,-0.310444 0.338667,-0.987777 0.564445,-1.382888 0.225777,-0.479777 0.451555,-1.15711 0.451555,-1.269999 0,-0.08467 0.08467,-0.225777 0.225777,-0.451555 0.141111,-0.141111 0.169334,-0.169333 0.225778,-0.169333 0.169333,0 0.366889,0.395111 1.269999,2.596442 1.072444,2.709332 2.398887,5.390441 3.414886,6.886217 1.467555,2.201332 1.91911,2.765776 2.82222,3.668886 0.508,0.508 0.931333,0.874888 1.044222,0.874888 0.141111,0 0.282222,-0.02822 0.366888,-0.141111 0.112889,-0.169333 0.254,-0.253999 0.620889,-0.253999 0.423333,0 0.536221,0 0.536221,-0.225778 0,-0.141111 0.02822,-0.169333 0.169334,-0.169333 0.112888,0 0.225777,-0.08467 0.253999,-0.141111 0.02822,-0.02822 0.08467,-0.05645 0.197556,-0.05645 0.05644,0 0.112889,-0.02822 0.169333,0 0.05644,0.02822 0.08467,0.05645 0.141111,0.05645 0.05644,0 0.08467,-0.02822 0.08467,-0.05645 v -0.08467 -0.05644 c 0,-0.08467 0.141111,-0.197555 0.366888,-0.423333 0.338667,-0.338666 0.395111,-0.366888 0.395111,-0.620888 v -0.141111 c -0.02822,-0.366889 -0.141111,-0.536222 -0.761999,-1.185332 -0.395111,-0.395111 -0.931333,-1.016 -1.157111,-1.382888 -0.225777,-0.282222 -0.451555,-0.705555 -0.677332,-0.959555 -0.677333,-0.761999 -3.189109,-5.249329 -3.555998,-6.434662 -0.05644,-0.141111 -0.197555,-0.64911 -0.423333,-1.015999 -0.620888,-1.185332 -2.257776,-5.221107 -2.56822,-6.378217 -0.08467,-0.225778 -0.564444,-1.269999 -0.64911,-1.382888 z m -0.310445,15.832654 c -0.05644,-0.05644 -0.169333,-0.02822 -0.225777,0 -0.169333,0.02822 -0.395111,0.169334 -0.620889,0.310445 -0.225777,0.141111 -0.451555,0.423333 -0.705555,0.536221 -0.790221,0.310445 -1.213554,0.762 -1.749776,1.044222 -0.508,0.254 -0.282222,0.112889 -0.508,0.620888 -0.05644,0.08467 -0.08467,0.254 -0.08467,0.366889 0,0.225777 0.08467,0.395111 0.112888,0.620888 0.02822,0.169333 0.197556,0.508 0.282222,0.592666 0.05644,0.05644 0.310445,0.225778 0.620889,0.225778 0.338666,0 0.846666,-0.02822 1.185332,-0.02822 0.112889,0 0.225778,0 0.564444,-0.225778 0.254,-0.141111 0.395111,-0.282222 0.733778,-0.507999 0.338666,-0.225778 0.931332,-0.620889 1.269999,-0.931333 0.507999,-0.479777 0.592666,-0.592666 0.592666,-0.761999 0,-0.08467 0,-0.112889 -0.05644,-0.282222 -0.05644,-0.282222 -0.479777,-0.846666 -0.761999,-1.100666 -0.338666,-0.310444 -0.508,-0.479778 -0.649111,-0.479778 z m 13.349087,4.48733 c 0.282222,0 0.677332,-0.310444 0.959554,-0.451555 0.479778,-0.225778 0.874889,-0.451555 1.269999,-0.761999 1.411111,-1.072444 2.963332,-2.370665 3.866442,-3.725331 0.761999,-1.128888 1.072444,-1.66511 1.072444,-1.777998 0,-0.169334 3.527776,-5.587996 3.527776,-5.587996 0.14111,-0.423333 0.98778,-1.523999 1.27,-2.314221 l 0.11289,-0.310444 0.11289,0.254 c 0.14111,0.338666 0.36688,4.910663 0.36688,7.676439 0,1.80622 0.0564,2.709331 0.31045,5.164662 0.14111,1.467555 0.254,1.636888 0.73378,1.636888 0.79022,0 0.14111,0.536222 3.78177,0.705555 0.90311,0.05644 1.29822,0.141111 1.80622,0.141111 0.62089,0 0.47978,-0.112889 0.84667,-0.112889 0.16933,0 0.39511,0.05644 0.56444,0.05644 0.79022,0 4.62844,-0.310444 4.93889,-0.451555 0.11288,-0.05644 0.508,-0.112889 0.84666,-0.197555 0.98778,-0.225778 0.95956,-0.254 1.18533,-0.649111 0.36689,-0.64911 0.90311,-0.451555 0.90311,-0.846666 0,0 -0.0847,-0.761999 -0.39511,-0.761999 -0.0282,0 -2.85044,0.310444 -3.38666,0.310444 -1.43933,0 -5.36222,-0.197555 -6.01133,-0.338666 -0.36689,-0.08467 -0.79022,-0.112889 -0.93133,-0.141111 -0.22578,-0.02822 -0.31045,-0.112889 -0.42333,-0.395111 -0.16934,-0.508 -0.47978,-4.684885 -0.56445,-7.30955 -0.14111,-4.374441 -0.33866,-7.196661 -0.33866,-7.281328 v -0.112889 c 0.0847,-0.08467 4.82599,-0.112888 4.88244,-0.112888 1.38288,0 2.87866,0.08467 4.06399,0.08467 2.032,0 2.286,-0.254 2.76578,-0.761999 0.56444,-0.564444 0.90311,-1.580443 0.90311,-1.580443 l -1.69333,-0.05644 c -6.23711,-0.225777 -4.85422,-0.282222 -7.53533,-0.338666 h -0.0847 -0.67733 c -0.508,0 -0.95955,-0.02822 -1.58044,-0.02822 h -0.0847 c -0.508,0 -0.87489,-0.08467 -1.18533,-0.08467 -0.14111,0 -0.254,0 -0.36689,0.02822 -2.794,0.818444 -3.27378,1.015999 -4.03578,1.806221 -0.42333,0.479777 -1.12888,1.298221 -1.63688,1.975554 -0.254,0.366889 -1.74978,2.906887 -1.74978,2.935109 0,0.02822 -1.015999,1.693332 -1.523998,2.596442 -0.620889,1.185333 -1.41111,2.116665 -2.681109,4.402664 -0.987777,1.721554 -2.314221,3.443108 -3.499553,5.13644 -0.310445,0.395111 -0.762,0.761999 -0.903111,1.269999 -0.02822,0.05644 -0.02822,0.08467 -0.02822,0.141111 0,0.141111 0.197555,0.169333 0.225778,0.169333 z m 26.698205,-11.79688 c -0.16934,0 -0.39511,0.08467 -0.56445,0.141111 -0.28222,0.08467 -0.508,0.254 -0.762,0.395111 -1.80622,0.903111 -2.68111,1.298222 -2.68111,2.681109 0,0.818444 0.36689,0.931333 0.59267,0.931333 0.56444,0 2.62466,-0.536222 3.302,-1.15711 0.90311,-0.790222 0.98777,-0.846666 0.98777,-1.523999 0,-0.818444 -0.47977,-1.467555 -0.87488,-1.467555 z m -16.84866,7.986883 c -0.0564,0 -3.386661,1.834443 -3.386661,2.596443 0,0.141111 0.282222,0.536221 0.282222,0.677332 0,0.141111 0.141111,0.254 0.366888,0.254 0.620889,0 1.467555,-0.395111 2.116661,-0.733777 0.90311,-0.479777 1.35467,-0.705555 1.35467,-1.495777 0,-1.185332 -0.70556,-1.298221 -0.73378,-1.298221 z m 27.91177,-14.054656 c 1.97556,0 5.588,0.846666 6.37822,1.580444 0.81844,0.790221 1.27,1.580443 1.27,2.56822 0,0.254 -0.0282,0.507999 -0.11289,0.761999 -0.33867,1.269999 -0.79022,1.834443 -1.83444,2.201332 -0.90311,0.310444 -2.85044,1.298221 -3.07622,1.580443 -0.11289,0.141111 -0.16934,0.338667 -0.16934,0.479778 0,0.225777 0.0282,0.253999 0.31045,0.253999 0.31044,0 1.74978,-0.338666 2.286,-0.338666 0.508,0 1.778,0.395111 2.51177,1.015999 0.508,0.395111 0.87489,2.060221 0.87489,3.245553 0,1.636888 -0.33867,1.66511 -1.89089,1.806221 -1.72155,0.141111 -1.83444,0.112889 -2.34244,0.254 -0.28222,0.05644 -1.83444,0.141111 -3.44311,0.197555 l -2.93511,0.05644 -1.016,0.507999 c -1.12888,0.564444 -2.48355,1.326444 -2.48355,1.721554 0,0.141111 0.22578,0.451556 0.47978,0.451556 0.14111,0 0.28222,-0.05644 0.42333,-0.05644 0.98778,-0.02822 1.38289,-0.141111 2.93511,-0.169333 4.26155,-0.141111 6.49111,-0.508 7.50711,-0.790222 1.69333,-0.479777 3.66888,-1.41111 3.6971,-1.439332 2.48356,-1.608665 3.16089,-2.652887 3.16089,-5.023551 0,-0.733778 -0.0282,-0.705555 -0.39511,-2.031999 -0.11289,-0.536222 -1.12889,-1.439332 -1.91911,-1.66511 -0.36689,-0.112888 -0.53622,-0.112888 -0.59267,-0.451555 0,-0.02822 -0.0282,0.02822 -0.0282,0 0,-0.423333 1.15711,-1.269999 1.524,-1.806221 0.67733,-1.072443 0.79022,-1.749776 0.79022,-2.116665 0,-0.02822 -0.0282,-1.015999 -0.64911,-2.003776 -0.64911,-1.185332 -2.56822,-2.285998 -4.88244,-2.850442 -1.58044,-0.395111 -1.91911,-0.395111 -3.048,-0.395111 -1.07244,0 -2.45533,0.02822 -2.96333,0.141111 -0.33866,0.08467 -0.84666,0.197555 -1.12889,0.254 -0.64911,0.112889 -1.12888,0.282222 -1.69333,0.507999 l -0.39511,0.169334 c -0.508,0.225777 -2.20133,0.959554 -2.56822,1.467554 -0.0847,0.112889 -0.254,0.282222 -0.254,0.423333 0,0.05644 0,0.112889 0.0564,0.112889 h 0.0282 c 0.64911,0 3.80999,-0.620889 5.58799,-0.620889 z m -4.48733,10.244659 h 0.0564 c 0.14111,0 0.36689,-0.02822 0.36689,-0.02822 0.14111,0.02822 0.19755,0.02822 0.31044,0.02822 0.31044,0 0.56444,-0.08467 1.18533,-0.310444 1.15711,-0.395111 1.32645,-0.508 1.94733,-1.15711 0.33867,-0.366889 0.508,-0.649111 0.508,-0.874888 0,-0.508 -0.70555,-1.467555 -1.18533,-1.467555 l -0.0282,0.02822 c -0.254,0.02822 -0.67733,0.197556 -1.72155,0.733778 -1.58045,0.818443 -2.25778,1.41111 -2.25778,2.229553 0,0.733778 0.0847,0.733778 0.81844,0.818444 z m 31.58067,8.099772 c 0.79022,0 1.778,0.02822 2.65289,0.02822 0.90311,0 1.69333,-0.02822 2.00377,-0.282222 0.62089,-0.508 0.81845,-0.592666 0.98778,-0.762 0.0282,-0.02822 1.07244,-1.439332 1.07244,-1.80622 0,-0.08467 0,-0.112889 -0.11289,-0.112889 -0.0564,0 -5.24933,-0.197556 -6.01132,-0.197556 h -0.64912 c -2.22955,0 -4.57199,-0.112888 -6.09599,-1.777998 -0.36689,-0.366889 -0.62089,-0.762 -0.62089,-0.874888 0,-0.508 -0.62089,-0.169334 -0.62089,-3.922886 0,-2.201332 0.36689,-3.866442 1.04422,-5.164663 0.39511,-0.733777 1.94734,-2.342443 3.10445,-2.850442 0.62088,-0.254 1.69333,-0.620889 3.86644,-0.620889 2.20133,0 2.99155,0.338667 3.61244,0.338667 0.90311,0 2.08844,-1.523999 2.08844,-1.91911 0,-0.225777 -0.87489,-0.592666 -1.41111,-0.733777 -0.254,-0.08467 -0.79022,-0.112889 -1.43933,-0.112889 -0.98778,0 -2.20133,0.08467 -3.07622,0.225778 -5.44688,0.90311 -9.31333,5.221107 -9.39799,5.305773 -0.16934,0.254 -0.508,0.649111 -0.73378,0.903111 -0.47978,0.507999 -1.016,1.721554 -1.43933,3.07622 -0.36689,1.15711 -0.36689,2.652887 -0.36689,4.571996 0,1.439332 0.0847,1.806221 0.56444,2.991553 0.47978,1.185333 1.24178,1.975554 2.68111,2.765776 1.32645,0.733777 1.58045,0.733777 4.45911,0.846666 1.016,0.05644 2.06022,0.08467 3.10444,0.08467 z m 25.68222,-18.005764 c 0.90311,0 2.08844,-1.552221 2.08844,-1.91911 0,-0.141111 -1.04422,-0.846666 -4.28978,-0.846666 -6.71688,0 -10.07532,3.019776 -11.23243,4.063997 -0.98778,0.90311 -1.72156,2.173109 -2.06022,3.753553 -0.16933,0.874888 -0.39511,2.088443 -0.39511,2.709331 0,1.806221 0.93133,3.104442 1.43933,3.668886 0.81844,0.987777 2.45533,1.693332 3.83822,2.173109 1.07244,0.366889 3.83822,0.366889 4.14866,0.366889 2.45533,0 6.01133,-0.282222 7.14022,-0.761999 0.81844,-0.338667 1.89089,-1.636888 1.89089,-2.144888 0,-0.141111 -0.73378,-0.564444 -1.27,-0.564444 -0.0565,0 -3.75356,0.536222 -5.842,0.536222 -1.27,0 -4.12044,-0.366888 -4.91066,-0.761999 -1.63689,-0.818444 -2.06022,-1.100666 -2.06022,-3.33022 0,-3.245553 0.87489,-4.797774 1.524,-5.475107 0.62089,-0.64911 1.60866,-0.931332 2.48355,-1.298221 2.032,-0.874888 3.72533,-0.874888 3.83822,-0.874888 1.74978,0 3.41489,0.705555 3.66889,0.705555 z m -8.01511,19.078207 c 1.18533,0 2.11667,-0.451555 2.48356,-0.677333 0.73377,-0.423333 1.74977,-0.931332 1.83444,-1.749776 v -0.112889 c 0,-0.818444 -1.07245,-1.693332 -1.55222,-1.693332 -1.04422,0 -2.794,0.874888 -3.44311,1.523999 -0.79022,0.818444 -0.84667,0.931333 -0.84667,1.298221 0,0.169333 0.16934,1.41111 1.524,1.41111 z m 15.32465,-19.473318 c 0.39511,0 0.87489,-0.112889 1.24178,-0.112889 h 0.28222 c 1.016,0 1.89089,-0.197555 3.61244,-0.197555 0.762,0 5.24933,0.02822 6.71688,1.213554 3.18911,2.455332 3.78178,6.124218 3.78178,8.692438 0,2.17311 -0.42333,4.656663 -1.60867,5.559774 -0.56444,0.479777 -2.53999,0.90311 -3.97933,0.90311 -0.28222,0 -2.56822,-0.197555 -2.59644,-0.197555 -5.47511,-0.366889 -4.20511,-0.451556 -5.07999,-0.451556 -0.39512,0 -0.762,0.141111 -1.778,0.508 -0.79022,0.282222 -2.31422,1.495777 -2.31422,1.806221 0,0.112889 0.11289,0.141111 0.28222,0.141111 0.16933,0 0.36689,-0.05644 0.73378,-0.05644 0.0847,0 5.19288,0.508 8.04332,0.508 4.03578,0 7.95866,-1.241777 9.79311,-2.624665 2.59644,-1.919109 2.70933,-2.511775 3.07622,-4.995329 0.0847,-0.649111 0.16933,-1.241777 0.16933,-2.229554 0,-4.48733 -1.97555,-7.732883 -4.65666,-9.228659 -2.62467,-1.495777 -4.88244,-1.693332 -6.57578,-1.693332 -0.11289,0 -10.07532,0.366888 -10.18821,1.890887 0.16933,0.508 0.90311,0.564444 1.04422,0.564444 z m 1.60867,10.018881 c 0.28222,0 2.11666,-0.310444 3.38666,-1.552221 0.39511,-0.395111 1.21355,-1.072443 1.21355,-1.185332 0,-0.395111 -0.56444,-0.874889 -1.21355,-1.439333 -0.254,-0.225777 -0.31044,-0.253999 -0.67733,-0.253999 -0.508,0 -0.56445,0 -2.286,0.818443 -1.72156,0.790222 -2.25778,1.326444 -2.25778,2.229554 0,1.128888 1.524,1.382888 1.83445,1.382888 z"
         id="path30" />
      <path
         style="font-family:'Dots n Lines';-inkscape-font-specification:'Dots n Lines';text-align:center;text-anchor:middle"
         d="m 79.545767,96.388214 h -1.467555 -3.97933 -0.536222 c -1.128888,0 -3.019775,0.310444 -3.922886,0.536222 -0.310444,0.08467 -1.326443,1.269999 -1.467554,1.495777 -0.08467,0.112888 -0.141111,1.044221 -0.141111,1.834447 0,0.0847 0.225778,3.4431 0.225778,7.78932 0,4.28978 -0.197556,7.30955 -0.197556,7.39422 0,0.11289 0,1.38289 1.15711,1.38289 0.141111,0 0.225778,-0.0282 0.366889,-0.0282 0,0 0.197555,0.0282 0.338666,0.0282 0.112889,0 5.418663,-0.11289 9.849548,-0.11289 h 2.17311 c 0.564444,0 0.395111,-0.0282 0.705555,-0.0282 0.620888,0 3.809997,0.14111 3.838219,0.14111 0.141111,0 0.366889,-0.33867 0.536222,-0.47978 0.338666,-0.31044 0.790221,-0.56444 1.044221,-0.93133 0.169333,-0.254 0.536222,-0.79022 0.536222,-1.016 0,-0.0564 0,-0.0564 -0.05644,-0.0564 h -0.02822 l -0.733777,0.0282 -3.499553,-0.14112 c -1.862665,-0.0847 -4.459107,-0.14111 -5.362218,-0.14111 h -2.06022 -0.310445 c -1.072443,0 -1.269999,0.0847 -2.173109,0.0847 -0.790222,0 -1.693332,-0.0282 -1.749776,-0.0847 0,-0.0282 -0.02822,-0.28222 -0.02822,-0.64911 0,-2.59644 0.169334,-4.99533 0.169334,-7.59177 0,-2.794 -0.197556,-3.64066 -0.197556,-4.26155 0,-0.39511 0.05644,-0.22578 0.05644,-0.508 0,-0.508 -0.112889,-1.04422 -0.112889,-1.354666 0,-0.169333 0.02822,-0.254 0.141111,-0.310444 0.620888,-0.395111 3.358442,-0.254 5.051774,-0.338667 0.790221,-0.02822 2.003776,-0.08467 3.866441,-0.08467 0.790222,0 1.608666,0.08467 2.398887,0.08467 1.834443,0 1.693332,-0.197555 2.060221,-0.197555 0.08467,0 0.08467,0.02822 0.141111,0.02822 0.310444,0 2.173109,-2.060221 2.173109,-2.31422 0,-0.141111 -0.141111,-0.197556 -1.044221,-0.197556 h -1.326444 -0.705555 z m 1.382888,11.034876 c 0,0.254 0.64911,0.98778 1.072443,1.15711 0.338667,0.14112 1.015999,0.39512 1.382888,0.39512 0.564444,0 1.044221,-0.42334 1.552221,-0.70556 0.508,-0.28222 1.015999,-0.62089 1.495777,-0.98778 0.39511,-0.33866 1.044221,-0.62088 1.128888,-1.15711 v -0.0564 c 0,-0.762 -1.636888,-1.58044 -2.314221,-1.58044 -1.439332,0 -4.317996,2.25777 -4.317996,2.9351 z m 15.635079,-7.16843 c 0,-0.366893 0.02822,-0.564448 0.08467,-0.592671 0.254,-0.141111 2.116665,-0.253999 5.136439,-0.253999 1.41111,0 3.10444,0.05644 5.02355,0.08467 l 2.68111,0.02822 c 0,0 0.508,-0.253999 0.73378,-0.39511 1.69333,-1.185333 1.86266,-1.213555 1.86266,-1.721555 0,-0.790221 -0.56444,-0.874888 -6.91443,-1.100665 h -9.905997 c -0.395111,0 -1.100666,0.02822 -1.91911,0.987777 -0.39511,0.507999 -1.665109,1.100665 -1.665109,1.269999 0,0.282222 0.931332,0.423333 0.931332,0.705555 0,0.225777 -0.564444,0.620888 -0.564444,0.987781 0,0.0282 0.02822,0.0847 0.02822,0.11288 0.141111,0.62089 0.169334,4.68489 0.423333,5.87022 0.112889,0.45156 0.112889,4.28978 0.112889,6.46289 v 1.49577 c 0,1.94733 0,2.22956 -0.141111,2.25778 -0.08467,0.0282 -0.112889,0.0564 -0.112889,0.11289 0,0.0847 0.366889,0.56444 0.649111,0.56444 0.479777,0 2.906887,-0.98778 3.697108,-2.032 0.225778,-0.33866 0.282222,-1.49577 0.282222,-4.60022 0,-8.18443 -0.423333,-6.91443 -0.423333,-10.24465 z m 7.535326,8.69243 c 0,0.28223 0.14111,0.42334 0.762,0.81845 0.22578,0.14111 0.28222,0.31044 0.81844,0.31044 1.24178,0 2.56823,-0.73378 2.99156,-1.016 0.31044,-0.22578 1.15711,-1.12889 1.24178,-1.41111 0.0282,-0.11289 0.0282,-0.22578 0.0282,-0.31044 v -0.254 c 0,-1.49578 -1.80622,-1.63689 -1.83445,-1.63689 -0.762,0 -4.00755,2.54 -4.00755,3.49955 z m 24.66619,-11.514654 v -0.02822 c -0.0565,-0.677332 -1.12889,-1.495776 -2.11667,-1.495776 -0.90311,0 -1.74978,0.705555 -1.778,0.705555 -0.67733,0.620888 -1.63689,1.241777 -1.63689,2.144887 0,0.338666 0.28223,0.649111 0.56445,0.818444 0.254,0.169333 1.41111,0.338666 1.43933,0.338666 h 0.11289 c 1.27,-0.08467 3.41489,-1.749776 3.41489,-2.483553 z m -4.79778,3.612444 c -2.08844,0.11289 -2.70933,-0.14111 -5.55977,1.29822 -1.07245,0.53622 -2.65289,2.37066 -2.87867,2.99155 -0.254,0.64911 -0.39511,2.032 -0.39511,3.21733 0,1.04422 0.14111,1.94733 0.36689,2.20133 0.62089,0.79023 1.38289,1.04423 2.62467,1.41111 0.67733,0.22578 4.23333,0.31045 4.28977,0.31045 0.73378,0 1.07244,-0.0282 1.72155,-0.0282 h 0.14112 c 1.01599,0 2.00377,0.0564 3.01977,0.0564 h 0.36689 c 0.0564,0 1.80622,-0.0847 2.06022,-0.11289 0.93133,-0.14111 2.51178,-0.36689 2.85044,-0.59266 0.47978,-0.33867 0.53622,0.0564 2.06022,-1.27 0.31045,-0.14111 1.016,-1.21356 1.24178,-1.86267 0.0564,-0.14111 0.0847,-0.62089 0.0847,-1.15711 0,-2.42711 -0.0847,-3.92288 -0.42334,-4.572 -0.98777,-1.72155 -3.52777,-1.97555 -4.76955,-1.97555 h -3.95111 c 0,0 -1.91911,0.0282 -2.85044,0.0847 z m 7.19666,8.91821 -1.27,0.11289 c -0.36689,0.0282 -0.84666,0.0282 -1.32644,0.0282 -0.56444,0 -1.15711,-0.0282 -1.55222,-0.0282 h -1.94733 c -0.79022,0.0282 -1.74978,0.0564 -2.31422,0.0564 -0.36689,0 -1.60867,-0.11289 -1.89089,-0.19756 -0.47978,-0.14111 -0.90311,-0.22578 -1.15711,-0.64911 -0.36689,-0.64911 -0.53622,-1.94733 -0.53622,-3.07622 0,-2.11667 0.508,-2.34244 1.12889,-2.56822 1.18533,-0.47978 5.78555,-0.508 5.84199,-0.508 h 0.64911 c 2.73755,0.0564 3.92289,0.28222 4.26155,0.64911 0.67734,0.81844 0.73378,2.65289 0.73378,3.302 0,2.20133 -0.19755,2.37066 -0.62089,2.87866 z m -8.15621,6.35 v 0.0282 c 0,0.31044 0.16933,0.64911 0.39511,0.87489 0.254,0.22578 1.41111,0.254 1.43933,0.254 0.16933,0 0.42333,0.0282 0.59267,-0.0282 0.28222,-0.0847 0.53622,-0.31045 0.79022,-0.45156 l 0.42333,-0.31044 c 0.0282,0 1.41111,-0.98778 1.58044,-1.35467 0.11289,-0.22578 0.22578,-0.45155 0.22578,-0.67733 0,-0.0282 -0.0282,-0.95956 -1.58044,-1.12889 -0.0564,0 -0.16934,-0.0282 -0.22578,-0.0282 -1.60866,0 -3.58422,2.17311 -3.64066,2.82222 z m 20.17887,-20.856208 c -0.508,0 -1.016,0.169333 -1.43933,0.310444 -0.508,0.141111 -0.90311,0.507999 -1.29822,0.818444 -0.36689,0.282222 -0.81845,0.564444 -1.04422,0.987777 -0.11289,0.225777 -0.22578,0.479777 -0.22578,0.705555 0,1.015999 1.24178,1.128888 1.63689,1.128888 0.93133,0 3.52777,-0.846666 3.52777,-2.765776 0,-1.072444 -0.79022,-1.185332 -1.15711,-1.185332 z m 3.83822,5.192888 c -3.78177,0 -5.334,0.31044 -6.66044,0.95955 -0.39511,0.22578 -1.10066,0.64911 -1.10066,1.15711 0,0.254 0.19755,0.28222 0.31044,0.28222 0.14111,0 0.36689,-0.0564 0.508,-0.0564 0.0564,0 3.302,0.11289 5.334,0.11289 0.93133,0 1.97555,-0.0282 2.90688,-0.0282 h 0.98778 c 0.39511,0 0.84666,0 1.41111,0.0564 1.07244,0.11289 1.69333,0 2.93511,1.15711 1.18533,1.07244 1.46755,2.31422 1.46755,3.33022 0,1.58044 -0.36689,1.69333 -0.73377,1.80622 -0.62089,0.16933 -3.38667,0.19756 -3.41489,0.19756 -2.20133,0 -4.318,-0.16934 -6.51933,-0.16934 -0.56444,0 -2.62466,0.0282 -2.96333,0.11289 -0.16933,0.0564 -0.14111,0.0282 -0.762,0.42333 -1.41111,0.93134 -1.69333,1.86267 -1.69333,1.89089 0,0.14111 0.11289,0.28222 0.22578,0.28222 0,0 0,-0.0282 0.31044,-0.0282 0.0564,0 3.69711,0.11289 4.74133,0.11289 1.38289,0 3.048,-0.0564 4.12044,-0.0564 0.67733,0 1.35467,0.0282 2.08844,0.0282 0.33867,0 0.70556,0 1.07245,-0.0282 3.75355,-0.16934 3.24555,-0.33867 4.74133,-0.95956 0.36689,-0.14111 1.778,-1.29822 2.14488,-2.032 0.14112,-0.22577 0.39511,-0.70555 0.56445,-1.016 0.254,-0.47977 0.39511,-1.55222 0.39511,-2.45533 0,-1.07244 -0.16933,-1.49577 -0.33867,-1.86266 -0.62089,-1.07245 -1.66511,-1.94733 -2.73755,-2.56822 -0.64911,-0.36689 -1.63689,-0.62089 -2.87867,-0.62089 -0.98777,0 -2.14488,0.0282 -3.21733,0.0282 -0.0282,0 -3.16088,-0.0564 -3.24555,-0.0564 z m -7.45066,15.8891 c 0,0.33866 0.14111,0.62088 0.39511,0.84666 0.31044,0.254 1.46756,0.31045 1.49578,0.31045 0.16933,0 0.36689,-0.0282 0.53622,-0.0847 0.47978,-0.14111 2.59644,-1.60867 2.87866,-2.11667 0.11289,-0.22577 0.22578,-0.47977 0.22578,-0.70555 0,-0.53622 -0.56444,-0.84667 -0.90311,-0.98778 -0.22578,-0.11289 -0.22578,0 -0.45155,-0.0847 l -0.33867,-0.11289 h -0.11289 c -1.27,0 -3.72533,2.03199 -3.72533,2.93511 z m 32.56842,-17.836435 c 3.18911,0 5.13644,1.947335 5.78555,2.765775 1.18534,1.43933 1.49578,3.83822 1.49578,5.78555 0,0.53622 -0.0564,1.15711 -0.11289,1.80622 -0.22578,2.31422 -0.53622,2.45533 -0.90311,3.52778 -0.56444,1.46755 -1.15711,1.49577 -2.032,1.66511 -0.93133,0.22577 -1.91911,0.39511 -3.9511,0.39511 -0.98778,0 -1.94734,-0.0282 -3.21734,-0.16934 l -2.22955,-0.254 -0.87489,0.31045 c -1.016,0.36689 -2.25777,1.41111 -2.25777,1.778 0,0.14111 0.0847,0.19755 0.254,0.28222 0.36689,0.14111 2.76577,0.36689 3.9511,0.36689 0.36689,0 0.98778,-0.0564 1.80623,-0.0564 h 1.26999 c 2.85045,0 4.96711,-0.42333 5.02356,-0.45155 2.20133,-0.56445 3.89466,-1.72156 4.82599,-2.45533 1.29822,-1.016 1.94733,-1.35467 2.56822,-2.99156 0.14111,-0.36688 0.31045,-0.67733 0.39511,-1.04422 0.28223,-1.29822 0.39511,-3.07622 0.39511,-4.23333 0,-2.70933 -1.12888,-4.43088 -1.18533,-4.76955 0,-0.0564 -1.15711,-1.890887 -2.99155,-2.96333 -2.96333,-1.721555 -5.64444,-1.721555 -8.60777,-1.721555 -1.35467,0 -2.73756,0.141111 -3.64067,0.197556 -0.70555,0.02822 -2.70933,0.141111 -3.89466,1.495776 0,0 -0.33867,0.225778 -0.33867,0.395111 0,0.02822 0.28223,0.649111 1.58045,0.649111 0.0847,0 6.71688,-0.310444 6.88621,-0.310444 z m 2.93511,6.575775 h -0.39511 c -0.0564,0 -5.95488,-0.22578 -6.4911,-0.22578 -1.38289,0 -2.34245,0.11289 -2.87867,0.254 -0.16933,0.0564 -2.85044,1.24178 -2.85044,2.37066 0,0.36689 0.39511,0.39512 0.62089,0.39512 0.22577,0 0.47977,-0.0564 0.70555,-0.0564 0.56445,0 4.91067,0.28222 7.08377,0.28222 1.91911,0 2.68111,-0.508 2.96334,-0.64911 0.28222,-0.14111 0.42333,-0.39511 0.67733,-0.56444 0.14111,-0.14111 1.07244,-0.62089 1.24178,-1.016 0.0564,-0.11289 0.0564,-0.19756 0.0564,-0.33867 0,-0.19755 -0.0282,-0.45155 -0.73378,-0.45155 z m 25.23067,-8.861774 c -3.72533,0 -6.60399,2.088443 -8.80532,4.120444 -2.45534,2.31422 -2.45534,2.82222 -3.10445,4.51555 -0.53622,1.43933 -0.98777,2.99155 -0.98777,4.54377 0,3.18911 2.08844,5.36222 3.27377,6.29355 1.41111,1.15711 8.24088,1.21356 8.26911,1.21356 2.22955,0 5.10822,-0.45156 5.24933,-0.508 1.58044,-0.508 3.89466,-3.33022 3.89466,-3.66889 0,-0.28222 -1.18533,-1.10066 -1.49578,-1.10066 -0.62089,0 -1.04422,2.06022 -6.88621,2.06022 -1.41111,0 -4.65667,-0.16933 -6.12422,-1.778 -0.73378,-0.90311 -1.38289,-1.55222 -1.89089,-3.13266 -0.0564,-0.22578 -0.14111,-0.73378 -0.14111,-1.46756 0,-1.72155 0.11289,-2.37066 1.016,-4.28977 0.79022,-1.63689 1.29822,-2.032 1.94733,-2.65289 1.524,-1.41111 3.13267,-1.41111 4.54378,-1.41111 0.22577,0 2.76577,0.05644 2.79399,0.05644 0.0282,0 2.99156,0 3.302,-0.225777 0.33867,-0.225778 1.524,-1.806221 1.524,-2.17311 0,-0.366888 -0.98778,-0.395111 -4.318,-0.395111 z m 5.55978,8.212664 c -0.56445,0 -2.00378,0.67733 -2.62467,0.98777 -1.35466,0.79023 -1.83444,1.04423 -1.83444,1.80622 0,0.0847 0.22578,1.66511 2.00377,1.66511 1.55223,0 2.70934,-1.07244 2.76578,-1.12888 0.36689,-0.36689 0.90311,-0.53623 1.524,-1.18534 l 0.67733,-0.70555 -0.36689,-0.39511 c -0.16933,-0.22578 -1.04422,-1.10067 -1.60866,-1.10067 -0.14111,0 -0.31045,0.0282 -0.53622,0.0564 z"
         id="path31" />
      <path
         style="font-family:'Dots n Lines';-inkscape-font-specification:'Dots n Lines';text-align:center;text-anchor:middle"
         d="m 69.879642,145.32551 3.951108,-0.0282 h 0.282222 c 0.479777,0 4.261552,-0.0847 6.180661,-0.87489 1.862666,-0.73378 4.402664,-3.69711 4.402664,-5.10822 0,-0.16933 -0.08467,-0.45155 -0.225778,-0.67733 -0.423333,-1.24178 -2.116665,-3.10444 -3.499553,-3.556 -0.169333,-0.0564 -0.310444,-0.14111 -0.310444,-0.254 0,-0.14111 0.536222,-0.67733 0.931333,-0.98778 1.354665,-1.016 2.681109,-2.65288 2.793998,-3.83822 v -0.25399 c 0,-1.43934 -0.762,-2.17311 -1.382888,-2.70934 -2.060221,-1.91911 -4.261553,-2.68111 -7.05555,-2.68111 h -0.536222 c -1.185333,0 -3.725331,0.42334 -3.97933,0.47978 -1.41111,0.28222 -2.370665,0.53622 -4.063997,1.32645 -1.495777,0.73377 -2.398887,1.32644 -2.398887,1.74977 0,0.33867 0.451555,0.39511 0.790221,0.39511 1.41111,0 2.144888,-0.56444 4.48733,-1.07244 1.072444,-0.22578 3.471331,-0.39511 4.035775,-0.39511 h 0.395111 c 2.031998,0 3.612441,1.27 4.092219,1.74977 1.128888,1.18534 1.269999,1.43934 1.269999,2.22956 v 0.0282 c 0,1.07244 -0.366889,2.00378 -1.016,2.42711 -0.507999,0.33867 -0.818443,0.42333 -2.935108,0.64911 -0.903111,0.11289 -0.649111,-0.14111 -1.975554,0.59267 -0.903111,0.508 -1.777999,1.18533 -1.777999,1.46755 0.02822,0.508 1.015999,0.47978 1.91911,0.56445 2.201331,0.16933 2.201331,0.16933 3.330219,0.70555 0.931333,0.508 1.128888,0.67733 1.777999,1.43933 0.395111,0.508 1.100666,1.32645 1.100666,2.14489 0,0.42333 -0.282222,0.95955 -0.423333,1.18533 -0.366889,0.56445 -0.451556,0.81845 -4.684886,0.81845 h -1.467554 c -5.700884,0 -6.491106,-0.39511 -6.575773,-0.39511 -0.366888,0 -1.241777,0.59266 -1.467554,0.76199 l -1.269999,1.04423 c -0.282222,0.31044 -0.423333,0.53622 -0.423333,0.67733 0,0.14111 0.141111,0.22578 0.395111,0.254 1.41111,0.14111 2.06022,0.14111 2.56822,0.14111 z m 33.556228,-7.42244 c 0,4.51555 -0.0847,7.08377 -0.0847,7.16844 0,0.16933 0.22578,0.19756 0.254,0.19756 0.14111,0 0.22578,-0.0847 0.62089,-0.0847 0.0282,0 0.22577,0.0282 0.22577,0.0282 0.16934,0 2.93511,-0.47978 3.47134,-1.41111 0.14111,-0.254 0.22577,-1.15711 0.22577,-2.62466 0,-0.14111 -0.0847,-0.95956 -0.33866,-14.84488 0.0282,-0.39511 0.0282,-0.70556 0.0282,-0.95956 0,-0.62088 -0.0565,-0.84666 -0.19756,-0.84666 h -0.0564 c -0.33867,0.11289 -2.70933,0.19755 -3.86644,1.21355 l -0.36689,0.31045 -0.0565,2.25777 c -0.0282,0.98778 -0.0282,1.778 -0.0282,2.54 0,2.54 0.16934,6.97088 0.16934,7.05555 z m -15.663326,-0.64911 v 0.93133 c 0,3.49956 -0.02822,6.40644 -0.02822,6.49111 0,0.22578 0.05644,0.56444 0.112889,0.56444 0,0 0.112889,-0.0564 1.015999,-0.0564 h 0.169333 c 0.02822,0 1.975554,0 2.991554,-0.90311 l 0.282222,-0.28222 v -2.45534 c 0,-1.58044 -0.08467,-3.47133 -0.08467,-3.49955 v -1.69333 c 0,-2.20133 -0.112889,-0.59267 -0.112889,-3.33022 0,-0.79022 0,-1.72155 0.02822,-2.794 l 0.08467,-4.54377 -0.282222,-0.47978 c -0.141111,-0.22578 -0.395111,-0.47978 -0.564444,-0.47978 -0.620888,0 -3.414886,1.04422 -3.527775,1.29822 -0.08467,0.22578 -0.141111,4.65667 -0.141111,7.64822 0,3.83822 0.05644,2.39889 0.05644,3.58422 z m 7.140217,-1.66511 c 0,0.11289 0.02822,0.22578 0.05644,0.33867 0.169334,0.47977 0.02822,0.95955 1.016,0.95955 h 0.818443 c 0.112889,0 1.100666,-0.0564 1.721555,-0.36689 0.90311,-0.47977 2.257777,-1.55222 2.257777,-2.032 0,-0.14111 -0.67733,-0.84666 -1.044223,-1.07244 -0.253999,-0.14111 -0.761999,-0.14111 -0.931332,-0.14111 -1.66511,0 -3.894664,1.04422 -3.894664,2.31422 z m 42.728399,1.29822 v 0.73378 c -0.14111,4.45911 -0.254,5.02355 -1.15711,5.02355 -0.0564,0 -5.30577,-0.28222 -5.89844,-4.34622 -0.0847,-0.508 -0.16933,-1.04422 -0.22578,-1.18533 -0.0847,-0.16933 -0.14111,-2.39889 -0.14111,-3.44311 v -0.47978 c 0.0565,-0.67733 0.0847,-2.42711 0.0847,-3.83822 0,-0.14111 -0.0282,-0.33866 -0.0282,-0.47977 v -0.22578 c 0,-1.58044 0.11288,-2.286 0.11288,-2.70933 0,-0.56445 -0.36688,-1.24178 -0.47977,-1.32645 -0.22578,-0.14111 -0.19756,-0.16933 -0.73378,-0.16933 -0.90311,0 -2.76578,0.67733 -3.49955,1.29822 l -0.31045,0.19756 v 3.81 c 0,1.6651 -0.11289,2.62466 -0.11289,3.80999 0,0.22578 0.0564,0.39511 0.0564,0.62089 v 0.508 c 0,0.47978 -0.0564,0.93133 -0.0564,1.41111 0,3.302 1.38289,6.096 2.39889,6.91444 0.53622,0.42333 1.86267,1.10067 2.87866,1.524 1.43934,0.59266 1.74978,0.73378 3.49956,0.73378 0.90311,0 1.80622,-0.11289 2.62466,-0.22578 1.15711,-0.28222 2.62467,-0.98778 4.03578,-1.778 0.64911,-0.33867 0.81844,-0.64911 0.95955,-1.69333 0.0565,-0.508 0.16934,-1.27 0.254,-1.69334 0.11289,-0.62088 0.14111,-1.58044 0.14111,-2.65288 0,-1.32645 -0.0282,-2.85044 -0.0282,-4.17689 v -0.56444 c 0,-1.07245 0.0282,-2.22956 0.0282,-3.302 v -0.93133 c 0,-1.91911 -0.11289,-1.49578 -0.16933,-3.16089 0,-0.53622 -0.11289,-0.67733 -0.28222,-0.73378 -0.31045,-0.0564 -0.39511,-0.33866 -0.70556,-0.33866 -0.36689,0 -2.00377,0.53622 -2.794,1.04422 -0.64911,0.39511 -0.62088,0.45155 -0.70555,1.12889 0,0.0847 -0.0282,0.14111 -0.0282,0.22578 0,0.31044 0.11289,0.62088 0.11289,0.93133 v 1.58044 c 0,2.62467 0.16933,6.82977 0.16933,7.95866 z m -21.27954,-3.97933 c 0,-1.15711 0.0847,-3.24555 0.0847,-5.44688 l -0.254,-2.56822 -0.33867,-0.31045 c -0.22578,-0.16933 -0.33867,-0.31044 -0.56444,-0.31044 h -0.0564 c -0.62089,0 -2.87866,0.93133 -3.21733,1.63689 -0.16933,0.33866 -0.254,9.87777 -0.254,9.99065 v 0.0564 c 0,1.86266 0.0847,2.90689 0.0847,5.50333 v 3.83822 l 0.64911,0.0282 h 0.254 c 0.0282,0 1.66511,-0.0282 2.25777,-0.53622 0.0282,-0.0282 1.15711,-0.87489 1.32645,-1.41111 0.11289,-0.36689 0.19755,-3.97933 0.19755,-6.68866 0,-3.16089 -0.16933,-2.65289 -0.16933,-3.78178 z m 5.842,-0.254 h -0.0847 c -1.38289,0.0282 -4.28978,1.15711 -4.28978,2.31422 0,0.79022 0.254,1.07245 1.04423,1.38289 0.47977,0.16933 0.67733,0.19756 1.04422,0.19756 1.41111,0 1.80622,-0.16934 2.73755,-0.81845 0.93133,-0.67733 1.21356,-1.04422 1.21356,-1.69333 0,-0.70556 -0.81845,-1.38289 -1.66511,-1.38289 z m 23.1704,13.01044 c 0.64911,0 1.91911,-0.70556 2.25778,-0.81845 0.36689,-0.14111 1.86266,-0.70555 2.42711,-1.016 0.22577,-0.14111 0.28222,-0.11289 0.28222,-0.42333 0,-0.0282 -0.0564,-1.69333 -0.0564,-2.87866 0,-1.91911 0.11289,-1.49578 0.11289,-2.68111 0,-0.47978 -0.0564,-0.95956 -0.0564,-1.43934 0,-0.14111 0.0847,-7.61999 0.11289,-9.22866 0,0 0.0564,-0.98777 0.0564,-1.49577 v -1.04422 c 0,-0.53623 -0.0564,-0.56445 -0.19755,-0.56445 -0.36689,0 -3.49956,1.27 -4.318,1.83445 l -0.36689,0.22577 -0.0847,1.32645 c -0.0847,1.24177 -0.16933,13.46199 -0.16933,13.6031 -0.0847,1.07244 -0.0847,1.69333 -0.14111,2.96333 0,0 -0.11289,0.508 -0.11289,0.93133 0,0.67733 0.16933,0.70556 0.254,0.70556 z m 9.45443,-0.14111 c 1.18533,0 2.14489,-0.47978 2.51178,-0.70556 0.73377,-0.42333 1.69333,-0.90311 1.778,-1.72155 v -0.11289 c 0,-0.81845 -1.04423,-1.69334 -1.524,-1.69334 -1.04422,0 -2.82222,0.87489 -3.47133,1.524 -0.79023,0.81845 -0.81845,0.93134 -0.81845,1.29823 0,0.16933 0.16934,1.41111 1.524,1.41111 z m 5.75733,-0.39512 c 0.64911,0 1.91911,-0.70555 2.25778,-0.81844 0.36688,-0.14111 1.86266,-0.67733 2.42711,-0.98778 0.22577,-0.14111 0.28222,-0.14111 0.28222,-0.45155 0,-0.0282 -0.0564,-1.66511 -0.0564,-2.85044 0,-1.91911 0.11289,-1.49578 0.11289,-2.68111 0,-0.47978 -0.0282,-0.95956 -0.0282,-1.43934 0,-0.14111 0.0847,-7.11199 0.11289,-8.72066 0,0 0.0282,-0.98777 0.0282,-1.49577 v -1.04422 c 0,-0.53623 -0.0564,-0.56445 -0.19755,-0.56445 -0.36689,0 -3.52778,1.27 -4.34622,1.83445 l -0.33867,0.22577 -0.0564,1.32645 c -0.0847,1.24177 -0.19756,12.95399 -0.19756,13.0951 -0.0847,1.07244 -0.0847,1.69333 -0.14111,2.96333 0,0 -0.11289,0.47978 -0.11289,0.90311 0,0.67733 0.16933,0.70555 0.254,0.70555 z m 8.4102,0.42334 c 0.33867,0 4.23333,-0.87489 4.28977,-1.83445 0.0282,-0.64911 0.11289,-2.65288 0.19756,-3.72533 0.0847,-1.41111 0.0564,-1.41111 0.36689,-1.63688 0.11289,-0.0847 4.51555,-2.59645 4.57199,-2.62467 1.74978,-1.07244 2.51178,-1.72155 3.69711,-2.62466 1.15711,-0.87489 1.43933,-0.95956 3.35844,-2.68111 0.762,-0.64911 2.25778,-1.69333 2.90689,-2.70933 0.28222,-0.42334 0.53622,-1.55222 0.53622,-2.06022 v -0.16934 c 0,-0.762 -0.14111,-0.81844 -0.64911,-0.84666 h -0.31044 c -0.33867,0 -0.70556,0 -1.18533,0.14111 -0.508,0.14111 -0.73378,0.45155 -0.90311,0.59266 -0.508,0.42334 -2.68111,2.99156 -3.75356,4.064 -2.62466,2.54 -7.95866,6.77333 -8.2691,6.80155 -0.14111,0 -0.36689,-0.0847 -0.36689,-0.47978 0,-1.07244 -0.0282,-1.49577 -0.0564,-2.48355 0,-0.16933 -0.0282,-0.84667 -0.0282,-1.016 0,-1.32644 0.11289,-2.62466 0.11289,-3.97933 v -1.41111 c 0,-1.35467 -0.0282,-1.69333 -0.19755,-2.06022 -0.14111,-0.254 -0.16934,-0.47978 -0.45156,-0.47978 h -0.0564 c -1.07245,0.0847 -3.52778,1.10067 -3.86645,1.66511 -0.16933,0.31045 -0.19755,2.286 -0.22577,3.44311 v 0.508 c 0,1.18533 0.0847,2.45533 0.0847,3.64066 v 1.016 c 0,0.762 -0.0282,1.43934 -0.0282,2.20134 0,1.35466 0,2.59644 -0.11289,6.43466 0,0.508 -0.0847,1.24177 -0.0847,1.72155 0,0.56445 0.22577,0.59267 0.33866,0.59267 z m 15.77621,-0.19756 h 0.254 c 0.762,0 3.95111,-0.53622 4.09222,-2.48355 v -0.14111 c 0,-1.18534 -1.15711,-2.62467 -2.22956,-2.62467 h -0.16933 c -2.08844,0 -3.33022,1.016 -4.03577,2.00378 -0.28223,0.45155 -0.31045,0.64911 -0.31045,1.15711 0,1.63689 1.04422,1.94733 2.39889,2.08844 z m 22.66245,0 c -0.0282,0 -0.0282,0.0282 -0.0282,0.0564 0,0 0.0282,0.11289 0.28222,0.11289 1.49577,0 3.66888,-1.04423 4.23333,-1.32645 0.16933,-0.11289 0.42333,-0.11289 0.53622,-0.28222 0.11289,-0.16933 0.11289,-0.59267 0.11289,-1.10067 v -1.12888 c 0.11289,-3.18911 0.11289,-4.54378 0.11289,-5.588 v -1.29822 c 0,-1.04422 -0.0282,-2.11667 -0.0282,-3.16089 0,-0.14111 0.0282,-0.28222 0.0282,-0.42333 0,-0.0564 0.0847,-3.556 0.0847,-5.41866 l 0.0282,-1.41111 c -0.0847,-0.0847 -0.19756,-0.11289 -0.36689,-0.11289 -0.62089,0 -1.63689,0.62089 -2.82222,0.98778 -0.254,0.11288 -1.016,0.39511 -1.41111,0.79022 -0.33867,0.33866 -0.36689,1.86266 -0.39511,3.33022 -0.0565,2.73755 0,3.07622 -0.508,3.61244 -1.07245,1.07244 -1.32645,1.32644 -2.87867,2.59644 -2.59644,2.08844 -4.48733,3.75355 -7.08377,5.47511 -2.032,1.38289 -1.55222,1.15711 -2.45533,1.66511 -0.79022,0.42333 -2.22955,2.08844 -2.22955,2.31422 0,0.14111 0.42333,0.254 1.32644,0.254 h 0.508 c 1.46755,-0.0282 2.96333,-0.98778 5.05177,-2.56822 l 2.22956,-1.55222 c 0.62088,-0.39511 1.21355,-0.81845 1.83444,-1.21356 0.90311,-0.64911 3.86644,-3.07622 3.92288,-3.07622 0.0847,0 0.11289,0.254 0.11289,1.18533 0,0.64911 -0.0282,1.49578 -0.0282,2.032 v 0.90311 c 0,1.43934 -0.11289,4.34622 -0.16933,4.34622 z m -9.90599,-20.77154 c -0.36689,0 -0.87489,0.0564 -1.24178,0.16934 -0.90311,0.22577 -3.52778,2.00377 -3.52778,3.24555 v 0.0282 c 0.0282,0.53622 0.59267,0.95956 0.95956,1.32644 0.39511,0.39512 0.84666,0.81845 1.89089,0.81845 0.39511,0 0.84666,-0.0564 1.21355,-0.16934 0.47978,-0.14111 3.41489,-1.63688 3.41489,-2.9351 v -0.0282 c -0.0564,-1.15711 -1.38289,-2.45533 -2.70933,-2.45533 z"
         id="path32" />
      <path
         style="font-family:'Dots n Lines';-inkscape-font-specification:'Dots n Lines';text-align:center;text-anchor:middle"
         d="m 86.065056,170.44327 h -1.439332 c -0.02822,0 -0.762,0.0282 -1.91911,0.0282 -0.790222,0 -1.834443,0 -2.906887,-0.0282 -0.536221,0 -1.044221,-0.0282 -1.552221,-0.0282 -1.354665,0 -2.596442,0.0282 -3.894663,0.0282 h -1.128888 c -0.254,-4.09222 -0.338667,-13.32088 -0.338667,-13.46199 v -1.72156 c 0,-1.016 -0.05644,-1.97555 -0.282222,-2.28599 -0.225777,-0.28223 -0.254,-0.42334 -0.479777,-0.42334 0,0 -2.455332,0.56445 -3.838219,1.83445 0,0 -0.05645,2.20133 -0.05645,3.27377 0,0.87489 -0.02822,1.66511 -0.02822,2.54 v 1.21355 c 0,3.89467 0.02822,7.30955 0.254,11.48644 l 0.677333,0.22578 c 0.64911,0.22577 1.128888,0.22577 4.62844,0.28222 2.088443,0.0282 2.793998,0.0282 3.189109,0.0282 h 4.48733 c 1.015999,0 1.91911,0 2.144887,-0.0282 1.975554,-0.22578 3.33022,-2.22955 3.33022,-2.59644 0,-0.36689 -0.620889,-0.36689 -0.846666,-0.36689 z m 4.007566,-8.21266 v 5.95488 l -0.02822,5.13644 0.451556,0.16934 c 0.05644,0.0282 0.112888,0.0282 0.169333,0.0282 0.366888,0 2.850442,-0.73378 2.878664,-0.73378 1.185333,-0.36689 1.157111,-0.33867 1.213555,-0.84667 0.08467,-0.39511 0.169333,-9.2851 0.169333,-9.39799 v -0.16933 c 0,-0.33867 -0.08467,-4.85422 -0.08467,-4.91066 0,-0.87489 0.02822,-1.18534 0.112888,-1.27 0.366889,-0.36689 3.132665,-0.36689 3.160887,-0.36689 0.64911,0 1.919111,0.0282 2.568221,0.0282 0.22578,0 1.04422,-0.0282 1.27,-0.0282 0.73378,-0.0282 0.81844,-0.14111 2.59644,-0.14111 1.58044,0 1.89089,-0.14111 3.33022,-0.28222 0.0282,0 0,-0.0564 0.0282,-0.0564 0.11289,0 0.39511,0.254 0.39511,0.81844 0,0.22578 -0.0282,0.42334 -0.0282,0.64912 v 0.16933 c 0,0.42333 -0.0282,0.84666 -0.0282,1.27 v 0.14111 c 0,0.762 0.0282,1.46755 0.0282,2.22955 v 0.22578 c -0.0282,2.20133 -0.22578,10.58333 -0.22578,10.69621 0,2.11667 0.11289,2.11667 0.47978,2.11667 0.0564,0 1.74978,-0.14111 3.78178,-1.29822 0.22577,-0.14111 0.39511,-0.22578 0.39511,-1.15711 v -7.64822 c 0,-0.90311 -0.0282,-1.89089 -0.0282,-2.794 v -1.41111 c 0,-0.62089 -0.0282,-1.21355 -0.0282,-1.83444 -0.0282,-0.762 -0.0564,-1.66511 -0.0564,-2.34244 v -0.64911 c 0,-0.87489 -0.0847,-1.12889 -0.16934,-1.41111 l -0.11288,-0.36689 h -1.21356 c -0.98778,0.0564 -1.97555,0.22578 -2.96333,0.31044 -2.22955,0.14111 -12.671768,0.53622 -12.784657,0.53622 -0.225777,0 -0.395111,-0.0282 -0.423333,-0.0564 -0.02822,-0.0282 -0.112889,-0.31044 -0.112889,-0.45156 -0.02822,-0.254 -0.02822,-0.254 -0.366888,-0.254 h -0.02822 c -0.366889,0 -2.398887,0.84667 -3.58422,1.18534 -0.225778,0.0564 -0.90311,0.62089 -0.90311,1.04422 0,0.0847 0.141111,-0.31045 0.141111,7.16844 z m 12.925768,0.11289 h -0.28222 c -0.56445,0 -0.762,0.22577 -1.12889,0.254 -0.11289,0 -1.41111,0.39511 -2.201332,1.63688 -0.310444,0.508 -0.479778,0.81845 -0.508,1.04423 v 0.11288 c 0,1.29823 1.947332,1.32645 1.975552,1.32645 0.42334,0 1.60867,-0.19756 2.25778,-0.70556 0.98778,-0.73377 1.38289,-1.55222 1.43933,-2.032 v -0.0564 c 0,-0.254 -0.508,-1.46755 -1.55222,-1.58044 z m 27.48843,-6.32178 c 0,0.62089 0.90311,1.35467 1.69333,1.35467 0.14112,0 0.53623,0.16933 0.95956,0.16933 h 0.28222 c 1.18533,0 1.32644,-0.39511 1.63689,-0.39511 0.22578,0 2.31422,-1.07244 2.37066,-1.80622 v -0.0564 c 0,-0.36689 -0.14111,-1.016 -0.16933,-1.15711 0,-0.0282 -0.16933,-0.28223 -0.39511,-0.53623 -0.508,-0.62088 -1.07244,-0.81844 -2.06022,-0.84666 h -0.22578 c -1.38289,0 -4.09222,1.69333 -4.09222,3.27377 z m -14.39332,17.21555 c 0.0282,0.0282 0.0847,0.0282 0.19756,0.0282 0.0564,0 2.6811,-0.0847 4.43088,-1.55222 0.11289,-0.0847 0.11289,-0.28222 0.11289,-0.64911 0,-0.254 0.0847,-0.53623 0.11289,-0.79023 0.14111,-2.31422 0.36689,-9.2851 0.36689,-9.36977 v -0.28222 c 0.0564,0 0.22577,0.16934 0.31044,0.31045 0.64911,0.79022 8.24088,9.25688 10.72444,11.5711 l 0.87489,0.79022 c 0.0847,0.0847 0.14111,0.11289 0.28222,0.11289 0.64911,0 2.85044,-1.29822 2.87866,-1.32644 0.62089,-0.36689 1.016,-0.47978 1.016,-0.70556 0,-0.11289 -0.11289,-0.28222 -0.254,-0.42333 -3.16088,-3.27378 -7.05555,-7.47889 -7.11199,-7.53533 -3.07622,-3.24555 -5.13644,-5.842 -5.19289,-5.89844 -0.0282,-0.0564 -2.34244,-3.10444 -2.99155,-4.00755 -0.254,-0.33867 -0.508,-0.62089 -0.62089,-0.64911 -0.0282,0 -0.14111,-0.0282 -0.28222,-0.0282 h -0.16933 c -1.35467,0 -3.83822,1.15712 -4.064,1.32645 -0.36689,0.254 -0.93133,0.84666 -0.93133,0.98778 0,0.0564 0.11288,0.16933 0.14111,0.254 0.22577,0.79022 0.33866,6.66043 0.39511,9.20043 0,0.79022 0.0282,1.58045 0.0282,2.37067 0,4.43088 -0.254,5.7291 -0.254,6.26533 z m 44.81685,-20.23532 c -0.0847,-0.22578 -0.79022,-0.67733 -1.15711,-0.67733 -0.0564,0 -2.11666,0.79022 -2.73755,1.29822 -0.47978,0.39511 -1.27,1.55222 -1.89089,2.31422 -0.90311,1.07244 -1.80622,2.20133 -2.70933,3.27377 -1.69333,1.91911 -3.47133,3.78178 -5.16466,5.70089 -1.69333,1.94733 -3.58422,3.83822 -5.08,5.95488 -0.62089,0.90311 -1.69333,2.39889 -1.69333,2.90689 v 0.0282 c 0,0 0.0847,0.0847 0.36689,0.0847 1.43933,0 3.13266,-0.81845 3.16088,-0.84667 0.36689,-0.22578 1.10067,-1.43933 1.66511,-2.08844 6.26533,-7.59177 8.24089,-9.05933 10.07533,-11.14777 0.33867,-0.36689 0.508,-0.64911 0.62089,-0.64911 0.0564,0 0.0564,0.0564 0.0564,0.14111 v 1.12889 l -0.0564,1.69333 c -0.0282,0.36689 -0.0565,1.72155 -0.0565,2.65289 0,1.07244 0.0565,2.17311 0.0565,3.24555 v 2.93511 c 0.0564,1.83444 0.0282,2.14488 0.254,2.37066 0.16933,0.22578 0.31044,0.36689 0.81844,0.36689 0.11289,0 0.19756,-0.0282 0.33867,-0.0282 1.60866,-0.14111 3.41488,-1.60867 3.49955,-2.11667 -0.11289,-2.48355 -0.11289,-2.51177 -0.11289,-3.16088 -0.0282,-1.60867 -0.0847,-3.18911 -0.0847,-4.79778 0,-1.18533 0.0847,-2.34244 0.0847,-3.52777 0,-0.36689 -0.0282,-0.81845 -0.0282,-1.18533 v -0.36689 c 0,-0.64911 0.0282,-1.524 0.0282,-2.31422 0,-1.55222 -0.22578,-3.10445 -0.254,-3.18911 z m -13.03865,1.86266 v -0.0564 c 0,-0.36689 -0.22578,-0.81844 -0.254,-0.95956 0,-0.0282 -0.19756,-0.33866 -0.42334,-0.59266 -0.53622,-0.62089 -0.70555,-0.762 -1.74977,-0.79022 -1.18534,0 -1.35467,0.0564 -2.62467,0.70555 -0.79022,0.36689 -1.27,0.59267 -1.58044,0.95956 -0.36689,0.508 -0.47978,0.67733 -0.47978,0.90311 0,0.14111 0.0282,0.31044 0.0282,0.47977 0,0.64911 0.254,1.32645 1.07245,1.55223 0.22578,0.16933 0.64911,0.31044 1.07244,0.31044 0.22578,0 0.47978,0.0282 0.70556,0.0282 1.55222,0 4.14866,-1.63689 4.23333,-2.54 z m 18.76776,-1.524 c -1.49578,0.79023 -1.69334,1.21356 -1.86267,1.21356 -0.16933,0 -0.28222,0.508 -0.28222,1.41111 0,0.16933 0.0282,0.39511 0.0282,0.62089 v 0.39511 c 0,0.98778 -0.0847,2.45533 -0.0847,3.64066 v 0.98778 3.89466 0.33867 c 0,1.91911 0,3.86644 -0.0564,5.78555 0,0.31044 0,0.47978 -0.0564,0.95956 l -0.0282,0.87488 0.42334,0.0564 h 0.0564 c 0.90311,0 2.48356,-0.81845 3.66889,-1.38289 0.11289,0 0.19755,-0.0564 0.19755,-0.11289 0.42334,-2.76577 0.22578,-10.8091 0.59267,-12.72821 v -0.0282 c 0.11289,0 1.60866,1.63688 1.63689,1.66511 1.016,1.18533 1.60866,1.94733 1.60866,1.97555 0,0.0282 0.62089,0.73378 1.41111,1.524 3.49955,3.58422 4.88244,5.05177 4.88244,6.23711 0,0.762 -1.016,0.79022 -1.15711,0.79022 -0.67733,0 -1.72155,-0.42334 -2.08844,-0.90311 -0.508,-0.64911 -0.22578,-2.032 -0.98778,-2.032 -0.79022,0 -3.24555,1.778 -3.38666,2.42711 v 0.0847 c 0,0.47978 0.53622,1.69334 1.016,2.06022 0.73378,0.56445 1.58044,0.67734 2.20133,0.67734 0.90311,0 2.17311,-0.16934 3.10444,-0.39511 0.73378,-0.14111 1.43933,-0.47978 2.11667,-0.762 1.60866,-0.67734 1.58044,-0.67734 2.59644,-1.58045 0.90311,-0.79022 0.98778,-1.69333 0.98778,-2.06022 0,-0.79022 -0.39511,-1.27 -1.18534,-2.28599 -1.18533,-1.49578 -1.18533,-1.55223 -4.34622,-4.79778 l -1.12888,-1.21355 c -0.67734,-0.79022 -1.35467,-1.63689 -2.032,-2.42711 -3.72533,-4.14867 -3.72533,-4.12044 -4.51555,-4.76955 -0.36689,-0.31045 -1.24178,-0.81845 -1.41111,-0.81845 -0.62089,0 -1.07245,0.22578 -1.91911,0.67733 z m 10.18821,2.20134 c 0,0.14111 0.0564,0.33866 0.19756,0.64911 0.64911,1.24177 2.56822,1.41111 2.59644,1.41111 1.07244,0 2.85044,-1.18534 2.87866,-1.21356 1.18534,-1.07244 1.21356,-1.89089 1.21356,-1.97555 0,-0.14111 0.0282,-0.28222 -0.0282,-0.508 -0.0564,-0.22578 -0.64911,-0.95956 -0.87489,-1.10067 -0.39511,-0.33866 -0.53622,-0.28222 -1.18533,-0.36689 h -0.0282 c -0.0847,0 -0.14111,0.0282 -0.19755,0.0282 -0.0564,0 -0.11289,-0.0282 -0.14111,-0.0565 -0.81845,0.0565 -0.93134,0.0565 -1.41111,0.19756 -0.14111,0 -3.01978,1.18533 -3.01978,2.93511 z m 18.9089,-3.24556 c 0,0.0847 -0.45156,0.33867 -1.016,0.56445 -3.24555,1.35466 -5.47511,2.62466 -7.11199,6.80155 -0.508,1.27 -0.73378,2.65288 -0.79023,4.00755 0,0.254 -0.0282,0.508 -0.0282,0.762 0,1.016 0.0847,2.032 0.42334,2.93511 2.25777,6.18066 7.81754,6.51933 9.0311,6.51933 0.90311,0 1.80622,-0.11289 2.70933,-0.254 2.08844,-0.31045 5.08,-2.06022 5.13644,-2.08845 0.81844,-0.56444 1.60867,-1.24177 2.22955,-2.03199 1.83445,-2.31423 1.91911,-6.51933 1.91911,-6.604 0,-1.41111 -0.39511,-3.33022 -1.04422,-4.40266 -1.38288,-2.45533 -5.39044,-5.53155 -8.12799,-5.53155 h -0.22578 c 0.62089,-0.62089 0.62089,-0.59267 0.62089,-0.67734 v -0.0847 c -0.0847,-0.0847 -0.56444,-0.14111 -1.18533,-0.14111 h -0.254 c -0.98778,0 -2.286,0.0847 -2.286,0.22577 z m 2.54,3.49956 c 0.98777,0.42333 2.90688,1.83444 3.38666,2.45533 2.06022,2.56822 2.17311,4.00755 2.22956,6.20888 v 0.14111 c 0,2.87867 -1.69334,5.61622 -1.72156,5.67266 -0.508,0.62089 -2.85044,0.64912 -3.01977,0.64912 -3.18911,0 -4.826,-1.41111 -5.36222,-2.032 -2.20133,-2.37067 -2.22956,-6.46289 -2.22956,-6.54755 0,-4.12044 2.06022,-6.54755 2.22956,-6.77333 0,0 0.56444,-0.28222 1.49577,-0.28222 1.10067,0 2.54,0.31044 2.99156,0.508 z"
         id="path33" />
      <path
         style="font-family:'Dots n Lines';-inkscape-font-specification:'Dots n Lines';text-align:center;text-anchor:middle"
         d="m 80.604069,201.65702 c 1.495776,0 3.612442,0.0282 6.716884,0.11289 h 0.366888 c 0.620889,0 3.612442,-1.27 3.612442,-2.06022 v -0.0282 c 0,-0.31045 -0.366889,-0.56445 -0.903111,-0.84667 -0.536221,-0.254 -0.705555,-0.28222 -2.003776,-0.28222 h -0.761999 c 0,0 -3.866442,0.11289 -6.349995,0.11289 -1.072444,0 -1.890888,0 -2.003777,-0.0847 -0.02822,0 -0.02822,0 -0.02822,-0.0282 0,-0.36689 3.668886,-2.17311 3.668886,-8.26911 0,-1.07244 -0.112889,-2.00377 -0.366888,-2.79399 -0.338667,-1.07245 -1.044222,-2.56822 -1.523999,-3.21733 -0.141111,-0.22578 -0.282222,-0.53623 -0.282222,-0.59267 0,-0.14111 1.298221,-0.0847 2.201331,-0.11289 h 2.963332 c 0.564444,0 1.100665,0.0282 1.382887,0.0565 h 0.254 c 0.508,0 1.072444,-0.14112 1.749777,-0.508 0.90311,-0.47978 1.15711,-0.79023 1.523998,-1.10067 0.338667,-0.254 0.395111,-0.508 0.395111,-0.64911 0,-0.36689 -0.366888,-0.39511 -1.41111,-0.39511 h -0.197555 c -0.169333,0 -0.338667,-0.0282 -0.508,-0.0282 h -2.003776 c -0.649111,0 -1.552221,-0.0282 -2.624665,-0.0282 h -0.197555 c -1.91911,0 -4.092219,0.0564 -5.587996,0.0564 h -0.05644 -2.201332 -0.64911 c -2.963331,0 -5.870218,1.72155 -7.111995,2.54 -4.713107,3.16088 -5.13644,6.71688 -5.13644,9.20043 v 0.47978 c 0,0.31045 0.02822,1.58044 0.282222,2.08844 0.225777,0.36689 0.225777,1.07245 0.874888,2.06022 1.269999,1.91911 4.402663,4.23334 7.111994,4.37445 0.05644,0 0.141111,0.0282 0.225778,0.0282 0.169333,0 0.423333,-0.0282 0.705555,-0.0282 h 0.846666 c 0.987777,0 2.088443,0.0282 3.019775,0.0282 0.677333,0 3.951108,-0.0847 4.007553,-0.0847 z m -2.285998,-10.69621 c 0,1.43933 -0.310445,6.71688 -2.511776,7.45066 -0.254,0.0847 -0.592666,0.11289 -0.903111,0.11289 -0.90311,0 -1.919109,-0.28222 -2.82222,-0.64911 -3.866441,-1.69334 -4.007552,-4.96711 -4.035774,-6.35 v -0.53622 c 0,-0.73378 0.02822,-1.778 0.282222,-2.68111 0.677332,-2.59644 2.991553,-4.62844 4.459107,-4.79777 h 0.141111 c 2.793998,0 5.390441,3.66888 5.390441,7.45066 z m 6.970883,1.29822 c 0,0.0564 0.02822,0.11289 0.02822,0.16933 0.141111,0.73378 2.060221,1.35467 2.681109,1.35467 h 0.225778 c 0.987777,-0.14111 3.499553,-2.06022 3.555997,-2.794 v -0.0282 c 0,-0.79022 -1.580443,-1.69333 -2.483553,-1.778 h -0.05645 c -1.580443,0 -3.951108,2.286 -3.951108,3.07622 z m 11.994414,-8.24088 c 0.05644,0 1.834443,-0.28223 5.079992,-0.28223 2.59645,0 4.51556,0.0847 6.29355,1.63689 0.79023,0.67733 1.41111,1.69333 1.41111,4.20511 0,0.98778 -0.11288,2.00378 -0.25399,2.22955 -0.62089,0.90311 -1.35467,1.38289 -2.62467,1.38289 -0.14111,0 -0.28222,-0.0282 -0.42333,-0.0564 h -2.48356 c -0.56444,0 -1.15711,-0.0282 -1.72155,-0.0282 h -0.14111 c -1.69333,0 -2.963333,0.0564 -5.164664,0.11289 -1.354666,0.90311 -2.427109,1.94734 -2.427109,2.31422 v 0.0282 c 0,0.0282 0.39511,0.42333 1.665109,0.42333 0.564444,0 1.241777,-0.0565 1.806221,-0.0565 h 0.197556 c 1.015999,0 2.003777,-0.0282 3.019777,-0.0282 h 0.0282 c 0.64911,0 1.29822,0.0282 1.94733,0.0282 h 0.87489 c 1.524,0 2.59644,-0.25399 2.62466,-0.25399 1.21356,-0.31045 3.92289,-1.58045 5.24933,-3.01978 0.64911,-0.73378 1.35467,-1.21355 1.58045,-2.51178 0.14111,-0.90311 0.28222,-1.72155 0.28222,-2.45533 0,-2.17311 -0.70556,-3.55599 -1.97555,-4.45911 -3.33022,-2.34244 -6.49111,-2.34244 -8.26911,-2.34244 -0.79022,0 -1.43933,-0.0564 -2.17311,-0.0564 -1.07244,0 -2.20133,0.0847 -3.809996,0.22578 -0.733777,0.0847 -2.681109,1.94733 -2.681109,2.28599 0,0.0282 -0.02822,0.0282 0,0.0282 0.169333,0 1.439332,0.64911 2.088443,0.64911 z m 1.298221,13.3491 c -0.507999,0 -0.761999,0.0847 -1.41111,0.59266 -0.366888,0.28223 -0.620888,0.42334 -0.874888,0.64911 -0.536222,0.508 -1.241777,0.95956 -1.382888,1.69334 0,0.0564 -0.02822,0.0847 -0.02822,0.14111 0,0.28222 0.141111,0.53622 0.310444,0.81844 0.169333,0.31045 1.15711,0.62089 2.060221,0.62089 h 0.197555 c 0.620889,-0.0847 0.903111,-0.42333 1.806221,-0.93133 1.241778,-0.73378 1.919108,-1.55222 1.919108,-2.286 0,-0.64911 -1.580442,-1.29822 -2.596441,-1.29822 z m 28.899561,-16.67932 h -0.16933 c -1.38289,0 -4.40267,1.10066 -5.30578,1.63688 -1.04422,0.62089 -2.032,1.32645 -2.82222,2.22956 -1.97555,2.286 -2.06022,3.64066 -2.06022,4.43088 0,1.91911 0.90311,3.18911 1.778,3.95111 2.34244,2.08844 5.78555,2.08844 6.85799,2.08844 0.42334,0 0.90311,-0.0282 1.32645,-0.0282 2.20133,-0.0564 5.81377,-0.39511 8.74888,-3.01977 1.49578,-1.35467 1.66511,-2.25778 1.778,-3.69711 0,-0.22578 0.0282,-0.42333 0.0282,-0.64911 0,-2.032 -0.79022,-3.01978 -1.016,-3.33022 -1.49577,-1.86267 -3.44311,-2.82222 -8.74888,-3.49955 -0.39511,-0.0564 -0.254,-0.0847 -0.39511,-0.11289 z m 1.016,11.0631 c -3.52778,0 -5.30578,-1.07244 -5.81378,-1.63689 -0.53622,-0.64911 -0.87488,-1.524 -0.87488,-2.39889 v -0.0564 c 0,-0.79022 0.47977,-3.66889 3.16088,-4.03577 0.0282,0 0.0282,0 0.0282,0.0282 0,0.0847 -0.0282,0.16933 -0.0282,0.254 0,0.0282 0,0.0847 0.0282,0.0847 h 0.0282 c 0.90311,-0.254 1.55222,-0.36688 2.31422,-0.36688 h 0.42333 c 0.62089,0.0282 1.15711,0.19755 1.69333,0.42333 3.75356,1.43933 3.86644,4.51555 3.86644,4.88244 v 0.254 c 0,0.53622 0,1.12889 -0.31044,1.524 -0.62089,0.79022 -2.51178,1.07244 -3.302,1.07244 -0.36689,0 -0.70555,-0.0282 -1.07244,-0.0282 z m 2.25777,7.05555 c 0,-1.32644 -1.89088,-1.86267 -2.37066,-1.86267 -0.70556,0 -1.27,0.36689 -2.08844,0.95956 -0.36689,0.28222 -0.84667,0.59267 -0.98778,0.70555 -0.36689,0.254 -1.15711,0.84667 -1.29822,1.74978 v 0.0282 c 0,0.254 0.254,0.508 0.508,0.73378 0.64911,0.62089 1.55222,0.64911 1.97555,0.64911 1.58044,0 4.26155,-1.60866 4.26155,-2.96333 z m 11.43002,-14.25221 c 0.31045,0 0.56445,-0.19756 0.98778,-0.36689 1.66511,-0.62089 5.39044,-0.81844 6.68866,-0.81844 1.778,0 4.37444,0.28222 5.55978,1.46755 1.18533,1.18533 1.35466,3.07622 1.35466,4.00755 0,1.49578 -0.508,2.22956 -2.42711,2.73756 -2.96333,0.79022 -3.33022,0.87488 -6.37821,1.12888 -4.23333,0.31045 -3.89467,0.28223 -4.93889,0.79023 -1.66511,0.81844 -2.11666,1.01599 -2.20133,1.41111 -0.0282,0.0847 -0.0282,0.31044 -0.0282,0.59266 0,2.37067 0.14111,3.69711 0.14111,5.22111 v 0.22578 l -0.0282,0.762 0.42333,0.14111 c 0.36689,0.14111 0.53622,0.33866 0.81844,0.33866 h 0.0564 c 0.508,0 0.95955,-0.31044 1.43933,-0.47977 1.80622,-0.762 1.83444,-1.07245 1.83444,-1.69334 0,-0.0282 0,-0.0282 0,-0.0564 v -0.90311 c -0.0847,-2.06022 -0.31044,-2.85044 -0.31044,-3.41489 0,-0.31044 0.0847,-0.254 0.19755,-0.31044 0.62089,-0.22578 1.27,-0.0565 3.302,-0.45156 0.62089,-0.14111 1.524,-0.28222 1.94733,-0.36689 1.18534,-0.22577 1.10067,-0.33866 2.39889,-0.64911 1.55222,-0.33866 4.37444,-1.41111 5.24933,-2.03199 2.22955,-1.49578 2.59644,-2.48356 2.59644,-4.00756 0,-1.778 -0.22578,-2.45533 -0.28222,-2.59644 -0.762,-1.86266 -2.11667,-2.68111 -3.89466,-3.58422 -0.762,-0.31044 -2.794,-0.84666 -4.318,-0.84666 -3.24555,0 -6.77333,0.64911 -7.93044,1.01599 -2.59644,0.87489 -3.75355,1.74978 -3.75355,2.00378 0,0.0847 0.98778,0.73378 1.49577,0.73378 z m 12.55888,14.1111 c -0.64911,0.56444 -0.73377,0.70555 -0.73377,1.04422 0,0.508 0.39511,0.762 0.56444,1.12889 0.14111,0.33866 1.89089,1.016 2.39889,1.016 0.42333,0 1.86266,-0.33867 2.11666,-0.47978 0.87489,-0.42333 1.91911,-1.55222 1.91911,-1.94733 0,-0.254 -0.64911,-1.21356 -1.15711,-1.63689 -0.508,-0.42333 -1.32644,-0.67733 -1.69333,-0.67733 h -0.0282 c -1.74978,0.14111 -3.35844,1.524 -3.38667,1.55222 z m 15.07067,-8.72066 c 0,-0.67733 0.0564,-0.84667 0.59267,-1.91911 0.762,-1.49578 1.49578,-2.48355 2.794,-3.47133 1.55222,-1.18533 1.89088,-1.12889 2.93511,-1.41111 1.12888,-0.28222 2.22955,-0.19756 3.41488,-0.22578 h 0.33867 c 0.762,0 1.524,0.0564 2.286,0.0564 h 0.28222 c 0.28222,0 0.59266,0.0282 0.90311,0.0282 0.28222,0 0.59266,-0.0282 0.73378,-0.11289 0.31044,-0.16933 0.56444,-0.42333 1.04422,-0.70556 0.47977,-0.28222 0.59266,-0.45155 0.59266,-0.56444 0,-0.22578 -1.21355,-0.81844 -5.2211,-0.81844 h -0.0847 c -4.51555,0 -6.40644,0.84666 -7.59177,1.38288 -1.97556,0.90311 -3.10444,1.63689 -4.88244,3.27378 -1.58045,1.46755 -2.17311,2.62466 -2.39889,3.13266 -0.36689,0.98778 -0.53622,2.56822 -0.53622,2.59645 v 0.22577 c 0,0.14111 0.11289,0.53622 0.11289,0.53622 0,0 0.84666,0.33867 0.98777,0.36689 0.0565,0 0.0847,0.0282 0.14112,0.0282 1.24177,0 2.76577,-0.95956 3.13266,-1.21356 0.36689,-0.254 0.42333,-0.45155 0.42333,-0.98778 z m 2.85044,2.286 c 0,0.14111 0.0847,0.28222 0.16934,0.42333 0.254,0.47978 2.51177,0.90311 2.87866,0.90311 1.016,0 2.65289,-1.15711 2.99156,-1.524 0.22577,-0.254 0.53622,-0.39511 0.53622,-0.90311 0,-0.90311 -2.794,-1.55222 -3.048,-1.55222 -0.254,0 -3.52778,1.524 -3.52778,2.65289 z m 12.75644,-2.39889 c -0.79022,0 -2.22955,0.87489 -3.61244,1.66511 -0.42334,0.254 -0.19756,1.778 -0.70556,3.35844 -0.508,1.72156 -0.73377,2.39889 -1.91911,3.01978 -1.80622,0.90311 -5.16466,0.93133 -5.58799,0.93133 -0.508,0 -0.98778,-0.0282 -4.62844,-0.0282 h -0.47978 c -1.24178,0 -1.58044,0.0282 -2.48355,0.64911 -0.67734,0.42333 -1.91911,1.35466 -1.91911,1.58044 0,0.0564 0.28222,0.19756 0.42333,0.31045 0.79022,0.42333 0.93133,0.45155 1.49578,0.45155 0.0282,0 1.35466,-0.0564 3.55599,-0.0564 h 1.49578 c 4.00755,0 7.08377,-0.98778 7.16844,-1.016 1.778,-0.508 3.83822,-1.86267 4.31799,-2.17311 2.17311,-1.46756 3.49956,-2.45533 3.64067,-7.112 v -0.64911 c 0,-0.762 -0.0847,-0.93133 -0.45156,-0.93133 z m 14.02641,-8.5231 h -3.10444 l -2.62467,-0.0282 -0.90311,0.19756 c -0.62088,0.22578 -1.07244,0.39511 -1.58044,0.70555 -0.56444,0.31045 -1.38289,1.18534 -1.72155,1.43934 -0.22578,0.14111 -0.31045,0.28222 -0.31045,0.39511 0,0.0847 0.0564,0.11289 0.16934,0.16933 0.0282,0.0282 1.77799,1.29822 2.28599,1.66511 2.76578,2.17311 8.09978,7.33777 8.91822,7.33777 0.33867,-0.0282 3.52777,-0.98778 3.52777,-1.49578 0,-0.90311 -6.18066,-6.54755 -7.30955,-7.33777 -0.14111,-0.11289 -0.254,-0.22577 -0.254,-0.28222 0.0282,-0.0282 0.762,-0.0564 1.83445,-0.0564 h 1.12889 c 0.22577,0 0.45155,0.0282 0.67733,0.0282 1.27,0 8.7771,-0.53622 9.25688,-0.67733 0.81844,-0.28223 1.35467,-0.56445 1.74978,-0.87489 0.42333,-0.33867 0.762,-0.45156 0.762,-0.79022 0,-0.90311 -0.28223,-1.10067 -1.21356,-1.12889 h -0.19755 c -0.36689,0 -3.61245,0.73378 -11.09133,0.73378 z m 4.76955,17.52598 h -0.62089 c -3.72533,0 -9.00288,-0.36689 -9.51088,-0.42333 h -0.0564 c -0.0565,0 -2.96333,1.41111 -3.78178,1.97555 -0.33866,0.22578 -0.42333,0.45156 -0.42333,0.62089 0,0.31045 0.36689,0.47978 0.59267,0.56445 1.58044,0.50799 8.21266,0.56444 8.88999,0.56444 2.59644,0 5.16466,-0.0847 7.59177,-0.19756 2.59644,-0.11289 2.85044,-0.19755 4.26155,-0.56444 0.47978,-0.0847 1.69334,-0.93133 1.69334,-1.60867 0,-0.14111 -0.0565,-0.28222 -0.22578,-0.45155 -0.70556,-0.70556 -0.87489,-0.70556 -1.63689,-0.70556 -0.31044,0 -0.67733,0.0282 -0.95955,0.0282 h -0.42334 c -1.29822,0 -5.33399,0.19755 -5.39044,0.19755 z"
         id="path34" />
      <path
         style="font-family:'Dots n Lines';-inkscape-font-specification:'Dots n Lines';text-align:center;text-anchor:middle"
         d="m 79.319951,209.05124 c -0.677333,0 -1.495777,0.0564 -2.398887,0.0564 -3.640664,0.0282 -7.30955,0.0282 -8.212661,0.0282 -0.479777,0 -0.592666,0 -0.846666,0.11289 -0.254,0.11289 -0.366888,0.31045 -0.874888,0.84667 -0.366889,0.36689 -0.959555,0.95955 -1.185332,1.27 l -0.395111,0.508 0.64911,0.33866 c 1.072444,0.42334 4.007553,0.508 5.64444,0.508 3.471331,0 10.103548,-0.0564 11.006659,-0.11288 1.636887,-0.0847 2.398887,-0.33867 2.906886,-0.59267 0.366889,-0.22578 2.17311,-1.29822 2.17311,-1.97555 v -0.0564 c 0,-0.762 -2.398887,-0.93133 -8.46666,-0.93133 z m -3.555998,21.08198 c 0.903111,0 2.314221,-0.95955 2.709332,-1.27 0.479777,-0.33866 0.874888,-0.53622 1.185332,-1.18533 0.08467,-0.16933 0.141111,-0.254 0.141111,-0.42333 0,-0.22578 -0.02822,-0.47978 -0.112889,-0.84667 -0.05644,-0.22578 -0.64911,-1.016 -0.874888,-1.18533 -0.395111,-0.33867 -0.790222,-0.36689 -1.213555,-0.45156 h -0.536221 c -0.874889,0.0282 -0.903111,0.19756 -1.326444,0.42334 -1.608665,0.87488 -2.56822,1.38288 -2.935109,2.28599 -0.08467,0.22578 -0.169333,0.36689 -0.169333,0.62089 0,1.58045 2.624665,2.032 3.132664,2.032 z m 15.183556,-16.96154 v 0.22578 c 0,0.67733 -0.02822,1.38288 -0.02822,2.06022 v 0.56444 c 0.02822,0.81845 -0.02822,1.69333 0.197556,2.48356 0.225777,0.73377 0.536222,1.43933 1.072443,1.94733 1.749777,1.63688 4.854219,2.59644 6.603995,2.96333 0.903111,0.22578 2.85044,0.33866 4.76955,0.33866 0.90311,0 1.74978,-0.0282 2.54,-0.0847 h 0.42333 c 0.64911,0 0.62089,0.0847 0.62089,0.59266 0,0.0282 -0.11289,1.27 -0.11289,3.38667 0,2.62466 0.14111,2.68111 0.39511,2.70933 0,0 0.62089,0.0564 1.016,0.0564 0.0847,0 0.0847,-0.0282 0.16934,-0.0282 0.508,-0.0564 3.07622,-0.81844 3.21733,-1.18533 0.14111,-0.36689 0.0564,-2.00378 0.11289,-3.01978 0.0564,-1.07244 0.254,-2.08844 0.254,-3.16088 0,-0.22578 -0.0282,-0.39511 -0.0282,-0.62089 -0.0564,-0.64911 0.0282,-1.38289 -0.33866,-1.94733 -0.22578,-0.31045 -0.42334,-0.45156 -0.79022,-0.45156 -0.22578,0 -0.53623,0.0564 -0.90312,0.16934 -0.93133,0.31044 -5.39044,0.36688 -5.44688,0.36688 -2.17311,0 -4.17689,-0.42333 -6.208884,-1.24177 -1.580443,-0.64911 -2.737553,-1.21356 -2.737553,-3.52778 0,-0.36689 0,-0.73378 0.05644,-1.15711 0.02822,-0.53622 0.02822,-1.83444 0.05644,-2.73755 0,-0.31045 0.02822,-0.508 0.02822,-0.73378 0,-1.38289 -0.338667,-1.86266 -0.395111,-2.032 -0.02822,-0.14111 -0.423333,-0.254 -0.762,-0.254 -0.225777,0 -2.06022,0.73378 -2.935108,1.35467 -0.931333,0.64911 -0.931333,0.67733 -0.931333,1.016 0,0.0282 0.08467,0.81844 0.08467,1.94733 z m 17.130871,0.39511 c 0.90311,0 2.70934,-0.79022 2.73756,-0.79022 0.14111,0 1.41111,-0.62089 1.63689,-0.79022 0.14111,-0.14111 0.19755,-0.36689 0.19755,-0.62089 0,-0.42333 -0.19755,-0.95956 -0.53622,-1.32644 -0.11289,-0.14112 -0.31045,-0.45156 -0.45156,-0.67734 -0.16933,-0.28222 -0.31044,-0.508 -1.35466,-0.508 h -0.16934 c -0.42333,0.0565 -3.78177,0.93134 -3.78177,2.51178 0,0.0564 0.0282,0.0564 0.0282,0.11289 0,1.58044 0.762,2.08844 1.69333,2.08844 z m 16.76397,16.6511 c 0.93133,0 4.65666,-0.64911 6.80155,-2.00378 1.01599,-0.64911 2.31422,-1.80622 2.73755,-2.45533 0.22578,-0.31044 0.47978,-0.95955 0.70555,-1.49578 0.56445,-1.52399 0.87489,-2.82222 0.87489,-4.37444 0,-0.0564 -0.16933,-3.01977 -0.22578,-6.29355 l -0.0282,-3.95111 -0.45155,-0.45155 c -0.33867,-0.36689 -0.45156,-0.45156 -0.762,-0.45156 h -0.254 c -1.24178,0.0564 -3.01978,1.38289 -3.048,1.41111 -0.16933,0.14111 -0.33867,0.14111 -0.45156,0.56445 -0.0282,0.14111 0,0.39511 0,0.73378 0,0.36688 0,0.87488 0.0565,1.49577 0.14111,2.22956 0.22578,4.76955 0.22578,6.71689 0,3.1891 -0.19756,4.17688 -0.73378,5.64444 -0.42333,1.18533 -0.79022,1.52399 -1.69333,1.77799 -0.508,0.14112 -0.95956,0.19756 -1.46756,0.19756 -1.55222,0 -3.89466,-0.73378 -4.7131,-1.66511 -1.80622,-2.31422 -1.80622,-10.38577 -1.80622,-14.67554 l -0.22578,-0.39512 c -0.36689,-0.62088 -0.14111,-0.50799 -0.39511,-0.73377 -0.0564,-0.0282 -0.14111,-0.0282 -0.254,-0.0282 -0.90311,0 -2.54,1.12888 -3.66889,1.9191 -0.33867,0.22578 -0.36689,0.36689 -0.36689,2.06023 v 0.95955 c 0,1.778 0,3.35844 0.31045,5.55977 0.31044,2.032 0.47977,4.79778 1.15711,5.98311 0.64911,1.07244 1.07244,1.63689 1.49577,2.00378 0.98778,0.90311 3.86644,1.94733 6.18067,1.94733 z m 18.11867,-21.33599 c -0.0564,0 -1.778,0.14112 -3.61244,1.60867 -0.14111,0.11289 -0.19755,0.22578 -0.19755,0.87489 v 0.90311 c 0.14111,4.12044 0.28222,4.91066 1.29822,5.89844 1.07244,1.016 2.54,1.38289 2.54,1.69333 0,0.14111 -0.47978,0.42333 -1.21356,0.84667 -1.04422,0.62089 -2.73755,2.51177 -2.794,4.37444 v 0.254 c 0,0.79022 0.14111,1.58044 0.64911,2.08844 2.37067,2.37067 6.43466,2.68111 9.20044,2.68111 1.18533,0 2.85044,-0.0282 3.49955,-0.11289 3.35845,-0.39511 5.13644,-1.24178 5.19289,-1.27 2.59644,-1.29822 3.048,-3.21733 3.048,-4.40266 0,-0.64911 -0.14112,-1.35467 -0.36689,-1.97556 -0.31045,-0.79022 -1.66511,-2.45533 -2.54,-2.85044 -0.36689,-0.16933 -0.56444,-0.28222 -0.56444,-0.33866 0,-0.0564 0.11288,-0.14112 0.22577,-0.19756 0.16934,-0.11289 1.49578,-1.12889 1.80622,-1.74978 0.47978,-0.87488 0.84667,-1.80622 1.07245,-2.73755 0.0847,-0.33867 0.14111,-2.11666 0.14111,-2.76578 v -1.04422 c 0,-0.28222 0,-0.59266 -0.16933,-0.95955 -0.16934,-0.39511 -0.31045,-0.67733 -1.35467,-0.67733 -0.28222,0 -2.08844,0.42333 -2.99155,1.21355 -0.36689,0.33867 -0.42334,0.47978 -0.56445,2.39889 -0.0847,0.93133 -0.0282,1.58044 -0.14111,2.37066 -0.254,2.032 -0.67733,3.21733 -2.73755,3.21733 h -0.33867 c -3.24555,0 -4.76955,-0.762 -5.92666,-1.32644 -0.93133,-0.47978 -1.58044,-1.07244 -1.58044,-1.58044 0,-0.0565 -0.16934,-2.39889 -0.254,-4.51556 -0.0565,-1.18533 -0.19756,-1.15711 -0.28223,-1.41111 -0.14111,-0.508 -0.56444,-0.508 -0.84666,-0.508 z m 10.63977,11.62755 0.59267,0.36689 c 1.04422,0.62089 1.91911,1.24178 1.91911,2.62466 0,1.778 -0.93133,3.44311 -0.95956,3.47134 -0.254,0.254 -0.36689,0.64911 -2.59644,0.64911 h -0.73378 c -3.47133,0 -4.85421,-0.36689 -6.54755,-1.24178 -0.93133,-0.47978 -1.27,-0.90311 -1.27,-2.08844 0,-0.81845 0.0847,-1.07245 0.45156,-1.72156 0.22578,-0.39511 0.64911,-0.95955 0.90311,-1.21355 l 0.59267,-0.56445 1.29822,0.16934 c 0.64911,0.0847 1.15711,0.11289 1.69333,0.11289 h 0.254 c 2.73755,0 3.61244,-0.31045 4.40266,-0.56445 z m 9.51087,6.096 c 0,1.91911 -0.0282,2.45533 -0.0282,2.48355 0,0.254 0,0.47978 0.36689,0.84667 0.28222,0.28222 0.22578,0.28222 0.70556,0.28222 h 0.0847 c 1.43933,0 2.90689,-0.84667 2.93511,-0.87489 0.36689,-0.22578 1.12889,-1.29822 1.69333,-1.94733 6.32178,-7.33777 7.95866,-9.05933 10.01888,-11.23244 0.36689,-0.36689 0.508,-0.59266 0.59267,-0.67733 0.11289,-0.11289 1.15711,-1.27 1.80622,-2.06022 0.67733,-0.87489 1.72156,-1.91911 2.37067,-2.82222 0.36688,-0.508 0.45155,-0.87489 0.45155,-1.10067 0,-0.0847 -0.0282,-0.16933 -0.0282,-0.19755 -0.0847,-0.22578 -0.84667,-0.64911 -1.21356,-0.64911 -0.0564,0 -2.08844,0.81844 -2.70933,1.32644 -0.47977,0.39511 -1.21355,1.524 -1.83444,2.286 -0.90311,1.07244 -1.83444,2.17311 -2.73755,3.24555 -1.69334,1.91911 -3.44311,3.83822 -5.13644,5.75733 -0.79023,0.90311 -1.63689,1.778 -2.42711,2.68111 v -0.64911 -0.31044 c 0,-1.27 -0.0282,-2.56823 -0.0282,-3.83822 v -0.53623 c 0,-1.18533 0.0282,-2.45533 0.0282,-3.38666 v -2.34244 -0.28222 c 0,-0.64912 0.0564,-1.55223 0.0564,-2.286 0,-1.524 -0.11289,-1.55222 -0.254,-1.55222 -0.36689,0 -0.93133,0.0564 -1.07244,0.0847 -1.12889,0.254 -2.794,0.81845 -3.35844,1.04422 -0.28223,0.11289 -0.31045,0.19756 -0.31045,0.93134 v 0.36689 c -0.0282,0.254 -0.0282,0.53622 -0.0282,0.53622 0,0.79022 0.0282,1.32644 0.0282,1.86266 v 4.00755 c 0,0.62089 0.0282,1.21356 0.0282,1.69334 v 3.83822 z m 42.95421,-6.604 c 0,1.07245 -0.0282,2.42711 -0.0564,4.12044 v 2.45533 c 0,0.31045 -0.0847,0.31045 -1.41111,0.31045 -1.07245,0 -2.73756,-0.0282 -3.86644,-0.0282 -1.24178,-0.0282 -2.45534,-0.0847 -3.69711,-0.0847 h -0.42334 c -1.18533,0 -2.34244,-0.0282 -2.87866,-0.11289 l -1.016,-0.0564 -0.0282,-2.286 c -0.0282,-2.17311 -0.0564,-3.61244 -0.0564,-5.27755 v -0.84667 c 0.0282,-1.69333 0.16934,-3.35844 0.19756,-5.05177 v -1.49578 c 0,-0.28222 0,-0.56444 0,-0.87489 0,-0.14111 0,-0.28222 0,-0.45155 l -0.14111,-1.12889 -1.49578,0.28222 c -1.49578,0.36689 -2.37066,0.33867 -3.16088,1.12889 -0.22578,0.22578 -0.31045,0.45155 -0.31045,0.84667 v 0.0282 c 0.0282,0.53622 0.0282,1.016 0.0282,1.49577 0,1.69334 -0.0847,2.96334 -0.0847,4.48733 v 0.33867 c 0,0.56444 0.0564,1.10067 0.0564,1.66511 0.0282,1.27 0.0565,3.81 0.0565,3.81 v 2.54 c 0,2.59644 -0.11289,3.58421 -0.11289,3.61244 0,0.11289 0,0.16933 0.0282,0.19755 0.0847,0.0847 2.62466,0.254 2.87866,0.254 0.56445,0 0.98778,-0.0564 1.524,-0.0564 h 0.0847 c 0.0564,0 4.96711,0.0847 5.72911,0.0847 h 0.64911 c 0.53622,0 0.81844,-0.0564 1.46755,-0.0564 h 0.53622 c 0.39511,0.0282 0.70556,0.0282 0.93133,0.0282 0.36689,0 0.64912,-0.0282 1.016,-0.0282 h 0.254 c 0.90311,0 2.14489,0.0282 3.16089,0.0282 0.93133,0 1.72155,-0.0282 1.94733,-0.11289 0.90311,-0.254 1.63689,-0.47977 2.39889,-0.95955 0.508,-0.31045 0.70555,-0.39511 0.70555,-0.56445 0,-0.22577 -0.42333,-0.62088 -0.42333,-0.84666 0,-0.254 0.508,0.0282 0.508,-0.508 0,-0.254 -0.0847,-0.64911 -0.14111,-1.38289 0,-0.16933 -0.0282,-0.42333 -0.0282,-0.67733 0,-0.87489 0.0564,-1.97556 0.0564,-2.87867 v -0.0282 c 0,-2.37066 -0.11289,-7.33777 -0.11289,-7.42244 v -1.15711 c 0,-0.508 0,-0.98777 0.0282,-1.35466 v -0.73378 c 0,-1.18533 -0.14112,-2.48355 -0.42334,-2.48355 -0.0564,0 -0.14111,0.0564 -0.254,0.0847 -0.0564,0 -3.13266,0.56445 -3.75355,0.98778 l -0.508,0.33867 v 1.94733 c 0,0.0847 0.14111,6.80155 0.14111,7.87399 z m -5.33399,-3.33022 h -0.64912 c -0.36688,0 -0.81844,0.14111 -1.18533,0.254 -1.72155,0.508 -2.286,0.73378 -2.286,2.82222 0,0.36689 0.0564,0.70556 0.33867,1.016 0.36689,0.39511 1.60867,0.42333 1.63689,0.42333 1.60866,0 3.302,-0.762 3.44311,-0.90311 0.508,-0.53622 0.508,-2.03199 0.508,-2.06022 0,-1.32644 -1.07245,-1.55222 -1.80622,-1.55222 z"
         id="path35" />
      <path
         style="font-family:'Dots n Lines';-inkscape-font-specification:'Dots n Lines';text-align:center;text-anchor:middle"
         d="m 103.73218,258.44009 h 0.22578 c 1.24178,0 2.48355,-0.14111 3.66889,-0.45156 2.48355,-0.64911 3.41488,-1.46755 4.48732,-2.65288 1.41111,-1.63689 2.87867,-5.70089 2.87867,-9.17222 0,-4.65666 -2.42711,-8.7771 -6.858,-9.17221 h -0.254 c -0.67733,0 -1.43933,0.254 -2.08844,0.42333 -2.20133,0.62089 -4.48733,2.794 -4.51555,2.82222 -0.31044,0.28222 -0.81844,0.90311 -1.07244,1.15711 -0.225781,-0.39511 -0.225781,-0.53622 -0.366892,-0.762 -0.338667,-0.53622 -0.677333,-1.07244 -1.15711,-1.46755 -2.031999,-1.86267 -4.571997,-1.91911 -4.938885,-1.91911 -2.991554,0 -5.079997,1.46755 -6.208885,2.53999 -2.539998,2.45534 -2.850442,3.81 -3.358441,5.72911 -0.338667,1.18533 -0.395111,2.48355 -0.395111,3.38667 v 0.47977 c 0,0.0564 0.112889,2.93511 0.874888,4.68489 1.326443,3.21733 3.386664,4.09222 5.305774,4.09222 1.693332,0 2.878664,-0.47978 3.753552,-0.81845 1.721555,-0.64911 2.850443,-2.22955 3.273776,-2.87866 2.342442,2.59644 3.584224,3.97933 6.745104,3.97933 z m 6.71689,-5.39044 c -0.90312,1.74977 -3.33022,1.80622 -3.61245,1.80622 -1.07244,0 -1.72155,-0.254 -2.48355,-0.508 -1.49578,-0.90311 -3.33022,-3.61244 -3.86644,-4.12044 -0.31045,-0.31045 -0.47978,-0.47978 -0.705557,-0.47978 -0.112888,0 -0.197555,0 -0.338666,0.0847 0.395111,-0.90311 0.366889,-0.90311 0.508,-1.29822 0,0 0.536223,-1.12889 0.762003,-1.69334 0.28222,-0.67733 0.45155,-1.43933 0.79022,-2.11666 0.254,-0.508 0.508,-1.04422 0.87489,-1.524 0.33866,-0.42333 1.80622,-2.17311 3.13266,-2.17311 0.90311,0 1.49578,0.53622 2.06022,0.95956 2.20133,1.72155 3.49955,4.99533 3.49955,6.80155 v 0.53622 c 0,0.0282 -0.0564,2.68111 -0.62088,3.72533 z m -22.944654,-6.23711 c 0,-3.92288 1.777999,-5.87022 3.97933,-5.87022 2.596443,0 3.894664,1.60867 4.317997,2.22956 0.479778,0.64911 2.003776,3.58422 2.031999,3.61244 -0.141111,0.31044 -0.169334,0.28222 -1.100666,2.48355 -0.02822,0.0282 -0.874888,1.80622 -1.66511,2.87867 -0.90311,1.016 -1.608665,1.91911 -2.793998,1.91911 h -0.08467 c -0.620889,-0.0282 -1.185333,-0.36689 -1.721555,-0.67734 -0.818444,-0.47977 -1.354665,-1.07244 -1.749776,-1.69333 -0.903111,-1.38288 -1.213555,-1.86266 -1.213555,-4.88244 z m 50.348414,-4.48733 c 0.36688,0 1.07244,-0.0282 1.89088,-0.508 0.87489,-0.47977 2.20134,-1.43933 2.22956,-2.22955 v -0.16933 c 0,-0.22578 -0.0565,-0.42334 -0.19756,-0.70556 -0.39511,-0.90311 -0.33866,-0.90311 -1.24177,-1.12889 -0.33867,-0.0847 -0.64912,-0.11289 -1.38289,-0.19755 h -0.11289 c -0.22578,0 -0.56445,0.0282 -0.70556,0.0282 -0.64911,0 -1.24177,0.11289 -1.524,0.42333 -0.25399,0.254 -0.98777,0.56445 -1.24177,0.98778 -0.22578,0.33867 -0.33867,0.67733 -0.33867,1.10067 0,1.18533 0.33867,1.38288 1.10067,1.74977 0.64911,0.36689 0.90311,0.64911 1.18533,0.64911 z m 3.35844,14.59088 c 0.36689,-0.16933 0.762,-0.36689 0.762,-0.67733 0,-0.28222 -0.90311,-1.21356 -1.41111,-1.74978 -0.762,-0.79022 -1.66511,-1.38289 -2.45533,-2.14489 -0.0847,-0.0847 -7.112,-6.71688 -8.636,-8.04332 -1.15711,-0.98778 -3.58422,-3.21733 -4.26155,-3.95111 -1.86266,-2.20133 -2.73755,-2.96333 -3.13266,-3.21733 -1.46756,0.14111 -3.21733,1.38289 -3.24556,1.41111 l -0.508,0.42333 c 0,0 -0.0564,0.0847 -0.0564,0.19756 0,0.14111 0.0564,0.33866 0.28222,0.56444 0.0282,0.0282 2.794,3.33022 3.44311,4.00755 2.22955,2.31422 6.06777,5.588 6.71688,6.20889 0.56445,0.53622 2.65289,2.48355 3.44311,3.10444 0.0565,0.0564 2.85044,2.42711 3.75355,3.35844 0.508,0.53622 0.79023,0.70556 1.18534,1.04422 0.31044,0.22578 0.62089,0.59267 0.98777,0.64911 0.0847,0.0282 0.16934,0.0282 0.254,0.0282 0.79023,0 2.65289,-1.21355 2.87867,-1.21355 z m -20.51754,1.524 c 0.64911,0 2.25777,-0.28222 3.16088,-0.93133 0.16934,-0.14111 0.62089,-0.39511 0.93134,-0.62089 0.508,-0.36689 0.56444,-0.93133 0.56444,-1.29822 0,-0.36689 -0.0282,-0.70556 -0.254,-0.98778 -0.22578,-0.254 -0.56444,-0.31044 -0.84666,-0.53622 -0.28223,-0.22578 -0.62089,-0.42334 -0.73378,-0.42334 -0.28222,0 -0.59267,-0.16933 -0.87489,-0.16933 h -0.0282 c -0.36689,0 -1.69333,0.33867 -2.48356,0.70556 -1.18533,0.62088 -2.06022,1.55222 -2.06022,1.97555 0,2.22955 2.59645,2.286 2.62467,2.286 z m 41.90997,-20.43287 c -0.67734,0.16933 -0.95956,0.28222 -1.016,0.762 -0.0282,0.14111 -0.14111,0.39511 -0.22578,0.56444 -1.04422,2.54 -1.49578,3.52777 -4.71311,9.51088 -3.38666,5.842 -4.31799,8.72066 -4.34622,8.83355 -0.14111,0.254 -0.254,0.42333 -0.254,0.56444 0,0.14111 0.14111,0.19756 0.42334,0.19756 0.762,0 4.03577,-0.64911 4.40266,-0.87489 0.42333,-0.28222 0.95955,-2.20133 1.38289,-3.10444 0.56444,-1.29822 3.69711,-6.68866 4.91066,-8.94644 0.0564,-0.0847 3.61244,-6.71688 3.61244,-8.29733 v -0.0847 c -0.0282,-0.14111 -0.11289,-0.16934 -0.254,-0.16934 -0.16933,0 -3.86644,1.04423 -3.92288,1.04423 z m -13.15155,-0.62089 c -1.91911,0 -4.43088,1.55222 -4.43088,2.85044 0,0.56444 0.45155,2.08844 2.62466,2.08844 1.91911,0 4.37444,-1.27 4.37444,-2.56822 0,-0.47978 -0.254,-0.98777 -0.53622,-1.38289 -0.64911,-0.95955 -1.27,-0.98777 -1.778,-0.98777 z m 20.40463,2.17311 c 0,0.11289 0.0847,0.11289 0.22577,0.11289 h 0.0282 c 0.36688,0 0.64911,0.42333 1.43933,0.42333 h 1.04422 c 0.79022,0.0282 1.63689,0.0282 2.032,0.0282 h 0.14111 c 0.47978,0 2.00378,0 4.76955,-0.0282 2.37067,0 3.75355,-0.0282 4.79777,-0.0282 h 0.39512 c 1.66511,0 1.66511,0.0282 1.66511,0.0282 0,0.64911 -1.60867,1.89089 -4.03578,4.65666 -0.87489,0.93133 -1.15711,1.35467 -1.97555,2.34244 -0.62089,0.73378 -0.73378,0.90311 -0.73378,1.04423 0,0.16933 0.254,0.254 0.42333,0.28222 0.36689,0.0847 0.81845,0.33866 1.15711,0.33866 0.31045,0 0.73378,-0.19755 1.66511,-0.67733 1.41111,-0.64911 1.94733,-1.07244 2.286,-1.63689 0.73378,-1.18533 3.44311,-3.89466 4.064,-4.40266 1.04422,-0.90311 2.70933,-2.45533 2.70933,-3.75355 0,-1.07245 -1.07244,-1.15711 -1.29822,-1.15711 h -0.47978 c -0.508,0 0,0.11289 -1.60867,0.11289 h -1.77799 -2.286 l -3.61244,0.0282 h -2.794 -2.93511 l -1.016,-0.0282 h -0.42333 -0.62089 c -1.55222,0 -3.24555,1.83444 -3.24555,2.31422 z m 17.83643,15.74798 h -1.04422 c -1.60867,0 -3.10445,-0.36688 -5.19289,-0.47977 h -2.39889 c -1.18533,0 -2.53999,0.0564 -3.16088,0.0564 -0.508,0 -1.35467,-0.0847 -1.89089,-0.0847 -0.64911,0 -0.67733,0.22578 -1.97555,1.15712 -1.016,0.76199 -1.524,1.21355 -1.524,1.49577 0,0.14111 1.24177,0.67733 1.46755,0.67733 0.39511,0 1.07244,-0.11288 1.80622,-0.11288 0.90311,0 1.18533,0.19755 2.56822,0.19755 0.762,0 2.93511,-0.0564 3.58422,-0.0564 1.91911,0 5.50333,0.42333 7.53533,0.42333 1.18533,0 2.39889,-0.14111 2.90689,-0.36689 0.39511,-0.16933 1.32644,-0.87489 1.35466,-0.87489 0,0 0.90311,-0.59266 0.90311,-0.87489 v -0.0282 c -0.0282,-0.22578 -0.11289,-0.19755 -0.47978,-0.47977 -0.81844,-0.64912 -0.70555,-0.98778 -0.93133,-0.98778 -1.32644,0.33866 -3.49955,0.33866 -3.52777,0.33866 z"
         id="path36" />
    </g>
  </g>
</svg>
