<?xml version="1.0" encoding="UTF-8" standalone="no"?>
<!-- Created with Inkscape (http://www.inkscape.org/) -->

<svg
   width="694.43903"
   height="932.91925"
   viewBox="0 0 183.737 246.83489"
   version="1.1"
   id="svg1"
   inkscape:version="1.4 (86a8ad7, 2024-10-11)"
   sodipodi:docname="Alphabet Leaf Tech Vietnamese Lowercase.svg"
   xmlns:inkscape="http://www.inkscape.org/namespaces/inkscape"
   xmlns:sodipodi="http://sodipodi.sourceforge.net/DTD/sodipodi-0.dtd"
   xmlns="http://www.w3.org/2000/svg"
   xmlns:svg="http://www.w3.org/2000/svg">
  <sodipodi:namedview
     id="namedview1"
     pagecolor="#ffffff"
     bordercolor="#000000"
     borderopacity="0.25"
     inkscape:showpageshadow="2"
     inkscape:pageopacity="0.0"
     inkscape:pagecheckerboard="0"
     inkscape:deskcolor="#d1d1d1"
     inkscape:document-units="px"
     inkscape:zoom="0.85280275"
     inkscape:cx="313.6716"
     inkscape:cy="450.86627"
     inkscape:window-width="1920"
     inkscape:window-height="1027"
     inkscape:window-x="-8"
     inkscape:window-y="-8"
     inkscape:window-maximized="1"
     inkscape:current-layer="layer1" />
  <defs
     id="defs1" />
  <g
     inkscape:label="Layer 1"
     inkscape:groupmode="layer"
     id="layer1"
     transform="translate(-45.000079,-62.435143)">
    <text
       xml:space="preserve"
       style="font-size:28.2222px;line-height:1.3;font-family:'BlockTrain Hand';-inkscape-font-specification:'BlockTrain Hand';text-align:start;letter-spacing:2.64583px;writing-mode:lr-tb;direction:ltr;text-anchor:start;display:none;fill:#17a23e;fill-opacity:0.854902;stroke:#4d804f;stroke-width:0.79375;stroke-dasharray:none;stroke-opacity:1"
       x="138.19148"
       y="88.739998"
       id="text1"><tspan
         style="font-style:normal;font-variant:normal;font-weight:bold;font-stretch:normal;font-size:28.2222px;line-height:1.3;font-family:'Leaf Tech';-inkscape-font-specification:'Leaf Tech Bold';text-align:center;letter-spacing:2.64583px;text-anchor:middle;fill:#17a23e;fill-opacity:0.854902;stroke:#4d804f;stroke-width:0.79375;stroke-dasharray:none;stroke-opacity:1"
         x="138.19148"
         y="88.739998"
         sodipodi:role="line"
         id="tspan36">AÂĂEÊIOÔƠUƯY</tspan><tspan
         style="font-style:normal;font-variant:normal;font-weight:bold;font-stretch:normal;font-size:28.2222px;line-height:1.3;font-family:'Leaf Tech';-inkscape-font-specification:'Leaf Tech Bold';text-align:center;letter-spacing:2.64583px;text-anchor:middle;fill:#17a23e;fill-opacity:0.854902;stroke:#4d804f;stroke-width:0.79375;stroke-dasharray:none;stroke-opacity:1"
         x="138.19148"
         y="125.42886"
         sodipodi:role="line"
         id="tspan18">ÁẤẮÉẾÍÓỐỚÚỨÝ</tspan><tspan
         style="font-style:normal;font-variant:normal;font-weight:bold;font-stretch:normal;font-size:28.2222px;line-height:1.3;font-family:'Leaf Tech';-inkscape-font-specification:'Leaf Tech Bold';text-align:center;letter-spacing:2.64583px;text-anchor:middle;fill:#17a23e;fill-opacity:0.854902;stroke:#4d804f;stroke-width:0.79375;stroke-dasharray:none;stroke-opacity:1"
         x="138.19148"
         y="162.11772"
         sodipodi:role="line"
         id="tspan19">ÀẦẰÈỀÌÒỒỜÙỪỲ</tspan><tspan
         style="font-style:normal;font-variant:normal;font-weight:bold;font-stretch:normal;font-size:28.2222px;line-height:1.3;font-family:'Leaf Tech';-inkscape-font-specification:'Leaf Tech Bold';text-align:center;letter-spacing:2.64583px;text-anchor:middle;fill:#17a23e;fill-opacity:0.854902;stroke:#4d804f;stroke-width:0.79375;stroke-dasharray:none;stroke-opacity:1"
         x="138.19148"
         y="198.80658"
         sodipodi:role="line"
         id="tspan20">ẢẨẲẺỂỈỎỔỞỦỬỶ</tspan><tspan
         style="font-style:normal;font-variant:normal;font-weight:bold;font-stretch:normal;font-size:28.2222px;line-height:1.3;font-family:'Leaf Tech';-inkscape-font-specification:'Leaf Tech Bold';text-align:center;letter-spacing:2.64583px;text-anchor:middle;fill:#17a23e;fill-opacity:0.854902;stroke:#4d804f;stroke-width:0.79375;stroke-dasharray:none;stroke-opacity:1"
         x="138.19148"
         y="235.49544"
         sodipodi:role="line"
         id="tspan21">ÃẪẴẼỄĨÕỖỠŨỮỸ</tspan><tspan
         style="font-style:normal;font-variant:normal;font-weight:bold;font-stretch:normal;font-size:28.2222px;line-height:1.3;font-family:'Leaf Tech';-inkscape-font-specification:'Leaf Tech Bold';text-align:center;letter-spacing:2.64583px;text-anchor:middle;fill:#17a23e;fill-opacity:0.854902;stroke:#4d804f;stroke-width:0.79375;stroke-dasharray:none;stroke-opacity:1"
         x="138.19148"
         y="272.1843"
         sodipodi:role="line"
         id="tspan22">ẠẬẶẸỆỊỌỘỢỤỰỴ</tspan><tspan
         style="font-style:normal;font-variant:normal;font-weight:bold;font-stretch:normal;font-size:28.2222px;line-height:1.3;font-family:'Leaf Tech';-inkscape-font-specification:'Leaf Tech Bold';text-align:center;letter-spacing:2.64583px;text-anchor:middle;fill:#17a23e;fill-opacity:0.854902;stroke:#4d804f;stroke-width:0.79375;stroke-dasharray:none;stroke-opacity:1"
         x="138.19148"
         y="308.87314"
         sodipodi:role="line"
         id="tspan24">Đ</tspan><tspan
         style="font-style:normal;font-variant:normal;font-weight:bold;font-stretch:normal;font-size:28.2222px;line-height:1.3;font-family:'Leaf Tech';-inkscape-font-specification:'Leaf Tech Bold';text-align:center;letter-spacing:2.64583px;text-anchor:middle;fill:#17a23e;fill-opacity:0.854902;stroke:#4d804f;stroke-width:0.79375;stroke-dasharray:none;stroke-opacity:1"
         x="138.19148"
         y="345.56201"
         sodipodi:role="line"
         id="tspan25" /></text>
    <text
       xml:space="preserve"
       style="font-size:28.2222px;line-height:1.3;font-family:'BlockTrain Hand';-inkscape-font-specification:'BlockTrain Hand';text-align:start;letter-spacing:2.64583px;writing-mode:lr-tb;direction:ltr;text-anchor:start;display:none;fill:#17a23e;fill-opacity:0.854902;stroke:#4d804f;stroke-width:0.79375;stroke-dasharray:none;stroke-opacity:1"
       x="138.19148"
       y="88.739998"
       id="text46"><tspan
         style="font-style:normal;font-variant:normal;font-weight:bold;font-stretch:normal;font-size:28.2222px;line-height:1.3;font-family:'Leaf Tech';-inkscape-font-specification:'Leaf Tech Bold';text-align:center;letter-spacing:2.64583px;text-anchor:middle;fill:#17a23e;fill-opacity:0.854902;stroke:#4d804f;stroke-width:0.79375;stroke-dasharray:none;stroke-opacity:1"
         x="138.19148"
         y="88.739998"
         sodipodi:role="line"
         id="tspan46">aâăeêioôơuưy</tspan><tspan
         style="font-style:normal;font-variant:normal;font-weight:bold;font-stretch:normal;font-size:28.2222px;line-height:1.3;font-family:'Leaf Tech';-inkscape-font-specification:'Leaf Tech Bold';text-align:center;letter-spacing:2.64583px;text-anchor:middle;fill:#17a23e;fill-opacity:0.854902;stroke:#4d804f;stroke-width:0.79375;stroke-dasharray:none;stroke-opacity:1"
         x="138.19148"
         y="125.42886"
         sodipodi:role="line"
         id="tspan53">áấắéếíóốớúứý</tspan><tspan
         style="font-style:normal;font-variant:normal;font-weight:bold;font-stretch:normal;font-size:28.2222px;line-height:1.3;font-family:'Leaf Tech';-inkscape-font-specification:'Leaf Tech Bold';text-align:center;letter-spacing:2.64583px;text-anchor:middle;fill:#17a23e;fill-opacity:0.854902;stroke:#4d804f;stroke-width:0.79375;stroke-dasharray:none;stroke-opacity:1"
         x="138.19148"
         y="162.11772"
         sodipodi:role="line"
         id="tspan54">àầằèềìòồờùừỳ</tspan><tspan
         style="font-style:normal;font-variant:normal;font-weight:bold;font-stretch:normal;font-size:28.2222px;line-height:1.3;font-family:'Leaf Tech';-inkscape-font-specification:'Leaf Tech Bold';text-align:center;letter-spacing:2.64583px;text-anchor:middle;fill:#17a23e;fill-opacity:0.854902;stroke:#4d804f;stroke-width:0.79375;stroke-dasharray:none;stroke-opacity:1"
         x="138.19148"
         y="198.80658"
         sodipodi:role="line"
         id="tspan55">ảẩẳẻểỉỏổởủửỷ</tspan><tspan
         style="font-style:normal;font-variant:normal;font-weight:bold;font-stretch:normal;font-size:28.2222px;line-height:1.3;font-family:'Leaf Tech';-inkscape-font-specification:'Leaf Tech Bold';text-align:center;letter-spacing:2.64583px;text-anchor:middle;fill:#17a23e;fill-opacity:0.854902;stroke:#4d804f;stroke-width:0.79375;stroke-dasharray:none;stroke-opacity:1"
         x="138.19148"
         y="235.49544"
         sodipodi:role="line"
         id="tspan56">ãẫẵẽễĩõỗỡũữỹ</tspan><tspan
         style="font-style:normal;font-variant:normal;font-weight:bold;font-stretch:normal;font-size:28.2222px;line-height:1.3;font-family:'Leaf Tech';-inkscape-font-specification:'Leaf Tech Bold';text-align:center;letter-spacing:2.64583px;text-anchor:middle;fill:#17a23e;fill-opacity:0.854902;stroke:#4d804f;stroke-width:0.79375;stroke-dasharray:none;stroke-opacity:1"
         x="138.19148"
         y="272.1843"
         sodipodi:role="line"
         id="tspan57">ạậặẹệịọộợụựỵ</tspan><tspan
         style="font-style:normal;font-variant:normal;font-weight:bold;font-stretch:normal;font-size:28.2222px;line-height:1.3;font-family:'Leaf Tech';-inkscape-font-specification:'Leaf Tech Bold';text-align:center;letter-spacing:2.64583px;text-anchor:middle;fill:#17a23e;fill-opacity:0.854902;stroke:#4d804f;stroke-width:0.79375;stroke-dasharray:none;stroke-opacity:1"
         x="139.5144"
         y="308.87314"
         sodipodi:role="line"
         id="tspan58">đ</tspan></text>
    <g
       id="text65"
       style="font-size:28.2222px;line-height:1.3;font-family:'BlockTrain Hand';-inkscape-font-specification:'BlockTrain Hand';letter-spacing:2.64583px;fill:#17a23e;fill-opacity:0.854902;stroke:#4d804f;stroke-width:0.79375"
       aria-label="aâăeêioôơuưy&#10;áấắéếíóốớúứý&#10;àầằèềìòồờùừỳ&#10;ảẩẳẻểỉỏổởủửỷ&#10;ãẫẵẽễĩõỗỡũữỹ&#10;ạậặẹệịọộợụựỵ&#10;đ">
      <path
         style="font-weight:bold;font-family:'Leaf Tech';-inkscape-font-specification:'Leaf Tech Bold';text-align:center;text-anchor:middle"
         d="m 47.372459,80.724893 h 4.656663 c 2.596443,0 4.713108,2.088443 4.713108,4.684885 v 2.031999 h -4.656663 c -2.624665,0 -4.713108,-2.116665 -4.713108,-4.74133 z m -0.64911,-3.894664 c -0.366889,0 -0.649111,0.254 -0.649111,0.620889 0,0.338666 0.282222,0.64911 0.649111,0.64911 h 6.660439 c 1.862665,0 3.358442,1.467555 3.358442,3.33022 v 0.310444 c -1.100666,-1.382888 -2.793998,-2.31422 -4.713108,-2.31422 h -5.954884 v 3.273775 c 0,3.33022 2.709331,6.039551 6.011329,6.039551 h 5.926662 v -7.30955 c 0,-2.56822 -2.088443,-4.600219 -4.628441,-4.600219 z m 21.611143,-6.434661 -0.592666,1.128888 c -0.423333,0.846666 -0.818444,1.439332 -1.241777,1.777998 -0.451556,0.338667 -0.987777,0.536222 -1.947332,0.536222 -0.338667,0 -0.649111,0.282222 -0.649111,0.620888 0,0.366889 0.310444,0.649111 0.649111,0.649111 1.128888,0 2.031998,-0.254 2.737553,-0.790222 0.395111,-0.338666 0.733778,-0.761999 1.044222,-1.213554 0.310444,0.451555 0.620888,0.874888 1.044221,1.213554 0.705555,0.536222 1.580443,0.790222 2.709331,0.790222 0.366889,0 0.649111,-0.282222 0.649111,-0.649111 0,-0.338666 -0.282222,-0.620888 -0.649111,-0.620888 -0.931332,0 -1.467554,-0.197555 -1.919109,-0.536222 -0.451555,-0.338666 -0.818444,-0.931332 -1.269999,-1.777998 z m -5.333996,6.434661 c -0.366889,0 -0.649111,0.254 -0.649111,0.620889 0,0.338666 0.282222,0.64911 0.649111,0.64911 h 6.660439 c 1.862665,0 3.358442,1.467555 3.358442,3.33022 v 0.310444 c -1.100666,-1.382888 -2.793998,-2.31422 -4.713107,-2.31422 h -5.954885 v 3.273775 c 0,3.33022 2.709331,6.039551 6.011329,6.039551 h 5.926662 v -7.30955 c 0,-2.56822 -2.088443,-4.600219 -4.628441,-4.600219 z m 0.64911,3.894664 h 4.656664 c 2.596442,0 4.713107,2.088443 4.713107,4.684885 v 2.031999 h -4.656663 c -2.624665,0 -4.713108,-2.116665 -4.713108,-4.74133 z M 80.26542,73.104899 c 0,0.197555 0.08467,0.338666 0.197556,0.451555 0.959554,0.959555 2.06022,1.552221 4.23333,1.552221 2.173109,0 3.273775,-0.592666 4.23333,-1.552221 0.112888,-0.112889 0.169333,-0.254 0.169333,-0.451555 0,-0.338667 -0.282222,-0.649111 -0.649111,-0.649111 -0.169333,0 -0.310444,0.08467 -0.451555,0.197556 -0.846666,0.846666 -1.326443,1.15711 -3.301997,1.15711 -2.003777,0 -2.483554,-0.310444 -3.33022,-1.15711 -0.112889,-0.112889 -0.282222,-0.197556 -0.451555,-0.197556 -0.338667,0 -0.649111,0.310444 -0.649111,0.649111 z m -0.987777,3.72533 c -0.366888,0 -0.64911,0.254 -0.64911,0.620889 0,0.338666 0.282222,0.64911 0.64911,0.64911 h 6.660439 c 1.862666,0 3.358442,1.467555 3.358442,3.33022 v 0.310444 c -1.100666,-1.382888 -2.793998,-2.31422 -4.713107,-2.31422 h -5.954884 v 3.273775 c 0,3.33022 2.709331,6.039551 6.011328,6.039551 h 5.926662 v -7.30955 c 0,-2.56822 -2.088443,-4.600219 -4.628441,-4.600219 z m 0.649111,3.894664 h 4.656663 c 2.596442,0 4.713107,2.088443 4.713107,4.684885 v 2.031999 h -4.656663 c -2.624664,0 -4.713107,-2.116665 -4.713107,-4.74133 z m 14.978924,-3.894664 v 5.89844 c 0,3.301998 2.709331,6.011329 6.011332,6.011329 h 5.27755 c 0.36689,0 0.64911,-0.282222 0.64911,-0.649111 0,-0.338666 -0.28222,-0.64911 -0.64911,-0.64911 h -5.27755 c -2.370668,0 -4.318,-1.721555 -4.656666,-4.007553 0.705555,0.649111 1.580443,1.128888 2.850442,1.128888 h 7.732884 v -1.777998 c 0,-3.301998 -2.68111,-5.954885 -5.98311,-5.954885 z m 1.298221,1.269999 h 4.656661 c 2.59644,0 4.68489,2.088443 4.68489,4.684886 v 0.479777 h -6.434664 c -1.636888,0 -2.906887,-1.298221 -2.906887,-2.906887 z m 20.962031,-7.70466 -0.59266,1.128888 c -0.42334,0.846666 -0.81845,1.439332 -1.24178,1.777998 -0.45155,0.338667 -0.98778,0.536222 -1.94733,0.536222 -0.33867,0 -0.64911,0.282222 -0.64911,0.620888 0,0.366889 0.31044,0.649111 0.64911,0.649111 1.12889,0 2.032,-0.254 2.73755,-0.790222 0.39511,-0.338666 0.73378,-0.761999 1.04422,-1.213554 0.31045,0.451555 0.62089,0.874888 1.04423,1.213554 0.70555,0.536222 1.58044,0.790222 2.70933,0.790222 0.36688,0 0.64911,-0.282222 0.64911,-0.649111 0,-0.338666 -0.28223,-0.620888 -0.64911,-0.620888 -0.93134,0 -1.46756,-0.197555 -1.91911,-0.536222 -0.45156,-0.338666 -0.81845,-0.931332 -1.27,-1.777998 z m -4.68488,7.70466 h 4.65666 c 2.59644,0 4.68489,2.088443 4.68489,4.684886 v 0.479777 h -6.43467 c -1.63688,0 -2.90688,-1.298221 -2.90688,-2.906887 z m -1.29822,-1.269999 v 5.89844 c 0,3.301998 2.70933,6.011329 6.01133,6.011329 h 5.27755 c 0.36689,0 0.64911,-0.282222 0.64911,-0.649111 0,-0.338666 -0.28222,-0.64911 -0.64911,-0.64911 h -5.27755 c -2.37067,0 -4.318,-1.721555 -4.65667,-4.007553 0.70556,0.649111 1.58045,1.128888 2.85044,1.128888 h 7.73289 v -1.777998 c 0,-3.301998 -2.68111,-5.954885 -5.98311,-5.954885 z m 20.22825,11.260658 c 0,-0.169333 -0.0564,-0.310444 -0.16933,-0.423333 -1.15711,-1.298221 -1.89089,-3.019775 -1.89089,-4.910663 v -5.333995 c 0,-0.338667 -0.28222,-0.620889 -0.62089,-0.620889 -0.36689,0 -0.64911,0.282222 -0.64911,0.620889 v 5.333995 c 0,2.229554 0.81844,4.23333 2.20133,5.757329 0.11289,0.141111 0.28222,0.225778 0.47978,0.225778 0.36689,0 0.64911,-0.282222 0.64911,-0.649111 z m -3.95111,-14.393322 v 1.269999 h 1.24178 c 0.70555,0 1.27,-0.564444 1.27,-1.269999 v -1.241777 h -1.24178 c -0.73378,0 -1.27,0.564444 -1.27,1.241777 z m 8.17743,4.402663 h 4.65666 c 2.59644,0 4.68489,2.088443 4.68489,4.684886 v 4.656663 h -4.62845 c -2.62466,0 -4.7131,-2.088443 -4.7131,-4.713108 z m -1.29822,-1.298221 v 5.926662 c 0,2.906887 2.08844,5.333996 4.82599,5.89844 0.39511,0.08467 0.79022,0.112889 1.18533,0.112889 h 5.92667 v -5.954884 c 0,-3.301998 -2.68111,-5.983107 -5.98311,-5.983107 z m 22.26025,-6.406439 -0.59267,1.128888 c -0.42333,0.846666 -0.81844,1.439332 -1.24177,1.777998 -0.45156,0.338667 -0.98778,0.536222 -1.94734,0.536222 -0.33866,0 -0.64911,0.282222 -0.64911,0.620888 0,0.366889 0.31045,0.649111 0.64911,0.649111 1.12889,0 2.032,-0.254 2.73756,-0.790222 0.39511,-0.338666 0.73377,-0.761999 1.04422,-1.213554 0.31044,0.451555 0.62089,0.874888 1.04422,1.213554 0.70555,0.536222 1.58044,0.790222 2.70933,0.790222 0.36689,0 0.64911,-0.282222 0.64911,-0.649111 0,-0.338666 -0.28222,-0.620888 -0.64911,-0.620888 -0.93133,0 -1.46755,-0.197555 -1.91911,-0.536222 -0.45155,-0.338666 -0.81844,-0.931332 -1.27,-1.777998 z m 4.65666,7.70466 v 4.656663 c 0,2.596443 -2.08844,4.684886 -4.68488,4.684886 h -4.65667 v -4.628441 c 0,-2.624665 2.08845,-4.713108 4.71311,-4.713108 z m 1.29822,-1.298221 h -5.92666 c -2.90689,0 -5.334,2.088443 -5.89844,4.825996 -0.0847,0.395111 -0.11289,0.790222 -0.11289,1.185333 v 5.926662 h 5.95489 c 3.30199,0 5.9831,-2.681109 5.9831,-5.983107 z m 15.62804,-2.765776 c -1.07245,0 -1.97556,0.903111 -1.97556,1.975554 h 1.18534 c 0,-0.39511 0.39511,-0.790221 0.79022,-0.790221 h 0.79022 v 0.790221 c 0,0.395111 -0.39511,0.790222 -0.79022,0.790222 h -5.27755 c -2.90689,0 -5.334,2.088443 -5.89844,4.825996 -0.0847,0.395111 -0.11289,0.790222 -0.11289,1.185333 v 5.926662 h 5.95488 c 3.302,0 5.98311,-2.681109 5.98311,-5.983107 v -4.88244 c 0.762,-0.254 1.32644,-1.016 1.32644,-1.862666 v -1.975554 z m -0.64911,4.063997 v 4.656663 c 0,2.596443 -2.08845,4.684886 -4.68489,4.684886 h -4.65666 v -4.628441 c 0,-2.624665 2.08844,-4.713108 4.71311,-4.713108 z m 6.28648,-1.298221 c -0.36689,0 -0.64911,0.282222 -0.64911,0.620889 v 5.305773 c 0,3.301998 2.70933,6.011329 6.01133,6.011329 h 5.92666 V 77.422896 c 0,-0.338667 -0.28222,-0.620889 -0.62089,-0.620889 -0.36688,0 -0.64911,0.282222 -0.64911,0.620889 v 10.018881 h -4.65666 c -2.62466,0 -4.71311,-2.088443 -4.71311,-4.713108 v -5.305773 c 0,-0.338667 -0.31044,-0.620889 -0.64911,-0.620889 z m 26.94514,-2.765776 c -1.07244,0 -1.97555,0.903111 -1.97555,1.975554 h 1.18533 c 0,-0.39511 0.39511,-0.790221 0.79022,-0.790221 h 0.79022 v 0.790221 c 0,0.395111 -0.39511,0.790222 -0.79022,0.790222 -0.36689,0 -0.64911,0.282222 -0.64911,0.620889 v 10.018881 h -4.65666 c -2.62467,0 -4.71311,-2.088443 -4.71311,-4.713108 v -5.305773 c 0,-0.338667 -0.31045,-0.620889 -0.64911,-0.620889 -0.36689,0 -0.64911,0.282222 -0.64911,0.620889 v 5.305773 c 0,3.301998 2.70933,6.011329 6.01133,6.011329 h 5.92666 V 77.874451 c 0.762,-0.254 1.35466,-1.016 1.35466,-1.862666 v -1.975554 z m 16.89805,14.054656 V 77.422896 c 0,-0.338667 -0.28222,-0.620889 -0.62089,-0.620889 -0.36689,0 -0.64911,0.282222 -0.64911,0.620889 v 10.018881 h -4.65666 c -2.62467,0 -4.71311,-2.088443 -4.71311,-4.713108 v -5.305773 c 0,-0.338667 -0.31044,-0.620889 -0.64911,-0.620889 -0.36689,0 -0.64911,0.282222 -0.64911,0.620889 v 5.305773 c 0,3.301998 2.70933,6.011329 6.01133,6.011329 h 4.57199 c -0.28222,1.552221 -1.63688,2.709331 -3.27377,2.709331 h -6.66044 c -0.36689,0 -0.64911,0.282222 -0.64911,0.649111 0,0.338666 0.28222,0.64911 0.64911,0.64911 h 6.66044 c 2.54,0 4.62844,-2.088443 4.62844,-4.656663 z"
         id="path65" />
      <path
         style="font-weight:bold;font-family:'Leaf Tech';-inkscape-font-specification:'Leaf Tech Bold';text-align:center;text-anchor:middle"
         d="m 56.34715,107.3102 -0.705555,0.93134 c -0.564444,0.73377 -1.044222,1.38288 -1.721555,2.34244 l -0.818443,1.21355 1.326443,-0.64911 c 0.987777,-0.47977 1.467554,-0.87488 1.721554,-1.35466 0.169333,-0.31045 0.197556,-0.62089 0.197556,-0.90311 0,-0.14111 0,-0.28222 0,-0.42334 z m -8.748882,6.20889 c -0.366889,0 -0.649111,0.254 -0.649111,0.62089 0,0.33866 0.282222,0.64911 0.649111,0.64911 h 6.660439 c 1.862665,0 3.358442,1.46755 3.358442,3.33022 v 0.31044 c -1.100666,-1.38289 -2.793998,-2.31422 -4.713108,-2.31422 h -5.954884 v 3.27378 c 0,3.33022 2.709331,6.03955 6.011329,6.03955 h 5.926662 v -7.30955 c 0,-2.56822 -2.088443,-4.60022 -4.628441,-4.60022 z m 0.64911,3.89466 h 4.656663 c 2.596443,0 4.713108,2.08844 4.713108,4.68489 v 2.032 h -4.656663 c -2.624665,0 -4.713108,-2.11667 -4.713108,-4.74133 z m 25.646918,-12.5871 -0.705555,0.93133 c -0.564444,0.73378 -1.044221,1.38289 -1.721554,2.34245 l -0.818444,1.21355 1.326443,-0.64911 c 0.987777,-0.47978 1.467555,-0.87489 1.721555,-1.35467 0.169333,-0.31044 0.197555,-0.62088 0.197555,-0.90311 0,-0.14111 0,-0.28222 0,-0.42333 z m -10.018881,8.69244 c -0.366889,0 -0.649111,0.254 -0.649111,0.62089 0,0.33866 0.282222,0.64911 0.649111,0.64911 h 6.660439 c 1.862665,0 3.358442,1.46755 3.358442,3.33022 v 0.31044 c -1.100666,-1.38289 -2.793998,-2.31422 -4.713107,-2.31422 h -5.954885 v 3.27378 c 0,3.33022 2.709331,6.03955 6.011329,6.03955 h 5.926662 v -7.30955 c 0,-2.56822 -2.088443,-4.60022 -4.628441,-4.60022 z m 0.64911,3.89466 h 4.656664 c 2.596442,0 4.713107,2.08844 4.713107,4.68489 v 2.032 h -4.656663 c -2.624665,0 -4.713108,-2.11667 -4.713108,-4.74133 z m 4.684886,-10.32932 -0.592666,1.12888 c -0.423333,0.84667 -0.818444,1.43934 -1.241777,1.778 -0.451556,0.33867 -0.987777,0.53623 -1.947332,0.53623 -0.338667,0 -0.649111,0.28222 -0.649111,0.62088 0,0.36689 0.310444,0.64911 0.649111,0.64911 1.128888,0 2.031998,-0.254 2.737553,-0.79022 0.395111,-0.33866 0.733778,-0.762 1.044222,-1.21355 0.310444,0.45155 0.620888,0.87489 1.044221,1.21355 0.705555,0.53622 1.580443,0.79022 2.709331,0.79022 0.366889,0 0.649111,-0.28222 0.649111,-0.64911 0,-0.33866 -0.282222,-0.62088 -0.649111,-0.62088 -0.931332,0 -1.467554,-0.19756 -1.919109,-0.53623 -0.451555,-0.33866 -0.818444,-0.93133 -1.269999,-1.778 z m 20.284699,-1.89089 -0.705555,0.93133 c -0.564444,0.73378 -1.044221,1.38289 -1.721554,2.34244 l -0.818444,1.21356 1.326444,-0.64911 c 0.987777,-0.47978 1.467554,-0.87489 1.721554,-1.35467 0.169333,-0.33866 0.197555,-0.64911 0.197555,-0.93133 0,-0.14111 0,-0.28222 0,-0.39511 z m -9.341548,8.32555 c -0.366888,0 -0.64911,0.254 -0.64911,0.62089 0,0.33866 0.282222,0.64911 0.64911,0.64911 h 6.660439 c 1.862666,0 3.358442,1.46755 3.358442,3.33022 v 0.31044 c -1.100666,-1.38289 -2.793998,-2.31422 -4.713107,-2.31422 h -5.954884 v 3.27378 c 0,3.33022 2.709331,6.03955 6.011328,6.03955 h 5.926662 v -7.30955 c 0,-2.56822 -2.088443,-4.60022 -4.628441,-4.60022 z m 0.649111,3.89466 h 4.656663 c 2.596442,0 4.713107,2.08844 4.713107,4.68489 v 2.032 H 85.51478 c -2.624664,0 -4.713107,-2.11667 -4.713107,-4.74133 z m 0.338666,-7.61999 c 0,0.19755 0.08467,0.33866 0.197556,0.45155 0.959554,0.95956 2.06022,1.55222 4.23333,1.55222 2.173109,0 3.273775,-0.59266 4.23333,-1.55222 0.112888,-0.11289 0.169333,-0.254 0.169333,-0.45155 0,-0.33867 -0.282222,-0.64911 -0.649111,-0.64911 -0.169333,0 -0.310444,0.0847 -0.451555,0.19755 -0.846666,0.84667 -1.326443,1.15711 -3.301997,1.15711 -2.003777,0 -2.483554,-0.31044 -3.33022,-1.15711 -0.112889,-0.11289 -0.282222,-0.19755 -0.451555,-0.19755 -0.338667,0 -0.649111,0.31044 -0.649111,0.64911 z m 24.094691,-2.48356 -0.70555,0.93134 c -0.56444,0.73377 -1.04422,1.38288 -1.72156,2.34244 l -0.81844,1.21355 1.32644,-0.64911 c 0.98778,-0.47977 1.46756,-0.87488 1.72156,-1.35466 0.16933,-0.31045 0.19755,-0.62089 0.19755,-0.90311 0,-0.14111 0,-0.28222 0,-0.42334 z m -8.156212,7.47889 h 4.656662 c 2.59644,0 4.68489,2.08844 4.68489,4.68488 v 0.47978 h -6.434665 c -1.636888,0 -2.906887,-1.29822 -2.906887,-2.90689 z m -1.298221,-1.27 v 5.89844 c 0,3.302 2.709331,6.01133 6.011333,6.01133 h 5.27755 c 0.36689,0 0.64911,-0.28222 0.64911,-0.64911 0,-0.33867 -0.28222,-0.64911 -0.64911,-0.64911 h -5.27755 c -2.370669,0 -4.318001,-1.72156 -4.656667,-4.00756 0.705555,0.64911 1.580443,1.12889 2.850442,1.12889 h 7.732885 v -1.778 c 0,-3.30199 -2.68111,-5.95488 -5.98311,-5.95488 z m 27.340253,-8.74888 -0.70556,0.93133 c -0.56444,0.73378 -1.04422,1.38289 -1.72155,2.34244 l -0.81844,1.21356 1.32644,-0.64911 c 0.98778,-0.47978 1.46755,-0.87489 1.72155,-1.35467 0.16934,-0.31044 0.19756,-0.62089 0.19756,-0.90311 0,-0.14111 0,-0.28222 0,-0.42333 z m -9.76488,10.01888 h 4.65666 c 2.59644,0 4.68489,2.08844 4.68489,4.68488 v 0.47978 h -6.43467 c -1.63688,0 -2.90688,-1.29822 -2.90688,-2.90689 z m -1.29822,-1.27 v 5.89844 c 0,3.302 2.70933,6.01133 6.01132,6.01133 h 5.27756 c 0.36688,0 0.64911,-0.28222 0.64911,-0.64911 0,-0.33867 -0.28223,-0.64911 -0.64911,-0.64911 h -5.27756 c -2.37066,0 -4.31799,-1.72156 -4.65666,-4.00756 0.70556,0.64911 1.58044,1.12889 2.85044,1.12889 h 7.73289 v -1.778 c 0,-3.30199 -2.68111,-5.95488 -5.98311,-5.95488 z m 5.9831,-6.43466 -0.59266,1.12888 c -0.42334,0.84667 -0.81845,1.43934 -1.24178,1.778 -0.45156,0.33867 -0.98778,0.53623 -1.94733,0.53623 -0.33867,0 -0.64911,0.28222 -0.64911,0.62088 0,0.36689 0.31044,0.64911 0.64911,0.64911 1.12889,0 2.032,-0.254 2.73755,-0.79022 0.39511,-0.33866 0.73378,-0.762 1.04422,-1.21355 0.31045,0.45155 0.62089,0.87489 1.04422,1.21355 0.70556,0.53622 1.58045,0.79022 2.70934,0.79022 0.36688,0 0.64911,-0.28222 0.64911,-0.64911 0,-0.33866 -0.28223,-0.62088 -0.64911,-0.62088 -0.93134,0 -1.46756,-0.19756 -1.91911,-0.53623 -0.45156,-0.33866 -0.81845,-0.93133 -1.27,-1.778 z m 12.5236,0.70555 -0.70556,0.93133 c -0.56444,0.73378 -1.04422,1.38289 -1.72155,2.34245 l -0.81845,1.21355 1.32645,-0.64911 c 0.98777,-0.47978 1.46755,-0.87489 1.72155,-1.35466 0.16933,-0.31045 0.19756,-0.62089 0.19756,-0.90311 0,-0.14112 0,-0.28223 0,-0.42334 z m 0.81844,16.98977 c 0,-0.16934 -0.0565,-0.31045 -0.16933,-0.42334 -1.15711,-1.29822 -1.89089,-3.01977 -1.89089,-4.91066 v -5.334 c 0,-0.33866 -0.28222,-0.62088 -0.62089,-0.62088 -0.36689,0 -0.64911,0.28222 -0.64911,0.62088 v 5.334 c 0,2.22955 0.81844,4.23333 2.20133,5.75733 0.11289,0.14111 0.28222,0.22578 0.47978,0.22578 0.36689,0 0.64911,-0.28222 0.64911,-0.64911 z m 11.5358,-17.46955 -0.70555,0.93134 c -0.56445,0.73377 -1.04422,1.38288 -1.72156,2.34244 l -0.81844,1.21355 1.32644,-0.64911 c 0.98778,-0.47977 1.46756,-0.87488 1.72156,-1.35466 0.16933,-0.31045 0.19755,-0.62089 0.19755,-0.90311 0,-0.14111 0,-0.28222 0,-0.42334 z m 1.18534,7.47889 v 4.65666 c 0,2.59644 -2.08845,4.68489 -4.68489,4.68489 h -4.65666 v -4.62845 c 0,-2.62466 2.08844,-4.7131 4.7131,-4.7131 z m 1.29822,-1.29822 h -5.92667 c -2.90688,0 -5.33399,2.08844 -5.89844,4.82599 -0.0847,0.39511 -0.11288,0.79022 -0.11288,1.18533 v 5.92667 h 5.95488 c 3.302,0 5.98311,-2.68111 5.98311,-5.98311 z m 14.9507,-8.91822 -0.70556,0.93133 c -0.56444,0.73378 -1.04422,1.38289 -1.72155,2.34245 l -0.81844,1.21355 1.32644,-0.64911 c 0.98778,-0.47978 1.46755,-0.87489 1.72155,-1.35467 0.16934,-0.31044 0.19756,-0.62088 0.19756,-0.90311 0,-0.14111 0,-0.28222 0,-0.42333 z m 0.0282,10.21644 v 4.65666 c 0,2.59644 -2.08844,4.68489 -4.68488,4.68489 h -4.65667 v -4.62845 c 0,-2.62466 2.08844,-4.7131 4.71311,-4.7131 z m 1.29822,-1.29822 h -5.92666 c -2.90689,0 -5.334,2.08844 -5.89844,4.82599 -0.0847,0.39511 -0.11289,0.79022 -0.11289,1.18533 v 5.92667 h 5.95489 c 3.30199,0 5.9831,-2.68111 5.9831,-5.98311 z m -5.95488,-6.40644 -0.59267,1.12888 c -0.42333,0.84667 -0.81844,1.43934 -1.24178,1.778 -0.45155,0.33867 -0.98777,0.53623 -1.94733,0.53623 -0.33866,0 -0.64911,0.28222 -0.64911,0.62088 0,0.36689 0.31045,0.64911 0.64911,0.64911 1.12889,0 2.032,-0.254 2.73756,-0.79022 0.39511,-0.33866 0.73377,-0.762 1.04422,-1.21355 0.31044,0.45155 0.62089,0.87489 1.04422,1.21355 0.70555,0.53622 1.58044,0.79022 2.70933,0.79022 0.36689,0 0.64911,-0.28222 0.64911,-0.64911 0,-0.33866 -0.28222,-0.62088 -0.64911,-0.62088 -0.93133,0 -1.46755,-0.19756 -1.91911,-0.53623 -0.45155,-0.33866 -0.81844,-0.93133 -1.27,-1.778 z m 19.66381,0.0847 -0.70555,0.93134 c -0.56444,0.73377 -1.04422,1.38288 -1.72155,2.34244 l -0.81845,1.21355 1.32644,-0.64911 c 0.98778,-0.47977 1.46756,-0.87489 1.72156,-1.35466 0.16933,-0.31045 0.19755,-0.62089 0.19755,-0.90311 0,-0.14111 0,-0.28223 0,-0.42334 z m 1.27,7.62 v 4.65666 c 0,2.59644 -2.08844,4.68489 -4.68488,4.68489 h -4.65666 v -4.62845 c 0,-2.62466 2.08844,-4.7131 4.7131,-4.7131 z m 0.64911,-4.064 c -1.07244,0 -1.97555,0.90311 -1.97555,1.97555 h 1.18533 c 0,-0.39511 0.39511,-0.79022 0.79022,-0.79022 h 0.79023 v 0.79022 c 0,0.39512 -0.39512,0.79023 -0.79023,0.79023 h -5.27755 c -2.90688,0 -5.33399,2.08844 -5.89844,4.82599 -0.0847,0.39511 -0.11289,0.79022 -0.11289,1.18533 v 5.92667 h 5.95489 c 3.302,0 5.9831,-2.68111 5.9831,-5.98311 v -4.88244 c 0.762,-0.254 1.32645,-1.016 1.32645,-1.86267 v -1.97555 z m 14.44271,-3.41489 -0.70556,0.93134 c -0.56444,0.73377 -1.04422,1.38288 -1.72155,2.34244 l -0.81845,1.21355 1.32645,-0.64911 c 0.98777,-0.47977 1.46755,-0.87488 1.72155,-1.35466 0.16933,-0.31045 0.19756,-0.62089 0.19756,-0.93133 0,-0.14112 0,-0.254 0,-0.39512 z m -8.80533,6.18067 c -0.36689,0 -0.64911,0.28222 -0.64911,0.62088 v 5.30578 c 0,3.302 2.70933,6.01133 6.01133,6.01133 h 5.92666 v -11.31711 c 0,-0.33866 -0.28222,-0.62088 -0.62089,-0.62088 -0.36689,0 -0.64911,0.28222 -0.64911,0.62088 v 10.01889 h -4.65666 c -2.62467,0 -4.71311,-2.08845 -4.71311,-4.71311 v -5.30578 c 0,-0.33866 -0.31044,-0.62088 -0.64911,-0.62088 z m 25.02603,-6.43467 -0.70556,0.93134 c -0.56444,0.73377 -1.04422,1.38289 -1.72155,2.34244 l -0.81845,1.21355 1.32645,-0.64911 c 0.98777,-0.47977 1.46755,-0.87488 1.72155,-1.35466 0.16934,-0.31045 0.19756,-0.62089 0.19756,-0.93133 0,-0.14112 0,-0.254 0,-0.39512 z m -8.74888,6.43467 c -0.36689,0 -0.64912,0.28222 -0.64912,0.62088 v 5.30578 c 0,3.302 2.70934,6.01133 6.01133,6.01133 h 5.92667 v -10.86555 c 0.76199,-0.254 1.35466,-1.016 1.35466,-1.86267 v -1.97555 h -1.97555 c -1.07245,0 -1.97556,0.90311 -1.97556,1.97555 h 1.18534 c 0,-0.39511 0.39511,-0.79022 0.79022,-0.79022 h 0.79022 v 0.79022 c 0,0.39512 -0.39511,0.79023 -0.79022,0.79023 -0.36689,0 -0.64911,0.28222 -0.64911,0.62088 v 10.01889 h -4.65667 c -2.62466,0 -4.7131,-2.08845 -4.7131,-4.71311 v -5.30578 c 0,-0.33866 -0.31045,-0.62088 -0.64911,-0.62088 z m 25.13891,-6.18067 -0.70555,0.93134 c -0.56445,0.73377 -1.04422,1.38288 -1.72156,2.34244 l -0.81844,1.21355 1.32644,-0.64911 c 0.98778,-0.47977 1.46756,-0.87488 1.72156,-1.35466 0.16933,-0.31045 0.19755,-0.62089 0.19755,-0.93133 0,-0.14112 0,-0.254 0,-0.39512 z m 2.42711,17.46955 v -10.668 c 0,-0.33866 -0.28222,-0.62088 -0.62089,-0.62088 -0.36689,0 -0.64911,0.28222 -0.64911,0.62088 v 10.01889 h -4.65666 c -2.62467,0 -4.71311,-2.08845 -4.71311,-4.71311 v -5.30578 c 0,-0.33866 -0.31044,-0.62088 -0.64911,-0.62088 -0.36689,0 -0.64911,0.28222 -0.64911,0.62088 v 5.30578 c 0,3.302 2.70933,6.01133 6.01133,6.01133 h 4.572 c -0.28223,1.55222 -1.63689,2.70933 -3.27378,2.70933 h -6.66044 c -0.36689,0 -0.64911,0.28222 -0.64911,0.64911 0,0.33867 0.28222,0.64911 0.64911,0.64911 h 6.66044 c 2.54,0 4.62844,-2.08844 4.62844,-4.65666 z"
         id="path66" />
      <path
         style="font-weight:bold;font-family:'Leaf Tech';-inkscape-font-specification:'Leaf Tech Bold';text-align:center;text-anchor:middle"
         d="m 52.000931,145.07151 0.620888,1.35466 c 0.451555,0.98778 0.818444,1.49578 1.298221,1.778 0.451556,0.254 0.874889,0.254 1.298222,0.28222 h 1.15711 l -0.874888,-0.73377 c -0.733778,-0.59267 -1.354666,-1.10067 -2.285999,-1.80622 z m -4.402663,5.13644 c -0.366889,0 -0.649111,0.254 -0.649111,0.62089 0,0.33866 0.282222,0.64911 0.649111,0.64911 h 6.660439 c 1.862665,0 3.358442,1.46755 3.358442,3.33022 v 0.31044 c -1.100666,-1.38289 -2.793998,-2.31422 -4.713108,-2.31422 h -5.954884 v 3.27378 c 0,3.33021 2.709331,6.03955 6.011329,6.03955 h 5.926662 v -7.30955 c 0,-2.56822 -2.088443,-4.60022 -4.628441,-4.60022 z m 0.64911,3.89466 h 4.656663 c 2.596443,0 4.713108,2.08844 4.713108,4.68489 v 2.03199 h -4.656663 c -2.624665,0 -4.713108,-2.11666 -4.713108,-4.74132 z m 22.175587,-11.85332 0.620889,1.35466 c 0.451555,0.98778 0.818444,1.49578 1.298221,1.778 0.451555,0.254 0.874888,0.254 1.298221,0.28222 h 1.15711 l -0.874888,-0.73377 c -0.733777,-0.59267 -1.354665,-1.10067 -2.285998,-1.80622 z m -6.54755,7.95866 c -0.366889,0 -0.649111,0.254 -0.649111,0.62089 0,0.33866 0.282222,0.64911 0.649111,0.64911 h 6.660439 c 1.862665,0 3.358442,1.46755 3.358442,3.33022 v 0.31044 c -1.100666,-1.38289 -2.793998,-2.31422 -4.713107,-2.31422 h -5.954885 v 3.27378 c 0,3.33021 2.709331,6.03955 6.011329,6.03955 h 5.926662 v -7.30955 c 0,-2.56822 -2.088443,-4.60022 -4.628441,-4.60022 z m 0.64911,3.89466 h 4.656664 c 2.596442,0 4.713107,2.08844 4.713107,4.68489 v 2.03199 h -4.656663 c -2.624665,0 -4.713108,-2.11666 -4.713108,-4.74132 z m 4.684886,-10.32932 -0.592666,1.12888 c -0.423333,0.84667 -0.818444,1.43934 -1.241777,1.778 -0.451556,0.33867 -0.987777,0.53622 -1.947332,0.53622 -0.338667,0 -0.649111,0.28223 -0.649111,0.62089 0,0.36689 0.310444,0.64911 0.649111,0.64911 1.128888,0 2.031998,-0.254 2.737553,-0.79022 0.395111,-0.33866 0.733778,-0.762 1.044222,-1.21355 0.310444,0.45155 0.620888,0.87489 1.044221,1.21355 0.705555,0.53622 1.580443,0.79022 2.709331,0.79022 0.366889,0 0.649111,-0.28222 0.649111,-0.64911 0,-0.33866 -0.282222,-0.62089 -0.649111,-0.62089 -0.931332,0 -1.467554,-0.19755 -1.919109,-0.53622 -0.451555,-0.33866 -0.818444,-0.93133 -1.269999,-1.778 z m 13.285594,-0.70556 0.620888,1.35467 c 0.451555,0.98777 0.818444,1.49577 1.298221,1.778 0.451556,0.25399 0.874889,0.25399 1.298222,0.28222 h 1.15711 l -0.874888,-0.73378 c -0.733778,-0.59267 -1.354666,-1.10067 -2.285999,-1.80622 z m -2.342443,7.14022 c -0.366888,0 -0.64911,0.254 -0.64911,0.62089 0,0.33866 0.282222,0.64911 0.64911,0.64911 h 6.660439 c 1.862666,0 3.358442,1.46755 3.358442,3.33022 v 0.31044 c -1.100666,-1.38289 -2.793998,-2.31422 -4.713107,-2.31422 h -5.954884 v 3.27378 c 0,3.33021 2.709331,6.03955 6.011328,6.03955 h 5.926662 v -7.30955 c 0,-2.56822 -2.088443,-4.60022 -4.628441,-4.60022 z m 0.649111,3.89466 h 4.656663 c 2.596442,0 4.713107,2.08844 4.713107,4.68489 v 2.03199 H 85.51478 c -2.624664,0 -4.713107,-2.11666 -4.713107,-4.74132 z m 0.338666,-7.61999 c 0,0.19755 0.08467,0.33866 0.197556,0.45155 0.959554,0.95956 2.06022,1.55222 4.23333,1.55222 2.173109,0 3.273775,-0.59266 4.23333,-1.55222 0.112888,-0.11289 0.169333,-0.254 0.169333,-0.45155 0,-0.33867 -0.282222,-0.64911 -0.649111,-0.64911 -0.169333,0 -0.310444,0.0847 -0.451555,0.19755 -0.846666,0.84667 -1.326443,1.15711 -3.301997,1.15711 -2.003777,0 -2.483554,-0.31044 -3.33022,-1.15711 -0.112889,-0.11289 -0.282222,-0.19755 -0.451555,-0.19755 -0.338667,0 -0.649111,0.31044 -0.649111,0.64911 z m 19.804921,-1.41111 0.62089,1.35466 c 0.45155,0.98778 0.81844,1.49578 1.29822,1.778 0.45155,0.254 0.87489,0.254 1.29822,0.28222 h 1.15711 l -0.87489,-0.73377 c -0.73377,-0.59267 -1.35466,-1.10067 -2.286,-1.80622 z m -3.866442,6.40644 h 4.656662 c 2.59644,0 4.68489,2.08844 4.68489,4.68488 v 0.47978 h -6.434665 c -1.636888,0 -2.906887,-1.29822 -2.906887,-2.90689 z m -1.298221,-1.27 v 5.89844 c 0,3.30199 2.709331,6.01133 6.011333,6.01133 h 5.27755 c 0.36689,0 0.64911,-0.28223 0.64911,-0.64911 0,-0.33867 -0.28222,-0.64912 -0.64911,-0.64912 h -5.27755 c -2.370669,0 -4.318001,-1.72155 -4.656667,-4.00755 0.705555,0.64911 1.580443,1.12889 2.850442,1.12889 h 7.732885 v -1.778 c 0,-3.302 -2.68111,-5.95488 -5.98311,-5.95488 z m 23.473813,-7.874 0.62089,1.35467 c 0.45155,0.98778 0.81844,1.49578 1.29822,1.778 0.45155,0.254 0.87489,0.254 1.29822,0.28222 h 1.15711 l -0.87489,-0.73378 c -0.73378,-0.59266 -1.35467,-1.10066 -2.286,-1.80622 z m -5.89844,9.144 h 4.65666 c 2.59644,0 4.68489,2.08844 4.68489,4.68488 v 0.47978 h -6.43467 c -1.63688,0 -2.90688,-1.29822 -2.90688,-2.90689 z m -1.29822,-1.27 v 5.89844 c 0,3.30199 2.70933,6.01133 6.01132,6.01133 h 5.27756 c 0.36688,0 0.64911,-0.28223 0.64911,-0.64911 0,-0.33867 -0.28223,-0.64912 -0.64911,-0.64912 h -5.27756 c -2.37066,0 -4.31799,-1.72155 -4.65666,-4.00755 0.70556,0.64911 1.58044,1.12889 2.85044,1.12889 h 7.73289 v -1.778 c 0,-3.302 -2.68111,-5.95488 -5.98311,-5.95488 z m 5.9831,-6.43466 -0.59266,1.12888 c -0.42334,0.84667 -0.81845,1.43934 -1.24178,1.778 -0.45156,0.33867 -0.98778,0.53622 -1.94733,0.53622 -0.33867,0 -0.64911,0.28223 -0.64911,0.62089 0,0.36689 0.31044,0.64911 0.64911,0.64911 1.12889,0 2.032,-0.254 2.73755,-0.79022 0.39511,-0.33866 0.73378,-0.762 1.04422,-1.21355 0.31045,0.45155 0.62089,0.87489 1.04422,1.21355 0.70556,0.53622 1.58045,0.79022 2.70934,0.79022 0.36688,0 0.64911,-0.28222 0.64911,-0.64911 0,-0.33866 -0.28223,-0.62089 -0.64911,-0.62089 -0.93134,0 -1.46756,-0.19755 -1.91911,-0.53622 -0.45156,-0.33866 -0.81845,-0.93133 -1.27,-1.778 z m 8.57249,1.63688 0.62089,1.35467 c 0.45155,0.98778 0.81844,1.49578 1.29822,1.778 0.45155,0.254 0.87489,0.254 1.29822,0.28222 h 1.15711 l -0.87489,-0.73378 c -0.73378,-0.59266 -1.35467,-1.10066 -2.286,-1.80622 z m 4.76955,16.05844 c 0,-0.16934 -0.0565,-0.31045 -0.16933,-0.42334 -1.15711,-1.29822 -1.89089,-3.01977 -1.89089,-4.91066 v -5.334 c 0,-0.33866 -0.28222,-0.62088 -0.62089,-0.62088 -0.36689,0 -0.64911,0.28222 -0.64911,0.62088 v 5.334 c 0,2.22955 0.81844,4.23333 2.20133,5.75733 0.11289,0.14111 0.28222,0.22578 0.47978,0.22578 0.36689,0 0.64911,-0.28223 0.64911,-0.64911 z m 7.24603,-16.3971 0.62089,1.35466 c 0.45155,0.98778 0.81844,1.49578 1.29822,1.778 0.45155,0.254 0.87489,0.254 1.29822,0.28222 h 1.15711 l -0.87489,-0.73377 c -0.73378,-0.59267 -1.35466,-1.10067 -2.286,-1.80622 z m 5.47511,6.40644 v 4.65666 c 0,2.59644 -2.08845,4.68488 -4.68489,4.68488 h -4.65666 v -4.62844 c 0,-2.62466 2.08844,-4.7131 4.7131,-4.7131 z m 1.29822,-1.29822 h -5.92667 c -2.90688,0 -5.33399,2.08844 -5.89844,4.82599 -0.0847,0.39511 -0.11288,0.79022 -0.11288,1.18533 v 5.92667 h 5.95488 c 3.302,0 5.98311,-2.68111 5.98311,-5.98311 z m 11.53581,-7.84578 0.62089,1.35467 c 0.45156,0.98778 0.81844,1.49578 1.29822,1.778 0.45156,0.254 0.87489,0.254 1.29822,0.28222 h 1.15711 l -0.87489,-0.73378 c -0.73377,-0.59266 -1.35466,-1.10066 -2.28599,-1.80622 z m 3.44311,9.144 v 4.65666 c 0,2.59644 -2.08844,4.68488 -4.68488,4.68488 h -4.65667 v -4.62844 c 0,-2.62466 2.08844,-4.7131 4.71311,-4.7131 z m 1.29822,-1.29822 h -5.92666 c -2.90689,0 -5.334,2.08844 -5.89844,4.82599 -0.0847,0.39511 -0.11289,0.79022 -0.11289,1.18533 v 5.92667 h 5.95489 c 3.30199,0 5.9831,-2.68111 5.9831,-5.98311 z m -5.95488,-6.40644 -0.59267,1.12888 c -0.42333,0.84667 -0.81844,1.43934 -1.24178,1.778 -0.45155,0.33867 -0.98777,0.53622 -1.94733,0.53622 -0.33866,0 -0.64911,0.28223 -0.64911,0.62089 0,0.36689 0.31045,0.64911 0.64911,0.64911 1.12889,0 2.032,-0.254 2.73756,-0.79022 0.39511,-0.33866 0.73377,-0.762 1.04422,-1.21355 0.31044,0.45155 0.62089,0.87489 1.04422,1.21355 0.70555,0.53622 1.58044,0.79022 2.70933,0.79022 0.36689,0 0.64911,-0.28222 0.64911,-0.64911 0,-0.33866 -0.28222,-0.62089 -0.64911,-0.62089 -0.93133,0 -1.46755,-0.19755 -1.91911,-0.53622 -0.45155,-0.33866 -0.81844,-0.93133 -1.27,-1.778 z m 14.8096,0.81844 0.62088,1.35467 c 0.45156,0.98777 0.81845,1.49577 1.29823,1.77799 0.45155,0.254 0.87488,0.254 1.29822,0.28223 h 1.15711 l -0.87489,-0.73378 c -0.73378,-0.59267 -1.35467,-1.10067 -2.286,-1.80622 z m 6.12421,6.88622 v 4.65666 c 0,2.59644 -2.08844,4.68488 -4.68488,4.68488 h -4.65666 v -4.62844 c 0,-2.62466 2.08844,-4.7131 4.7131,-4.7131 z m 0.64911,-4.064 c -1.07244,0 -1.97555,0.90311 -1.97555,1.97555 h 1.18533 c 0,-0.39511 0.39511,-0.79022 0.79022,-0.79022 h 0.79023 v 0.79022 c 0,0.39511 -0.39512,0.79023 -0.79023,0.79023 h -5.27755 c -2.90688,0 -5.33399,2.08844 -5.89844,4.82599 -0.0847,0.39511 -0.11289,0.79022 -0.11289,1.18533 v 5.92667 h 5.95489 c 3.302,0 5.9831,-2.68111 5.9831,-5.98311 v -4.88244 c 0.762,-0.254 1.32645,-1.016 1.32645,-1.86267 v -1.97555 z m 9.9836,-2.34244 0.62089,1.35466 c 0.45155,0.98778 0.81844,1.49578 1.29822,1.778 0.45155,0.254 0.87489,0.254 1.29822,0.28222 h 1.15711 l -0.87489,-0.73377 c -0.73378,-0.59267 -1.35466,-1.10067 -2.286,-1.80622 z m -4.34622,5.10822 c -0.36689,0 -0.64911,0.28222 -0.64911,0.62088 v 5.30578 c 0,3.30199 2.70933,6.01133 6.01133,6.01133 h 5.92666 v -11.31711 c 0,-0.33866 -0.28222,-0.62088 -0.62089,-0.62088 -0.36689,0 -0.64911,0.28222 -0.64911,0.62088 v 10.01888 h -4.65666 c -2.62467,0 -4.71311,-2.08844 -4.71311,-4.7131 v -5.30578 c 0,-0.33866 -0.31044,-0.62088 -0.64911,-0.62088 z m 20.2847,-5.78556 0.62089,1.35467 c 0.45155,0.98778 0.81844,1.49578 1.29822,1.778 0.45155,0.254 0.87489,0.254 1.29822,0.28222 h 1.15711 l -0.87489,-0.73378 c -0.73378,-0.59266 -1.35467,-1.10066 -2.286,-1.80622 z m -4.00755,5.78556 c -0.36689,0 -0.64912,0.28222 -0.64912,0.62088 v 5.30578 c 0,3.30199 2.70934,6.01133 6.01133,6.01133 h 5.92667 v -10.86555 c 0.76199,-0.254 1.35466,-1.016 1.35466,-1.86267 v -1.97555 h -1.97555 c -1.07245,0 -1.97556,0.90311 -1.97556,1.97555 h 1.18534 c 0,-0.39511 0.39511,-0.79022 0.79022,-0.79022 h 0.79022 v 0.79022 c 0,0.39511 -0.39511,0.79023 -0.79022,0.79023 -0.36689,0 -0.64911,0.28222 -0.64911,0.62088 v 10.01888 h -4.65667 c -2.62466,0 -4.7131,-2.08844 -4.7131,-4.7131 v -5.30578 c 0,-0.33866 -0.31045,-0.62088 -0.64911,-0.62088 z m 20.76447,-5.10822 0.62089,1.35466 c 0.45155,0.98778 0.81844,1.49578 1.29822,1.778 0.45156,0.254 0.87489,0.254 1.29822,0.28222 h 1.15711 l -0.87489,-0.73377 c -0.73377,-0.59267 -1.35466,-1.10067 -2.28599,-1.80622 z m 6.80155,16.3971 v -10.668 c 0,-0.33866 -0.28222,-0.62088 -0.62089,-0.62088 -0.36689,0 -0.64911,0.28222 -0.64911,0.62088 v 10.01888 h -4.65666 c -2.62467,0 -4.71311,-2.08844 -4.71311,-4.7131 v -5.30578 c 0,-0.33866 -0.31044,-0.62088 -0.64911,-0.62088 -0.36689,0 -0.64911,0.28222 -0.64911,0.62088 v 5.30578 c 0,3.30199 2.70933,6.01133 6.01133,6.01133 h 4.572 c -0.28223,1.55222 -1.63689,2.70933 -3.27378,2.70933 h -6.66044 c -0.36689,0 -0.64911,0.28222 -0.64911,0.64911 0,0.33866 0.28222,0.64911 0.64911,0.64911 h 6.66044 c 2.54,0 4.62844,-2.08844 4.62844,-4.65666 z"
         id="path67" />
      <path
         style="font-weight:bold;font-family:'Leaf Tech';-inkscape-font-specification:'Leaf Tech Bold';text-align:center;text-anchor:middle"
         d="m 54.286929,179.02281 -1.721554,0.95956 c -0.620889,0.36689 -0.959555,1.04422 -0.959555,1.72155 0,0.33867 0.05644,0.64911 0.225778,0.95956 l 1.100665,-0.64911 c -0.05644,-0.11289 -0.05644,-0.22578 -0.05644,-0.31045 0,-0.254 0.112889,-0.45155 0.338666,-0.59266 l 0.592667,-0.33867 0.338666,0.59267 c 0.05644,0.11288 0.08467,0.22577 0.08467,0.33866 0,0.254 -0.112889,0.45156 -0.338667,0.59267 l -1.693332,0.98778 c 0,0 0.423333,0.73377 0.649111,1.12888 0.225777,0.39511 0.64911,0.67734 1.185332,0.762 0.08467,-0.22578 0.112889,-0.42333 0.112889,-0.62089 0,-0.28222 -0.05644,-0.56444 -0.197555,-0.79022 l 0.592666,-0.36689 c 0.620888,-0.36688 0.987777,-1.04422 0.987777,-1.72155 0,-0.33867 -0.08467,-0.64911 -0.254,-0.95956 z m -6.688661,7.874 c -0.366889,0 -0.649111,0.254 -0.649111,0.62089 0,0.33866 0.282222,0.64911 0.649111,0.64911 h 6.660439 c 1.862665,0 3.358442,1.46755 3.358442,3.33022 v 0.31044 c -1.100666,-1.38289 -2.793998,-2.31422 -4.713108,-2.31422 h -5.954884 v 3.27377 c 0,3.33022 2.709331,6.03956 6.011329,6.03956 h 5.926662 v -7.30955 c 0,-2.56822 -2.088443,-4.60022 -4.628441,-4.60022 z m 0.64911,3.89466 h 4.656663 c 2.596443,0 4.713108,2.08844 4.713108,4.68489 v 2.03199 h -4.656663 c -2.624665,0 -4.713108,-2.11666 -4.713108,-4.74133 z m 24.659141,-14.25221 -1.721554,0.95955 c -0.620889,0.36689 -0.959555,1.04423 -0.959555,1.72156 0,0.33866 0.05644,0.64911 0.225778,0.95955 l 1.100665,-0.64911 c -0.05644,-0.11289 -0.05644,-0.22578 -0.05644,-0.31044 0,-0.254 0.112889,-0.45156 0.338666,-0.59267 l 0.592667,-0.33866 0.338666,0.59266 c 0.05644,0.11289 0.08467,0.22578 0.08467,0.33867 0,0.254 -0.112889,0.45155 -0.338667,0.59266 l -1.693332,0.98778 c 0,0 0.423333,0.73378 0.649111,1.12889 0.225777,0.39511 0.64911,0.67733 1.185332,0.762 0.08467,-0.22578 0.112889,-0.42333 0.112889,-0.62089 0,-0.28222 -0.05644,-0.56444 -0.197555,-0.79022 l 0.592666,-0.36689 c 0.620888,-0.36689 0.987777,-1.04422 0.987777,-1.72155 0,-0.33867 -0.08467,-0.64911 -0.254,-0.95956 z m -9.031104,10.35755 c -0.366889,0 -0.649111,0.254 -0.649111,0.62089 0,0.33866 0.282222,0.64911 0.649111,0.64911 h 6.660439 c 1.862665,0 3.358442,1.46755 3.358442,3.33022 v 0.31044 c -1.100666,-1.38289 -2.793998,-2.31422 -4.713107,-2.31422 h -5.954885 v 3.27377 c 0,3.33022 2.709331,6.03956 6.011329,6.03956 h 5.926662 v -7.30955 c 0,-2.56822 -2.088443,-4.60022 -4.628441,-4.60022 z m 0.64911,3.89466 h 4.656664 c 2.596442,0 4.713107,2.08844 4.713107,4.68489 v 2.03199 h -4.656663 c -2.624665,0 -4.713108,-2.11666 -4.713108,-4.74133 z m 4.684886,-10.32932 -0.592666,1.12888 c -0.423333,0.84667 -0.818444,1.43934 -1.241777,1.778 -0.451556,0.33867 -0.987777,0.53622 -1.947332,0.53622 -0.338667,0 -0.649111,0.28223 -0.649111,0.62089 0,0.36689 0.310444,0.64911 0.649111,0.64911 1.128888,0 2.031998,-0.254 2.737553,-0.79022 0.395111,-0.33867 0.733778,-0.762 1.044222,-1.21355 0.310444,0.45155 0.620888,0.87488 1.044221,1.21355 0.705555,0.53622 1.580443,0.79022 2.709331,0.79022 0.366889,0 0.649111,-0.28222 0.649111,-0.64911 0,-0.33866 -0.282222,-0.62089 -0.649111,-0.62089 -0.931332,0 -1.467554,-0.19755 -1.919109,-0.53622 -0.451555,-0.33866 -0.818444,-0.93133 -1.269999,-1.778 z m 17.631813,-3.38667 -1.721555,0.95956 c -0.620888,0.36688 -0.959554,1.04422 -0.959554,1.72155 0,0.33867 0.05644,0.64911 0.225777,0.95955 l 1.100666,-0.64911 c -0.05644,-0.11288 -0.05644,-0.22577 -0.05644,-0.31044 0,-0.254 0.112888,-0.45156 0.338666,-0.59267 l 0.592666,-0.33866 0.338667,0.59266 c 0.05644,0.11289 0.08467,0.22578 0.08467,0.33867 0,0.254 -0.112889,0.45156 -0.338666,0.59267 l -1.693332,0.98777 c 0,0 0.423333,0.73378 0.64911,1.12889 0.225778,0.39511 0.649111,0.67733 1.185333,0.762 0.08467,-0.22578 0.112889,-0.42333 0.112889,-0.62089 0,-0.28222 -0.05644,-0.56444 -0.197556,-0.79022 l 0.592666,-0.36689 c 0.620889,-0.36689 0.987777,-1.04422 0.987777,-1.72155 0,-0.33867 -0.08467,-0.64911 -0.253999,-0.95956 z m -6.688662,9.82133 c -0.366888,0 -0.64911,0.254 -0.64911,0.62089 0,0.33866 0.282222,0.64911 0.64911,0.64911 h 6.660439 c 1.862666,0 3.358442,1.46755 3.358442,3.33022 v 0.31044 c -1.100666,-1.38289 -2.793998,-2.31422 -4.713107,-2.31422 h -5.954884 v 3.27377 c 0,3.33022 2.709331,6.03956 6.011328,6.03956 h 5.926662 v -7.30955 c 0,-2.56822 -2.088443,-4.60022 -4.628441,-4.60022 z m 0.649111,3.89466 h 4.656663 c 2.596442,0 4.713107,2.08844 4.713107,4.68489 v 2.03199 H 85.51478 c -2.624664,0 -4.713107,-2.11666 -4.713107,-4.74133 z m 0.338666,-7.61999 c 0,0.19755 0.08467,0.33866 0.197556,0.45155 0.959554,0.95956 2.06022,1.55222 4.23333,1.55222 2.173109,0 3.273775,-0.59266 4.23333,-1.55222 0.112888,-0.11289 0.169333,-0.254 0.169333,-0.45155 0,-0.33867 -0.282222,-0.64911 -0.649111,-0.64911 -0.169333,0 -0.310444,0.0847 -0.451555,0.19755 -0.846666,0.84667 -1.326443,1.15711 -3.301997,1.15711 -2.003777,0 -2.483554,-0.31044 -3.33022,-1.15711 -0.112889,-0.11289 -0.282222,-0.19755 -0.451555,-0.19755 -0.338667,0 -0.649111,0.31044 -0.649111,0.64911 z m 21.978031,-4.14867 -1.72156,0.95956 c -0.62088,0.36689 -0.95955,1.04422 -0.95955,1.72155 0,0.33867 0.0564,0.64911 0.22578,0.95956 l 1.10066,-0.64911 c -0.0564,-0.11289 -0.0564,-0.22578 -0.0564,-0.31045 0,-0.254 0.11289,-0.45155 0.33867,-0.59266 l 0.59266,-0.33867 0.33867,0.59267 c 0.0564,0.11288 0.0847,0.22577 0.0847,0.33866 0,0.254 -0.11288,0.45156 -0.33866,0.59267 l -1.69333,0.98778 c 0,0 0.42333,0.73377 0.64911,1.12888 0.22577,0.39511 0.64911,0.67734 1.18533,0.762 0.0847,-0.22578 0.11289,-0.42333 0.11289,-0.62089 0,-0.28222 -0.0564,-0.56444 -0.19756,-0.79022 l 0.59267,-0.36689 c 0.62089,-0.36688 0.98778,-1.04422 0.98778,-1.72155 0,-0.33867 -0.0847,-0.64911 -0.254,-0.95956 z m -6.039552,9.144 h 4.656662 c 2.59644,0 4.68489,2.08844 4.68489,4.68488 v 0.47978 h -6.434665 c -1.636888,0 -2.906887,-1.29822 -2.906887,-2.90689 z m -1.298221,-1.27 v 5.89844 c 0,3.30199 2.709331,6.01133 6.011333,6.01133 h 5.27755 c 0.36689,0 0.64911,-0.28223 0.64911,-0.64912 0,-0.33866 -0.28222,-0.64911 -0.64911,-0.64911 h -5.27755 c -2.370669,0 -4.318001,-1.72155 -4.656667,-4.00755 0.705555,0.64911 1.580443,1.12889 2.850442,1.12889 h 7.732885 v -1.778 c 0,-3.302 -2.68111,-5.95488 -5.98311,-5.95488 z m 26.013813,-10.32933 -1.72156,0.95956 c -0.62089,0.36688 -0.95955,1.04422 -0.95955,1.72155 0,0.33867 0.0564,0.64911 0.22577,0.95956 l 1.10067,-0.64912 c -0.0564,-0.11288 -0.0564,-0.22577 -0.0564,-0.31044 0,-0.254 0.11288,-0.45155 0.33866,-0.59267 l 0.59267,-0.33866 0.33866,0.59266 c 0.0564,0.11289 0.0847,0.22578 0.0847,0.33867 0,0.254 -0.11289,0.45156 -0.33867,0.59267 l -1.69333,0.98777 c 0,0 0.42334,0.73378 0.64911,1.12889 0.22578,0.39511 0.64911,0.67733 1.18534,0.762 0.0847,-0.22578 0.11288,-0.42333 0.11288,-0.62089 0,-0.28222 -0.0564,-0.56444 -0.19755,-0.79022 l 0.59267,-0.36689 c 0.62088,-0.36689 0.98777,-1.04422 0.98777,-1.72155 0,-0.33867 -0.0847,-0.64911 -0.254,-0.95956 z m -8.43844,11.59933 h 4.65666 c 2.59644,0 4.68489,2.08844 4.68489,4.68488 v 0.47978 h -6.43467 c -1.63688,0 -2.90688,-1.29822 -2.90688,-2.90689 z m -1.29822,-1.27 v 5.89844 c 0,3.30199 2.70933,6.01133 6.01132,6.01133 h 5.27756 c 0.36688,0 0.64911,-0.28223 0.64911,-0.64912 0,-0.33866 -0.28223,-0.64911 -0.64911,-0.64911 h -5.27756 c -2.37066,0 -4.31799,-1.72155 -4.65666,-4.00755 0.70556,0.64911 1.58044,1.12889 2.85044,1.12889 h 7.73289 v -1.778 c 0,-3.302 -2.68111,-5.95488 -5.98311,-5.95488 z m 5.9831,-6.43466 -0.59266,1.12888 c -0.42334,0.84667 -0.81845,1.43934 -1.24178,1.778 -0.45156,0.33867 -0.98778,0.53622 -1.94733,0.53622 -0.33867,0 -0.64911,0.28223 -0.64911,0.62089 0,0.36689 0.31044,0.64911 0.64911,0.64911 1.12889,0 2.032,-0.254 2.73755,-0.79022 0.39511,-0.33867 0.73378,-0.762 1.04422,-1.21355 0.31045,0.45155 0.62089,0.87488 1.04422,1.21355 0.70556,0.53622 1.58045,0.79022 2.70934,0.79022 0.36688,0 0.64911,-0.28222 0.64911,-0.64911 0,-0.33866 -0.28223,-0.62089 -0.64911,-0.62089 -0.93134,0 -1.46756,-0.19755 -1.91911,-0.53622 -0.45156,-0.33866 -0.81845,-0.93133 -1.27,-1.778 z m 13.96293,-0.53623 -1.97556,-0.0282 c -0.70555,0 -1.35466,0.42333 -1.69333,1.016 -0.16933,0.28222 -0.28222,0.59267 -0.28222,0.93133 h 1.27 c 0.0282,-0.14111 0.0847,-0.22577 0.11289,-0.31044 0.14111,-0.19756 0.33866,-0.31045 0.59266,-0.33867 h 0.67734 v 0.70556 c 0,0.11289 -0.0282,0.22577 -0.0847,0.31044 -0.14111,0.22578 -0.33867,0.33867 -0.59267,0.36689 h -1.97555 c 0,0 0,0.84667 0,1.29822 0,0.45156 0.22578,0.90311 0.64911,1.24178 0.19756,-0.14111 0.31044,-0.31045 0.42333,-0.47978 0.14111,-0.22578 0.22578,-0.508 0.22578,-0.762 l 0.67733,-0.0282 c 0.73378,0 1.38289,-0.42333 1.72156,-0.98778 0.16933,-0.31044 0.254,-0.62089 0.254,-0.95955 z m -0.62089,18.23154 c 0,-0.16933 -0.0565,-0.31044 -0.16933,-0.42333 -1.15711,-1.29822 -1.89089,-3.01977 -1.89089,-4.91066 v -5.334 c 0,-0.33866 -0.28222,-0.62089 -0.62089,-0.62089 -0.36689,0 -0.64911,0.28223 -0.64911,0.62089 v 5.334 c 0,2.22955 0.81844,4.23333 2.20133,5.75733 0.11289,0.14111 0.28222,0.22578 0.47978,0.22578 0.36689,0 0.64911,-0.28223 0.64911,-0.64912 z m 9.41914,-19.13465 -1.72156,0.95956 c -0.62089,0.36689 -0.95955,1.04422 -0.95955,1.72155 0,0.33867 0.0564,0.64911 0.22578,0.95956 l 1.10066,-0.64911 c -0.0564,-0.11289 -0.0564,-0.22578 -0.0564,-0.31045 0,-0.254 0.11289,-0.45155 0.33866,-0.59266 l 0.59267,-0.33867 0.33867,0.59267 c 0.0564,0.11288 0.0847,0.22577 0.0847,0.33866 0,0.254 -0.11289,0.45156 -0.33866,0.59267 l -1.69334,0.98778 c 0,0 0.42334,0.73377 0.64912,1.12888 0.22577,0.39511 0.64911,0.67734 1.18533,0.762 0.0847,-0.22578 0.11289,-0.42333 0.11289,-0.62089 0,-0.28222 -0.0565,-0.56444 -0.19756,-0.79022 l 0.59267,-0.36689 c 0.62089,-0.36688 0.98777,-1.04422 0.98777,-1.72155 0,-0.33867 -0.0847,-0.64911 -0.254,-0.95956 z m 3.302,9.144 v 4.65666 c 0,2.59644 -2.08845,4.68488 -4.68489,4.68488 h -4.65666 v -4.62844 c 0,-2.62466 2.08844,-4.7131 4.7131,-4.7131 z m 1.29822,-1.29823 h -5.92667 c -2.90688,0 -5.33399,2.08845 -5.89844,4.826 -0.0847,0.39511 -0.11288,0.79022 -0.11288,1.18533 v 5.92667 h 5.95488 c 3.302,0 5.98311,-2.68111 5.98311,-5.98311 z m 14.13225,-10.35754 -1.72155,0.95955 c -0.62089,0.36689 -0.95955,1.04422 -0.95955,1.72156 0,0.33866 0.0564,0.64911 0.22577,0.95955 l 1.10067,-0.64911 c -0.0565,-0.11289 -0.0565,-0.22578 -0.0565,-0.31044 0,-0.254 0.11289,-0.45156 0.33867,-0.59267 l 0.59267,-0.33867 0.33866,0.59267 c 0.0564,0.11289 0.0847,0.22578 0.0847,0.33867 0,0.254 -0.11289,0.45155 -0.33867,0.59266 l -1.69333,0.98778 c 0,0 0.42333,0.73378 0.64911,1.12889 0.22578,0.39511 0.64911,0.67733 1.18533,0.762 0.0847,-0.22578 0.11289,-0.42334 0.11289,-0.62089 0,-0.28222 -0.0564,-0.56445 -0.19755,-0.79022 l 0.59266,-0.36689 c 0.62089,-0.36689 0.98778,-1.04422 0.98778,-1.72156 0,-0.33866 -0.0847,-0.64911 -0.254,-0.95955 z m 0.84667,11.65577 v 4.65666 c 0,2.59644 -2.08844,4.68488 -4.68488,4.68488 h -4.65667 v -4.62844 c 0,-2.62466 2.08844,-4.7131 4.71311,-4.7131 z m 1.29822,-1.29823 h -5.92666 c -2.90689,0 -5.334,2.08845 -5.89844,4.826 -0.0847,0.39511 -0.11289,0.79022 -0.11289,1.18533 v 5.92667 h 5.95489 c 3.30199,0 5.9831,-2.68111 5.9831,-5.98311 z m -5.95488,-6.40643 -0.59267,1.12888 c -0.42333,0.84667 -0.81844,1.43934 -1.24178,1.778 -0.45155,0.33867 -0.98777,0.53622 -1.94733,0.53622 -0.33866,0 -0.64911,0.28223 -0.64911,0.62089 0,0.36689 0.31045,0.64911 0.64911,0.64911 1.12889,0 2.032,-0.254 2.73756,-0.79022 0.39511,-0.33867 0.73377,-0.762 1.04422,-1.21355 0.31044,0.45155 0.62089,0.87488 1.04422,1.21355 0.70555,0.53622 1.58044,0.79022 2.70933,0.79022 0.36689,0 0.64911,-0.28222 0.64911,-0.64911 0,-0.33866 -0.28222,-0.62089 -0.64911,-0.62089 -0.93133,0 -1.46755,-0.19755 -1.91911,-0.53622 -0.45155,-0.33866 -0.81844,-0.93133 -1.27,-1.778 z m 17.63182,-1.89089 -1.72156,0.95955 c -0.62089,0.36689 -0.95955,1.04422 -0.95955,1.72156 0,0.33866 0.0564,0.64911 0.22577,0.95955 l 1.10067,-0.64911 c -0.0564,-0.11289 -0.0564,-0.22578 -0.0564,-0.31044 0,-0.254 0.11288,-0.45156 0.33866,-0.59267 l 0.59267,-0.33867 0.33867,0.59267 c 0.0564,0.11289 0.0847,0.22578 0.0847,0.33867 0,0.254 -0.11289,0.45155 -0.33866,0.59266 l -1.69334,0.98778 c 0,0 0.42334,0.73378 0.64911,1.12889 0.22578,0.39511 0.64911,0.67733 1.18534,0.762 0.0847,-0.22578 0.11289,-0.42334 0.11289,-0.62089 0,-0.28222 -0.0564,-0.56445 -0.19756,-0.79022 l 0.59267,-0.36689 c 0.62088,-0.36689 0.98777,-1.04422 0.98777,-1.72156 0,-0.33866 -0.0847,-0.64911 -0.254,-0.95955 z m 3.30199,9.59555 v 4.65666 c 0,2.59644 -2.08844,4.68488 -4.68488,4.68488 h -4.65666 v -4.62844 c 0,-2.62466 2.08844,-4.7131 4.7131,-4.7131 z m 0.64911,-4.064 c -1.07244,0 -1.97555,0.90311 -1.97555,1.97555 h 1.18533 c 0,-0.39511 0.39511,-0.79022 0.79022,-0.79022 h 0.79023 v 0.79022 c 0,0.39511 -0.39512,0.79022 -0.79023,0.79022 h -5.27755 c -2.90688,0 -5.33399,2.08845 -5.89844,4.826 -0.0847,0.39511 -0.11289,0.79022 -0.11289,1.18533 v 5.92667 h 5.95489 c 3.302,0 5.9831,-2.68111 5.9831,-5.98311 v -4.88244 c 0.762,-0.254 1.32645,-1.016 1.32645,-1.86267 v -1.97555 z m 12.29782,-5.08 -1.72156,0.95956 c -0.62088,0.36689 -0.95955,1.04422 -0.95955,1.72155 0,0.33867 0.0564,0.64911 0.22578,0.95956 l 1.10066,-0.64911 c -0.0564,-0.11289 -0.0564,-0.22578 -0.0564,-0.31045 0,-0.254 0.11289,-0.45155 0.33867,-0.59266 l 0.59266,-0.33867 0.33867,0.59267 c 0.0564,0.11288 0.0847,0.22577 0.0847,0.33866 0,0.254 -0.11288,0.45156 -0.33866,0.59267 l -1.69333,0.98778 c 0,0 0.42333,0.73377 0.64911,1.12888 0.22577,0.39511 0.64911,0.67734 1.18533,0.762 0.0847,-0.22578 0.11289,-0.42333 0.11289,-0.62089 0,-0.28222 -0.0564,-0.56444 -0.19756,-0.79022 l 0.59267,-0.36689 c 0.62089,-0.36688 0.98778,-1.04422 0.98778,-1.72155 0,-0.33867 -0.0847,-0.64911 -0.254,-0.95956 z m -6.66044,7.84577 c -0.36689,0 -0.64911,0.28223 -0.64911,0.62089 v 5.30578 c 0,3.30199 2.70933,6.01133 6.01133,6.01133 h 5.92666 v -11.31711 c 0,-0.33866 -0.28222,-0.62089 -0.62089,-0.62089 -0.36689,0 -0.64911,0.28223 -0.64911,0.62089 v 10.01888 h -4.65666 c -2.62467,0 -4.71311,-2.08844 -4.71311,-4.7131 v -5.30578 c 0,-0.33866 -0.31044,-0.62089 -0.64911,-0.62089 z m 22.96581,-8.35377 -1.72156,0.95956 c -0.62089,0.36689 -0.95955,1.04422 -0.95955,1.72155 0,0.33867 0.0564,0.64911 0.22578,0.95956 l 1.10066,-0.64911 c -0.0564,-0.11289 -0.0564,-0.22578 -0.0564,-0.31045 0,-0.254 0.11289,-0.45155 0.33866,-0.59266 l 0.59267,-0.33867 0.33867,0.59267 c 0.0564,0.11288 0.0847,0.22577 0.0847,0.33866 0,0.254 -0.11289,0.45156 -0.33866,0.59267 l -1.69334,0.98778 c 0,0 0.42334,0.73377 0.64911,1.12888 0.22578,0.39511 0.64912,0.67734 1.18534,0.762 0.0847,-0.22577 0.11289,-0.42333 0.11289,-0.62089 0,-0.28222 -0.0564,-0.56444 -0.19756,-0.79022 l 0.59267,-0.36689 c 0.62089,-0.36688 0.98777,-1.04422 0.98777,-1.72155 0,-0.33867 -0.0847,-0.64911 -0.254,-0.95955 z m -6.68866,8.35377 c -0.36689,0 -0.64912,0.28223 -0.64912,0.62089 v 5.30578 c 0,3.30199 2.70934,6.01133 6.01133,6.01133 h 5.92667 v -10.86555 c 0.76199,-0.254 1.35466,-1.016 1.35466,-1.86267 v -1.97555 h -1.97555 c -1.07245,0 -1.97556,0.90311 -1.97556,1.97555 h 1.18534 c 0,-0.39511 0.39511,-0.79022 0.79022,-0.79022 h 0.79022 v 0.79022 c 0,0.39511 -0.39511,0.79022 -0.79022,0.79022 -0.36689,0 -0.64911,0.28223 -0.64911,0.62089 v 10.01888 h -4.65667 c -2.62466,0 -4.7131,-2.08844 -4.7131,-4.7131 v -5.30578 c 0,-0.33866 -0.31045,-0.62089 -0.64911,-0.62089 z m 22.93758,-7.84577 -1.72155,0.95956 c -0.62089,0.36689 -0.95956,1.04422 -0.95956,1.72155 0,0.33867 0.0564,0.64911 0.22578,0.95956 l 1.10066,-0.64911 c -0.0564,-0.11289 -0.0564,-0.22578 -0.0564,-0.31045 0,-0.254 0.11289,-0.45155 0.33867,-0.59266 l 0.59266,-0.33867 0.33867,0.59267 c 0.0564,0.11288 0.0847,0.22577 0.0847,0.33866 0,0.254 -0.11289,0.45156 -0.33867,0.59267 l -1.69333,0.98778 c 0,0 0.42333,0.73377 0.64911,1.12888 0.22578,0.39511 0.64911,0.67734 1.18533,0.762 0.0847,-0.22578 0.11289,-0.42333 0.11289,-0.62089 0,-0.28222 -0.0564,-0.56444 -0.19756,-0.79022 l 0.59267,-0.36689 c 0.62089,-0.36688 0.98778,-1.04422 0.98778,-1.72155 0,-0.33867 -0.0847,-0.64911 -0.254,-0.95956 z m 4.62844,19.13465 v -10.66799 c 0,-0.33866 -0.28222,-0.62089 -0.62089,-0.62089 -0.36689,0 -0.64911,0.28223 -0.64911,0.62089 v 10.01888 h -4.65666 c -2.62467,0 -4.71311,-2.08844 -4.71311,-4.7131 v -5.30578 c 0,-0.33866 -0.31044,-0.62089 -0.64911,-0.62089 -0.36689,0 -0.64911,0.28223 -0.64911,0.62089 v 5.30578 c 0,3.30199 2.70933,6.01133 6.01133,6.01133 h 4.572 c -0.28223,1.55222 -1.63689,2.70933 -3.27378,2.70933 h -6.66044 c -0.36689,0 -0.64911,0.28222 -0.64911,0.64911 0,0.33866 0.28222,0.64911 0.64911,0.64911 h 6.66044 c 2.54,0 4.62844,-2.08845 4.62844,-4.65667 z"
         id="path68" />
      <path
         style="font-weight:bold;font-family:'Leaf Tech';-inkscape-font-specification:'Leaf Tech Bold';text-align:center;text-anchor:middle"
         d="m 50.279377,221.977 c 0.310444,0 0.564444,-0.19755 0.620888,-0.47978 0.08467,-0.31044 0.338666,-0.508 0.620888,-0.508 0.08467,0 0.141111,0 0.197556,0.0282 l 2.483553,0.93133 c 0.169334,0.0564 0.366889,0.0564 0.536222,0.0564 0.846666,0 1.66511,-0.53622 1.890888,-1.43933 0.02822,-0.0564 0.02822,-0.11289 0.02822,-0.16933 0,-0.33867 -0.254,-0.64911 -0.649111,-0.64911 -0.282222,0 -0.536222,0.19755 -0.620888,0.47977 -0.05644,0.31045 -0.338667,0.508 -0.649111,0.508 -0.05644,0 -0.112889,-0.0282 -0.169333,-0.0282 l -2.455331,-0.93133 c -0.197556,-0.0564 -0.366889,-0.0847 -0.564444,-0.0847 -0.874889,0 -1.66511,0.59267 -1.890888,1.46756 0,0.0564 -0.02822,0.11289 -0.02822,0.16933 0,0.33867 0.282222,0.64911 0.649111,0.64911 z m -2.681109,1.60867 c -0.366889,0 -0.649111,0.254 -0.649111,0.62088 0,0.33867 0.282222,0.64911 0.649111,0.64911 h 6.660439 c 1.862665,0 3.358442,1.46756 3.358442,3.33022 v 0.31045 c -1.100666,-1.38289 -2.793998,-2.31422 -4.713108,-2.31422 h -5.954884 v 3.27377 c 0,3.33022 2.709331,6.03955 6.011329,6.03955 h 5.926662 v -7.30955 c 0,-2.56822 -2.088443,-4.60021 -4.628441,-4.60021 z m 0.64911,3.89466 h 4.656663 c 2.596443,0 4.713108,2.08844 4.713108,4.68488 v 2.032 h -4.656663 c -2.624665,0 -4.713108,-2.11666 -4.713108,-4.74133 z m 18.309146,-10.61155 c 0.310444,0 0.564444,-0.19755 0.620888,-0.47978 0.08467,-0.31044 0.338667,-0.50799 0.620889,-0.50799 0.05644,0 0.112889,0 0.197555,0.0282 l 2.483554,0.93133 c 0.169333,0.0282 0.338666,0.0564 0.507999,0.0564 0.874889,0 1.66511,-0.56444 1.91911,-1.43933 0.02822,-0.0564 0.02822,-0.11289 0.02822,-0.16933 0,-0.33867 -0.254,-0.64911 -0.64911,-0.64911 -0.282222,0 -0.536222,0.19755 -0.620889,0.47978 -0.08467,0.31044 -0.366888,0.47977 -0.64911,0.47977 -0.05644,0 -0.112889,0 -0.169334,0 l -2.455331,-0.93133 c -0.197555,-0.0564 -0.395111,-0.0847 -0.564444,-0.0847 -0.903111,0 -1.66511,0.59267 -1.890888,1.46756 0,0.0564 -0.02822,0.11289 -0.02822,0.16933 0,0.33867 0.282222,0.64911 0.649111,0.64911 z m -2.681109,6.71689 c -0.366889,0 -0.649111,0.254 -0.649111,0.62088 0,0.33867 0.282222,0.64911 0.649111,0.64911 h 6.660439 c 1.862665,0 3.358442,1.46756 3.358442,3.33022 v 0.31045 c -1.100666,-1.38289 -2.793998,-2.31422 -4.713107,-2.31422 h -5.954885 v 3.27377 c 0,3.33022 2.709331,6.03955 6.011329,6.03955 h 5.926662 v -7.30955 c 0,-2.56822 -2.088443,-4.60021 -4.628441,-4.60021 z m 0.64911,3.89466 h 4.656664 c 2.596442,0 4.713107,2.08844 4.713107,4.68488 v 2.032 h -4.656663 c -2.624665,0 -4.713108,-2.11666 -4.713108,-4.74133 z m 4.684886,-10.32933 -0.592666,1.12889 c -0.423333,0.84667 -0.818444,1.43933 -1.241777,1.778 -0.451556,0.33867 -0.987777,0.53622 -1.947332,0.53622 -0.338667,0 -0.649111,0.28222 -0.649111,0.62089 0,0.36689 0.310444,0.64911 0.649111,0.64911 1.128888,0 2.031998,-0.254 2.737553,-0.79022 0.395111,-0.33867 0.733778,-0.762 1.044222,-1.21355 0.310444,0.45155 0.620888,0.87488 1.044221,1.21355 0.705555,0.53622 1.580443,0.79022 2.709331,0.79022 0.366889,0 0.649111,-0.28222 0.649111,-0.64911 0,-0.33867 -0.282222,-0.62089 -0.649111,-0.62089 -0.931332,0 -1.467554,-0.19755 -1.919109,-0.53622 -0.451555,-0.33867 -0.818444,-0.93133 -1.269999,-1.778 z m 13.821816,2.032 c 0.310444,0 0.564444,-0.19755 0.620888,-0.47977 0.08467,-0.31045 0.338666,-0.508 0.620888,-0.508 0.05644,0 0.141111,0 0.197556,0.0282 l 2.483553,0.93133 c 0.169334,0.0564 0.338667,0.0847 0.536222,0.0847 0.846666,0 1.66511,-0.56445 1.890888,-1.46756 0.02822,-0.0564 0.02822,-0.11289 0.02822,-0.16933 0,-0.33867 -0.254,-0.64911 -0.649111,-0.64911 -0.282222,0 -0.536222,0.19755 -0.620888,0.47978 -0.08467,0.31044 -0.338667,0.508 -0.649111,0.508 -0.05644,0 -0.112889,-0.0282 -0.169333,-0.0282 l -2.455331,-0.93133 c -0.197556,-0.0564 -0.366889,-0.0847 -0.564444,-0.0847 -0.874889,0 -1.66511,0.59267 -1.890888,1.46756 0,0.0564 -0.02822,0.11289 -0.02822,0.16933 0,0.33867 0.282222,0.64911 0.649111,0.64911 z m -2.878665,4.40267 c -0.366888,0 -0.64911,0.254 -0.64911,0.62088 0,0.33867 0.282222,0.64911 0.64911,0.64911 h 6.660439 c 1.862666,0 3.358442,1.46756 3.358442,3.33022 v 0.31045 c -1.100666,-1.38289 -2.793998,-2.31422 -4.713107,-2.31422 h -5.954884 v 3.27377 c 0,3.33022 2.709331,6.03955 6.011328,6.03955 h 5.926662 v -7.30955 c 0,-2.56822 -2.088443,-4.60021 -4.628441,-4.60021 z m 0.649111,3.89466 h 4.656663 c 2.596442,0 4.713107,2.08844 4.713107,4.68488 v 2.032 H 85.51478 c -2.624664,0 -4.713107,-2.11666 -4.713107,-4.74133 z m 0.338666,-7.61999 c 0,0.19755 0.08467,0.33866 0.197556,0.45155 0.959554,0.95956 2.06022,1.55222 4.23333,1.55222 2.173109,0 3.273775,-0.59266 4.23333,-1.55222 0.112888,-0.11289 0.169333,-0.254 0.169333,-0.45155 0,-0.33867 -0.282222,-0.64912 -0.649111,-0.64912 -0.169333,0 -0.310444,0.0847 -0.451555,0.19756 -0.846666,0.84667 -1.326443,1.15711 -3.301997,1.15711 -2.003777,0 -2.483554,-0.31044 -3.33022,-1.15711 -0.112889,-0.11289 -0.282222,-0.19756 -0.451555,-0.19756 -0.338667,0 -0.649111,0.31045 -0.649111,0.64912 z m 17.631811,1.97555 c 0.310444,0 0.564444,-0.19756 0.620889,-0.47978 0.08467,-0.31044 0.338666,-0.508 0.620891,-0.508 0.0564,0 0.11289,0 0.19755,0.0282 l 2.48356,0.93134 c 0.16933,0.0564 0.33866,0.0564 0.508,0.0564 0.87488,0 1.66511,-0.53622 1.91911,-1.43933 0.0282,-0.0564 0.0282,-0.11289 0.0282,-0.16933 0,-0.33867 -0.254,-0.64911 -0.64911,-0.64911 -0.28223,0 -0.53622,0.19755 -0.62089,0.47977 -0.0847,0.31045 -0.36689,0.508 -0.64911,0.508 -0.0565,0 -0.11289,-0.0282 -0.16934,-0.0282 l -2.45533,-0.93133 c -0.19755,-0.0564 -0.39511,-0.0847 -0.56444,-0.0847 -0.903111,0 -1.665111,0.59267 -1.890888,1.46756 0,0.0564 -0.02822,0.11288 -0.02822,0.16933 0,0.33867 0.282222,0.64911 0.64911,0.64911 z m -1.693332,3.01977 h 4.656662 c 2.59644,0 4.68489,2.08845 4.68489,4.68489 v 0.47978 h -6.434665 c -1.636888,0 -2.906887,-1.29822 -2.906887,-2.90689 z m -1.298221,-1.26999 v 5.89844 c 0,3.30199 2.709331,6.01132 6.011333,6.01132 h 5.27755 c 0.36689,0 0.64911,-0.28222 0.64911,-0.64911 0,-0.33866 -0.28222,-0.64911 -0.64911,-0.64911 h -5.27755 c -2.370669,0 -4.318001,-1.72155 -4.656667,-4.00755 0.705555,0.64911 1.580443,1.12889 2.850442,1.12889 h 7.732885 v -1.778 c 0,-3.302 -2.68111,-5.95488 -5.98311,-5.95488 z m 19.607373,-6.71689 c 0.31044,0 0.56444,-0.19755 0.62088,-0.47978 0.0847,-0.31044 0.33867,-0.50799 0.62089,-0.50799 0.0564,0 0.14111,0 0.19756,0.0282 l 2.48355,0.93133 c 0.16933,0.0564 0.33867,0.0564 0.53622,0.0564 0.84667,0 1.66511,-0.53622 1.89089,-1.43933 0.0282,-0.0564 0.0282,-0.11289 0.0282,-0.16933 0,-0.33867 -0.254,-0.64911 -0.64911,-0.64911 -0.28222,0 -0.53622,0.19755 -0.62089,0.47978 -0.0847,0.31044 -0.33866,0.508 -0.64911,0.508 -0.0564,0 -0.11289,-0.0282 -0.16933,-0.0282 l -2.45533,-0.93133 c -0.19756,-0.0564 -0.36689,-0.0847 -0.56445,-0.0847 -0.87488,0 -1.66511,0.59267 -1.89088,1.46756 0,0.0564 -0.0282,0.11289 -0.0282,0.16933 0,0.33867 0.28222,0.64911 0.64911,0.64911 z m -2.032,7.98688 h 4.65666 c 2.59644,0 4.68489,2.08845 4.68489,4.68489 v 0.47978 h -6.43467 c -1.63688,0 -2.90688,-1.29822 -2.90688,-2.90689 z m -1.29822,-1.26999 v 5.89844 c 0,3.30199 2.70933,6.01132 6.01132,6.01132 h 5.27756 c 0.36688,0 0.64911,-0.28222 0.64911,-0.64911 0,-0.33866 -0.28223,-0.64911 -0.64911,-0.64911 h -5.27756 c -2.37066,0 -4.31799,-1.72155 -4.65666,-4.00755 0.70556,0.64911 1.58044,1.12889 2.85044,1.12889 h 7.73289 v -1.778 c 0,-3.302 -2.68111,-5.95488 -5.98311,-5.95488 z m 5.9831,-6.43467 -0.59266,1.12889 c -0.42334,0.84667 -0.81845,1.43933 -1.24178,1.778 -0.45156,0.33867 -0.98778,0.53622 -1.94733,0.53622 -0.33867,0 -0.64911,0.28222 -0.64911,0.62089 0,0.36689 0.31044,0.64911 0.64911,0.64911 1.12889,0 2.032,-0.254 2.73755,-0.79022 0.39511,-0.33867 0.73378,-0.762 1.04422,-1.21355 0.31045,0.45155 0.62089,0.87488 1.04422,1.21355 0.70556,0.53622 1.58045,0.79022 2.70934,0.79022 0.36688,0 0.64911,-0.28222 0.64911,-0.64911 0,-0.33867 -0.28223,-0.62089 -0.64911,-0.62089 -0.93134,0 -1.46756,-0.19755 -1.91911,-0.53622 -0.45156,-0.33867 -0.81845,-0.93133 -1.27,-1.778 z m 8.09271,4.65667 c 0.31044,0 0.56444,-0.19756 0.62089,-0.47978 0.0847,-0.31044 0.33866,-0.508 0.62089,-0.508 0.0564,0 0.14111,0 0.19755,0.0282 l 2.48356,0.93134 c 0.16933,0.0564 0.33866,0.0564 0.53622,0.0564 0.84666,0 1.66511,-0.53622 1.89088,-1.43933 0.0282,-0.0564 0.0282,-0.11289 0.0282,-0.16934 0,-0.33866 -0.254,-0.64911 -0.64911,-0.64911 -0.28223,0 -0.53623,0.19756 -0.62089,0.47978 -0.0847,0.31045 -0.33867,0.508 -0.64911,0.508 -0.0565,0 -0.11289,-0.0282 -0.16934,-0.0282 l -2.45533,-0.93133 c -0.19755,-0.0564 -0.36689,-0.0847 -0.56444,-0.0847 -0.87489,0 -1.66511,0.59267 -1.89089,1.46755 0,0.0565 -0.0282,0.11289 -0.0282,0.16934 0,0.33866 0.28222,0.64911 0.64911,0.64911 z m 5.24933,13.03865 c 0,-0.16933 -0.0565,-0.31044 -0.16933,-0.42333 -1.15711,-1.29822 -1.89089,-3.01977 -1.89089,-4.91066 v -5.334 c 0,-0.33866 -0.28222,-0.62089 -0.62089,-0.62089 -0.36689,0 -0.64911,0.28223 -0.64911,0.62089 v 5.334 c 0,2.22955 0.81844,4.23333 2.20133,5.75733 0.11289,0.14111 0.28222,0.22577 0.47978,0.22577 0.36689,0 0.64911,-0.28222 0.64911,-0.64911 z m 5.18581,-13.01043 c 0.31044,0 0.56444,-0.19756 0.62089,-0.47978 0.0847,-0.31044 0.33866,-0.508 0.62088,-0.508 0.0564,0 0.14112,0 0.19756,0.0282 l 2.48355,0.93134 c 0.16934,0.0564 0.33867,0.0564 0.53623,0.0564 0.84666,0 1.66511,-0.53622 1.89088,-1.43933 0.0282,-0.0564 0.0282,-0.11289 0.0282,-0.16933 0,-0.33867 -0.25399,-0.64911 -0.64911,-0.64911 -0.28222,0 -0.53622,0.19755 -0.62088,0.47977 -0.0847,0.31045 -0.33867,0.508 -0.64911,0.508 -0.0564,0 -0.11289,-0.0282 -0.16934,-0.0282 l -2.45533,-0.93133 c -0.19755,-0.0564 -0.36689,-0.0847 -0.56444,-0.0847 -0.87489,0 -1.66511,0.59267 -1.89089,1.46756 0,0.0564 -0.0282,0.11288 -0.0282,0.16933 0,0.33867 0.28222,0.64911 0.64911,0.64911 z m 7.53533,3.01977 v 4.65667 c 0,2.59644 -2.08845,4.68488 -4.68489,4.68488 h -4.65666 v -4.62844 c 0,-2.62466 2.08844,-4.71311 4.7131,-4.71311 z m 1.29822,-1.29822 h -5.92667 c -2.90688,0 -5.33399,2.08845 -5.89844,4.826 -0.0847,0.39511 -0.11288,0.79022 -0.11288,1.18533 v 5.92666 h 5.95488 c 3.302,0 5.98311,-2.6811 5.98311,-5.9831 z m 7.89515,-6.66044 c 0.31044,0 0.56444,-0.19755 0.62089,-0.47977 0.0847,-0.31045 0.33866,-0.508 0.62088,-0.508 0.0564,0 0.11289,0 0.19756,0.0282 l 2.48355,0.93133 c 0.16934,0.0565 0.33867,0.0565 0.508,0.0565 0.87489,0 1.66511,-0.53623 1.91911,-1.43934 0.0282,-0.0564 0.0282,-0.11288 0.0282,-0.16933 0,-0.33867 -0.254,-0.64911 -0.64912,-0.64911 -0.28222,0 -0.53622,0.19756 -0.62088,0.47978 -0.0847,0.31044 -0.36689,0.508 -0.64911,0.508 -0.0564,0 -0.11289,-0.0282 -0.16934,-0.0282 l -2.45533,-0.93134 c -0.19755,-0.0564 -0.39511,-0.0847 -0.56444,-0.0847 -0.90311,0 -1.66511,0.59266 -1.89089,1.46755 0,0.0564 -0.0282,0.11289 -0.0282,0.16933 0,0.33867 0.28222,0.64911 0.64911,0.64911 z m 7.08377,7.95866 v 4.65667 c 0,2.59644 -2.08844,4.68488 -4.68488,4.68488 h -4.65667 v -4.62844 c 0,-2.62466 2.08844,-4.71311 4.71311,-4.71311 z m 1.29822,-1.29822 h -5.92666 c -2.90689,0 -5.334,2.08845 -5.89844,4.826 -0.0847,0.39511 -0.11289,0.79022 -0.11289,1.18533 v 5.92666 h 5.95489 c 3.30199,0 5.9831,-2.6811 5.9831,-5.9831 z m -5.95488,-6.40644 -0.59267,1.12889 c -0.42333,0.84667 -0.81844,1.43933 -1.24178,1.778 -0.45155,0.33867 -0.98777,0.53622 -1.94733,0.53622 -0.33866,0 -0.64911,0.28222 -0.64911,0.62089 0,0.36689 0.31045,0.64911 0.64911,0.64911 1.12889,0 2.032,-0.254 2.73756,-0.79022 0.39511,-0.33867 0.73377,-0.762 1.04422,-1.21355 0.31044,0.45155 0.62089,0.87488 1.04422,1.21355 0.70555,0.53622 1.58044,0.79022 2.70933,0.79022 0.36689,0 0.64911,-0.28222 0.64911,-0.64911 0,-0.33867 -0.28222,-0.62089 -0.64911,-0.62089 -0.93133,0 -1.46755,-0.19755 -1.91911,-0.53622 -0.45155,-0.33867 -0.81844,-0.93133 -1.27,-1.778 z m 13.42671,4.14867 c 0.31044,0 0.56444,-0.19756 0.62089,-0.47978 0.0847,-0.31044 0.33866,-0.508 0.62088,-0.508 0.0565,0 0.14112,0 0.19756,0.0282 l 2.48355,0.93134 c 0.16934,0.0564 0.33867,0.0564 0.53623,0.0564 0.84666,0 1.66511,-0.53622 1.89088,-1.43933 0.0282,-0.0565 0.0282,-0.11289 0.0282,-0.16934 0,-0.33866 -0.254,-0.64911 -0.64912,-0.64911 -0.28222,0 -0.53622,0.19756 -0.62088,0.47978 -0.0847,0.31045 -0.33867,0.508 -0.64911,0.508 -0.0565,0 -0.11289,-0.0282 -0.16934,-0.0282 l -2.45533,-0.93133 c -0.19755,-0.0565 -0.36689,-0.0847 -0.56444,-0.0847 -0.87489,0 -1.66511,0.59267 -1.89089,1.46755 0,0.0564 -0.0282,0.11289 -0.0282,0.16934 0,0.33866 0.28222,0.64911 0.64911,0.64911 z m 7.5071,3.55599 v 4.65667 c 0,2.59644 -2.08844,4.68488 -4.68488,4.68488 h -4.65666 v -4.62844 c 0,-2.62466 2.08844,-4.71311 4.7131,-4.71311 z m 0.64911,-4.06399 c -1.07244,0 -1.97555,0.90311 -1.97555,1.97555 h 1.18533 c 0,-0.39511 0.39511,-0.79022 0.79022,-0.79022 h 0.79023 v 0.79022 c 0,0.39511 -0.39512,0.79022 -0.79023,0.79022 h -5.27755 c -2.90688,0 -5.33399,2.08845 -5.89844,4.826 -0.0847,0.39511 -0.11289,0.79022 -0.11289,1.18533 v 5.92666 h 5.95489 c 3.302,0 5.9831,-2.6811 5.9831,-5.9831 v -4.88244 c 0.762,-0.254 1.32645,-1.016 1.32645,-1.86267 v -1.97555 z m 8.09271,1.21355 c 0.31045,0 0.56445,-0.19755 0.62089,-0.47977 0.0847,-0.31045 0.33867,-0.508 0.62089,-0.508 0.0564,0 0.14111,0 0.19755,0.0282 l 2.48356,0.93133 c 0.16933,0.0282 0.33866,0.0564 0.53622,0.0564 0.84667,0 1.66511,-0.56444 1.89089,-1.43933 0.0282,-0.0564 0.0282,-0.11289 0.0282,-0.16933 0,-0.33867 -0.254,-0.64911 -0.64911,-0.64911 -0.28222,0 -0.53622,0.19755 -0.62089,0.47978 -0.0847,0.31044 -0.33867,0.47977 -0.64911,0.47977 -0.0565,0 -0.11289,0 -0.16933,0 l -2.45534,-0.93133 c -0.19755,-0.0564 -0.36688,-0.0847 -0.56444,-0.0847 -0.87489,0 -1.66511,0.59267 -1.89089,1.46756 0,0.0564 -0.0282,0.11289 -0.0282,0.16933 0,0.33867 0.28222,0.64911 0.64911,0.64911 z m -2.45533,1.55222 c -0.36689,0 -0.64911,0.28223 -0.64911,0.62089 v 5.30578 c 0,3.30199 2.70933,6.01132 6.01133,6.01132 h 5.92666 v -11.3171 c 0,-0.33866 -0.28222,-0.62089 -0.62089,-0.62089 -0.36689,0 -0.64911,0.28223 -0.64911,0.62089 v 10.01888 h -4.65666 c -2.62467,0 -4.71311,-2.08844 -4.71311,-4.7131 v -5.30578 c 0,-0.33866 -0.31044,-0.62089 -0.64911,-0.62089 z m 18.45025,-2.28599 c 0.31045,0 0.56445,-0.19756 0.62089,-0.47978 0.0847,-0.31045 0.33867,-0.508 0.62089,-0.508 0.0564,0 0.14111,0 0.19756,0.0282 l 2.48355,0.93133 c 0.16933,0.0282 0.33867,0.0564 0.53622,0.0564 0.84667,0 1.66511,-0.56445 1.89089,-1.43933 0.0282,-0.0565 0.0282,-0.11289 0.0282,-0.16934 0,-0.33866 -0.254,-0.64911 -0.64911,-0.64911 -0.28222,0 -0.53622,0.19756 -0.62089,0.47978 -0.0847,0.31044 -0.33866,0.47978 -0.64911,0.47978 -0.0564,0 -0.11289,0 -0.16933,0 l -2.45533,-0.93134 c -0.19756,-0.0564 -0.36689,-0.0847 -0.56445,-0.0847 -0.87488,0 -1.66511,0.59266 -1.89088,1.46755 0,0.0564 -0.0282,0.11289 -0.0282,0.16933 0,0.33867 0.28223,0.64912 0.64911,0.64912 z m -2.1731,2.28599 c -0.36689,0 -0.64912,0.28223 -0.64912,0.62089 v 5.30578 c 0,3.30199 2.70934,6.01132 6.01133,6.01132 h 5.92667 v -10.86554 c 0.76199,-0.254 1.35466,-1.016 1.35466,-1.86267 v -1.97555 h -1.97555 c -1.07245,0 -1.97556,0.90311 -1.97556,1.97555 h 1.18534 c 0,-0.39511 0.39511,-0.79022 0.79022,-0.79022 h 0.79022 v 0.79022 c 0,0.39511 -0.39511,0.79022 -0.79022,0.79022 -0.36689,0 -0.64911,0.28223 -0.64911,0.62089 v 10.01888 h -4.65667 c -2.62466,0 -4.7131,-2.08844 -4.7131,-4.7131 v -5.30578 c 0,-0.33866 -0.31045,-0.62089 -0.64911,-0.62089 z m 18.73247,-1.55222 c 0.31045,0 0.56445,-0.19755 0.62089,-0.47977 0.0847,-0.31045 0.33867,-0.508 0.62089,-0.508 0.0564,0 0.14111,0 0.19755,0.0282 l 2.48356,0.93133 c 0.16933,0.0282 0.33866,0.0564 0.53622,0.0564 0.84667,0 1.66511,-0.56444 1.89089,-1.43933 0.0282,-0.0564 0.0282,-0.11289 0.0282,-0.16933 0,-0.33867 -0.254,-0.64911 -0.64911,-0.64911 -0.28222,0 -0.53622,0.19755 -0.62089,0.47978 -0.0847,0.31044 -0.33867,0.47977 -0.64911,0.47977 -0.0564,0 -0.11289,0 -0.16933,0 l -2.45533,-0.93133 c -0.19756,-0.0564 -0.36689,-0.0847 -0.56445,-0.0847 -0.87489,0 -1.66511,0.59267 -1.89089,1.46756 0,0.0564 -0.0282,0.11289 -0.0282,0.16933 0,0.33867 0.28222,0.64911 0.64911,0.64911 z m 8.83355,12.8411 v -10.66799 c 0,-0.33866 -0.28222,-0.62089 -0.62089,-0.62089 -0.36689,0 -0.64911,0.28223 -0.64911,0.62089 v 10.01888 h -4.65666 c -2.62467,0 -4.71311,-2.08844 -4.71311,-4.7131 v -5.30578 c 0,-0.33866 -0.31044,-0.62089 -0.64911,-0.62089 -0.36689,0 -0.64911,0.28223 -0.64911,0.62089 v 5.30578 c 0,3.30199 2.70933,6.01132 6.01133,6.01132 h 4.572 c -0.28223,1.55223 -1.63689,2.70934 -3.27378,2.70934 h -6.66044 c -0.36689,0 -0.64911,0.28222 -0.64911,0.64911 0,0.33866 0.28222,0.64911 0.64911,0.64911 h 6.66044 c 2.54,0 4.62844,-2.08845 4.62844,-4.65667 z"
         id="path69" />
      <path
         style="font-weight:bold;font-family:'Leaf Tech';-inkscape-font-specification:'Leaf Tech Bold';text-align:center;text-anchor:middle"
         d="m 52.480687,273.87763 c -0.423333,0 -0.818444,0.16933 -1.128888,0.47977 l -1.100666,1.10067 1.100666,1.10066 c 0.310444,0.31045 0.705555,0.47978 1.100666,0.47978 0.423333,0 0.818444,-0.16933 1.128888,-0.47978 l 1.128888,-1.10066 -1.128888,-1.10067 c -0.310444,-0.31044 -0.705555,-0.47977 -1.100666,-0.47977 z m 0,1.29822 c 0.05644,0 0.141111,0.0282 0.197556,0.0847 l 0.197555,0.19756 -0.197555,0.19755 c -0.112889,0.11289 -0.282222,0.11289 -0.395111,0 l -0.225778,-0.19755 0.225778,-0.19756 c 0.05644,-0.0564 0.112889,-0.0847 0.197555,-0.0847 z m -5.333996,-14.90132 c -0.366888,0 -0.64911,0.25399 -0.64911,0.62088 0,0.33867 0.282222,0.64911 0.64911,0.64911 h 6.66044 c 1.862665,0 3.358441,1.46756 3.358441,3.33022 v 0.31045 c -1.100665,-1.38289 -2.793997,-2.31422 -4.713107,-2.31422 h -5.954884 v 3.27377 c 0,3.33022 2.709331,6.03955 6.011328,6.03955 h 5.926662 v -7.30955 c 0,-2.56822 -2.088442,-4.60021 -4.62844,-4.60021 z m 0.649111,3.89466 h 4.656663 c 2.596442,0 4.713107,2.08844 4.713107,4.68488 v 2.032 h -4.656663 c -2.624664,0 -4.713107,-2.11666 -4.713107,-4.74133 z m 20.962032,-10.38577 -0.592666,1.12889 c -0.423333,0.84666 -0.818444,1.43933 -1.241777,1.778 -0.451555,0.33866 -0.987777,0.53622 -1.947331,0.53622 -0.338667,0 -0.649111,0.28222 -0.649111,0.62089 0,0.36688 0.310444,0.64911 0.649111,0.64911 1.128888,0 2.031998,-0.254 2.737553,-0.79023 0.395111,-0.33866 0.733777,-0.76199 1.044221,-1.21355 0.310445,0.45156 0.620889,0.87489 1.044222,1.21355 0.705555,0.53623 1.580443,0.79023 2.709331,0.79023 0.366889,0 0.649111,-0.28223 0.649111,-0.64911 0,-0.33867 -0.282222,-0.62089 -0.649111,-0.62089 -0.931333,0 -1.467554,-0.19756 -1.91911,-0.53622 -0.451555,-0.33867 -0.818443,-0.93134 -1.269999,-1.778 z m -5.333995,6.49111 c -0.366889,0 -0.649111,0.25399 -0.649111,0.62088 0,0.33867 0.282222,0.64911 0.649111,0.64911 h 6.660439 c 1.862665,0 3.358442,1.46756 3.358442,3.33022 v 0.31045 c -1.100666,-1.38289 -2.793998,-2.31422 -4.713108,-2.31422 h -5.954884 v 3.27377 c 0,3.33022 2.709331,6.03955 6.011329,6.03955 h 5.926662 v -7.30955 c 0,-2.56822 -2.088443,-4.60021 -4.628441,-4.60021 z m 0.64911,3.89466 h 4.656663 c 2.596443,0 4.713108,2.08844 4.713108,4.68488 v 2.032 h -4.656663 c -2.624665,0 -4.713108,-2.11666 -4.713108,-4.74133 z m 4.684885,9.70844 c -0.423333,0 -0.818443,0.16933 -1.128888,0.47977 l -1.100665,1.10067 1.100665,1.10066 c 0.310445,0.31045 0.705555,0.47978 1.100666,0.47978 0.423333,0 0.818444,-0.16933 1.128888,-0.47978 l 1.128888,-1.10066 -1.128888,-1.10067 c -0.310444,-0.31044 -0.705555,-0.47977 -1.100666,-0.47977 z m 0,1.29822 c 0.05644,0 0.141111,0.0282 0.197556,0.0847 l 0.197555,0.19756 -0.197555,0.19755 c -0.112889,0.11289 -0.282222,0.11289 -0.395111,0 l -0.225778,-0.19755 0.225778,-0.19756 c 0.05644,-0.0564 0.112889,-0.0847 0.197555,-0.0847 z m 11.902707,-18.62666 c 0,0.19756 0.08467,0.33867 0.197555,0.45156 0.959555,0.95955 2.060221,1.55222 4.23333,1.55222 2.17311,0 3.273775,-0.59267 4.23333,-1.55222 0.112889,-0.11289 0.169333,-0.254 0.169333,-0.45156 0,-0.33866 -0.282222,-0.64911 -0.64911,-0.64911 -0.169333,0 -0.310444,0.0847 -0.451555,0.19756 -0.846666,0.84667 -1.326444,1.15711 -3.301998,1.15711 -2.003776,0 -2.483554,-0.31044 -3.33022,-1.15711 -0.112888,-0.11289 -0.282222,-0.19756 -0.451555,-0.19756 -0.338666,0 -0.64911,0.31045 -0.64911,0.64911 z m -0.959555,3.72534 c -0.366889,0 -0.649111,0.25399 -0.649111,0.62088 0,0.33867 0.282222,0.64911 0.649111,0.64911 h 6.660439 c 1.862665,0 3.358442,1.46756 3.358442,3.33022 v 0.31045 c -1.100666,-1.38289 -2.793998,-2.31422 -4.713107,-2.31422 h -5.954885 v 3.27377 c 0,3.33022 2.709331,6.03955 6.011329,6.03955 h 5.926662 v -7.30955 c 0,-2.56822 -2.088443,-4.60021 -4.628441,-4.60021 z m 0.64911,3.89466 h 4.656664 c 2.596442,0 4.713107,2.08844 4.713107,4.68488 v 2.032 h -4.656663 c -2.624665,0 -4.713108,-2.11666 -4.713108,-4.74133 z m 4.684886,9.70844 c -0.423333,0 -0.818444,0.16933 -1.128888,0.47977 l -1.100666,1.10067 1.100666,1.10066 c 0.310444,0.31045 0.705555,0.47978 1.100666,0.47978 0.423333,0 0.818443,-0.16933 1.128888,-0.47978 l 1.128888,-1.10066 -1.128888,-1.10067 c -0.310445,-0.31044 -0.705555,-0.47977 -1.100666,-0.47977 z m 0,1.29822 c 0.05644,0 0.141111,0.0282 0.197555,0.0847 l 0.197556,0.19756 -0.197556,0.19755 c -0.112889,0.11289 -0.282222,0.11289 -0.395111,0 l -0.225777,-0.19755 0.225777,-0.19756 c 0.05645,-0.0564 0.112889,-0.0847 0.197556,-0.0847 z m 16.277148,-1.29822 c -0.42334,0 -0.81845,0.16933 -1.12889,0.47977 l -1.100667,1.10067 1.100667,1.10066 c 0.31044,0.31045 0.73378,0.47978 1.12889,0.47978 0.39511,0 0.81844,-0.16933 1.10066,-0.47978 l 1.12889,-1.10066 -1.12889,-1.10067 c -0.31044,-0.31044 -0.70555,-0.47977 -1.10066,-0.47977 z m 0,1.29822 c 0.0564,0 0.14111,0.0282 0.19755,0.0847 l 0.19756,0.19756 -0.19756,0.19755 c -0.11289,0.11289 -0.28222,0.11289 -0.39511,0 l -0.22578,-0.19755 0.22578,-0.19756 c 0.0564,-0.0564 0.11289,-0.0847 0.19756,-0.0847 z m -4.684888,-13.63133 h 4.656658 c 2.59645,0 4.68489,2.08845 4.68489,4.68489 v 0.47978 h -6.434662 c -1.636887,0 -2.906886,-1.29822 -2.906886,-2.90689 z m -1.298221,-1.26999 v 5.89844 c 0,3.30199 2.709331,6.01132 6.011329,6.01132 h 5.27755 c 0.36689,0 0.64911,-0.28222 0.64911,-0.64911 0,-0.33866 -0.28222,-0.64911 -0.64911,-0.64911 h -5.27755 c -2.370666,0 -4.317997,-1.72155 -4.656664,-4.00755 0.705555,0.64911 1.580443,1.12889 2.850442,1.12889 h 7.732882 v -1.778 c 0,-3.302 -2.68111,-5.95488 -5.98311,-5.95488 z m 22.260259,-6.43467 -0.59267,1.12889 c -0.42333,0.84667 -0.81844,1.43933 -1.24178,1.778 -0.45155,0.33867 -0.98777,0.53622 -1.94733,0.53622 -0.33866,0 -0.64911,0.28222 -0.64911,0.62089 0,0.36689 0.31045,0.64911 0.64911,0.64911 1.12889,0 2.032,-0.254 2.73755,-0.79022 0.39512,-0.33867 0.73378,-0.762 1.04423,-1.21356 0.31044,0.45156 0.62088,0.87489 1.04422,1.21356 0.70555,0.53622 1.58044,0.79022 2.70933,0.79022 0.36689,0 0.64911,-0.28222 0.64911,-0.64911 0,-0.33867 -0.28222,-0.62089 -0.64911,-0.62089 -0.93133,0 -1.46756,-0.19755 -1.91911,-0.53622 -0.45156,-0.33867 -0.81844,-0.93133 -1.27,-1.778 z m -4.68489,7.70466 h 4.65666 c 2.59645,0 4.68489,2.08845 4.68489,4.68489 v 0.47978 h -6.43466 c -1.63689,0 -2.90689,-1.29822 -2.90689,-2.90689 z m -1.29822,-1.26999 v 5.89844 c 0,3.30199 2.70933,6.01132 6.01133,6.01132 h 5.27755 c 0.36689,0 0.64911,-0.28222 0.64911,-0.64911 0,-0.33866 -0.28222,-0.64911 -0.64911,-0.64911 h -5.27755 c -2.37067,0 -4.318,-1.72155 -4.65666,-4.00755 0.70555,0.64911 1.58044,1.12889 2.85044,1.12889 h 7.73288 v -1.778 c 0,-3.302 -2.68111,-5.95488 -5.98311,-5.95488 z m 5.98311,13.6031 c -0.42334,0 -0.81845,0.16933 -1.12889,0.47977 l -1.10067,1.10067 1.10067,1.10066 c 0.31044,0.31045 0.73378,0.47978 1.12889,0.47978 0.39511,0 0.81844,-0.16933 1.10066,-0.47978 l 1.12889,-1.10066 -1.12889,-1.10067 c -0.31044,-0.31044 -0.70555,-0.47977 -1.10066,-0.47977 z m 0,1.29822 c 0.0564,0 0.14111,0.0282 0.19755,0.0847 l 0.19756,0.19756 -0.19756,0.19755 c -0.11289,0.11289 -0.28222,0.11289 -0.39511,0 l -0.22578,-0.19755 0.22578,-0.19756 c 0.0564,-0.0564 0.11289,-0.0847 0.19756,-0.0847 z m 11.3947,-1.29822 c -0.42333,0 -0.81844,0.16933 -1.12889,0.47977 l -1.10066,1.10067 1.10066,1.10066 c 0.31045,0.31045 0.70556,0.47978 1.10067,0.47978 0.42333,0 0.81844,-0.16933 1.12889,-0.47978 l 1.12888,-1.10066 -1.12888,-1.10067 c -0.31045,-0.31044 -0.70556,-0.47977 -1.10067,-0.47977 z m 0,1.29822 c 0.0564,0 0.14111,0.0282 0.19756,0.0847 l 0.19755,0.19756 -0.19755,0.19755 c -0.11289,0.11289 -0.28223,0.11289 -0.39511,0 l -0.22578,-0.19755 0.22578,-0.19756 c 0.0564,-0.0564 0.11288,-0.0847 0.19755,-0.0847 z m -1.66511,-18.03399 v 1.27 h 1.24178 c 0.70555,0 1.27,-0.56444 1.27,-1.27 v -1.24178 h -1.24178 c -0.73378,0 -1.27,0.56445 -1.27,1.24178 z m 3.95111,14.39332 c 0,-0.16933 -0.0565,-0.31044 -0.16933,-0.42333 -1.15711,-1.29822 -1.89089,-3.01978 -1.89089,-4.91066 v -5.334 c 0,-0.33867 -0.28222,-0.62089 -0.62089,-0.62089 -0.36689,0 -0.64911,0.28222 -0.64911,0.62089 v 5.334 c 0,2.22955 0.81844,4.23333 2.20133,5.75733 0.11289,0.14111 0.28222,0.22577 0.47978,0.22577 0.36689,0 0.64911,-0.28222 0.64911,-0.64911 z m 8.62896,2.34245 c -0.42333,0 -0.81845,0.16933 -1.12889,0.47977 l -1.10067,1.10067 1.10067,1.10066 c 0.31044,0.31045 0.73378,0.47978 1.12889,0.47978 0.39511,0 0.81844,-0.16933 1.10066,-0.47978 l 1.12889,-1.10066 -1.12889,-1.10067 c -0.31044,-0.31044 -0.70555,-0.47977 -1.10066,-0.47977 z m 0,1.29822 c 0.0564,0 0.14111,0.0282 0.19755,0.0847 l 0.19756,0.19756 -0.19756,0.19755 c -0.11289,0.11289 -0.28222,0.11289 -0.39511,0 l -0.22577,-0.19755 0.22577,-0.19756 c 0.0565,-0.0564 0.11289,-0.0847 0.19756,-0.0847 z m 4.65666,-13.63133 v 4.65667 c 0,2.59644 -2.08844,4.68488 -4.68488,4.68488 h -4.65667 v -4.62844 c 0,-2.62466 2.08845,-4.71311 4.71311,-4.71311 z m 1.29822,-1.29822 h -5.92666 c -2.90689,0 -5.334,2.08845 -5.89844,4.826 -0.0847,0.39511 -0.11289,0.79022 -0.11289,1.18533 v 5.92666 h 5.95489 c 3.30199,0 5.9831,-2.68111 5.9831,-5.9831 z m 10.32226,-6.40644 -0.59266,1.12889 c -0.42334,0.84667 -0.81845,1.43933 -1.24178,1.778 -0.45155,0.33867 -0.98778,0.53622 -1.94733,0.53622 -0.33867,0 -0.64911,0.28222 -0.64911,0.62089 0,0.36689 0.31044,0.64911 0.64911,0.64911 1.12889,0 2.032,-0.254 2.73755,-0.79022 0.39511,-0.33867 0.73378,-0.762 1.04422,-1.21356 0.31045,0.45156 0.62089,0.87489 1.04422,1.21356 0.70556,0.53622 1.58045,0.79022 2.70934,0.79022 0.36688,0 0.64911,-0.28222 0.64911,-0.64911 0,-0.33867 -0.28223,-0.62089 -0.64911,-0.62089 -0.93134,0 -1.46756,-0.19755 -1.91911,-0.53622 -0.45156,-0.33867 -0.81845,-0.93133 -1.27,-1.778 z m 4.65667,7.70466 v 4.65667 c 0,2.59644 -2.08845,4.68488 -4.68489,4.68488 h -4.65666 v -4.62844 c 0,-2.62466 2.08844,-4.71311 4.71311,-4.71311 z m 1.29822,-1.29822 h -5.92666 c -2.90689,0 -5.334,2.08845 -5.89844,4.826 -0.0847,0.39511 -0.11289,0.79022 -0.11289,1.18533 v 5.92666 h 5.95488 c 3.302,0 5.98311,-2.68111 5.98311,-5.9831 z m -5.95489,13.63133 c -0.42333,0 -0.81844,0.16933 -1.12888,0.47977 l -1.10067,1.10067 1.10067,1.10066 c 0.31044,0.31045 0.73377,0.47978 1.12888,0.47978 0.39511,0 0.81845,-0.16933 1.10067,-0.47978 l 1.12889,-1.10066 -1.12889,-1.10067 c -0.31044,-0.31044 -0.70556,-0.47977 -1.10067,-0.47977 z m 0,1.29822 c 0.0564,0 0.14111,0.0282 0.19756,0.0847 l 0.19755,0.19756 -0.19755,0.19755 c -0.11289,0.11289 -0.28222,0.11289 -0.39511,0 l -0.22578,-0.19755 0.22578,-0.19756 c 0.0564,-0.0564 0.11289,-0.0847 0.19755,-0.0847 z m 16.27716,-1.29822 c -0.42334,0 -0.81845,0.16933 -1.12889,0.47977 l -1.10067,1.10067 1.10067,1.10066 c 0.31044,0.31045 0.73378,0.47978 1.12889,0.47978 0.39511,0 0.81844,-0.16933 1.10066,-0.47978 l 1.12889,-1.10066 -1.12889,-1.10067 c -0.31044,-0.31044 -0.70555,-0.47977 -1.10066,-0.47977 z m 0,1.29822 c 0.0564,0 0.14111,0.0282 0.19755,0.0847 l 0.19756,0.19756 -0.19756,0.19755 c -0.11289,0.11289 -0.28222,0.11289 -0.39511,0 l -0.22578,-0.19755 0.22578,-0.19756 c 0.0564,-0.0564 0.11289,-0.0847 0.19756,-0.0847 z m 4.65666,-13.63133 v 4.65667 c 0,2.59644 -2.08844,4.68488 -4.68489,4.68488 h -4.65666 v -4.62844 c 0,-2.62466 2.08844,-4.71311 4.71311,-4.71311 z m 0.64911,-4.06399 c -1.07244,0 -1.97555,0.90311 -1.97555,1.97555 h 1.18533 c 0,-0.39511 0.39511,-0.79022 0.79022,-0.79022 h 0.79022 v 0.79022 c 0,0.39511 -0.39511,0.79022 -0.79022,0.79022 h -5.27755 c -2.90689,0 -5.334,2.08845 -5.89844,4.826 -0.0847,0.39511 -0.11289,0.79022 -0.11289,1.18533 v 5.92666 h 5.95488 c 3.302,0 5.98311,-2.68111 5.98311,-5.9831 v -4.88244 c 0.762,-0.254 1.32644,-1.016 1.32644,-1.86267 v -1.97555 z m 11.33826,16.3971 c -0.42333,0 -0.81844,0.16933 -1.12889,0.47977 l -1.10066,1.10067 1.10066,1.10066 c 0.31045,0.31045 0.70556,0.47978 1.10067,0.47978 0.42333,0 0.81844,-0.16933 1.12889,-0.47978 l 1.12888,-1.10066 -1.12888,-1.10067 c -0.31045,-0.31044 -0.70556,-0.47977 -1.10067,-0.47977 z m 0,1.29822 c 0.0564,0 0.14111,0.0282 0.19756,0.0847 l 0.19755,0.19756 -0.19755,0.19755 c -0.11289,0.11289 -0.28223,0.11289 -0.39511,0 l -0.22578,-0.19755 0.22578,-0.19756 c 0.0564,-0.0564 0.11288,-0.0847 0.19755,-0.0847 z m -5.70088,-14.92955 c -0.36689,0 -0.64911,0.28222 -0.64911,0.62089 v 5.30578 c 0,3.30199 2.70933,6.01132 6.01132,6.01132 h 5.92667 v -11.3171 c 0,-0.33867 -0.28223,-0.62089 -0.62089,-0.62089 -0.36689,0 -0.64911,0.28222 -0.64911,0.62089 v 10.01888 h -4.65667 c -2.62466,0 -4.7131,-2.08844 -4.7131,-4.7131 v -5.30578 c 0,-0.33867 -0.31045,-0.62089 -0.64911,-0.62089 z m 21.97803,13.63133 c -0.42334,0 -0.81845,0.16933 -1.12889,0.47977 l -1.10067,1.10067 1.10067,1.10066 c 0.31044,0.31045 0.70555,0.47978 1.10066,0.47978 0.42334,0 0.81845,-0.16933 1.12889,-0.47978 l 1.12889,-1.10066 -1.12889,-1.10067 c -0.31044,-0.31044 -0.70555,-0.47977 -1.10066,-0.47977 z m 0,1.29822 c 0.0564,0 0.14111,0.0282 0.19755,0.0847 l 0.19756,0.19756 -0.19756,0.19755 c -0.11289,0.11289 -0.28222,0.11289 -0.39511,0 l -0.22578,-0.19755 0.22578,-0.19756 c 0.0564,-0.0564 0.11289,-0.0847 0.19756,-0.0847 z m -5.70089,-14.92955 c -0.36689,0 -0.64911,0.28222 -0.64911,0.62089 v 5.30578 c 0,3.30199 2.70933,6.01132 6.01133,6.01132 h 5.92666 v -10.86554 c 0.762,-0.254 1.35467,-1.016 1.35467,-1.86267 v -1.97555 h -1.97556 c -1.07244,0 -1.97555,0.90311 -1.97555,1.97555 h 1.18533 c 0,-0.39511 0.39511,-0.79022 0.79022,-0.79022 h 0.79022 v 0.79022 c 0,0.39511 -0.39511,0.79022 -0.79022,0.79022 -0.36689,0 -0.64911,0.28222 -0.64911,0.62089 v 10.01888 h -4.65666 c -2.62467,0 -4.71311,-2.08844 -4.71311,-4.7131 v -5.30578 c 0,-0.33867 -0.31044,-0.62089 -0.64911,-0.62089 z m 21.75225,16.48177 c -0.42333,0 -0.81844,0.16933 -1.12888,0.47978 l -1.10067,1.10066 1.10067,1.10067 c 0.31044,0.31044 0.70555,0.47977 1.10066,0.47977 0.42333,0 0.81845,-0.16933 1.12889,-0.47977 l 1.12889,-1.10067 -1.12889,-1.10066 c -0.31044,-0.31045 -0.70556,-0.47978 -1.10067,-0.47978 z m 0,1.29822 c 0.0564,0 0.14111,0.0282 0.19756,0.0847 l 0.19755,0.19755 -0.19755,0.19756 c -0.11289,0.11289 -0.28222,0.11289 -0.39511,0 l -0.22578,-0.19756 0.22578,-0.19755 c 0.0564,-0.0564 0.11289,-0.0847 0.19755,-0.0847 z m 5.81378,-6.49111 v -10.66799 c 0,-0.33867 -0.28223,-0.62089 -0.62089,-0.62089 -0.36689,0 -0.64911,0.28222 -0.64911,0.62089 v 10.01888 h -4.65667 c -2.62466,0 -4.7131,-2.08844 -4.7131,-4.7131 v -5.30578 c 0,-0.33867 -0.31045,-0.62089 -0.64911,-0.62089 -0.36689,0 -0.64911,0.28222 -0.64911,0.62089 v 5.30578 c 0,3.30199 2.70933,6.01132 6.01132,6.01132 h 4.572 c -0.28222,1.55222 -1.63689,2.70933 -3.27377,2.70933 h -6.66044 c -0.36689,0 -0.64911,0.28223 -0.64911,0.64912 0,0.33866 0.28222,0.64911 0.64911,0.64911 h 6.66044 c 2.53999,0 4.62844,-2.08845 4.62844,-4.65667 z"
         id="path70" />
      <path
         style="font-weight:bold;font-family:'Leaf Tech';-inkscape-font-specification:'Leaf Tech Bold';text-align:center;text-anchor:middle"
         d="m 134.96004,293.37916 c 0.254,0 0.47978,-0.16933 0.59266,-0.36688 0.16934,-0.39511 0.95956,-0.62089 1.69334,-0.62089 0.14111,0 0.28222,0 0.42333,0.0282 l 3.78177,0.84667 v 5.9831 c -1.10066,-1.38289 -2.76577,-2.31422 -4.68488,-2.31422 h -5.95489 v 5.92666 c 0,3.302 2.70934,6.01133 6.01133,6.01133 h 5.92667 v -5.95488 -9.48266 c 1.24177,-0.0282 2.34244,-0.47978 2.76577,-1.35467 0.0282,-0.0847 0.0564,-0.19755 0.0564,-0.28222 0,-0.33866 -0.254,-0.64911 -0.64912,-0.64911 -0.254,0 -0.47977,0.14111 -0.59266,0.36689 -0.14111,0.31044 -0.95956,0.62089 -1.58044,0.62089 -0.0847,-3.24556 -2.73756,-5.842 -5.98311,-5.842 -0.36689,0 -0.64911,0.28222 -0.64911,0.64911 0,0.33867 0.28222,0.64911 0.64911,0.64911 2.48355,0 4.48733,1.89089 4.68488,4.34622 l -3.55599,-0.79022 c -0.254,-0.0282 -0.508,-0.0564 -0.73378,-0.0564 -1.27,0 -2.37067,0.47977 -2.794,1.35466 -0.0282,0.0847 -0.0564,0.16934 -0.0564,0.28222 0,0.33867 0.28222,0.64911 0.64911,0.64911 z m -2.85044,4.85422 h 4.65666 c 2.59644,0 4.68488,2.08845 4.68488,4.68489 v 4.65666 h -4.62844 c -2.62466,0 -4.7131,-2.08844 -4.7131,-4.71311 z"
         id="path71" />
    </g>
  </g>
</svg>
