<?xml version="1.0" encoding="UTF-8" standalone="no"?>
<!-- Created with Inkscape (http://www.inkscape.org/) -->

<svg
   width="1446.6068"
   height="625.56012"
   viewBox="0 0 382.74803 165.51278"
   version="1.1"
   id="svg1"
   inkscape:version="1.4 (86a8ad7, 2024-10-11)"
   sodipodi:docname="Alphabet TallThin Both Cases - Wide.svg"
   xmlns:inkscape="http://www.inkscape.org/namespaces/inkscape"
   xmlns:sodipodi="http://sodipodi.sourceforge.net/DTD/sodipodi-0.dtd"
   xmlns="http://www.w3.org/2000/svg"
   xmlns:svg="http://www.w3.org/2000/svg">
  <sodipodi:namedview
     id="namedview1"
     pagecolor="#ffffff"
     bordercolor="#000000"
     borderopacity="0.25"
     inkscape:showpageshadow="2"
     inkscape:pageopacity="0.0"
     inkscape:pagecheckerboard="0"
     inkscape:deskcolor="#d1d1d1"
     inkscape:document-units="px"
     inkscape:zoom="0.6365741"
     inkscape:cx="669.9927"
     inkscape:cy="404.50907"
     inkscape:window-width="1920"
     inkscape:window-height="1027"
     inkscape:window-x="-8"
     inkscape:window-y="-8"
     inkscape:window-maximized="1"
     inkscape:current-layer="layer1" />
  <defs
     id="defs1" />
  <g
     inkscape:label="Layer 1"
     inkscape:groupmode="layer"
     id="layer1"
     transform="translate(54.088817,-66.628678)">
    <text
       xml:space="preserve"
       style="font-size:41.5014px;line-height:1;font-family:'BlockTrain Hand';-inkscape-font-specification:'BlockTrain Hand';text-align:start;letter-spacing:1.32292px;writing-mode:lr-tb;direction:ltr;text-anchor:start;display:none;fill:#19919b;fill-opacity:1;stroke:#7c7c7c;stroke-width:1.16723;stroke-dasharray:none;stroke-opacity:1"
       x="137.9259"
       y="98.753357"
       id="text1"><tspan
         style="font-style:normal;font-variant:normal;font-weight:normal;font-stretch:normal;font-size:41.5014px;font-family:TallThin;-inkscape-font-specification:TallThin;text-align:center;letter-spacing:1.32292px;text-anchor:middle;fill:#19919b;fill-opacity:1;stroke:#7c7c7c;stroke-width:1.16723;stroke-dasharray:none;stroke-opacity:1"
         x="137.9259"
         y="98.753357"
         sodipodi:role="line"
         id="tspan25">AaÆæBbCcÇçDdEeFfΦφÞþ</tspan><tspan
         style="font-style:normal;font-variant:normal;font-weight:normal;font-stretch:normal;font-size:41.5014px;font-family:TallThin;-inkscape-font-specification:TallThin;text-align:center;letter-spacing:1.32292px;text-anchor:middle;fill:#19919b;fill-opacity:1;stroke:#7c7c7c;stroke-width:1.16723;stroke-dasharray:none;stroke-opacity:1"
         x="137.9259"
         y="140.25476"
         sodipodi:role="line"
         id="tspan26">ÐðGgȜȝHhǶƕIiJjKkꞰʞLlMm</tspan><tspan
         style="font-style:normal;font-variant:normal;font-weight:normal;font-stretch:normal;font-size:41.5014px;font-family:TallThin;-inkscape-font-specification:TallThin;text-align:center;letter-spacing:1.32292px;text-anchor:middle;fill:#19919b;fill-opacity:1;stroke:#7c7c7c;stroke-width:1.16723;stroke-dasharray:none;stroke-opacity:1"
         x="137.9259"
         y="181.75616"
         sodipodi:role="line"
         id="tspan28">NnИиŊŋOoŒœPpQqRrSsƩʃ</tspan><tspan
         style="font-style:normal;font-variant:normal;font-weight:normal;font-stretch:normal;font-size:41.5014px;font-family:TallThin;-inkscape-font-specification:TallThin;text-align:center;letter-spacing:1.32292px;text-anchor:middle;fill:#19919b;fill-opacity:1;stroke:#7c7c7c;stroke-width:1.16723;stroke-dasharray:none;stroke-opacity:1"
         x="138.58737"
         y="223.25755"
         sodipodi:role="line"
         id="tspan33">TtЧчUuȢȣVvWwꝎꝏXxYyZz</tspan></text>
    <g
       id="text5"
       style="font-size:41.5014px;line-height:1;font-family:'BlockTrain Hand';-inkscape-font-specification:'BlockTrain Hand';letter-spacing:1.32292px;fill:#19919b;stroke:#7c7c7c;stroke-width:1.16723"
       aria-label="AaÆæBbCcÇçDdEeFfΦφÞþ&#10;ÐðGgȜȝHhǶƕIiJjKkꞰʞLlMm&#10;NnИиŊŋOoŒœPpQqRrSsƩʃ&#10;TtЧчUuȢȣVvWwꝎꝏXxYyZz">
      <path
         style="font-family:TallThin;-inkscape-font-specification:TallThin;text-align:center;text-anchor:middle"
         d="m -30.51857,87.132965 h -7.055238 V 70.739912 c 0,-1.037535 0.830028,-1.867563 1.867563,-1.867563 h 3.320112 c 1.037535,0 1.867563,0.830028 1.867563,1.867563 z m 0,11.620392 h 3.320112 V 69.079856 c 0,-1.037535 -0.830028,-1.867563 -1.867563,-1.867563 h -9.960336 c -1.037535,0 -1.867563,0.830028 -1.867563,1.867563 v 29.673501 h 3.320112 v -9.960336 h 7.055238 z m 12.694317,-11.661893 h -0.996034 -1.411048 -0.0415 c -1.037535,0 -1.867563,0.871529 -1.867563,1.909064 v 7.636258 0.207507 c 0,1.037535 0.830028,1.909064 1.867563,1.909064 h 0.0415 3.569121 0.0415 0.124504 0.0415 c 0.539518,0 1.037535,-0.249008 1.369546,-0.664022 v 0.664022 h 1.411048 1.909064 V 96.512281 81.198265 79.081693 c 0,-1.037535 -0.830028,-1.909064 -1.867563,-1.909064 h -0.0415 -2.863597 -3.693625 -0.0415 c -1.037535,0 -1.867563,0.871529 -1.867563,1.909064 v 0.083 1.535552 h 3.154106 0.083 0.083 c 0,-1.037535 0.788527,-1.867563 1.826062,-1.867563 h 0.0415 0.0415 c 1.037535,0 1.826062,0.871529 1.826062,1.909064 v 0.0415 0.622521 3.652123 0.083 0.0415 c 0,1.037535 -0.788527,1.909065 -1.826062,1.909065 h -0.0415 z m 1.452549,1.701557 h 0.0415 c 0.498017,0 0.913031,-0.166006 1.245042,-0.498017 v 6.598723 0.207507 0.0415 c 0,1.037535 -0.788527,1.909065 -1.826062,1.909065 h -0.0415 -0.0415 c -1.037535,0 -1.826062,-0.87153 -1.826062,-1.909065 v -0.0415 -0.373513 -3.984134 -0.0415 c 0,-1.037535 0.788527,-1.909064 1.826062,-1.909064 h 0.0415 0.539518 z M 3.2533282,87.132965 h -7.055238 V 70.739912 c 0,-1.037535 0.830028,-1.867563 1.867563,-1.867563 h 3.320112 c 1.037535,0 1.867563,0.830028 1.867563,1.867563 z m 0,11.620392 H 5.4944038 V 98.25534 c 0.3320112,0.29051 0.7885266,0.498017 1.2865434,0.498017 H 16.94879 V 97.093301 H 8.4410032 c -1.037535,0 -1.867563,-0.830028 -1.867563,-1.867563 V 88.793021 H 15.081227 V 87.132965 H 6.5734402 V 68.872349 H 16.94879 V 67.212293 H 6.1999276 5.7849136 c -0.3320112,0 -0.622521,0.083 -0.8715294,0.207507 C 4.6643758,67.295296 4.373866,67.212293 4.0418548,67.212293 h -9.2963136 c -1.037535,0 -1.867563,0.830028 -1.867563,1.867563 v 29.673501 h 3.320112 v -9.960336 h 7.055238 z M 26.77949,88.793021 h 1.867563 v 6.432717 c 0,1.037535 -0.830028,1.867563 -1.867563,1.867563 -1.037535,0 -1.867563,-0.830028 -1.867563,-1.867563 v -4.565154 c 0,-1.037535 0.830028,-1.867563 1.867563,-1.867563 z m 1.867563,-1.660056 h -5.187675 c -1.037535,0 -1.867563,0.830028 -1.867563,1.867563 v 7.885266 c 0,1.037535 0.830028,1.867563 1.867563,1.867563 h 5.353681 0.0415 c 0.58102,0 1.120538,-0.249008 1.452549,-0.705524 0.332011,0.456516 0.871529,0.705524 1.452549,0.705524 h 0.0415 7.221244 v -1.660056 h -5.187675 c -1.037535,0 -1.867563,-0.830028 -1.867563,-1.867563 v -6.432717 h 7.055238 v -9.752829 c 0,-1.037535 -0.830028,-1.867563 -1.867563,-1.867563 h -5.353681 -0.0415 c -0.58102,0 -1.120538,0.249008 -1.452549,0.705524 -0.332011,-0.456516 -0.871529,-0.705524 -1.452549,-0.705524 h -0.0415 -5.353681 c -1.037535,0 -1.867563,0.830028 -1.867563,1.867563 v 1.660056 h 3.320112 c 0,-1.037535 0.830028,-1.867563 1.867563,-1.867563 1.037535,0 1.867563,0.830028 1.867563,1.867563 z m 7.055238,0 h -3.735126 v -6.432717 c 0,-1.037535 0.830028,-1.867563 1.867563,-1.867563 1.037535,0 1.867563,0.830028 1.867563,1.867563 z m 18.753512,-14.52549 v 10.790364 c 0,2.07507 -1.701558,3.735126 -3.776628,3.735126 h -3.27861 V 68.872349 h 3.320112 c 2.07507,0 3.735126,1.660056 3.735126,3.735126 z m 3.320112,22.410756 v -4.15014 c 0,-1.162039 -0.539519,-2.199574 -1.411048,-2.905098 0.871529,-0.705524 1.411048,-1.743059 1.411048,-2.905098 V 70.947419 c 0,-2.07507 -1.660056,-3.735126 -3.735126,-3.735126 h -9.960336 v 31.541064 h 9.960336 c 2.07507,0 3.735126,-1.660056 3.735126,-3.735126 z m -7.055238,-6.22521 c 2.07507,0 3.735126,1.660056 3.735126,3.735126 v 0.830028 c 0,2.033569 -1.660056,3.735126 -3.735126,3.735126 h -3.320112 v -8.30028 z m 12.113295,-20.7507 h 3.320112 v 9.130308 h 3.320112 c 2.07507,0 3.735126,1.660056 3.735126,3.735126 v 14.110476 c 0,2.07507 -1.660056,3.735126 -3.735126,3.735126 h -1.992067 -0.083 -0.083 c -0.456515,0 -0.830028,-0.166006 -1.162039,-0.415014 v 0.415014 h -3.320112 z m 3.320112,10.790364 v 18.260616 c 2.07507,0 3.735126,-1.660056 3.735126,-3.735126 V 82.567811 c 0,-2.07507 -1.660056,-3.735126 -3.735126,-3.735126 z M 91.962827,97.093301 H 83.45504 c -1.037535,0 -1.867563,-0.830028 -1.867563,-1.867563 V 70.739912 c 0,-1.037535 0.830028,-1.867563 1.867563,-1.867563 h 8.507787 V 67.212293 H 80.134928 c -1.037535,0 -1.867563,0.830028 -1.867563,1.867563 v 27.805938 c 0,1.037535 0.830028,1.867563 1.867563,1.867563 h 11.827899 z m 15.433403,0 h -5.18767 c -1.03754,0 -1.86756,-0.830028 -1.86756,-1.867563 v -14.52549 c 0,-1.037535 0.83002,-1.867563 1.86756,-1.867563 h 5.18767 v -1.660056 h -8.507783 c -1.037535,0 -1.867563,0.830028 -1.867563,1.867563 v 17.845602 c 0,1.037535 0.830028,1.867563 1.867563,1.867563 h 8.507783 z m 15.01839,-1.452549 c 0,1.037535 -0.83003,1.452549 -1.86756,1.452549 h -3.32011 c -1.03754,0 -1.86757,-0.830028 -1.86757,-1.867563 h -3.32011 v 1.660056 c 0,1.037535 0.83003,1.867563 1.86756,1.867563 h 9.96034 c 1.03754,0 1.86756,-0.58102 1.86756,-1.618555 v -0.166005 c 0,-0.664023 -0.41501,-1.286544 -1.28654,-2.199574 l -2.15807,-2.241076 h 3.44461 v -1.660056 h -8.50778 c -1.03754,0 -1.86757,-0.830028 -1.86757,-1.867563 V 70.739912 c 0,-1.037535 0.83003,-1.867563 1.86757,-1.867563 h 8.50778 v -1.660056 h -11.8279 c -1.03753,0 -1.86756,0.830028 -1.86756,1.867563 v 21.580728 c 0,1.037535 0.83003,1.867563 1.86756,1.867563 h 6.14221 l 1.53555,1.535552 c 0.70553,0.705524 0.83003,0.954532 0.83003,1.49405 z m 18.33849,1.452549 h -5.18768 c -1.03753,0 -1.86756,-0.830028 -1.86756,-1.867563 v -14.52549 c 0,-1.037535 0.83003,-1.867563 1.86756,-1.867563 h 5.18768 v -1.660056 h -8.50779 c -1.03754,0 -1.86756,0.830028 -1.86756,1.867563 v 17.845602 c 0,1.037535 0.83002,1.867563 1.86756,1.867563 h 8.50779 z m 5.05803,-29.881008 v 31.541064 h 9.96034 c 2.07507,0 3.73512,-1.660056 3.73512,-3.735126 V 70.947419 c 0,-2.07507 -1.66005,-3.735126 -3.73512,-3.735126 z m 3.32011,1.660056 h 3.32012 c 2.07507,0 3.73512,1.660056 3.73512,3.735126 v 20.7507 c 0,2.07507 -1.66005,3.735126 -3.73512,3.735126 h -3.32012 z m 25.80876,-0.830028 h -3.32011 v 9.130308 h -3.32011 c -2.07507,0 -3.73513,1.660056 -3.73513,3.735126 v 14.110476 c 0,2.07507 1.66006,3.735126 3.73513,3.735126 h 1.99207 0.083 0.083 c 0.45652,0 0.83003,-0.166006 1.16204,-0.415014 v 0.415014 h 3.32011 z m -3.32011,10.790364 v 18.260616 c -2.07507,0 -3.73513,-1.660056 -3.73513,-3.735126 V 82.567811 c 0,-2.07507 1.66006,-3.735126 3.73513,-3.735126 z m 22.07362,18.260616 h -8.50778 c -1.03754,0 -1.86757,-0.830028 -1.86757,-1.867563 v -6.432717 h 8.50779 v -1.660056 h -8.50779 V 68.872349 h 10.37535 v -1.660056 h -13.69546 v 29.673501 c 0,1.037535 0.83003,1.867563 1.86757,1.867563 h 11.82789 z m 6.92563,-19.920672 c -1.03754,0 -1.86757,0.830028 -1.86757,1.867563 v 17.845602 c 0,1.037535 0.83003,1.867563 1.86757,1.867563 h 8.50778 v -1.660056 h -5.18767 c -1.03754,0 -1.86757,-0.830028 -1.86757,-1.867563 v -6.432717 h 5.18768 c 1.03753,0 1.86756,-0.830028 1.86756,-1.867563 v -7.885266 c 0,-1.037535 -0.83003,-1.867563 -1.86756,-1.867563 z m 3.27861,1.660056 h 0.083 c 1.03753,0 1.82606,0.871529 1.82606,1.909064 v 4.523653 c 0,1.037535 -0.83003,1.867563 -1.86756,1.867563 h -1.86757 v -6.432717 c 0,-1.037535 0.78853,-1.867563 1.82607,-1.867563 z m 12.15477,-11.620392 c -1.03753,0 -1.86756,0.830028 -1.86756,1.867563 v 29.673501 h 3.32011 v -9.960336 h 8.50779 v -1.660056 h -8.50779 V 70.739912 c 0,-1.037535 0.83003,-1.867563 1.86756,-1.867563 h 8.50779 v -1.660056 z m 27.26132,4.648157 v 1.577053 h -3.32011 c 0,-1.992067 0,-3.735126 -1.86756,-3.735126 -1.86757,0 -1.86757,1.743059 -1.86757,3.735126 v 0.083 8.673792 c 0.12451,-0.0415 0.29051,-0.0415 0.41502,-0.0415 h 0.0415 4.93867 v 1.660056 h -3.52762 c -1.86757,0 -1.86757,0.913031 -1.86757,2.905098 V 87.58948 98.753357 H 232.9385 V 87.58948 85.887923 71.86045 v -0.083 c 0,-2.07507 1.66006,-3.735126 3.73513,-3.735126 h 2.9051 c 2.07507,0 3.73512,1.660056 3.73512,3.735126 z m 13.77333,23.157781 h 2.07507 c 2.07507,0 3.73513,-1.660056 3.73513,-3.735126 v -16.60056 c 0,-2.07507 -1.66006,-3.735126 -3.73513,-3.735126 h -2.07507 v -3.735126 h -3.32011 v 3.735126 H 251.692 c -2.07507,0 -3.73513,1.660056 -3.73513,3.735126 v 16.60056 c 0,2.07507 1.66006,3.735126 3.73513,3.735126 h 2.07507 v 3.735126 h 3.32011 z m -0.20751,-1.78456 V 72.731979 c 1.57706,0.456516 2.6976,1.909065 2.6976,3.610622 v 13.280448 c 0,1.701557 -1.12054,3.154106 -2.6976,3.610622 z m -2.90509,-20.501692 v 20.501692 c -1.57706,-0.456516 -2.69759,-1.909065 -2.69759,-3.610622 V 76.342601 c 0,-1.701557 1.12053,-3.154106 2.69759,-3.610622 z m 22.69616,4.44065 v -5.395182 h -3.32011 v 5.395182 h -2.07507 c -2.07507,0 -3.73513,1.660056 -3.73513,3.735126 v 14.110476 c 0,2.07507 1.66006,3.735126 3.73513,3.735126 h 2.07507 v 5.395183 h 3.32011 v -5.395183 h 2.07507 c 2.07507,0 3.73512,-1.660056 3.73512,-3.735126 V 80.907755 c 0,-2.07507 -1.66005,-3.735126 -3.73512,-3.735126 z m 0,19.713165 V 79.040192 c 1.45255,0.498017 2.49008,1.909064 2.49008,3.527619 v 10.790364 c 0,1.618555 -1.03753,3.029602 -2.49008,3.527619 z m -3.32011,-17.845602 v 17.845602 c -1.45255,-0.498017 -2.49009,-1.909064 -2.49009,-3.527619 V 82.567811 c 0,-1.618555 1.03754,-3.029602 2.49009,-3.527619 z m 17.09347,-4.772661 h 3.32011 c 2.07507,0 3.73513,1.660056 3.73513,3.735126 v 9.960336 c 0,2.07507 -1.66006,3.735126 -3.73513,3.735126 h -3.32011 z m -3.32011,-7.055238 v 31.541064 h 3.32011 v -5.395182 h 6.64022 c 2.07507,0 3.73513,-1.660056 3.73513,-3.735126 V 76.342601 c 0,-2.07507 -1.66006,-3.735126 -3.73513,-3.735126 h -6.64022 v -5.395182 z m 23.56764,11.661893 c 1.03754,0 1.82607,0.87153 1.82607,1.909065 v 12.574924 c 0,2.07507 -1.61856,3.735126 -3.69363,3.735126 h -0.0415 v -16.31005 c 0,-1.037535 0.78853,-1.909065 1.82606,-1.909065 z m -1.90906,19.464157 c 0.33201,0.249008 0.70552,0.415014 1.16204,0.415014 h 0.083 0.083 1.99206 c 2.07507,0 3.73513,-1.660056 3.73513,-3.735126 V 80.907755 c 0,-2.07507 -1.66006,-3.735126 -3.73513,-3.735126 h -1.99206 -0.083 -0.083 c -0.45652,0 -0.83003,0.166006 -1.16204,0.415014 v -9.545322 h -3.32011 v 39.011319 h 3.32011 z"
         id="path5" />
      <path
         style="font-family:TallThin;-inkscape-font-specification:TallThin;text-align:center;text-anchor:middle"
         d="m -50.18509,117.844 v -7.47025 h 3.320112 c 2.07507,0 3.735126,1.66005 3.735126,3.73512 v 20.7507 c 0,2.07507 -1.660056,3.73513 -3.735126,3.73513 h -3.320112 v -17.43059 h 4.565154 v -1.66005 h -7.885266 v 20.7507 h 9.960336 c 2.07507,0 3.735126,-1.66006 3.735126,-3.73513 v -24.07081 c 0,-2.07507 -1.660056,-3.73513 -3.735126,-3.73513 h -9.960336 v 9.13031 z m 21.202062,-0.83003 v -2.9051 c 0.954532,0.083 1.701558,0.87153 1.701558,1.86757 v 0.083 0.20751 c 0,1.53555 -0.415014,1.82606 -0.664023,3.0711 -0.332011,-0.41501 -0.830028,-0.66402 -1.411047,-0.66402 h -0.0415 -0.0415 -0.539518 -0.87153 -0.373512 -0.207507 c -2.07507,0 -3.735126,1.66005 -3.735126,3.73512 v 14.11048 c 0,2.07507 1.660056,3.73513 3.735126,3.73513 h 2.905098 c 2.07507,0 3.735126,-1.66006 3.735126,-3.73513 v -17.43059 -4.68966 -0.083 c 0,-1.03753 -0.830028,-1.86756 -1.867563,-1.86756 h -2.324079 v -2.9051 h -2.490084 v 2.9051 h -2.863596 v 1.66005 h 2.863596 v 2.9051 z m -2.863596,19.21515 v -13.90297 -0.0415 c 0,-1.03753 0.788526,-1.90906 1.826061,-1.90906 h 0.0415 0.0415 c 1.037535,0 1.826062,0.87153 1.826062,1.90906 v 0.0415 14.06898 0.2075 0.0415 c 0,1.03753 -0.788527,1.90906 -1.826062,1.90906 h -0.0415 -0.0415 c -1.037535,0 -1.826061,-0.87153 -1.826061,-1.90906 v -0.0415 z m 17.300956,-25.85537 h 3.320112 c 1.037535,0 1.8675628,0.83003 1.8675628,1.86756 h 3.320112 v -1.66005 c 0,-1.03754 -0.830028,-1.86757 -1.867563,-1.86757 H -17.86578 c -1.037535,0 -1.867563,0.83003 -1.867563,1.86757 v 27.80593 c 0,1.03754 0.830028,1.86757 1.867563,1.86757 h 8.0927728 c 2.07507,0 3.735126,-1.66006 3.735126,-3.73513 V 123.6542 h -7.0552378 v 1.66005 h 3.7351258 v 9.54532 c 0,2.07507 -1.6600558,3.73513 -3.7351258,3.73513 h -1.452549 c -1.037535,0 -1.867563,-0.83003 -1.867563,-1.86756 v -24.48583 c 0,-1.03753 0.830028,-1.86756 1.867563,-1.86756 z m 16.8859561,12.32591 v 13.90297 0.0415 c 0,1.03753 0.7885266,1.90906 1.8260616,1.90906 h 0.041501 0.041501 c 1.037535,0 1.8260616,-0.87153 1.8260616,-1.90906 v -0.0415 -14.06897 -0.20751 -0.0415 c 0,-1.03753 -0.7885266,-1.90906 -1.8260616,-1.90906 h -0.041501 -0.041501 c -1.037535,0 -1.8260616,0.87153 -1.8260616,1.90906 v 0.0415 z m 3.735126,17.05708 c -0.3320112,0.33201 -0.7470252,0.49802 -1.245042,0.49802 H 4.7888707 4.7473693 4.2078511 3.3363217 2.9628091 2.7553021 c -2.07506998,0 -3.73512598,-1.66006 -3.73512598,-3.73513 v -14.11048 c 0,-2.07507 1.660056,-3.73512 3.73512598,-3.73512 h 1.7845602 0.1245042 0.041501 c 0.5395182,0 1.037535,0.20751 1.3695462,0.49802 v -0.49802 h 3.320112 v 4.15014 17.01557 4.68966 0.083 c 0,1.03754 -0.830028,1.86757 -1.867563,1.86757 h -8.09277298 v -1.66006 H 4.2078511 c 1.037535,0 1.867563,-0.83003 1.867563,-1.86756 v -0.083 -0.58102 z M 19.682746,110.37375 h 0.996033 c 2.07507,0 3.735126,1.66005 3.735126,3.73512 v 10.79037 c 0,2.07507 -1.701557,3.73512 -3.776627,3.73512 h -3.278611 v 1.66006 h 3.320112 c 2.07507,0 3.735126,1.66006 3.735126,3.73513 v 0.83002 c 0,2.03357 -1.660056,3.73513 -3.735126,3.73513 h -3.320112 -3.320112 v 1.66006 h 9.960336 c 2.07507,0 3.735126,-1.66006 3.735126,-3.73513 v -4.15014 c 0,-1.16204 -0.539518,-2.19957 -1.411047,-2.9051 0.871529,-0.70552 1.411047,-1.74306 1.411047,-2.9051 v -14.11047 c 0,-2.07507 -1.660056,-3.73513 -3.735126,-3.73513 h -7.677759 -0.415014 c -1.037535,0 -1.867563,0.83003 -1.867563,1.86757 v 1.66005 h 3.320112 c 0,-1.03753 0.830028,-1.86756 1.867563,-1.86756 z m 19.749533,19.46416 v -7.55326 c 0,-1.03753 -0.788527,-1.90906 -1.826062,-1.90906 h -0.083 c -1.037535,0 -1.826062,0.87153 -1.826062,1.90906 v 0.1245 h -3.320112 c 0,-2.07507 1.660056,-3.73512 3.735126,-3.73512 h 2.905098 c 2.07507,0 3.735126,1.66005 3.735126,3.73512 v 5.93471 1.03753 0.91303 c 0,1.36955 -0.415014,2.19958 -1.369546,2.9051 0.830028,0.66402 1.369546,1.74306 1.369546,2.9051 v 6.64022 c 0,2.07507 -1.660056,3.73513 -3.735126,3.73513 h -6.22521 v -1.66006 h 4.772661 c 1.037535,0 1.867563,-0.83003 1.867563,-1.86756 v -6.59872 -0.37352 c 0,-0.45651 -0.166006,-0.91303 -0.456515,-1.24504 l -4.108639,2.69759 -0.871529,-1.36954 3.85963,-2.36558 c 0.954532,-0.58102 1.577053,-1.32805 1.577053,-2.49009 z m 8.378155,-21.12422 v 31.54107 h 3.320112 v -9.96034 h 7.055238 v 9.96034 h 3.320112 v -31.54107 h -3.320112 v 19.92067 h -7.055238 v -19.92067 z m 18.75352,0.83003 v 30.71104 h 3.320112 v -15.14801 c 0,-3.61063 0.539518,-4.77267 1.867563,-4.77267 1.286543,0 1.867563,1.16204 1.867563,4.77267 v 15.14801 h 3.320112 V 123.8617 c 0,-3.27861 -1.909065,-5.18767 -4.772661,-5.18767 h -0.830028 c -0.58102,0 -1.16204,0.1245 -1.452549,0.29051 v -9.42082 z m 27.053792,28.71897 v -24.98384 h -3.320112 v 15.35551 H 84.902452 V 108.71369 H 81.58234 v 31.54107 h 3.320112 v -9.96034 h 5.395182 v 9.96034 h 1.535552 0.124504 0.083 0.747025 c 0.664023,0 1.369547,-0.29051 1.909065,-0.83003 l 3.901131,-3.85963 c 0,-0.0415 0,-0.0415 2.324076,-2.44858 0.87153,-0.87153 1.41105,-2.40709 1.41105,-4.10864 v -0.20751 -20.08668 h -3.320112 v 21.37322 0.16601 c 0,1.45255 -0.332011,2.78059 -1.037535,3.65212 z m 13.358314,-28.71897 v 30.71104 h 3.32011 v -15.14801 c 0,-3.61063 0.53952,-4.77267 1.86757,-4.77267 1.28654,0 1.86756,1.16204 1.86756,4.77267 v 13.48795 1.66006 h 1.45255 0.20751 c 1.32804,0 2.69759,-0.58102 3.73512,-1.66006 l 3.56912,-3.77663 c 1.20354,-1.28654 1.41105,-2.03357 1.41105,-3.27861 v -12.0354 c 0,-0.33201 -0.166,-0.70553 -0.45651,-0.95454 l -1.20355,-1.16203 -1.20354,1.16203 c -0.29051,0.24901 -0.45651,0.62253 -0.45651,0.95454 v 13.11444 c 0,1.20354 -0.083,2.07507 -1.03754,2.9881 l -1.95056,1.95057 c -0.24901,0.249 -0.49802,0.45651 -0.74703,0.62252 V 123.8617 c 0,-3.27861 -1.90906,-5.18767 -4.77266,-5.18767 h -0.83003 c -0.58102,0 -1.16204,0.1245 -1.45255,0.29051 v -9.42082 z m 22.48864,-0.83003 v 1.66006 h 4.98017 v 28.22095 h -4.98017 v 1.66006 h 13.69546 v -1.66006 h -5.39518 v -28.22095 h 5.39518 v -1.66006 z m 18.75352,29.6735 v -19.71316 h 3.32011 v 18.05311 c 0,1.03753 0.74703,1.86756 1.66006,1.86756 h 1.86756 v 1.66006 h -5.18767 c -0.91303,0 -1.66006,-0.83003 -1.66006,-1.86757 z m -0.41501,-24.40282 c 0,0.41501 0.2075,0.91303 0.58102,1.20354 l 1.49405,1.45255 1.49405,-1.45255 c 0.37351,-0.29051 0.58102,-0.78853 0.58102,-1.20354 0,-0.41501 -0.20751,-0.87153 -0.58102,-1.16204 l -1.49405,-1.45255 -1.49405,1.45255 c -0.37352,0.29051 -0.58102,0.74703 -0.58102,1.16204 z m 10.66073,-5.27068 v 1.66006 h 4.98017 v 26.35339 c 0,1.03753 -0.74703,1.86756 -1.66006,1.86756 h -3.32011 v 1.66006 h 6.64022 c 0.91303,0 1.66006,-0.83003 1.66006,-1.86757 v -28.01344 h 5.39518 v -1.66006 z m 22.07363,35.89871 v -25.93837 h -3.32011 v 24.27832 c 0,1.03753 -0.74703,1.86756 -1.66006,1.86756 h -1.86756 v 1.66006 h 5.18767 c 0.91303,0 1.66006,-0.83003 1.66006,-1.86757 z m 0.41501,-30.62803 c 0,0.41501 -0.2075,0.91303 -0.58102,1.20354 l -1.49405,1.45255 -1.49405,-1.45255 c -0.37351,-0.29051 -0.58102,-0.78853 -0.58102,-1.20354 0,-0.41501 0.20751,-0.87153 0.58102,-1.16204 l 1.49405,-1.45255 1.49405,1.45255 c 0.37352,0.29051 0.58102,0.74703 0.58102,1.16204 z m 7.96314,15.60453 6.1422,-6.14221 0.083,-0.083 c 0.83003,-0.83003 0.83003,-1.78456 0.83003,-3.69363 v -0.29051 -10.66586 h 3.32011 v 10.66586 0.24901 c 0,1.36955 -0.49802,2.19958 -1.28655,3.0296 l -2.36558,2.49009 -2.86359,2.78059 2.86359,2.78059 2.36558,2.49009 c 0.78853,0.83003 1.28655,1.66005 1.28655,3.0296 v 0.24901 3.77663 h -3.32011 v -3.77663 -0.29051 c 0,-1.82606 0,-2.8221 -0.66403,-3.48612 l -0.24901,-0.29051 -3.40311,-3.40311 -2.73909,2.65609 v 8.59079 h -3.32011 v -31.54107 h 3.32011 z m 18.75353,0 2.9051,-2.9051 c 0.83003,-0.83003 0.83003,-1.78456 0.83003,-3.69363 v -0.29051 -3.1956 c 0,-0.33201 0.166,-0.66403 0.45651,-0.91303 l 1.20354,-1.16204 1.20354,1.16204 c 0.29051,0.249 0.45652,0.58102 0.45652,0.91303 v 3.44461 c 0,1.36955 -0.49802,2.19958 -1.28654,3.02961 l -2.36558,2.49008 -0.83003,0.78853 c 3.1126,1.03753 4.48215,4.10863 4.48215,8.75679 v 2.24108 h -3.32011 v -2.28258 c 0,-2.61459 -0.12451,-6.51572 -2.28258,-7.67776 l -1.45255,1.36955 v 8.59079 h -3.32011 v -30.71104 h 3.32011 z m 19.91554,-0.95454 c -0.083,0 -0.16601,0 -0.24901,0 l -3.61062,-16.55905 c -0.41502,-1.99207 -1.32805,-2.8221 -2.65609,-3.36162 h -1.70156 v 2.9466 c 1.07904,0.29051 2.11657,1.45255 2.36558,2.65609 0.0415,0.0415 1.28655,7.26275 3.11261,14.899 -0.33201,0.12451 -0.66403,0.29051 -0.91303,0.41502 -2.7391,1.49405 -4.56516,4.68966 -4.56516,7.71926 v 2.9051 h 3.32011 v -2.9466 c 0,-4.10864 2.40709,-6.88923 7.05524,-6.88923 v 9.83583 h 3.32011 v -31.54107 h -3.32011 v 19.92067 h -1.86756 z m 14.64488,1.03754 -0.87153,0.78853 -2.36558,2.49008 c -0.78853,0.83003 -1.28655,1.66006 -1.28655,3.0296 v 4.27465 h 3.32011 v -4.02564 -0.29051 c 0,-1.90906 0,-2.8636 0.83003,-3.69362 l 2.9051,-2.9051 v 0.66402 15.64603 h 3.32011 v -26.97591 h -3.32011 v 8.59079 l -1.45255,1.36954 c -2.15807,-1.16203 -2.28258,-5.06317 -2.28258,-7.67775 v -7.67776 h -3.32011 v 7.63625 c 0,4.68966 1.36955,7.76077 4.52366,8.7568 z m 16.0974,8.9228 c -1.03753,0 -1.86756,-0.83003 -1.86756,-1.86756 v -28.01345 h -3.32011 v 29.6735 c 0,1.03754 0.83003,1.86757 1.86756,1.86757 h 11.8279 v -1.66006 z m 16.88594,1.66006 h 2.24108 0.0415 c 0.29051,0 0.33201,-0.083 0.45652,-0.20751 l 0.58102,-0.62252 -0.58102,-0.62252 c -0.12451,-0.12451 -0.16601,-0.20751 -0.45652,-0.20751 -2.69759,0 -2.69759,-1.66006 -2.69759,-3.73513 v -25.31585 h -3.32011 v 26.97591 c 0,2.07507 1.66005,3.73513 3.73512,3.73513 z m 9.62324,0 v -28.05495 c 1.16204,0 2.24108,0.45652 3.0296,1.24504 l 2.36558,2.28258 v 24.52733 h 3.32011 v -24.52733 l 2.36558,-2.28258 c 0.78853,-0.78852 1.86757,-1.24504 3.02961,-1.24504 v 28.05495 h 3.32011 v -31.54107 h -1.49405 -0.33201 -0.24901 c -1.16204,0 -2.24108,0.45652 -3.0296,1.24504 -1.20354,1.16204 -2.40709,2.32408 -3.61063,3.44462 v -4.68966 h -3.32011 v 4.68966 c -1.20354,-1.12054 -2.40708,-2.28258 -3.61062,-3.44462 -0.78853,-0.78852 -1.86756,-1.24504 -3.0296,-1.24504 h -0.29051 -0.29051 -1.49405 v 31.54107 z m 25.80877,0 v -18.50963 c 1.16204,0 2.24108,0.45652 3.0296,1.24504 l 2.8221,2.7391 c -0.29051,0.24901 -0.45652,0.58102 -0.45652,0.91303 v 13.61246 h 3.32012 V 126.6423 c 0,-0.33201 -0.16601,-0.66402 -0.45652,-0.91303 l 2.8221,-2.7391 c 0.78852,-0.78852 1.86756,-1.24504 3.0296,-1.24504 v 17.26458 c 0,0.33202 0.166,0.70553 0.45651,0.95454 l 1.20354,1.16204 1.20354,-1.16204 c 0.29051,-0.24901 0.45652,-0.62252 0.45652,-0.95454 v -20.7507 h -1.49405 -0.33201 -0.24901 c -1.16204,0 -2.24108,0.45652 -3.0296,1.24505 l -5.27068,5.06317 -5.27068,-5.06317 c -0.78852,-0.78853 -1.86756,-1.24505 -3.0296,-1.24505 h -0.29051 -0.29051 -1.49405 v 21.99575 z"
         id="path6" />
      <path
         style="font-family:TallThin;-inkscape-font-specification:TallThin;text-align:center;text-anchor:middle"
         d="m -37.78136,181.75616 v -28.05495 h 1.245042 c 1.16204,0 2.241076,0.45652 3.029603,1.24504 l 2.780593,2.69759 v 24.11232 h 3.320112 v -31.54107 h -3.320112 v 5.10468 c -1.328044,-1.28655 -2.697591,-2.57309 -4.025635,-3.85964 -0.788527,-0.78852 -1.867563,-1.24504 -3.029603,-1.24504 h -0.581019 -2.739093 v 31.54107 z m 18.753522,0 v -18.09461 c 1.162039,0 2.241075,0.45651 3.029602,1.24504 l 2.36558,2.28258 v 14.56699 h 3.320112 v -20.7507 c 0,-0.33201 -0.166006,-0.66403 -0.456516,-0.91303 l -1.20354,-1.16204 -1.203541,1.16204 c -0.29051,0.249 -0.456515,0.58102 -0.456515,0.91303 v 3.85963 l -3.610622,-3.44462 c -0.788527,-0.78853 -1.867563,-1.24504 -3.029602,-1.24504 h -0.29051 -0.29051 -1.49405 v 21.58073 z M 8.0259841,151.00362 v -0.78853 h -3.320112 v 0.78853 0.0415 c 0,1.16204 -0.5395182,2.24108 -1.3280448,3.0296 l -5.7271932,5.9762 v -9.83583 h -3.320112 v 31.54107 h 3.320112 v -19.17365 c 1.74305882,-1.78456 4.7311596,-4.89717 7.055238,-7.30425 v 26.4779 h 3.320112 v -30.66954 z m 7.9631399,30.75254 v -10.87337 c 1.660056,-1.70156 3.693624,-3.81813 5.395182,-5.56119 v 16.43456 h 3.320112 v -20.6677 -0.083 c 0,-0.33201 -0.166006,-0.66403 -0.456516,-0.91303 l -1.20354,-1.16204 -1.203541,1.16204 c -0.29051,0.249 -0.456515,0.58102 -0.456515,0.91303 v 0.0415 c 0,1.16204 -0.830028,2.49008 -1.328045,3.0296 l -4.067137,4.23314 v -8.13427 h -1.535552 -1.78456 v 21.58073 z m 16.67847,-6.22521 v -21.82974 h 1.245042 c 1.162039,0 2.241076,0.49802 3.029602,1.24504 l 2.780594,2.69759 v 17.88711 0.78852 0.0415 c 0,2.07507 -1.660056,3.73513 -3.735126,3.73513 h -6.22521 v 1.66006 h 9.545322 c 2.07507,0 3.735126,-1.66006 3.735126,-3.73513 v -0.0415 -3.27861 -24.48583 h -3.320112 v 5.10468 c -1.328045,-1.28655 -2.656089,-2.57309 -4.025636,-3.85964 -0.788526,-0.78852 -1.867563,-1.24504 -3.029602,-1.24504 h -0.581019 -2.739093 v 25.31586 z m 18.338486,6.22521 v -18.09461 c 1.162039,0 2.241076,0.45651 3.029602,1.24504 l 2.36558,2.28258 v 13.73696 0.83003 2.61459 0.083 c 0,1.03753 -0.830028,1.86756 -1.867563,1.86756 h -6.432717 v 1.66006 h 7.885266 c 2.07507,0 3.735126,-1.66006 3.735126,-3.73513 v -0.24901 -2.24107 -0.83003 -19.92067 c 0,-0.33201 -0.166006,-0.66403 -0.456515,-0.91303 l -1.203541,-1.16204 -1.203541,1.16204 c -0.290509,0.249 -0.456515,0.58102 -0.456515,0.91303 v 3.85963 l -3.610622,-3.44462 c -0.788526,-0.78853 -1.867563,-1.24504 -3.029602,-1.24504 h -0.29051 -0.29051 -1.49405 v 21.58073 z m 13.773376,-3.73513 c 0,2.07507 1.660056,3.73513 3.735126,3.73513 h 6.22521 c 2.07507,0 3.735126,-1.66006 3.735126,-3.73513 v -24.07081 c 0,-2.07507 -1.660056,-3.73513 -3.735126,-3.73513 h -6.22521 c -2.07507,0 -3.735126,1.66006 -3.735126,3.73513 z m 3.320112,-22.41076 c 0,-1.99206 1.577054,-3.61062 3.527619,-3.73512 1.950566,0.1245 3.527619,1.74306 3.527619,3.73512 v 20.7507 c 0,1.99207 -1.577053,3.61063 -3.527619,3.73513 -1.950565,-0.1245 -3.527619,-1.74306 -3.527619,-3.73513 z m 18.75352,9.96034 c 0,-1.99207 0,-3.73513 1.867563,-3.73513 1.867563,0 1.867563,1.74306 1.867563,3.73513 v 10.79036 c 0,1.99207 0,3.73513 -1.867563,3.73513 -1.867563,0 -1.867563,-1.74306 -1.867563,-3.73513 z m -3.320112,12.45042 c 0,2.07507 1.660056,3.73513 3.735126,3.73513 H 90.1732 c 2.07507,0 3.735126,-1.66006 3.735126,-3.73513 v -14.11048 c 0,-2.07507 -1.660056,-3.73512 -3.735126,-3.73512 h -2.905098 c -2.07507,0 -3.735126,1.66005 -3.735126,3.73512 z m 15.018379,0 c 0,2.07507 1.660055,3.73513 3.735125,3.73513 h 5.8102 c 0.74702,0 1.45255,-0.20751 2.03357,-0.58102 0.33201,0.37351 0.83002,0.58102 1.36954,0.58102 h 11.12238 v -1.66006 h -8.50779 c -1.03754,0 -1.86756,-0.83003 -1.86756,-1.86756 v -6.43272 h 8.50778 v -1.66006 h -8.50778 v -18.26061 h 10.37535 v -1.66006 h -10.74887 -0.41501 c -0.53952,0 -0.99603,0.20751 -1.36955,0.58102 -0.58102,-0.37351 -1.24504,-0.58102 -1.99206,-0.58102 h -5.8102 c -2.07507,0 -3.735125,1.66006 -3.735125,3.73513 z m 3.320115,-22.41076 c 0,-1.99206 1.57705,-3.61062 3.52762,-3.73512 1.95056,0.1245 3.52761,1.74306 3.52761,3.73512 v 20.7507 c 0,1.99207 -1.57705,3.61063 -3.52761,3.73513 -1.95057,-0.1245 -3.52762,-1.74306 -3.52762,-3.73513 z m 28.71383,9.96034 c 0,-1.99207 0,-3.73513 1.86757,-3.73513 1.86756,0 1.86756,1.74306 1.86756,3.73513 v 10.79036 c 0,1.99207 0,3.73513 -1.86756,3.73513 -1.86757,0 -1.86757,-1.74306 -1.86757,-3.73513 z m -3.32011,12.45042 c 0,2.07507 1.66006,3.73513 3.73513,3.73513 h 2.44858 0.0415 c 0.78853,0 1.49405,-0.24901 2.11657,-0.66403 0.33201,0.41502 0.83003,0.66403 1.41105,0.66403 h 0.0415 7.63626 v -1.66006 h -5.18768 c -1.03753,0 -1.86756,-0.83003 -1.86756,-1.86756 v -6.43272 h 5.18768 1.86756 v -9.62832 -0.12451 c 0,-1.03753 -0.83003,-1.86756 -1.86756,-1.86756 h -5.7687 -0.0415 c -0.58102,0 -1.07904,0.24901 -1.41105,0.66402 -0.62252,-0.41501 -1.32804,-0.66402 -2.11657,-0.66402 h -0.0415 -2.44858 c -2.07507,0 -3.73513,1.66005 -3.73513,3.73512 z m 12.20141,-16.18555 h 0.083 c 1.03753,0 1.82606,0.87153 1.82606,1.90907 v 0.1245 6.26671 h -1.86757 -1.86756 v -6.43271 c 0,-1.03754 0.78853,-1.86757 1.82606,-1.86757 z m 10.28723,-11.62039 v 31.54107 h 3.32011 v -9.96034 h 6.64023 c 2.07507,0 3.73512,-1.66006 3.73512,-3.73513 v -14.11047 c 0,-2.07507 -1.66005,-3.73513 -3.73512,-3.73513 z m 6.64022,19.92067 h -3.32011 v -18.26061 h 3.32011 c 2.07507,0 3.73513,1.66005 3.73513,3.73512 v 10.79037 c 0,2.07507 -1.66006,3.73512 -3.73513,3.73512 z m 15.47491,9.96034 h -0.0415 v -18.26062 h 0.0415 c 2.07507,0 3.69363,1.66006 3.69363,3.73513 v 10.79036 c 0,2.07507 -1.61856,3.73513 -3.69363,3.73513 z m -0.0415,1.24504 c 0.33201,0.24901 0.70552,0.41502 1.16204,0.41502 h 0.083 0.083 1.99206 c 2.07507,0 3.73513,-1.66006 3.73513,-3.73513 v -14.11048 c 0,-2.07507 -1.66006,-3.73512 -3.73513,-3.73512 h -6.64022 v 29.88101 h 3.32011 z m 15.43339,-25.73087 c 0,-1.99206 1.57705,-3.61062 3.52762,-3.73512 1.95056,0.1245 3.52761,1.74306 3.52761,3.73512 v 20.7507 c 0,1.99207 -1.57705,3.61063 -3.52761,3.73513 -1.95057,-0.1245 -3.52762,-1.74306 -3.52762,-3.73513 z m -3.32012,22.41076 c 0,2.07507 1.66006,3.73513 3.73513,3.73513 h 1.82606 c 1.16204,0 2.24108,0.45651 3.0296,1.24504 l 1.07904,1.03753 c 0.78853,0.78853 1.90906,1.24505 3.0711,1.24505 h 8.42479 v -1.66006 h -5.10467 c -1.16204,0 -2.28258,-0.45652 -3.07111,-1.24504 -1.12054,-1.07904 -1.12054,-1.07904 -1.16204,-1.12054 1.12054,-0.66402 1.86757,-1.86756 1.86757,-3.23711 v -24.07081 c 0,-2.07507 -1.66006,-3.73513 -3.73513,-3.73513 h -6.22521 c -2.07507,0 -3.73513,1.66006 -3.73513,3.73513 z m 29.12889,5.72719 v 0.16601 c 0,1.45255 0.24901,2.8636 1.03753,3.65212 l 0.20751,0.20751 0.20751,-0.20751 c 0.83003,-0.74702 1.03753,-1.66005 1.03753,-3.1126 v -0.0415 -0.083 -0.083 c 0,-0.41501 0.16601,-0.66402 0.45652,-0.91303 l 1.20354,-1.16204 1.20354,1.16204 c 0.29051,0.24901 0.45651,0.49802 0.45651,0.91303 v 0.083 c 0,1.12054 -0.58101,1.53556 -1.99206,3.02961 l -2.57309,2.69759 -1.16204,-1.20354 c -0.0415,-0.0415 -0.0415,-0.0415 -0.083,-0.083 l -1.90907,-1.99206 c -0.87153,-0.87153 -1.41104,-2.40708 -1.41104,-4.10864 v -0.20751 -1.20354 c -0.33201,0.33201 -0.74703,0.49802 -1.24505,0.49802 h -0.0415 -0.0415 -0.53952 -0.87153 -0.37351 -0.20751 c -2.07507,0 -3.73512,-1.66006 -3.73512,-3.73513 v -14.11048 c 0,-2.07507 1.66005,-3.73512 3.73512,-3.73512 h 1.78456 0.12451 0.0415 c 0.53952,0 1.03754,0.20751 1.36955,0.49802 v -0.49802 h 3.32011 v 4.15014 17.01557 z m -7.05524,-19.54716 v 13.90297 0.0415 c 0,1.03753 0.78853,1.90906 1.82606,1.90906 h 0.0415 0.0415 c 1.03753,0 1.82606,-0.87153 1.82606,-1.90906 v -0.0415 -14.06897 -0.20751 -0.0415 c 0,-1.03753 -0.78853,-1.90906 -1.82606,-1.90906 h -0.0415 -0.0415 c -1.03753,0 -1.82606,0.87153 -1.82606,1.90906 v 0.0415 z m 16.67843,5.9347 h -1.66005 v -18.26061 h 3.32011 c 2.07507,0 3.73513,1.66005 3.73513,3.73512 v 9.54533 c 0,2.73909 -2.40709,4.98016 -5.39519,4.98016 z m -4.98016,-19.92067 v 31.54107 h 3.32011 v -9.96034 h 2.15807 v 0.0415 l 4.89717,9.91884 h 3.32011 v -1.66006 l -4.15014,-8.42478 c 2.36558,-0.49802 4.15014,-2.49009 4.15014,-4.85567 v -12.86543 c 0,-2.07507 -1.66006,-3.73513 -3.73513,-3.73513 z m 22.23962,11.8279 c 0,0.62252 -0.16601,1.03754 -0.49802,1.49405 -0.0415,0.083 -0.1245,0.16601 -0.166,0.20751 -0.12451,0 -0.24901,0 -0.41502,-0.0415 -0.83003,-0.12451 -1.41105,-0.66402 -1.41105,-1.49405 0,-0.83003 0.53952,-1.36955 1.36955,-1.36955 0.66402,0 1.12054,0.45652 1.12054,1.12054 z m -1.32805,3.85963 c -0.0415,0.37351 -0.083,0.87153 -0.083,1.41105 v 2.82209 c 0,0.33202 0.16601,0.70553 0.45652,0.95454 l 1.20354,1.16204 1.20354,-1.16204 c 0.29051,-0.24901 0.45651,-0.62252 0.45651,-0.95454 v -5.51968 l 0.20751,-0.20751 1.53555,-1.53555 c 0.53952,-0.53952 0.95453,-0.83003 1.57705,-0.95453 v 19.83767 h 3.32012 v -21.58073 h -2.49009 -0.0415 c -1.32804,0 -2.65609,0.58102 -3.69362,1.66005 l -0.41502,0.45652 v -0.87153 c 0,-1.61855 -1.28654,-2.9051 -2.9051,-2.9051 -2.03356,0 -3.73512,1.61856 -3.73512,3.69363 0,1.95056 1.53555,3.48612 3.40311,3.69362 z m 24.97875,2.11657 -2.07507,-2.03357 -1.12054,-1.12053 -2.49008,-2.49009 c -0.70553,-0.87153 -1.03754,-2.19957 -1.03754,-3.65212 v -0.16601 -4.77266 -0.0415 c 0,-1.03753 0.83003,-1.86756 1.86757,-1.86756 h 3.32011 c 1.03753,0 1.86756,0.83003 1.86756,1.86756 h 3.32011 v -1.66005 c 0,-1.03754 -0.83003,-1.86757 -1.86756,-1.86757 h -9.96034 c -1.03753,0 -1.86756,0.83003 -1.86756,1.86757 v 0.083 5.10467 0.20751 c 0,1.70156 0.53952,3.23711 1.41105,4.10864 2.32408,2.40708 2.32408,2.44858 2.32408,2.44858 l 1.99206,1.95056 1.12054,1.12054 2.69759,2.69759 c 0.62252,0.62252 0.83003,1.36955 0.83003,1.90907 v 0.70552 5.7687 0.0415 c 0,1.03753 -0.83003,1.86756 -1.86756,1.86756 h -3.32011 c -1.03754,0 -1.86757,-0.83003 -1.86757,-1.86756 h -3.32011 v 1.66005 c 0,1.03754 0.83003,1.86757 1.86756,1.86757 h 9.96034 c 1.03753,0 1.86756,-0.83003 1.86756,-1.86757 v -0.083 -0.083 -6.43272 -0.33201 c 0,-0.66402 -0.49801,-1.61855 -1.28654,-2.44858 -2.32408,-2.40708 -2.32408,-2.44859 -2.36558,-2.49009 z m 17.6745,5.8932 -4.89717,-5.39518 c -0.74702,-0.78853 -0.74702,-0.87153 -0.74702,-2.24108 v -1.28654 -1.24504 -0.0415 c 0,-1.20354 0.95453,-1.86757 1.86756,-1.86757 0.91303,0 1.86756,0.66403 1.86756,1.86757 0,0.33201 0.16601,0.70552 0.45652,0.95453 l 1.20354,1.16204 1.20354,-1.16204 c 0.29051,-0.24901 0.45652,-0.62252 0.45652,-0.95453 v -1.66006 c 0,-1.03753 -0.83003,-1.86756 -1.86757,-1.86756 h -4.77266 c -2.07507,0 -3.73512,1.61855 -3.73512,3.69362 v 0.0415 c 0,1.70156 0,2.57309 1.41104,4.10864 l 4.93867,5.43669 c 0.66402,0.74702 0.70552,0.83002 0.70552,1.99206 v 1.49405 1.24505 0.0415 c 0,1.20354 -0.95453,1.86756 -1.86756,1.86756 -0.91303,0 -1.86756,-0.66402 -1.86756,-1.86756 h -3.32011 v 1.66005 c 0,1.03754 0.83002,1.86757 1.86756,1.86757 h 4.77266 c 2.07507,0 3.73513,-1.61856 3.73513,-3.69363 v -0.0415 c 0,-1.70156 0,-2.53158 -1.41105,-4.10864 z m 6.05407,4.15014 v -0.70552 -0.33201 c 0,-0.66403 0.49801,-1.61856 1.28654,-2.44859 2.32408,-2.44858 2.36558,-2.49008 2.36558,-2.49008 l 3.61062,-3.61062 c 0.62252,-0.70552 0.95453,-1.57705 1.03754,-2.49009 -0.083,-0.91303 -0.41502,-1.78456 -1.03754,-2.49008 l -3.52762,-3.52762 c 0,0 0,-0.0415 -2.32408,-2.44858 -0.87152,-0.87153 -1.41104,-2.40708 -1.41104,-4.10864 v -0.20751 -0.49801 -0.53952 -0.083 c 0,-1.03754 0.83002,-1.86757 1.86756,-1.86757 h 9.96034 c 1.03753,0 1.86756,0.83003 1.86756,1.86757 v 1.66005 h -3.32011 c 0,-1.03753 -0.83003,-1.86756 -1.86757,-1.86756 h -3.32011 c -1.03753,0 -1.86756,0.83003 -1.86756,1.86756 v 0.0415 0.16601 0.53952 0.83003 c 0,1.24504 0.0415,1.95056 1.03753,2.9881 l 2.49009,2.49008 5.18767,5.18767 -5.18767,5.18768 -2.69759,2.69759 c -0.78853,0.83003 -0.83003,1.32805 -0.83003,1.90907 v 0.70552 1.57705 0.12451 0.0415 c 0,1.03753 0.83003,1.86756 1.86756,1.86756 h 3.32011 c 1.03754,0 1.86757,-0.83003 1.86757,-1.86756 h 3.32011 v 1.66005 c 0,1.03754 -0.83003,1.86757 -1.86756,1.86757 h -9.96034 c -1.03754,0 -1.86756,-0.83003 -1.86756,-1.86757 v -0.083 -0.083 z m 27.3028,-2.07507 c 1.41105,2.11657 1.41105,6.55722 1.41105,8.25878 v 0.0415 c 0,2.07507 -1.66006,3.69363 -3.73513,3.69363 h -4.77266 c -1.03753,0 -1.86756,-0.83003 -1.86756,-1.86757 v -1.66005 h 3.32011 c 0,1.20354 0.95453,1.86756 1.86756,1.86756 0.91303,0 1.86757,-0.66402 1.86757,-1.86756 v -0.0415 -1.24505 -1.49405 c 0,-3.85963 -0.0415,-5.10467 -0.70553,-6.1422 l -4.93866,-7.51176 c -0.12451,-0.166 -1.41105,-2.36558 -1.41105,-4.10864 v -0.0415 c 0,-2.07507 1.66005,-3.69362 3.73512,-3.69362 h 4.77266 c 1.03754,0 1.86757,0.83003 1.86757,1.86756 v 1.66006 c 0,0.33201 -0.16601,0.70552 -0.45652,0.95453 l -1.20354,1.16204 -1.20354,-1.16204 c -0.29051,-0.24901 -0.45651,-0.62252 -0.45651,-0.95453 0,-1.20354 -0.95454,-1.86757 -1.86757,-1.86757 -0.91303,0 -1.86756,0.66403 -1.86756,1.86757 v 0.0415 1.24504 1.28654 c 0,1.28655 0.66402,2.07507 0.74703,2.24108 z"
         id="path7" />
      <path
         style="font-family:TallThin;-inkscape-font-specification:TallThin;text-align:center;text-anchor:middle"
         d="m -44.7976,191.71649 v 1.66006 h 4.980168 v 28.01344 c 0,1.03754 0.747025,1.86757 1.660056,1.86757 h 3.403115 v -1.66006 h -0.083 c -0.913031,0 -1.660056,-0.83003 -1.660056,-1.86756 v -26.35339 h 5.395182 v -1.66006 z m 25.601252,13.57096 v 14.44249 c 0,1.03753 0.747025,1.86756 1.660056,1.86756 h 1.867563 v 1.66006 h -5.187675 c -0.913031,0 -1.660056,-0.83003 -1.660056,-1.86757 v -16.55905 -1.49406 h -0.622521 -2.905098 v -1.66005 h 1.577053 0.87153 c 1.037535,0 1.079036,-0.37351 1.079036,-1.41105 v -0.45651 -2.28258 c 0,-0.33201 0.166006,-0.70552 0.456516,-0.95453 l 1.20354,-1.16204 1.203541,1.16204 c 0.29051,0.24901 0.456515,0.62252 0.456515,0.95453 v 4.15014 h 3.527619 v 1.66005 h -1.660056 -0.871529 c -0.996034,0 -0.996034,0.45652 -0.996034,1.49406 z m 8.170646,-13.57096 v 19.71317 c 0,1.03753 0.830028,1.86756 1.8675635,1.86756 h 8.50778697 v 9.96034 H 2.6697605 v -31.54107 h -3.32011203 v 19.92067 H -5.8380265 c -1.037535,0 -1.867563,-0.83002 -1.867563,-1.86756 v -18.05311 z m 25.393728,19.92067 c -0.498017,0 -1.618555,0 -1.826062,0 h -0.0415 c -1.867563,0 -1.867563,-1.74305 -1.867563,-3.73512 v -6.22521 H 7.312788 v 7.88526 c 0,2.07507 1.660056,3.73513 3.735126,3.73513 h 0.0415 3.278611 v 9.96034 h 3.320112 v -21.58073 h -3.320112 z m 18.753501,-19.92067 v 26.14588 c 0,1.99207 -1.577053,3.61063 -3.527619,3.73513 -1.950565,-0.1245 -3.527619,-1.74306 -3.527619,-3.73513 v -26.14588 h -3.320112 v 27.80594 c 0,2.07507 1.660056,3.73513 3.735126,3.73513 h 6.22521 c 2.07507,0 3.735126,-1.66006 3.735126,-3.73513 v -27.80594 z m 18.753527,9.96034 h -3.320112 v 16.18554 c 0,1.99207 0,3.73513 -1.867563,3.73513 -1.867563,0 -1.867563,-1.74306 -1.867563,-3.73513 v -16.18554 h -3.320112 v 17.8456 c 0,2.07507 1.660056,3.73513 3.735126,3.73513 h 2.905098 c 2.07507,0 3.735126,-1.66006 3.735126,-3.73513 z m 4.643022,17.8456 c 0,2.07507 1.660056,3.73513 3.735126,3.73513 h 6.22521 c 2.07507,0 3.735126,-1.66006 3.735126,-3.73513 v -8.71529 c 0,-1.45255 -0.830028,-2.69759 -2.033569,-3.32012 1.203541,-0.62252 2.033569,-1.86756 2.033569,-3.32011 v -12.45042 h -3.320112 v 10.79037 c 0,1.99206 -1.577053,3.61062 -3.527619,3.73512 -1.950566,-0.1245 -3.527619,-1.74306 -3.527619,-3.73512 v -10.79037 h -3.320112 v 12.45042 c 0,1.45255 0.830028,2.69759 2.033569,3.32011 -1.203541,0.62253 -2.033569,1.86757 -2.033569,3.32012 z m 3.320112,-7.05524 c 0,-1.99206 1.577053,-3.61062 3.527619,-3.73512 1.950566,0.1245 3.527619,1.74306 3.527619,3.73512 v 5.39518 c 0,1.99207 -1.577053,3.61063 -3.527619,3.73513 -1.950566,-0.1245 -3.527619,-1.74306 -3.527619,-3.73513 z m 24.978717,-10.79036 h -3.320112 v 6.0177 c 0,1.99207 0,3.73513 -1.867563,3.73513 -1.867563,0 -1.867563,-1.74306 -1.867563,-3.73513 v -6.0177 h -3.320112 v 7.67776 c 0,1.28654 0.664023,2.44858 1.660056,3.1126 -0.996033,0.66403 -1.660056,1.82606 -1.660056,3.11261 v 3.94263 c 0,2.07507 1.660056,3.73513 3.735126,3.73513 h 2.905098 c 2.07507,0 3.735126,-1.66006 3.735126,-3.73513 v -3.94263 c 0,-1.28655 -0.664022,-2.44858 -1.660056,-3.11261 0.996034,-0.66402 1.660056,-1.82606 1.660056,-3.1126 z m -7.055238,15.56302 c 0,-1.99206 0,-3.73512 1.867563,-3.73512 1.867563,0 1.867563,1.74306 1.867563,3.73512 v 0.62252 c 0,1.99207 0,3.73513 -1.867563,3.73513 -1.867563,0 -1.867563,-1.74306 -1.867563,-3.73513 z m 15.018352,-25.52336 h -3.320112 v 31.54107 h 3.320112 0.124504 c 1.079037,0 2.490084,-1.12054 3.112605,-2.03357 l 3.486118,-5.35368 c 0.332011,-0.49802 0.622524,-0.99604 2.199574,-3.40312 0.70552,-1.12053 1.45255,-2.15807 1.45255,-4.60665 v -1.95057 -14.19348 h -3.320113 v 17.38909 c 0,1.95057 -0.0415,3.27861 -1.037535,4.81416 l -2.36558,3.61062 c -0.622521,0.91303 -1.535551,1.66006 -2.697591,1.90907 l -0.954532,0.20751 z m 16.927471,31.54107 h 0.16601 c 1.32804,0 2.69759,-0.58102 3.73512,-1.66006 l 3.56912,-3.77663 c 1.20354,-1.28654 1.41105,-2.03357 1.41105,-3.27861 v -12.0354 c 0,-0.33201 -0.166,-0.70553 -0.45651,-0.95454 l -1.20354,-1.16203 -1.20354,1.16203 c -0.29051,0.24901 -0.45652,0.62253 -0.45652,0.95454 v 13.11444 c 0,1.20354 -0.083,2.07507 -1.03754,2.9881 l -1.95056,1.95057 c -0.24901,0.249 -0.49802,0.45651 -0.74703,0.62252 v -19.50566 h -3.32011 v 19.92067 1.66006 z m 25.97474,-1.99207 v -26.85141 h -3.32011 v 26.85141 l -4.35765,-4.35765 c -0.70552,-0.87153 -1.03753,-2.19957 -1.03753,-3.65212 v -0.16601 -19.71316 -1.66006 h -3.32011 v 20.08668 0.20751 c 0,1.70155 0.53952,3.23711 1.41105,4.10864 2.32407,2.40708 2.32407,2.44858 2.32407,2.44858 l 3.90114,3.85963 c 0.49801,0.49802 1.16203,0.83003 1.90906,0.83003 h 0.70552 0.20751 0.74703 c 0.66402,0 1.36954,-0.29051 1.90906,-0.83003 l 3.90113,-3.85963 c 0,0 0,-0.0415 2.32408,-2.44858 0.87153,-0.87153 1.41105,-2.40709 1.41105,-4.10864 v -0.20751 -20.08668 h -3.32011 v 1.66006 19.71316 0.16601 c 0,1.45255 -0.33202,2.78059 -1.03754,3.65212 z m 24.0657,-0.0415 c 0.0415,-0.29051 0.083,-0.62252 0.083,-0.87153 v -17.8456 c 0,-0.33201 -0.166,-0.70553 -0.45651,-0.95454 l -1.20354,-1.16203 -1.20354,1.16203 c -0.29051,0.24901 -0.45652,0.62253 -0.45652,0.95454 v 17.8456 c 0,0.24901 0.0415,0.58102 0.083,0.87153 -0.29051,-0.16601 -0.53951,-0.37351 -0.83002,-0.66402 l -1.95057,-1.95057 c -0.95453,-0.91303 -1.03753,-1.78456 -1.03753,-2.9881 v -13.94447 h -3.32012 v 12.86543 c 0,1.24504 0.20751,1.99207 1.41105,3.27861 l 3.56912,3.77663 c 1.03754,1.07904 2.40708,1.66006 3.73513,1.66006 1.32804,0 2.69759,-0.58102 3.73512,-1.66006 l 3.56912,-3.77663 c 1.20354,-1.28654 1.41105,-2.03357 1.41105,-3.27861 v -12.86543 h -3.32011 v 13.94447 c 0,1.20354 -0.083,2.07507 -1.03754,2.9881 l -1.95056,1.95057 c -0.29051,0.29051 -0.53952,0.49801 -0.83003,0.66402 z m 11.78128,-1.70156 c 0,2.07507 1.66005,3.73513 3.73512,3.73513 h 6.22521 c 0.78853,0 1.49405,-0.24901 2.07507,-0.62252 0.58102,0.37351 1.28655,0.62252 2.07507,0.62252 h 6.22521 c 2.07507,0 3.73513,-1.66006 3.73513,-3.73513 v -24.07081 c 0,-2.07507 -1.66006,-3.73513 -3.73513,-3.73513 h -5.39518 c -0.87153,0 -1.82606,0.29051 -2.65609,0.78853 -0.62252,-0.49802 -1.45255,-0.78853 -2.32408,-0.78853 h -6.22521 c -2.07507,0 -3.73512,1.66006 -3.73512,3.73513 z m 3.32011,-22.41076 c 0,-1.99206 1.57705,-3.73512 3.52762,-3.73512 h 0.87153 c 1.12054,0 2.11657,0.58102 2.73909,1.45255 -0.0415,0.2075 -0.083,0.41501 -0.083,0.62252 v 22.41075 c 0,1.99207 -1.53555,3.73513 -3.48612,3.73513 h -0.0415 c -1.95057,0 -3.52762,-1.74306 -3.52762,-3.73513 z m 10.33385,23.07478 c 0.0415,-0.2075 0.0415,-0.45651 0.0415,-0.66402 v -22.41076 c 0,-1.99206 1.53555,-3.73512 3.48612,-3.73512 h 0.0415 c 1.95056,0 3.52762,1.74306 3.52762,3.73512 v 20.7507 c 0,1.99207 -1.57706,3.73513 -3.52762,3.73513 h -0.87153 c -1.12054,0 -2.07507,-0.58102 -2.69759,-1.41105 z m 18.37999,-13.11444 c 0,-1.99207 0,-3.73513 2.28257,-3.73513 0.78853,0 1.32805,0.29051 1.66006,0.83003 -0.12451,0.37352 -0.20751,0.78853 -0.20751,1.24504 v 12.45042 c 0,1.99207 0,3.73513 -1.86756,3.73513 -1.86756,0 -1.86756,-1.74306 -1.86756,-3.73513 z m -3.32012,12.45042 c 0,2.07507 1.66006,3.73513 3.73513,3.73513 h 2.9051 c 0.70552,0 1.36954,-0.20751 1.90906,-0.53952 0.49802,0.33201 1.12054,0.53952 1.82606,0.53952 h 3.32012 c 2.07507,0 3.73512,-1.66006 3.73512,-3.73513 v -14.11048 c 0,-2.07507 -1.66005,-3.73512 -3.73512,-3.73512 h -2.9051 c -0.70553,0 -1.36955,0.20751 -1.90907,0.53952 -0.49801,-0.33201 -1.12053,-0.53952 -1.82606,-0.53952 h -3.32011 c -2.07507,0 -3.73513,1.66005 -3.73513,3.73512 z m 10.16785,1.24504 c 0.1245,-0.37351 0.2075,-0.78852 0.2075,-1.24504 v -12.45042 c 0,-1.99207 0,-3.73513 1.86757,-3.73513 1.86756,0 1.86756,1.74306 1.86756,3.73513 v 10.79036 c 0,1.99207 0,3.73513 -2.28258,3.73513 -0.78852,0 -1.32804,-0.29051 -1.66005,-0.83003 z m 26.01624,-16.80806 v -0.20751 -12.03541 h -3.32011 v 1.66006 11.66189 0.16601 c 0,1.45255 -0.33201,2.78059 -1.03754,3.65212 l -2.49008,2.49009 -2.49009,-2.49009 c -0.70552,-0.87153 -1.03753,-2.19957 -1.03753,-3.65212 v -0.16601 -11.66189 -1.66006 h -3.32011 v 12.03541 0.20751 c 0,1.70155 0.53951,3.23711 1.41104,4.10863 2.32408,2.40709 2.32408,2.44859 2.32408,2.44859 l 1.95057,1.95056 -2.03357,2.03357 c -0.0415,0.0415 -0.0415,0.083 -2.36558,2.49009 -0.78853,0.83002 -1.28654,1.78456 -1.28654,2.44858 v 3.81813 h 3.32011 v -3.61062 -0.74703 -0.70552 c 0,-0.53952 0.20751,-1.28655 0.83003,-1.90907 l 2.69759,-2.69759 2.69759,2.69759 c 0.62252,0.62252 0.83003,1.36955 0.83003,1.90907 v 0.70552 0.74703 3.61062 h 3.32011 v -3.81813 c 0,-0.66402 -0.49802,-1.61856 -1.28655,-2.44858 -2.32407,-2.40709 -2.32407,-2.44859 -2.36557,-2.49009 l -2.03357,-2.03357 1.95056,-1.95056 c 0,0 0,-0.0415 2.32408,-2.44859 0.87153,-0.87152 1.41105,-2.40708 1.41105,-4.10863 z m 15.43342,1.66005 v -0.20751 -3.73512 h -3.32011 v 3.32011 1.70156 0.166 c 0,1.45255 -0.33201,2.7806 -1.03754,3.65213 l -0.83002,0.83003 -0.83003,-0.83003 c -0.70553,-0.87153 -1.03754,-2.19958 -1.03754,-3.65213 v -0.166 -1.70156 -3.32011 h -3.32011 v 3.73512 0.20751 c 0,1.70156 0.53952,3.23711 1.41105,4.10864 2.32408,2.40708 2.36558,2.44858 2.36558,2.44858 l 0.29051,0.29051 -0.41502,0.37352 c -0.0415,0.0415 -0.0415,0.083 -2.36558,2.49008 -0.78852,0.83003 -1.28654,1.78456 -1.28654,2.44858 v 5.47819 h 3.32011 v -5.27068 -0.74703 -0.70552 c 0,-0.53952 0.20751,-1.28654 0.83003,-1.90906 l 1.03754,-1.03754 1.03753,1.03754 c 0.62252,0.62252 0.83003,1.36954 0.83003,1.90906 v 0.70552 0.74703 5.27068 h 3.32011 v -5.47819 c 0,-0.70552 -0.49802,-1.61855 -1.28654,-2.44858 -2.32408,-2.40708 -2.32408,-2.44858 -2.36558,-2.49008 l -0.37351,-0.37352 0.2905,-0.29051 c 0,0 0,-0.0415 2.32408,-2.44858 0.87153,-0.87153 1.41105,-2.40708 1.41105,-4.10864 z m 19.16851,-1.90906 v -0.20751 -11.7864 h -3.32011 v 1.66006 11.41288 0.16601 c 0,1.45255 -0.33201,2.78059 -1.03753,3.65212 l -2.6976,2.65609 -2.69759,-2.65609 c -0.70552,-0.87153 -1.03753,-2.19957 -1.03753,-3.65212 v -0.16601 -11.41288 -1.66006 h -3.32011 v 11.7864 0.20751 c 0,1.70155 0.53951,3.23711 1.41104,4.10864 2.32408,2.40708 2.32408,2.44858 2.32408,2.44858 l 2.15808,2.15807 -1.82607,1.82606 -2.36558,2.49009 c -0.78852,0.83003 -1.28654,1.78456 -1.28654,2.44858 v 4.06714 h 3.32011 v -3.85963 -0.74703 -0.70552 c 0,-0.53952 0.20751,-1.28655 0.83003,-1.90907 l 5.8102,-5.76869 2.32407,-2.44858 c 0.87153,-0.87153 1.41105,-2.40709 1.41105,-4.10864 z m 7.54815,22.32775 0.0415,-0.0415 2.8636,-2.8221 1.16204,-1.16204 0.49802,-0.49801 2.24107,-2.36558 0.083,-0.083 c 0.83002,-0.91304 1.41104,-2.40709 1.41104,-4.10864 v -0.20751 -13.03144 h -3.32011 v 14.31798 0.16601 c 0,1.45255 -0.24901,2.8636 -1.03753,3.65212 l -0.083,0.083 -0.95453,0.95454 -0.99603,-0.99604 -0.0415,-0.0415 c -0.78853,-0.78852 -1.03754,-2.19957 -1.03754,-3.65212 v -0.16601 -14.31798 h -3.32011 v 13.03144 0.20751 c 0,1.70155 0.58102,3.1956 1.41105,4.10864 l 0.0415,0.0415 2.28258,2.40708 0.53951,0.53952 -4.60665,4.64815 -0.0415,0.0415 c -0.78853,0.83003 -1.28655,1.78456 -1.28655,2.44859 v 0.083 2.28258 h 3.32012 v -3.48612 -0.1245 c 0,-0.53952 0.2075,-1.28655 0.83002,-1.90907 z m 16.67846,-4.44065 h 10.37535 v 1.66006 h -10.37535 -3.32012 v -1.66006 -12.36742 c 0,-0.83002 0.45652,-1.61855 1.28655,-2.44858 l 8.05127,-8.13427 c 0.74702,-0.78853 1.03753,-2.19958 1.03753,-3.65213 v -1.61855 h -10.37535 v -1.66006 h 10.37535 3.32012 v 1.66006 0.78853 c 0,1.70155 -0.53952,3.2371 -1.41105,4.10863 l -2.57309,2.65609 -4.39915,4.39915 c -1.70155,1.70156 -1.99206,3.40312 -1.99206,6.22521 z m 16.71996,-8.17577 0.0415,-0.0415 4.64816,-4.73116 0.0415,-0.0415 c 0.95453,-0.95453 1.03754,-2.19957 1.03754,-3.65212 v -0.083 -1.53556 h -7.05524 v -1.66005 h 7.05524 3.32011 v 1.66005 0.74703 0.0415 c 0,1.70156 -0.53952,3.23711 -1.41105,4.10864 l -0.0415,0.0415 -4.35765,4.44065 -0.0415,0.0415 c -1.20354,1.20354 -1.20354,2.11657 -1.20354,4.56516 v 0.0415 4.23314 h 7.05524 v 1.66006 h -7.05524 -3.32011 v -1.66006 -5.68569 -0.0415 c 0,-0.83003 0.45651,-1.61856 1.28654,-2.44858 z"
         id="path8" />
    </g>
  </g>
</svg>
