<?xml version="1.0" encoding="UTF-8" standalone="no"?>
<!-- Created with Inkscape (http://www.inkscape.org/) -->

<svg
   width="938.31281"
   height="629.85394"
   viewBox="0 0 248.26191 166.64885"
   version="1.1"
   id="svg1"
   inkscape:version="1.4 (86a8ad7, 2024-10-11)"
   sodipodi:docname="Alphabet Leaf Tech Lowercase.svg"
   xmlns:inkscape="http://www.inkscape.org/namespaces/inkscape"
   xmlns:sodipodi="http://sodipodi.sourceforge.net/DTD/sodipodi-0.dtd"
   xmlns="http://www.w3.org/2000/svg"
   xmlns:svg="http://www.w3.org/2000/svg">
  <sodipodi:namedview
     id="namedview1"
     pagecolor="#ffffff"
     bordercolor="#000000"
     borderopacity="0.25"
     inkscape:showpageshadow="2"
     inkscape:pageopacity="0.0"
     inkscape:pagecheckerboard="0"
     inkscape:deskcolor="#d1d1d1"
     inkscape:document-units="px"
     inkscape:zoom="1.0393815"
     inkscape:cx="490.19537"
     inkscape:cy="335.29556"
     inkscape:window-width="1920"
     inkscape:window-height="1027"
     inkscape:window-x="-8"
     inkscape:window-y="-8"
     inkscape:window-maximized="1"
     inkscape:current-layer="layer1" />
  <defs
     id="defs1" />
  <g
     inkscape:label="Layer 1"
     inkscape:groupmode="layer"
     id="layer1"
     transform="translate(-12.614727,-64.968622)">
    <text
       xml:space="preserve"
       style="font-size:41.5014px;line-height:1;font-family:'BlockTrain Hand';-inkscape-font-specification:'BlockTrain Hand';text-align:start;letter-spacing:1.32292px;writing-mode:lr-tb;direction:ltr;text-anchor:start;display:none;fill:#17a23e;fill-opacity:0.854902;stroke:#4d804f;stroke-width:1.16723;stroke-dasharray:none;stroke-opacity:1"
       x="137.9259"
       y="98.753357"
       id="text1"><tspan
         style="font-style:normal;font-variant:normal;font-weight:normal;font-stretch:normal;font-size:41.5014px;font-family:'Leaf Tech';-inkscape-font-specification:'Leaf Tech';text-align:center;letter-spacing:1.32292px;text-anchor:middle;fill:#17a23e;fill-opacity:0.854902;stroke:#4d804f;stroke-width:1.16723;stroke-dasharray:none;stroke-opacity:1"
         x="0"
         y="0"
         sodipodi:role="line"
         id="tspan19">aæbcçdefφþ</tspan><tspan
         style="font-style:normal;font-variant:normal;font-weight:normal;font-stretch:normal;font-size:41.5014px;font-family:'Leaf Tech';-inkscape-font-specification:'Leaf Tech';text-align:center;letter-spacing:1.32292px;text-anchor:middle;fill:#17a23e;fill-opacity:0.854902;stroke:#4d804f;stroke-width:1.16723;stroke-dasharray:none;stroke-opacity:1"
         x="0"
         y="0"
         sodipodi:role="line"
         id="tspan22">ðgȝhƕijkʞlm</tspan><tspan
         style="font-style:normal;font-variant:normal;font-weight:normal;font-stretch:normal;font-size:41.5014px;font-family:'Leaf Tech';-inkscape-font-specification:'Leaf Tech';text-align:center;letter-spacing:1.32292px;text-anchor:middle;fill:#17a23e;fill-opacity:0.854902;stroke:#4d804f;stroke-width:1.16723;stroke-dasharray:none;stroke-opacity:1"
         x="0"
         y="0"
         sodipodi:role="line"
         id="tspan23">nиŋoœpqrsʃ</tspan><tspan
         style="font-style:normal;font-variant:normal;font-weight:normal;font-stretch:normal;font-size:41.5014px;font-family:'Leaf Tech';-inkscape-font-specification:'Leaf Tech';text-align:center;letter-spacing:1.32292px;text-anchor:middle;fill:#17a23e;fill-opacity:0.854902;stroke:#4d804f;stroke-width:1.16723;stroke-dasharray:none;stroke-opacity:1"
         x="0"
         y="0"
         sodipodi:role="line"
         id="tspan24">tчuȣvwꝏxyz</tspan></text>
    <g
       id="text28"
       style="font-size:41.5014px;line-height:1;font-family:'BlockTrain Hand';-inkscape-font-specification:'BlockTrain Hand';letter-spacing:1.32292px;fill:#17a23e;fill-opacity:0.854902;stroke:#4d804f;stroke-width:1.16723"
       aria-label="aæbcçdefφþ&#10;ðgȝhƕijkʞlm&#10;nиŋoœpqrsʃ&#10;tчuȣvwꝏxyz">
      <path
         style="font-family:'Leaf Tech';-inkscape-font-specification:'Leaf Tech';text-align:center;text-anchor:middle"
         d="m 15.107406,86.966959 h 6.847731 c 3.818129,0 6.930734,3.071104 6.930734,6.889233 v 2.988101 H 22.03814 c -3.85963,0 -6.930734,-3.112605 -6.930734,-6.972236 z m -0.954532,-5.727193 c -0.539518,0 -0.954532,0.373513 -0.954532,0.913031 0,0.498017 0.415014,0.954532 0.954532,0.954532 h 9.794331 c 2.739092,0 4.938666,2.158073 4.938666,4.897165 v 0.456516 c -1.618554,-2.033569 -4.108638,-3.403115 -6.930734,-3.403115 h -8.756795 v 4.814162 c 0,4.897166 3.984134,8.8813 8.839798,8.8813 h 8.715294 V 88.004494 c 0,-3.776627 -3.071103,-6.764728 -6.806229,-6.764728 z m 44.193858,-5.146173 q 2.697591,0 4.648157,1.245042 1.950565,1.245042 2.9881,3.486117 1.079037,2.241076 1.079037,5.229177 v 2.241075 h -14.23498 q 0.083,3.984135 1.701557,5.893199 1.660056,1.867563 4.73116,1.867563 2.07507,0 3.652123,-0.373513 1.577053,-0.415014 3.154106,-1.162039 v 3.195608 q -1.660056,0.747025 -3.27861,1.079036 -1.577054,0.373513 -3.652124,0.373513 -5.851697,0 -8.424784,-4.689658 -1.411047,2.158073 -3.320112,3.444616 -1.909064,1.245042 -5.104672,1.245042 -3.029602,0 -5.063171,-1.577053 -1.992067,-1.618555 -1.992067,-5.02167 0,-3.320112 2.490084,-5.104672 2.490084,-1.826061 7.636258,-1.992067 l 3.735126,-0.124504 v -1.411048 q 0,-2.697591 -1.286544,-3.776627 -1.245042,-1.079037 -3.361613,-1.079037 -1.660056,0 -3.278611,0.498017 -1.577053,0.498017 -2.946599,1.203541 l -1.120538,-2.739093 q 1.452549,-0.830028 3.527619,-1.369546 2.07507,-0.539518 4.108639,-0.539518 2.573086,0 4.233142,0.871529 1.701558,0.830028 2.573087,2.697591 1.079037,-1.701557 2.822095,-2.656089 1.743059,-0.954532 3.984135,-0.954532 z m -0.0415,2.9881 q -2.407081,0 -3.818128,1.660056 -1.369547,1.618555 -1.577054,4.689659 h 10.292348 q 0,-2.863597 -1.203541,-4.606656 -1.162039,-1.743059 -3.693625,-1.743059 z m -12.408918,8.922801 q -3.901132,0.166006 -5.395182,1.328045 -1.494051,1.162039 -1.494051,3.278611 0,1.867563 1.037535,2.739092 1.079037,0.87153 2.822096,0.87153 2.614588,0 4.357647,-1.535552 1.78456,-1.577053 1.78456,-4.814163 V 87.87999 Z M 76.64374,83.065828 h 6.847731 c 3.85963,0 6.930734,3.112605 6.930734,6.930734 v 6.847731 h -6.847731 c -3.818129,0 -6.930734,-3.071104 -6.930734,-6.930734 z m -4.897165,-16.60056 c 0,0.249008 0.083,0.456515 0.249008,0.622521 1.701558,1.909064 2.739093,4.44065 2.739093,7.221243 v 15.604527 c 0,4.855664 3.984134,8.839798 8.839798,8.839798 h 8.756795 v -8.756795 c 0,-4.855664 -3.984134,-8.798297 -8.839798,-8.798297 H 76.64374 v -6.889233 c 0,-3.27861 -1.245042,-6.22521 -3.237109,-8.507787 -0.166006,-0.166005 -0.415014,-0.249008 -0.705524,-0.249008 -0.539518,0 -0.954532,0.373513 -0.954532,0.913031 z m 24.39769,14.732997 v 8.715294 c 0,4.855664 3.984135,8.839798 8.839795,8.839798 h 7.80227 c 0.49801,0 0.91303,-0.415014 0.91303,-0.954532 0,-0.498017 -0.41502,-0.954532 -0.91303,-0.954532 h -7.80227 c -3.85963,0 -6.930731,-3.071104 -6.930731,-6.930734 v -6.847731 h 8.839801 c 2.73909,0 4.93866,2.199574 4.93866,4.938666 0,0.539519 0.41502,0.954533 0.95454,0.954533 0.49801,0 0.91303,-0.415014 0.91303,-0.954533 0,-3.735126 -3.07111,-6.806229 -6.80623,-6.806229 z M 127.30668,105.8916 c -1.57705,0 -2.9051,-1.32805 -2.9051,-2.9051 h 1.74306 c 0,0.58102 0.58102,1.16204 1.16204,1.16204 h 1.16204 v -1.16204 c 0,-0.58102 -0.58102,-1.16204 -1.16204,-1.16204 h 0.0415 v -1.74306 c 1.53556,0 2.8636,1.32805 2.8636,2.9051 v 2.9051 z m -9.79433,-24.693335 v 8.715294 c 0,4.316145 3.11261,7.968269 7.22125,8.715294 -0.20751,0.373512 -0.29051,0.830028 -0.29051,1.286543 v 1.909064 h 2.86359 v -1.74306 h -1.12053 v -0.166004 c 0,-0.539518 0.49801,-1.079036 1.03753,-1.162039 h 6.93073 c 0.49802,0 0.91303,-0.415014 0.91303,-0.954532 0,-0.498017 -0.41501,-0.954532 -0.91303,-0.954532 h -7.80226 c -3.85963,0 -6.93073,-3.071104 -6.93073,-6.930734 v -6.847731 h 8.8398 c 2.73909,0 4.93866,2.199574 4.93866,4.938666 0,0.539519 0.41502,0.954533 0.95453,0.954533 0.49802,0 0.91303,-0.415014 0.91303,-0.954533 0,-3.735126 -3.0711,-6.806229 -6.80622,-6.806229 z m 9.83583,18.883135 h -0.0415 z m 20.28906,-34.529163 c -0.53952,0 -0.95454,0.373513 -0.95454,0.913031 0,0.498017 0.41502,0.954532 0.95454,0.954532 3.81812,0 6.93073,3.071104 6.93073,6.889232 V 84.60138 c -1.61856,-2.07507 -4.10864,-3.403115 -6.93073,-3.403115 h -8.7568 v 8.715294 c 0,4.855664 3.98413,8.839798 8.8398,8.839798 h 8.71529 V 74.309032 c 0,-4.855663 -3.94263,-8.756795 -8.79829,-8.756795 z m -6.84774,17.513591 h 6.84774 c 3.81812,0 6.93073,3.112605 6.93073,6.930734 v 6.847731 h -6.84773 c -3.85963,0 -6.93074,-3.071104 -6.93074,-6.930734 z m 19.45903,-1.826062 v 8.673793 c 0,4.855664 3.98413,8.839798 8.8398,8.839798 h 7.76076 c 0.53952,0 0.95453,-0.415014 0.95453,-0.954532 0,-0.498017 -0.41501,-0.954532 -0.95453,-0.954532 h -7.76076 c -3.48612,0 -6.34972,-2.531586 -6.84773,-5.893199 1.03753,0.954532 2.32407,1.660056 4.19164,1.660056 h 11.37138 v -2.614588 c 0,-4.855664 -3.94263,-8.756796 -8.7983,-8.756796 z m 1.90906,1.867563 h 6.84773 c 3.81813,0 6.88924,3.071104 6.88924,6.889233 v 0.705523 h -9.46232 c -2.40708,0 -4.27465,-1.909064 -4.27465,-4.274644 z m 20.41356,20.460191 c 0.24901,0 0.45651,-0.083 0.62252,-0.24901 2.69759,-2.40708 4.23314,-5.851696 4.23314,-9.420817 V 83.107329 h 9.46232 c 0.53952,0 0.95453,-0.415014 0.95453,-0.954532 0,-0.498017 -0.41501,-0.954532 -0.95453,-0.954532 h -9.42082 c 0.45652,-4.814163 4.48215,-8.549289 9.42082,-8.549289 h 5.22918 c 0.53952,0 0.95453,-0.415014 0.95453,-0.91303 0,-0.539519 -0.41501,-0.954533 -0.95453,-0.954533 h -5.22918 c -5.9347,0 -10.83186,4.565154 -11.32988,10.416852 h -2.9881 c -0.53952,0 -0.95453,0.456515 -0.95453,0.954532 0,0.539518 0.41501,0.954532 0.95453,0.954532 h 2.9466 v 10.790364 c 0,3.029602 -1.28655,5.976202 -3.56912,8.009767 -0.20751,0.16601 -0.33201,0.41502 -0.33201,0.70553 0,0.53952 0.41501,0.95453 0.95453,0.95453 z m 36.35008,5.14617 v -9.628322 q -3.27861,-0.29051 -5.76869,-1.701557 -2.49009,-1.452549 -3.85963,-3.901132 -1.36955,-2.490084 -1.36955,-5.851697 0,-5.063171 2.8636,-8.051272 2.86359,-2.988101 8.13427,-3.403115 v -8.964302 h 3.56912 v 8.964302 q 3.32012,0.29051 5.7687,1.743059 2.49008,1.452549 3.85963,3.901132 1.36954,2.448582 1.36954,5.810196 0,5.021669 -2.9466,8.00977 -2.90509,2.988101 -8.05127,3.444616 v 9.628322 z m 0,-12.53342 V 79.123195 q -3.81813,0.373512 -5.51968,2.531585 -1.66006,2.158073 -1.66006,5.976202 0,3.818129 1.70156,6.017703 1.70156,2.158073 5.47818,2.531585 z m 3.56912,0 q 3.73513,-0.415014 5.47819,-2.573087 1.74306,-2.199574 1.74306,-5.976201 0,-7.677759 -7.22125,-8.466286 z m 37.80267,-8.59079 q 0,5.685692 -2.53158,8.632292 -2.49009,2.946599 -6.59873,2.946599 -2.61458,0 -4.27464,-0.954532 -1.66006,-0.954532 -2.65609,-2.282577 h -0.24901 q 0.0415,0.29051 0.083,0.954532 0.083,0.664022 0.12451,1.369546 0.0415,0.705524 0.0415,1.162039 v 9.296311 h -3.65212 V 67.212293 h 3.65212 v 9.296314 q 0,0.581019 -0.0415,1.535551 -0.0415,0.913031 -0.083,1.452549 h 0.166 q 0.99604,-1.411047 2.61459,-2.407081 1.61855,-0.996033 4.27464,-0.996033 4.10864,0 6.59873,2.905098 2.53158,2.905098 2.53158,8.590789 z m -3.77663,-0.0415 q 0,-4.191641 -1.45254,-6.266711 -1.45255,-2.116572 -4.52366,-2.116572 -3.40311,0 -4.81416,1.909065 -1.41105,1.909064 -1.49405,5.727193 v 0.788526 q 0,4.108639 1.32804,6.349715 1.36955,2.199574 5.02167,2.199574 3.07111,0 4.48216,-2.199574 1.45254,-2.241076 1.45254,-6.391216 z"
         id="path28" />
      <path
         style="font-family:'Leaf Tech';-inkscape-font-specification:'Leaf Tech';text-align:center;text-anchor:middle"
         d="m 31.191731,109.13389 q 1.328044,0.62252 2.656089,1.36954 1.369546,0.74703 2.573087,1.61856 l 4.772661,-2.7806 1.577053,2.24108 -4.108638,2.36558 q 2.822095,2.65609 4.606655,6.55722 1.826062,3.90113 1.826062,8.9643 0,5.8932 -2.780594,8.8813 -2.780594,2.9466 -7.594756,2.9466 -2.988101,0 -5.31218,-1.20354 -2.282577,-1.24504 -3.610621,-3.48612 -1.286544,-2.28257 -1.286544,-5.39518 0,-4.64816 2.614588,-7.30424 2.65609,-2.65609 7.138241,-2.65609 2.199574,0 3.818129,0.58102 1.660056,0.58101 2.65609,1.82606 l 0.166005,-0.083 q -0.664022,-2.36558 -2.033568,-4.35764 -1.369547,-1.99207 -3.112605,-3.56912 l -5.395182,3.1126 -1.577054,-2.28258 4.648157,-2.65608 q -0.871529,-0.58102 -1.826061,-1.12054 -0.954533,-0.58102 -1.909065,-1.07904 z m 3.610621,15.06501 q -3.486117,0 -5.06317,1.86756 -1.535552,1.82606 -1.535552,5.27068 0,3.0296 1.577053,5.02167 1.577053,1.95056 5.021669,1.95056 3.444617,0 5.02167,-1.99207 1.577053,-2.03356 1.577053,-5.85169 0,-2.57309 -1.618555,-4.39915 -1.618554,-1.86756 -4.980168,-1.86756 z m 17.01043,0.99603 h 6.847731 c 3.818129,0 6.930734,3.1126 6.930734,6.93073 v 6.84773 h -6.847731 c -3.85963,0 -6.930734,-3.0711 -6.930734,-6.93073 z m -1.909064,19.00764 c 0,0.37351 0.207507,0.66402 0.456515,0.83003 1.867563,1.07903 4.067137,1.70156 6.391216,1.70156 H 67.45881 v -14.6085 c 0,-4.85566 -3.942633,-8.79829 -8.798297,-8.79829 h -8.756795 v 8.71529 c 0,4.85566 3.984134,8.8398 8.839798,8.8398 h 6.847731 v 3.94263 h -8.839798 c -1.992067,0 -3.818129,-0.49802 -5.436684,-1.41105 -0.124504,-0.083 -0.290509,-0.166 -0.456515,-0.166 -0.498017,0 -0.954532,0.41501 -0.954532,0.95453 z m 21.368088,3.36161 q 6.681725,-1.41104 10.08484,-3.69362 3.444616,-2.24108 3.444616,-5.7687 0,-2.11657 -0.954532,-3.32011 -0.913031,-1.24504 -2.573087,-2.07507 -1.203541,0.49802 -2.614588,0.91303 -1.369546,0.41502 -2.905098,0.78853 l -0.705524,-2.73909 q 3.652123,-0.95454 5.602689,-1.90907 1.992067,-0.99603 2.739092,-2.11657 0.747026,-1.12054 0.747026,-2.53158 0,-1.90907 -1.203541,-2.9051 -1.162039,-1.03754 -3.237109,-1.03754 -1.826062,0 -3.444616,0.41502 -1.577054,0.41501 -3.112605,1.24504 l -1.245042,-2.65609 q 1.909064,-1.07904 3.85963,-1.49405 1.950566,-0.45652 3.984134,-0.45652 2.282577,0 4.108639,0.70553 1.826061,0.66402 2.905098,2.19957 1.120538,1.49405 1.120538,3.98414 0,1.95056 -0.996034,3.48611 -0.954532,1.49405 -2.739092,2.61459 1.826061,0.87153 3.112605,2.49009 1.328044,1.57705 1.328044,4.39914 0,3.61063 -2.158072,6.05921 -2.158073,2.44858 -6.059205,4.02563 -3.85963,1.57706 -9.088806,2.65609 z m 21.907627,-38.96981 c 0,0.24901 0.083,0.45651 0.249008,0.62252 1.701557,1.90906 2.739092,4.44065 2.739092,7.22124 v 15.60453 c 0,4.85566 3.984137,8.8398 8.839797,8.8398 0.53952,0 0.95453,-0.41502 0.95453,-0.95453 0,-0.49802 -0.41501,-0.95454 -0.95453,-0.95454 -3.81813,0 -6.930732,-3.0711 -6.930732,-6.93073 v -6.84773 h 6.847732 c 3.85963,0 6.93073,3.1126 6.93073,6.93073 v 7.80227 c 0,0.53951 0.41502,0.95453 0.95453,0.95453 0.49802,0 0.95454,-0.41502 0.95454,-0.95453 v -7.80227 c 0,-4.85566 -3.98414,-8.79829 -8.8398,-8.79829 h -6.847732 v -6.88924 c 0,-3.27861 -1.245042,-6.22521 -3.237109,-8.50778 -0.166006,-0.16601 -0.415014,-0.24901 -0.705524,-0.24901 -0.539518,0 -0.954532,0.37351 -0.954532,0.91303 z m 49.672047,32.7031 q -4.39915,0 -6.64023,-1.90906 -2.24107,-1.95057 -2.24107,-6.22521 v -6.51572 q 0,-2.69759 -1.12054,-4.02564 -1.07904,-1.32804 -3.40312,-1.32804 -3.40311,0 -4.68966,2.11657 -1.24504,2.07507 -1.24504,5.9762 v 11.49589 h -3.65212 v -31.54107 h 3.65212 v 9.25482 q 0,1.66005 -0.2075,3.1126 h 0.249 q 0.99604,-1.70156 2.7391,-2.57309 1.74306,-0.87153 3.73512,-0.87153 3.77663,0 5.68569,1.95057 1.90907,1.90907 1.90907,6.18371 v 6.51572 q 0,5.35368 5.22918,5.35368 2.69759,0 3.94263,-1.45255 1.28654,-1.45255 1.28654,-4.73116 v -13.44645 h 3.65212 v 13.57096 q 0,4.98016 -2.24107,7.05523 -2.19958,2.03357 -6.64022,2.03357 z m 20.62107,-1.36954 c 0,-0.24901 -0.083,-0.45652 -0.24901,-0.62253 -1.70156,-1.90906 -2.7806,-4.44065 -2.7806,-7.22124 v -7.84376 c 0,-0.49802 -0.41501,-0.91303 -0.91303,-0.91303 -0.53951,0 -0.95453,0.41501 -0.95453,0.91303 v 7.84376 c 0,3.27861 1.20354,6.22521 3.23711,8.46629 0.16601,0.2075 0.41501,0.33201 0.70552,0.33201 0.53952,0 0.95454,-0.41502 0.95454,-0.95453 z m -5.8102,-21.16572 v 1.86756 h 1.82606 c 1.03754,0 1.86757,-0.83002 1.86757,-1.86756 v -1.82606 h -1.82607 c -1.07903,0 -1.86756,0.83003 -1.86756,1.82606 z m 6.42762,27.97195 c 0.2075,0 0.37351,-0.0415 0.53951,-0.16601 3.40312,-2.24108 5.64419,-6.14221 5.64419,-10.58286 V 124.2404 c 0,-0.49802 -0.41501,-0.91303 -0.91303,-0.91303 -0.53951,0 -0.95453,0.41501 -0.95453,0.91303 v 11.74489 c 0,3.77663 -1.95056,7.09674 -4.85566,9.00581 -0.24901,0.166 -0.41502,0.45651 -0.41502,0.78852 0,0.58102 0.45652,0.95454 0.95454,0.95454 z m 3.44461,-29.00948 v 1.86756 h 1.82606 c 1.03754,0 1.86757,-0.83003 1.86757,-1.86756 v -1.82606 h -1.82606 c -1.07904,0 -1.86757,0.83002 -1.86757,1.82606 z m 8.46112,-2.24108 c -0.53952,0 -0.95453,0.41502 -0.95453,0.95453 v 15.60453 c 0,4.85566 3.98413,8.8398 8.83979,8.8398 0.53952,0 0.95454,-0.41502 0.95454,-0.95453 0,-0.49802 -0.41502,-0.95454 -0.95454,-0.95454 -3.85963,0 -6.93073,-3.0711 -6.93073,-6.93073 v -6.84773 h 6.80623 c 3.85963,0 6.97223,3.1126 6.97223,6.97223 v 7.76077 c 0,0.53951 0.41502,0.95453 0.95454,0.95453 0.49801,0 0.91303,-0.41502 0.91303,-0.95453 v -7.76077 c 0,-3.56912 -2.11657,-6.64022 -5.18768,-8.05127 1.90907,-1.20354 3.19561,-3.32011 3.19561,-5.72719 0,-0.53952 -0.41501,-0.95453 -0.95453,-0.95453 -0.53952,0 -0.95453,0.41501 -0.95453,0.95453 0,2.73909 -2.19958,4.93867 -4.93867,4.93867 h -6.80623 v -6.88924 c 0,-0.53951 -0.45652,-0.95453 -0.95453,-0.95453 z m 34.19202,18.21912 q 0,-0.66403 0.0415,-1.74306 0.083,-1.07904 0.1245,-1.86757 h -0.166 q -0.24901,0.33202 -0.74703,0.95454 -0.45651,0.62252 -0.99603,1.28654 -0.53952,0.62252 -0.91303,1.03753 l -7.09674,7.51176 h -4.27465 l 9.00581,-9.50382 -9.62833,-12.74093 h 4.39915 l 7.71926,10.37535 2.53159,-2.19958 v -8.17577 h 3.61062 v 31.54106 h -3.61062 z m 9.70623,-25.06685 c 0,0.24901 0.083,0.45652 0.24901,0.62252 1.70155,1.90907 2.73909,4.44065 2.73909,7.17974 v 7.84377 7.84376 c 0,2.69759 0.83003,5.18768 2.28258,7.22125 0.29051,0.45651 0.58102,0.83002 0.95453,1.20354 0.166,0.2075 0.41501,0.33201 0.70552,0.33201 0.53952,0 0.95453,-0.41502 0.95453,-0.95453 0,-0.24901 -0.083,-0.45652 -0.249,-0.62253 -1.70156,-1.90906 -2.7391,-4.44065 -2.7391,-7.17974 v -7.84376 -7.84377 c 0,-3.23711 -1.24504,-6.18371 -3.23711,-8.42478 -0.2075,-0.20751 -0.45651,-0.33201 -0.70552,-0.33201 -0.53952,0 -0.95453,0.41501 -0.95453,0.95453 z m 9.62323,14.6915 v 12.69942 c 0,2.65609 2.19957,4.85567 4.85566,4.85567 0.53952,0 0.95453,-0.41502 0.95453,-0.95453 0,-0.49802 -0.41501,-0.95454 -0.95453,-0.95454 -1.66005,0 -2.9466,-1.28654 -2.9466,-2.9466 v -10.83186 h 2.9051 c 1.12054,0 2.11657,0.29051 3.0296,0.74702 v 10.08484 c 0,2.65609 2.19958,4.85567 4.85567,4.85567 h 0.95453 v -8.7153 c 0,-2.82209 -1.36955,-5.35368 -3.44462,-6.97223 h 2.49009 c 3.81813,0 6.93073,3.1126 6.93073,6.97223 v 7.76077 c 0,0.53951 0.41501,0.95453 0.95453,0.95453 0.49802,0 0.95453,-0.41502 0.95453,-0.95453 v -7.76077 c 0,-4.89716 -3.98413,-8.83979 -8.83979,-8.83979 h -4.85567 v 0.53951 c -0.95453,-0.33201 -1.95056,-0.53951 -3.0296,-0.53951 z m 9.75283,3.94263 c 1.24504,1.24504 2.03357,2.9881 2.03357,4.89716 v 6.64023 c -1.20354,-0.37351 -2.03357,-1.45255 -2.03357,-2.7806 z"
         id="path29" />
      <path
         style="font-family:'Leaf Tech';-inkscape-font-specification:'Leaf Tech';text-align:center;text-anchor:middle"
         d="m 37.912481,183.01156 c 0.539518,0 0.954532,-0.37351 0.954532,-0.91303 v -0.0415 -15.68753 c 0,-0.49802 -0.415014,-0.87153 -0.954532,-0.87153 -0.498017,0 -0.954532,0.37351 -0.954532,0.87153 v 2.53158 c -1.618555,-2.11657 -4.108639,-3.40311 -6.930734,-3.40311 h -8.715294 v 8.71529 c 0,4.85567 3.942633,8.7983 8.798297,8.7983 0.539518,0 0.954532,-0.41501 0.954532,-0.95453 0,-0.49802 -0.415014,-0.95454 -0.954532,-0.95454 -3.818129,0 -6.930734,-3.0711 -6.930734,-6.88923 v -6.88923 h 6.847731 c 3.85963,0 6.930734,3.1126 6.930734,6.97224 v 7.76076 c 0,0.53952 0.415014,0.95453 0.954532,0.95453 z m 7.050104,0 v -22.24475 h 3.610622 v 13.57096 q 0,0.49801 -0.0415,1.45255 -0.0415,0.95453 -0.124504,1.90906 -0.0415,0.91303 -0.083,1.49405 h 0.0415 l 10.790364,-18.42662 h 4.523653 v 22.24475 h -3.610622 v -13.11444 q 0,-0.66403 0,-1.66006 0.0415,-1.03753 0.083,-1.99207 0.0415,-0.99603 0.083,-1.53555 h -0.0415 l -10.707361,18.30212 z m 39.919236,9.96034 q -0.996034,0 -1.701558,-0.16601 -0.705524,-0.1245 -1.245042,-0.33201 v -2.9466 q 0.58102,0.166 1.162039,0.29051 0.58102,0.1245 1.328045,0.1245 1.203541,0 1.992067,-0.74702 0.788527,-0.70553 0.788527,-2.73909 v -17.7211 q 0,-5.31218 -4.938667,-5.31218 -3.693624,0 -5.146173,2.07507 -1.411048,2.03357 -1.411048,5.9347 v 11.57889 h -3.652123 v -22.24475 h 2.946599 l 0.58102,3.0296 h 0.207507 q 1.079036,-1.74306 2.905098,-2.57309 1.867563,-0.87153 4.025636,-0.87153 4.067137,0 6.100706,1.95057 2.033568,1.90906 2.033568,6.18371 v 17.8456 q 0,3.11261 -1.452549,4.85566 -1.452549,1.78457 -4.523652,1.78457 z m 29.419369,-27.51543 h -8.7153 c -4.27464,0 -7.843762,3.0711 -8.67379,7.09674 -0.124504,0.58102 -0.166006,1.16204 -0.166006,1.74306 v 8.71529 h 8.756796 c 4.85566,0 8.7983,-3.94263 8.7983,-8.7983 z m -1.90907,1.90906 v 6.84773 c 0,3.81813 -3.0711,6.88923 -6.88923,6.88923 h -6.847731 v -6.80622 c 0,-3.85964 3.071101,-6.93074 6.930731,-6.93074 z m 32.57347,-6.97223 q 4.19164,0 6.59872,2.73909 2.40708,2.69759 2.40708,7.26274 v 2.19958 h -14.7745 q 0.083,3.98413 1.78456,5.8517 1.74306,1.86756 4.93867,1.86756 2.19957,0 3.77663,-0.37351 1.61855,-0.41502 3.27861,-1.16204 v 3.1956 q -1.66006,0.74703 -3.27861,1.07904 -1.61856,0.37351 -3.81813,0.37351 -2.8221,0 -4.98017,-1.16204 -2.15807,-1.16204 -3.48612,-3.44461 -1.28654,2.28257 -3.40311,3.44461 -2.11657,1.16204 -4.85567,1.16204 -2.90509,0 -5.18767,-1.32804 -2.24108,-1.36955 -3.56912,-3.94263 -1.28654,-2.61459 -1.28654,-6.30822 0,-5.47818 2.69759,-8.46628 2.73909,-2.9881 7.47025,-2.9881 2.61459,0 4.68966,1.16204 2.07507,1.16203 3.32011,3.40311 1.20354,-2.19957 3.15411,-3.36161 1.99206,-1.20354 4.52365,-1.20354 z m -0.0415,2.9881 q -2.49009,0 -3.94264,1.61855 -1.45255,1.61856 -1.70155,4.68966 h 10.83186 q 0,-2.8636 -1.24504,-4.56515 -1.24504,-1.74306 -3.94263,-1.74306 z m -15.81204,0.0415 q -3.27861,0 -4.73116,2.11657 -1.45255,2.11657 -1.45255,6.30821 0,4.19164 1.49405,6.39122 1.49406,2.15807 4.77267,2.15807 3.23711,0 4.73116,-2.11657 1.49405,-2.11657 1.49405,-6.26671 0,-4.31615 -1.53556,-6.43272 -1.49405,-2.15807 -4.77266,-2.15807 z m 29.58534,2.03357 v 24.44432 c 0,0.53952 0.41501,0.95453 0.95453,0.95453 0.49802,0 0.95453,-0.41501 0.95453,-0.95453 v -10.29235 c 1.61856,2.07507 4.06714,3.40312 6.88924,3.40312 h 8.75679 v -8.7983 c 0,-4.81416 -3.94263,-8.75679 -8.75679,-8.75679 z m 1.90906,1.86756 h 6.88924 c 3.81812,0 6.88923,3.0711 6.88923,6.88923 v 6.88923 h -6.88923 c -3.81813,0 -6.88924,-3.0711 -6.88924,-6.88923 z m 36.05959,27.47393 h 0.0415 c 0.53952,0 0.91303,-0.41502 0.91303,-0.95454 0,-1.66005 1.32804,-2.94659 2.9881,-2.9881 0.49802,0 0.95453,-0.41501 0.95453,-0.91303 0,-0.53952 -0.45651,-0.95453 -0.95453,-0.95453 -1.12054,0 -2.15807,0.41501 -2.9881,1.03754 v -15.81204 c 0,-4.81416 -3.94263,-8.75679 -8.7568,-8.75679 h -8.79829 v 8.75679 c 0,4.85567 3.94263,8.7983 8.79829,8.7983 h 6.88924 v 10.83186 c 0,0.53952 0.37351,0.95454 0.91303,0.95454 z m -14.6915,-27.47393 h 6.88923 c 3.81813,0 6.88924,3.0711 6.88924,6.88923 v 6.88923 h -6.88924 c -3.81813,0 -6.88923,-3.0711 -6.88923,-6.88923 z m 22.1981,-3.90113 h 0.99603 c 0.58102,0 0.99603,0.45651 0.99603,0.99603 v 1.07904 h -0.99603 c -0.58102,0 -0.99603,-0.49802 -0.99603,-1.07904 z m -1.90907,-1.86756 v 2.86359 c 0,1.61856 1.32805,2.9051 2.9051,2.9051 h 0.99603 v 6.88923 c 0,3.81813 -3.0711,6.88923 -6.88923,6.88923 -0.49802,0 -0.95453,0.45652 -0.95453,0.95454 0,0.53952 0.45651,0.95453 0.95453,0.95453 4.85566,0 8.7983,-3.94263 8.7983,-8.7983 v -6.88923 h 1.66005 c 2.36558,0 4.27465,1.90906 4.27465,4.27464 v 6.55723 c 0,2.65608 2.19957,4.85566 4.85566,4.85566 0.53952,0 0.95453,-0.41501 0.95453,-0.95453 0,-0.49802 -0.41501,-0.95454 -0.95453,-0.95454 -1.66005,0 -2.9466,-1.28654 -2.9466,-2.94659 v -6.55723 c 0,-3.36161 -2.78059,-6.1007 -6.18371,-6.1007 h -1.66005 v -1.07904 c 0,-1.57705 -1.32805,-2.86359 -2.9051,-2.86359 z m 38.54963,8.00977 c 0,-0.12451 -0.0415,-0.24901 -0.083,-0.37352 -0.91303,-2.07507 -3.0711,-3.73512 -5.68569,-3.73512 h -11.41289 v 3.56912 c 0,3.36161 2.7806,6.1422 6.18371,6.1422 h 9.50382 v 1.66006 c 0,2.36558 -1.90906,4.27464 -4.27464,4.27464 h -10.45835 c -0.53952,0 -0.95454,0.45652 -0.95454,0.95454 0,0.53952 0.41502,0.95453 0.95454,0.95453 h 10.45835 c 3.40311,0 6.14221,-2.78059 6.14221,-6.18371 v -3.52762 h -11.37139 c -2.36558,0 -4.27464,-1.90906 -4.27464,-4.27464 v -1.70156 h 9.50382 c 1.82606,0 3.32011,1.16204 3.94263,2.61459 0.12451,0.33201 0.45652,0.58102 0.87153,0.58102 0.53952,0 0.95453,-0.45652 0.95453,-0.95453 z m 11.94727,-18.30212 q 0.91303,0 1.70156,0.20751 0.78853,0.166 1.20354,0.45651 v 2.78059 q -0.33201,-0.166 -0.95453,-0.29051 -0.62252,-0.166 -1.20354,-0.166 -1.28655,0 -1.95057,0.78853 -0.62252,0.74702 -0.62252,3.1956 v 27.80594 q 0,2.69759 -0.74702,4.19164 -0.74703,1.53555 -1.99207,2.11657 -1.24504,0.62253 -2.73909,0.62253 -0.91303,0 -1.70156,-0.20751 -0.74703,-0.16601 -1.20354,-0.45652 v -2.78059 q 0.33201,0.166 0.99603,0.29051 0.62252,0.166 1.16204,0.166 1.28654,0 1.90907,-0.78852 0.66402,-0.74703 0.66402,-3.19561 v -27.80594 q 0,-2.73909 0.74702,-4.23314 0.74703,-1.49405 1.99207,-2.07507 1.28654,-0.62252 2.73909,-0.62252 z"
         id="path30" />
      <path
         style="font-family:'Leaf Tech';-inkscape-font-specification:'Leaf Tech';text-align:center;text-anchor:middle"
         d="m 19.669982,199.7418 c -0.539518,0 -0.954532,0.41502 -0.954532,0.95454 v 15.60452 c 0,4.85567 3.984135,8.8398 8.839798,8.8398 0.539519,0 0.954533,-0.41501 0.954533,-0.95453 0,-0.49802 -0.415014,-0.95453 -0.954533,-0.95453 -3.85963,0 -6.930733,-3.07111 -6.930733,-6.93074 v -6.84773 h 6.847731 c 0.539518,0 0.954532,-0.41501 0.954532,-0.95453 0,-0.49802 -0.415014,-0.91303 -0.954532,-0.91303 h -6.847731 v -6.88923 c 0,-0.53952 -0.456516,-0.95454 -0.954533,-0.95454 z m 28.672324,25.39886 v -8.8398 q -3.23711,1.28655 -6.391216,1.28655 -8.383283,0 -8.383283,-7.51176 v -7.17974 h 3.652123 v 6.84773 q 0,2.53159 1.245042,3.69363 1.286544,1.12053 4.067138,1.12053 2.9881,0 5.810196,-1.20354 v -10.45835 h 3.652123 v 22.24475 z M 59.04457,207.58557 c -0.539518,0 -0.954532,0.41501 -0.954532,0.91303 v 7.80226 c 0,4.85567 3.984135,8.8398 8.839798,8.8398 H 75.64513 V 208.4986 c 0,-0.49802 -0.415014,-0.91303 -0.91303,-0.91303 -0.539519,0 -0.954533,0.41501 -0.954533,0.91303 v 14.733 h -6.847731 c -3.85963,0 -6.930733,-3.07111 -6.930733,-6.93074 v -7.80226 c 0,-0.49802 -0.456516,-0.91303 -0.954533,-0.91303 z m 31.452928,17.9701 q -2.946599,0 -5.270677,-1.20354 -2.282577,-1.20354 -3.610622,-3.52762 -1.328045,-2.32407 -1.328045,-5.60268 0,-3.48612 1.411048,-5.60269 1.411047,-2.15808 3.984134,-3.07111 -1.992067,-0.70552 -2.988101,-2.49008 -0.996033,-1.78456 -0.996033,-5.10467 v -5.35368 h 3.652123 v 5.22917 q 0,3.27861 1.245042,4.73116 1.286543,1.45255 3.984134,1.45255 2.697591,0 3.942633,-1.45255 1.286544,-1.45255 1.286544,-4.73116 v -5.22917 h 3.652123 v 5.35368 q 0,3.36161 -1.037535,5.14617 -0.996034,1.78456 -2.988101,2.49008 2.490084,0.91304 3.942633,3.07111 1.494052,2.11657 1.494052,5.56119 0,4.93866 -2.822097,7.63625 -2.780594,2.69759 -7.553255,2.69759 z m 0.083,-3.0296 q 3.361614,0 4.938667,-1.95056 1.577053,-1.95057 1.577053,-5.35368 0,-3.36162 -1.577053,-5.27068 -1.577053,-1.90907 -4.980168,-1.90907 -3.403115,0 -4.938667,1.90907 -1.535552,1.90906 -1.535552,5.27068 0,3.40311 1.535552,5.35368 1.577053,1.95056 4.980168,1.95056 z M 105.51591,208.4986 c 0,0.24901 0.083,0.49802 0.24901,0.66402 1.70156,1.90907 2.73909,4.39915 2.73909,7.17974 v 8.7983 h 3.19561 c 6.26671,0 11.37138,-5.10467 11.37138,-11.41288 v -5.22918 c 0,-0.49802 -0.41501,-0.91303 -0.91303,-0.91303 -0.53952,0 -0.95453,0.41501 -0.95453,0.91303 v 5.22918 c 0,5.27067 -4.27464,9.50382 -9.50382,9.50382 h -1.28654 v -6.88924 c 0,-3.23711 -1.24505,-6.22521 -3.23711,-8.46628 -0.16601,-0.16601 -0.41502,-0.29051 -0.70553,-0.29051 -0.53952,0 -0.95453,0.41501 -0.95453,0.91303 z m 39.25519,0 c 0,0.24901 0.083,0.49802 0.24901,0.66402 1.70156,1.90907 2.73909,4.39915 2.73909,7.17974 v 6.88924 h -5.56118 c -1.66006,0 -2.9466,-1.28655 -2.98811,-2.9051 v -0.0415 -6.55722 c 0,-0.49802 -0.41501,-0.95454 -0.91303,-0.95454 h -0.0415 c -0.49801,0 -0.91303,0.45652 -0.91303,0.95454 v 6.55722 0.0415 c -0.0415,1.61855 -1.32804,2.9051 -2.9881,2.9051 h -5.56119 v -6.88924 c 0,-2.78059 1.03754,-5.27067 2.7391,-7.17974 0.166,-0.166 0.249,-0.41501 0.249,-0.66402 0,-0.49802 -0.41501,-0.91303 -0.95453,-0.91303 -0.29051,0 -0.53952,0.1245 -0.70552,0.29051 -1.99207,2.24107 -3.23711,5.22917 -3.23711,8.46628 v 8.7983 h 7.47025 c 1.61856,0 3.0296,-0.78853 3.94263,-1.99207 0.87153,1.20354 2.28258,1.99207 3.90114,1.99207 h 7.47025 v -8.7983 c 0,-3.23711 -1.20354,-6.22521 -3.23711,-8.46628 -0.16601,-0.16601 -0.41502,-0.29051 -0.70553,-0.29051 -0.53951,0 -0.95453,0.41501 -0.95453,0.91303 z m 30.33237,5.47818 q 0,5.51969 -2.82209,8.54929 -2.7806,3.0296 -7.55326,3.0296 -2.9466,0 -5.27068,-1.32804 -2.28257,-1.36955 -3.61062,-3.94263 -1.32804,-2.61459 -1.32804,-6.30822 0,-5.51968 2.78059,-8.50778 2.7806,-2.9881 7.55326,-2.9881 3.0296,0 5.31218,1.36954 2.32407,1.32805 3.61062,3.90113 1.32804,2.53159 1.32804,6.22521 z m -16.80806,0 q 0,3.94264 1.53555,6.26671 1.57705,2.28258 4.98017,2.28258 3.36161,0 4.93866,-2.28258 1.57706,-2.32407 1.57706,-6.26671 0,-3.94263 -1.57706,-6.18371 -1.57705,-2.24107 -4.98017,-2.24107 -3.40311,0 -4.93866,2.24107 -1.53555,2.24108 -1.53555,6.18371 z m 33.69913,0 q 0,5.51969 -2.82209,8.54929 -2.7806,3.0296 -7.55326,3.0296 -2.9466,0 -5.27068,-1.32804 -2.28257,-1.36955 -3.61062,-3.94263 -1.32804,-2.61459 -1.32804,-6.30822 0,-5.51968 2.78059,-8.50778 2.7806,-2.9881 7.55326,-2.9881 3.0296,0 5.31218,1.36954 2.32407,1.32805 3.61062,3.90113 1.32804,2.53159 1.32804,6.22521 z m -16.80806,0 q 0,3.94264 1.53555,6.26671 1.57705,2.28258 4.98017,2.28258 3.36161,0 4.93866,-2.28258 1.57705,-2.32407 1.57705,-6.26671 0,-3.94263 -1.57705,-6.18371 -1.57705,-2.24107 -4.98017,-2.24107 -3.40311,0 -4.93866,2.24107 -1.53555,2.24108 -1.53555,6.18371 z m 22.61316,-6.39121 c -0.53952,0 -0.95454,0.41501 -0.95454,0.91303 0,0.53952 0.41502,0.95453 0.95454,0.95453 2.11657,0 4.15014,0.45652 5.9347,1.28654 -4.15014,3.02961 -6.88924,7.92677 -6.88924,13.44646 0,0.53952 0.41502,0.95453 0.95454,0.95453 0.49801,0 0.95453,-0.41501 0.95453,-0.95453 0,-5.27068 2.73909,-9.83583 6.88923,-12.45042 4.10864,2.61459 6.88923,7.17974 6.88923,12.45042 0,0.53952 0.41502,0.95453 0.95454,0.95453 0.49801,0 0.91303,-0.41501 0.91303,-0.95453 0,-5.51969 -2.69759,-10.41685 -6.88924,-13.44646 1.82607,-0.83002 3.81813,-1.28654 5.97621,-1.28654 0.49801,0 0.91303,-0.41501 0.91303,-0.95453 0,-0.49802 -0.41502,-0.91303 -0.91303,-0.91303 -2.8636,0 -5.51969,0.70552 -7.84377,1.95056 -2.36558,-1.24504 -5.02167,-1.95056 -7.84376,-1.95056 z m 37.96864,16.60056 V 208.4986 c 0,-0.49802 -0.41501,-0.91303 -0.91303,-0.91303 -0.53951,0 -0.95453,0.41501 -0.95453,0.91303 v 14.733 h -6.84773 c -3.85963,0 -6.93073,-3.07111 -6.93073,-6.93074 v -7.80226 c 0,-0.49802 -0.45652,-0.91303 -0.95454,-0.91303 -0.53951,0 -0.95453,0.41501 -0.95453,0.91303 v 7.80226 c 0,4.85567 3.98414,8.8398 8.8398,8.8398 h 6.72323 c -0.41502,2.28258 -2.40708,3.98413 -4.81417,3.98413 h -9.79433 c -0.53951,0 -0.95453,0.41502 -0.95453,0.95454 0,0.49801 0.41502,0.95453 0.95453,0.95453 h 9.79433 c 3.73513,0 6.80623,-3.0711 6.80623,-6.84773 z m 21.36809,-15.64603 v -0.0415 c 0,-0.53952 -0.41501,-0.91303 -0.91303,-0.91303 h -1.99207 -13.69546 c -0.53952,0 -0.95453,0.41501 -0.95453,0.91303 0,0.53952 0.41501,0.95453 0.95453,0.95453 h 6.51572 c -4.44065,2.53159 -7.47025,7.30425 -7.47025,12.78243 v 2.9051 h 10.33385 c -0.41502,1.90906 -2.11657,3.32011 -4.15014,3.32011 -0.53952,0 -0.95453,0.41502 -0.95453,0.95453 0,0.53952 0.41501,0.95454 0.95453,0.95454 3.1126,0 5.64419,-2.24108 6.0592,-5.22918 2.9881,-0.41501 5.31218,-3.0711 5.31218,-6.18371 v -0.95453 h -0.91303 c -3.1126,0 -5.64419,2.28258 -6.1007,5.22918 h -8.6323 v -0.99604 c 0,-7.05524 5.6857,-12.78243 12.74093,-12.78243 h 1.99207 c 0.53952,0 0.91303,-0.37351 0.91303,-0.91303 z m -2.03357,11.53739 c -0.41501,1.45255 -1.53555,2.61459 -3.0296,2.9881 0.41502,-1.45255 1.53555,-2.61459 3.0296,-2.9881 z"
         id="path31" />
    </g>
  </g>
</svg>
