<?xml version="1.0" encoding="UTF-8" standalone="no"?>
<!-- Created with Inkscape (http://www.inkscape.org/) -->

<svg
   width="372.70596"
   height="105.02638"
   viewBox="0 0 98.611785 27.788231"
   version="1.1"
   id="svg1"
   inkscape:version="1.4 (86a8ad7, 2024-10-11)"
   sodipodi:docname="Alphabet Runic Diacritics Vowels.svg"
   xmlns:inkscape="http://www.inkscape.org/namespaces/inkscape"
   xmlns:sodipodi="http://sodipodi.sourceforge.net/DTD/sodipodi-0.dtd"
   xmlns="http://www.w3.org/2000/svg"
   xmlns:svg="http://www.w3.org/2000/svg">
  <sodipodi:namedview
     id="namedview1"
     pagecolor="#ffffff"
     bordercolor="#000000"
     borderopacity="0.25"
     inkscape:showpageshadow="2"
     inkscape:pageopacity="0.0"
     inkscape:pagecheckerboard="0"
     inkscape:deskcolor="#d1d1d1"
     inkscape:document-units="px"
     inkscape:zoom="2.078763"
     inkscape:cx="187.61157"
     inkscape:cy="78.412015"
     inkscape:window-width="1512"
     inkscape:window-height="1018"
     inkscape:window-x="399"
     inkscape:window-y="0"
     inkscape:window-maximized="0"
     inkscape:current-layer="layer1" />
  <defs
     id="defs1" />
  <g
     inkscape:label="Layer 1"
     inkscape:groupmode="layer"
     id="layer1"
     transform="translate(-88.899692,-61.997753)">
    <text
       xml:space="preserve"
       style="font-size:28.2222px;line-height:1;font-family:'BlockTrain Hand';-inkscape-font-specification:'BlockTrain Hand';text-align:start;writing-mode:lr-tb;direction:ltr;text-anchor:start;display:none;fill:#19919b;fill-opacity:1;stroke:#7c7c7c;stroke-width:0.79375;stroke-dasharray:none;stroke-opacity:1"
       x="138.19148"
       y="88.739998"
       id="text1"><tspan
         style="font-style:normal;font-variant:normal;font-weight:normal;font-stretch:normal;font-size:28.2222px;font-family:'NewEng Rune';-inkscape-font-specification:'NewEng Rune';text-align:center;text-anchor:middle;fill:#19919b;fill-opacity:1;stroke:#7c7c7c;stroke-width:0.79375;stroke-dasharray:none;stroke-opacity:1"
         x="0"
         y="0"
         sodipodi:role="line"
         id="tspan6">āǣēīōūȣ̄</tspan></text>
    <path
       style="font-size:28.2222px;line-height:1;font-family:'NewEng Rune';-inkscape-font-specification:'NewEng Rune';text-align:center;text-anchor:middle;fill:#19919b;stroke:#7c7c7c;stroke-width:0.79375"
       d="m 97.02945,75.136897 6.06777,11.994435 1.83445,-0.64911 -0.19756,-0.649111 -6.773328,-13.546656 -1.890887,0.649111 -6.773328,13.546656 0.253999,0.64911 1.806221,-0.64911 z m 5.44688,-7.365994 h -9.0311 l -1.890887,0.649111 0.253999,0.64911 h 9.031108 l 1.83444,-0.64911 z m 12.05086,-1.608665 -6.77332,22.57776 0.254,0.64911 1.80622,-0.64911 5.81377,-19.247541 c 0.47978,1.326444 0.87489,2.596443 1.35467,3.922886 l -2.45534,4.035775 0.254,0.64911 6.77333,11.28888 1.83445,-0.64911 -0.19756,-0.649111 -6.03955,-9.990659 h 4.40266 l 1.83445,-0.64911 -0.19756,-0.649111 h -6.15244 l 6.35,-10.639769 -0.19756,-0.649111 -1.89089,0.649111 -3.01977,5.023551 -1.66511,-5.023551 -0.19756,-0.649111 z m 6.37819,-3.76761 h -9.03111 l -1.89088,0.649111 0.254,0.705555 h 9.0311 l 1.89089,-0.705555 z m 7.90223,16.665155 6.26533,-8.381993 -0.19756,-0.649111 -1.89088,0.649111 -6.77333,9.031104 0.254,0.64911 6.77332,9.031104 1.83445,-0.64911 -0.19756,-0.649111 -5.81377,-7.732883 h 4.17688 l 1.83445,-0.64911 -0.19756,-0.649111 z m -2.34244,-11.317102 h 9.0311 l 1.83444,-0.705555 -0.19755,-0.649111 h -9.03111 l -1.89088,0.649111 z m 13.94175,-0.931333 h 9.0311 l 1.83445,-0.64911 -0.19756,-0.649111 h -9.0311 l -1.89089,0.649111 z m 4.26155,3.866442 v 18.062208 l 0.254,0.64911 1.83445,-0.64911 V 70.67779 l -0.19756,-0.649111 z m 11.11955,3.97933 3.49955,5.164663 -3.27377,4.938885 -3.47133,-5.24933 z m -5.44689,5.051774 0.254,0.64911 4.51556,6.773328 1.83444,-0.64911 4.51555,-6.773328 -0.19755,-0.649111 -4.51556,-6.773328 -1.89088,0.649111 z m 2.51178,-10.63977 h 4.51555 l 1.83444,-0.64911 -0.19755,-0.649111 h -4.51555 l -1.89089,0.649111 z m 20.29175,19.670874 V 70.67779 l -0.19756,-0.649111 -1.89088,0.649111 v 13.546656 l -4.71311,3.132664 V 70.67779 l -0.16934,-0.649111 -1.89088,0.649111 v 18.062208 l 0.254,0.64911 1.80622,-0.64911 4.71311,-3.132664 v 3.132664 l 0.254,0.64911 z m -8.60777,-21.92865 h 6.77333 l 1.83444,-0.64911 -0.19756,-0.649111 h -6.77333 l -1.89088,0.649111 z m 13.63131,14.957766 3.27378,-5.757329 3.49955,6.039551 -3.302,4.967108 z m 4.48733,-7.817549 4.43089,-7.789327 -0.19756,-0.649111 -1.89089,0.649111 -3.38666,5.954884 -3.75355,-6.603995 -1.89089,0.649111 0.254,0.64911 4.20511,7.365994 -4.45911,7.789328 0.254,0.64911 4.51555,6.773328 1.83444,-0.64911 4.51556,-6.773328 -0.19756,-0.649111 z m 4.20507,-11.556937 h -9.0311 l -1.89089,0.649111 0.254,0.705555 h 9.0311 l 1.89089,-0.705555 z"
       id="text21"
       aria-label="āǣēīōūȣ̄" />
  </g>
</svg>
