<?xml version="1.0" encoding="UTF-8" standalone="no"?>
<!-- Created with Inkscape (http://www.inkscape.org/) -->

<svg
   width="1247.9633"
   height="1026.738"
   viewBox="0 0 330.19026 271.65777"
   version="1.1"
   id="svg1"
   inkscape:version="1.4 (86a8ad7, 2024-10-11)"
   sodipodi:docname="Alphabet Leaf Tech Both Cases - Wide.svg"
   xmlns:inkscape="http://www.inkscape.org/namespaces/inkscape"
   xmlns:sodipodi="http://sodipodi.sourceforge.net/DTD/sodipodi-0.dtd"
   xmlns="http://www.w3.org/2000/svg"
   xmlns:svg="http://www.w3.org/2000/svg">
  <sodipodi:namedview
     id="namedview1"
     pagecolor="#ffffff"
     bordercolor="#000000"
     borderopacity="0.25"
     inkscape:showpageshadow="2"
     inkscape:pageopacity="0.0"
     inkscape:pagecheckerboard="0"
     inkscape:deskcolor="#d1d1d1"
     inkscape:document-units="px"
     inkscape:zoom="0.80388482"
     inkscape:cx="555.42783"
     inkscape:cy="503.18154"
     inkscape:window-width="1920"
     inkscape:window-height="1027"
     inkscape:window-x="-8"
     inkscape:window-y="-8"
     inkscape:window-maximized="1"
     inkscape:current-layer="layer1" />
  <defs
     id="defs1" />
  <g
     inkscape:label="Layer 1"
     inkscape:groupmode="layer"
     id="layer1"
     transform="translate(27.16924,-64.968622)">
    <text
       xml:space="preserve"
       style="font-size:41.5014px;line-height:1.1;font-family:'BlockTrain Hand';-inkscape-font-specification:'BlockTrain Hand';text-align:start;letter-spacing:0px;writing-mode:lr-tb;direction:ltr;text-anchor:start;display:none;fill:#17a23e;fill-opacity:0.853828;stroke:#4d804f;stroke-width:1.16723;stroke-dasharray:none;stroke-opacity:1"
       x="137.9259"
       y="98.753357"
       id="text1"><tspan
         style="font-style:normal;font-variant:normal;font-weight:normal;font-stretch:normal;font-size:41.5014px;line-height:1.1;font-family:'Leaf Tech';-inkscape-font-specification:'Leaf Tech';text-align:center;letter-spacing:0px;text-anchor:middle;fill:#17a23e;fill-opacity:0.853828;stroke:#4d804f;stroke-width:1.16723;stroke-dasharray:none;stroke-opacity:1"
         x="137.9259"
         y="98.753357"
         sodipodi:role="line"
         id="tspan25">AaÆæBbCcÇçDdEe</tspan><tspan
         style="font-style:normal;font-variant:normal;font-weight:normal;font-stretch:normal;font-size:41.5014px;line-height:1.1;font-family:'Leaf Tech';-inkscape-font-specification:'Leaf Tech';text-align:center;letter-spacing:0px;text-anchor:middle;fill:#17a23e;fill-opacity:0.853828;stroke:#4d804f;stroke-width:1.16723;stroke-dasharray:none;stroke-opacity:1"
         x="137.9259"
         y="145.03259"
         sodipodi:role="line"
         id="tspan26">FfΦφÞþÐðGgȜȝ</tspan><tspan
         style="font-style:normal;font-variant:normal;font-weight:normal;font-stretch:normal;font-size:41.5014px;line-height:1.1;font-family:'Leaf Tech';-inkscape-font-specification:'Leaf Tech';text-align:center;letter-spacing:0px;text-anchor:middle;fill:#17a23e;fill-opacity:0.853828;stroke:#4d804f;stroke-width:1.16723;stroke-dasharray:none;stroke-opacity:1"
         x="137.9259"
         y="191.31184"
         sodipodi:role="line"
         id="tspan28">HhǶƕIiJjKkꞰʞLlMm</tspan><tspan
         style="font-style:normal;font-variant:normal;font-weight:normal;font-stretch:normal;font-size:41.5014px;line-height:1.1;font-family:'Leaf Tech';-inkscape-font-specification:'Leaf Tech';text-align:center;letter-spacing:0px;text-anchor:middle;fill:#17a23e;fill-opacity:0.853828;stroke:#4d804f;stroke-width:1.16723;stroke-dasharray:none;stroke-opacity:1"
         x="137.9259"
         y="237.59108"
         sodipodi:role="line"
         id="tspan2">NnИиŊŋOoŒœPp</tspan><tspan
         style="font-style:normal;font-variant:normal;font-weight:normal;font-stretch:normal;font-size:41.5014px;line-height:1.1;font-family:'Leaf Tech';-inkscape-font-specification:'Leaf Tech';text-align:center;letter-spacing:0px;text-anchor:middle;fill:#17a23e;fill-opacity:0.853828;stroke:#4d804f;stroke-width:1.16723;stroke-dasharray:none;stroke-opacity:1"
         x="137.9259"
         y="283.87033"
         sodipodi:role="line"
         id="tspan1">QqRrSsƩʃTtЧчUuȢȣ</tspan><tspan
         style="font-style:normal;font-variant:normal;font-weight:normal;font-stretch:normal;font-size:41.5014px;line-height:1.1;font-family:'Leaf Tech';-inkscape-font-specification:'Leaf Tech';text-align:center;letter-spacing:0px;text-anchor:middle;fill:#17a23e;fill-opacity:0.853828;stroke:#4d804f;stroke-width:1.16723;stroke-dasharray:none;stroke-opacity:1"
         x="137.9259"
         y="330.14957"
         sodipodi:role="line"
         id="tspan14">VvWwꝎꝏXxYyZz</tspan></text>
    <g
       id="text20"
       style="font-size:41.5014px;line-height:1.1;font-family:'BlockTrain Hand';-inkscape-font-specification:'BlockTrain Hand';letter-spacing:0px;fill:#17a23e;fill-opacity:0.853828;stroke:#4d804f;stroke-width:1.16723"
       aria-label="AaÆæBbCcÇçDdEe&#10;FfΦφÞþÐðGgȜȝ&#10;HhǶƕIiJjKkꞰʞLlMm&#10;NnИиŊŋOoŒœPp&#10;QqRrSsƩʃTtЧчUuȢȣ&#10;VvWwꝎꝏXxYyZz">
      <path
         style="font-family:'Leaf Tech';-inkscape-font-specification:'Leaf Tech';text-align:center;text-anchor:middle"
         d="m -4.5483148,67.461301 h 6.8892324 v 6.889233 1.950566 c 0,2.739092 -2.19957424,4.897165 -4.9386666,4.897165 h -3.9011316 c -1.9505658,0 -3.6936244,0.871529 -4.9386664,2.158073 v -1.16204 -7.843764 c 0,-3.818129 3.0711034,-6.889233 6.8892322,-6.889233 z m 0,-1.867563 c -4.8141624,0 -8.7567952,3.901132 -8.7567952,8.756796 v 7.843764 5.851698 9.79433 c 0,0.539518 0.415014,0.913031 0.913031,0.913031 0.539518,0 0.954532,-0.373513 0.954532,-0.913031 v -9.79433 c 0,-2.739093 2.199574,-4.938667 4.9386664,-4.938667 h 3.9011316 c 1.95056576,0 3.6936246,-0.830028 4.9386666,-2.116571 v 1.20354 11.744897 c 0,1.660056 -1.2865434,2.946599 -2.94659944,2.946599 -0.53951816,0 -0.95453216,0.456515 -0.95453216,0.954532 0,0.539518 0.415014,0.913031 0.95453216,0.913031 2.65608964,0 4.85566384,-2.158073 4.85566384,-4.814162 V 82.194298 76.3011 74.350534 65.593738 Z M 8.6491221,86.966959 h 6.8477309 c 3.818129,0 6.930734,3.071104 6.930734,6.889233 v 2.988101 h -6.847731 c -3.85963,0 -6.9307339,-3.112605 -6.9307339,-6.972236 z M 7.6945899,81.239766 c -0.5395182,0 -0.9545322,0.373513 -0.9545322,0.913031 0,0.498017 0.415014,0.954532 0.9545322,0.954532 H 17.48892 c 2.739093,0 4.938667,2.158073 4.938667,4.897165 V 88.46101 C 20.809032,86.427441 18.318948,85.057895 15.496853,85.057895 H 6.7400577 v 4.814162 c 0,4.897166 3.9841343,8.8813 8.8397983,8.8813 H 24.29515 V 88.004494 c 0,-3.776627 -3.071104,-6.764728 -6.80623,-6.764728 z M 59.612833,98.753357 H 44.174312 v -9.171809 h -10.37535 l -4.44065,9.171809 h -3.85963 l 14.068975,-29.632 h 20.045176 v 3.278611 H 47.909438 v 9.254812 h 10.914868 v 3.237109 H 47.909438 V 95.474746 H 59.612833 Z M 35.251511,86.261436 h 8.922801 V 72.441469 H 41.767231 Z M 87.128283,76.093593 q 2.697591,0 4.648157,1.245042 1.950566,1.245042 2.988101,3.486117 1.079036,2.241076 1.079036,5.229177 v 2.241075 h -14.23498 q 0.083,3.984135 1.701558,5.893199 1.660056,1.867563 4.731159,1.867563 2.07507,0 3.652123,-0.373513 1.577054,-0.415014 3.154107,-1.162039 v 3.195608 q -1.660056,0.747025 -3.278611,1.079036 -1.577053,0.373513 -3.652123,0.373513 -5.851697,0 -8.424784,-4.689658 -1.411048,2.158073 -3.320112,3.444616 -1.909065,1.245042 -5.104672,1.245042 -3.029603,0 -5.063171,-1.577053 -1.992067,-1.618555 -1.992067,-5.02167 0,-3.320112 2.490084,-5.104672 2.490084,-1.826061 7.636257,-1.992067 l 3.735126,-0.124504 v -1.411048 q 0,-2.697591 -1.286543,-3.776627 -1.245042,-1.079037 -3.361614,-1.079037 -1.660056,0 -3.27861,0.498017 -1.577053,0.498017 -2.9466,1.203541 l -1.120537,-2.739093 q 1.452549,-0.830028 3.527619,-1.369546 2.07507,-0.539518 4.108638,-0.539518 2.573087,0 4.233143,0.871529 1.701557,0.830028 2.573087,2.697591 1.079036,-1.701557 2.822095,-2.656089 1.743059,-0.954532 3.984134,-0.954532 z m -0.0415,2.9881 q -2.407081,0 -3.818129,1.660056 -1.369546,1.618555 -1.577053,4.689659 h 10.292347 q 0,-2.863597 -1.20354,-4.606656 -1.16204,-1.743059 -3.693625,-1.743059 z m -12.408919,8.922801 q -3.901131,0.166006 -5.395182,1.328045 -1.49405,1.162039 -1.49405,3.278611 0,1.867563 1.037535,2.739092 1.079036,0.87153 2.822095,0.87153 2.614588,0 4.357647,-1.535552 1.78456,-1.577053 1.78456,-4.814163 V 87.87999 Z m 26.436407,-6.806229 v -9.545322 c 0,-2.36558 1.90906,-4.233143 4.23314,-4.233143 h 9.54532 v 6.889232 c 0,3.818129 -3.0711,6.889233 -6.88923,6.889233 z m 0,1.867563 h 9.50382 c 2.36558,0 4.27464,1.909064 4.27464,4.274644 v 5.229176 c 0,2.36558 -1.90906,4.274645 -4.27464,4.274645 h -5.22918 c -2.36558,0 -4.27464,-1.909065 -4.27464,-4.274645 z m -1.909065,0 v 9.50382 c 0,3.403115 2.780595,6.183709 6.183705,6.183709 h 5.22918 c 3.40311,0 6.18371,-2.780594 6.18371,-6.183709 v -5.229176 c 0,-2.573087 -1.66006,-4.814162 -3.94263,-5.727193 2.36558,-1.577053 3.94263,-4.274644 3.94263,-7.304247 v -8.715294 h -11.45439 c -3.36161,0 -6.142205,2.697591 -6.142205,6.059205 v 9.545322 z m 22.908775,0 h 6.84773 c 3.85963,0 6.93074,3.112605 6.93074,6.930734 v 6.847731 h -6.84773 c -3.81813,0 -6.93074,-3.071104 -6.93074,-6.930734 z m -4.89716,-16.60056 c 0,0.249008 0.083,0.456515 0.24901,0.622521 1.70155,1.909064 2.73909,4.44065 2.73909,7.221243 v 15.604527 c 0,4.855664 3.98413,8.839798 8.8398,8.839798 h 8.75679 v -8.756795 c 0,-4.855664 -3.98413,-8.798297 -8.8398,-8.798297 h -6.84773 v -6.889233 c 0,-3.27861 -1.24504,-6.22521 -3.23711,-8.507787 -0.166,-0.166005 -0.41501,-0.249008 -0.70552,-0.249008 -0.53952,0 -0.95453,0.373513 -0.95453,0.913031 z m 23.07476,-0.87153 v 24.402824 c 0,4.855663 3.94264,8.756795 8.7983,8.756795 h 7.84377 c 0.49801,0 0.95453,-0.373513 0.95453,-0.913031 0,-0.498017 -0.45652,-0.954532 -0.95453,-0.954532 h -7.84377 c -3.81813,0 -6.88923,-3.071104 -6.88923,-6.889232 V 67.461301 h 6.88923 c 3.81813,0 6.88923,3.071104 6.88923,6.889233 0,0.498017 0.41502,0.954532 0.95454,0.954532 0.49801,0 0.95453,-0.456515 0.95453,-0.954532 0,-4.855664 -3.94263,-8.756796 -8.7983,-8.756796 z m 15.52147,15.604527 v 8.715294 c 0,4.855664 3.98414,8.839798 8.8398,8.839798 h 7.80227 c 0.49801,0 0.91303,-0.415014 0.91303,-0.954532 0,-0.498017 -0.41502,-0.954532 -0.91303,-0.954532 h -7.80227 c -3.85963,0 -6.93073,-3.071104 -6.93073,-6.930734 v -6.847731 h 8.8398 c 2.73909,0 4.93866,2.199574 4.93866,4.938666 0,0.539519 0.41502,0.954533 0.95454,0.954533 0.49801,0 0.91303,-0.415014 0.91303,-0.954533 0,-3.735126 -3.07111,-6.806229 -6.80623,-6.806229 z m 29.9225,24.693335 c -1.57705,0 -2.90509,-1.32805 -2.90509,-2.9051 h 1.74305 c 0,0.58102 0.58102,1.16204 1.16204,1.16204 h 1.16204 v -1.16204 c 0,-0.58102 -0.58102,-1.16204 -1.16204,-1.16204 v 0 -1.74306 c 1.57706,0 2.9051,1.32805 2.9051,2.9051 v 2.9051 z m -9.87733,-40.297862 v 24.402824 c 0,4.357647 3.15411,7.926767 7.26274,8.632291 -0.166,0.415014 -0.2905,0.830028 -0.2905,1.286543 v 1.909064 h 2.90509 v -1.74306 h -1.16204 v -0.166004 c 0,-0.539518 0.49802,-1.079036 1.07904,-1.162039 h 6.84773 c 0.49802,0 0.95453,-0.373513 0.95453,-0.913031 0,-0.498017 -0.45651,-0.954532 -0.95453,-0.954532 h -7.84376 c -3.81813,0 -6.88924,-3.071104 -6.88924,-6.889232 V 67.461301 h 6.88924 c 3.81813,0 6.88923,3.071104 6.88923,6.889233 0,0.498017 0.41501,0.954532 0.95453,0.954532 0.49802,0 0.95453,-0.456515 0.95453,-0.954532 0,-4.855664 -3.94263,-8.756796 -8.79829,-8.756796 z m 9.87733,34.487662 v 0 z m 20.00364,5.8102 c -1.57705,0 -2.9051,-1.32805 -2.9051,-2.9051 h 1.74306 c 0,0.58102 0.58102,1.16204 1.16204,1.16204 h 1.16204 v -1.16204 c 0,-0.58102 -0.58102,-1.16204 -1.16204,-1.16204 h 0.0415 v -1.74306 c 1.53555,0 2.8636,1.32805 2.8636,2.9051 v 2.9051 z m -9.79433,-24.693335 v 8.715294 c 0,4.316145 3.1126,7.968269 7.22124,8.715294 -0.2075,0.373512 -0.29051,0.830028 -0.29051,1.286543 v 1.909064 h 2.8636 v -1.74306 h -1.12054 v -0.166004 c 0,-0.539518 0.49802,-1.079036 1.03754,-1.162039 h 6.93073 c 0.49802,0 0.91303,-0.415014 0.91303,-0.954532 0,-0.498017 -0.41501,-0.954532 -0.91303,-0.954532 h -7.80226 c -3.85963,0 -6.93074,-3.071104 -6.93074,-6.930734 v -6.847731 h 8.8398 c 2.73909,0 4.93867,2.199574 4.93867,4.938666 0,0.539519 0.41501,0.954533 0.95453,0.954533 0.49802,0 0.91303,-0.415014 0.91303,-0.954533 0,-3.735126 -3.0711,-6.806229 -6.80623,-6.806229 z m 9.83583,18.883135 h -0.0415 z m 12.0769,-32.620099 h 6.88923 c 3.81813,0 6.88923,3.071104 6.88923,6.889233 v 15.646028 c 0,3.818128 -3.0711,6.889232 -6.88923,6.889232 h -6.88923 z m -1.86756,-1.867563 v 0.913031 32.246588 h 8.75679 c 4.85566,0 8.7983,-3.901132 8.7983,-8.756795 V 74.350534 c 0,-4.855664 -3.94264,-8.756796 -8.7983,-8.756796 z m 28.80196,-0.0415 c -0.53952,0 -0.95454,0.373513 -0.95454,0.913031 0,0.498017 0.41502,0.954532 0.95454,0.954532 3.81813,0 6.93073,3.071104 6.93073,6.889232 V 84.60138 c -1.61855,-2.07507 -4.10864,-3.403115 -6.93073,-3.403115 h -8.7568 v 8.715294 c 0,4.855664 3.98414,8.839798 8.8398,8.839798 h 8.71529 V 74.309032 c 0,-4.855663 -3.94263,-8.756795 -8.79829,-8.756795 z m -6.84773,17.513591 h 6.84773 c 3.81813,0 6.93073,3.112605 6.93073,6.930734 v 6.847731 h -6.84773 c -3.85963,0 -6.93073,-3.071104 -6.93073,-6.930734 z m 30.50351,-0.87153 v -0.0415 c 0,-0.539518 -0.41501,-0.954532 -0.95453,-0.954532 h -4.56515 c -2.73909,0 -4.93867,-2.158073 -4.93867,-4.897165 v -8.839799 h 10.83187 c 1.61855,0 2.9466,1.286544 2.9466,2.9466 0,0.539518 0.41501,0.954532 0.95453,0.954532 0.49802,0 0.95453,-0.415014 0.95453,-0.954532 0,-2.65609 -2.19957,-4.814163 -4.85566,-4.814163 H 256.08036 V 76.3011 c 0,2.490084 1.41104,4.689658 3.44461,5.893198 -2.03357,1.16204 -3.44461,3.361614 -3.44461,5.851698 v 10.707361 h 12.74093 c 2.65609,0 4.85566,-2.158073 4.85566,-4.814162 0,-0.539519 -0.45651,-0.954533 -0.95453,-0.954533 -0.53952,0 -0.95453,0.415014 -0.95453,0.954533 0,1.660056 -1.32805,2.946599 -2.9466,2.946599 h -10.83187 v -8.839798 c 0,-2.739093 2.19958,-4.938667 4.93867,-4.938667 h 4.56515 c 0.53952,0 0.95453,-0.373512 0.95453,-0.913031 z m 3.15407,-0.954532 v 8.673793 c 0,4.855664 3.98414,8.839798 8.8398,8.839798 h 7.76076 c 0.53952,0 0.95453,-0.415014 0.95453,-0.954532 0,-0.498017 -0.41501,-0.954532 -0.95453,-0.954532 h -7.76076 c -3.48612,0 -6.34971,-2.531586 -6.84773,-5.893199 1.03753,0.954532 2.32408,1.660056 4.19164,1.660056 h 11.37138 v -2.614588 c 0,-4.855664 -3.94263,-8.756796 -8.79829,-8.756796 z m 1.90907,1.867563 h 6.84773 c 3.81813,0 6.88923,3.071104 6.88923,6.889233 v 0.705523 h -9.46232 c -2.40708,0 -4.27464,-1.909064 -4.27464,-4.274644 z"
         id="path20" />
      <path
         style="font-family:'Leaf Tech';-inkscape-font-specification:'Leaf Tech';text-align:center;text-anchor:middle"
         d="m -7.7232384,111.87298 v 15.60453 h -4.9386666 c -0.539518,0 -0.954532,0.45651 -0.954532,0.99603 0,0.49802 0.415014,0.91303 0.954532,0.91303 h 4.9386666 V 142.169 c 0,2.73909 -2.1995742,4.93867 -4.9386666,4.93867 -0.539518,0 -0.954532,0.41501 -0.954532,0.91303 0,0.53952 0.415014,0.95453 0.954532,0.95453 3.7766274,0 6.847731,-3.0711 6.847731,-6.80623 V 129.38657 H 8.918823 c 0.4980168,0 0.9130308,-0.41501 0.9130308,-0.91303 0,-0.53952 -0.415014,-0.99603 -0.9130308,-0.99603 H -5.814174 v -13.73697 h 6.847731 c 3.8181288,0 6.9307338,3.07111 6.9307338,6.88924 0,0.53951 0.415014,0.95453 0.9545322,0.95453 0.4980168,0 0.9130308,-0.41502 0.9130308,-0.95453 0,-4.85567 -3.942633,-8.7568 -8.7982968,-8.7568 z M 13.27647,149.84676 c 0.249009,0 0.456516,-0.083 0.622521,-0.24901 2.697591,-2.40708 4.233143,-5.85169 4.233143,-9.42081 v -10.79037 h 9.462319 c 0.539519,0 0.954533,-0.41501 0.954533,-0.95453 0,-0.49802 -0.415014,-0.95453 -0.954533,-0.95453 h -9.420817 c 0.456515,-4.81417 4.482151,-8.54929 9.420817,-8.54929 h 5.229177 c 0.539518,0 0.954532,-0.41502 0.954532,-0.91303 0,-0.53952 -0.415014,-0.95453 -0.954532,-0.95453 h -5.229177 c -5.9347,0 -10.831865,4.56515 -11.329882,10.41685 H 13.27647 c -0.539518,0 -0.954532,0.45651 -0.954532,0.95453 0,0.53952 0.415014,0.95453 0.954532,0.95453 h 2.9466 v 10.79037 c 0,3.0296 -1.286544,5.9762 -3.569121,8.00977 -0.207507,0.166 -0.332011,0.41501 -0.332011,0.70552 0,0.53952 0.415014,0.95453 0.954532,0.95453 z m 37.392749,-4.81416 v -3.73513 q -4.108639,-0.083 -6.764728,-1.16204 -2.614589,-1.07903 -4.108639,-2.78059 -1.452549,-1.74306 -2.07507,-3.73513 -0.58102,-2.03356 -0.58102,-3.94263 0,-2.19957 0.664023,-4.23314 0.664022,-2.03357 2.199574,-3.61062 1.535552,-1.61856 4.15014,-2.57309 2.614588,-0.99603 6.51572,-1.03754 v -2.82209 h 3.693624 v 2.82209 q 3.942633,0.0415 6.557222,0.99604 2.614588,0.95453 4.108638,2.53158 1.535552,1.57706 2.199574,3.65213 0.664023,2.03357 0.664023,4.27464 0,1.99207 -0.622521,4.02564 -0.622521,2.03357 -2.158073,3.73512 -1.49405,1.66006 -4.15014,2.7391 -2.614588,1.03753 -6.598723,1.12053 v 3.73513 z m 0,-6.80623 V 121.3768 q -3.735126,0.083 -5.893199,1.20354 -2.116571,1.07904 -2.988101,2.9051 -0.871529,1.82606 -0.871529,4.15014 0,2.44858 0.954532,4.35765 0.996034,1.90906 3.112605,3.0296 2.158073,1.07904 5.685692,1.20354 z m 3.693624,0 q 3.610622,-0.1245 5.727194,-1.24504 2.158072,-1.16204 3.071103,-3.07111 0.954532,-1.90906 0.954532,-4.27464 0,-2.36558 -0.871529,-4.19164 -0.871529,-1.82606 -2.988101,-2.9051 -2.116571,-1.07904 -5.893199,-1.16204 z m 28.926495,16.76656 v -9.62832 q -3.278611,-0.29051 -5.768695,-1.70156 -2.490084,-1.45255 -3.85963,-3.90113 -1.369546,-2.49008 -1.369546,-5.8517 0,-5.06317 2.863596,-8.05127 2.863597,-2.9881 8.134275,-3.40311 v -8.96431 h 3.56912 v 8.96431 q 3.320112,0.29051 5.768695,1.74306 2.490084,1.45255 3.85963,3.90113 1.369546,2.44858 1.369546,5.81019 0,5.02167 -2.946599,8.00977 -2.905098,2.9881 -8.051272,3.44462 v 9.62832 z m 0,-12.53342 v -17.05707 q -3.818129,0.37351 -5.519686,2.53158 -1.660056,2.15807 -1.660056,5.9762 0,3.81813 1.701557,6.01771 1.701557,2.15807 5.478185,2.53158 z m 3.56912,0 q 3.735126,-0.41501 5.478185,-2.57308 1.743059,-2.19958 1.743059,-5.97621 0,-7.67776 -7.221244,-8.46628 z M 123.0892,129.17906 q 0,2.49009 -1.07904,4.64816 -1.07904,2.11657 -3.69362,3.44462 -2.57309,1.32804 -7.09674,1.32804 h -3.36162 v 6.43272 h -3.73512 v -29.632 h 3.73512 v 5.14617 h 3.98414 q 6.0177,0 8.63229,2.28258 2.61459,2.28258 2.61459,6.34971 z m -12.24292,6.26672 q 4.35765,0 6.34972,-1.36955 2.03357,-1.41105 2.03357,-4.68966 0,-2.8636 -1.82606,-4.23314 -1.78457,-1.41105 -5.8517,-1.41105 h -3.69363 v 11.7034 z m 37.60025,-1.57706 q 0,5.68569 -2.53158,8.63229 -2.49008,2.9466 -6.59872,2.9466 -2.61459,0 -4.27465,-0.95453 -1.66005,-0.95453 -2.65609,-2.28258 h -0.24901 q 0.0415,0.29051 0.083,0.95454 0.083,0.66402 0.1245,1.36954 0.0415,0.70553 0.0415,1.16204 v 9.29631 h -3.65212 v -41.5014 h 3.65212 v 9.29632 q 0,0.58102 -0.0415,1.53555 -0.0415,0.91303 -0.083,1.45255 h 0.166 q 0.99604,-1.41105 2.61459,-2.40708 1.61856,-0.99604 4.27465,-0.99604 4.10864,0 6.59872,2.9051 2.53158,2.9051 2.53158,8.59079 z m -3.77662,-0.0415 q 0,-4.19164 -1.45255,-6.26671 -1.45255,-2.11657 -4.52365,-2.11657 -3.40312,0 -4.81417,1.90906 -1.41104,1.90907 -1.49405,5.7272 v 0.78852 q 0,4.10864 1.32805,6.34972 1.36954,2.19957 5.02167,2.19957 3.0711,0 4.48215,-2.19957 1.45255,-2.24108 1.45255,-6.39122 z m 19.21513,-18.42662 q 4.44065,0 7.71926,1.66006 3.27861,1.66005 5.06317,4.89716 1.82606,3.19561 1.82606,7.96827 0,7.51175 -4.10864,11.32988 -4.06713,3.77663 -11.41288,3.77663 h -7.92677 v -13.03144 h -3.0711 v -3.23711 h 3.0711 V 115.4006 Z m -0.53952,3.19561 h -4.56515 v 10.16784 h 7.38725 v 3.23711 h -7.38725 v 9.83583 h 3.73512 q 12.03541,0 12.03541,-11.7864 0,-5.9347 -2.9466,-8.67379 -2.9466,-2.78059 -8.25878,-2.78059 z m 26.64388,-5.31218 q 1.32805,0.62252 2.65609,1.36954 1.36955,0.74703 2.57309,1.61856 l 4.77266,-2.7806 1.57706,2.24108 -4.10864,2.36558 q 2.82209,2.65609 4.60665,6.55722 1.82606,3.90113 1.82606,8.9643 0,5.8932 -2.78059,8.8813 -2.78059,2.9466 -7.59476,2.9466 -2.9881,0 -5.31218,-1.20354 -2.28257,-1.24504 -3.61062,-3.48612 -1.28654,-2.28257 -1.28654,-5.39518 0,-4.64815 2.61459,-7.30424 2.65609,-2.65609 7.13824,-2.65609 2.19957,0 3.81813,0.58102 1.66005,0.58102 2.65609,1.82606 l 0.166,-0.083 q -0.66402,-2.36558 -2.03357,-4.35765 -1.36954,-1.99207 -3.1126,-3.56912 l -5.39518,3.1126 -1.57706,-2.28257 4.64816,-2.65609 q -0.87153,-0.58102 -1.82606,-1.12054 -0.95453,-0.58102 -1.90907,-1.07904 z m 3.61063,15.06501 q -3.48612,0 -5.06317,1.86756 -1.53556,1.82606 -1.53556,5.27068 0,3.0296 1.57706,5.02167 1.57705,1.95056 5.02167,1.95056 3.44461,0 5.02167,-1.99207 1.57705,-2.03356 1.57705,-5.85169 0,-2.57309 -1.61856,-4.39915 -1.61855,-1.86756 -4.98016,-1.86756 z m 22.61823,-16.47606 c -4.85566,0 -8.83979,3.94263 -8.83979,8.7983 v 24.36132 h 8.75679 c 2.8221,0 5.31218,-1.32805 6.93074,-3.36161 v 2.44858 c 0,2.73909 -2.19958,4.93866 -4.93867,4.93866 H 208.333 c -0.49802,0 -0.95453,0.41502 -0.95453,0.91304 0,0.53951 0.45651,0.95453 0.95453,0.95453 h 9.79433 c 3.77663,0 6.84773,-3.07111 6.84773,-6.80623 v -9.79433 -0.083 -6.76472 h -6.84773 c -2.69759,0 -4.85566,2.19957 -4.85566,4.89716 0,0.49802 0.41501,0.95453 0.95453,0.95453 0.49801,0 0.95453,-0.45651 0.95453,-0.95453 0,-1.66005 1.28654,-2.9881 2.9466,-2.9881 h 4.93867 v 6.88923 c 0,3.81813 -3.07111,6.88924 -6.93074,6.88924 h -6.84773 v -22.49376 c 0,-3.85963 3.11261,-6.93074 6.93073,-6.93074 h 6.84774 v 2.9881 c 0,1.61856 -1.32805,2.9466 -2.9466,2.9466 -0.53952,0 -0.95454,0.41502 -0.95454,0.95454 0,0.49801 0.41502,0.95453 0.95454,0.95453 2.65609,0 4.85566,-2.19958 4.85566,-4.85567 v -4.85566 z m 13.15593,17.47209 h 6.84773 c 3.81813,0 6.93073,3.1126 6.93073,6.93073 v 6.84773 h -6.84773 c -3.85963,0 -6.93073,-3.0711 -6.93073,-6.93073 z m -1.90907,19.00764 c 0,0.37351 0.20751,0.66402 0.45652,0.83003 1.86756,1.07904 4.06713,1.70156 6.39121,1.70156 h 10.70736 v -14.6085 c 0,-4.85566 -3.94263,-8.79829 -8.79829,-8.79829 h -8.7568 v 8.71529 c 0,4.85566 3.98414,8.8398 8.8398,8.8398 h 6.84773 v 3.94263 h -8.8398 c -1.99207,0 -3.81813,-0.49801 -5.43668,-1.41105 -0.12451,-0.083 -0.29051,-0.166 -0.45652,-0.166 -0.49801,0 -0.95453,0.41501 -0.95453,0.95453 z m 20.41869,0.58102 q 4.68966,-1.20354 7.80227,-2.44858 3.1126,-1.24504 4.89716,-2.61459 1.82606,-1.36955 2.61459,-2.9466 0.78853,-1.57705 0.78853,-3.44462 0,-2.49008 -1.28655,-3.94263 -1.24504,-1.45255 -3.44461,-2.53158 -1.45255,0.53951 -3.0296,0.99603 -1.57706,0.41501 -3.23711,0.83003 l -0.70553,-2.9051 q 3.94264,-1.03754 6.39122,-1.99207 2.44858,-0.95453 3.56912,-2.19957 1.16204,-1.28655 1.16204,-3.15411 0,-2.11657 -1.45255,-3.32011 -1.45255,-1.20354 -4.02564,-1.20354 -2.44858,0 -4.44065,0.66402 -1.99206,0.62252 -3.85963,1.86756 l -1.78456,-2.53158 q 2.36558,-1.66006 4.85567,-2.36558 2.53158,-0.70552 5.27068,-0.70552 2.36557,0 4.48215,0.74702 2.11657,0.70552 3.44461,2.32408 1.36955,1.61855 1.36955,4.39915 0,2.40708 -1.32805,4.15014 -1.28654,1.70155 -3.44461,2.9051 1.41105,0.66402 2.61459,1.70155 1.24504,1.03754 1.99206,2.57309 0.78853,1.49405 0.78853,3.69362 0,3.85963 -2.07507,6.59873 -2.03357,2.69759 -6.47422,4.68965 -4.39915,1.99207 -11.45439,3.73513 z m 23.4898,2.78059 q 6.68173,-1.41104 10.08484,-3.69362 3.44462,-2.24108 3.44462,-5.76869 0,-2.11658 -0.95453,-3.32012 -0.91303,-1.24504 -2.57309,-2.07507 -1.20354,0.49802 -2.61459,0.91303 -1.36954,0.41502 -2.90509,0.78853 l -0.70553,-2.73909 q 3.65212,-0.95453 5.60269,-1.90907 1.99207,-0.99603 2.73909,-2.11657 0.74703,-1.12054 0.74703,-2.53158 0,-1.90907 -1.20354,-2.9051 -1.16204,-1.03754 -3.23711,-1.03754 -1.82606,0 -3.44462,0.41502 -1.57705,0.41501 -3.1126,1.24504 l -1.24504,-2.65609 q 1.90906,-1.07904 3.85963,-1.49405 1.95056,-0.45652 3.98413,-0.45652 2.28258,0 4.10864,0.70553 1.82606,0.66402 2.9051,2.19957 1.12053,1.49405 1.12053,3.98414 0,1.95056 -0.99603,3.48611 -0.95453,1.49405 -2.73909,2.61459 1.82606,0.87153 3.1126,2.49009 1.32805,1.57705 1.32805,4.39915 0,3.61062 -2.15807,6.0592 -2.15808,2.44858 -6.05921,4.02564 -3.85963,1.57705 -9.08881,2.65608 z"
         id="path21" />
      <path
         style="font-family:'Leaf Tech';-inkscape-font-specification:'Leaf Tech';text-align:center;text-anchor:middle"
         d="m -21.729961,158.15222 c -2.65609,0 -4.855664,2.15808 -4.855664,4.81416 v 3.94264 7.84376 5.8517 9.79433 c 0,0.53952 0.456516,0.91303 0.954532,0.91303 0.539519,0 0.954533,-0.37351 0.954533,-0.91303 v -9.79433 c 0,-2.73909 2.199574,-4.93867 4.938666,-4.93867 h 3.901132 c 1.950566,0 3.693624,-0.83002 4.938666,-2.11657 v 1.20354 11.7449 c 0,1.66005 -1.328044,2.9466 -2.946599,2.9466 -0.539518,0 -0.954532,0.45651 -0.954532,0.95453 0,0.53952 0.415014,0.91303 0.954532,0.91303 2.65609,0 4.8556639,-2.15807 4.8556639,-4.81416 v -11.7449 -5.8932 -1.95056 -7.84377 c 0,-0.53951 -0.4565154,-0.91303 -0.9545322,-0.91303 -0.5395187,0 -0.9545327,0.37352 -0.9545327,0.91303 v 7.84377 1.95056 c 0,2.7391 -2.199574,4.89717 -4.938666,4.89717 h -3.901132 c -1.950566,0 -3.693624,0.87153 -4.938666,2.15807 v -1.16204 -7.84376 -3.94264 c 0,-1.66005 1.328044,-2.94659 2.946599,-2.94659 0.539518,0 0.954532,-0.45652 0.954532,-0.95454 0,-0.53951 -0.415014,-0.91303 -0.954532,-0.91303 z m 13.1559444,0.87153 c 0,0.24901 0.083003,0.45652 0.2490084,0.62252 1.7015574,1.90907 2.7390924,4.44065 2.7390924,7.22125 v 15.60452 c 0,4.85567 3.9841344,8.8398 8.8397982,8.8398 0.5395182,0 0.9545322,-0.41501 0.9545322,-0.95453 0,-0.49802 -0.415014,-0.95453 -0.9545322,-0.95453 -3.8181288,0 -6.9307338,-3.07111 -6.9307338,-6.93074 v -6.84773 h 6.847731 c 3.8596302,0 6.9307334,3.11261 6.9307334,6.93074 v 7.80226 c 0,0.53952 0.415014,0.95453 0.954533,0.95453 0.498016,0 0.954532,-0.41501 0.954532,-0.95453 v -7.80226 c 0,-4.85567 -3.9841346,-8.7983 -8.8397984,-8.7983 h -6.847731 v -6.88923 c 0,-3.27861 -1.245042,-6.22521 -3.2371092,-8.50779 -0.1660056,-0.16601 -0.415014,-0.24901 -0.7055238,-0.24901 -0.5395182,0 -0.9545322,0.37351 -0.9545322,0.91303 z m 25.8553616,32.28809 v -29.632 h 3.735126 v 12.53342 h 12.284415 v -12.53342 h 3.735126 v 22.82577 q 0,1.86756 0.954532,2.9051 0.996033,1.03753 2.905098,1.03753 1.992067,0 2.905098,-1.12053 0.913031,-1.12054 0.913031,-2.8636 v -15.39702 h 3.735126 v 15.39702 q 0,3.0711 -1.867563,5.14617 -1.867563,2.07507 -5.810196,2.07507 -3.652124,0 -5.561188,-1.99206 -1.909064,-1.99207 -1.909064,-5.27068 v -6.93074 H 21.016471 v 13.81997 z m 61.422062,0.41502 q -4.399149,0 -6.640224,-1.90907 -2.241076,-1.95057 -2.241076,-6.22521 v -6.51572 q 0,-2.69759 -1.120538,-4.02563 -1.079036,-1.32805 -3.403114,-1.32805 -3.403115,0 -4.689659,2.11657 -1.245042,2.07507 -1.245042,5.9762 v 11.49589 h -3.652123 v -31.54106 h 3.652123 v 9.25481 q 0,1.66006 -0.207507,3.1126 h 0.249009 q 0.996033,-1.70155 2.739092,-2.57308 1.743059,-0.87153 3.735126,-0.87153 3.776628,0 5.685692,1.95056 1.909064,1.90907 1.909064,6.18371 v 6.51572 q 0,5.35368 5.229177,5.35368 2.697591,0 3.942633,-1.45255 1.286543,-1.45255 1.286543,-4.73116 v -13.44645 h 3.652123 v 13.57096 q 0,4.98017 -2.241075,7.05524 -2.199574,2.03357 -6.640224,2.03357 z m 17.804107,-33.61614 c -0.539519,0 -0.954533,0.37351 -0.954533,0.95453 0,1.61856 -1.328044,2.9466 -2.946599,2.9466 -0.539518,0 -0.954532,0.41502 -0.954532,0.95453 0,0.53952 0.415014,0.95454 0.954532,0.95454 1.120538,0 2.116571,-0.41502 2.946599,-1.03754 v 23.6143 c 0,1.66005 -1.328044,2.9466 -2.946599,2.9466 -0.539518,0 -0.954532,0.45651 -0.954532,0.95453 0,0.53952 0.415014,0.91303 0.954532,0.91303 2.65609,0 4.855664,-2.15807 4.855664,-4.81416 v -27.43243 -0.0415 c 0,-0.49801 -0.415014,-0.91303 -0.954532,-0.91303 z m 9.503846,32.24659 c 0,-0.24901 -0.083,-0.45652 -0.24901,-0.62252 -1.70156,-1.90907 -2.78059,-4.44065 -2.78059,-7.22125 v -7.84376 c 0,-0.49802 -0.41502,-0.91303 -0.91303,-0.91303 -0.53952,0 -0.95453,0.41501 -0.95453,0.91303 v 7.84376 c 0,3.27861 1.20354,6.22521 3.2371,8.46629 0.16601,0.20751 0.41502,0.33201 0.70553,0.33201 0.53952,0 0.95453,-0.41501 0.95453,-0.95453 z m -5.8102,-21.16572 v 1.86757 h 1.82607 c 1.03753,0 1.86756,-0.83003 1.86756,-1.86757 v -1.82606 h -1.82606 c -1.07904,0 -1.86757,0.83003 -1.86757,1.82606 z m 9.25484,-11.08087 c -0.53951,0 -0.95453,0.41502 -0.95453,0.95453 0,0.49802 0.41502,0.95454 0.95453,0.95454 h 6.88924 v 22.53526 c 0,3.81812 -3.07111,6.88923 -6.88924,6.88923 -0.53951,0 -0.95453,0.45651 -0.95453,0.95453 0,0.53952 0.41502,0.91303 0.95453,0.91303 4.85567,0 8.7983,-3.90113 8.7983,-8.75679 v -22.53526 h 5.9347 v 0.99603 c 0,0.58102 -0.45651,0.99603 -0.99603,0.99603 -0.53952,0 -0.95453,0.45652 -0.95453,0.95453 0,0.53952 0.41501,0.95454 0.95453,0.95454 1.57705,0 2.9051,-1.28655 2.9051,-2.9051 v -2.9051 z m 10.95638,39.05282 c 0.20751,0 0.37351,-0.0415 0.53952,-0.16601 3.40311,-2.24107 5.64419,-6.1422 5.64419,-10.58285 v -11.7449 c 0,-0.49802 -0.41502,-0.91303 -0.91303,-0.91303 -0.53952,0 -0.95453,0.41501 -0.95453,0.91303 v 11.7449 c 0,3.77662 -1.95057,7.09674 -4.85567,9.0058 -0.24901,0.16601 -0.41501,0.45652 -0.41501,0.78853 0,0.58102 0.45651,0.95453 0.95453,0.95453 z m 3.44462,-29.00948 v 1.86756 h 1.82606 c 1.03753,0 1.86756,-0.83003 1.86756,-1.86756 V 166.328 h -1.82606 c -1.07904,0 -1.86756,0.83003 -1.86756,1.82606 z m 7.1382,23.15778 c 0.53952,0 0.95454,-0.37351 0.95454,-0.91303 v -11.8694 c 0,-1.57705 1.32804,-2.8636 2.9466,-2.8636 h 1.32804 c 1.20354,0 2.32408,-0.24901 3.36161,-0.70552 l 0.37352,0.41501 c 1.74306,1.90907 2.78059,4.44065 2.78059,7.17975 0,3.27861 1.20354,6.22521 3.23711,8.46628 0.16601,0.20751 0.41501,0.29051 0.70552,0.29051 0.53952,0 0.95454,-0.37351 0.95454,-0.91303 0,-0.24901 -0.12451,-0.45652 -0.24901,-0.62252 -1.74306,-1.90907 -2.7806,-4.44065 -2.7806,-7.22124 0,-3.32012 -1.28654,-6.34972 -3.36161,-8.6323 0.95453,-0.74702 1.78456,-1.66005 2.44858,-2.69759 1.20354,-1.95056 1.86757,-4.31614 1.86757,-6.68172 0,-0.74703 -0.083,-1.53555 -0.20751,-2.28258 l -0.70552,-3.40311 c -0.083,-0.41502 -0.45652,-0.74703 -0.91304,-0.74703 -0.58102,0 -0.95453,0.45652 -0.95453,0.95453 v 0.16601 l 0.70553,3.40311 c 0.1245,0.66403 0.2075,1.32805 0.2075,1.95057 0,4.68966 -3.1126,9.17181 -7.47025,9.17181 h -1.32804 c -1.12054,0 -2.11658,0.41501 -2.9466,1.03753 v -15.72903 c 0,-0.53951 -0.41502,-0.95453 -0.95454,-0.95453 -0.53951,0 -0.95453,0.41502 -0.95453,0.95453 v 31.33356 c 0,0.53952 0.41502,0.91303 0.95453,0.91303 z m 20.08664,-25.39886 c -0.53951,0 -0.95453,0.41502 -0.95453,0.95454 v 15.60452 c 0,4.85567 3.98414,8.8398 8.8398,8.8398 0.53952,0 0.95453,-0.41501 0.95453,-0.95453 0,-0.49802 -0.41501,-0.95453 -0.95453,-0.95453 -3.85963,0 -6.93073,-3.07111 -6.93073,-6.93074 v -6.84773 h 6.80623 c 3.85963,0 6.97223,3.11261 6.97223,6.97224 v 7.76076 c 0,0.53952 0.41501,0.95453 0.95453,0.95453 0.49802,0 0.91303,-0.41501 0.91303,-0.95453 v -7.76076 c 0,-3.56912 -2.11657,-6.64023 -5.18767,-8.05127 1.90906,-1.20355 3.19561,-3.32012 3.19561,-5.7272 0,-0.53952 -0.41502,-0.95453 -0.95454,-0.95453 -0.53951,0 -0.95453,0.41501 -0.95453,0.95453 0,2.73909 -2.19957,4.93867 -4.93866,4.93867 h -6.80623 v -6.88923 c 0,-0.53952 -0.45652,-0.95454 -0.95454,-0.95454 z m 17.8456,-4.23314 h 4.39914 l 10.49986,14.15198 3.0296,-2.65609 v -11.49589 h 3.73513 v 29.632 h -3.73513 v -14.60849 q -1.24504,1.41105 -2.53158,2.82209 -1.28655,1.36955 -2.57309,2.8221 l -8.00977,8.9643 h -4.35765 l 11.7449,-12.90693 z m 40.71285,22.45226 q 0,-0.66402 0.0415,-1.74306 0.083,-1.07904 0.1245,-1.86756 h -0.166 q -0.24901,0.33201 -0.74703,0.95453 -0.45651,0.62252 -0.99603,1.28654 -0.53952,0.62252 -0.91303,1.03754 l -7.09674,7.51175 h -4.27464 l 9.0058,-9.50382 -9.62833,-12.74093 h 4.39915 l 7.71926,10.37535 2.53159,-2.19957 v -8.17578 h 3.61062 v 31.54106 h -3.61062 z m 14.56702,-26.02138 c -3.40312,0 -6.18371,2.78059 -6.18371,6.18371 v 27.01741 h 11.41288 c 3.40312,0 6.18371,-2.73909 6.18371,-6.14221 0,-0.49801 -0.45651,-0.95453 -0.95453,-0.95453 -0.53952,0 -0.95453,0.45652 -0.95453,0.95453 0,2.40709 -1.90907,4.27465 -4.27465,4.27465 h -9.50382 v -25.14985 c 0,-2.36558 1.90907,-4.27464 4.27465,-4.27464 0.53951,0 0.95453,-0.45652 0.95453,-0.95454 0,-0.53951 -0.41502,-0.95453 -0.95453,-0.95453 z m 10.58283,0.95453 c 0,0.24901 0.083,0.45652 0.24901,0.62252 1.70155,1.90907 2.73909,4.44065 2.73909,7.17975 v 7.84376 7.84377 c 0,2.69759 0.83003,5.18767 2.28258,7.22124 0.29051,0.45651 0.58102,0.83003 0.95453,1.20354 0.166,0.20751 0.41501,0.33201 0.70552,0.33201 0.53952,0 0.95453,-0.41501 0.95453,-0.95453 0,-0.24901 -0.083,-0.45652 -0.249,-0.62252 -1.70156,-1.90907 -2.7391,-4.44065 -2.7391,-7.17974 v -7.84377 -7.84376 c 0,-3.23711 -1.24504,-6.18371 -3.23711,-8.42479 -0.2075,-0.2075 -0.45651,-0.33201 -0.70552,-0.33201 -0.53952,0 -0.95453,0.41502 -0.95453,0.95453 z m 10.37533,-0.95453 v 27.05891 c 0,3.40312 2.7806,6.14221 6.18371,6.14221 0.53952,0 0.95453,-0.37351 0.95453,-0.91303 0,-0.49802 -0.41501,-0.95453 -0.95453,-0.95453 -2.36558,0 -4.27464,-1.86756 -4.27464,-4.27465 v -25.14984 h 6.88923 c 3.81813,0 6.88923,3.0711 6.88923,6.88923 v 18.26061 c 0,0.53952 0.41502,0.95454 0.95454,0.95454 0.49801,0 0.95453,-0.41502 0.95453,-0.95454 v -25.14984 h 6.88923 c 3.81813,0 6.88923,3.0711 6.88923,6.88923 v 23.48979 c 0,0.53952 0.41502,0.91303 0.95453,0.91303 0.49802,0 0.91304,-0.37351 0.91304,-0.91303 v -23.48979 c 0,-4.85567 -3.94264,-8.7983 -8.7568,-8.7983 h -8.7983 v 3.40312 c -1.61855,-2.07507 -4.06713,-3.40312 -6.88923,-3.40312 z m 35.73273,15.64603 v 12.69943 c 0,2.65609 2.19958,4.85566 4.85566,4.85566 0.53952,0 0.95454,-0.41501 0.95454,-0.95453 0,-0.49802 -0.41502,-0.95453 -0.95454,-0.95453 -1.66005,0 -2.94659,-1.28655 -2.94659,-2.9466 v -10.83187 h 2.90509 c 1.12054,0 2.11657,0.29051 3.02961,0.74703 v 10.08484 c 0,2.65609 2.19957,4.85566 4.85566,4.85566 h 0.95453 v -8.71529 c 0,-2.8221 -1.36954,-5.35368 -3.44461,-6.97224 h 2.49008 c 3.81813,0 6.93073,3.11261 6.93073,6.97224 v 7.76076 c 0,0.53952 0.41502,0.95453 0.95454,0.95453 0.49801,0 0.95453,-0.41501 0.95453,-0.95453 v -7.76076 c 0,-4.89717 -3.98414,-8.8398 -8.8398,-8.8398 h -4.85566 v 0.53952 c -0.95454,-0.33201 -1.95057,-0.53952 -3.02961,-0.53952 z m 9.75283,3.94263 c 1.24504,1.24504 2.03357,2.9881 2.03357,4.89717 v 6.64022 c -1.20354,-0.37351 -2.03357,-1.45255 -2.03357,-2.78059 z"
         id="path22" />
      <path
         style="font-family:'Leaf Tech';-inkscape-font-specification:'Leaf Tech';text-align:center;text-anchor:middle"
         d="m -17.040282,205.3445 v 20.8752 c 0,4.27464 1.577053,8.17578 4.233143,11.08087 0.166005,0.20751 0.415014,0.29051 0.705523,0.29051 0.539519,0 0.954533,-0.37351 0.954533,-0.91303 0,-0.24901 -0.124505,-0.45651 -0.249009,-0.62252 -2.324078,-2.61459 -3.776627,-6.0592 -3.776627,-9.83583 v -19.87917 c 7.7192603,0.49802 13.7784647,6.84773 13.7784647,14.69149 v 15.64603 c 0,0.53952 0.45651535,0.91303 0.95453215,0.91303 0.5395182,0 0.9545322,-0.37351 0.9545322,-0.91303 V 205.3445 c 0,-0.53952 -0.415014,-0.95454 -0.9545322,-0.95454 -0.4980168,0 -0.95453215,0.41502 -0.95453215,0.95454 v 7.96826 c -2.7805938,-5.27067 -8.30028,-8.9228 -14.7329967,-8.9228 -0.539519,0 -0.913031,0.41502 -0.913031,0.95454 z m 36.645728,32.24658 c 0.539518,0 0.954532,-0.37351 0.954532,-0.91303 v -0.0415 -15.68753 c 0,-0.49802 -0.415014,-0.87153 -0.954532,-0.87153 -0.498017,0 -0.954532,0.37351 -0.954532,0.87153 v 2.53159 c -1.618555,-2.11657 -4.108639,-3.40312 -6.930734,-3.40312 H 3.0048858 v 8.7153 c 0,4.85566 3.942633,8.79829 8.7982972,8.79829 0.539518,0 0.954532,-0.41501 0.954532,-0.95453 0,-0.49802 -0.415014,-0.95453 -0.954532,-0.95453 -3.8181292,0 -6.9307342,-3.0711 -6.9307342,-6.88923 v -6.88924 H 11.72018 c 3.85963,0 6.930734,3.11261 6.930734,6.97224 v 7.76076 c 0,0.53952 0.415014,0.95453 0.954532,0.95453 z m 6.225202,0 v -29.632 h 3.735125 v 16.26855 q 0,1.36955 -0.0415,3.07111 -0.0415,1.70155 -0.124504,3.1126 -0.0415,1.41105 -0.124504,2.07507 h 0.166005 l 15.687529,-24.52733 h 4.025636 v 29.632 h -3.735126 v -16.10254 q 0,-1.53555 0.0415,-3.27861 0.083,-1.74306 0.166005,-3.19561 0.083,-1.45255 0.124504,-2.07507 h -0.166005 l -15.770532,24.65183 z m 30.877063,0 v -22.24475 h 3.610622 v 13.57096 q 0,0.49802 -0.0415,1.45255 -0.0415,0.95453 -0.124504,1.90906 -0.0415,0.91303 -0.083,1.49405 h 0.0415 L 70.90119,215.34633 h 4.523652 v 22.24475 H 71.81422 v -13.11444 q 0,-0.66402 0,-1.66006 0.0415,-1.03753 0.083,-1.99206 0.0415,-0.99604 0.083,-1.53555 h -0.0415 l -10.707362,18.30211 z m 41.957923,7.88527 q -1.037535,0 -1.826062,-0.16601 -0.747025,-0.1245 -1.328045,-0.37351 v -3.15411 q 0.664023,0.16601 1.452549,0.29051 0.788527,0.12451 1.701558,0.12451 1.079036,0 2.033566,-0.41502 0.99604,-0.37351 1.61856,-1.41104 0.66402,-0.99604 0.66402,-2.7806 L 86.256715,212.98075 H 86.09071 q 0.083,0.78853 0.124504,2.24108 0.083,1.45255 0.124504,3.1126 0.083,1.66006 0.083,3.19561 v 16.06104 h -3.444616 v -29.632 h 4.316145 l 15.81203,23.7388 h 0.16601 q -0.1245,-1.32804 -0.20751,-3.65212 -0.083,-2.36558 -0.083,-4.64816 v -15.43852 h 3.48612 v 29.38299 q 0,4.15014 -2.11657,6.14221 -2.11658,1.99207 -5.685696,1.99207 z m 28.179466,2.07507 q -0.99604,0 -1.70156,-0.16601 -0.70552,-0.1245 -1.24504,-0.33201 v -2.9466 q 0.58102,0.16601 1.16204,0.29051 0.58102,0.12451 1.32804,0.12451 1.20354,0 1.99207,-0.74703 0.78853,-0.70552 0.78853,-2.73909 v -17.7211 q 0,-5.31218 -4.93867,-5.31218 -3.69363,0 -5.14617,2.07507 -1.41105,2.03357 -1.41105,5.9347 v 11.57889 h -3.65213 v -22.24475 h 2.9466 l 0.58102,3.0296 h 0.20751 q 1.07904,-1.74305 2.9051,-2.57308 1.86756,-0.87153 4.02563,-0.87153 4.06714,0 6.10071,1.95056 2.03357,1.90907 2.03357,6.18371 v 17.84561 q 0,3.1126 -1.45255,4.85566 -1.45255,1.78456 -4.52365,1.78456 z m 19.29816,-41.25239 h 6.88923 v 22.53526 c 0,3.81813 -3.07111,6.88923 -6.88923,6.88923 h -6.88924 v -22.53526 c 0,-3.81813 3.07111,-6.88923 6.88924,-6.88923 z m 0,-1.90907 c -4.81417,0 -8.7568,3.94264 -8.7568,8.7983 v 24.40282 h 8.7568 c 4.85566,0 8.79829,-3.90113 8.79829,-8.75679 v -24.44433 z m 28.84346,15.64603 h -8.7153 c -4.27464,0 -7.84376,3.0711 -8.67379,7.09674 -0.1245,0.58102 -0.166,1.16204 -0.166,1.74306 v 8.71529 h 8.75679 c 4.85567,0 8.7983,-3.94263 8.7983,-8.79829 z m -1.90907,1.90907 v 6.84773 c 0,3.81813 -3.0711,6.88923 -6.88923,6.88923 h -6.84773 v -6.80623 c 0,-3.85963 3.0711,-6.93073 6.93073,-6.93073 z m 19.17364,-14.44249 q 2.07507,0 3.98414,0.45651 h 16.01954 v 3.27861 h -11.91091 v 9.25482 h 11.12238 v 3.23711 h -11.12238 v 10.58285 h 11.91091 v 3.27861 h -15.77054 q -0.91303,0.16601 -1.95056,0.29051 -0.99604,0.12451 -2.07507,0.12451 -4.60666,0 -7.67776,-1.90907 -3.0296,-1.90906 -4.52365,-5.35368 -1.49405,-3.44461 -1.49405,-8.05127 0,-4.60665 1.45254,-8.00977 1.49406,-3.40311 4.48216,-5.27068 3.0296,-1.90906 7.55325,-1.90906 z m 0.33201,3.27861 q -5.10467,0 -7.51175,3.19561 -2.40708,3.1541 -2.40708,8.75679 0,5.60269 2.40708,8.8398 2.40708,3.19561 7.47025,3.19561 2.36558,0 4.10864,-0.70553 V 211.4452 q -1.70156,-0.66402 -4.06714,-0.66402 z m 50.25817,4.19164 q 4.19164,0 6.59873,2.73909 2.40708,2.69759 2.40708,7.26275 v 2.19957 h -14.7745 q 0.083,3.98414 1.78456,5.8517 1.74306,1.86756 4.93867,1.86756 2.19957,0 3.77662,-0.37351 1.61856,-0.41501 3.27861,-1.16204 v 3.19561 q -1.66005,0.74702 -3.27861,1.07903 -1.61855,0.37352 -3.81813,0.37352 -2.82209,0 -4.98016,-1.16204 -2.15808,-1.16204 -3.48612,-3.44462 -1.28654,2.28258 -3.40312,3.44462 -2.11657,1.16204 -4.85566,1.16204 -2.9051,0 -5.18768,-1.32805 -2.24107,-1.36954 -3.56912,-3.94263 -1.28654,-2.61459 -1.28654,-6.30821 0,-5.47819 2.69759,-8.46629 2.73909,-2.9881 7.47025,-2.9881 2.61459,0 4.68966,1.16204 2.07507,1.16204 3.32011,3.40311 1.20354,-2.19957 3.15411,-3.36161 1.99207,-1.20354 4.52365,-1.20354 z m -0.0415,2.9881 q -2.49008,0 -3.94263,1.61856 -1.45255,1.61855 -1.70156,4.68965 h 10.83187 q 0,-2.86359 -1.24505,-4.56515 -1.24504,-1.74306 -3.94263,-1.74306 z m -15.81203,0.0415 q -3.27861,0 -4.73116,2.11657 -1.45255,2.11658 -1.45255,6.30822 0,4.19164 1.49405,6.39121 1.49405,2.15807 4.77266,2.15807 3.23711,0 4.73116,-2.11657 1.49405,-2.11657 1.49405,-6.26671 0,-4.31614 -1.53555,-6.43271 -1.49405,-2.15808 -4.77266,-2.15808 z m 37.06072,-11.70339 h 6.88924 v 6.88923 c 0,3.81813 -3.07111,6.84773 -6.88924,6.84773 h -6.88923 v -6.84773 c 0,-3.81813 3.07111,-6.88923 6.88923,-6.88923 z m 0,-1.90907 c -4.85566,0 -8.79829,3.94264 -8.79829,8.7983 v 23.48979 c 0,0.53952 0.45651,0.91303 0.95453,0.91303 0.53952,0 0.95453,-0.37351 0.95453,-0.91303 v -14.73299 h 6.88923 c 4.85567,0 8.7983,-3.94264 8.7983,-8.7568 v -8.7983 z m 11.28835,15.64603 v 24.44433 c 0,0.53951 0.41501,0.95453 0.95453,0.95453 0.49802,0 0.95453,-0.41502 0.95453,-0.95453 v -10.29235 c 1.61856,2.07507 4.06714,3.40311 6.88923,3.40311 h 8.7568 v -8.79829 c 0,-4.81417 -3.94263,-8.7568 -8.7568,-8.7568 z m 1.90906,1.86756 h 6.88923 c 3.81813,0 6.88924,3.07111 6.88924,6.88924 v 6.88923 h -6.88924 c -3.81813,0 -6.88923,-3.0711 -6.88923,-6.88923 z"
         id="path23" />
      <path
         style="font-family:'Leaf Tech';-inkscape-font-specification:'Leaf Tech';text-align:center;text-anchor:middle"
         d="m -16.915746,250.66921 c -4.814162,0 -8.756795,3.94263 -8.756795,8.79829 v 24.40283 h 0.91303 c 3.818129,0 6.889233,3.1126 6.889233,6.93073 0,0.53952 0.456515,0.91303 0.954532,0.91303 0.539518,0 0.954532,-0.37351 0.954532,-0.91303 0,-4.52365 -3.444616,-8.21728 -7.843764,-8.67379 V 259.4675 c 0,-3.81813 3.071103,-6.88923 6.889232,-6.88923 h 6.889232 v 22.53526 c 0,3.48612 -2.573086,6.34971 -5.9347,6.80623 v -15.23101 c 0,-0.49802 -0.415014,-0.91304 -0.954532,-0.91304 -0.498017,0 -0.954532,0.41502 -0.954532,0.91304 v 17.18158 h 0.954532 c 4.855664,0 8.7982968,-3.90114 8.7982968,-8.7568 v -24.44432 z m 27.888933,44.98751 h 0.0415 c 0.539518,0 0.913031,-0.41501 0.913031,-0.95453 0,-1.66006 1.328045,-2.9466 2.988101,-2.9881 0.498016,0 0.954532,-0.41501 0.954532,-0.91303 0,-0.53952 -0.456516,-0.95453 -0.954532,-0.95453 -1.120538,0 -2.158073,0.41501 -2.988101,1.03753 v -15.81203 c 0,-4.81416 -3.9426332,-8.7568 -8.7567956,-8.7568 h -8.7982968 v 8.7568 c 0,4.85566 3.942633,8.7983 8.7982968,8.7983 h 6.8892326 v 10.83186 c 0,0.53952 0.373512,0.95453 0.913031,0.95453 z M -3.718309,268.1828 h 6.8892324 c 3.8181288,0 6.8892326,3.0711 6.8892326,6.88923 v 6.88923 H 3.1709234 c -3.81812884,0 -6.8892324,-3.0711 -6.8892324,-6.88923 z m 30.835503,-15.60453 h 6.889232 v 6.88923 c 0,3.81813 -3.071103,6.84773 -6.889232,6.84773 h -6.889232 v -6.84773 c 0,-3.81813 3.071103,-6.88923 6.889232,-6.88923 z m 5.312179,13.73696 c 2.116572,-1.57705 3.486118,-4.02563 3.486118,-6.84773 v -8.79829 h -8.798297 c -4.814162,0 -8.756795,3.94263 -8.756795,8.79829 v 23.48979 c 0,0.53952 0.415014,0.91304 0.91303,0.91304 0.539519,0 0.954533,-0.37352 0.954533,-0.91304 V 268.2243 h 6.889232 c 1.328045,0 2.531585,-0.29051 3.652123,-0.78853 l 0.498017,0.49802 c 1.701557,1.90906 2.739092,4.44065 2.739092,7.17974 v 7.84376 c 0,0.53952 0.415014,0.91304 0.954533,0.91304 0.539518,0 0.954532,-0.37352 0.954532,-0.91304 v -7.84376 c 0,-3.32011 -1.328045,-6.64022 -3.486118,-8.7983 z m 8.507782,-2.03357 h 0.996034 c 0.58102,0 0.996034,0.45652 0.996034,0.99604 v 1.07903 h -0.996034 c -0.58102,0 -0.996034,-0.49801 -0.996034,-1.07903 z m -1.909064,-1.86756 v 2.8636 c 0,1.61855 1.328045,2.9051 2.905098,2.9051 h 0.996034 v 6.88923 c 0,3.81813 -3.071104,6.88923 -6.889233,6.88923 -0.498017,0 -0.954532,0.45652 -0.954532,0.95453 0,0.53952 0.456515,0.95454 0.954532,0.95454 4.855664,0 8.798297,-3.94264 8.798297,-8.7983 v -6.88923 h 1.660056 c 2.36558,0 4.274644,1.90906 4.274644,4.27464 v 6.55722 c 0,2.65609 2.199574,4.85567 4.855664,4.85567 0.539518,0 0.954532,-0.41502 0.954532,-0.95454 0,-0.49801 -0.415014,-0.95453 -0.954532,-0.95453 -1.660056,0 -2.946599,-1.28654 -2.946599,-2.9466 v -6.55722 c 0,-3.36161 -2.780594,-6.10071 -6.183709,-6.10071 h -1.660056 v -1.07903 c 0,-1.57706 -1.328045,-2.8636 -2.905098,-2.8636 z m 20.045141,-11.74489 v 8.71529 c 0,4.89716 3.984134,8.8398 8.839798,8.8398 h 6.847731 v 6.88923 c 0,3.81813 -3.071103,6.88923 -6.930734,6.88923 h -6.847731 v -6.80623 c 0,-0.53952 -0.415014,-0.95453 -0.954532,-0.95453 -0.498017,0 -0.954532,0.41501 -0.954532,0.95453 v 8.6738 h 8.756795 c 4.855664,0 8.839799,-3.90114 8.839799,-8.7568 v -8.7983 H 67.91303 c -3.818129,0 -6.930734,-3.0711 -6.930734,-6.93073 v -6.80623 h 6.847731 c 3.859631,0 6.930734,3.0711 6.930734,6.88923 0,0.53952 0.415014,0.95453 0.954532,0.95453 0.498017,0 0.954533,-0.41501 0.954533,-0.95453 0,-4.85566 -3.984135,-8.79829 -8.839799,-8.79829 z m 37.268227,19.75466 c 0,-0.1245 -0.0415,-0.24901 -0.083,-0.37351 -0.913031,-2.07507 -3.071104,-3.73513 -5.685692,-3.73513 H 79.159879 v 3.56912 c 0,3.36162 2.780594,6.14221 6.183709,6.14221 h 9.50382 v 1.66006 c 0,2.36558 -1.909064,4.27464 -4.274644,4.27464 H 80.114411 c -0.539518,0 -0.954532,0.45652 -0.954532,0.95453 0,0.53952 0.415014,0.95454 0.954532,0.95454 h 10.458353 c 3.403115,0 6.142207,-2.7806 6.142207,-6.18371 V 274.159 H 85.343588 c -2.36558,0 -4.274645,-1.90907 -4.274645,-4.27465 v -1.70155 h 9.503821 c 1.826062,0 3.320112,1.16204 3.942633,2.61458 0.124504,0.33202 0.456515,0.58102 0.871529,0.58102 0.539519,0 0.954533,-0.45651 0.954533,-0.95453 z m 3.195597,13.44646 v -3.07111 l 9.794334,-12.24291 -9.37932,-11.20538 v -3.1126 h 19.63016 v 3.32011 h -10.66586 q -0.91303,0 -2.24107,0 -1.28655,0 -1.95057,-0.0415 l 8.50779,10.08484 v 1.12053 l -9.42082,11.8279 q 1.57705,0 3.0296,0 1.49405,-0.0415 3.15411,-0.0415 h 10.08484 v 3.36162 z m 31.167574,-31.74858 q 0.91303,0 1.70156,0.20751 0.78852,0.16601 1.20354,0.45652 v 2.78059 q -0.33201,-0.16601 -0.95453,-0.29051 -0.62253,-0.16601 -1.20355,-0.16601 -1.28654,0 -1.95056,0.78853 -0.62252,0.74703 -0.62252,3.19561 v 27.80594 q 0,2.69759 -0.74703,4.19164 -0.74702,1.53555 -1.99206,2.11657 -1.24505,0.62252 -2.7391,0.62252 -0.91303,0 -1.70155,-0.20751 -0.74703,-0.166 -1.20354,-0.45651 v -2.7806 q 0.33201,0.16601 0.99603,0.29051 0.62252,0.16601 1.16204,0.16601 1.28654,0 1.90906,-0.78853 0.66402,-0.74702 0.66402,-3.1956 v -27.80594 q 0,-2.73909 0.74703,-4.23314 0.74703,-1.49406 1.99207,-2.07507 1.28654,-0.62253 2.73909,-0.62253 z m 9.13028,-1.45254 c -3.40311,0 -6.18371,2.78059 -6.18371,6.1837 0,0.49802 0.41502,0.95454 0.95454,0.95454 0.53951,0 0.95453,-0.45652 0.95453,-0.95454 0,-2.36558 1.90906,-4.27464 4.27464,-4.27464 h 1.66006 c 0,5.60269 0,11.20538 0,16.76657 0,2.82209 0,5.60268 0,8.38328 0,3.40311 2.78059,6.14221 6.18371,6.14221 0.53952,0 0.95453,-0.37352 0.95453,-0.91304 0,-0.49801 -0.41501,-0.95453 -0.95453,-0.95453 -2.36558,0 -4.31615,-1.86756 -4.31615,-4.15014 0,0 0,-0.0415 0.0415,-0.083 v -25.19135 h 6.88924 c 0.49801,0 0.91303,-0.45652 0.91303,-0.95453 0,-0.53952 -0.41502,-0.95453 -0.91303,-0.95453 z m 7.76076,7.80226 c -0.53952,0 -0.95454,0.41501 -0.95454,0.95453 v 15.60453 c 0,4.85566 3.98414,8.8398 8.8398,8.8398 0.53952,0 0.95453,-0.41502 0.95453,-0.95454 0,-0.49801 -0.41501,-0.95453 -0.95453,-0.95453 -3.85963,0 -6.93073,-3.0711 -6.93073,-6.93073 v -6.84773 h 6.84773 c 0.53952,0 0.95453,-0.41502 0.95453,-0.95454 0,-0.49801 -0.41501,-0.91303 -0.95453,-0.91303 H 148.5502 V 259.426 c 0,-0.53952 -0.45652,-0.95453 -0.95453,-0.95453 z m 30.2545,25.39886 V 271.3369 q -2.15808,0.74703 -3.98414,1.07904 -1.78456,0.29051 -3.56912,0.29051 -9.50382,0 -9.50382,-8.59079 v -9.87733 h 3.69362 v 9.33781 q 0,3.23711 1.49405,4.60666 1.53556,1.32804 4.93867,1.32804 1.70156,0 3.48612,-0.37351 1.78456,-0.37351 3.44462,-0.99604 v -13.90296 h 3.73512 v 29.632 z m 25.02535,0 v -8.8398 q -3.23711,1.28654 -6.39122,1.28654 -8.38328,0 -8.38328,-7.51175 v -7.17975 h 3.65212 v 6.84774 q 0,2.53158 1.24504,3.69362 1.28655,1.12054 4.06714,1.12054 2.9881,0 5.8102,-1.20354 v -10.45836 h 3.65212 v 22.24476 z m 9.37934,-33.20112 c -0.49802,0 -0.95453,0.41501 -0.95453,0.95453 v 23.44829 c 0,4.85566 3.98413,8.7983 8.8398,8.7983 h 8.75679 v -32.24659 c 0,-0.53952 -0.45651,-0.95453 -0.95453,-0.95453 -0.53952,0 -0.95453,0.41501 -0.95453,0.95453 v 30.37902 h -6.84773 c -3.81813,0 -6.93074,-3.0711 -6.93074,-6.93073 v -23.44829 c 0,-0.53952 -0.41501,-0.95453 -0.95453,-0.95453 z m 20.08664,15.64602 c -0.53952,0 -0.95453,0.41502 -0.95453,0.91303 v 7.80227 c 0,4.85566 3.98413,8.8398 8.8398,8.8398 h 8.71529 v -16.64207 c 0,-0.49801 -0.41501,-0.91303 -0.91303,-0.91303 -0.53952,0 -0.95453,0.41502 -0.95453,0.91303 v 14.733 h -6.84773 c -3.85963,0 -6.93074,-3.0711 -6.93074,-6.93073 v -7.80227 c 0,-0.49801 -0.45651,-0.91303 -0.95453,-0.91303 z m 31.66556,17.97011 q -3.23711,0 -5.8102,-1.16204 -2.57308,-1.20354 -4.10864,-3.44462 -1.49405,-2.24107 -1.49405,-5.43668 0,-3.40311 1.61856,-5.43668 1.66005,-2.07507 4.56515,-2.9466 -2.40708,-0.99604 -3.56912,-3.0296 -1.12054,-2.07507 -1.12054,-4.93867 v -3.65212 h 3.73513 v 3.65212 q 0,2.82209 1.49405,4.64816 1.53555,1.82606 4.77266,1.82606 3.27861,0 4.77266,-1.82606 1.53555,-1.82607 1.53555,-4.64816 v -3.65212 h 3.73513 v 3.65212 q 0,2.9051 -1.16204,4.93867 -1.16204,2.03356 -3.61062,3.0711 2.82209,0.87153 4.52365,2.9466 1.74306,2.03357 1.74306,5.39518 0,3.19561 -1.45255,5.43668 -1.45255,2.24108 -4.06714,3.44462 -2.57308,1.16204 -6.1007,1.16204 z m 0.083,-3.23711 q 3.94263,0 5.7687,-1.78456 1.82606,-1.82606 1.82606,-5.02167 0,-3.19561 -1.86757,-4.93867 -1.82606,-1.74306 -5.76869,-1.74306 -3.90113,0 -5.72719,1.74306 -1.78456,1.74306 -1.78456,4.93867 0,3.19561 1.82606,5.02167 1.82606,1.78456 5.72719,1.78456 z m 26.22889,3.23711 q -2.9466,0 -5.27068,-1.20354 -2.28258,-1.20354 -3.61062,-3.52762 -1.32805,-2.32408 -1.32805,-5.60269 0,-3.48612 1.41105,-5.60269 1.41105,-2.15807 3.98414,-3.0711 -1.99207,-0.70553 -2.9881,-2.49009 -0.99604,-1.78456 -0.99604,-5.10467 v -5.35368 h 3.65213 v 5.22918 q 0,3.27861 1.24504,4.73116 1.28654,1.45255 3.98413,1.45255 2.69759,0 3.94263,-1.45255 1.28655,-1.45255 1.28655,-4.73116 v -5.22918 h 3.65212 v 5.35368 q 0,3.36162 -1.03753,5.14618 -0.99604,1.78456 -2.9881,2.49008 2.49008,0.91303 3.94263,3.0711 1.49405,2.11657 1.49405,5.56119 0,4.93867 -2.8221,7.63626 -2.78059,2.69759 -7.55325,2.69759 z m 0.083,-3.0296 q 3.36162,0 4.93867,-1.95057 1.57705,-1.95056 1.57705,-5.35368 0,-3.36161 -1.57705,-5.27068 -1.57705,-1.90906 -4.98017,-1.90906 -3.40311,0 -4.93867,1.90906 -1.53555,1.90907 -1.53555,5.27068 0,3.40312 1.53555,5.35368 1.57706,1.95057 4.98017,1.95057 z"
         id="path24" />
      <path
         style="font-family:'Leaf Tech';-inkscape-font-specification:'Leaf Tech';text-align:center;text-anchor:middle"
         d="m -12.080848,296.94845 c -3.403115,0 -6.142208,2.78059 -6.142208,6.18371 v 27.01741 h 0.913031 c 9.1718096,0 16.64206162,-7.42875 16.64206162,-16.55906 v -15.68753 c 0,-0.53952 -0.41501402,-0.95453 -0.95453222,-0.95453 -0.4980168,0 -0.9545322,0.41501 -0.9545322,0.95453 v 15.68753 c 0,7.80226 -6.0592044,14.15198 -13.7784652,14.64999 v -25.10834 c 0,-2.36558 1.909065,-4.27465 4.274645,-4.27465 0.539518,0 0.954532,-0.45651 0.954532,-0.95453 0,-0.53952 -0.415014,-0.95453 -0.954532,-0.95453 z m 13.9029603,16.55906 c 0,0.249 0.083003,0.49801 0.2490084,0.66402 1.7015574,1.90906 2.7390924,4.39915 2.7390924,7.17974 v 8.7983 h 3.1956078 c 6.2667111,0 11.3713841,-5.10468 11.3713841,-11.41289 v -5.22917 c 0,-0.49802 -0.415014,-0.91304 -0.913031,-0.91304 -0.539518,0 -0.954532,0.41502 -0.954532,0.91304 v 5.22917 c 0,5.27068 -4.274645,9.50382 -9.5038211,9.50382 H 6.7192775 v -6.88923 c 0,-3.23711 -1.245042,-6.22521 -3.2371092,-8.46629 -0.1660056,-0.166 -0.415014,-0.29051 -0.7055238,-0.29051 -0.5395182,0 -0.9545322,0.41502 -0.9545322,0.91304 z M 38.46784,302.84165 c -0.539518,0 -0.913031,0.37351 -0.913031,0.95453 v 17.59659 c 0,3.81813 -3.071103,6.88923 -6.889232,6.88923 h -6.889232 v -25.14984 c 0,-2.36558 1.909064,-4.27465 4.274644,-4.27465 0.498017,0 0.954532,-0.45651 0.954532,-0.95453 0,-0.53952 -0.456515,-0.95453 -0.954532,-0.95453 -3.403115,0 -6.183709,2.78059 -6.183709,6.18371 v 27.01741 h 8.798297 c 3.444616,0 6.391216,-1.95057 7.802263,-4.85567 1.452549,2.9051 4.399149,4.85567 7.843765,4.85567 h 8.798297 v -27.01741 c 0,-3.40312 -2.780594,-6.18371 -6.183709,-6.18371 -0.498017,0 -0.954532,0.41501 -0.954532,0.95453 0,0.49802 0.456515,0.95453 0.954532,0.95453 2.36558,0 4.274644,1.90907 4.274644,4.27465 V 328.282 h -6.889232 c -3.818129,0 -6.889233,-3.0711 -6.889233,-6.88923 v -17.59659 -0.0415 c 0,-0.53952 -0.415014,-0.91303 -0.954532,-0.91303 z m 37.019252,10.66586 c 0,0.249 0.083,0.49801 0.249008,0.66402 1.701557,1.90906 2.739092,4.39915 2.739092,7.17974 v 6.88923 h -5.561187 c -1.660056,0 -2.9466,-1.28654 -2.988101,-2.9051 v -0.0415 -6.55722 c 0,-0.49801 -0.415014,-0.95453 -0.913031,-0.95453 h -0.0415 c -0.498017,0 -0.913031,0.45652 -0.913031,0.95453 v 6.55722 0.0415 c -0.0415,1.61856 -1.328045,2.9051 -2.988101,2.9051 h -5.561187 v -6.88923 c 0,-2.78059 1.037535,-5.27068 2.739092,-7.17974 0.166006,-0.16601 0.249008,-0.41502 0.249008,-0.66402 0,-0.49802 -0.415014,-0.91304 -0.954532,-0.91304 -0.29051,0 -0.539518,0.12451 -0.705524,0.29051 -1.992067,2.24108 -3.237109,5.22918 -3.237109,8.46629 v 8.7983 h 7.470252 c 1.618555,0 3.029602,-0.78853 3.942633,-1.99207 0.87153,1.20354 2.282577,1.99207 3.901132,1.99207 h 7.470252 v -8.7983 c 0,-3.23711 -1.203541,-6.22521 -3.237109,-8.46629 -0.166006,-0.166 -0.415014,-0.29051 -0.705524,-0.29051 -0.539518,0 -0.954532,0.41502 -0.954532,0.91304 z m 36.023188,1.78456 q 0,4.60665 -1.57706,8.05127 -1.53555,3.40311 -4.56515,5.31218 -3.0296,1.90906 -7.511754,1.90906 -4.606655,0 -7.677759,-1.90906 -3.029602,-1.90907 -4.523652,-5.35368 -1.494051,-3.44462 -1.494051,-8.05128 0,-4.56515 1.494051,-7.96826 1.49405,-3.40312 4.523652,-5.31218 3.071104,-1.90907 7.719261,-1.90907 4.440652,0 7.470252,1.90907 3.0296,1.86756 4.56515,5.31218 1.57706,3.40311 1.57706,8.00977 z m -23.406793,0 q 0,5.60268 2.36558,8.83979 2.36558,3.19561 7.387249,3.19561 5.063174,0 7.387254,-3.19561 2.32407,-3.23711 2.32407,-8.83979 0,-5.60269 -2.32407,-8.7568 -2.32408,-3.19561 -7.345752,-3.19561 -5.02167,0 -7.428751,3.19561 -2.36558,3.15411 -2.36558,8.7568 z m 46.896583,0 q 0,4.60665 -1.57705,8.05127 -1.53556,3.40311 -4.56516,5.31218 -3.0296,1.90906 -7.51175,1.90906 -4.60666,0 -7.67776,-1.90906 -3.0296,-1.90907 -4.52365,-5.35368 -1.49405,-3.44462 -1.49405,-8.05128 0,-4.56515 1.49405,-7.96826 1.49405,-3.40312 4.52365,-5.31218 3.0711,-1.90907 7.71926,-1.90907 4.44065,0 7.47025,1.90907 3.0296,1.86756 4.56516,5.31218 1.57705,3.40311 1.57705,8.00977 z m -23.40679,0 q 0,5.60268 2.36558,8.83979 2.36558,3.19561 7.38725,3.19561 5.06317,0 7.38725,-3.19561 2.32408,-3.23711 2.32408,-8.83979 0,-5.60269 -2.32408,-8.7568 -2.32408,-3.19561 -7.34575,-3.19561 -5.02167,0 -7.42875,3.19561 -2.36558,3.15411 -2.36558,8.7568 z m 48.80565,3.69362 q 0,5.51969 -2.8221,8.54929 -2.78059,3.0296 -7.55325,3.0296 -2.9466,0 -5.27068,-1.32804 -2.28258,-1.36955 -3.61062,-3.94264 -1.32804,-2.61458 -1.32804,-6.30821 0,-5.51969 2.78059,-8.50779 2.78059,-2.9881 7.55325,-2.9881 3.02961,0 5.31218,1.36955 2.32408,1.32804 3.61062,3.90113 1.32805,2.53159 1.32805,6.22521 z m -16.80807,0 q 0,3.94263 1.53555,6.26671 1.57706,2.28258 4.98017,2.28258 3.36162,0 4.93867,-2.28258 1.57705,-2.32408 1.57705,-6.26671 0,-3.94263 -1.57705,-6.18371 -1.57705,-2.24107 -4.98017,-2.24107 -3.40311,0 -4.93867,2.24107 -1.53555,2.24108 -1.53555,6.18371 z m 33.69914,0 q 0,5.51969 -2.8221,8.54929 -2.78059,3.0296 -7.55325,3.0296 -2.9466,0 -5.27068,-1.32804 -2.28258,-1.36955 -3.61062,-3.94264 -1.32804,-2.61458 -1.32804,-6.30821 0,-5.51969 2.78059,-8.50779 2.78059,-2.9881 7.55325,-2.9881 3.02961,0 5.31218,1.36955 2.32408,1.32804 3.61062,3.90113 1.32805,2.53159 1.32805,6.22521 z m -16.80807,0 q 0,3.94263 1.53555,6.26671 1.57706,2.28258 4.98017,2.28258 3.36162,0 4.93867,-2.28258 1.57705,-2.32408 1.57705,-6.26671 0,-3.94263 -1.57705,-6.18371 -1.57705,-2.24107 -4.98017,-2.24107 -3.40311,0 -4.93867,2.24107 -1.53555,2.24108 -1.53555,6.18371 z m 20.33571,-21.08271 c 0,0.166 0.0415,0.29051 0.083,0.41501 l 7.67776,15.35552 c -1.78456,6.34972 -3.1541,10.00184 -4.23314,11.99391 -1.16204,2.07507 -1.82606,2.40708 -2.8221,2.65609 -0.41501,0.1245 -0.70552,0.49801 -0.70552,0.91303 0,0.58102 0.45652,0.91303 0.95453,0.91303 0.083,0 0.16601,0.0415 0.24901,0 1.32805,-0.33201 2.69759,-1.24504 3.98413,-3.56912 1.12054,-1.99207 2.32408,-5.27068 3.81813,-10.41685 l 6.76473,13.48795 c 0.16601,0.33201 0.45652,0.49802 0.83003,0.49802 0.58102,0 0.95453,-0.41502 0.95453,-0.91303 0,-0.12451 -0.0415,-0.29051 -0.083,-0.41502 L 190.61197,313.466 c 1.78456,-6.34971 3.15411,-10.00183 4.23314,-11.9939 1.16204,-2.07507 1.82606,-2.40708 2.8221,-2.65609 0.41501,-0.1245 0.70552,-0.49802 0.70552,-0.91303 0,-0.58102 -0.45651,-0.95453 -0.95453,-0.95453 -0.083,0 -0.16601,-0.0415 -0.24901,0 -1.28654,0.33201 -2.69759,1.28654 -3.98413,3.61062 -1.12054,1.99207 -2.32408,5.27068 -3.81813,10.41685 l -6.76473,-13.48795 c -0.16601,-0.33202 -0.45652,-0.53952 -0.83003,-0.53952 -0.58102,0 -0.95453,0.45651 -0.95453,0.95453 z m 20.9997,14.69149 c -0.53952,0 -0.95453,0.41502 -0.95453,0.91304 0,0.53951 0.41501,0.95453 0.95453,0.95453 2.11657,0 4.15014,0.45651 5.9347,1.28654 -4.15014,3.0296 -6.88923,7.92677 -6.88923,13.44645 0,0.53952 0.41501,0.95454 0.95453,0.95454 0.49801,0 0.95453,-0.41502 0.95453,-0.95454 0,-5.27067 2.73909,-9.83583 6.88923,-12.45042 4.10864,2.61459 6.88923,7.17975 6.88923,12.45042 0,0.53952 0.41502,0.95454 0.95454,0.95454 0.49801,0 0.91303,-0.41502 0.91303,-0.95454 0,-5.51968 -2.69759,-10.41685 -6.88923,-13.44645 1.82606,-0.83003 3.81812,-1.28654 5.9762,-1.28654 0.49801,0 0.91303,-0.41502 0.91303,-0.95453 0,-0.49802 -0.41502,-0.91304 -0.91303,-0.91304 -2.8636,0 -5.51969,0.70553 -7.84377,1.95057 -2.36558,-1.24504 -5.02167,-1.95057 -7.84376,-1.95057 z m 20.04516,-15.64602 c -0.53951,0 -0.95453,0.41501 -0.95453,0.95453 v 7.76076 c 0,4.89717 3.98414,8.8398 8.8398,8.8398 h 6.84773 v 6.88923 c 0,3.81813 -3.0711,6.88923 -6.88923,6.88923 -0.53952,0 -0.95453,0.45652 -0.95453,0.95454 0,0.53951 0.41501,0.91303 0.95453,0.91303 4.81416,0 8.7983,-3.90113 8.7983,-8.7568 v -23.48979 c 0,-0.53952 -0.45652,-0.95453 -0.95454,-0.95453 -0.53952,0 -0.95453,0.41501 -0.95453,0.95453 v 14.69149 h -6.84773 c -3.81813,0 -6.93073,-3.0711 -6.93073,-6.93073 v -7.76076 c 0,-0.53952 -0.41502,-0.95453 -0.95454,-0.95453 z m 36.68722,32.24658 v -15.68752 c 0,-0.49802 -0.41502,-0.91304 -0.91303,-0.91304 -0.53952,0 -0.95453,0.41502 -0.95453,0.91304 v 14.73299 h -6.84774 c -3.85963,0 -6.93073,-3.0711 -6.93073,-6.93073 v -7.80226 c 0,-0.49802 -0.45651,-0.91304 -0.95453,-0.91304 -0.53952,0 -0.95453,0.41502 -0.95453,0.91304 v 7.80226 c 0,4.85566 3.98413,8.8398 8.83979,8.8398 h 6.72323 c -0.41501,2.28257 -2.40708,3.98413 -4.81416,3.98413 h -9.79433 c -0.53952,0 -0.95453,0.41502 -0.95453,0.95453 0,0.49802 0.41501,0.95454 0.95453,0.95454 h 9.79433 c 3.73512,0 6.80623,-3.07111 6.80623,-6.84774 z m 3.4446,-32.24658 c -0.53951,0 -0.95453,0.41501 -0.95453,0.95453 0,0.49802 0.41502,0.95453 0.95453,0.95453 h 12.49193 c -8.38329,6.0177 -13.44646,15.72903 -13.44646,26.18738 v 4.19165 c 0,0.53951 0.41502,0.91303 0.95453,0.91303 h 10.45836 c 3.40311,0 6.1422,-2.7391 6.1422,-6.14221 0,-0.49802 -0.41501,-0.95453 -0.91303,-0.95453 -0.53951,0 -0.95453,0.45651 -0.95453,0.95453 0,1.16204 -0.45651,2.19957 -1.16204,2.9466 -0.78852,0.83003 -1.90906,1.32804 -3.1126,1.32804 h -9.50382 v -3.23711 c 0,-10.87336 5.76869,-20.8752 15.18951,-26.31188 0.29051,-0.16601 0.45651,-0.49802 0.45651,-0.83003 0,-0.53952 -0.41501,-0.95453 -0.91303,-0.95453 z m 32.08054,16.60056 v -0.0415 c 0,-0.53952 -0.41501,-0.91304 -0.91303,-0.91304 h -1.99206 -13.69547 c -0.53951,0 -0.95453,0.41502 -0.95453,0.91304 0,0.53951 0.41502,0.95453 0.95453,0.95453 h 6.51572 c -4.44065,2.53158 -7.47025,7.30424 -7.47025,12.78243 v 2.9051 h 10.33385 c -0.41501,1.90906 -2.11657,3.32011 -4.15014,3.32011 -0.53952,0 -0.95453,0.41501 -0.95453,0.95453 0,0.53952 0.41501,0.95453 0.95453,0.95453 3.11261,0 5.64419,-2.24107 6.05921,-5.22917 2.9881,-0.41502 5.31217,-3.07111 5.31217,-6.18371 v -0.95453 h -0.91303 c -3.1126,0 -5.64419,2.28257 -6.1007,5.22917 h -8.63229 v -0.99603 c 0,-7.05524 5.68569,-12.78243 12.74093,-12.78243 h 1.99206 c 0.53952,0 0.91303,-0.37351 0.91303,-0.91303 z m -2.03356,11.53739 c -0.41502,1.45255 -1.53556,2.61458 -3.02961,2.9881 0.41502,-1.45255 1.53556,-2.61459 3.02961,-2.9881 z"
         id="path25" />
    </g>
  </g>
</svg>
