<?xml version="1.0" encoding="UTF-8" standalone="no"?>
<!-- Created with Inkscape (http://www.inkscape.org/) -->

<svg
   width="695.35577"
   height="811.26917"
   viewBox="0 0 695.35577 811.26917"
   version="1.1"
   id="svg1"
   inkscape:version="1.4 (86a8ad7, 2024-10-11)"
   sodipodi:docname="Alphabet Hangeulic Regular Uppercase.svg"
   xmlns:inkscape="http://www.inkscape.org/namespaces/inkscape"
   xmlns:sodipodi="http://sodipodi.sourceforge.net/DTD/sodipodi-0.dtd"
   xmlns="http://www.w3.org/2000/svg"
   xmlns:svg="http://www.w3.org/2000/svg">
  <sodipodi:namedview
     id="namedview1"
     pagecolor="#ffffff"
     bordercolor="#000000"
     borderopacity="0.25"
     inkscape:showpageshadow="2"
     inkscape:pageopacity="0.0"
     inkscape:pagecheckerboard="0"
     inkscape:deskcolor="#d1d1d1"
     inkscape:document-units="px"
     inkscape:zoom="0.73495371"
     inkscape:cx="280.97008"
     inkscape:cy="466.01575"
     inkscape:window-width="1920"
     inkscape:window-height="1027"
     inkscape:window-x="-8"
     inkscape:window-y="-8"
     inkscape:window-maximized="1"
     inkscape:current-layer="layer1" />
  <defs
     id="defs1" />
  <g
     inkscape:label="Layer 1"
     inkscape:groupmode="layer"
     id="layer1"
     transform="translate(210.20596,-8.1738031)">
    <text
       xml:space="preserve"
       style="font-style:normal;font-variant:normal;font-weight:normal;font-stretch:normal;font-size:106.667px;line-height:1.1;font-family:'NewEng Hangeul';-inkscape-font-specification:'NewEng Hangeul';text-align:center;letter-spacing:1.65201px;writing-mode:lr-tb;direction:ltr;text-anchor:middle;display:none;fill:#19919b;stroke:#7c7c7c;stroke-width:4;stroke-dasharray:none"
       x="138.29799"
       y="100.52075"
       id="text9"><tspan
         sodipodi:role="line"
         id="tspan9"
         style="font-weight:normal;font-size:106.667px;line-height:1.1;stroke-width:4;stroke-dasharray:none"
         x="138.29799"
         y="100.52075">AÆBCÇD</tspan><tspan
         sodipodi:role="line"
         style="font-weight:normal;font-size:106.667px;line-height:1.1;stroke-width:4;stroke-dasharray:none"
         x="138.298"
         y="217.85446"
         id="tspan10">EFΦÞÐG</tspan><tspan
         sodipodi:role="line"
         style="font-weight:normal;font-size:106.667px;line-height:1.1;stroke-width:4;stroke-dasharray:none"
         x="138.29799"
         y="335.18817"
         id="tspan11">ȜHǶIJK</tspan><tspan
         sodipodi:role="line"
         style="font-weight:normal;font-size:106.667px;line-height:1.1;stroke-width:4;stroke-dasharray:none"
         x="138.298"
         y="452.52185"
         id="tspan12">ꞰLMNИŊ</tspan><tspan
         sodipodi:role="line"
         style="font-weight:normal;font-size:106.667px;line-height:1.1;stroke-width:4;stroke-dasharray:none"
         x="138.29799"
         y="571.46887"
         id="tspan13">OŒPQRS</tspan><tspan
         sodipodi:role="line"
         style="font-weight:normal;font-size:106.667px;line-height:1.1;stroke-width:4;stroke-dasharray:none"
         x="138.29802"
         y="688.80261"
         id="tspan14">ƩTЧUȢV</tspan><tspan
         sodipodi:role="line"
         style="font-weight:normal;font-size:106.667px;line-height:1.1;stroke-width:4;stroke-dasharray:none"
         x="139.12401"
         y="806.13629"
         id="tspan15">WꝎXYZ</tspan></text>
    <g
       id="text7"
       style="font-size:106.667px;line-height:1.1;font-family:'NewEng Hangeul';-inkscape-font-specification:'NewEng Hangeul';text-align:center;letter-spacing:1.65201px;text-anchor:middle;fill:#19919b;stroke:#7c7c7c;stroke-width:4"
       aria-label="AÆBCÇD&#10;EFΦÞÐG&#10;ȜHǶIJK&#10;ꞰLMNИŊ&#10;OŒPQRS&#10;ƩTЧUȢV&#10;WꝎXYZ">
      <path
         d="M -163.1926,97.74741 V 67.133981 h 58.66685 l 7.146691,-6.080019 v 42.346798 l 2.666675,3.30668 10.6667,-8.96003 V 18.600496 l -2.773342,-3.306677 h -69.226884 l -7.14669,6.080019 v -2.773342 l -2.77334,-3.306677 -10.56003,8.960028 v 79.146913 l 2.66667,3.30668 z m 0,-70.293553 h 65.813541 v 27.413419 h -58.666851 l -7.14669,6.080019 z M -7.4066688,32.68054 c 6.40002,0 12.8000399,0 19.3067268,0 L 32.273455,15.507153 27.793441,10.173803 H -1.9666518 l -5.760018,4.906682 -4.1600132,-4.906682 h -29.546759 l -5.760018,4.906682 -4.160013,-4.906682 -20.373397,17.173387 v 79.14691 l 4.480014,5.33335 20.373397,-17.173383 V 72.253997 H -32.26008 V 106.4941 l 4.480014,5.33335 5.760018,-4.90668 4.160013,4.90668 H 11.900058 L 32.273455,94.654067 27.793441,89.320717 H -1.9666518 l -5.440017,4.586681 V 72.253997 h 8.426693 L 21.393421,55.08061 16.913407,49.74726 H -3.0333218 v 0 h -4.373347 z M -46.873459,54.333941 V 32.68054 c 4.906682,0 9.706697,0 14.613379,0 v 17.06672 h -9.173362 z M 44.592253,24.253847 v 79.146913 l 2.666675,3.30668 10.6667,-8.96003 V 67.133981 H 123.73917 V 94.440733 H 65.072317 l -10.6667,8.960027 2.773342,3.30668 h 59.413521 l 7.14669,-6.08002 v 2.77334 l 2.66667,3.30668 10.6667,-8.96003 V 58.173953 l -2.77334,-3.306677 h -24.96008 l 7.89336,-6.613354 V 18.600496 L 114.5658,15.293819 H 65.072317 l -7.146689,6.080019 v -2.773342 l -2.773342,-3.306677 z m 13.333375,3.20001 H 103.8991 v 26.453416 l 0.85334,0.960003 H 65.072317 l -7.146689,6.080019 z m 94.132402,0 h 5.22668 l -7.89335,6.720021 v 69.226882 l 2.66667,3.30668 h 79.14691 l 10.6667,-8.96003 -2.77334,-3.306677 H 162.72473 V 28.520527 l -0.85334,-1.06667 h 69.33355 l 10.6667,-8.853361 -2.77334,-3.306677 h -79.14691 l -10.56003,8.960028 z m 115.4658,27.520086 V 28.520527 l -0.85333,-1.06667 h 69.33355 l 10.6667,-8.853361 -2.77334,-3.306677 h -79.14692 l -10.56003,8.960028 2.66667,3.20001 h 5.22669 l -7.89336,6.720021 v 29.760093 l 2.66667,3.306677 h 56.96018 l -5.12001,4.26668 v 22.933405 h -28.05343 l -10.56003,8.960027 2.66668,3.30668 h 38.61345 l 10.6667,-8.96003 V 67.240648 h 13.97338 l 10.6667,-8.960028 -2.77334,-3.306677 z m 91.46576,-30.720096 v 79.146913 l 2.66668,3.30668 10.6667,-8.96003 V 27.453857 h 48.74682 l 17.06672,17.06672 v 42.240132 l 2.66667,3.306677 10.6667,-8.960028 V 38.333891 l -2.77334,-3.20001 -19.7334,-19.840062 h -49.49348 l -7.14669,6.080019 v -2.773342 l -2.77335,-3.306677 z m 12.58671,82.453593 h 49.49349 c 5.44001,-4.69335 10.9867,-9.280031 16.42671,-13.866712 l -2.66667,-3.306677 -5.86669,4.906682 h -49.49348 l -10.6667,8.960027 z"
         id="path7" />
      <path
         d="m -170.12587,144.78756 h 5.22669 l -7.89336,6.72002 v 69.22688 l 2.66667,3.30668 h 79.146917 l 10.6667,-8.96003 -2.773342,-3.30667 h -76.373575 v -27.30676 h 48.74682 l 10.56003,-8.96002 -2.66667,-3.30668 h -50.56016 l -6.08002,5.12001 v -31.46676 l -0.85333,-1.06667 h 69.333547 l 10.6667,-8.85336 -2.773342,-3.30668 h -79.146915 l -10.56003,8.96003 z m 104.799106,0 h 5.226683 l -7.893358,6.72002 v 69.22688 l 2.666675,3.30668 10.6667,-8.96003 v -30.61343 h 48.7468186 l 10.560033,-8.96002 -2.666675,-3.30668 H -47.513375 l -7.146689,6.08002 v -32.42677 l -0.853336,-1.06667 h 69.33355 l 10.6667,-8.85336 -2.773342,-3.30668 h -79.146914 l -10.560033,8.96003 z M 76.37912,131.66752 v 20.80006 H 47.365696 l -10.560032,8.85336 v 39.57346 l 2.666674,3.30668 H 76.37912 v 26.45341 l 2.666675,3.20001 10.6667,-8.85336 v -20.80006 h 28.906755 l 10.6667,-8.96003 v -39.57346 l -2.77334,-3.20001 H 89.712495 v -26.45341 l -2.773342,-3.30668 z m 0,32.9601 v 27.41342 H 50.139038 v -27.41342 z m 13.333375,0 h 26.240085 v 27.41342 H 89.712495 Z m 51.892275,-23.04007 v 79.14691 l 2.66667,3.30668 10.6667,-8.96003 V 201.5344 h 58.66685 l 7.68003,-6.40002 v 3.20001 l 2.66667,3.20001 10.6667,-8.85336 v -34.34677 l -2.77334,-3.30668 h -69.76022 l -7.14669,5.97335 V 135.9342 l -2.77334,-3.30668 z m 13.33337,25.60008 h 66.34688 v 22.18674 h -59.20019 l -7.14669,5.97335 z m 187.99929,31.25343 v -42.77347 l -2.77334,-3.20001 -19.73339,-19.84006 h -49.49349 l -7.14669,6.08002 v -2.77334 l -2.77334,-3.30668 -10.6667,8.96003 v 19.94673 h -1.38667 l -10.56004,8.96003 2.66668,3.30667 h 9.28003 v 46.93348 l 2.77334,3.30668 10.6667,-8.96003 v -41.28013 h 18.98673 l 10.6667,-8.96002 -2.77335,-3.30668 h -26.88008 v -16.74672 h 48.74682 l 16.96005,17.06672 v 42.24013 l 2.77334,3.30668 z m -30.40009,25.60008 c 5.44002,-4.69335 10.9867,-9.28003 16.42672,-13.86671 l -2.66668,-3.30668 -5.86668,4.90669 h -49.49349 l -10.6667,8.96002 2.77334,3.30668 z m 45.81211,-79.25358 h 4.80001 l -7.89336,6.72002 v 69.22688 l 2.66668,3.30668 h 79.14691 l 10.6667,-8.96003 -2.77334,-3.30667 h -5.12002 l 7.89336,-6.61336 v -29.65342 l -2.77334,-3.30668 h -39.57346 l -10.56003,8.96003 2.66667,3.30667 h 36.90679 v 26.34675 l 0.74667,0.96001 h -66.56021 v -65.92021 l -0.85334,-1.06667 h 69.33355 l 10.6667,-8.85336 -2.77334,-3.30668 H 366.2428 l -10.6667,8.96003 z"
         id="path8" />
      <path
         d="m -91.45904,262.22793 v 13.86671 l -16.32005,13.54671 h -28.90676 l -10.56003,8.96003 2.66667,3.30667 h 28.90676 c 12.48004,-10.45336 25.066746,-20.90673 37.546785,-31.3601 V 253.2679 l -2.773342,-3.30668 h -78.400243 l -10.56004,8.96003 2.66668,3.30668 z m -75.73357,79.14691 h 51.41349 c 12.58671,-10.56003 25.173416,-20.90673 37.653455,-31.46676 v -16.96006 l -2.773342,-3.30667 h -14.93338 l -10.560033,8.96003 2.66667,3.30667 h 12.160043 v 13.54671 l -16.320053,13.65338 h -51.41349 l -10.56004,8.96003 z m 101.385762,-82.45359 v 79.14692 l 2.666675,3.30667 10.6667,-8.96003 V 301.80139 H 6.1933767 l 7.1466893,-6.08002 v 42.3468 l 2.666675,3.30667 10.6667,-8.96003 V 253.2679 l -2.773342,-3.30668 -10.560033,8.96003 v 30.61343 h -58.66685 l -7.146689,6.08002 v -42.3468 l -2.773342,-3.30668 z m 104.79911,3.09334 v 79.14692 l 4.373347,5.33335 20.480064,-17.17339 V 306.9214 h 9.173362 l 5.440017,-4.58668 v 38.82679 l 4.480014,5.33335 h 29.546764 l 5.86668,-5.01335 4.26668,5.01335 20.3734,-17.17339 v -79.14691 l -4.48002,-5.33335 -20.37339,17.17338 v 61.97353 h -14.82672 v -62.61353 l -4.480011,-5.33335 -20.373397,17.17339 v 11.20003 H 69.28569 l -5.440017,4.58669 v -38.82679 l -4.480014,-5.33335 z m 118.985778,0.10667 h 44.05348 l -7.36003,6.18669 v 59.84018 l 0.85334,0.96001 H 165.8714 l -10.56003,8.96003 2.66667,3.30667 h 79.14692 l 10.6667,-8.96003 -2.77334,-3.30667 h -44.80014 l 7.89335,-6.61336 V 262.6546 l -0.42666,-0.53334 h 29.44009 l 10.6667,-8.85336 -2.77334,-3.30668 H 165.8714 l -10.56003,8.96003 z m 104.79911,0 h 44.80014 l -7.89336,6.72002 v 60.26686 h -26.24008 v -16.53339 l -2.77334,-3.20001 -10.56004,8.85336 v 19.84007 l 2.66668,3.30667 h 29.76009 l 7.14669,-6.08002 v 2.77335 l 2.66667,3.30667 10.6667,-8.96003 v -69.22688 l -0.85333,-1.06667 h 29.76009 l 10.6667,-8.85336 -2.77334,-3.30668 h -79.14691 l -10.56004,8.96003 z M 435.2031,253.9079 h -13.86671 l -32.42677,32.3201 v 3.30668 h -16.10671 l -7.14669,6.08002 v -42.3468 l -2.77334,-3.30668 -10.56004,8.96003 v 79.14692 l 2.66668,3.30667 10.6667,-8.96003 v -30.61342 h 47.57348 l 18.24006,36.26678 2.66667,3.30667 10.6667,-8.96003 -19.84006,-39.57345 -2.66667,-3.30668 H 403.843 l 31.3601,-31.3601 z"
         id="path9" />
      <path
         d="m -149.91254,454.6552 h 13.86671 l 32.3201,-32.3201 v -3.20001 h 16.213382 l 7.146689,-6.08002 v 42.3468 l 2.666675,3.30667 10.6667,-8.96002 V 370.6016 l -2.773342,-3.30667 -10.560033,8.96002 v 30.61343 h -47.680151 l -18.13339,-36.26678 -2.77334,-3.30667 -10.56003,8.96002 19.73339,39.57346 2.77334,3.30668 h 18.45339 l -31.36009,31.25343 z m 108.532445,-8.21336 V 370.6016 l -2.773342,-3.30667 -10.560033,8.96002 v 79.14692 l 2.666675,3.30667 h 79.146914 l 10.6667,-8.96002 -2.773342,-3.30668 z m 91.465728,-70.18689 v 79.14692 l 2.666675,3.30667 10.6667,-8.96002 v -59.62686 l 28.906756,29.01343 10.666696,-8.96003 26.24009,-26.24008 v 71.46689 l 2.66667,3.30667 10.6667,-8.96002 V 370.6016 l -2.77334,-3.30667 -10.56003,8.96002 v 1.60001 l -9.92003,8.32003 -19.946734,19.84006 -28.800089,-28.80009 -7.146689,5.97335 V 370.6016 l -2.773342,-3.30667 z m 104.799107,0 v 79.14692 l 2.66667,3.30667 10.6667,-8.96002 v -59.62686 l 58.66685,58.66685 7.14669,-5.97335 v 12.58671 l 2.66667,3.30667 10.6667,-8.96002 V 370.6016 l -2.77334,-3.30667 -10.56003,8.96002 v 59.62686 l -58.66685,-58.66685 -7.14669,5.97335 V 370.6016 l -2.77334,-3.30667 z m 109.81245,76.26691 v -76.16024 h 9.60003 v 41.81347 q 0,3.52001 -0.10667,7.89335 -0.10667,4.37335 -0.32,8.00003 -0.10667,3.62668 -0.32,5.33335 h 0.42667 l 40.32012,-63.0402 h 10.3467 v 76.16024 h -9.60003 v -41.3868 q 0,-3.94668 0.10667,-8.42669 0.21333,-4.48001 0.42667,-8.21336 0.21333,-3.73334 0.32,-5.33335 h -0.42667 l -40.53346,63.3602 z m 159.09256,6.18668 10.6667,-8.96002 V 370.6016 l -2.77334,-3.30667 -10.56003,8.96002 v 30.18677 l -58.66685,-33.49344 -7.14669,6.08002 v -8.4267 l -2.77334,-3.30667 -10.56003,8.96002 v 60.80019 l 2.66667,3.20001 10.6667,-8.85336 v -45.86681 l 58.66685,33.60011 7.14669,-6.08002 v 33.38677 h -53.22683 l -10.6667,8.96003 2.77334,3.30667 z"
         id="path10" />
      <path
         d="m -176.52597,524.8554 v 19.84006 c 0,14.18671 0,21.54674 3.20001,25.38675 l 2.77334,3.30668 c 3.52001,4.26668 10.88003,4.26668 26.45342,4.26668 h 19.73339 c 14.18671,0 21.6534,0 25.493413,-3.30668 l 10.560033,-8.85336 c 4.26668,-3.62668 4.26668,-10.9867 4.26668,-26.45342 v -19.84006 c 0,-14.18671 0,-21.54673 -3.20001,-25.49341 l -2.773342,-3.20001 c -3.520011,-4.26668 -10.986704,-4.26668 -26.453414,-4.26668 h -19.84006 c -14.18671,0 -21.54674,0 -25.38675,3.30667 l -10.6667,8.85337 c -4.16001,3.52001 -4.16001,10.9867 -4.16001,26.45341 z m 13.33337,-5.65335 c 0,-9.3867 0,-15.78672 0.96001,-20.16006 4.26668,0 10.02669,-0.64 18.13339,-0.64 h 19.73339 c 13.54671,0 20.90673,0 24.853411,2.88 0,4.16002 2.13334,11.41337 2.13334,23.57341 v 19.84006 c 0,9.3867 0,15.78672 -0.960003,20.16007 -4.266678,0 -10.133368,0.53333 -18.133388,0.53333 h -19.84006 c -13.44005,0 -20.80007,0 -24.85341,-2.77334 0,-4.26668 -2.02668,-11.41337 -2.02668,-23.57341 z m 155.7859312,41.0668 V 543.20213 H 1.9800271 L 22.353424,526.02874 17.87341,520.69539 H -0.89998185 l -6.50668695,5.54668 v -10.13336 -12.48004 c 6.40002,0 12.8000399,0 19.3067268,0 l 20.373397,-17.17339 -4.480014,-5.33335 H -1.9666518 l -5.760018,4.90668 -4.1600132,-4.90668 -3.840012,3.30668 c -2.773342,-3.30668 -7.573357,-3.30668 -15.360048,-3.30668 h -1.600005 c -6.826688,0 -11.306702,0 -14.080044,2.34668 l -20.373397,17.17338 c -3.733345,3.09335 -4.586681,10.45337 -4.586681,27.30675 v 19.84007 c 0,15.46671 0.746669,22.82673 3.733345,26.34675 l 4.373347,5.33335 c 2.773342,3.30667 7.360023,3.30667 15.040047,3.30667 h 1.600005 c 7.253356,0 11.840037,0 14.720046,-2.45334 l 1.386671,-1.17334 3.093343,3.62668 H 11.900058 L 32.273455,565.6022 27.793441,560.26885 Z M -46.873459,516.10871 c 0,-4.90668 0.106667,-9.0667 0.320001,-12.48004 5.546684,0 9.493363,0 12.266705,1.28 1.600005,4.37335 2.026673,11.41337 2.026673,23.04007 v 19.84007 c 0,4.90668 -0.106667,9.06669 -0.213334,12.48004 h -0.213334 c -5.546684,0 -9.493363,0 -12.266705,-1.28001 -1.493338,-4.26668 -1.920006,-11.3067 -1.920006,-23.04007 z m 91.465712,-20.90673 v 79.14691 l 2.666675,3.30668 10.6667,-8.96003 v -20.80007 h 58.666852 l 7.14669,-5.97335 v 2.77334 l 2.66667,3.20001 10.6667,-8.85336 v -49.49349 l -2.77334,-3.30667 H 65.072317 l -7.146689,6.08002 v -2.77335 l -2.773342,-3.30667 z m 13.333375,3.20001 h 65.813542 v 37.33345 H 65.072317 l -7.146689,5.97335 z m 131.039182,36.37344 v 20.80007 h -26.24008 v -57.17351 h 65.81354 v 56.10684 l 0.74667,1.06667 h -26.98675 v -26.45342 l -2.77334,-3.30668 z m 45.01348,20.80007 7.89335,-6.72002 v -59.30686 l -2.77334,-3.30667 h -69.22688 l -7.14669,6.08002 v -2.77335 l -2.77334,-3.30667 -10.56003,8.96003 v 69.22688 l 2.66667,3.30668 h 36.90678 v 16.53338 l 2.66668,3.20001 10.6667,-8.85336 v -10.88003 h 28.90675 l 10.6667,-8.96003 -2.77334,-3.20001 z m 20.21217,-60.37352 v 79.14691 l 2.66667,3.30668 10.6667,-8.96003 v -30.61343 h 43.94681 l -7.89336,6.61335 2.77334,3.20001 29.65343,29.7601 10.6667,-8.96003 -2.77334,-3.30668 -27.41342,-27.30675 h 9.70669 l 7.14669,-6.08002 v 2.77334 l 2.66668,3.30668 10.6667,-8.96003 v -39.57346 l -2.77334,-3.30667 h -69.22689 l -7.14669,6.08002 v -2.77335 l -2.77334,-3.30667 z m 13.33337,3.20001 h 65.81354 v 27.41341 h -58.66685 l -7.14669,6.08002 z m 94.13244,0 h 5.22668 l -7.89336,6.72002 v 29.65342 l 2.66668,3.30668 h 76.48024 v 27.30675 h -68.58689 l -10.56003,8.96003 2.66668,3.30668 h 69.33355 l 7.14669,-6.08002 v 2.77334 l 2.66667,3.30668 10.6667,-8.96003 v -39.57346 l -2.77334,-3.30668 h -76.37357 v -26.34674 l -0.85334,-1.06667 h 69.33355 l 10.6667,-8.85337 -2.77334,-3.30667 h -79.14692 l -10.56003,8.96003 z"
         id="path11" />
      <path
         d="m -91.512326,642.1891 -4.906682,4.05335 2.666675,3.30668 c 1.706672,-1.38667 3.306677,-2.77335 4.906682,-4.05335 v 0 l 1.920006,-1.70667 c 1.706672,-1.28001 3.306677,-2.66668 4.906682,-4.05335 l 3.840012,-3.20001 v -29.65342 l -2.773342,-3.30668 h -79.360247 l -10.56003,8.96003 2.66667,3.30667 c 5.12002,0 10.24003,0 15.36005,0 l -8.00003,6.72003 2.66668,3.30667 57.06684,56.85351 h -56.42684 v -26.34675 l 4.90668,-4.05334 -2.77334,-3.30668 c -5.22668,4.37335 -10.3467,8.64003 -15.46671,13.01338 v 29.65342 l 2.66667,3.30668 h 79.360249 l 10.6667,-8.96003 -2.773342,-3.30668 h -14.93338 l 7.786691,-6.50668 -2.773342,-3.30668 -57.280176,-57.06685 c 18.88006,0 37.76012,0 56.640174,0 z m 28.318741,-26.45341 h 44.80014 l -7.893358,6.72002 v 69.22688 l 2.666675,3.30668 10.6667,-8.96003 v -69.22688 l -0.853336,-1.06667 h 29.760093 l 10.6667,-8.85336 -2.773342,-3.30668 h -79.146914 l -10.560033,8.96003 z m 115.465803,27.41342 v -36.26678 l -2.773342,-3.30668 -10.560033,8.96003 v 39.57345 l 2.666675,3.30668 h 69.333552 l 7.14669,-6.08002 v 42.3468 l 2.66667,3.30668 10.6667,-8.96003 v -79.14691 l -2.77334,-3.30668 -10.56003,8.96003 v 30.61343 z M 222.88488,612.53568 v 70.18688 h -65.81354 v -75.84023 l -2.77335,-3.30668 -10.56003,8.96003 v 79.14691 l 2.66668,3.30668 h 69.33355 l 7.14669,-6.08002 v 2.77334 l 2.66667,3.30668 10.6667,-8.96003 v -79.14691 l -2.77334,-3.30668 z m 100.95909,82.45359 c 3.09334,0 4.69334,0 5.54668,-0.74667 l 10.6667,-8.96003 c 0.96,-0.74667 0.96,-2.56001 0.96,-6.18668 l -2.77334,-3.30668 -8.21336,6.93335 h -57.17351 c -5.65335,0 -8.96003,-0.42666 -10.88003,-0.42666 -0.10667,-0.85334 -0.10667,-1.92001 -0.10667,-3.20001 v -23.78675 c 0.96,0.10667 2.02667,0.10667 2.98667,0.10667 h 51.4135 c 5.12001,0 8.42669,0.74667 10.45336,2.13334 0.85334,2.02667 0.96001,4.58668 0.96001,7.14669 v 10.3467 l 2.66667,3.30668 10.6667,-8.96003 v -10.3467 c 0,-3.41334 0,-6.72002 -2.02667,-9.0667 l -2.77334,-3.20001 c -0.53334,-0.74666 -1.28001,-1.28 -2.24001,-1.81333 l 5.22668,-4.37335 c 1.17334,-1.06667 1.81334,-2.77334 1.81334,-5.44002 v -28.26675 l -2.77334,-3.30668 -10.56003,8.96003 v 28.16009 l -3.09335,2.45334 c -0.10666,0 -0.32,0 -0.42666,0 h -51.4135 c -4.05334,0 -8.00002,0 -10.6667,-1.38667 -0.10666,-0.64001 -0.21333,-1.28001 -0.21333,-2.13334 v -32.74677 l -2.77334,-3.30668 -10.56004,8.96003 v 32.74677 c 0,1.81334 0.42667,3.09334 1.28001,4.05334 l 2.66667,3.30668 c 0.53334,0.53333 1.06667,0.96 1.81334,1.38667 l -5.76002,4.80002 v 25.92008 c 0,2.77334 0,4.37334 0.85334,5.44001 l 2.66667,3.20001 c 1.38668,1.60001 4.58669,1.60001 12.90671,1.60001 z m 32.15887,-79.25358 79.14692,79.25358 10.6667,-8.96003 -2.77335,-3.30668 -7.68002,-7.68002 10.45337,-8.74669 v -59.41352 l -2.77335,-3.30668 -10.56003,8.96003 v 59.30685 l 1.28,1.6 -69.86688,-69.86688 -10.56003,8.96003 z"
         id="path12" />
      <path
         d="m -111.88691,729.86938 v 79.14691 l 2.66668,3.30668 h 29.760089 l 7.146689,-6.08002 v 2.77334 l 2.666675,3.30668 h 29.760093 l 7.146689,-6.08002 v 2.77334 l 2.666675,3.30668 10.6667,-8.96003 v -79.14691 l -2.773342,-3.30668 -10.560033,8.96003 v 70.18689 h -26.240082 v -56.10685 l -2.773342,-3.20001 -10.560033,8.85336 v 50.4535 h -26.240082 v -75.84024 l -2.773346,-3.30668 z m 118.132479,8.10669 c 0,-1.81334 0,-3.41334 0,-4.80001 h 22.186736 l 10.6667,-8.96003 -2.773342,-3.30668 -25.920081,0.10667 c -2.773342,0 -4.373347,0 -5.33335,0.85333 l -10.6666999,8.85337 c -1.493338,1.28 -1.493338,4.58668 -1.493338,12.9067 v 58.88019 c 0,3.09334 0,4.69334 0.640002,5.54668 l 2.773342,3.20001 c 0.853336,1.06667 2.560008,1.06667 6.1866859,1.06667 h 25.920081 c 2.560008,0 4.160013,-0.10667 5.120016,-0.85334 l 10.6667,-8.96002 c 1.493338,-1.28001 1.600005,-4.69335 1.600005,-13.22671 v -51.4135 c 0,-1.6 0,-3.20001 0.106667,-4.69334 h 18.13339 3.733345 c 1.813339,0 3.20001,0 4.160013,0.10666 0.106667,0.74667 0.106667,1.81334 0.106667,3.09335 v 58.88018 c 0,1.81334 -0.106667,3.41334 -0.106667,4.80002 H 51.152376 l -10.560033,8.96002 2.666675,3.30668 h 20.800065 l 3.733345,-0.10667 c 2.773342,0 4.373347,0 5.440017,-0.85333 l 10.560033,-8.85336 c 1.600005,-1.28001 1.600005,-4.58668 1.600005,-12.90671 v -58.88018 c 0,-3.09335 0,-4.69335 -0.746669,-5.54669 l -2.773342,-3.20001 c -0.746669,-1.06667 -2.453341,-1.06667 -6.186686,-1.06667 H 71.952441 49.872372 c -1.813339,0 -3.093343,0.53334 -4.053346,1.28001 l -10.6667,8.96002 c -2.666675,2.24001 -2.666675,7.14669 -2.666675,12.37338 v 51.41349 c 0,2.02667 -0.106667,3.73334 -0.106667,5.12002 H 10.405582 c -1.813339,0 -3.093343,0 -4.160013,-0.10667 0,-0.74667 0,-1.81334 0,-3.09334 z M 190.72492,724.85603 h -13.86671 l -35.62678,35.62678 h -29.97342 v -36.26678 l -2.77335,-3.30668 -10.560029,8.96003 v 39.57346 l 2.773339,3.30667 h 28.26676 l -31.253433,31.25343 v 4.26668 h 13.866713 l 35.52011,-35.52011 h 29.97342 v 36.26678 l 2.77335,3.30668 10.56003,-8.96003 v -39.57345 l -2.66668,-3.30668 h -28.37342 l 31.3601,-31.3601 z m 105.33234,0 h -13.86671 l -35.62678,35.62678 h -29.97343 v -36.26678 l -2.77334,-3.30668 -10.56003,8.96003 v 39.57346 l 2.77334,3.30667 h 28.26675 l -31.25343,31.25343 v 4.26668 h 13.86671 l 79.14692,-79.14691 z m 2.50538,87.46694 h 79.14692 l 10.6667,-8.96003 -2.77335,-3.30667 h -67.94688 l 70.82689,-70.72023 v -4.26668 h -1.17333 l 1.06667,-0.85333 -2.77335,-3.30668 H 306.456 l -10.56003,8.96003 2.66667,3.20001 h 67.94688 l -70.72022,70.82689 v 4.26668 h 1.06667 l -0.96,0.85333 z"
         id="path13" />
    </g>
  </g>
</svg>
