<?xml version="1.0" encoding="UTF-8" standalone="no"?>
<!-- Created with Inkscape (http://www.inkscape.org/) -->

<svg
   width="621.34711"
   height="622.42303"
   viewBox="0 0 164.39808 164.68276"
   version="1.1"
   id="svg1"
   inkscape:version="1.4 (86a8ad7, 2024-10-11)"
   sodipodi:docname="Alphabet TallThin Lowercase.svg"
   xmlns:inkscape="http://www.inkscape.org/namespaces/inkscape"
   xmlns:sodipodi="http://sodipodi.sourceforge.net/DTD/sodipodi-0.dtd"
   xmlns="http://www.w3.org/2000/svg"
   xmlns:svg="http://www.w3.org/2000/svg">
  <sodipodi:namedview
     id="namedview1"
     pagecolor="#ffffff"
     bordercolor="#000000"
     borderopacity="0.25"
     inkscape:showpageshadow="2"
     inkscape:pageopacity="0.0"
     inkscape:pagecheckerboard="0"
     inkscape:deskcolor="#d1d1d1"
     inkscape:document-units="px"
     inkscape:zoom="1.0393815"
     inkscape:cx="307.8754"
     inkscape:cy="302.5838"
     inkscape:window-width="1920"
     inkscape:window-height="1027"
     inkscape:window-x="-8"
     inkscape:window-y="-8"
     inkscape:window-maximized="1"
     inkscape:current-layer="layer1" />
  <defs
     id="defs1" />
  <g
     inkscape:label="Layer 1"
     inkscape:groupmode="layer"
     id="layer1"
     transform="translate(-56.712509,-67.458706)">
    <text
       xml:space="preserve"
       style="font-size:41.5014px;line-height:1;font-family:'BlockTrain Hand';-inkscape-font-specification:'BlockTrain Hand';text-align:start;letter-spacing:1.32292px;writing-mode:lr-tb;direction:ltr;text-anchor:start;display:none;fill:#19919b;fill-opacity:1;stroke:#7c7c7c;stroke-width:1.16723;stroke-dasharray:none;stroke-opacity:1"
       x="137.9259"
       y="98.753357"
       id="text1"><tspan
         style="font-style:normal;font-variant:normal;font-weight:normal;font-stretch:normal;font-size:41.5014px;font-family:TallThin;-inkscape-font-specification:TallThin;text-align:center;letter-spacing:1.32292px;text-anchor:middle;fill:#19919b;fill-opacity:1;stroke:#7c7c7c;stroke-width:1.16723;stroke-dasharray:none;stroke-opacity:1"
         x="137.9259"
         y="98.753357"
         sodipodi:role="line"
         id="tspan10">aæbcçdefφþ</tspan><tspan
         style="font-style:normal;font-variant:normal;font-weight:normal;font-stretch:normal;font-size:41.5014px;font-family:TallThin;-inkscape-font-specification:TallThin;text-align:center;letter-spacing:1.32292px;text-anchor:middle;fill:#19919b;fill-opacity:1;stroke:#7c7c7c;stroke-width:1.16723;stroke-dasharray:none;stroke-opacity:1"
         x="137.9259"
         y="140.25476"
         sodipodi:role="line"
         id="tspan5">ðgȝhƕijkʞlm</tspan><tspan
         style="font-style:normal;font-variant:normal;font-weight:normal;font-stretch:normal;font-size:41.5014px;font-family:TallThin;-inkscape-font-specification:TallThin;text-align:center;letter-spacing:1.32292px;text-anchor:middle;fill:#19919b;fill-opacity:1;stroke:#7c7c7c;stroke-width:1.16723;stroke-dasharray:none;stroke-opacity:1"
         x="137.9259"
         y="181.75616"
         sodipodi:role="line"
         id="tspan3">nиŋoœpqrsʃ</tspan><tspan
         style="font-style:normal;font-variant:normal;font-weight:normal;font-stretch:normal;font-size:41.5014px;font-family:TallThin;-inkscape-font-specification:TallThin;text-align:center;letter-spacing:1.32292px;text-anchor:middle;fill:#19919b;fill-opacity:1;stroke:#7c7c7c;stroke-width:1.16723;stroke-dasharray:none;stroke-opacity:1"
         x="145.47401"
         y="223.25755"
         sodipodi:role="line"
         id="tspan23">tчuȣvwꝏxyz </tspan></text>
    <g
       id="text15"
       style="font-size:41.5014px;line-height:1;font-family:'BlockTrain Hand';-inkscape-font-specification:'BlockTrain Hand';letter-spacing:1.32292px;fill:#19919b;stroke:#7c7c7c;stroke-width:1.16723"
       aria-label="aæbcçdefφþ&#10;ðgȝhƕijkʞlm&#10;nиŋoœpqrsʃ&#10;tчuȣvwꝏxyz ">
      <path
         style="font-family:TallThin;-inkscape-font-specification:TallThin;text-align:center;text-anchor:middle"
         d="m 63.000001,87.091464 h -0.996034 -1.411048 -0.0415 c -1.037535,0 -1.867563,0.871529 -1.867563,1.909064 v 7.636258 0.207507 c 0,1.037535 0.830028,1.909064 1.867563,1.909064 h 0.0415 3.569121 0.0415 0.124504 0.0415 c 0.539518,0 1.037535,-0.249008 1.369546,-0.664022 v 0.664022 h 1.411048 1.909064 V 96.512281 81.198265 79.081693 c 0,-1.037535 -0.830028,-1.909064 -1.867563,-1.909064 h -0.0415 -2.863597 -3.693625 -0.0415 c -1.037535,0 -1.867563,0.871529 -1.867563,1.909064 v 0.083 1.535552 h 3.154106 0.083 0.083 c 0,-1.037535 0.788527,-1.867563 1.826062,-1.867563 h 0.0415 0.0415 c 1.037535,0 1.826062,0.871529 1.826062,1.909064 v 0.0415 0.622521 3.652123 0.083 0.0415 c 0,1.037535 -0.788527,1.909065 -1.826062,1.909065 h -0.0415 z m 1.452549,1.701557 h 0.0415 c 0.498017,0 0.913031,-0.166006 1.245042,-0.498017 v 6.598723 0.207507 0.0415 c 0,1.037535 -0.788527,1.909065 -1.826062,1.909065 h -0.0415 -0.0415 c -1.037535,0 -1.826062,-0.87153 -1.826062,-1.909065 v -0.0415 -0.373513 -3.984134 -0.0415 c 0,-1.037535 0.788527,-1.909064 1.826062,-1.909064 h 0.0415 0.539518 z m 14.437358,0 h 1.867563 v 6.432717 c 0,1.037535 -0.830028,1.867563 -1.867563,1.867563 -1.037535,0 -1.867563,-0.830028 -1.867563,-1.867563 v -4.565154 c 0,-1.037535 0.830028,-1.867563 1.867563,-1.867563 z m 1.867563,-1.660056 h -5.187675 c -1.037535,0 -1.867563,0.830028 -1.867563,1.867563 v 7.885266 c 0,1.037535 0.830028,1.867563 1.867563,1.867563 h 5.353681 0.0415 c 0.58102,0 1.120538,-0.249008 1.452549,-0.705524 0.332012,0.456516 0.87153,0.705524 1.452549,0.705524 h 0.0415 7.221243 v -1.660056 h -5.187675 c -1.037535,0 -1.867563,-0.830028 -1.867563,-1.867563 v -6.432717 h 7.055238 v -9.752829 c 0,-1.037535 -0.830028,-1.867563 -1.867563,-1.867563 h -5.35368 -0.0415 c -0.581019,0 -1.120537,0.249008 -1.452549,0.705524 -0.332011,-0.456516 -0.871529,-0.705524 -1.452549,-0.705524 h -0.0415 -5.353681 c -1.037535,0 -1.867563,0.830028 -1.867563,1.867563 v 1.660056 h 3.320112 c 0,-1.037535 0.830028,-1.867563 1.867563,-1.867563 1.037535,0 1.867563,0.830028 1.867563,1.867563 z m 7.055238,0 h -3.735126 v -6.432717 c 0,-1.037535 0.830028,-1.867563 1.867563,-1.867563 1.037535,0 1.867563,0.830028 1.867563,1.867563 z m 7.963145,-19.090644 h 3.320112 v 9.130308 h 3.320114 c 2.07507,0 3.73512,1.660056 3.73512,3.735126 v 14.110476 c 0,2.07507 -1.66005,3.735126 -3.73512,3.735126 h -1.99207 -0.083 -0.083 c -0.45652,0 -0.830033,-0.166006 -1.162044,-0.415014 v 0.415014 h -3.320112 z m 3.320112,10.790364 v 18.260616 c 2.075074,0 3.735124,-1.660056 3.735124,-3.735126 V 82.567811 c 0,-2.07507 -1.66005,-3.735126 -3.735124,-3.735126 z m 22.073614,18.260616 h -5.18767 c -1.03754,0 -1.86756,-0.830028 -1.86756,-1.867563 v -14.52549 c 0,-1.037535 0.83002,-1.867563 1.86756,-1.867563 h 5.18767 v -1.660056 h -8.50778 c -1.03754,0 -1.86757,0.830028 -1.86757,1.867563 v 17.845602 c 0,1.037535 0.83003,1.867563 1.86757,1.867563 h 8.50778 z m 15.01838,0 h -5.18768 c -1.03753,0 -1.86756,-0.830028 -1.86756,-1.867563 v -14.52549 c 0,-1.037535 0.83003,-1.867563 1.86756,-1.867563 h 5.18768 v -1.660056 h -8.50779 c -1.03753,0 -1.86756,0.830028 -1.86756,1.867563 v 17.845602 c 0,1.037535 0.83003,1.867563 1.86756,1.867563 h 8.50779 z m 15.01838,-29.05098 h -3.32011 v 9.130308 h -3.32012 c -2.07507,0 -3.73512,1.660056 -3.73512,3.735126 v 14.110476 c 0,2.07507 1.66005,3.735126 3.73512,3.735126 h 1.99207 0.083 0.083 c 0.45651,0 0.83002,-0.166006 1.16204,-0.415014 v 0.415014 h 3.32011 z m -3.32011,10.790364 v 18.260616 c -2.07507,0 -3.73513,-1.660056 -3.73513,-3.735126 V 82.567811 c 0,-2.07507 1.66006,-3.735126 3.73513,-3.735126 z m 9.8307,-1.660056 c -1.03753,0 -1.86756,0.830028 -1.86756,1.867563 v 17.845602 c 0,1.037535 0.83003,1.867563 1.86756,1.867563 h 8.50779 v -1.660056 h -5.18768 c -1.03753,0 -1.86756,-0.830028 -1.86756,-1.867563 v -6.432717 h 5.18767 c 1.03754,0 1.86757,-0.830028 1.86757,-1.867563 v -7.885266 c 0,-1.037535 -0.83003,-1.867563 -1.86757,-1.867563 z m 3.27861,1.660056 h 0.083 c 1.03754,0 1.82607,0.871529 1.82607,1.909064 v 4.523653 c 0,1.037535 -0.83003,1.867563 -1.86757,1.867563 h -1.86756 v -6.432717 c 0,-1.037535 0.78853,-1.867563 1.82606,-1.867563 z M 181.2431,71.86045 v 1.577053 h -3.32012 c 0,-1.992067 0,-3.735126 -1.86756,-3.735126 -1.86756,0 -1.86756,1.743059 -1.86756,3.735126 v 0.083 8.673792 c 0.1245,-0.0415 0.29051,-0.0415 0.41501,-0.0415 h 0.0415 4.93867 v 1.660056 h -3.52762 c -1.86756,0 -1.86756,0.913031 -1.86756,2.905098 v 0.871529 11.163877 h -3.32011 V 87.58948 85.887923 71.86045 v -0.083 c 0,-2.07507 1.66005,-3.735126 3.73512,-3.735126 h 2.9051 c 2.07507,0 3.73513,1.660056 3.73513,3.735126 z m 13.77333,5.312179 v -5.395182 h -3.32011 v 5.395182 h -2.07507 c -2.07507,0 -3.73512,1.660056 -3.73512,3.735126 v 14.110476 c 0,2.07507 1.66005,3.735126 3.73512,3.735126 h 2.07507 v 5.395183 h 3.32011 v -5.395183 h 2.07507 c 2.07507,0 3.73513,-1.660056 3.73513,-3.735126 V 80.907755 c 0,-2.07507 -1.66006,-3.735126 -3.73513,-3.735126 z m 0,19.713165 V 79.040192 c 1.45255,0.498017 2.49009,1.909064 2.49009,3.527619 v 10.790364 c 0,1.618555 -1.03754,3.029602 -2.49009,3.527619 z m -3.32011,-17.845602 v 17.845602 c -1.45255,-0.498017 -2.49008,-1.909064 -2.49008,-3.527619 V 82.567811 c 0,-1.618555 1.03753,-3.029602 2.49008,-3.527619 z m 19.00254,-0.166006 c 1.03753,0 1.82606,0.87153 1.82606,1.909065 v 12.574924 c 0,2.07507 -1.61855,3.735126 -3.69362,3.735126 h -0.0415 v -16.31005 c 0,-1.037535 0.78853,-1.909065 1.82607,-1.909065 z m -1.90907,19.464157 c 0.33202,0.249008 0.70553,0.415014 1.16204,0.415014 h 0.083 0.083 1.99207 c 2.07507,0 3.73512,-1.660056 3.73512,-3.735126 V 80.907755 c 0,-2.07507 -1.66005,-3.735126 -3.73512,-3.735126 h -1.99207 -0.083 -0.083 c -0.45651,0 -0.83002,0.166006 -1.16204,0.415014 v -9.545322 h -3.32011 v 39.011319 h 3.32011 z"
         id="path15" />
      <path
         style="font-family:TallThin;-inkscape-font-specification:TallThin;text-align:center;text-anchor:middle"
         d="m 63.479832,117.01397 v -2.9051 c 0.954533,0.083 1.701558,0.87153 1.701558,1.86757 v 0.083 0.20751 c 0,1.53555 -0.415014,1.82606 -0.664023,3.0711 -0.332011,-0.41501 -0.830028,-0.66402 -1.411047,-0.66402 h -0.0415 -0.0415 -0.539518 -0.87153 -0.373512 -0.207507 c -2.07507,0 -3.735126,1.66005 -3.735126,3.73512 v 14.11048 c 0,2.07507 1.660056,3.73513 3.735126,3.73513 h 2.905098 c 2.07507,0 3.735126,-1.66006 3.735126,-3.73513 v -17.43059 -4.68966 -0.083 c 0,-1.03753 -0.830028,-1.86756 -1.867563,-1.86756 h -2.324079 v -2.9051 h -2.490084 v 2.9051 h -2.863596 v 1.66005 h 2.863596 v 2.9051 z m -2.863596,19.21515 v -13.90297 -0.0415 c 0,-1.03753 0.788526,-1.90906 1.826061,-1.90906 h 0.0415 0.0415 c 1.037535,0 1.826062,0.87153 1.826062,1.90906 v 0.0415 14.06898 0.2075 0.0415 c 0,1.03753 -0.788527,1.90906 -1.826062,1.90906 h -0.0415 -0.0415 c -1.037535,0 -1.826061,-0.87153 -1.826061,-1.90906 v -0.0415 z m 15.018378,-13.52946 v 13.90297 0.0415 c 0,1.03753 0.788527,1.90906 1.826062,1.90906 h 0.0415 0.0415 c 1.037535,0 1.826062,-0.87153 1.826062,-1.90906 v -0.0415 -14.06897 -0.20751 -0.0415 c 0,-1.03753 -0.788527,-1.90906 -1.826062,-1.90906 h -0.0415 -0.0415 c -1.037535,0 -1.826062,0.87153 -1.826062,1.90906 v 0.0415 z m 3.735126,17.05708 c -0.332011,0.33201 -0.747025,0.49802 -1.245042,0.49802 h -0.0415 -0.0415 -0.539518 -0.871529 -0.373513 -0.207507 c -2.07507,0 -3.735126,-1.66006 -3.735126,-3.73513 v -14.11048 c 0,-2.07507 1.660056,-3.73512 3.735126,-3.73512 h 1.78456 0.124504 0.0415 c 0.539518,0 1.037535,0.20751 1.369546,0.49802 v -0.49802 h 3.320112 v 4.15014 17.01557 4.68966 0.083 c 0,1.03754 -0.830028,1.86757 -1.867563,1.86757 h -8.092773 v -1.66006 h 4.772661 c 1.037535,0 1.867563,-0.83003 1.867563,-1.86756 v -0.083 -0.58102 z m 15.018378,-9.91883 v -7.55326 c 0,-1.03753 -0.788526,-1.90906 -1.826061,-1.90906 h -0.083 c -1.037535,0 -1.826062,0.87153 -1.826062,1.90906 v 0.1245 H 87.33288 c 0,-2.07507 1.660056,-3.73512 3.735126,-3.73512 h 2.905098 c 2.07507,0 3.735126,1.66005 3.735126,3.73512 v 5.93471 1.03753 0.91303 c 0,1.36955 -0.415014,2.19958 -1.369546,2.9051 0.830028,0.66402 1.369546,1.74306 1.369546,2.9051 v 6.64022 c 0,2.07507 -1.660056,3.73513 -3.735126,3.73513 h -6.22521 v -1.66006 h 4.772661 c 1.037535,0 1.867563,-0.83003 1.867563,-1.86756 v -6.59872 -0.37352 c 0,-0.45651 -0.166005,-0.91303 -0.456515,-1.24504 l -4.108639,2.69759 -0.871529,-1.36954 3.85963,-2.36558 c 0.954532,-0.58102 1.577053,-1.32805 1.577053,-2.49009 z m 7.963142,-20.29419 v 30.71104 h 3.32011 v -15.14801 c 0,-3.61063 0.53952,-4.77267 1.86756,-4.77267 1.28655,0 1.86757,1.16204 1.86757,4.77267 v 15.14801 h 3.32011 V 123.8617 c 0,-3.27861 -1.90907,-5.18767 -4.77266,-5.18767 h -0.83003 c -0.58102,0 -1.16204,0.1245 -1.45255,0.29051 v -9.42082 z m 15.01838,0 v 30.71104 h 3.32011 v -15.14801 c 0,-3.61063 0.53952,-4.77267 1.86756,-4.77267 1.28655,0 1.86756,1.16204 1.86756,4.77267 v 13.48795 1.66006 h 1.45255 0.20751 c 1.32805,0 2.69759,-0.58102 3.73513,-1.66006 l 3.56912,-3.77663 c 1.20354,-1.28654 1.41104,-2.03357 1.41104,-3.27861 v -12.0354 c 0,-0.33201 -0.166,-0.70553 -0.45651,-0.95454 l -1.20354,-1.16203 -1.20354,1.16203 c -0.29051,0.24901 -0.45652,0.62253 -0.45652,0.95454 v 13.11444 c 0,1.20354 -0.083,2.07507 -1.03753,2.9881 l -1.95057,1.95057 c -0.24901,0.249 -0.49801,0.45651 -0.74702,0.62252 V 123.8617 c 0,-3.27861 -1.90907,-5.18767 -4.77266,-5.18767 h -0.83003 c -0.58102,0 -1.16204,0.1245 -1.45255,0.29051 v -9.42082 z m 22.07362,28.84347 v -19.71316 h 3.32011 v 18.05311 c 0,1.03753 0.74702,1.86756 1.66005,1.86756 h 1.86757 v 1.66006 h -5.18768 c -0.91303,0 -1.66005,-0.83003 -1.66005,-1.86757 z m -0.41502,-24.40282 c 0,0.41501 0.20751,0.91303 0.58102,1.20354 l 1.49405,1.45255 1.49405,-1.45255 c 0.37352,-0.29051 0.58102,-0.78853 0.58102,-1.20354 0,-0.41501 -0.2075,-0.87153 -0.58102,-1.16204 l -1.49405,-1.45255 -1.49405,1.45255 c -0.37351,0.29051 -0.58102,0.74703 -0.58102,1.16204 z m 13.56583,30.62803 v -25.93837 h -3.32011 v 24.27832 c 0,1.03753 -0.74702,1.86756 -1.66006,1.86756 h -1.86756 v 1.66006 h 5.18768 c 0.91303,0 1.66005,-0.83003 1.66005,-1.86757 z m 0.41502,-30.62803 c 0,0.41501 -0.20751,0.91303 -0.58102,1.20354 l -1.49405,1.45255 -1.49405,-1.45255 c -0.37352,-0.29051 -0.58102,-0.78853 -0.58102,-1.20354 0,-0.41501 0.2075,-0.87153 0.58102,-1.16204 l 1.49405,-1.45255 1.49405,1.45255 c 0.37351,0.29051 0.58102,0.74703 0.58102,1.16204 z m 7.54812,15.60453 2.9051,-2.9051 c 0.83002,-0.83003 0.83002,-1.78456 0.83002,-3.69363 v -0.29051 -3.1956 c 0,-0.33201 0.16601,-0.66403 0.45652,-0.91303 l 1.20354,-1.16204 1.20354,1.16204 c 0.29051,0.249 0.45652,0.58102 0.45652,0.91303 v 3.44461 c 0,1.36955 -0.49802,2.19958 -1.28655,3.02961 l -2.36558,2.49008 -0.83003,0.78853 c 3.11261,1.03753 4.48216,4.10863 4.48216,8.75679 v 2.24108 h -3.32012 v -2.28258 c 0,-2.61459 -0.1245,-6.51572 -2.28257,-7.67776 l -1.45255,1.36955 v 8.59079 h -3.32011 v -30.71104 h 3.32011 z m 16.22192,0.083 -0.87153,0.78853 -2.36558,2.49008 c -0.78853,0.83003 -1.28655,1.66006 -1.28655,3.0296 v 4.27465 h 3.32012 v -4.02564 -0.29051 c 0,-1.90906 0,-2.8636 0.83002,-3.69362 l 2.9051,-2.9051 v 0.66402 15.64603 h 3.32011 v -26.97591 h -3.32011 v 8.59079 l -1.45255,1.36954 c -2.15807,-1.16203 -2.28257,-5.06317 -2.28257,-7.67775 v -7.67776 h -3.32012 v 7.63625 c 0,4.68966 1.36955,7.76077 4.52366,8.7568 z m 13.81484,10.58286 h 2.24108 0.0415 c 0.29051,0 0.33201,-0.083 0.45652,-0.20751 l 0.58102,-0.62252 -0.58102,-0.62252 c -0.12451,-0.12451 -0.16601,-0.20751 -0.45652,-0.20751 -2.69759,0 -2.69759,-1.66006 -2.69759,-3.73513 v -25.31585 h -3.32011 v 26.97591 c 0,2.07507 1.66005,3.73513 3.73512,3.73513 z m 9.20821,0 v -18.50963 c 1.16204,0 2.24107,0.45652 3.0296,1.24504 l 2.8221,2.7391 c -0.29051,0.24901 -0.45652,0.58102 -0.45652,0.91303 v 13.61246 h 3.32011 V 126.6423 c 0,-0.33201 -0.166,-0.66402 -0.45651,-0.91303 l 2.82209,-2.7391 c 0.78853,-0.78852 1.86757,-1.24504 3.02961,-1.24504 v 17.26458 c 0,0.33202 0.166,0.70553 0.45651,0.95454 l 1.20354,1.16204 1.20354,-1.16204 c 0.29051,-0.24901 0.45652,-0.62252 0.45652,-0.95454 v -20.7507 h -1.49405 -0.33201 -0.24901 c -1.16204,0 -2.24108,0.45652 -3.0296,1.24505 l -5.27068,5.06317 -5.27068,-5.06317 c -0.78853,-0.78853 -1.86756,-1.24505 -3.0296,-1.24505 h -0.29051 -0.29051 -1.49405 v 21.99575 z"
         id="path16" />
      <path
         style="font-family:TallThin;-inkscape-font-specification:TallThin;text-align:center;text-anchor:middle"
         d="m 61.173881,181.75616 v -18.09461 c 1.162039,0 2.241075,0.45651 3.029602,1.24504 l 2.36558,2.28258 v 14.56699 h 3.320112 v -20.7507 c 0,-0.33201 -0.166006,-0.66403 -0.456516,-0.91303 l -1.20354,-1.16204 -1.203541,1.16204 c -0.29051,0.249 -0.456515,0.58102 -0.456515,0.91303 v 3.85963 l -3.610622,-3.44462 c -0.788527,-0.78853 -1.867563,-1.24504 -3.029602,-1.24504 h -0.29051 -0.29051 -1.49405 v 21.58073 z m 16.678472,0 v -10.87337 c 1.660056,-1.70156 3.693625,-3.81813 5.395182,-5.56119 v 16.43456 h 3.320112 v -20.6677 -0.083 c 0,-0.33201 -0.166006,-0.66403 -0.456515,-0.91303 l -1.203541,-1.16204 -1.203541,1.16204 c -0.290509,0.249 -0.456515,0.58102 -0.456515,0.91303 v 0.0415 c 0,1.16204 -0.830028,2.49008 -1.328045,3.0296 l -4.067137,4.23314 v -8.13427 h -1.535552 -1.78456 v 21.58073 z m 16.678473,0 v -18.09461 c 1.162039,0 2.241075,0.45651 3.029602,1.24504 l 2.36558,2.28258 v 13.73696 0.83003 2.61459 0.083 c 0,1.03753 -0.830028,1.86756 -1.867563,1.86756 h -6.432717 v 1.66006 h 7.885266 c 2.075066,0 3.735126,-1.66006 3.735126,-3.73513 v -0.24901 -2.24107 -0.83003 -19.92067 c 0,-0.33201 -0.16601,-0.66403 -0.45652,-0.91303 l -1.20354,-1.16204 -1.20354,1.16204 c -0.29051,0.249 -0.456512,0.58102 -0.456512,0.91303 v 3.85963 l -3.610622,-3.44462 c -0.788527,-0.78853 -1.867563,-1.24504 -3.029602,-1.24504 h -0.29051 -0.29051 -1.49405 v 21.58073 z M 111.2093,165.57061 c 0,-1.99207 0,-3.73513 1.86756,-3.73513 1.86757,0 1.86757,1.74306 1.86757,3.73513 v 10.79036 c 0,1.99207 0,3.73513 -1.86757,3.73513 -1.86756,0 -1.86756,-1.74306 -1.86756,-3.73513 z m -3.32011,12.45042 c 0,2.07507 1.66005,3.73513 3.73512,3.73513 h 2.9051 c 2.07507,0 3.73513,-1.66006 3.73513,-3.73513 v -14.11048 c 0,-2.07507 -1.66006,-3.73512 -3.73513,-3.73512 h -2.9051 c -2.07507,0 -3.73512,1.66005 -3.73512,3.73512 z m 18.33849,-12.45042 c 0,-1.99207 0,-3.73513 1.86756,-3.73513 1.86756,0 1.86756,1.74306 1.86756,3.73513 v 10.79036 c 0,1.99207 0,3.73513 -1.86756,3.73513 -1.86756,0 -1.86756,-1.74306 -1.86756,-3.73513 z m -3.32012,12.45042 c 0,2.07507 1.66006,3.73513 3.73513,3.73513 h 2.44858 0.0415 c 0.78853,0 1.49405,-0.24901 2.11657,-0.66403 0.33202,0.41502 0.83003,0.66403 1.41105,0.66403 h 0.0415 7.63626 v -1.66006 h -5.18767 c -1.03754,0 -1.86757,-0.83003 -1.86757,-1.86756 v -6.43272 h 5.18768 1.86756 v -9.62832 -0.12451 c 0,-1.03753 -0.83003,-1.86756 -1.86756,-1.86756 h -5.7687 -0.0415 c -0.58102,0 -1.07903,0.24901 -1.41105,0.66402 -0.62252,-0.41501 -1.32804,-0.66402 -2.11657,-0.66402 h -0.0415 -2.44858 c -2.07507,0 -3.73513,1.66005 -3.73513,3.73512 z m 12.20141,-16.18555 h 0.083 c 1.03753,0 1.82606,0.87153 1.82606,1.90907 v 0.1245 6.26671 h -1.86756 -1.86757 v -6.43271 c 0,-1.03754 0.78853,-1.86757 1.82606,-1.86757 z m 13.23383,18.26062 h -0.0415 v -18.26062 h 0.0415 c 2.07507,0 3.69363,1.66006 3.69363,3.73513 v 10.79036 c 0,2.07507 -1.61856,3.73513 -3.69363,3.73513 z m -0.0415,1.24504 c 0.33201,0.24901 0.70552,0.41502 1.16204,0.41502 h 0.083 0.083 1.99207 c 2.07507,0 3.73513,-1.66006 3.73513,-3.73513 v -14.11048 c 0,-2.07507 -1.66006,-3.73512 -3.73513,-3.73512 h -6.64022 v 29.88101 h 3.32011 z m 22.07362,2.40708 v 0.16601 c 0,1.45255 0.249,2.8636 1.03753,3.65212 l 0.20751,0.20751 0.20751,-0.20751 c 0.83002,-0.74702 1.03753,-1.66005 1.03753,-3.1126 v -0.0415 -0.083 -0.083 c 0,-0.41501 0.16601,-0.66402 0.45652,-0.91303 l 1.20354,-1.16204 1.20354,1.16204 c 0.29051,0.24901 0.45651,0.49802 0.45651,0.91303 v 0.083 c 0,1.12054 -0.58102,1.53556 -1.99206,3.02961 l -2.57309,2.69759 -1.16204,-1.20354 c -0.0415,-0.0415 -0.0415,-0.0415 -0.083,-0.083 l -1.90907,-1.99206 c -0.87153,-0.87153 -1.41105,-2.40708 -1.41105,-4.10864 v -0.20751 -1.20354 c -0.33201,0.33201 -0.74702,0.49802 -1.24504,0.49802 h -0.0415 -0.0415 -0.53952 -0.87153 -0.37351 -0.20751 c -2.07507,0 -3.73512,-1.66006 -3.73512,-3.73513 v -14.11048 c 0,-2.07507 1.66005,-3.73512 3.73512,-3.73512 h 1.78456 0.12451 0.0415 c 0.53952,0 1.03753,0.20751 1.36954,0.49802 v -0.49802 h 3.32012 v 4.15014 17.01557 z m -7.05524,-19.54716 v 13.90297 0.0415 c 0,1.03753 0.78852,1.90906 1.82606,1.90906 h 0.0415 0.0415 c 1.03754,0 1.82606,-0.87153 1.82606,-1.90906 v -0.0415 -14.06897 -0.20751 -0.0415 c 0,-1.03753 -0.78852,-1.90906 -1.82606,-1.90906 h -0.0415 -0.0415 c -1.03754,0 -1.82606,0.87153 -1.82606,1.90906 v 0.0415 z m 14.76936,-2.15807 c 0,0.62252 -0.16601,1.03754 -0.49802,1.49405 -0.0415,0.083 -0.1245,0.16601 -0.166,0.20751 -0.12451,0 -0.24901,0 -0.41502,-0.0415 -0.83003,-0.12451 -1.41104,-0.66402 -1.41104,-1.49405 0,-0.83003 0.53951,-1.36955 1.36954,-1.36955 0.66402,0 1.12054,0.45652 1.12054,1.12054 z m -1.32805,3.85963 c -0.0415,0.37351 -0.083,0.87153 -0.083,1.41105 v 2.82209 c 0,0.33202 0.16601,0.70553 0.45652,0.95454 l 1.20354,1.16204 1.20354,-1.16204 c 0.29051,-0.24901 0.45651,-0.62252 0.45651,-0.95454 v -5.51968 l 0.20751,-0.20751 1.53555,-1.53555 c 0.53952,-0.53952 0.95453,-0.83003 1.57706,-0.95453 v 19.83767 h 3.32011 v -21.58073 h -2.49009 -0.0415 c -1.32804,0 -2.65609,0.58102 -3.69362,1.66005 l -0.41502,0.45652 v -0.87153 c 0,-1.61855 -1.28654,-2.9051 -2.90509,-2.9051 -2.03357,0 -3.73513,1.61856 -3.73513,3.69363 0,1.95056 1.53555,3.48612 3.40311,3.69362 z m 23.48471,8.00977 -4.89717,-5.39518 c -0.74702,-0.78853 -0.74702,-0.87153 -0.74702,-2.24108 v -1.28654 -1.24504 -0.0415 c 0,-1.20354 0.95453,-1.86757 1.86756,-1.86757 0.91303,0 1.86756,0.66403 1.86756,1.86757 0,0.33201 0.16601,0.70552 0.45652,0.95453 l 1.20354,1.16204 1.20354,-1.16204 c 0.29051,-0.24901 0.45652,-0.62252 0.45652,-0.95453 v -1.66006 c 0,-1.03753 -0.83003,-1.86756 -1.86757,-1.86756 h -4.77266 c -2.07507,0 -3.73512,1.61855 -3.73512,3.69362 v 0.0415 c 0,1.70156 0,2.57309 1.41104,4.10864 l 4.93867,5.43669 c 0.66402,0.74702 0.70552,0.83002 0.70552,1.99206 v 1.49405 1.24505 0.0415 c 0,1.20354 -0.95453,1.86756 -1.86756,1.86756 -0.91303,0 -1.86756,-0.66402 -1.86756,-1.86756 h -3.32011 v 1.66005 c 0,1.03754 0.83002,1.86757 1.86756,1.86757 h 4.77266 c 2.07507,0 3.73513,-1.61856 3.73513,-3.69363 v -0.0415 c 0,-1.70156 0,-2.53158 -1.41105,-4.10864 z m 15.01837,2.07507 c 1.41105,2.11657 1.41105,6.55722 1.41105,8.25878 v 0.0415 c 0,2.07507 -1.66006,3.69363 -3.73513,3.69363 h -4.77266 c -1.03753,0 -1.86756,-0.83003 -1.86756,-1.86757 v -1.66005 h 3.32011 c 0,1.20354 0.95453,1.86756 1.86756,1.86756 0.91303,0 1.86757,-0.66402 1.86757,-1.86756 v -0.0415 -1.24505 -1.49405 c 0,-3.85963 -0.0415,-5.10467 -0.70553,-6.1422 l -4.93866,-7.51176 c -0.12451,-0.166 -1.41105,-2.36558 -1.41105,-4.10864 v -0.0415 c 0,-2.07507 1.66005,-3.69362 3.73512,-3.69362 h 4.77266 c 1.03754,0 1.86757,0.83003 1.86757,1.86756 v 1.66006 c 0,0.33201 -0.16601,0.70552 -0.45652,0.95453 l -1.20354,1.16204 -1.20354,-1.16204 c -0.29051,-0.24901 -0.45651,-0.62252 -0.45651,-0.95453 0,-1.20354 -0.95454,-1.86757 -1.86757,-1.86757 -0.91303,0 -1.86756,0.66403 -1.86756,1.86757 v 0.0415 1.24504 1.28654 c 0,1.28655 0.66402,2.07507 0.74702,2.24108 z"
         id="path17" />
      <path
         style="font-family:TallThin;-inkscape-font-specification:TallThin;text-align:center;text-anchor:middle"
         d="m 65.155527,205.28745 v 14.44249 c 0,1.03753 0.747025,1.86756 1.660056,1.86756 h 1.867563 v 1.66006 h -5.187675 c -0.913031,0 -1.660056,-0.83003 -1.660056,-1.86757 v -16.55905 -1.49406 h -0.622521 -2.905098 v -1.66005 h 1.577053 0.87153 c 1.037535,0 1.079036,-0.37351 1.079036,-1.41105 v -0.45651 -2.28258 c 0,-0.33201 0.166006,-0.70552 0.456515,-0.95453 l 1.203541,-1.16204 1.203541,1.16204 c 0.290509,0.24901 0.456515,0.62252 0.456515,0.95453 v 4.15014 h 3.527619 v 1.66005 H 67.02309 66.151561 c -0.996034,0 -0.996034,0.45652 -0.996034,1.49406 z m 15.225885,6.34971 c -0.498017,0 -1.618554,0 -1.826061,0 h -0.0415 c -1.867563,0 -1.867563,-1.74305 -1.867563,-3.73512 v -6.22521 h -3.320112 v 7.88526 c 0,2.07507 1.660056,3.73513 3.735126,3.73513 h 0.0415 3.27861 v 9.96034 h 3.320112 v -21.58073 h -3.320112 z m 18.33849,-9.96033 H 95.39979 v 16.18554 c 0,1.99207 0,3.73513 -1.867563,3.73513 -1.867563,0 -1.867563,-1.74306 -1.867563,-3.73513 v -16.18554 h -3.320112 v 17.8456 c 0,2.07507 1.660056,3.73513 3.735126,3.73513 h 2.905098 c 2.07507,0 3.735126,-1.66006 3.735126,-3.73513 z m 14.603368,0 h -3.32012 v 6.0177 c 0,1.99207 0,3.73513 -1.86756,3.73513 -1.86756,0 -1.86756,-1.74306 -1.86756,-3.73513 v -6.0177 h -3.32011 v 7.67776 c 0,1.28654 0.66402,2.44858 1.66005,3.1126 -0.99603,0.66403 -1.66005,1.82606 -1.66005,3.11261 v 3.94263 c 0,2.07507 1.66005,3.73513 3.73512,3.73513 h 2.9051 c 2.07507,0 3.73513,-1.66006 3.73513,-3.73513 v -3.94263 c 0,-1.28655 -0.66403,-2.44858 -1.66006,-3.11261 0.99603,-0.66402 1.66006,-1.82606 1.66006,-3.1126 z m -7.05524,15.56302 c 0,-1.99206 0,-3.73512 1.86756,-3.73512 1.86756,0 1.86756,1.74306 1.86756,3.73512 v 0.62252 c 0,1.99207 0,3.73513 -1.86756,3.73513 -1.86756,0 -1.86756,-1.74306 -1.86756,-3.73513 z m 12.77728,6.01771 h 0.16601 c 1.32804,0 2.69759,-0.58102 3.73512,-1.66006 l 3.56912,-3.77663 c 1.20354,-1.28654 1.41105,-2.03357 1.41105,-3.27861 v -12.0354 c 0,-0.33201 -0.166,-0.70553 -0.45651,-0.95454 l -1.20354,-1.16203 -1.20355,1.16203 c -0.29051,0.24901 -0.45651,0.62253 -0.45651,0.95454 v 13.11444 c 0,1.20354 -0.083,2.07507 -1.03754,2.9881 l -1.95056,1.95057 c -0.24901,0.249 -0.49802,0.45651 -0.74703,0.62252 v -19.50566 h -3.32011 v 19.92067 1.66006 z m 23.81668,-2.03357 c 0.0415,-0.29051 0.083,-0.62252 0.083,-0.87153 v -17.8456 c 0,-0.33201 -0.166,-0.70553 -0.45651,-0.95454 l -1.20354,-1.16203 -1.20354,1.16203 c -0.29051,0.24901 -0.45652,0.62253 -0.45652,0.95454 v 17.8456 c 0,0.24901 0.0415,0.58102 0.083,0.87153 -0.29051,-0.16601 -0.53952,-0.37351 -0.83003,-0.66402 l -1.95057,-1.95057 c -0.95453,-0.91303 -1.03753,-1.78456 -1.03753,-2.9881 v -13.94447 h -3.32012 v 12.86543 c 0,1.24504 0.20751,1.99207 1.41105,3.27861 l 3.56912,3.77663 c 1.03754,1.07904 2.40708,1.66006 3.73513,1.66006 1.32804,0 2.69759,-0.58102 3.73512,-1.66006 l 3.56912,-3.77663 c 1.20355,-1.28654 1.41105,-2.03357 1.41105,-3.27861 v -12.86543 h -3.32011 v 13.94447 c 0,1.20354 -0.083,2.07507 -1.03753,2.9881 l -1.95057,1.95057 c -0.29051,0.29051 -0.53952,0.49801 -0.83003,0.66402 z m 15.10138,-14.15198 c 0,-1.99207 0,-3.73513 2.28258,-3.73513 0.78853,0 1.32804,0.29051 1.66006,0.83003 -0.12451,0.37352 -0.20751,0.78853 -0.20751,1.24504 v 12.45042 c 0,1.99207 0,3.73513 -1.86756,3.73513 -1.86757,0 -1.86757,-1.74306 -1.86757,-3.73513 z m -3.32011,12.45042 c 0,2.07507 1.66006,3.73513 3.73513,3.73513 h 2.90509 c 0.70553,0 1.36955,-0.20751 1.90907,-0.53952 0.49802,0.33201 1.12054,0.53952 1.82606,0.53952 h 3.32011 c 2.07507,0 3.73513,-1.66006 3.73513,-3.73513 v -14.11048 c 0,-2.07507 -1.66006,-3.73512 -3.73513,-3.73512 h -2.9051 c -0.70552,0 -1.36954,0.20751 -1.90906,0.53952 -0.49802,-0.33201 -1.12054,-0.53952 -1.82606,-0.53952 h -3.32011 c -2.07507,0 -3.73513,1.66005 -3.73513,3.73512 z m 10.16784,1.24504 c 0.12451,-0.37351 0.20751,-0.78852 0.20751,-1.24504 v -12.45042 c 0,-1.99207 0,-3.73513 1.86756,-3.73513 1.86757,0 1.86757,1.74306 1.86757,3.73513 v 10.79036 c 0,1.99207 0,3.73513 -2.28258,3.73513 -0.78853,0 -1.32805,-0.29051 -1.66006,-0.83003 z m 22.28113,-15.14801 v -0.20751 -3.73512 h -3.32011 v 3.32011 1.70156 0.166 c 0,1.45255 -0.33201,2.7806 -1.03753,3.65213 l -0.83003,0.83003 -0.83003,-0.83003 c -0.70552,-0.87153 -1.03753,-2.19958 -1.03753,-3.65213 v -0.166 -1.70156 -3.32011 h -3.32012 v 3.73512 0.20751 c 0,1.70156 0.53952,3.23711 1.41105,4.10864 2.32408,2.40708 2.36558,2.44858 2.36558,2.44858 l 0.29051,0.29051 -0.41501,0.37352 c -0.0415,0.0415 -0.0415,0.083 -2.36558,2.49008 -0.78853,0.83003 -1.28655,1.78456 -1.28655,2.44858 v 5.47819 h 3.32012 v -5.27068 -0.74703 -0.70552 c 0,-0.53952 0.2075,-1.28654 0.83002,-1.90906 l 1.03754,-1.03754 1.03753,1.03754 c 0.62253,0.62252 0.83003,1.36954 0.83003,1.90906 v 0.70552 0.74703 5.27068 h 3.32011 v -5.47819 c 0,-0.70552 -0.49801,-1.61855 -1.28654,-2.44858 -2.32408,-2.40708 -2.32408,-2.44858 -2.36558,-2.49008 l -0.37351,-0.37352 0.29051,-0.29051 c 0,0 0,-0.0415 2.32408,-2.44858 0.87153,-0.87153 1.41104,-2.40708 1.41104,-4.10864 z m 7.13311,20.41869 0.0415,-0.0415 2.8636,-2.8221 1.16204,-1.16204 0.49801,-0.49801 2.24108,-2.36558 0.083,-0.083 c 0.83003,-0.91304 1.41105,-2.40709 1.41105,-4.10864 v -0.20751 -13.03144 h -3.32011 v 14.31798 0.16601 c 0,1.45255 -0.24901,2.8636 -1.03754,3.65212 l -0.083,0.083 -0.95453,0.95454 -0.99604,-0.99604 -0.0415,-0.0415 c -0.78852,-0.78852 -1.03753,-2.19957 -1.03753,-3.65212 v -0.16601 -14.31798 h -3.32011 v 13.03144 0.20751 c 0,1.70155 0.58102,3.1956 1.41104,4.10864 l 0.0415,0.0415 2.28258,2.40708 0.53952,0.53952 -4.60666,4.64815 -0.0415,0.0415 c -0.78852,0.83003 -1.28654,1.78456 -1.28654,2.44859 v 0.083 2.28258 h 3.32011 v -3.48612 -0.1245 c 0,-0.53952 0.20751,-1.28655 0.83003,-1.90907 z m 14.22987,-12.61642 0.0415,-0.0415 4.64816,-4.73116 0.0415,-0.0415 c 0.95453,-0.95453 1.03753,-2.19957 1.03753,-3.65212 v -0.083 -1.53556 h -7.05523 v -1.66005 h 7.05523 3.32012 v 1.66005 0.74703 0.0415 c 0,1.70156 -0.53952,3.23711 -1.41105,4.10864 l -0.0415,0.0415 -4.35765,4.44065 -0.0415,0.0415 c -1.20354,1.20354 -1.20354,2.11657 -1.20354,4.56516 v 0.0415 4.23314 h 7.05524 v 1.66006 h -7.05524 -3.32011 v -1.66006 -5.68569 -0.0415 c 0,-0.83003 0.45651,-1.61856 1.28654,-2.44858 z"
         id="path18" />
    </g>
  </g>
</svg>
