<?xml version="1.0" encoding="UTF-8" standalone="no"?>
<!-- Created with Inkscape (http://www.inkscape.org/) -->

<svg
   width="1048.8958"
   height="608.99219"
   viewBox="0 0 277.52031 161.12918"
   version="1.1"
   id="svg1"
   inkscape:version="1.4 (86a8ad7, 2024-10-11)"
   sodipodi:docname="Alphabet Leaf Tech Uppercase.svg"
   xmlns:inkscape="http://www.inkscape.org/namespaces/inkscape"
   xmlns:sodipodi="http://sodipodi.sourceforge.net/DTD/sodipodi-0.dtd"
   xmlns="http://www.w3.org/2000/svg"
   xmlns:svg="http://www.w3.org/2000/svg">
  <sodipodi:namedview
     id="namedview1"
     pagecolor="#ffffff"
     bordercolor="#000000"
     borderopacity="0.25"
     inkscape:showpageshadow="2"
     inkscape:pageopacity="0.0"
     inkscape:pagecheckerboard="0"
     inkscape:deskcolor="#d1d1d1"
     inkscape:document-units="px"
     inkscape:zoom="1.0393815"
     inkscape:cx="517.13447"
     inkscape:cy="306.43224"
     inkscape:window-width="1920"
     inkscape:window-height="1027"
     inkscape:window-x="-8"
     inkscape:window-y="-8"
     inkscape:window-maximized="1"
     inkscape:current-layer="layer1" />
  <defs
     id="defs1" />
  <g
     inkscape:label="Layer 1"
     inkscape:groupmode="layer"
     id="layer1"
     transform="translate(0.83425586,-65.010123)">
    <text
       xml:space="preserve"
       style="font-size:41.5014px;line-height:1;font-family:'BlockTrain Hand';-inkscape-font-specification:'BlockTrain Hand';text-align:start;letter-spacing:1.32292px;writing-mode:lr-tb;direction:ltr;text-anchor:start;display:none;fill:#17a23e;fill-opacity:0.854902;stroke:#4d804f;stroke-width:1.16723;stroke-dasharray:none;stroke-opacity:1"
       x="137.9259"
       y="98.753357"
       id="text1"><tspan
         style="font-style:normal;font-variant:normal;font-weight:normal;font-stretch:normal;font-size:41.5014px;font-family:'Leaf Tech';-inkscape-font-specification:'Leaf Tech';text-align:center;letter-spacing:1.32292px;text-anchor:middle;fill:#17a23e;fill-opacity:0.854902;stroke:#4d804f;stroke-width:1.16723;stroke-dasharray:none;stroke-opacity:1"
         x="137.9259"
         y="98.753357"
         sodipodi:role="line"
         id="tspan24">AÆBCÇDEFΦÞ</tspan><tspan
         style="font-style:normal;font-variant:normal;font-weight:normal;font-stretch:normal;font-size:41.5014px;font-family:'Leaf Tech';-inkscape-font-specification:'Leaf Tech';text-align:center;letter-spacing:1.32292px;text-anchor:middle;fill:#17a23e;fill-opacity:0.854902;stroke:#4d804f;stroke-width:1.16723;stroke-dasharray:none;stroke-opacity:1"
         x="137.9259"
         y="140.88246"
         sodipodi:role="line"
         id="tspan33">ÐGȜHǶIJKꞰLM</tspan><tspan
         style="font-style:normal;font-variant:normal;font-weight:normal;font-stretch:normal;font-size:41.5014px;font-family:'Leaf Tech';-inkscape-font-specification:'Leaf Tech';text-align:center;letter-spacing:1.32292px;text-anchor:middle;fill:#17a23e;fill-opacity:0.854902;stroke:#4d804f;stroke-width:1.16723;stroke-dasharray:none;stroke-opacity:1"
         x="137.92592"
         y="183.01157"
         sodipodi:role="line"
         id="tspan34">NИŊOŒPQRSƩ</tspan><tspan
         style="font-style:normal;font-variant:normal;font-weight:normal;font-stretch:normal;font-size:41.5014px;font-family:'Leaf Tech';-inkscape-font-specification:'Leaf Tech';text-align:center;letter-spacing:1.32292px;text-anchor:middle;fill:#17a23e;fill-opacity:0.854902;stroke:#4d804f;stroke-width:1.16723;stroke-dasharray:none;stroke-opacity:1"
         x="138.58737"
         y="225.14066"
         sodipodi:role="line"
         id="tspan35">TЧUȢVWꝎXYZ</tspan></text>
    <g
       id="text39"
       style="font-size:41.5014px;line-height:1;font-family:'BlockTrain Hand';-inkscape-font-specification:'BlockTrain Hand';letter-spacing:1.32292px;fill:#17a23e;fill-opacity:0.854902;stroke:#4d804f;stroke-width:1.16723"
       aria-label="AÆBCÇDEFΦÞ&#10;ÐGȜHǶIJKꞰLM&#10;NИŊOŒPQRSƩ&#10;TЧUȢVWꝎXYZ">
      <path
         style="font-family:'Leaf Tech';-inkscape-font-specification:'Leaf Tech';text-align:center;text-anchor:middle"
         d="m 19.797102,67.461301 h 6.889233 v 6.889233 1.950566 c 0,2.739092 -2.199575,4.897165 -4.938667,4.897165 h -3.901132 c -1.950565,0 -3.693624,0.871529 -4.938666,2.158073 v -1.16204 -7.843764 c 0,-3.818129 3.071103,-6.889233 6.889232,-6.889233 z m 0,-1.867563 c -4.814162,0 -8.756795,3.901132 -8.756795,8.756796 v 7.843764 5.851698 9.79433 c 0,0.539518 0.415014,0.913031 0.913031,0.913031 0.539518,0 0.954532,-0.373513 0.954532,-0.913031 v -9.79433 c 0,-2.739093 2.199574,-4.938667 4.938666,-4.938667 h 3.901132 c 1.950566,0 3.693625,-0.830028 4.938667,-2.116571 v 1.20354 11.744897 c 0,1.660056 -1.286544,2.946599 -2.9466,2.946599 -0.539518,0 -0.954532,0.456515 -0.954532,0.954532 0,0.539518 0.415014,0.913031 0.954532,0.913031 2.65609,0 4.855664,-2.158073 4.855664,-4.814162 V 82.194298 76.3011 74.350534 65.593738 Z m 45.4389,33.159619 H 49.797481 v -9.171809 h -10.37535 l -4.44065,9.171809 h -3.85963 l 14.068975,-29.632 h 20.045176 v 3.278611 H 53.532607 v 9.254812 h 10.914868 v 3.237109 H 53.532607 V 95.474746 H 65.236002 Z M 40.87468,86.261436 h 8.922801 V 72.441469 H 47.3904 Z m 31.328456,-5.063171 v -9.545322 c 0,-2.36558 1.909065,-4.233143 4.233143,-4.233143 h 9.545322 v 6.889232 c 0,3.818129 -3.071104,6.889233 -6.889232,6.889233 z m 0,1.867563 h 9.503821 c 2.36558,0 4.274644,1.909064 4.274644,4.274644 v 5.229176 c 0,2.36558 -1.909064,4.274645 -4.274644,4.274645 H 76.47778 c -2.365579,0 -4.274644,-1.909065 -4.274644,-4.274645 z m -1.909064,0 v 9.50382 c 0,3.403115 2.780594,6.183709 6.183708,6.183709 h 5.229177 c 3.403115,0 6.183708,-2.780594 6.183708,-6.183709 v -5.229176 c 0,-2.573087 -1.660056,-4.814162 -3.942633,-5.727193 2.36558,-1.577053 3.942633,-4.274644 3.942633,-7.304247 V 65.593738 H 76.436279 c -3.361613,0 -6.142207,2.697591 -6.142207,6.059205 v 9.545322 z m 21.409565,-17.47209 v 24.402824 c 0,4.855663 3.942633,8.756795 8.798293,8.756795 h 7.84377 c 0.49802,0 0.95453,-0.373513 0.95453,-0.913031 0,-0.498017 -0.45651,-0.954532 -0.95453,-0.954532 h -7.84377 c -3.818125,0 -6.889229,-3.071104 -6.889229,-6.889232 V 67.461301 h 6.889229 c 3.81813,0 6.88924,3.071104 6.88924,6.889233 0,0.498017 0.41501,0.954532 0.95453,0.954532 0.49802,0 0.95453,-0.456515 0.95453,-0.954532 0,-4.855664 -3.94263,-8.756796 -8.7983,-8.756796 z M 122.99054,105.8916 c -1.57705,0 -2.9051,-1.32805 -2.9051,-2.9051 h 1.74306 c 0,0.58102 0.58102,1.16204 1.16204,1.16204 h 1.16204 v -1.16204 c 0,-0.58102 -0.58102,-1.16204 -1.16204,-1.16204 v 0 -1.74306 c 1.57705,0 2.9051,1.32805 2.9051,2.9051 v 2.9051 z m -9.87733,-40.297862 v 24.402824 c 0,4.357647 3.1541,7.926767 7.26274,8.632291 -0.166,0.415014 -0.29051,0.830028 -0.29051,1.286543 v 1.909064 h 2.9051 v -1.74306 h -1.16204 v -0.166004 c 0,-0.539518 0.49802,-1.079036 1.07904,-1.162039 h 6.84773 c 0.49801,0 0.95453,-0.373513 0.95453,-0.913031 0,-0.498017 -0.45652,-0.954532 -0.95453,-0.954532 h -7.84377 c -3.81813,0 -6.88923,-3.071104 -6.88923,-6.889232 V 67.461301 h 6.88923 c 3.81813,0 6.88923,3.071104 6.88923,6.889233 0,0.498017 0.41502,0.954532 0.95454,0.954532 0.49801,0 0.95453,-0.456515 0.95453,-0.954532 0,-4.855664 -3.94263,-8.756796 -8.7983,-8.756796 z m 9.87733,34.487662 v 0 z m 13.3998,-32.620099 h 6.88923 c 3.81813,0 6.88923,3.071104 6.88923,6.889233 v 15.646028 c 0,3.818128 -3.0711,6.889232 -6.88923,6.889232 h -6.88923 z m -1.86757,-1.867563 v 0.913031 32.246588 h 8.7568 c 4.85566,0 8.7983,-3.901132 8.7983,-8.756795 V 74.350534 c 0,-4.855664 -3.94264,-8.756796 -8.7983,-8.756796 z m 33.73551,16.60056 v -0.0415 c 0,-0.539518 -0.41501,-0.954532 -0.95453,-0.954532 h -4.56516 c -2.73909,0 -4.93866,-2.158073 -4.93866,-4.897165 v -8.839799 h 10.83186 c 1.61856,0 2.9466,1.286544 2.9466,2.9466 0,0.539518 0.41502,0.954532 0.95453,0.954532 0.49802,0 0.95454,-0.415014 0.95454,-0.954532 0,-2.65609 -2.19958,-4.814163 -4.85567,-4.814163 H 155.89086 V 76.3011 c 0,2.490084 1.41105,4.689658 3.44462,5.893198 -2.03357,1.16204 -3.44462,3.361614 -3.44462,5.851698 v 10.707361 h 12.74093 c 2.65609,0 4.85567,-2.158073 4.85567,-4.814162 0,-0.539519 -0.45652,-0.954533 -0.95454,-0.954533 -0.53951,0 -0.95453,0.415014 -0.95453,0.954533 0,1.660056 -1.32804,2.946599 -2.9466,2.946599 h -10.83186 v -8.839798 c 0,-2.739093 2.19957,-4.938667 4.93866,-4.938667 h 4.56516 c 0.53952,0 0.95453,-0.373512 0.95453,-0.913031 z m 14.93534,-16.60056 v 15.604527 h -4.93866 c -0.53952,0 -0.95454,0.456515 -0.95454,0.996033 0,0.498017 0.41502,0.913031 0.95454,0.913031 h 4.93866 V 95.88976 c 0,2.739093 -2.19957,4.93867 -4.93866,4.93867 -0.53952,0 -0.95454,0.41501 -0.95454,0.91303 0,0.53952 0.41502,0.95453 0.95454,0.95453 3.77662,0 6.84773,-3.071104 6.84773,-6.80623 V 83.107329 h 14.73299 c 0.49802,0 0.91303,-0.415014 0.91303,-0.913031 0,-0.539518 -0.41501,-0.996033 -0.91303,-0.996033 H 185.10269 V 67.461301 h 6.84773 c 3.81813,0 6.93073,3.071104 6.93073,6.889233 0,0.539518 0.41502,0.954532 0.95453,0.954532 0.49802,0 0.91303,-0.415014 0.91303,-0.954532 0,-4.855664 -3.94263,-8.756796 -8.79829,-8.756796 z m 35.76908,33.159619 v -3.735126 q -4.10864,-0.083 -6.76473,-1.162039 -2.61459,-1.079037 -4.10864,-2.780594 -1.45255,-1.743059 -2.07507,-3.735126 -0.58102,-2.033569 -0.58102,-3.942633 0,-2.199574 0.66403,-4.233143 0.66402,-2.033568 2.19957,-3.610622 1.53555,-1.618554 4.15014,-2.573086 2.61459,-0.996034 6.51572,-1.037535 v -2.822096 h 3.69363 v 2.822096 q 3.94263,0.0415 6.55722,0.996033 2.61458,0.954532 4.10864,2.531586 1.53555,1.577053 2.19957,3.652123 0.66402,2.033568 0.66402,4.274644 0,1.992067 -0.62252,4.025636 -0.62252,2.033568 -2.15807,3.735126 -1.49405,1.660056 -4.15014,2.739092 -2.61459,1.037535 -6.59872,1.120538 v 3.735126 z m 0,-6.80623 V 75.097559 q -3.73513,0.083 -5.8932,1.203541 -2.11657,1.079036 -2.9881,2.905098 -0.87153,1.826061 -0.87153,4.15014 0,2.448582 0.95453,4.357647 0.99604,1.909064 3.11261,3.029602 2.15807,1.079036 5.68569,1.20354 z m 3.69363,0 q 3.61062,-0.124504 5.72719,-1.245042 2.15807,-1.162039 3.0711,-3.071103 0.95453,-1.909065 0.95453,-4.274644 0,-2.36558 -0.87153,-4.191642 -0.87152,-1.826061 -2.9881,-2.905098 -2.11657,-1.079036 -5.89319,-1.162039 z m 39.96074,-9.047305 q 0,2.490084 -1.07903,4.648157 -1.07904,2.116571 -3.69363,3.444616 -2.57309,1.328045 -7.09674,1.328045 h -3.36161 v 6.432717 h -3.73513 v -29.632 h 3.73513 v 5.146174 h 3.98413 q 6.01771,0 8.63229,2.282577 2.61459,2.282577 2.61459,6.349714 z m -12.24291,6.266712 q 4.35765,0 6.34971,-1.369547 2.03357,-1.411047 2.03357,-4.689658 0,-2.863596 -1.82606,-4.233143 -1.78456,-1.411047 -5.8517,-1.411047 h -3.69362 v 11.703395 z"
         id="path39" />
      <path
         style="font-family:'Leaf Tech';-inkscape-font-specification:'Leaf Tech';text-align:center;text-anchor:middle"
         d="m 12.329422,111.25046 q 4.44065,0 7.719261,1.66005 3.27861,1.66006 5.06317,4.89717 1.826062,3.19561 1.826062,7.96827 0,7.51175 -4.108639,11.32988 -4.067137,3.77663 -11.412885,3.77663 H 3.4896239 V 127.85102 H 0.41852031 v -3.23711 H 3.4896239 v -13.36345 z m -0.539518,3.19561 H 7.2247499 v 10.16784 h 7.3872491 v 3.23711 H 7.2247499 v 9.83583 h 3.7351261 q 12.035406,0 12.035406,-11.7864 0,-5.9347 -2.946599,-8.67379 -2.9466,-2.78059 -8.258779,-2.78059 z m 29.087338,-6.72323 c -4.855664,0 -8.839799,3.94263 -8.839799,8.7983 v 24.36132 h 8.756796 c 2.822095,0 5.312179,-1.32805 6.930734,-3.36162 v 2.44859 c 0,2.73909 -2.199575,4.93866 -4.938667,4.93866 h -9.79433 c -0.498017,0 -0.954533,0.41502 -0.954533,0.91303 0,0.53952 0.456516,0.95454 0.954533,0.95454 h 9.79433 c 3.776627,0 6.847731,-3.07111 6.847731,-6.80623 v -9.79433 -0.083 -6.76472 h -6.847731 c -2.697591,0 -4.855664,2.19957 -4.855664,4.89716 0,0.49802 0.415014,0.95453 0.954532,0.95453 0.498017,0 0.954533,-0.45651 0.954533,-0.95453 0,-1.66006 1.286543,-2.9881 2.946599,-2.9881 h 4.938667 v 6.88923 c 0,3.81813 -3.071104,6.88923 -6.930734,6.88923 h -6.847731 v -22.49375 c 0,-3.85963 3.112605,-6.93074 6.930734,-6.93074 h 6.847731 v 2.9881 c 0,1.61856 -1.328045,2.9466 -2.9466,2.9466 -0.539518,0 -0.954532,0.41502 -0.954532,0.95453 0,0.49802 0.415014,0.95454 0.954532,0.95454 2.65609,0 4.855664,-2.19958 4.855664,-4.85567 v -4.85566 z m 12.943283,37.06075 q 4.689658,-1.20354 7.802263,-2.44858 3.112605,-1.24505 4.897165,-2.61459 1.826062,-1.36955 2.614588,-2.9466 0.788527,-1.57705 0.788527,-3.44462 0,-2.49008 -1.286543,-3.94263 -1.245042,-1.45255 -3.444617,-2.53159 -1.452549,0.53952 -3.029602,0.99604 -1.577053,0.41501 -3.237109,0.83003 l -0.705524,-2.9051 q 3.942633,-1.03754 6.391216,-1.99207 2.448582,-0.95453 3.56912,-2.19957 1.162039,-1.28655 1.162039,-3.15411 0,-2.11657 -1.452549,-3.32011 -1.452549,-1.20354 -4.025635,-1.20354 -2.448583,0 -4.44065,0.66402 -1.992067,0.62252 -3.85963,1.86756 l -1.784561,-2.53158 q 2.36558,-1.66006 4.855664,-2.36558 2.531586,-0.70553 5.270678,-0.70553 2.36558,0 4.482151,0.74703 2.116572,0.70552 3.444616,2.32408 1.369547,1.61855 1.369547,4.39915 0,2.40708 -1.328045,4.15014 -1.286544,1.70155 -3.444616,2.90509 1.411047,0.66403 2.614588,1.70156 1.245042,1.03754 1.992067,2.57309 0.788527,1.49405 0.788527,3.69362 0,3.85963 -2.07507,6.59873 -2.033569,2.69759 -6.474219,4.68965 -4.399148,1.99207 -11.454386,3.73513 z m 29.668404,-37.06075 c -2.65609,0 -4.855664,2.15807 -4.855664,4.81416 v 3.94263 7.84377 5.8517 9.79433 c 0,0.53952 0.456515,0.91303 0.954532,0.91303 0.539518,0 0.954532,-0.37351 0.954532,-0.91303 v -9.79433 c 0,-2.7391 2.199574,-4.93867 4.938667,-4.93867 h 3.901131 c 1.950566,0 3.693625,-0.83003 4.938667,-2.11657 v 1.20354 11.7449 c 0,1.66005 -1.328045,2.94659 -2.946599,2.94659 -0.539519,0 -0.954533,0.45652 -0.954533,0.95454 0,0.53952 0.415014,0.91303 0.954533,0.91303 2.656089,0 4.855663,-2.15807 4.855663,-4.81416 v -11.7449 -5.8932 -1.95057 -7.84376 c 0,-0.53952 -0.456515,-0.91303 -0.954532,-0.91303 -0.539518,0 -0.954532,0.37351 -0.954532,0.91303 v 7.84376 1.95057 c 0,2.73909 -2.199574,4.89717 -4.938667,4.89717 h -3.901131 c -1.950566,0 -3.693625,0.87153 -4.938667,2.15807 v -1.16204 -7.84377 -3.94263 c 0,-1.66005 1.328045,-2.9466 2.9466,-2.9466 0.539518,0 0.954532,-0.45651 0.954532,-0.95453 0,-0.53952 -0.415014,-0.91303 -0.954532,-0.91303 z m 19.334501,33.15962 v -29.632 h 3.73512 v 12.53342 h 12.28442 v -12.53342 h 3.73512 v 22.82577 q 0,1.86756 0.95454,2.9051 0.99603,1.03753 2.90509,1.03753 1.99207,0 2.9051,-1.12054 0.91303,-1.12053 0.91303,-2.86359 v -15.39702 h 3.73513 v 15.39702 q 0,3.0711 -1.86756,5.14617 -1.86757,2.07507 -5.8102,2.07507 -3.65212,0 -5.56119,-1.99207 -1.90906,-1.99206 -1.90906,-5.27067 v -6.93074 h -12.28442 v 13.81997 z m 41.78677,-33.20112 c -0.53952,0 -0.95453,0.37351 -0.95453,0.95453 0,1.61855 -1.32805,2.9466 -2.9466,2.9466 -0.53952,0 -0.95453,0.41501 -0.95453,0.95453 0,0.53952 0.41501,0.95453 0.95453,0.95453 1.12054,0 2.11657,-0.41501 2.9466,-1.03753 v 23.6143 c 0,1.66005 -1.32805,2.94659 -2.9466,2.94659 -0.53952,0 -0.95453,0.45652 -0.95453,0.95454 0,0.53952 0.41501,0.91303 0.95453,0.91303 2.65609,0 4.85566,-2.15807 4.85566,-4.81416 v -27.43243 -0.0415 c 0,-0.49802 -0.41501,-0.91303 -0.95453,-0.91303 z m 5.9711,0 c -0.53951,0 -0.95453,0.41501 -0.95453,0.95453 0,0.49802 0.41502,0.95453 0.95453,0.95453 h 6.88924 v 22.53526 c 0,3.81813 -3.07111,6.88923 -6.88924,6.88923 -0.53951,0 -0.95453,0.45652 -0.95453,0.95454 0,0.53952 0.41502,0.91303 0.95453,0.91303 4.85567,0 8.7983,-3.90113 8.7983,-8.7568 V 109.5904 h 5.9347 v 0.99604 c 0,0.58102 -0.45651,0.99603 -0.99603,0.99603 -0.53952,0 -0.95453,0.45651 -0.95453,0.95453 0,0.53952 0.41501,0.95453 0.95453,0.95453 1.57705,0 2.9051,-1.28654 2.9051,-2.90509 v -2.9051 z m 21.40958,33.20112 c 0.53952,0 0.95453,-0.37351 0.95453,-0.91303 v -11.8694 c 0,-1.57706 1.32805,-2.8636 2.9466,-2.8636 h 1.32805 c 1.20354,0 2.32408,-0.24901 3.36161,-0.70552 l 0.37351,0.41501 c 1.74306,1.90906 2.7806,4.44065 2.7806,7.17974 0,3.27861 1.20354,6.22521 3.23711,8.46629 0.166,0.20751 0.41501,0.29051 0.70552,0.29051 0.53952,0 0.95453,-0.37351 0.95453,-0.91303 0,-0.24901 -0.1245,-0.45652 -0.24901,-0.62252 -1.74305,-1.90907 -2.78059,-4.44065 -2.78059,-7.22125 0,-3.32011 -1.28654,-6.34971 -3.36161,-8.63229 0.95453,-0.74702 1.78456,-1.66005 2.44858,-2.69759 1.20354,-1.95057 1.86756,-4.31615 1.86756,-6.68173 0,-0.74702 -0.083,-1.53555 -0.2075,-2.28257 l -0.70553,-3.40312 c -0.083,-0.41501 -0.45651,-0.74702 -0.91303,-0.74702 -0.58102,0 -0.95453,0.45651 -0.95453,0.95453 v 0.16601 l 0.70552,3.40311 c 0.12451,0.66402 0.20751,1.32805 0.20751,1.95057 0,4.68965 -3.11261,9.17181 -7.47025,9.17181 h -1.32805 c -1.12054,0 -2.11657,0.41501 -2.9466,1.03753 v -15.72903 c 0,-0.53952 -0.41501,-0.95453 -0.95453,-0.95453 -0.53952,0 -0.95453,0.41501 -0.95453,0.95453 v 31.33356 c 0,0.53952 0.41501,0.91303 0.95453,0.91303 z m 19.20999,-29.632 h 4.39915 l 10.49985,14.15198 3.0296,-2.65609 v -11.49589 h 3.73513 v 29.632 h -3.73513 v -14.60849 q -1.24504,1.41104 -2.53158,2.82209 -1.28655,1.36955 -2.57309,2.8221 l -8.00977,8.9643 h -4.35765 l 11.7449,-12.90694 z m 34.44102,-3.56912 c -3.40312,0 -6.18371,2.78059 -6.18371,6.18371 v 27.01741 h 11.41288 c 3.40312,0 6.18371,-2.73909 6.18371,-6.14221 0,-0.49802 -0.45651,-0.95453 -0.95453,-0.95453 -0.53952,0 -0.95453,0.45651 -0.95453,0.95453 0,2.40708 -1.90907,4.27464 -4.27465,4.27464 h -9.50382 v -25.14984 c 0,-2.36558 1.90907,-4.27465 4.27465,-4.27465 0.53951,0 0.95453,-0.45651 0.95453,-0.95453 0,-0.53952 -0.41502,-0.95453 -0.95453,-0.95453 z m 15.22585,0 v 27.05891 c 0,3.40312 2.78059,6.14221 6.18371,6.14221 0.53952,0 0.95453,-0.37351 0.95453,-0.91303 0,-0.49802 -0.41501,-0.95454 -0.95453,-0.95454 -2.36558,0 -4.27465,-1.86756 -4.27465,-4.27464 V 109.5904 h 6.88924 c 3.81812,0 6.88923,3.07111 6.88923,6.88923 v 18.26062 c 0,0.53952 0.41501,0.95453 0.95453,0.95453 0.49802,0 0.95453,-0.41501 0.95453,-0.95453 V 109.5904 h 6.88924 c 3.81812,0 6.88923,3.07111 6.88923,6.88923 v 23.4898 c 0,0.53952 0.41501,0.91303 0.95453,0.91303 0.49802,0 0.91303,-0.37351 0.91303,-0.91303 v -23.4898 c 0,-4.85566 -3.94263,-8.79829 -8.75679,-8.79829 h -8.7983 v 3.40311 c -1.61856,-2.07507 -4.06714,-3.40311 -6.88923,-3.40311 z"
         id="path40" />
      <path
         style="font-family:'Leaf Tech';-inkscape-font-specification:'Leaf Tech';text-align:center;text-anchor:middle"
         d="m 9.7952363,150.76497 v 20.87521 c 0,4.27464 1.5770527,8.17577 4.2331427,11.08087 0.166006,0.20751 0.415014,0.29051 0.705524,0.29051 0.539518,0 0.954532,-0.37351 0.954532,-0.91303 0,-0.24901 -0.124504,-0.45652 -0.249008,-0.62252 -2.324079,-2.61459 -3.776628,-6.05921 -3.776628,-9.83583 V 151.761 c 7.719261,0.49802 13.778465,6.84774 13.778465,14.6915 v 15.64603 c 0,0.53952 0.456515,0.91303 0.954532,0.91303 0.539518,0 0.954532,-0.37351 0.954532,-0.91303 v -31.33356 c 0,-0.53952 -0.415014,-0.95453 -0.954532,-0.95453 -0.498017,0 -0.954532,0.41501 -0.954532,0.95453 v 7.96827 c -2.780594,-5.27068 -8.30028,-8.9228 -14.732997,-8.9228 -0.539518,0 -0.9130307,0.41501 -0.9130307,0.95453 z m 24.1486817,32.24659 v -29.632 h 3.735126 v 16.26855 q 0,1.36954 -0.0415,3.0711 -0.0415,1.70156 -0.124504,3.11261 -0.0415,1.41104 -0.124504,2.07507 h 0.166006 l 15.687529,-24.52733 h 4.025636 v 29.632 h -3.735126 v -16.10254 q 0,-1.53556 0.0415,-3.27861 0.083,-1.74306 0.166006,-3.19561 0.083,-1.45255 0.124504,-2.07507 h -0.166006 l -15.770532,24.65183 z m 48.385531,7.88527 q -1.037535,0 -1.826062,-0.16601 -0.747025,-0.1245 -1.328044,-0.37351 v -3.15411 q 0.664022,0.16601 1.452549,0.29051 0.788526,0.1245 1.701557,0.1245 1.079036,0 2.033569,-0.41501 0.996033,-0.37351 1.618554,-1.41105 0.664023,-0.99603 0.664023,-2.78059 L 69.92053,158.40123 h -0.166005 q 0.083,0.78853 0.124504,2.24107 0.083,1.45255 0.124504,3.11261 0.083,1.66006 0.083,3.19561 v 16.06104 H 66.64192 v -29.632 h 4.316145 l 15.812034,23.7388 h 0.166005 q -0.124504,-1.32804 -0.207507,-3.65212 -0.083,-2.36558 -0.083,-4.64816 v -15.43852 h 3.486117 v 29.38299 q 0,4.15014 -2.116571,6.14221 -2.116572,1.99207 -5.685692,1.99207 z M 105.48212,151.7195 h 6.88923 v 22.53526 c 0,3.81813 -3.07111,6.88924 -6.88923,6.88924 h -6.889236 v -22.53526 c 0,-3.81813 3.071106,-6.88924 6.889236,-6.88924 z m 0,-1.90906 c -4.81417,0 -8.756799,3.94263 -8.756799,8.7983 v 24.40282 h 8.756799 c 4.85566,0 8.79829,-3.90113 8.79829,-8.7568 v -24.44432 z m 27.38579,3.1126 q 2.07507,0 3.98413,0.45652 h 16.01954 v 3.27861 h -11.9109 v 9.25481 h 11.12237 v 3.23711 h -11.12237 v 10.58286 h 11.9109 v 3.27861 h -15.77053 q -0.91303,0.166 -1.95057,0.29051 -0.99603,0.1245 -2.07507,0.1245 -4.60665,0 -7.67776,-1.90906 -3.0296,-1.90907 -4.52365,-5.35368 -1.49405,-3.44462 -1.49405,-8.05127 0,-4.60666 1.45255,-8.00977 1.49405,-3.40312 4.48215,-5.27068 3.0296,-1.90907 7.55326,-1.90907 z m 0.33201,3.27861 q -5.10467,0 -7.51176,3.19561 -2.40708,3.15411 -2.40708,8.7568 0,5.60269 2.40708,8.8398 2.40709,3.1956 7.47026,3.1956 2.36558,0 4.10864,-0.70552 v -22.61826 q -1.70156,-0.66403 -4.06714,-0.66403 z m 33.52798,-4.48215 h 6.88923 v 6.88924 c 0,3.81812 -3.0711,6.84773 -6.88923,6.84773 h -6.88923 v -6.84773 c 0,-3.81813 3.0711,-6.88924 6.88923,-6.88924 z m 0,-1.90906 c -4.85566,0 -8.79829,3.94263 -8.79829,8.7983 v 23.48979 c 0,0.53952 0.45651,0.91303 0.95453,0.91303 0.53952,0 0.95453,-0.37351 0.95453,-0.91303 v -14.733 h 6.88923 c 4.85567,0 8.7983,-3.94263 8.7983,-8.75679 v -8.7983 z m 21.36806,0 c -4.81416,0 -8.75679,3.94263 -8.75679,8.7983 v 24.40282 h 0.91303 c 3.81813,0 6.88923,3.1126 6.88923,6.93073 0,0.53952 0.45651,0.91303 0.95453,0.91303 0.53952,0 0.95453,-0.37351 0.95453,-0.91303 0,-4.52365 -3.44461,-8.21727 -7.84376,-8.67379 v -22.65976 c 0,-3.81813 3.0711,-6.88924 6.88923,-6.88924 h 6.88923 v 22.53526 c 0,3.48612 -2.57308,6.34972 -5.9347,6.80623 v -15.23101 c 0,-0.49802 -0.41501,-0.91303 -0.95453,-0.91303 -0.49802,0 -0.95453,0.41501 -0.95453,0.91303 v 17.18158 h 0.95453 c 4.85567,0 8.7983,-3.90113 8.7983,-8.7568 v -24.44432 z m 21.36809,1.90906 h 6.88923 v 6.88924 c 0,3.81812 -3.0711,6.84773 -6.88923,6.84773 h -6.88923 v -6.84773 c 0,-3.81813 3.0711,-6.88924 6.88923,-6.88924 z m 5.31218,13.73697 c 2.11657,-1.57706 3.48612,-4.02564 3.48612,-6.84773 v -8.7983 h -8.7983 c -4.81416,0 -8.7568,3.94263 -8.7568,8.7983 v 23.48979 c 0,0.53952 0.41502,0.91303 0.91303,0.91303 0.53952,0 0.95454,-0.37351 0.95454,-0.91303 v -14.733 h 6.88923 c 1.32804,0 2.53158,-0.29051 3.65212,-0.78853 l 0.49802,0.49802 c 1.70156,1.90907 2.73909,4.44065 2.73909,7.17974 v 7.84377 c 0,0.53952 0.41502,0.91303 0.95453,0.91303 0.53952,0 0.95454,-0.37351 0.95454,-0.91303 v -7.84377 c 0,-3.32011 -1.32805,-6.64022 -3.48612,-8.79829 z m 7.29911,-15.64603 v 8.71529 c 0,4.89717 3.98414,8.8398 8.8398,8.8398 h 6.84773 v 6.88923 c 0,3.81813 -3.0711,6.88924 -6.93073,6.88924 h -6.84773 v -6.80623 c 0,-0.53952 -0.41502,-0.95454 -0.95454,-0.95454 -0.49801,0 -0.95453,0.41502 -0.95453,0.95454 v 8.67379 h 8.7568 c 4.85566,0 8.8398,-3.90113 8.8398,-8.7568 v -8.79829 h -8.7568 c -3.81813,0 -6.93073,-3.07111 -6.93073,-6.93074 v -6.80623 h 6.84773 c 3.85963,0 6.93073,3.07111 6.93073,6.88924 0,0.53951 0.41502,0.95453 0.95453,0.95453 0.49802,0 0.95454,-0.41502 0.95454,-0.95453 0,-4.85567 -3.98414,-8.7983 -8.8398,-8.7983 z m 21.74159,33.20112 v -3.0711 l 9.79433,-12.24292 -9.37932,-11.20538 v -3.1126 h 19.63017 v 3.32011 h -10.66586 q -0.91303,0 -2.24108,0 -1.28654,0 -1.95057,-0.0415 l 8.50779,10.08484 v 1.12054 l -9.42082,11.8279 q 1.57706,0 3.02961,0 1.49405,-0.0415 3.1541,-0.0415 h 10.08484 v 3.36161 z"
         id="path41" />
      <path
         style="font-family:'Leaf Tech';-inkscape-font-specification:'Leaf Tech';text-align:center;text-anchor:middle"
         d="m 5.9330677,191.93954 c -3.4031148,0 -6.18370856,2.78059 -6.18370856,6.18371 0,0.49802 0.415014,0.95453 0.9545322,0.95453 0.53951816,0 0.95453216,-0.45651 0.95453216,-0.95453 0,-2.36558 1.9090644,-4.27465 4.2746442,-4.27465 h 1.660056 c 0,5.60269 0,11.20538 0,16.76657 0,2.8221 0,5.60269 0,8.38328 0,3.40312 2.7805943,6.14221 6.1837083,6.14221 0.539519,0 0.954533,-0.37351 0.954533,-0.91303 0,-0.49802 -0.415014,-0.95453 -0.954533,-0.95453 -2.365579,0 -4.3161453,-1.86757 -4.3161453,-4.15014 0,0 0,-0.0415 0.041501,-0.083 V 193.8486 h 6.8892329 c 0.498016,0 0.91303,-0.45651 0.91303,-0.95453 0,-0.53952 -0.415014,-0.95453 -0.91303,-0.95453 z m 33.2789703,33.20112 v -12.53342 q -2.158073,0.74702 -3.984135,1.07903 -1.78456,0.29051 -3.56912,0.29051 -9.503821,0 -9.503821,-8.59079 v -9.87733 h 3.693625 v 9.33782 q 0,3.2371 1.49405,4.60665 1.535552,1.32805 4.938667,1.32805 1.701557,0 3.486118,-0.37352 1.78456,-0.37351 3.444616,-0.99603 v -13.90297 h 3.735126 v 29.632 z m 11.28327,-33.20112 c -0.498017,0 -0.954533,0.41501 -0.954533,0.95453 v 23.44829 c 0,4.85567 3.984135,8.7983 8.839799,8.7983 h 8.756795 v -32.24659 c 0,-0.53952 -0.456515,-0.95453 -0.954532,-0.95453 -0.539518,0 -0.954532,0.41501 -0.954532,0.95453 v 30.37903 h -6.847731 c -3.818129,0 -6.930734,-3.07111 -6.930734,-6.93074 v -23.44829 c 0,-0.53952 -0.415014,-0.95453 -0.954532,-0.95453 z m 33.029956,33.61613 q -3.237109,0 -5.810196,-1.16204 -2.573086,-1.20354 -4.108638,-3.44461 -1.494051,-2.24108 -1.494051,-5.43668 0,-3.40312 1.618555,-5.43669 1.660056,-2.07507 4.565154,-2.9466 -2.407081,-0.99603 -3.56912,-3.0296 -1.120538,-2.07507 -1.120538,-4.93867 v -3.65212 h 3.735126 v 3.65212 q 0,2.8221 1.49405,4.64816 1.535552,1.82606 4.772661,1.82606 3.278611,0 4.772661,-1.82606 1.535552,-1.82606 1.535552,-4.64816 v -3.65212 h 3.735126 v 3.65212 q 0,2.9051 -1.162039,4.93867 -1.162039,2.03357 -3.610622,3.0711 2.822095,0.87153 4.523653,2.9466 1.743058,2.03357 1.743058,5.39519 0,3.1956 -1.452549,5.43668 -1.452549,2.24107 -4.067137,3.44461 -2.573087,1.16204 -6.100706,1.16204 z m 0.083,-3.23711 q 3.942633,0 5.768695,-1.78456 1.826061,-1.82606 1.826061,-5.02166 0,-3.19561 -1.867563,-4.93867 -1.826061,-1.74306 -5.768694,-1.74306 -3.901132,0 -5.727193,1.74306 -1.784561,1.74306 -1.784561,4.93867 0,3.1956 1.826062,5.02166 1.826062,1.78456 5.727193,1.78456 z m 22.654623,-30.37902 c -3.40312,0 -6.14221,2.78059 -6.14221,6.18371 v 27.01741 h 0.91303 c 9.17181,0 16.64206,-7.42875 16.64206,-16.55906 v -15.68753 c 0,-0.53952 -0.41501,-0.95453 -0.95453,-0.95453 -0.49802,0 -0.95453,0.41501 -0.95453,0.95453 v 15.68753 c 0,7.80226 -6.0592,14.15198 -13.77847,14.65 v -25.10835 c 0,-2.36558 1.90907,-4.27465 4.27465,-4.27465 0.53952,0 0.95453,-0.45651 0.95453,-0.95453 0,-0.53952 -0.41501,-0.95453 -0.95453,-0.95453 z m 31.82644,5.8932 c -0.53952,0 -0.91303,0.37351 -0.91303,0.95453 v 17.59659 c 0,3.81813 -3.0711,6.88924 -6.88923,6.88924 h -6.88924 v -25.14985 c 0,-2.36558 1.90907,-4.27465 4.27465,-4.27465 0.49801,0 0.95453,-0.45651 0.95453,-0.95453 0,-0.53952 -0.45652,-0.95453 -0.95453,-0.95453 -3.40312,0 -6.18371,2.78059 -6.18371,6.18371 v 27.01741 h 8.7983 c 3.44461,0 6.39121,-1.95057 7.80226,-4.85566 1.45255,2.90509 4.39915,4.85566 7.84376,4.85566 h 8.7983 v -27.01741 c 0,-3.40312 -2.78059,-6.18371 -6.18371,-6.18371 -0.49801,0 -0.95453,0.41501 -0.95453,0.95453 0,0.49802 0.45652,0.95453 0.95453,0.95453 2.36558,0 4.27465,1.90907 4.27465,4.27465 v 25.14985 h -6.88924 c -3.81812,0 -6.88923,-3.07111 -6.88923,-6.88924 v -17.59659 -0.0415 c 0,-0.53952 -0.41501,-0.91303 -0.95453,-0.91303 z m 49.09104,12.45042 q 0,4.60665 -1.57705,8.05127 -1.53556,3.40312 -4.56516,5.31218 -3.0296,1.90906 -7.51175,1.90906 -4.60666,0 -7.67776,-1.90906 -3.0296,-1.90906 -4.52365,-5.35368 -1.49405,-3.44462 -1.49405,-8.05127 0,-4.56516 1.49405,-7.96827 1.49405,-3.40312 4.52365,-5.31218 3.0711,-1.90906 7.71926,-1.90906 4.44065,0 7.47025,1.90906 3.0296,1.86756 4.56516,5.31218 1.57705,3.40311 1.57705,8.00977 z m -23.40679,0 q 0,5.60269 2.36558,8.8398 2.36558,3.1956 7.38725,3.1956 5.06317,0 7.38725,-3.1956 2.32408,-3.23711 2.32408,-8.8398 0,-5.60269 -2.32408,-8.7568 -2.32408,-3.1956 -7.34575,-3.1956 -5.02167,0 -7.42875,3.1956 -2.36558,3.15411 -2.36558,8.7568 z m 46.89658,0 q 0,4.60665 -1.57705,8.05127 -1.53555,3.40312 -4.56516,5.31218 -3.0296,1.90906 -7.51175,1.90906 -4.60665,0 -7.67776,-1.90906 -3.0296,-1.90906 -4.52365,-5.35368 -1.49405,-3.44462 -1.49405,-8.05127 0,-4.56516 1.49405,-7.96827 1.49405,-3.40312 4.52365,-5.31218 3.07111,-1.90906 7.71926,-1.90906 4.44065,0 7.47025,1.90906 3.02961,1.86756 4.56516,5.31218 1.57705,3.40311 1.57705,8.00977 z m -23.40679,0 q 0,5.60269 2.36558,8.8398 2.36558,3.1956 7.38725,3.1956 5.06317,0 7.38725,-3.1956 2.32408,-3.23711 2.32408,-8.8398 0,-5.60269 -2.32408,-8.7568 -2.32408,-3.1956 -7.34575,-3.1956 -5.02167,0 -7.42875,3.1956 -2.36558,3.15411 -2.36558,8.7568 z m 28.50634,-17.38909 c 0,0.16601 0.0415,0.29051 0.083,0.41502 l 7.67776,15.35551 c -1.78456,6.34972 -3.15411,10.00184 -4.23315,11.99391 -1.16204,2.07507 -1.82606,2.40708 -2.82209,2.65609 -0.41502,0.1245 -0.70553,0.49802 -0.70553,0.91303 0,0.58102 0.45652,0.91303 0.95454,0.91303 0.083,0 0.166,0.0415 0.249,0 1.32805,-0.33201 2.6976,-1.24504 3.98414,-3.56912 1.12054,-1.99207 2.32408,-5.27068 3.81813,-10.41685 l 6.76473,13.48795 c 0.166,0.33201 0.45651,0.49802 0.83002,0.49802 0.58102,0 0.95454,-0.41501 0.95454,-0.91303 0,-0.1245 -0.0415,-0.29051 -0.083,-0.41501 l -7.67776,-15.35552 c 1.78456,-6.34972 3.15411,-10.00184 4.23315,-11.99391 1.16204,-2.07507 1.82606,-2.40708 2.82209,-2.65609 0.41502,-0.1245 0.70553,-0.49801 0.70553,-0.91303 0,-0.58102 -0.45652,-0.95453 -0.95454,-0.95453 -0.083,0 -0.166,-0.0415 -0.249,0 -1.28655,0.33201 -2.6976,1.28654 -3.98414,3.61062 -1.12054,1.99207 -2.32408,5.27068 -3.81813,10.41685 l -6.76473,-13.48795 c -0.166,-0.33201 -0.45651,-0.53952 -0.83002,-0.53952 -0.58102,0 -0.95454,0.45652 -0.95454,0.95453 z m 22.32262,-0.95453 c -0.53951,0 -0.95453,0.41501 -0.95453,0.95453 v 7.76076 c 0,4.89717 3.98414,8.8398 8.8398,8.8398 h 6.84773 v 6.88923 c 0,3.81813 -3.0711,6.88924 -6.88923,6.88924 -0.53952,0 -0.95453,0.45651 -0.95453,0.95453 0,0.53952 0.41501,0.91303 0.95453,0.91303 4.81416,0 8.7983,-3.90113 8.7983,-8.7568 v -23.48979 c 0,-0.53952 -0.45652,-0.95453 -0.95454,-0.95453 -0.53951,0 -0.95453,0.41501 -0.95453,0.95453 v 14.6915 h -6.84773 c -3.81813,0 -6.93073,-3.07111 -6.93073,-6.93074 v -7.76076 c 0,-0.53952 -0.41502,-0.95453 -0.95454,-0.95453 z m 21.40957,0 c -0.53952,0 -0.95454,0.41501 -0.95454,0.95453 0,0.49802 0.41502,0.95453 0.95454,0.95453 h 12.49192 c -8.38329,6.01771 -13.44646,15.72904 -13.44646,26.18739 v 4.19164 c 0,0.53952 0.41502,0.91303 0.95454,0.91303 h 10.45835 c 3.40311,0 6.14221,-2.73909 6.14221,-6.14221 0,-0.49801 -0.41502,-0.95453 -0.91304,-0.95453 -0.53951,0 -0.95453,0.45652 -0.95453,0.95453 0,1.16204 -0.45651,2.19958 -1.16204,2.9466 -0.78852,0.83003 -1.90906,1.32805 -3.1126,1.32805 h -9.50382 v -3.23711 c 0,-10.87337 5.76869,-20.87521 15.18951,-26.31189 0.29051,-0.16601 0.45652,-0.49802 0.45652,-0.83003 0,-0.53952 -0.41502,-0.95453 -0.91304,-0.95453 z"
         id="path42" />
    </g>
  </g>
</svg>
