<?xml version="1.0" encoding="UTF-8" standalone="no"?>
<!-- Created with Inkscape (http://www.inkscape.org/) -->

<svg
   width="1108.5863"
   height="482.35962"
   viewBox="0 0 293.31346 127.62432"
   version="1.1"
   id="svg1"
   inkscape:version="1.4 (86a8ad7, 2024-10-11)"
   sodipodi:docname="Alphabet Hangeulic Chunky Diacritics Consonants.svg"
   xmlns:inkscape="http://www.inkscape.org/namespaces/inkscape"
   xmlns:sodipodi="http://sodipodi.sourceforge.net/DTD/sodipodi-0.dtd"
   xmlns="http://www.w3.org/2000/svg"
   xmlns:svg="http://www.w3.org/2000/svg">
  <sodipodi:namedview
     id="namedview1"
     pagecolor="#ffffff"
     bordercolor="#000000"
     borderopacity="0.25"
     inkscape:showpageshadow="2"
     inkscape:pageopacity="0.0"
     inkscape:pagecheckerboard="0"
     inkscape:deskcolor="#d1d1d1"
     inkscape:document-units="px"
     inkscape:zoom="0.85280275"
     inkscape:cx="555.22804"
     inkscape:cy="361.74836"
     inkscape:window-width="1920"
     inkscape:window-height="1027"
     inkscape:window-x="-8"
     inkscape:window-y="-8"
     inkscape:window-maximized="1"
     inkscape:current-layer="layer1" />
  <defs
     id="defs1" />
  <g
     inkscape:label="Layer 1"
     inkscape:groupmode="layer"
     id="layer1"
     transform="translate(9.0279538,-54.815149)">
    <text
       xml:space="preserve"
       style="font-size:28.2222px;line-height:1.6;font-family:'BlockTrain Hand';-inkscape-font-specification:'BlockTrain Hand';text-align:start;letter-spacing:2.64583px;writing-mode:lr-tb;direction:ltr;text-anchor:start;display:none;fill:#19919b;fill-opacity:1;stroke:#7c7c7c;stroke-width:0.79375;stroke-dasharray:none;stroke-opacity:1"
       x="138.19148"
       y="88.739998"
       id="text1"><tspan
         style="font-style:normal;font-variant:normal;font-weight:bold;font-stretch:normal;font-size:28.2222px;line-height:1.6;font-family:'NewEng Hangeul';-inkscape-font-specification:'NewEng Hangeul Bold';text-align:center;letter-spacing:2.64583px;text-anchor:middle;fill:#19919b;fill-opacity:1;stroke:#7c7c7c;stroke-width:0.79375;stroke-dasharray:none;stroke-opacity:1"
         x="138.19147"
         y="88.739998"
         sodipodi:role="line"
         id="tspan8">c̊čç̌d̈f̈g̊g̃ǧ</tspan><tspan
         style="font-style:normal;font-variant:normal;font-weight:bold;font-stretch:normal;font-size:28.2222px;line-height:1.6;font-family:'NewEng Hangeul';-inkscape-font-specification:'NewEng Hangeul Bold';text-align:center;letter-spacing:2.64583px;text-anchor:middle;fill:#19919b;fill-opacity:1;stroke:#7c7c7c;stroke-width:0.79375;stroke-dasharray:none;stroke-opacity:1"
         x="138.19148"
         y="133.89552"
         sodipodi:role="line"
         id="tspan16">ȝ̊ȝ̌ǰʞ̌ñp̀q̌šs̈</tspan><tspan
         style="font-style:normal;font-variant:normal;font-weight:bold;font-stretch:normal;font-size:28.2222px;line-height:1.6;font-family:'NewEng Hangeul';-inkscape-font-specification:'NewEng Hangeul Bold';text-align:center;letter-spacing:2.64583px;text-anchor:middle;fill:#19919b;fill-opacity:1;stroke:#7c7c7c;stroke-width:0.79375;stroke-dasharray:none;stroke-opacity:1"
         x="139.51439"
         y="179.05104"
         sodipodi:role="line"
         id="tspan17">s̈̌ẗťч̌x̌ẍẍ̌z̈ž</tspan></text>
    <g
       id="text20"
       style="font-size:28.2222px;line-height:1.6;font-family:'BlockTrain Hand';-inkscape-font-specification:'BlockTrain Hand';letter-spacing:2.64583px;fill:#19919b;stroke:#7c7c7c;stroke-width:0.79375"
       aria-label="c̊čç̌d̈f̈g̊g̃ǧ&#10;ȝ̊ȝ̌ǰʞ̌ñp̀q̌šs̈&#10;s̈̌ẗťч̌x̌ẍẍ̌z̈ž">
      <path
         style="font-weight:bold;font-family:'NewEng Hangeul';-inkscape-font-specification:'NewEng Hangeul Bold';text-align:center;text-anchor:middle"
         d="m 8.8208353,70.790678 h 0.282222 l -1.4393322,1.213555 v 18.316208 l 1.1571102,1.41111 H 29.761708 l 5.418662,-4.543774 -1.185332,-1.41111 H 14.239498 V 70.790678 h 15.52221 l 5.418662,-4.543774 -1.185332,-1.41111 H 13.054165 L 7.6637251,69.379568 Z M 25.154414,55.212024 c -0.620888,0 -1.552221,0.112889 -2.427109,0.846666 l -2.596442,2.173109 c -0.112889,0.08467 -0.225778,0.197556 -0.338667,0.338667 l 0.197556,0.225777 -0.677333,0.564444 c -0.08467,0.254 -0.08467,0.310444 -0.08467,0.592666 0,1.100666 0.479778,1.693332 0.620889,1.834443 l 0.536222,0.649111 c 0.564444,0.649111 1.41111,1.044222 2.427109,1.044222 0.112889,0 0.423333,-0.02822 0.423333,-0.02822 0.564444,0 1.608665,-0.112888 2.427109,-0.790221 l 2.596443,-2.17311 c 0.225777,-0.197555 0.423333,-0.423333 0.592666,-0.705555 l -0.366889,-0.451555 0.649111,-0.536222 c 0.02822,-0.141111 0.02822,-0.254 0.02822,-0.395111 0,-0.310444 -0.08467,-0.592666 -0.169333,-0.874888 -0.112889,-0.282222 -0.169333,-0.338666 -0.931333,-1.241777 -0.423333,-0.507999 -1.213554,-1.072443 -2.483553,-1.072443 -0.112889,0 -0.423334,0 -0.423334,0 z m -2.765775,2.878664 c 0.254,-0.02822 0.507999,-0.05644 0.705555,-0.05644 0,0 0.310444,0 0.423333,0 1.015999,0 1.749776,0.366888 2.201332,0.761999 0.169333,0.282222 0.310444,0.733777 0.310444,1.15711 0,0.112889 -0.02822,0.225778 -0.02822,0.366889 l 0.169333,0.225778 c -0.338667,0.08467 -0.649111,0.08467 -0.874889,0.08467 0,0 -0.310444,0 -0.423333,0 -0.846666,0 -1.580443,-0.254 -2.144887,-0.705555 -0.282222,-0.507999 -0.366888,-1.072443 -0.366888,-1.495776 0,-0.169334 0,-0.254 0.02822,-0.338667 z m 38.071785,-0.282222 c 0,0 -2.539998,0.536222 -3.951108,1.721554 l -0.959555,0.790222 -0.02822,-0.05644 c -1.100666,-1.298222 -5.841995,-2.455332 -5.841995,-2.455332 l -2.596443,2.17311 0.564444,0.64911 c 0,0 3.979331,0.987777 5.475107,2.144888 l 0.536222,0.620888 2.31422,-1.947332 c 1.213555,-0.564444 2.455332,-0.818444 2.455332,-0.818444 l 2.56822,-2.173109 z M 41.80555,70.790678 h 0.282222 l -1.439332,1.213555 v 18.316208 l 1.15711,1.41111 h 20.940872 l 5.418663,-4.543774 -1.185332,-1.41111 H 47.224212 V 70.790678 h 15.52221 l 5.418663,-4.543774 -1.185332,-1.41111 H 46.03888 l -5.39044,4.543774 z m 32.984714,0 h 0.282222 l -1.439332,1.213555 v 7.873994 l 1.15711,1.41111 h 17.808209 l -4.543775,3.781775 v 0.705555 h -5.13644 l -5.39044,4.543774 1.185332,1.41111 h 10.526881 l 5.418662,-4.543774 V 81.96667 l -0.564444,-0.677333 h 1.636888 l 5.418663,-4.543774 -1.185333,-1.41111 h -19.75554 v -4.543775 h 15.52221 l 5.418663,-4.543774 -1.185333,-1.41111 H 79.023594 l -5.39044,4.543774 z M 96.090955,57.780232 c 0,0 -2.539998,0.564444 -3.951108,1.749777 l -0.959555,0.790221 -0.02822,-0.05644 c -1.100666,-1.298221 -5.841996,-2.483554 -5.841996,-2.483554 l -2.596442,2.201332 0.536221,0.649111 c 0,0 4.007553,0.959554 5.503329,2.144887 l 0.508,0.620888 2.314221,-1.947332 c 1.241776,-0.564444 2.455331,-0.818443 2.455331,-0.818443 l 2.596442,-2.201332 z m 10.526915,11.599336 v 20.940873 l 1.15711,1.41111 1.55222,-1.298221 1.07245,1.298221 h 15.71976 l 1.524,-1.298221 1.07245,1.298221 5.41866,-4.543774 V 71.468011 l -1.18533,-1.382888 -5.22111,-5.249329 h -13.0951 l -1.55222,1.298221 -1.07245,-1.298221 z m 6.57578,1.41111 h 10.3011 l 4.064,4.035775 v 10.950214 h -12.92577 l -1.43933,1.213554 z m 11.2818,-8.240889 h 3.55599 l 2.59645,-2.201332 -0.53623,-0.649111 h -3.55599 l -2.59645,2.201332 z m -8.46666,0 h 3.55599 l 2.59645,-2.201332 -0.53623,-0.649111 h -3.55599 l -2.59645,2.201332 z m 30.16957,18.711326 h 10.3011 l 5.39044,-4.543775 -1.15711,-1.41111 h -13.0951 l -1.43933,1.213555 v -5.729107 h 15.52221 l 5.41866,-4.543774 -1.18533,-1.41111 h -20.94088 l -5.39044,4.543774 1.15711,1.41111 h 0.28223 l -1.43934,1.213555 v 18.316208 l 1.15711,1.41111 5.41867,-4.543774 z m 11.28181,-18.711326 h 3.556 l 2.59644,-2.201332 -0.53622,-0.649111 h -3.556 l -2.59644,2.201332 z m -8.46666,0 h 3.556 l 2.59644,-2.201332 -0.53622,-0.649111 h -3.556 l -2.59644,2.201332 z m 24.8638,8.240889 h 0.16933 l -1.43933,1.213555 v 18.316208 l 1.15711,1.41111 h 20.94087 l 5.41866,-4.543774 -1.18533,-1.41111 h -0.254 l 1.43933,-1.213555 V 76.71734 l -1.18533,-1.41111 h -10.47043 l -5.39044,4.543775 1.15711,1.41111 h 9.31332 v 4.515552 h -14.3651 V 70.790678 h 15.52221 l 5.41866,-4.543774 -1.18533,-1.41111 h -20.82798 l -5.41866,4.543774 z m 16.22068,-15.578654 c -0.62088,0 -1.55222,0.112889 -2.4271,0.846666 l -2.59645,2.173109 c -0.11289,0.08467 -0.22577,0.197556 -0.33866,0.338667 l 0.19755,0.225777 -0.67733,0.564444 c -0.0847,0.254 -0.0847,0.310444 -0.0847,0.592666 0,1.100666 0.47978,1.693332 0.62089,1.834443 l 0.53622,0.649111 c 0.56445,0.649111 1.41111,1.044222 2.42711,1.044222 0.11289,0 0.42334,-0.02822 0.42334,-0.02822 0.56444,0 1.60866,-0.112888 2.4271,-0.790221 l 2.59645,-2.17311 c 0.22577,-0.197555 0.42333,-0.423333 0.59266,-0.705555 l -0.36689,-0.451555 0.64911,-0.536222 c 0.0282,-0.141111 0.0282,-0.254 0.0282,-0.395111 0,-0.310444 -0.0847,-0.592666 -0.16934,-0.874888 -0.11288,-0.282222 -0.16933,-0.338666 -0.93133,-1.241777 -0.42333,-0.507999 -1.21355,-1.072443 -2.48355,-1.072443 -0.11289,0 -0.42334,0 -0.42334,0 z m -2.76577,2.878664 c 0.254,-0.02822 0.508,-0.05644 0.70555,-0.05644 0,0 0.31045,0 0.42334,0 1.016,0 1.74977,0.366888 2.20133,0.761999 0.16933,0.282222 0.31044,0.733777 0.31044,1.15711 0,0.112889 -0.0282,0.225778 -0.0282,0.366889 l 0.16933,0.225778 c -0.33866,0.08467 -0.64911,0.08467 -0.87488,0.08467 0,0 -0.31045,0 -0.42334,0 -0.84666,0 -1.58044,-0.254 -2.14488,-0.705555 -0.28223,-0.507999 -0.36689,-1.072443 -0.36689,-1.495776 0,-0.169334 0,-0.254 0.0282,-0.338667 z m 19.5298,12.69999 h 0.16933 l -1.43933,1.213555 v 18.316208 l 1.15711,1.41111 H 227.67 l 5.41867,-4.543774 -1.18534,-1.41111 h -0.254 l 1.43934,-1.213555 V 76.71734 l -1.18534,-1.41111 H 221.4329 l -5.39044,4.543775 1.15711,1.41111 h 9.31332 v 4.515552 h -14.3651 V 70.790678 H 227.67 l 5.41867,-4.543774 -1.18534,-1.41111 h -20.82798 l -5.41866,4.543774 z M 219.05517,56.03046 c -0.79022,0 -1.38289,0.254 -1.80622,0.592666 l -2.59645,2.17311 c -0.50799,0.423333 -0.73377,1.044221 -0.73377,1.636888 0,0.507999 0.14111,0.987777 0.47978,1.382887 l 0.53622,0.649111 c 0.39511,0.479777 1.04422,0.818444 1.89088,0.818444 l 2.59645,-2.201332 -0.53623,-0.64911 c -0.67733,0 -1.18533,-0.169334 -1.58044,-0.479778 -0.16933,-0.338666 -0.254,-0.677333 -0.254,-1.044221 0,0 0,-0.02822 0,-0.02822 2.06022,0.05644 4.40267,4.402663 7.78933,4.402663 0.762,0 1.35466,-0.225778 1.778,-0.592666 l 2.59644,-2.17311 c 0.508,-0.423333 0.762,-1.044221 0.762,-1.636887 0,-0.479778 -0.16933,-0.959555 -0.47978,-1.354666 l -0.56444,-0.649111 c -0.39511,-0.479777 -1.07245,-0.846666 -2.032,-0.846666 l -2.59644,2.201332 0.53622,0.649111 c 0.762,0 1.32644,0.197555 1.74978,0.536221 0.16933,0.310445 0.254,0.649111 0.254,0.987777 0,0 0,0.02822 0,0.02822 -3.38667,-0.05644 -5.72911,-4.402664 -7.78933,-4.402664 z m 39.31356,1.778006 c 0,0 -2.54,0.536222 -3.95111,1.721554 l -0.95955,0.790222 -0.0282,-0.05644 c -1.10067,-1.298222 -5.842,-2.455332 -5.842,-2.455332 l -2.59644,2.17311 0.56444,0.64911 c 0,0 3.97933,0.987777 5.47511,2.144888 l 0.53622,0.620888 2.31422,-1.947332 c 1.21356,-0.564444 2.45533,-0.818444 2.45533,-0.818444 l 2.56822,-2.173109 z m -18.54199,12.982212 h 0.16934 l -1.43933,1.213555 v 18.316208 l 1.15711,1.41111 h 20.94087 l 5.41866,-4.543774 -1.18533,-1.41111 h -0.254 l 1.43933,-1.213555 V 76.71734 l -1.18533,-1.41111 h -10.47044 l -5.39044,4.543775 1.15711,1.41111 h 9.31333 v 4.515552 h -14.3651 V 70.790678 h 15.52221 l 5.41866,-4.543774 -1.18533,-1.41111 h -20.82799 l -5.41866,4.543774 z"
         id="path20" />
      <path
         style="font-weight:bold;font-family:'NewEng Hangeul';-inkscape-font-specification:'NewEng Hangeul Bold';text-align:center;text-anchor:middle"
         d="m 12.112238,115.9462 v 3.13266 l -1.721554,1.41111 H 2.7424679 l -5.3904402,4.54378 1.1571102,1.41111 h 7.6482163 c 4.1768858,-3.49955 8.3537718,-6.97089 12.5306568,-10.47044 v -4.57199 l -1.185332,-1.41111 H -3.2406385 l -5.3904403,4.54377 1.1571102,1.41111 z M -7.4739686,136.88707 H 6.129132 c 4.205108,-3.49955 8.381994,-6.9991 12.558879,-10.49866 v -4.48733 l -1.185332,-1.41111 h -2.82222 l -5.3904406,4.54378 1.1571106,1.41111 h 1.636887 v 3.048 l -1.721554,1.43933 H -3.2406385 l -5.3904403,4.54377 z M 9.0289603,100.36755 c -0.6208884,0 -1.5522211,0.11288 -2.4271093,0.84666 l -2.5964424,2.17311 c -0.1128888,0.0847 -0.2257776,0.19756 -0.3386664,0.33867 l 0.1975554,0.22577 -0.6773328,0.56445 c -0.084667,0.254 -0.084667,0.31044 -0.084667,0.59266 0,1.10067 0.4797774,1.69334 0.6208884,1.83445 l 0.5362218,0.64911 c 0.564444,0.64911 1.41111,1.04422 2.4271092,1.04422 0.1128888,0 0.423333,-0.0282 0.423333,-0.0282 0.5644441,0 1.6086655,-0.11289 2.4271093,-0.79022 l 2.5964421,-2.17311 c 0.225778,-0.19756 0.423333,-0.42334 0.592667,-0.70556 l -0.366889,-0.45155 0.649111,-0.53623 c 0.02822,-0.14111 0.02822,-0.254 0.02822,-0.39511 0,-0.31044 -0.08467,-0.59266 -0.169333,-0.87488 -0.112889,-0.28223 -0.169334,-0.33867 -0.931333,-1.24178 -0.423333,-0.508 -1.213555,-1.07244 -2.4835537,-1.07244 -0.1128888,0 -0.423333,0 -0.423333,0 z m -2.7657757,2.87866 c 0.2539998,-0.0282 0.5079996,-0.0564 0.705555,-0.0564 0,0 0.3104442,0 0.423333,0 1.0159993,0 1.7497765,0.36688 2.2013317,0.76199 0.1693332,0.28223 0.3104442,0.73378 0.3104442,1.15711 0,0.11289 -0.028222,0.22578 -0.028222,0.36689 l 0.1693327,0.22578 c -0.3386659,0.0847 -0.6491101,0.0847 -0.8748877,0.0847 0,0 -0.3104442,0 -0.423333,0 -0.846666,0 -1.5804433,-0.254 -2.1448873,-0.70556 -0.282222,-0.508 -0.3668886,-1.07244 -0.3668886,-1.49577 0,-0.16934 0,-0.254 0.028222,-0.33867 z M 44.899401,115.9462 v 3.13266 l -1.721554,1.41111 h -7.648216 l -5.390441,4.54378 1.157111,1.41111 h 7.648216 c 4.176886,-3.49955 8.353771,-6.97089 12.530657,-10.47044 v -4.57199 l -1.185332,-1.41111 H 29.546524 l -5.39044,4.54377 1.15711,1.41111 z m -19.586207,20.94087 h 13.603101 c 4.205108,-3.49955 8.381993,-6.9991 12.558879,-10.49866 v -4.48733 l -1.185332,-1.41111 h -2.822221 l -5.39044,4.54378 1.15711,1.41111 h 1.636888 v 3.048 l -1.721554,1.43933 H 29.546524 l -5.39044,4.54377 z m 21.470033,-33.95132 c 0,0 -2.539999,0.56445 -3.951109,1.74978 l -0.959554,0.79022 -0.02822,-0.0564 c -1.100665,-1.29822 -5.841995,-2.48356 -5.841995,-2.48356 l -2.596442,2.20134 0.536221,0.64911 c 0,0 4.007553,0.95955 5.503329,2.14488 l 0.508,0.62089 2.31422,-1.94733 c 1.241777,-0.56444 2.455332,-0.81844 2.455332,-0.81844 l 2.596442,-2.20134 z m 29.972004,0.0282 c 0,0 -2.539998,0.53622 -3.951108,1.72155 l -0.959554,0.79022 -0.02822,-0.0564 c -1.100665,-1.29822 -5.841995,-2.45533 -5.841995,-2.45533 l -2.596443,2.17311 0.564444,0.64911 c 0,0 3.979331,0.98777 5.475107,2.14488 l 0.536222,0.62089 2.314221,-1.94733 c 1.213554,-0.56444 2.455331,-0.81844 2.455331,-0.81844 l 2.56822,-2.17311 z M 58.100357,115.9462 h 10.752658 l -1.439332,1.21355 v 13.77244 h -3.894664 v -3.81 l -1.185332,-1.41111 -5.39044,4.51555 v 5.24933 l 1.15711,1.41111 h 7.873994 l 1.523999,-1.29822 1.072443,1.29822 5.418663,-4.54377 v -16.3971 h 5.051774 l 5.418662,-4.54377 -1.185332,-1.41111 H 62.333687 l -5.39044,4.54377 z m 41.225601,16.98976 6.547552,-6.51932 h 3.556 l 1.43933,-1.21356 v 10.27288 l 1.15711,1.41111 5.41866,-4.54377 v -20.94087 l -1.18533,-1.41111 -5.39044,4.54377 v 5.92666 h -9.84955 l -4.515552,-9.05932 -1.185333,-1.41111 -5.39044,4.54377 5.221107,10.47044 1.185333,1.41111 h 4.910665 l -1.07245,0.62088 -7.87399,7.84578 0.931333,1.58044 z m 13.059812,-30.00021 c 0,0 -2.54,0.56445 -3.95111,1.74978 l -0.95956,0.79022 -0.0282,-0.0564 c -1.10067,-1.29822 -5.84199,-2.48356 -5.84199,-2.48356 l -2.596447,2.20134 0.536221,0.64911 c 0,0 4.007556,0.95955 5.503326,2.14488 l 0.508,0.62089 2.31422,-1.94733 c 1.24178,-0.56444 2.45533,-0.81844 2.45533,-0.81844 l 2.59645,-2.20134 z m 21.36424,-1.72154 c -0.79022,0 -1.38289,0.22578 -1.80622,0.56445 l -2.59644,2.1731 c -0.508,0.45156 -0.73378,1.04423 -0.73378,1.66511 0,0.47978 0.14111,0.98778 0.47978,1.38289 l 0.53622,0.64911 c 0.39511,0.45156 1.04422,0.79022 1.89088,0.79022 l 2.59645,-2.17311 -0.53622,-0.64911 c -0.67734,0 -1.18534,-0.19755 -1.58045,-0.508 -0.16933,-0.31044 -0.254,-0.67733 -0.254,-1.01599 0,-0.0282 0,-0.0564 0,-0.0564 2.06022,0.0564 4.40267,4.40266 7.78933,4.40266 0.762,0 1.35467,-0.22577 1.778,-0.59266 l 2.59644,-2.17311 c 0.508,-0.42333 0.762,-1.016 0.762,-1.63689 0,-0.47978 -0.16933,-0.95955 -0.47978,-1.35466 l -0.56444,-0.64912 c -0.39511,-0.47977 -1.07245,-0.81844 -2.032,-0.81844 l -2.59644,2.17311 0.53622,0.64911 c 0.762,0 1.32644,0.19756 1.74978,0.53622 0.16933,0.31045 0.254,0.64911 0.254,0.98778 0,0.0282 0,0.0282 0,0.0564 -3.38667,-0.0564 -5.72911,-4.40266 -7.78933,-4.40266 z m -10.83733,13.32088 v 20.94087 l 1.15711,1.41111 5.41867,-4.54377 v -11.00666 l 12.92576,12.92577 1.43934,-1.21356 v 2.42711 l 1.15711,1.41111 5.41866,-4.54377 v -20.94087 l -1.18533,-1.41111 -5.39044,4.54377 v 11.00666 l -12.92577,-12.92577 -1.43933,1.21355 v -2.4271 l -1.18534,-1.41111 z m 32.98471,0 v 20.94087 l 1.15711,1.41111 5.41867,-4.54377 v -3.33022 h 12.92576 l 1.524,-1.27 1.07245,1.27 5.41866,-4.51555 v -13.0951 l -1.18533,-1.41111 H 163.9125 l -1.55222,1.29822 -1.07245,-1.29822 z m 6.57578,1.41111 h 14.3651 v 7.14022 H 163.9125 l -1.43933,1.21355 z m 15.65624,-10.24467 c -0.508,-0.39511 -2.59644,-1.80622 -8.91822,-2.70933 l -2.59644,2.20133 0.53622,0.64911 c 6.32178,0.87489 8.41022,2.286 8.91822,2.70934 l 2.59644,-2.20134 z m 10.75269,8.83356 v 18.31621 l 1.15711,1.41111 h 9.31333 v 3.83822 l 1.15711,1.41111 5.41866,-4.54378 v -0.70555 h 5.05178 l 5.41866,-4.54378 -1.18533,-1.41111 h -0.254 l 1.43933,-1.18533 v -15.71976 l -1.18533,-1.41111 h -18.31621 l -1.55222,1.29822 -1.07244,-1.29822 z m 10.47044,10.47044 v 3.30199 h -3.89466 V 115.9462 h 14.3651 v 12.36132 h -3.89467 v -6.43466 l -1.18533,-1.41111 z m 11.98737,-22.06978 c 0,0 -2.54,0.56445 -3.95111,1.74978 l -0.95955,0.79022 -0.0282,-0.0564 c -1.10067,-1.29822 -5.842,-2.48356 -5.842,-2.48356 l -2.59644,2.20134 0.53622,0.64911 c 0,0 4.00755,0.95955 5.50333,2.14488 l 0.508,0.62089 2.31422,-1.94733 c 1.24178,-0.56444 2.45533,-0.81844 2.45533,-0.81844 l 2.59644,-2.20134 z m 30.50824,0.0282 c 0,0 -2.54,0.53622 -3.95111,1.72155 l -0.95955,0.79022 -0.0282,-0.0564 c -1.10066,-1.29822 -5.84199,-2.45533 -5.84199,-2.45533 l -2.59644,2.17311 0.56444,0.64911 c 0,0 3.97933,0.98777 5.47511,2.14488 l 0.53622,0.62089 2.31422,-1.94733 c 1.21355,-0.56444 2.45533,-0.81844 2.45533,-0.81844 l 2.56822,-2.17311 z m -18.82421,12.98221 h 0.28222 l -1.43933,1.21355 v 7.84578 l 1.15711,1.41111 h 19.78376 v 4.51555 h -15.55043 l -5.39044,4.54377 1.15711,1.41111 h 18.34443 l 1.524,-1.29822 1.07244,1.29822 5.41867,-4.54377 v -10.47044 l -1.18534,-1.41111 H 228.4426 v -4.51555 h 15.52221 l 5.41867,-4.54377 -1.18534,-1.41111 h -20.94087 l -5.39044,4.54377 z m 32.98473,0 h 0.28222 l -1.43933,1.21355 v 7.84578 l 1.15711,1.41111 h 19.78376 v 4.51555 H 260.242 l -5.39044,4.54377 1.15711,1.41111 h 18.34443 l 1.524,-1.29822 1.07244,1.29822 5.41866,-4.54377 v -10.47044 l -1.18533,-1.41111 h -19.75554 v -4.51555 h 15.52221 l 5.41866,-4.54377 -1.18533,-1.41111 H 260.242 l -5.39044,4.54377 z m 16.70046,-8.24089 h 3.556 l 2.59644,-2.20133 -0.53622,-0.64911 h -3.556 l -2.59644,2.20133 z m -8.46666,0 h 3.556 l 2.59644,-2.20133 -0.53622,-0.64911 h -3.556 l -2.59644,2.20133 z"
         id="path21" />
      <path
         style="font-weight:bold;font-family:'NewEng Hangeul';-inkscape-font-specification:'NewEng Hangeul Bold';text-align:center;text-anchor:middle"
         d="m -6.3486082,161.10172 h 0.282222 l -1.4393322,1.21356 v 7.84577 l 1.1571102,1.41111 H 13.435154 v 4.51555 H -2.1152781 l -5.3904403,4.54377 1.1571102,1.41111 H 11.995822 l 1.523999,-1.29822 1.072444,1.29822 5.418662,-4.54377 v -10.47044 l -1.185332,-1.41111 H -0.92994571 v -4.51555 H 14.592265 l 5.418662,-4.54377 -1.185332,-1.41111 H -2.1152781 l -5.3904403,4.54377 z M 10.35186,152.86083 h 3.555997 l 2.596442,-2.20133 -0.536221,-0.64911 H 12.41208 l -2.5964422,2.20133 z m -8.4666605,0 H 5.4411968 L 8.0376392,150.6595 7.5014174,150.01039 H 3.9454201 l -2.5964424,2.20133 z m 13.0668785,-4.76956 c 0,0 -2.539998,0.56445 -3.951108,1.74978 l -0.959555,0.79022 -0.02822,-0.0564 c -1.1006656,-1.29822 -5.8419953,-2.48356 -5.8419953,-2.48356 l -2.5964424,2.20134 0.5362218,0.64911 c 0,0 4.0075525,0.95955 5.5033291,2.14488 l 0.5079996,0.62089 2.3142202,-1.94733 c 1.241777,-0.56444 2.455332,-0.81844 2.455332,-0.81844 l 2.596442,-2.20133 z m 25.908017,4.76957 h 3.555998 l 2.596442,-2.17311 -0.536222,-0.64911 h -3.555997 l -2.596442,2.17311 z m -8.46666,0 h 3.555997 l 2.596443,-2.17311 -0.536222,-0.64911 h -3.555997 l -2.596443,2.17311 z m -5.757329,8.24088 h 10.752659 l -1.439333,1.21356 v 18.3162 l 1.157111,1.41111 5.418662,-4.54377 v -16.3971 h 5.051774 l 5.418662,-4.54377 -1.185332,-1.41111 H 30.869436 l -5.39044,4.54377 z m 51.639589,-12.98221 c 0,0 -2.539998,0.53622 -3.951108,1.72155 l -0.959555,0.79022 -0.02822,-0.0564 c -1.100666,-1.29822 -5.841995,-2.45533 -5.841995,-2.45533 l -2.596443,2.17311 0.564444,0.64911 c 0,0 3.979331,0.98778 5.475107,2.14489 l 0.536222,0.62088 2.31422,-1.94733 c 1.213555,-0.56444 2.455332,-0.81844 2.455332,-0.81844 l 2.56822,-2.17311 z m -18.654874,12.98221 h 10.752658 l -1.439332,1.21356 v 18.3162 l 1.15711,1.41111 5.418663,-4.54377 v -16.3971 h 5.051774 l 5.418662,-4.54377 -1.185332,-1.41111 H 63.854151 l -5.39044,4.54377 z m 31.827608,-1.41111 v 13.0951 l 1.15711,1.38289 h 18.344431 l 1.43933,-1.18533 v 7.64821 l 1.15711,1.41111 5.41866,-4.54377 v -20.94087 l -1.18533,-1.41111 -5.39044,4.54377 v 8.55133 H 98.024202 v -11.68399 l -1.185333,-1.41111 z m 22.457791,-11.59934 c 0,0 -2.54,0.56445 -3.95111,1.74978 l -0.95955,0.79022 -0.0282,-0.0564 c -1.10067,-1.29822 -5.842,-2.48356 -5.842,-2.48356 l -2.59644,2.20134 0.53622,0.64911 c 0,0 4.00755,0.95955 5.50333,2.14488 l 0.508,0.62089 2.31422,-1.94733 c 1.24178,-0.56444 2.45533,-0.81844 2.45533,-0.81844 l 2.59644,-2.20133 z m 31.46779,11.59934 -5.95488,5.92666 h -8.41022 v -9.05932 l -1.18533,-1.41111 -5.39044,4.54377 v 10.47044 l 1.15711,1.41111 h 7.90222 l -9.05933,9.05932 1.15711,1.41111 5.41866,-4.54377 5.92666,-5.92666 h 8.43844 v 9.05932 l 1.15711,1.41111 5.41867,-4.54377 v -10.47044 l -1.18534,-1.41111 h -7.87399 l 9.05933,-9.05932 -1.18534,-1.41111 z m 1.51694,-11.59934 c 0,0 -2.54,0.56445 -3.95111,1.74978 l -0.95956,0.79022 -0.0282,-0.0564 c -1.10066,-1.29822 -5.84199,-2.48356 -5.84199,-2.48356 l -2.59645,2.20134 0.53623,0.64911 c 0,0 4.00755,0.95955 5.50333,2.14488 l 0.508,0.62089 2.31422,-1.94733 c 1.24177,-0.56444 2.45533,-0.81844 2.45533,-0.81844 l 2.59644,-2.20133 z m 25.90801,4.76957 h 3.556 l 2.59644,-2.17311 -0.53622,-0.64911 h -3.55599 l -2.59645,2.17311 z m -8.46666,0 h 3.556 l 2.59644,-2.17311 -0.53622,-0.64911 h -3.55599 l -2.59645,2.17311 z m 14.02644,6.82977 -5.95489,5.92666 h -8.41021 v -9.05932 l -1.18533,-1.41111 -5.39044,4.54377 v 10.47044 l 1.15711,1.41111 h 7.90221 l -9.05932,9.05932 1.15711,1.41111 5.41866,-4.54377 5.92666,-5.92666 h 8.43844 v 9.05932 l 1.15711,1.41111 5.41866,-4.54377 v -10.47044 l -1.18533,-1.41111 h -7.874 l 9.05933,-9.05932 -1.18533,-1.41111 z m 27.42494,-6.82977 h 3.55599 l 2.59645,-2.17311 -0.53623,-0.64911 h -3.55599 l -2.59645,2.17311 z m -8.46666,0 h 3.55599 l 2.59645,-2.17311 -0.53623,-0.64911 h -3.55599 l -2.59645,2.17311 z m 14.02643,6.82977 -5.95489,5.92666 h -8.41021 v -9.05932 l -1.18533,-1.41111 -5.39044,4.54377 v 10.47044 l 1.15711,1.41111 h 7.90221 l -9.05932,9.05932 1.15711,1.41111 5.41866,-4.54377 5.92666,-5.92666 h 8.43844 v 9.05932 l 1.15711,1.41111 5.41866,-4.54377 v -10.47044 l -1.18533,-1.41111 h -7.87399 l 9.05932,-9.05932 -1.18533,-1.41111 z m 1.54519,-12.50243 c 0,0 -2.53999,0.56444 -3.9511,1.74977 l -0.95956,0.79022 -0.0282,-0.0564 c -1.10067,-1.29822 -5.842,-2.48355 -5.842,-2.48355 l -2.59644,2.20133 0.53622,0.64911 c 0,0 4.00755,0.95955 5.50333,2.14489 l 0.508,0.62088 2.31422,-1.94733 c 1.24178,-0.56444 2.45533,-0.81844 2.45533,-0.81844 l 2.59645,-2.20133 z m 18.48554,28.89953 19.52977,-19.52976 -1.18533,-1.41111 h -20.94088 l -5.39044,4.54377 1.15711,1.41111 h 18.37265 l -19.52976,19.52976 1.15711,1.41111 h 20.94088 l 5.41866,-4.54377 -1.18533,-1.41111 z m 9.87068,-23.22688 h 3.556 l 2.59644,-2.20133 -0.53622,-0.64911 h -3.556 l -2.59644,2.20133 z m -8.46666,0 h 3.556 l 2.59644,-2.20133 -0.53622,-0.64911 h -3.556 l -2.59644,2.20133 z m 43.57512,-4.74132 c 0,0 -2.54,0.53622 -3.95111,1.72155 l -0.95956,0.79022 -0.0282,-0.0564 c -1.10067,-1.29822 -5.842,-2.45533 -5.842,-2.45533 l -2.59644,2.17311 0.56445,0.64911 c 0,0 3.97933,0.98778 5.4751,2.14489 l 0.53623,0.62088 2.31422,-1.94733 c 1.21355,-0.56444 2.45533,-0.81844 2.45533,-0.81844 l 2.56822,-2.17311 z m -11.99444,27.9682 19.52976,-19.52976 -1.18533,-1.41111 h -20.94087 l -5.39044,4.54377 1.15711,1.41111 h 18.37265 l -19.52976,19.52976 1.15711,1.41111 h 20.94087 l 5.41866,-4.54377 -1.18533,-1.41111 z"
         id="path22" />
    </g>
  </g>
</svg>
