<?xml version="1.0" encoding="UTF-8" standalone="no"?>
<!-- Created with Inkscape (http://www.inkscape.org/) -->

<svg
   version="1.1"
   id="svg1"
   width="495"
   height="280"
   viewBox="0 0 495 280"
   sodipodi:docname="Chipboard Black Font Cover landscape.svg"
   inkscape:version="1.4 (86a8ad7, 2024-10-11)"
   inkscape:export-filename="Font Cover landscape.png"
   inkscape:export-xdpi="96"
   inkscape:export-ydpi="96"
   xmlns:inkscape="http://www.inkscape.org/namespaces/inkscape"
   xmlns:sodipodi="http://sodipodi.sourceforge.net/DTD/sodipodi-0.dtd"
   xmlns="http://www.w3.org/2000/svg"
   xmlns:svg="http://www.w3.org/2000/svg">
  <defs
     id="defs1">
    <rect
       x="198.13704"
       y="58.2756"
       width="26.763609"
       height="44.893795"
       id="rect14" />
    <rect
       x="142.88313"
       y="45.325466"
       width="116.98287"
       height="137.27142"
       id="rect11" />
  </defs>
  <sodipodi:namedview
     id="namedview1"
     pagecolor="#ffffff"
     bordercolor="#000000"
     borderopacity="0.25"
     inkscape:showpageshadow="2"
     inkscape:pageopacity="0.0"
     inkscape:pagecheckerboard="0"
     inkscape:deskcolor="#d1d1d1"
     inkscape:zoom="1.7696014"
     inkscape:cx="248.92612"
     inkscape:cy="135.90631"
     inkscape:window-width="1920"
     inkscape:window-height="1009"
     inkscape:window-x="-8"
     inkscape:window-y="-8"
     inkscape:window-maximized="1"
     inkscape:current-layer="g1"
     showguides="false" />
  <g
     inkscape:groupmode="layer"
     inkscape:label="Image"
     id="g1"
     transform="translate(-19.645168,-21.043139)">
    <rect
       style="display:inline;opacity:1;fill:#ffffff;fill-opacity:0.578313"
       id="rect3"
       width="495.00003"
       height="279.99997"
       x="19.855019"
       y="20.665426"
       sodipodi:insensitive="true" />
    <rect
       style="opacity:0.861111;fill:#88009b;fill-opacity:1;stroke-width:0.999998"
       id="rect1"
       width="495.00003"
       height="280"
       x="19.645168"
       y="21.043139"
       inkscape:label="Background"
       sodipodi:insensitive="true" />
    <g
       id="g39"
       inkscape:label="Texts"
       transform="translate(7.2499965,-4)"
       style="display:none">
      <text
         xml:space="preserve"
         style="font-size:124.015px;text-align:start;letter-spacing:0px;writing-mode:lr-tb;direction:ltr;text-anchor:start;display:inline;opacity:1;fill:#3a0043;fill-opacity:0.576471;stroke-width:10.3346"
         x="24.266619"
         y="123.85233"
         id="text1"><tspan
           sodipodi:role="line"
           id="tspan1"
           x="24.266619"
           y="123.85233"
           style="font-style:normal;font-variant:normal;font-weight:900;font-stretch:normal;font-family:Chipboard;-inkscape-font-specification:'Chipboard Heavy';text-align:start;letter-spacing:0px;text-anchor:start;fill:#3a0043;fill-opacity:0.576471;stroke-width:10.3346">ABΦkξ</tspan></text>
      <text
         xml:space="preserve"
         style="font-size:70.4284px;line-height:0.8;text-align:end;letter-spacing:0px;writing-mode:lr-tb;direction:ltr;text-anchor:end;display:inline;opacity:0.81;fill:#32003a;fill-opacity:1;stroke:#32003a;stroke-width:1.4312;stroke-dasharray:none;stroke-opacity:1;paint-order:normal"
         x="494.74789"
         y="243.56674"
         id="text2"><tspan
           sodipodi:role="line"
           x="494.74789"
           y="243.56674"
           style="font-style:normal;font-variant:normal;font-weight:normal;font-stretch:normal;line-height:0.8;font-family:Chipboard;-inkscape-font-specification:Chipboard;text-align:end;letter-spacing:0px;text-anchor:end;fill:#32003a;fill-opacity:1;stroke:none;stroke-width:1.4312;stroke-dasharray:none;stroke-opacity:1;paint-order:normal"
           id="tspan100">Chip</tspan><tspan
           sodipodi:role="line"
           x="494.74789"
           y="300.80176"
           style="font-style:normal;font-variant:normal;font-weight:normal;font-stretch:normal;line-height:0.8;font-family:Chipboard;-inkscape-font-specification:Chipboard;text-align:end;letter-spacing:0px;text-anchor:end;fill:#32003a;fill-opacity:1;stroke:none;stroke-width:1.4312;stroke-dasharray:none;stroke-opacity:1;paint-order:normal"
           id="tspan2">board</tspan></text>
      <text
         xml:space="preserve"
         style="font-style:normal;font-variant:normal;font-weight:normal;font-stretch:normal;font-size:33.8325px;line-height:1;font-family:TallThin;-inkscape-font-specification:TallThin;text-align:end;letter-spacing:5.8965px;writing-mode:lr-tb;direction:ltr;text-anchor:end;opacity:0.861111;fill:#3a0043;fill-opacity:0.576471;stroke:none;stroke-width:1.01497;stroke-dasharray:none;stroke-opacity:1;paint-order:normal"
         x="25.774372"
         y="154.00691"
         id="text56"><tspan
           sodipodi:role="line"
           x="25.774372"
           y="154.00691"
           style="font-style:normal;font-variant:normal;font-weight:normal;font-stretch:normal;line-height:1;font-family:Chipboard;-inkscape-font-specification:Chipboard;text-align:start;letter-spacing:5.8965px;text-anchor:start;fill:#3a0043;fill-opacity:0.576471;stroke-width:1.01497"
           id="tspan4">abcdefghijklmno</tspan><tspan
           sodipodi:role="line"
           x="25.774372"
           y="187.83942"
           style="font-style:normal;font-variant:normal;font-weight:normal;font-stretch:normal;line-height:1;font-family:Chipboard;-inkscape-font-specification:Chipboard;text-align:start;letter-spacing:5.8965px;text-anchor:start;fill:#3a0043;fill-opacity:0.576471;stroke-width:1.01497"
           id="tspan5">pqrstuvwxyzαβγδ</tspan><tspan
           sodipodi:role="line"
           x="25.774372"
           y="221.67191"
           style="font-style:normal;font-variant:normal;font-weight:normal;font-stretch:normal;line-height:1;font-family:Chipboard;-inkscape-font-specification:Chipboard;text-align:start;letter-spacing:5.8965px;text-anchor:start;fill:#3a0043;fill-opacity:0.576471;stroke-width:1.01497"
           id="tspan6">εζηθικλμ</tspan><tspan
           sodipodi:role="line"
           x="25.774372"
           y="255.50441"
           style="font-style:normal;font-variant:normal;font-weight:normal;font-stretch:normal;line-height:1;font-family:Chipboard;-inkscape-font-specification:Chipboard;text-align:start;letter-spacing:5.8965px;text-anchor:start;fill:#3a0043;fill-opacity:0.576471;stroke-width:1.01497"
           id="tspan7">νξοπρσ</tspan><tspan
           sodipodi:role="line"
           x="25.774372"
           y="289.33691"
           style="font-style:normal;font-variant:normal;font-weight:normal;font-stretch:normal;line-height:1;font-family:Chipboard;-inkscape-font-specification:Chipboard;text-align:start;letter-spacing:5.8965px;text-anchor:start;fill:#3a0043;fill-opacity:0.576471;stroke-width:1.01497"
           id="tspan8">τυφχψω</tspan></text>
    </g>
    <g
       id="g38"
       inkscape:label="Vectors"
       transform="translate(-3.4533689,-4)"
       style="display:inline"
       sodipodi:insensitive="true">
      <path
         style="font-weight:900;font-size:124.015px;font-family:Chipboard;-inkscape-font-specification:'Chipboard Heavy';letter-spacing:0px;fill:#3a0043;fill-opacity:0.576471;stroke-width:10.3346"
         d="m 66.431719,34.561534 -39.6848,39.684799 v 49.605997 h 34.7242 L 82.553668,102.76978 V 71.766033 H 75.732843 L 61.471119,86.027758 64.571494,89.128133 54.030219,99.669408 43.488944,89.128133 54.030219,78.586858 l 2.4803,2.4803 16.742024,-16.742025 H 89.994568 V 123.85233 H 116.03772 V 34.561534 Z m 54.566631,0 v 22.322699 l 9.9212,13.14559 19.22232,-10.66529 h 17.3621 l 6.82083,-6.820825 10.54127,10.541275 -10.54127,10.541275 -6.82083,-6.820825 H 152.0021 l -19.8424,11.16135 v 2.4803 l 19.8424,11.16135 h 15.50187 l 6.82083,-6.820825 10.54127,10.541275 -10.54127,10.541277 -6.82083,-6.820827 h -17.3621 l -19.22232,-10.66529 -9.9212,13.145587 v 22.3227 h 78.74952 l 10.54127,-10.54127 V 89.748208 L 199.74787,79.206933 h 10.54127 V 45.102808 L 199.74787,34.561534 Z m 126.49532,0 v 55.186674 l 12.4015,10.541272 12.4015,-10.541272 V 63.829073 c 5.95272,5.084615 12.02946,10.293245 17.98218,15.37786 -10.16923,8.68105 -20.21445,17.3621 -30.38368,26.043147 -10.16923,-8.681047 -20.21444,-17.362097 -30.38367,-26.043147 4.71257,-4.092495 9.54915,-8.18499 14.26172,-12.277485 V 44.482733 h -17.98217 l -10.54128,10.541275 v 48.365852 l 10.54128,10.54127 h 21.70262 v 9.9212 h 24.803 v -9.9212 h 21.70263 l 10.54127,-10.54127 V 55.024008 L 293.9993,44.482733 h -21.70263 v -9.921199 z m 62.00752,0 v 89.290796 h 43.40525 l 13.64165,-13.64165 13.64165,13.64165 h 18.60225 V 105.25008 L 385.15034,91.608433 398.79199,77.966783 V 34.561534 h -43.40525 l -16.12195,16.121949 v 37.824575 l 21.70263,-21.702625 -2.4803,-2.4803 10.54127,-10.541275 10.54128,10.541275 -10.54128,10.541275 -2.4803,-2.4803 -30.38367,30.383672 h -4.34053 V 34.561534 Z M 493.04343,70.401868 V 59.364533 l -7.4409,7.4409 h -60.76735 l -21.08255,21.08255 v 11.16135 l 7.4409,-7.4409 h 60.76735 z M 403.75263,34.561534 V 77.346708 L 421.7348,59.364533 h 60.76735 L 493.04343,48.823258 V 34.561534 Z m 89.2908,46.505624 -17.98218,17.982175 H 414.2939 l -10.54127,10.541277 v 14.26172 h 89.2908 z"
         id="text15"
         transform="translate(10.703365)"
         aria-label="ABΦkξ" />
      <g
         id="text17"
         style="font-size:70.4284px;line-height:0.8;text-align:end;letter-spacing:0px;text-anchor:end;opacity:0.81;fill:#32003a;stroke:#32003a;stroke-width:1.4312"
         transform="translate(10.703365)"
         aria-label="Chip&#10;board">
        <path
           style="font-family:Chipboard;-inkscape-font-specification:Chipboard;stroke:none"
           d="m 282.05407,192.8583 v 50.70844 h 50.70844 v -23.24137 h -23.94565 l -3.87356,3.87356 -5.98642,-5.98641 5.98642,-5.98642 3.87356,3.87357 h 23.94565 V 192.8583 Z m 53.5256,0 v 50.70844 h 23.24137 v -17.6071 l -7.74712,-7.74712 7.74712,-7.74713 V 192.8583 Z m 27.46707,0 v 17.60709 l 7.74713,7.74713 -7.74713,7.74712 v 17.6071 h 23.24137 V 192.8583 Z m -2.11285,19.3678 -5.98641,5.98642 5.98641,5.98641 5.98642,-5.98641 z m 28.17138,-19.3678 v 16.90281 l 6.33855,8.45141 -6.33855,8.45141 v 16.90281 h 50.70844 v -16.90281 l -6.33855,-8.45141 6.33855,-8.45141 V 192.8583 Z m 53.52559,0 v 16.90281 h 27.81922 l 3.87356,-3.87356 5.98642,5.98641 -5.98642,5.98642 -3.87356,-3.87357 h -27.81922 v 29.57993 h 16.90282 v -12.67711 h 33.80563 V 192.8583 Z"
           id="path27" />
        <path
           style="font-family:Chipboard;-inkscape-font-specification:Chipboard;stroke:none"
           d="m 228.52847,250.09332 v 12.67711 l 5.63427,7.46541 10.9164,-6.05684 h 9.85998 l 3.87356,-3.87356 5.98641,5.98641 -5.98641,5.98642 -3.87356,-3.87357 h -8.80355 l -11.26855,6.33856 v 1.40857 l 11.26855,6.33855 h 8.80355 l 3.87356,-3.87356 5.98641,5.98642 -5.98641,5.98641 -3.87356,-3.87356 h -9.85998 l -10.9164,-6.05685 -5.63427,7.46542 v 12.67711 h 44.72203 l 5.98642,-5.98642 v -13.38139 l -5.98642,-5.98642 h 5.98642 v -19.36781 l -5.98642,-5.98641 z m 53.5256,0 v 50.70845 h 50.70845 v -50.70845 z m 23.24137,14.78996 v 6.6907 l -3.87356,3.87356 5.98641,5.98642 5.98642,-5.98642 -3.87357,-3.87356 v -6.6907 l 10.56426,10.56426 -12.67711,12.67712 -12.67711,-12.67712 z m 52.82132,-14.78996 -22.53709,22.53709 v 28.17136 h 19.71995 l 11.97283,-11.97283 v -17.6071 h -3.87356 l -8.09927,8.09927 1.76071,1.76071 -5.98641,5.98641 -5.98642,-5.98641 5.98642,-5.98642 1.40857,1.40857 9.50783,-9.50783 h 9.50783 v 33.80563 h 14.78997 v -50.70845 z m 30.98851,0 v 50.70845 h 16.90281 V 270.8697 l -3.87356,-3.87356 5.98641,-5.98642 5.98642,5.98642 -3.87356,3.87356 v 16.90281 l 13.02925,13.02926 h 16.55067 V 290.58965 L 426.78446,277.5604 h 13.02925 V 262.77043 L 427.1366,250.09332 Z m 53.5256,0 v 12.67711 l 6.33856,8.45141 v 2.11285 h 17.6071 l 3.87356,-3.87356 5.98641,5.98641 -5.98641,5.98642 -3.87356,-3.87356 h -17.6071 v 2.11285 l -6.33856,8.45141 v 12.67711 h 44.72203 l 5.98642,-5.98642 v -38.73562 l -5.98642,-5.98641 z"
           id="path28" />
      </g>
      <g
         id="text22"
         style="font-size:33.8325px;line-height:1;font-family:TallThin;-inkscape-font-specification:TallThin;text-align:end;letter-spacing:5.8965px;text-anchor:end;opacity:0.861111;fill:#3a0043;fill-opacity:0.576471;stroke-width:1.01497"
         transform="translate(10.703365)"
         aria-label="abcdefghijklmno&#10;pqrstuvwxyzαβγδ&#10;εζηθικλμ&#10;νξοπρσ&#10;τυφχψω">
        <path
           style="font-family:Chipboard;-inkscape-font-specification:Chipboard;text-align:start;text-anchor:start"
           d="m 37.277422,129.64751 -10.8264,10.8264 v 13.533 h 9.4731 l 5.751525,-5.75152 v -8.45813 H 39.81486 l -3.890738,3.89074 0.845813,0.84581 -2.875763,2.87576 -2.875762,-2.87576 2.875762,-2.87576 0.67665,0.67665 4.567388,-4.56739 h 4.567387 v 16.2396 h 7.104825 v -24.3594 z m 20.782807,0 v 6.08985 l 2.7066,3.58625 5.244038,-2.9096 h 4.73655 l 1.860787,-1.86079 2.875763,2.87577 -2.875763,2.87576 -1.860787,-1.86079 h -4.229063 l -5.4132,3.04493 v 0.67665 l 5.4132,3.04492 h 4.229063 l 1.860787,-1.86079 2.875763,2.87577 -2.875763,2.87576 -1.860787,-1.86079 h -4.73655 l -5.244038,-2.90959 -2.7066,3.58624 v 6.08985 h 21.483638 l 2.875763,-2.87576 v -6.42818 l -2.875763,-2.87576 h 2.875763 v -9.30394 l -2.875763,-2.87576 z m 31.609207,0 v 24.3594 h 24.359404 v -11.16472 h -11.50305 l -1.86079,1.86078 -2.875763,-2.87576 2.875763,-2.87576 1.86079,1.86079 h 11.50305 v -11.16473 z m 31.609204,0 v 6.08985 l 3.04493,4.0599 v 1.01498 h 8.45812 l 1.86079,-1.86079 2.87576,2.87576 -2.87576,2.87576 -1.86079,-1.86078 h -8.45812 v 1.01497 l -3.04493,4.0599 v 6.08985 h 21.48364 l 2.87576,-2.87576 v -18.60788 l -2.87576,-2.87576 z m 31.60921,0 v 24.3594 h 24.3594 v -11.16472 l -7.88297,4.0599 h -8.35663 v -2.02995 h 7.88297 l 5.88686,-3.04493 -5.88686,-3.04492 h -7.88297 v -2.02995 h 8.35663 l 7.88297,4.0599 v -11.16473 z m 31.60921,0 v 24.3594 h 8.1198 v -6.08985 h 11.50305 v -4.73655 l -3.38325,-3.38325 h -6.25901 l -1.86079,1.86079 -2.87576,-2.87576 2.87576,-2.87577 1.86079,1.86079 h 7.10482 l 4.0599,4.0599 h 3.21409 v -12.1797 z m 31.60921,0 v 24.3594 h 24.3594 v -15.22462 h -13.19468 l -3.04492,3.04492 3.04492,3.04493 h 7.10483 v 2.02995 h -7.95064 l -5.07488,-5.07488 5.07488,-5.07487 h 14.04049 v -7.10483 z m 31.6092,0 v 24.3594 h 11.16473 v -8.45812 l -3.72158,-3.72158 3.72158,-3.72157 v -8.45813 z m 13.19468,0 v 8.45813 l 3.72157,3.72157 -3.72157,3.72158 v 8.45812 h 11.16472 v -24.3594 z m -1.01498,9.30394 -2.87576,2.87576 2.87576,2.87576 2.87576,-2.87576 z m 19.42951,-9.30394 v 8.1198 l 3.04492,4.0599 -3.04492,4.0599 v 8.1198 h 24.3594 v -8.1198 l -3.04493,-4.0599 3.04493,-4.0599 v -8.1198 z m 31.60922,0 v 7.10483 h 17.25458 v 10.14975 h -7.27399 l -1.86079,1.86078 -2.87576,-2.87576 2.87576,-2.87576 1.86079,1.86079 h 5.24404 v -3.21409 l -2.87577,-2.87576 h -7.95063 l -4.39823,4.39822 v 10.8264 h 24.3594 v -24.3594 z m 31.60919,0 v 24.3594 h 11.84138 l 3.72157,-3.72157 3.72158,3.72157 h 5.07487 v -5.07487 l -3.72157,-3.72158 3.72157,-3.72157 v -11.84138 h -11.84137 l -4.39823,4.39823 v 10.31891 l 5.92069,-5.92069 -0.67665,-0.67665 2.87576,-2.87576 2.87577,2.87576 -2.87577,2.87576 -0.67665,-0.67665 -8.28896,8.28897 h -1.18414 v -18.60788 z m 31.60923,0 v 24.3594 h 24.3594 v -7.10482 H 384.1329 l -1.86078,1.86078 -2.87577,-2.87576 1.86079,-1.86079 v -14.37881 z m 9.13477,0 v 14.37881 l 0.84581,0.84582 h 14.37882 v -6.08985 h -6.25902 l -1.86078,1.86078 -2.87577,-2.87576 1.86079,-1.86079 v -6.25901 z m 8.1198,0 v 6.25901 l 0.84581,0.84582 h 6.25902 v -7.10483 z m 14.35462,0 v 24.3594 h 6.59734 v -16.2396 l 5.58236,5.58236 3.21409,-3.21408 -0.67665,-0.67665 2.87576,-2.87577 2.87576,2.87577 -2.87576,2.87576 -0.67665,-0.67665 -3.21409,3.21409 4.39823,4.39822 -4.73655,4.73655 h 10.99556 v -24.3594 h -8.1198 l -4.0599,4.0599 -4.0599,-4.0599 z m 31.60922,0 v 24.3594 h 6.7665 v -15.39379 l -1.86079,-1.86078 2.87577,-2.87577 2.87576,2.87577 -1.86079,1.86078 v 15.39379 h 15.56295 v -24.3594 h -6.7665 v 15.39379 l 1.86079,1.86079 -2.87576,2.87576 -2.87577,-2.87576 1.86079,-1.86079 v -15.39379 z m 31.60919,0 v 24.3594 h 24.3594 v -24.3594 z m 11.16473,7.10483 v 3.21408 l -1.86079,1.86079 2.87576,2.87576 2.87576,-2.87576 -1.86078,-1.86079 v -3.21408 l 5.07487,5.07487 -6.08985,6.08985 -6.08985,-6.08985 z"
           id="path22" />
        <path
           style="font-family:Chipboard;-inkscape-font-specification:Chipboard;text-align:start;text-anchor:start"
           d="m 26.451022,163.48001 v 8.1198 H 39.81486 l 1.860787,-1.86079 2.875763,2.87577 -2.875763,2.87576 -1.860787,-1.86079 H 26.451022 v 14.20965 h 8.1198 v -6.08985 h 16.2396 v -18.26955 z m 34.654132,0 -3.044925,3.04493 v 21.31447 h 14.547975 l 1.691625,-1.69162 1.691626,1.69162 h 6.428175 v -1.69162 l -4.0599,-4.0599 4.0599,-4.0599 v -5.75153 l -8.119801,-8.1198 -8.1198,8.1198 v 5.75153 l 4.0599,4.0599 -0.507487,0.50749 h -5.582363 v -11.16473 l 7.950638,-7.95064 z m 13.194675,8.79645 2.875763,2.87577 -2.875763,2.87576 -2.875762,-2.87576 z m 15.369607,-8.79645 v 24.3594 h 8.119801 V 173.4606 l -1.860788,-1.86079 2.875763,-2.87576 2.875758,2.87576 -1.860783,1.86079 v 8.1198 l 6.259013,6.25901 h 7.95064 v -4.90571 l -6.25902,-6.25901 h 6.25902 v -7.10483 l -6.08985,-6.08985 z m 31.609204,0 v 11.50305 l 12.1797,4.0599 v 2.36828 l -12.1797,-4.0599 v 10.48807 h 24.3594 v -11.50305 l -12.1797,-4.0599 v -2.36827 l 12.1797,4.0599 v -10.48808 z m 31.60921,0 v 8.1198 l 4.90571,4.0599 v 12.1797 h 14.54798 v -12.1797 l 4.90571,-4.0599 v -8.1198 z m 31.60921,0 v 24.3594 h 24.3594 v -24.3594 h -11.16473 v 13.19468 l 1.86079,1.86079 -2.87576,2.87576 -2.87576,-2.87576 1.86078,-1.86079 v -13.19468 z m 31.60921,0 v 12.1797 l 6.25901,12.1797 h 11.84137 l 6.25902,-12.1797 v -12.1797 h -6.08985 l -5.07488,5.07488 v 8.1198 l 1.86079,1.86079 -2.87576,2.87576 -2.87577,-2.87576 1.86079,-1.86079 v -8.1198 l -5.07487,-5.07488 z m 31.6092,0 v 19.11537 l 5.24404,5.24403 h 13.87132 l 5.24404,-5.24403 v -19.11537 h -3.38325 l -3.38325,3.38325 v 10.14975 l 1.86079,1.86079 -2.87576,2.87576 -2.87577,-2.87576 1.86079,-1.86079 v -10.14975 l -3.38325,-3.38325 h -3.38325 v 18.26955 l -2.02995,-2.02995 v -12.85635 l -3.38325,-3.38325 z m 31.60921,0 v 7.61231 l 2.36827,3.55242 h 6.59734 l 2.19911,-2.19912 v -6.59733 l -3.55241,-2.36828 z m 16.74709,0 -3.55242,2.36828 v 5.92068 l -4.90571,4.90572 h -5.92069 l -2.36827,3.55241 v 7.61231 h 7.61231 l 3.55241,-2.36827 v -5.92069 l 4.90572,-4.90571 h 5.92068 l 2.36828,-3.55242 v -7.61231 z m -1.3533,13.19468 -2.19912,2.19911 v 6.59734 l 3.55242,2.36827 h 7.61231 v -7.61231 l -2.36828,-3.55241 z m 16.21543,-13.19468 v 13.36384 l 2.87576,2.87576 h 13.36384 v 2.02995 h -16.2396 v 6.08985 h 24.3594 v -24.3594 h -11.16472 v 6.25901 l 1.86078,1.86079 -2.87576,2.87577 -2.87576,-2.87577 1.86079,-1.86079 v -6.25901 z m 31.60919,0 v 6.7665 h 19.45369 l -8.79645,8.79645 h 10.8264 l 2.87576,-2.87576 v -12.68719 z m 2.87577,8.79645 -2.87577,2.87577 v 12.68718 h 24.3594 v -3.89073 l -2.87576,-2.87577 h -11.50305 l -1.86079,1.86079 -2.87576,-2.87576 2.87576,-2.87576 0.67665,0.67665 5.58237,-5.58237 z m 39.55986,-8.79645 -10.8264,10.8264 v 13.533 h 9.4731 l 5.75152,-5.75152 v -8.45813 h -1.86079 l -3.89073,3.89074 0.84581,0.84581 -2.87576,2.87577 -2.87577,-2.87577 2.87577,-2.87576 0.67665,0.67665 4.56738,-4.56739 h 4.56739 v 16.2396 h 7.10483 v -24.3594 z m 20.78279,0 v 24.3594 h 7.44315 v -17.5929 h 6.93566 l 1.86079,-1.86079 2.87576,2.87577 -2.87576,2.87576 -1.86079,-1.86079 h -4.90571 v 6.7665 h 4.90571 l 1.86079,-1.86078 2.87576,2.87576 -2.87576,2.87576 -1.86079,-1.86079 h -4.90571 v 6.7665 h 14.8863 v -9.98058 l -2.19911,-2.19912 2.19911,-2.19911 v -7.10483 l -2.87576,-2.87576 z m 31.60922,0 v 24.3594 h 8.1198 v -12.1797 h 16.2396 v -12.1797 z m 45.48052,0 -13.87133,13.87133 v 10.48807 l 16.91625,-16.91625 v 10.14975 h -7.27399 l -6.7665,6.7665 h 21.48364 v -24.3594 z"
           id="path23" />
        <path
           style="font-family:Chipboard;-inkscape-font-specification:Chipboard;text-align:start;text-anchor:start"
           d="m 26.451022,197.31251 v 24.3594 h 24.3594 v -11.16472 l -7.882972,4.0599 h -8.356628 v -2.02995 h 7.882973 l 5.886855,-3.04493 -5.886855,-3.04492 h -7.882973 v -2.02995 h 8.356628 l 7.882972,4.0599 v -11.16473 z m 31.609207,0 v 6.7665 h 19.453688 l -8.79645,8.79645 h 10.8264 l 2.875763,-2.87576 v -12.68719 z m 2.875763,8.79645 -2.875763,2.87577 v 12.68718 H 82.41963 v -3.89073 l -2.875763,-2.87577 h -11.50305 l -1.860788,1.86079 -2.875762,-2.87576 2.875762,-2.87576 0.67665,0.67665 5.582363,-5.58237 z m 28.733444,-8.79645 v 24.3594 h 11.164724 v -8.45812 l -3.721573,-3.72158 3.721573,-3.72157 v -8.45813 z m 13.194674,0 v 8.45813 l 3.72158,3.72157 -3.72158,3.72158 v 8.45812 h 11.16473 v -24.3594 z m -1.01497,9.30394 -2.875766,2.87576 2.875766,2.87577 2.87576,-2.87577 z m 40.91314,-9.30394 h -18.60787 l -2.87577,2.87577 v 8.28896 h 4.56739 l 5.07488,-5.07488 h 5.07487 l 5.07488,5.07488 h 4.56738 v -8.28896 z m -7.27399,8.1198 h -4.0599 l -4.0599,4.0599 4.0599,4.0599 h 4.0599 l 4.0599,-4.0599 z m -9.64226,5.07488 h -4.56739 v 8.28896 l 2.87577,2.87576 h 18.60787 l 2.87576,-2.87576 v -8.28896 h -4.56738 l -5.07488,5.07487 h -5.07487 z m 27.04182,-13.19468 v 8.1198 l 3.04493,4.0599 -3.04493,4.0599 v 8.1198 h 24.3594 v -8.1198 l -3.04492,-4.0599 3.04492,-4.0599 v -8.1198 z m 31.60921,0 v 24.3594 h 7.44315 l 5.07487,-5.07487 5.07488,5.07487 h 6.7665 v -6.7665 l -5.07488,-5.07487 5.07488,-5.07488 v -7.44315 h -12.68719 v 8.96562 l 1.86079,1.86078 -2.87576,2.87577 -2.87577,-2.87577 1.86079,-1.86078 v -8.96562 z m 33.63916,0 v 8.1198 h 3.72157 l -5.75152,5.75153 v 10.48807 l 16.2396,-16.2396 v 16.2396 h 8.1198 v -24.3594 z m 12.1797,13.02552 -11.33389,11.33388 h 11.33389 z m 17.39955,-13.02552 v 24.3594 h 8.1198 v -4.73655 l -3.72157,-3.72157 v -2.87576 l 5.24403,5.24403 h 5.07488 l 4.22906,-4.22906 v -6.7665 l 1.01498,-1.01497 v 9.64226 l -3.72158,3.72157 v 4.73655 h 8.1198 v -24.3594 h -7.78147 l -3.38325,3.38325 v 4.0599 l 1.86078,1.86079 -2.87576,2.87576 -2.87576,-2.87576 1.86079,-1.86079 v -4.0599 l -3.38325,-3.38325 z"
           id="path24" />
        <path
           style="font-family:Chipboard;-inkscape-font-specification:Chipboard;text-align:start;text-anchor:start"
           d="m 26.451022,231.14501 v 24.3594 h 6.7665 v -20.13033 l 2.02995,2.02995 v 12.85635 l 5.244038,5.24403 h 5.074875 l 5.244037,-5.24403 v -19.11537 h -3.38325 l -3.38325,3.38325 v 10.14975 l 1.860788,1.86079 -2.875763,2.87576 -2.875762,-2.87576 1.860787,-1.86079 v -10.14975 l -3.38325,-3.38325 z m 55.968608,9.7776 v -3.0111 l -2.02995,2.02995 H 63.811754 l -5.751525,5.75153 v 3.04492 l 2.02995,-2.02995 h 16.577926 z m -24.359401,-9.7776 v 11.67222 l 4.905713,-4.90572 h 16.577925 l 2.875763,-2.87576 v -3.89074 z m 24.359401,12.68719 -4.905713,4.90571 H 60.935992 l -2.875763,2.87577 v 3.89073 H 82.41963 Z m 7.249806,-12.68719 v 24.3594 h 24.359404 v -24.3594 z m 11.164724,7.10483 v 3.21409 l -1.860786,1.86078 2.875766,2.87577 2.87576,-2.87577 -1.86079,-1.86078 v -3.21409 l 5.07488,5.07487 -6.08985,6.08985 -6.089854,-6.08985 z m 20.44448,-7.10483 v 8.1198 l 3.04493,4.0599 v 12.1797 h 8.1198 V 241.1256 l -1.86079,-1.86079 2.87576,-2.87576 2.87577,2.87576 -1.86079,1.86079 v 14.37881 h 8.1198 v -12.1797 l 3.04492,-4.0599 v -8.1198 z m 31.60921,0 v 24.3594 h 8.1198 v -12.85635 l 1.86079,-1.86078 -0.67665,-0.67665 2.87576,-2.87577 2.87576,2.87577 -2.87576,2.87576 -0.67665,-0.67665 -1.3533,1.3533 v 5.75152 h 14.20965 v -18.26955 z m 31.60921,0 v 8.1198 l 4.0599,4.0599 -4.0599,4.0599 v 8.1198 h 24.3594 v -8.1198 l -2.36828,-2.36827 h -7.10482 l -1.18414,1.18414 -0.74431,-0.77815 -3.99224,3.99223 h -2.7066 l 5.34554,-5.34553 -0.77815,-0.74432 0.77815,-0.74431 -5.34554,-5.34554 h 2.7066 l 3.99224,3.99224 0.74431,-0.77815 1.18414,1.18414 h 7.10482 l 2.36828,-2.36828 v -8.1198 z"
           id="path25" />
        <path
           style="font-family:Chipboard;-inkscape-font-specification:Chipboard;text-align:start;text-anchor:start"
           d="m 26.451022,264.97751 v 8.1198 h 8.1198 l -1.522462,1.52247 v 11.67221 l 3.044925,3.04492 h 10.657237 l -5.582362,-5.58236 v -7.27399 l 3.38325,-3.38325 h 6.259012 v -8.1198 z m 31.609207,0 v 15.39379 l 2.875763,2.87576 h 5.244037 v 6.08985 h 8.1198 v -6.08985 h 5.244038 l 2.875763,-2.87576 v -15.39379 h -8.288963 l -2.875763,2.87577 v 6.25901 l 1.860788,1.86079 -2.875763,2.87576 -2.875762,-2.87576 1.860787,-1.86079 v -6.25901 l -2.875762,-2.87577 z m 40.405658,0 v 15.05547 l 3.383253,2.87576 3.38325,-2.87576 v -7.071 c 1.62396,1.38714 3.28175,2.8081 4.90571,4.19523 -2.77427,2.36828 -5.5147,4.73655 -8.28896,7.10483 -2.774268,-2.36828 -5.514701,-4.73655 -8.288966,-7.10483 1.285635,-1.11647 2.605103,-2.23294 3.890738,-3.34941 v -6.12369 h -4.905713 l -2.875763,2.87577 v 13.19467 l 2.875763,2.87576 h 5.920688 v 2.7066 h 6.766503 v -2.7066 h 5.92068 l 2.87577,-2.87576 v -13.19467 l -2.87577,-2.87577 h -5.92068 v -2.7066 z m 22.812753,0 v 8.1198 h 3.38325 l 4.0599,4.0599 -7.44315,7.44315 v 4.73655 h 7.44315 l 3.21409,-3.21408 -1.3533,-1.3533 2.87576,-2.87577 2.87577,2.87577 -1.3533,1.3533 3.21408,3.21408 h 7.44315 v -8.1198 h -3.38325 l -4.0599,-4.0599 7.44315,-7.44315 v -4.73655 h -7.44315 l -3.21408,3.21409 1.3533,1.3533 -2.87577,2.87576 -2.87576,-2.87576 1.3533,-1.3533 -3.21409,-3.21409 z m 40.06734,0 v 10.65724 l 1.52246,1.52246 -2.02995,2.02995 -2.02995,-2.02995 1.52246,-1.52246 v -5.92069 l -2.02995,-2.02995 h -5.4132 v 3.55242 l 1.01498,1.01497 v 11.16473 l 1.86078,1.86078 h 5.58237 v 4.0599 h 7.44315 v -4.0599 h 5.58236 l 1.86079,-1.86078 V 272.2515 l 1.01497,-1.01497 v -3.55242 h -5.4132 l -2.02995,2.02995 v 5.92069 l 1.52246,1.52246 -2.02995,2.02995 -2.02995,-2.02995 1.52247,-1.52246 v -10.65724 z m 23.15108,0 v 14.20965 l 2.02995,2.02995 h 4.0599 v 1.01498 l -1.01498,1.01497 h -5.07487 v 6.08985 h 9.30394 l 2.19911,-2.19911 v -7.44315 l -5.4132,-5.4132 5.4132,-5.4132 v 3.21409 l -2.19911,2.19911 2.87576,2.87576 2.87576,-2.87576 -2.19911,-2.19911 v -3.21409 l 5.4132,5.4132 -5.4132,5.4132 v 7.44315 l 2.19911,2.19911 h 9.30394 v -6.08985 h -5.07488 l -1.01497,-1.01497 v -1.01498 h 4.0599 l 2.02995,-2.02995 v -14.20965 z"
           id="path26" />
      </g>
    </g>
  </g>
</svg>
