<?xml version="1.0" encoding="UTF-8" standalone="no"?>
<!-- Created with Inkscape (http://www.inkscape.org/) -->

<svg
   version="1.1"
   id="svg1"
   width="495"
   height="280"
   viewBox="0 0 495 280"
   sodipodi:docname="Font Cover landscape.svg"
   inkscape:version="1.4 (86a8ad7, 2024-10-11)"
   inkscape:export-filename="Font Cover landscape.png"
   inkscape:export-xdpi="96"
   inkscape:export-ydpi="96"
   xmlns:inkscape="http://www.inkscape.org/namespaces/inkscape"
   xmlns:sodipodi="http://sodipodi.sourceforge.net/DTD/sodipodi-0.dtd"
   xmlns="http://www.w3.org/2000/svg"
   xmlns:svg="http://www.w3.org/2000/svg">
  <defs
     id="defs1">
    <rect
       x="198.13704"
       y="58.2756"
       width="26.763609"
       height="44.893795"
       id="rect14" />
    <rect
       x="142.88313"
       y="45.325466"
       width="116.98287"
       height="137.27142"
       id="rect11" />
  </defs>
  <sodipodi:namedview
     id="namedview1"
     pagecolor="#ffffff"
     bordercolor="#000000"
     borderopacity="0.25"
     inkscape:showpageshadow="2"
     inkscape:pageopacity="0.0"
     inkscape:pagecheckerboard="0"
     inkscape:deskcolor="#d1d1d1"
     inkscape:zoom="1.6380683"
     inkscape:cx="220.07629"
     inkscape:cy="138.27262"
     inkscape:window-width="1920"
     inkscape:window-height="1009"
     inkscape:window-x="-8"
     inkscape:window-y="-8"
     inkscape:window-maximized="1"
     inkscape:current-layer="g38" />
  <g
     inkscape:groupmode="layer"
     inkscape:label="Image"
     id="g1"
     transform="translate(-19.645168,-21.043139)">
    <rect
       style="display:inline;opacity:1;fill:#ffffff;fill-opacity:0.578313"
       id="rect3"
       width="495.00003"
       height="279.99997"
       x="19.855019"
       y="20.665426"
       sodipodi:insensitive="true" />
    <rect
       style="opacity:0.861111;fill:#88009b;fill-opacity:1;stroke-width:0.999998"
       id="rect1"
       width="495.00003"
       height="280"
       x="19.645168"
       y="21.043139"
       inkscape:label="Background"
       sodipodi:insensitive="true" />
    <g
       id="g39"
       inkscape:label="Texts"
       transform="translate(7.2499965,-4)"
       style="display:none">
      <text
         xml:space="preserve"
         style="font-size:137.75px;text-align:start;writing-mode:lr-tb;direction:ltr;text-anchor:start;display:none;opacity:1;fill:#3a0043;fill-opacity:0.576471;stroke-width:11.4792"
         x="20.374874"
         y="151.12914"
         id="text1"><tspan
           sodipodi:role="line"
           id="tspan1"
           x="0"
           y="0"
           style="font-style:normal;font-variant:normal;font-weight:normal;font-stretch:normal;font-family:'NewEng Rune';-inkscape-font-specification:'NewEng Rune';fill:#3a0043;fill-opacity:0.576471;stroke-width:11.4792"><tspan
   style="letter-spacing:-10px"
   id="tspan10">a</tspan><tspan
   style="letter-spacing:-5px"
   id="tspan12">b</tspan>Ч<tspan
   style="letter-spacing:-20px"
   id="tspan15">Þ</tspan>Ʞ<tspan
   style="letter-spacing:-5px"
   id="tspan9">Ŋ</tspan><tspan
   style="letter-spacing:-10px"
   id="tspan8">Ȣ</tspan><tspan
   style="letter-spacing:0px"
   id="tspan7">Φ</tspan></tspan></text>
      <text
         xml:space="preserve"
         style="font-size:98.4185px;text-align:end;writing-mode:lr-tb;direction:ltr;text-anchor:end;display:none;opacity:0.81;fill:#32003a;fill-opacity:1;stroke:#32003a;stroke-width:2;stroke-dasharray:none;stroke-opacity:1;paint-order:normal"
         x="502.13419"
         y="285.37479"
         id="text2"><tspan
           sodipodi:role="line"
           id="tspan2"
           x="0"
           y="0"
           style="font-style:normal;font-variant:normal;font-weight:bold;font-stretch:normal;font-family:'NewEng Rune';-inkscape-font-specification:'NewEng Rune';text-align:end;text-anchor:end;fill:#32003a;fill-opacity:1;stroke:#32003a;stroke-width:2;stroke-dasharray:none;stroke-opacity:1;paint-order:normal">Runic</tspan></text>
      <text
         xml:space="preserve"
         style="font-size:50.69px;line-height:0.92;text-align:start;writing-mode:lr-tb;direction:ltr;text-anchor:start;display:inline;opacity:1;fill:#3a0043;fill-opacity:0.576471;stroke-width:4.22417"
         x="39.951317"
         y="196.25102"
         id="text5"><tspan
           sodipodi:role="line"
           x="39.951317"
           y="196.25102"
           style="font-style:normal;font-variant:normal;font-weight:normal;font-stretch:normal;font-family:'NewEng Rune';-inkscape-font-specification:'NewEng Rune';fill:#3a0043;fill-opacity:0.576471;stroke-width:4.22417"
           id="tspan41">abcçdefφþðgȝhijkʞlm</tspan><tspan
           sodipodi:role="line"
           x="39.951317"
           y="243.52805"
           style="font-style:normal;font-variant:normal;font-weight:normal;font-stretch:normal;font-family:'NewEng Rune';-inkscape-font-specification:'NewEng Rune';fill:#3a0043;fill-opacity:0.576471;stroke-width:4.22417"
           id="tspan42">nԹŋopqrsʃ</tspan><tspan
           sodipodi:role="line"
           x="39.951317"
           y="290.80508"
           style="font-style:normal;font-variant:normal;font-weight:normal;font-stretch:normal;font-family:'NewEng Rune';-inkscape-font-specification:'NewEng Rune';fill:#3a0043;fill-opacity:0.576471;stroke-width:4.22417"
           id="tspan44">tчuȣvwxyz</tspan></text>
    </g>
    <g
       id="g38"
       inkscape:label="Vectors"
       transform="translate(-3.4533689,-4)"
       style="display:inline">
      <g
         id="g48">
        <path
           style="font-weight:bold;font-size:98.4185px;font-family:'NewEng Rune';-inkscape-font-specification:'NewEng Rune';text-align:end;text-anchor:end;opacity:0.81;fill:#32003a;stroke:#32003a;stroke-width:2"
           d="m 475.70172,212.18817 -23.62044,39.36741 0.88577,2.26362 23.62044,39.3674 6.3972,-2.26362 -0.68893,-2.26363 -22.53784,-37.49745 23.22677,-38.97373 -0.68893,-2.26362 z"
           id="path48" />
        <path
           style="font-weight:bold;font-size:98.4185px;font-family:'NewEng Rune';-inkscape-font-specification:'NewEng Rune';text-align:end;text-anchor:end;opacity:0.81;fill:#32003a;stroke:#32003a;stroke-width:2"
           d="m 433.34935,212.18817 v 78.73481 l 0.88577,2.26362 6.29878,-2.26362 v -78.73481 l -0.59051,-2.26362 z"
           id="path47" />
        <path
           style="font-weight:bold;font-size:98.4185px;font-family:'NewEng Rune';-inkscape-font-specification:'NewEng Rune';text-align:end;text-anchor:end;opacity:0.81;fill:#32003a;stroke:#32003a;stroke-width:2"
           d="m 388.31993,220.94742 24.30937,24.30937 v 45.66619 l 0.88576,2.26362 6.39721,-2.26362 V 243.6821 212.18817 l -0.68893,-2.26362 -6.59404,2.26362 v 22.63626 l -24.89988,-24.89988 -6.59404,2.26362 v 78.73481 l 0.88576,2.26362 6.29879,-2.26362 z"
           id="path46" />
        <path
           style="font-weight:bold;font-size:98.4185px;font-family:'NewEng Rune';-inkscape-font-specification:'NewEng Rune';text-align:end;text-anchor:end;opacity:0.81;fill:#32003a;stroke:#32003a;stroke-width:2"
           d="m 367.69829,290.92298 v -78.73481 l -0.68893,-2.26362 -6.59404,2.26362 v 62.98785 l -16.43589,10.92445 v -73.9123 l -0.59051,-2.26362 -6.59404,2.26362 v 78.73481 l 0.88576,2.26362 6.29879,-2.26362 16.43589,-10.92446 v 10.92446 l 0.88576,2.26362 z"
           id="path45" />
        <path
           id="path44"
           style="font-weight:bold;font-size:98.4185px;font-family:'NewEng Rune';-inkscape-font-specification:'NewEng Rune';text-align:end;text-anchor:end;opacity:0.81;fill:#32003a;stroke:#32003a;stroke-width:2"
           d="m 300.81441,209.924 -6.59375,2.26367 v 78.73438 l 0.88476,2.26367 6.29883,-2.26367 V 264.6447 l 17.32226,28.54102 6.39649,-2.26367 -0.6875,-2.26172 -22.53906,-37.40039 23.22656,-19.38868 -0.6875,-2.26367 z m 0.58984,10.03906 15.45312,12.69531 -15.45312,12.79493 z" />
      </g>
      <g
         id="text25"
         style="font-size:137.75px;fill:#3a0043;fill-opacity:0.576471;stroke-width:11.4792"
         aria-label="abЧÞꞰŊȢΦ"
         transform="translate(0,-4.7483823)">
        <path
           style="font-family:'NewEng Rune';-inkscape-font-specification:'NewEng Rune';letter-spacing:-10px"
           d="m 65.556874,65.586385 29.06525,77.691005 8.953746,-3.16825 C 92.280374,109.66639 80.847124,79.223635 69.551624,48.780885 l -9.22925,3.16825 -33.06,88.160005 1.23975,3.16825 8.816,-3.16825 z"
           id="path31" />
        <path
           style="font-family:'NewEng Rune';-inkscape-font-specification:'NewEng Rune';letter-spacing:-5px"
           d="M 107.2131,40.929135 V 151.12914 l 1.23975,3.16825 8.816,-3.16825 33.19775,-33.06 -0.96425,-3.16825 -32.2335,-32.095755 v -29.61625 l 21.90225,21.90225 -9.918,9.918 1.23975,3.16825 8.95375,-3.16825 11.02,-11.02 -0.96425,-3.16825 -33.06,-33.06 z M 117.26885,141.07339 V 97.268885 l 21.90225,21.902255 z"
           id="path32" />
        <path
           style="font-family:'NewEng Rune';-inkscape-font-specification:'NewEng Rune'"
           d="m 202.35737,40.929135 -0.96425,-3.16825 -9.22925,3.16825 v 44.08 L 169.15962,108.01339 V 62.969135 l -0.8265,-3.16825 -9.22925,3.16825 v 55.100005 l 1.23975,3.16825 8.816,-3.16825 23.00425,-23.004255 v 56.064255 l 1.23975,3.16825 8.95375,-3.16825 z"
           id="path33" />
        <path
           style="font-family:'NewEng Rune';-inkscape-font-specification:'NewEng Rune';letter-spacing:-20px"
           d="m 216.13231,40.929135 v 22.04 66.120005 22.04 l 1.23975,3.16825 8.816,-3.16825 v -22.04 l 33.19775,-33.060005 -0.96425,-3.16825 -32.2335,-32.09575 v -19.836 l -0.8265,-3.16825 z m 10.05575,78.104255 V 75.228885 l 21.90225,21.90225 z"
           id="path34" />
        <path
           style="font-family:'NewEng Rune';-inkscape-font-specification:'NewEng Rune'"
           d="m 286.22075,40.929135 v 42.7025 L 262.39,59.800885 l -9.22925,3.16825 1.23975,3.16825 30.71825,30.99375 -31.958,31.958005 1.23975,3.16825 8.816,-3.16825 23.00425,-23.00425 v 45.04425 l 1.23975,3.16825 8.95375,-3.16825 v -55.100005 -55.1 L 295.45,37.760885 Z"
           id="path35" />
        <path
           style="font-family:'NewEng Rune';-inkscape-font-specification:'NewEng Rune';letter-spacing:-5px"
           d="m 354.26919,87.213135 v 51.518505 l -34.02425,-33.8865 V 53.188885 Z m 10.1935,-2.204 v -44.08 l -0.96425,-3.16825 -9.22925,3.16825 v 31.6825 l -34.85075,-34.85075 -9.22925,3.16825 v 66.120005 44.08 l 1.23975,3.16825 8.816,-3.16825 v -31.82025 l 35.264,34.9885 8.95375,-3.16825 z"
           id="path36" />
        <path
           style="font-family:'NewEng Rune';-inkscape-font-specification:'NewEng Rune';letter-spacing:-10px"
           d="m 383.98212,117.10489 15.979,-28.101005 17.081,29.478505 -16.11675,24.244 z m 21.90225,-38.156755 21.62675,-38.019 -0.96425,-3.16825 -9.22925,3.16825 -16.53,29.06525 -18.32075,-32.2335 -9.22925,3.16825 1.23975,3.16825 20.52475,35.95275 -21.7645,38.019005 1.23975,3.16825 22.04,33.06 8.95375,-3.16825 22.04,-33.06 -0.96425,-3.16825 z"
           id="path37" />
        <path
           style="font-family:'NewEng Rune';-inkscape-font-specification:'NewEng Rune';letter-spacing:0px"
           d="m 464.34606,40.929135 v 22.04 l -33.06,33.06 1.23975,3.16825 31.82025,32.095755 v 19.836 l 1.23975,3.16825 8.95375,-3.16825 v -22.04 l 33.06,-33.060005 -0.96425,-3.16825 -32.09575,-32.09575 v -19.836 l -0.96425,-3.16825 z m 10.1935,78.104255 V 75.228885 l 21.7645,21.90225 z m -10.1935,-2.34175 -21.90225,-21.764505 21.90225,-21.90225 z"
           id="path38" />
      </g>
      <g
         id="text50"
         style="font-size:50.69px;line-height:0.92;fill:#3a0043;fill-opacity:0.576471;stroke-width:4.22417"
         transform="translate(10.703365)"
         aria-label="abcçdefφþðgȝhijkʞlm&#10;nԹŋopqrsʃ&#10;tчuȣvwxyz">
        <path
           style="font-family:'NewEng Rune';-inkscape-font-specification:'NewEng Rune'"
           d="m 56.577636,164.77253 10.69559,28.58916 3.29485,-1.16587 c -4.15658,-11.20249 -8.36385,-22.40498 -12.52043,-33.60747 l -3.39623,1.16587 -12.165599,32.4416 0.45621,1.16587 3.24416,-1.16587 z m 19.008744,-9.07351 v 40.552 l 0.45621,1.16587 3.24416,-1.16587 12.216289,-12.1656 -0.35483,-1.16587 -11.861459,-11.81077 v -10.89835 l 8.059709,8.05971 -3.649679,3.64968 0.45621,1.16587 3.294849,-1.16587 4.0552,-4.0552 -0.35483,-1.16587 -12.165599,-12.1656 z m 3.70037,36.85163 v -16.11942 l 8.059709,8.05971 z m 26.56158,-36.85163 -12.165602,20.276 0.45621,1.16587 12.165602,20.276 3.29485,-1.16587 -0.35483,-1.16587 -11.608012,-19.31289 11.962842,-20.07324 -0.35483,-1.16587 z m 20.93497,0 -12.1656,20.276 0.45621,1.16587 3.49761,5.82935 -3.95382,6.53901 0.45621,1.16587 3.09209,5.11969 3.24416,-1.16587 -0.35483,-1.26725 -2.48381,-4.15658 1.77415,-3.09209 6.89384,11.30387 3.29485,-1.16587 -0.35483,-1.16587 -8.1104,-13.53423 -3.49761,-5.77866 11.96284,-20.07324 -0.35483,-1.16587 z m 12.52041,40.552 12.21629,-20.276 -0.35483,-1.16587 -12.1656,-20.276 -3.39623,1.16587 0.45621,1.16587 11.60801,19.31289 -8.36385,13.83837 v -14.04113 l -0.30414,-1.16587 -3.39623,1.16587 v 20.276 l 0.45621,1.16587 z m 21.74601,-21.44187 11.40525,-19.11013 -0.35483,-1.16587 -3.39623,1.16587 -12.1656,20.276 0.45621,1.16587 12.1656,20.276 3.29485,-1.16587 -0.35483,-1.16587 -10.84766,-17.94426 h 7.90764 l 3.29485,-1.16587 -0.35483,-1.16587 z m 16.42357,-19.11013 v 12.1656 12.1656 16.2208 l 0.45621,1.16587 3.24416,-1.16587 v -16.2208 l 12.21629,-12.1656 -0.35483,-1.16587 -3.39623,1.16587 -8.46523,8.46523 v -8.46523 l 12.21629,-12.1656 -0.35483,-1.16587 -3.39623,1.16587 -8.46523,8.31316 v -8.31316 l -0.30414,-1.16587 z m 33.10058,0 v 8.1104 l -12.1656,12.1656 0.45621,1.16587 11.70939,11.81077 v 7.29936 l 0.45621,1.16587 3.29485,-1.16587 v -8.1104 l 12.1656,-12.1656 -0.35483,-1.16587 -11.81077,-11.81077 v -7.29936 l -0.35483,-1.16587 z m 3.75106,28.74123 v -16.11942 l 8.00902,8.05971 z m -3.75106,-0.86173 -8.05971,-8.00902 8.05971,-8.05971 z m 20.98562,-27.8795 v 8.1104 24.3312 8.1104 l 0.45621,1.16587 3.24416,-1.16587 v -8.1104 l 12.21629,-12.1656 -0.35483,-1.16587 -11.86146,-11.81077 v -7.29936 l -0.30414,-1.16587 z m 3.70037,28.74123 v -16.11942 l 8.05971,8.05971 z m 25.04084,11.81077 12.21629,-20.276 -0.35483,-1.16587 -12.1656,-20.276 -3.39623,1.16587 0.45621,1.16587 11.60801,19.31289 -8.36385,13.83837 v -12.87526 h 0.81104 l 3.29485,-1.16587 -0.35483,-1.16587 h -4.0552 -4.0552 l -3.39623,1.16587 0.45621,1.16587 h 3.59899 v 19.11013 l 0.45621,1.16587 z m 29.45086,-40.552 -12.1656,20.276 0.45621,1.16587 12.1656,20.276 3.29485,-1.16587 12.1656,-20.276 -0.35483,-1.16587 h -12.1656 l -3.39623,1.16587 0.45621,1.16587 h 11.05042 l -9.47903,15.7139 -10.23938,-17.08253 11.96284,-20.07324 -0.35483,-1.16587 z m 25.04086,15.76459 11.81077,-15.76459 -0.35483,-1.16587 h -12.1656 l -3.39623,1.16587 0.45621,1.16587 h 10.79697 l -11.25318,15.05493 0.45621,1.16587 11.30387,11.40525 -11.76008,11.76008 0.45621,1.16587 3.24416,-1.16587 12.21629,-12.1656 -0.35483,-1.16587 z m 16.87974,-15.76459 v 8.1104 8.1104 24.3312 l 0.45621,1.16587 3.24416,-1.16587 V 175.5695 l 12.52043,9.42834 v 11.25318 l 0.45621,1.16587 3.29485,-1.16587 v -12.1656 -8.1104 -20.276 l -0.35483,-1.16587 -3.39623,1.16587 v 16.57563 L 335.37253,162.897 v -7.19798 l -0.30414,-1.16587 z m 3.70037,11.76008 12.52043,9.42834 v 3.49761 l -12.52043,-9.37765 z m 21.2898,-11.76008 v 40.552 l 0.45621,1.16587 3.24416,-1.16587 v -40.552 l -0.30414,-1.16587 z m 20.93498,33.81023 -8.76937,-14.7001 -3.39623,1.16587 0.45621,1.16587 12.1656,20.276 3.29485,-1.16587 v -40.552 l -0.35483,-1.16587 -3.39623,1.16587 z m 12.46977,6.74177 v -15.76459 l 8.92144,8.82006 3.29485,-1.16587 -0.35483,-1.16587 -11.45594,-11.40525 11.81077,-11.76008 -0.35483,-1.16587 -3.39623,1.16587 -8.46523,8.46523 v -16.57563 l -0.30414,-1.16587 -3.39623,1.16587 v 20.276 20.276 l 0.45621,1.16587 z m 29.40019,-40.552 v 15.7139 l -8.76937,-8.76937 -3.39623,1.16587 0.45621,1.16587 11.30387,11.40525 -11.76008,11.76008 0.45621,1.16587 3.24416,-1.16587 8.46523,-8.46523 v 16.57563 l 0.45621,1.16587 3.29485,-1.16587 v -20.276 -20.276 l -0.35483,-1.16587 z m 8.82003,40.552 0.45621,1.16587 3.24416,-1.16587 12.21629,-20.276 -0.35483,-1.16587 -3.39623,1.16587 -8.46523,14.04113 v -34.31713 l -0.30414,-1.16587 -3.39623,1.16587 z m 45.26617,-27.77812 -7.70488,-5.17038 7.70488,-5.11969 z m 0,4.35934 v 23.41878 l 0.45621,1.16587 3.29485,-1.16587 v -24.3312 -16.2208 l -0.35483,-1.16587 -3.39623,1.16587 -9.58041,6.43763 -11.35456,-7.6035 -3.39623,1.16587 v 16.2208 24.3312 l 0.45621,1.16587 3.24416,-1.16587 v -24.3312 l 9.6311,-6.43763 z m -20.63083,-3.44692 v -10.23938 l 7.80626,5.11969 z"
           id="path50" />
        <path
           style="font-family:'NewEng Rune';-inkscape-font-specification:'NewEng Rune'"
           d="m 46.186187,207.48746 12.520429,12.52043 v 23.52016 l 0.45621,1.16587 3.29485,-1.16587 v -24.3312 -16.2208 l -0.35483,-1.16587 -3.39623,1.16587 v 11.6587 l -12.824569,-12.82457 -3.39623,1.16587 v 40.552 l 0.45621,1.16587 3.24416,-1.16587 z m 41.261661,-4.51141 -0.35483,-1.16587 -3.39623,1.16587 -12.52043,12.52043 v -12.52043 l -0.30414,-1.16587 -3.39623,1.16587 v 16.2208 24.3312 l 0.45621,1.16587 3.24416,-1.16587 v -24.3312 l 12.52043,-12.52043 v 12.52043 l -12.1656,12.1656 0.45621,1.16587 12.1656,12.1656 3.29485,-1.16587 z m -11.81077,27.98088 8.05971,-8.05971 v 16.06873 z m 33.100542,-10.94904 v 18.95806 L 96.217193,226.49621 v -19.00875 z m 3.75106,-0.81104 v -16.2208 l -0.35483,-1.16587 -3.39623,1.16587 v 11.6587 l -12.824567,-12.82457 -3.39623,1.16587 v 24.3312 16.2208 l 0.45621,1.16587 3.24416,-1.16587 v -11.70939 l 12.976637,12.87526 3.29485,-1.16587 z m 14.85214,-5.01831 6.28556,9.27627 -5.88004,8.87075 -6.23486,-9.42834 z m -9.78316,9.07351 0.45621,1.16587 8.11039,12.1656 3.29485,-1.16587 8.1104,-12.1656 -0.35483,-1.16587 -8.1104,-12.1656 -3.39623,1.16587 z m 24.99017,20.276 0.45621,1.16587 3.24416,-1.16587 v -16.2208 l 12.21629,-12.1656 -0.35483,-1.16587 -12.1656,-12.1656 -3.39623,1.16587 z m 11.76008,-27.98088 -8.05971,8.05971 v -16.11942 z m 21.7967,29.14675 3.29485,-1.16587 12.16559,-20.276 -0.35483,-1.16587 -12.16559,-20.276 -3.39623,1.16587 -12.1656,20.276 0.45621,1.16587 z m -8.66799,-21.64463 9.88455,-16.67701 10.39144,17.08253 -8.31315,13.83837 v -14.04113 l -0.35483,-1.16587 -3.39623,1.16587 v 13.53423 z m 29.14675,-20.07324 v 40.552 l 0.45621,1.16587 3.24416,-1.16587 v -13.53423 l 8.92144,14.7001 3.29485,-1.16587 -0.35483,-1.16587 -11.60801,-19.2622 11.96284,-9.98593 -0.35483,-1.16587 -12.1656,-10.138 z m 11.6587,10.54352 -7.95833,6.5897 v -13.12871 z m 21.44186,-10.54352 -12.1656,12.1656 0.45621,1.16587 11.40525,15.25769 -11.86146,11.96284 0.45621,1.16587 3.24416,-1.16587 12.21629,-12.1656 -0.35483,-1.16587 -11.50663,-15.40976 11.86146,-11.81077 -0.35483,-1.16587 z m 13.12873,1.16587 h 8.26247 l 3.29485,-1.16587 -0.35483,-1.16587 h -12.1656 l -3.39623,1.16587 0.45621,1.16587 7.65419,19.16082 -8.1104,20.22531 0.45621,1.16587 h 12.1656 l 3.29485,-1.16587 -0.35483,-1.16587 h -11.35456 l 7.65419,-19.11013 -0.35483,-1.16587 z"
           id="path51" />
        <path
           style="font-family:'NewEng Rune';-inkscape-font-specification:'NewEng Rune'"
           d="m 53.992446,249.08721 -3.396229,1.16587 -8.1104,8.11039 0.45621,1.16587 3.24416,-1.16587 4.41003,-4.41003 v 36.85163 l 0.45621,1.16587 3.294849,-1.16587 v -36.04059 l 4.81555,4.76486 3.29485,-1.16587 -0.35483,-1.16587 z m 29.400202,1.16587 -0.35483,-1.16587 -3.39623,1.16587 v 16.22079 l -8.46523,8.46523 v -16.57563 l -0.30414,-1.16587 -3.39623,1.16587 v 20.276 l 0.45621,1.16587 3.24416,-1.16587 8.46523,-8.46523 v 20.63083 l 0.45621,1.16587 3.29485,-1.16587 z m 20.985632,40.55199 v -40.55199 l -0.35483,-1.16587 -3.39623,1.16587 v 32.44159 l -8.465226,5.62659 v -38.06818 l -0.30414,-1.16587 -3.39623,1.16587 v 40.55199 l 0.45621,1.16587 3.24416,-1.16587 8.465226,-5.62659 v 5.62659 l 0.45621,1.16587 z m 8.97214,-12.52043 5.88004,-10.34076 6.28556,10.84766 -5.93073,8.92144 z m 8.05971,-14.04113 7.95833,-13.99043 -0.35483,-1.16587 -3.39623,1.16587 -6.0828,10.69558 -6.74177,-11.86145 -3.39623,1.16587 0.45621,1.16587 7.55281,13.23008 -8.00902,13.99044 0.45621,1.16587 8.1104,12.1656 3.29485,-1.16587 8.1104,-12.1656 -0.35483,-1.16587 z m 13.48351,-12.82456 16.2208,40.55199 3.29485,-1.16587 v -40.55199 l -0.35483,-1.16587 -3.39623,1.16587 v 30.97158 l -12.82457,-32.13745 -3.39623,1.16587 z m 24.53396,39.38612 0.45621,1.16587 3.24416,-1.16587 9.6311,-6.43763 11.45594,7.6035 3.29485,-1.16587 v -40.55199 l -0.35483,-1.16587 -3.39623,1.16587 v 37.10507 l -8.76937,-5.82935 -3.39623,1.16587 -8.46523,5.62659 v -21.84739 l 8.16109,-8.1104 -0.35483,-1.16587 -8.1104,-8.11039 -3.39623,1.16587 z m 7.70488,-32.03608 -4.00451,4.00451 v -8.00902 z m 25.85191,-7.35004 7.65418,19.16081 -8.11039,20.22531 0.45621,1.16587 3.24416,-1.16587 6.28555,-15.56183 6.69108,16.7277 3.29485,-1.16587 -0.35483,-1.16587 -7.75557,-19.16082 8.1104,-20.2253 -0.35483,-1.16587 -3.39623,1.16587 -6.18418,15.56182 -6.64038,-16.72769 -3.39623,1.16587 z m 34.72263,7.90763 -6.79246,-10.23937 -3.39623,1.16587 0.45621,1.16587 7.65419,11.50662 v 27.8795 l 0.45621,1.16587 3.29485,-1.16587 v -28.3864 l 8.1104,-12.16559 -0.35483,-1.16587 -3.39623,1.16587 z m 22.91189,31.47849 0.45621,1.16587 3.29485,-1.16587 8.1104,-8.1104 -0.35483,-1.16587 -3.39623,1.16587 -4.35934,4.41003 v -36.85162 l -0.35483,-1.16587 -3.39623,1.16587 -8.1104,8.11039 0.45621,1.16587 3.24416,-1.16587 4.41003,-4.41003 z"
           id="path52" />
      </g>
    </g>
  </g>
</svg>
