<?xml version="1.0" encoding="UTF-8" standalone="no"?>
<!-- Created with Inkscape (http://www.inkscape.org/) -->

<svg
   version="1.1"
   id="svg1"
   width="495"
   height="280"
   viewBox="0 0 495 280"
   sodipodi:docname="Hangeulic Font Cover landscape.svg"
   inkscape:version="1.4 (86a8ad7, 2024-10-11)"
   inkscape:export-filename="Font Cover landscape.png"
   inkscape:export-xdpi="96"
   inkscape:export-ydpi="96"
   xmlns:inkscape="http://www.inkscape.org/namespaces/inkscape"
   xmlns:sodipodi="http://sodipodi.sourceforge.net/DTD/sodipodi-0.dtd"
   xmlns="http://www.w3.org/2000/svg"
   xmlns:svg="http://www.w3.org/2000/svg">
  <defs
     id="defs1">
    <rect
       x="198.13704"
       y="58.2756"
       width="26.763609"
       height="44.893795"
       id="rect14" />
    <rect
       x="142.88313"
       y="45.325466"
       width="116.98287"
       height="137.27142"
       id="rect11" />
  </defs>
  <sodipodi:namedview
     id="namedview1"
     pagecolor="#ffffff"
     bordercolor="#000000"
     borderopacity="0.25"
     inkscape:showpageshadow="2"
     inkscape:pageopacity="0.0"
     inkscape:pagecheckerboard="0"
     inkscape:deskcolor="#d1d1d1"
     inkscape:zoom="2.0267851"
     inkscape:cx="291.8415"
     inkscape:cy="167.50666"
     inkscape:window-width="1920"
     inkscape:window-height="1009"
     inkscape:window-x="-8"
     inkscape:window-y="-8"
     inkscape:window-maximized="1"
     inkscape:current-layer="g38"
     showguides="false" />
  <g
     inkscape:groupmode="layer"
     inkscape:label="Image"
     id="g1"
     transform="translate(-19.645168,-21.043139)">
    <rect
       style="display:inline;opacity:1;fill:#ffffff;fill-opacity:0.578313"
       id="rect3"
       width="495.00003"
       height="279.99997"
       x="19.855019"
       y="20.665426"
       sodipodi:insensitive="true" />
    <rect
       style="opacity:0.861111;fill:#88009b;fill-opacity:1;stroke-width:0.999998"
       id="rect1"
       width="495.00003"
       height="280"
       x="19.645168"
       y="21.043139"
       inkscape:label="Background"
       sodipodi:insensitive="true" />
    <g
       id="g39"
       inkscape:label="Texts"
       transform="translate(7.2499965,-4)"
       style="display:none">
      <text
         xml:space="preserve"
         style="font-size:115.436px;text-align:start;writing-mode:lr-tb;direction:ltr;text-anchor:start;display:inline;opacity:1;fill:#3a0043;fill-opacity:0.576471;stroke-width:9.61967"
         x="259.8952"
         y="133.98343"
         id="text1"><tspan
           sodipodi:role="line"
           id="tspan1"
           x="257.80017"
           y="133.98343"
           style="font-style:normal;font-variant:normal;font-weight:800;font-stretch:normal;font-family:'NewEng Hangeul';-inkscape-font-specification:'NewEng Hangeul Ultra-Bold';text-align:center;text-anchor:middle;fill:#3a0043;fill-opacity:0.576471;stroke-width:9.61967">AB<tspan
   style="font-style:normal;font-variant:normal;font-weight:800;font-stretch:normal;font-family:'NewEng Hangeul';-inkscape-font-specification:'NewEng Hangeul Ultra-Bold';text-align:center;letter-spacing:-4.19006px;text-anchor:middle;stroke-width:9.61967"
   id="tspan9">Φȝ</tspan></tspan></text>
      <text
         xml:space="preserve"
         style="font-size:46.271px;text-align:end;letter-spacing:2px;writing-mode:lr-tb;direction:ltr;text-anchor:end;display:inline;opacity:0.81;fill:#32003a;fill-opacity:1;stroke:#32003a;stroke-width:0.94029;stroke-dasharray:none;stroke-opacity:1;paint-order:normal"
         x="259.8952"
         y="294.17673"
         id="text2"><tspan
           sodipodi:role="line"
           x="260.8952"
           y="294.17673"
           style="font-style:normal;font-variant:normal;font-weight:normal;font-stretch:normal;font-family:'NewEng Hangeul';-inkscape-font-specification:'NewEng Hangeul';text-align:center;letter-spacing:2px;text-anchor:middle;fill:#32003a;fill-opacity:1;stroke:none;stroke-width:0.94029;stroke-dasharray:none;stroke-opacity:1;paint-order:normal"
           id="tspan100">Hangeulic</tspan></text>
      <text
         xml:space="preserve"
         style="font-style:normal;font-variant:normal;font-weight:normal;font-stretch:normal;font-size:28.6887px;line-height:1;font-family:TallThin;-inkscape-font-specification:TallThin;text-align:end;letter-spacing:5px;writing-mode:lr-tb;direction:ltr;text-anchor:end;opacity:0.861111;fill:#3a0043;fill-opacity:0.576471;stroke:none;stroke-width:0.860659;stroke-dasharray:none;stroke-opacity:1;paint-order:normal"
         x="261.39517"
         y="185.13052"
         id="text56"><tspan
           sodipodi:role="line"
           x="261.39517"
           y="185.13052"
           style="font-style:normal;font-variant:normal;font-weight:normal;font-stretch:normal;line-height:1;font-family:'NewEng Hangeul';-inkscape-font-specification:'NewEng Hangeul';text-align:center;letter-spacing:5px;text-anchor:middle;fill:#3a0043;fill-opacity:0.576471;stroke-width:0.860659"
           id="tspan103">abcçdefφþðgȝh</tspan><tspan
           sodipodi:role="line"
           x="261.39517"
           y="213.81923"
           style="font-style:normal;font-variant:normal;font-weight:normal;font-stretch:normal;line-height:1;font-family:'NewEng Hangeul';-inkscape-font-specification:'NewEng Hangeul';text-align:center;letter-spacing:5px;text-anchor:middle;fill:#3a0043;fill-opacity:0.576471;stroke-width:0.860659"
           id="tspan104">ƕijkʞlmnԹŋoꝏp</tspan><tspan
           sodipodi:role="line"
           x="263.89517"
           y="242.50792"
           style="font-style:normal;font-variant:normal;font-weight:normal;font-stretch:normal;line-height:1;font-family:'NewEng Hangeul';-inkscape-font-specification:'NewEng Hangeul';text-align:center;letter-spacing:5px;text-anchor:middle;fill:#3a0043;fill-opacity:0.576471;stroke-width:0.860659"
           id="tspan102">qrsʃtчuȣvwxyz</tspan></text>
    </g>
    <g
       id="g38"
       inkscape:label="Vectors"
       transform="translate(-3.4533689,-4)"
       style="display:inline"
       sodipodi:insensitive="true">
      <g
         id="text3"
         style="font-size:115.436px;fill:#3a0043;fill-opacity:0.576471;stroke-width:9.61967"
         transform="translate(10.703365)"
         aria-label="ABΦȝ">
        <path
           style="font-weight:800;font-family:'NewEng Hangeul';-inkscape-font-specification:'NewEng Hangeul Ultra-Bold';text-align:center;text-anchor:middle"
           d="M 46.875074,127.63445 V 103.39289 H 99.744761 L 105.632,98.429142 v 42.018698 l 4.73287,5.7718 22.16371,-18.58519 V 41.980939 l -4.84831,-5.7718 H 52.76231 l -6.34898,5.310056 -4.386567,-5.310056 -22.048276,18.585196 v 85.653505 l 4.732876,5.7718 z m 0,-67.068315 H 105.632 V 79.035894 H 52.76231 l -5.887236,4.963748 z m 97.197206,-5.7718 v 85.653505 l 4.73287,5.7718 6.34898,-5.31005 4.38657,5.31005 h 64.29785 l 6.23354,-5.31005 4.38657,5.31005 22.16371,-18.58519 V 84.807694 l -4.84831,-5.7718 h -22.51002 l 5.88724,-4.963747 V 41.980939 l -4.73288,-5.7718 h -53.5623 l -6.34898,5.310056 -4.38657,-5.310056 z m 26.89658,5.7718 h 37.28583 V 79.035894 H 176.8561 l -5.88724,4.963748 z m 0,42.826755 h 58.75693 v 18.46976 H 176.8561 l -5.88724,4.96375 z"
           id="path10" />
        <path
           style="font-weight:800;font-family:'NewEng Hangeul';-inkscape-font-specification:'NewEng Hangeul Ultra-Bold';text-align:center;letter-spacing:-4.19006px;text-anchor:middle"
           d="m 310.99282,44.058787 v 13.621448 h -20.77848 l -22.04828,18.469759 v 42.826756 l 4.73288,5.7718 h 38.09388 v 26.43484 l 4.73287,5.7718 22.16372,-18.58519 v -13.62145 h 20.66304 l 22.16371,-18.46976 V 63.336599 l -4.84831,-5.656364 H 337.88941 V 31.245392 l -4.84832,-5.7718 z m 0,37.863007 V 100.50699 H 295.06265 V 81.921794 Z m 26.89659,0 h 15.93016 V 100.50699 H 337.88941 Z M 472.91525,60.566135 v 12.813396 l -7.04159,5.771799 H 434.5905 l -22.04827,18.585196 4.73287,5.771804 h 31.28316 C 465.64279,89.194262 482.72731,74.995634 499.81184,60.681571 V 41.980939 l -4.84831,-5.7718 h -84.84546 l -22.04827,18.585196 4.73287,5.7718 z m -80.11258,85.653505 h 55.64015 c 17.19997,-14.31406 34.28449,-28.62812 51.36902,-42.94219 V 84.92313 l -4.84831,-5.7718 h -11.5436 l -22.04828,18.585196 4.73288,5.771804 h 6.69529 v 12.46708 l -7.0416,5.88724 h -55.64015 l -22.04827,18.58519 z"
           id="path11" />
      </g>
      <path
         style="font-size:46.271px;font-family:'NewEng Hangeul';-inkscape-font-specification:'NewEng Hangeul';text-align:center;letter-spacing:2px;text-anchor:middle;opacity:0.81;fill:#32003a;stroke-width:0.94029"
         d="m 30.372632,262.43482 v 34.33308 l 1.897111,2.31355 8.884032,-7.44963 v -9.71691 h 21.192118 l 2.359821,-1.98965 v 16.84264 l 1.897111,2.31355 8.884032,-7.44963 v -34.33308 l -1.943382,-2.31355 -8.837761,7.44963 v 9.71691 H 43.513596 l -2.359821,1.98965 v -16.84264 l -1.943382,-2.31355 z m 62.522502,29.197 v -9.71691 h 21.192116 l 2.35982,-1.98965 v 16.84264 l 1.89711,2.31355 8.88404,-7.44963 v -34.33308 l -1.94339,-2.31355 H 95.254955 l -2.544905,2.12847 -1.758298,-2.12847 -8.837761,7.44963 v 34.33308 l 1.897111,2.31355 z m 0,-26.88345 h 23.551936 v 7.40336 H 95.254955 l -2.359821,1.98965 z m 40.960216,-2.31355 v 34.33308 l 1.89711,2.31355 8.88403,-7.44963 v -18.04569 l 21.19212,21.19212 2.35982,-1.98965 v 3.9793 l 1.89711,2.31355 8.88404,-7.44963 v -34.33308 l -1.94339,-2.31355 -8.83776,7.44963 v 18.04569 l -21.19211,-21.19212 -2.35983,1.98966 v -3.97931 l -1.94338,-2.31355 z m 53.82355,2.31355 h 0.27763 l -2.35982,1.98965 v 30.02988 l 1.89711,2.31355 h 34.33308 l 8.88403,-7.44963 -1.94338,-2.31355 h -0.41644 l 2.35982,-1.98965 v -12.86334 l -1.94338,-2.31355 h -17.16654 l -8.83776,7.44963 1.89711,2.31355 h 15.26943 v 7.40336 h -23.55194 v -24.5699 h 25.44905 l 8.88403,-7.44963 -1.94338,-2.31355 h -34.148 l -8.88403,7.44963 z m 51.55628,0 h 0.46271 l -2.35982,1.98965 v 30.02988 l 1.89711,2.31355 h 34.33308 l 8.88404,-7.44963 -1.94339,-2.31355 h -32.3897 v -7.40336 h 16.88892 l 8.83776,-7.44963 -1.89711,-2.31355 h -21.93246 l -1.89711,1.61949 v -9.02285 h 25.44905 l 8.88404,-7.44963 -1.94339,-2.31355 h -34.33308 l -8.83776,7.44963 z m 49.84424,-2.31355 v 34.33308 l 1.89711,2.31355 h 30.07615 l 2.49863,-2.12846 1.7583,2.12846 8.88403,-7.44963 v -34.33308 l -1.94338,-2.31355 -8.83776,7.44963 v 26.88345 h -23.55194 v -32.01953 l -1.94338,-2.31355 z m 51.74136,0 v 34.33308 l 1.89711,2.31355 h 34.33309 l 8.88403,-7.44963 -1.94338,-2.31355 h -32.3897 v -32.01953 l -1.94339,-2.31355 z m 53.63848,2.31355 h 17.30535 l -2.12847,1.7583 v 22.8116 h -8.23623 l -8.83776,7.44963 1.89711,2.31355 h 34.33308 l 8.88403,-7.44963 -1.94338,-2.31355 h -17.62925 l 2.35982,-1.98965 v -22.58025 h 8.32878 l 8.88403,-7.44963 -1.94338,-2.31355 h -34.33308 l -8.83776,7.44963 z m 51.74136,0 h 0.46271 l -2.35982,1.98965 v 30.02988 l 1.89711,2.31355 h 34.33308 l 8.88403,-7.44963 -1.94338,-2.31355 h -32.3897 v -24.5699 h 25.44905 l 8.88403,-7.44963 -1.94338,-2.31355 h -34.33308 l -8.83776,7.44963 z"
         id="text4"
         transform="translate(10.703365)"
         aria-label="Hangeulic" />
      <g
         id="text7"
         style="font-size:28.6887px;line-height:1;font-family:TallThin;-inkscape-font-specification:TallThin;text-align:end;letter-spacing:5px;text-anchor:end;opacity:0.861111;fill:#3a0043;fill-opacity:0.576471;stroke-width:0.860659"
         transform="translate(10.703365)"
         aria-label="abcçdefφþðgȝh&#10;ƕijkʞlmnԹŋoꝏp&#10;qrsʃtчuȣvwxyz">
        <path
           style="font-family:'NewEng Hangeul';-inkscape-font-specification:'NewEng Hangeul';text-align:center;text-anchor:middle"
           d="m 36.02092,183.55265 v -6.02463 h 13.139424 l 1.463124,-1.23362 v 10.44269 l 1.176236,1.43444 5.508231,-4.61888 V 162.26563 L 56.103009,160.8312 H 37.484043 l -1.577878,1.31968 -1.090171,-1.31968 -5.479541,4.61888 v 21.28701 l 1.176236,1.43444 z m 0,-16.66814 h 14.602548 v 4.59019 H 37.484043 l -1.463123,1.23362 z m 29.155907,-1.43443 v 21.28701 l 1.176236,1.43444 1.577879,-1.31968 1.09017,1.31968 h 15.979606 l 1.54919,-1.31968 1.09017,1.31968 5.508231,-4.61888 v -10.64351 l -1.204926,-1.43444 h -5.594296 l 1.463124,-1.23361 v -7.97546 L 86.635974,160.8312 H 73.324417 l -1.577878,1.31968 -1.090171,-1.31968 z m 6.684467,1.43443 h 9.26645 v 4.59019 h -7.803327 l -1.463123,1.23362 z m 0,10.64351 h 14.602548 v 4.59019 H 73.324417 l -1.463123,1.23361 z m 30.332146,-10.64351 h 0.28688 l -1.46312,1.23361 v 18.61897 l 1.17624,1.43444 h 21.28701 l 5.50823,-4.61888 -1.20492,-1.43444 h -20.08209 v -15.2337 h 15.77878 l 5.50823,-4.61888 -1.20492,-1.43443 h -21.28702 l -5.47954,4.61888 z m 35.84037,0 h 0.28688 l -1.46312,1.23361 v 8.00415 l 1.17624,1.43444 h 18.10257 l -4.61888,3.84428 v 0.71722 h -5.22135 l -5.47954,4.61888 1.20493,1.43444 h 10.70088 l 5.50823,-4.61888 v -5.30741 l -0.57377,-0.68853 h 1.66394 l 5.50823,-4.61888 -1.20492,-1.43444 h -20.08209 v -4.61888 h 15.77878 l 5.50823,-4.61888 -1.20492,-1.43443 h -21.28702 l -5.47954,4.61888 z m 34.66414,-1.43443 v 21.28701 l 1.17624,1.43444 1.57787,-1.31968 1.09017,1.31968 h 15.97961 l 1.54919,-1.31968 1.09017,1.31968 5.50823,-4.61888 v -15.97961 l -1.20492,-1.40575 -5.30741,-5.33609 h -13.31156 l -1.57788,1.31968 -1.09017,-1.31968 z m 6.68447,1.43443 h 10.47137 l 4.13117,4.10248 v 11.13122 h -13.13942 l -1.46312,1.23361 z m 30.33214,0 h 0.28689 l -1.46312,1.23361 v 18.61897 l 1.17623,1.43444 h 21.28702 l 5.50823,-4.61888 -1.20493,-1.43444 h -20.08209 v -4.59019 h 10.47138 l 5.47954,-4.61888 -1.17624,-1.43444 h -13.59844 l -1.17624,1.00411 v -5.5943 h 15.77879 l 5.50823,-4.61888 -1.20493,-1.43443 h -21.28701 l -5.47954,4.61888 z m 41.3486,10.64351 h 10.47137 l 5.47954,-4.61888 -1.17623,-1.43444 h -13.31156 l -1.46312,1.23362 v -5.82381 h 15.77878 l 5.50823,-4.61888 -1.20492,-1.43443 h -21.28702 l -5.47954,4.61888 1.17624,1.43443 h 0.28688 l -1.46312,1.23361 v 18.61897 l 1.17624,1.43444 5.50823,-4.61888 z m 39.79941,-14.74599 v 3.38526 h -5.16396 l -5.47954,4.5902 v 10.6435 l 1.17623,1.43444 h 9.46727 v 6.56971 l 1.17624,1.43443 5.50823,-4.61888 v -3.38526 h 5.13528 l 5.50823,-4.59019 v -10.6722 l -1.20493,-1.40575 h -9.43858 v -6.56971 l -1.20492,-1.43443 z m 0,9.40989 v 4.61888 h -3.95904 v -4.61888 z m 6.68447,0 h 3.95904 v 4.61888 h -3.95904 z m 18.5124,-6.74184 v 21.28701 l 1.17624,1.43444 5.50823,-4.61888 v -1.43444 h 13.13943 l 1.63525,-1.37706 1.14755,1.37706 5.50823,-4.59019 v -9.23776 l -1.20493,-1.43444 h -18.7624 l -1.46313,1.23362 v -5.82381 l -1.20492,-1.43443 z m 6.68447,7.43037 h 14.74599 v 3.21313 h -13.28286 l -1.46313,1.23362 z m 30.36081,1.7787 v 12.07794 l 1.20493,1.43444 1.57788,-1.31968 1.09017,1.31968 h 15.80747 c 0.94673,-0.80329 1.89345,-1.57788 2.84018,-2.38117 v 0 l 5.50823,-4.59019 v -13.62713 l -1.20492,-1.43444 -5.3361,-5.3074 H 361.281 l -1.57788,1.31968 -1.09017,-1.31968 -5.50823,4.61888 v 3.15575 h 1.03279 l -5.47954,4.61888 1.17624,1.43444 z m 6.71316,-7.77464 h 10.47137 l 4.13118,4.10248 v 11.13122 H 361.281 l -1.46312,1.23361 v -8.69267 h 2.46723 l 5.47954,-4.61888 -1.20493,-1.43444 h -6.74184 z m 30.47558,0 h 0.17213 l -1.46312,1.23361 v 18.61897 l 1.17623,1.43444 h 21.28702 l 5.50823,-4.61888 -1.20493,-1.43444 h -0.25819 l 1.46312,-1.23361 v -7.97546 l -1.20493,-1.43444 h -10.6435 l -5.47954,4.61888 1.17623,1.43444 h 9.46727 v 4.59019 h -14.60254 v -15.2337 h 15.77878 l 5.50823,-4.61888 -1.20493,-1.43443 h -21.17226 l -5.50823,4.61888 z m 55.63556,0 v 3.18445 l -1.75001,1.43443 h -7.77463 l -5.47954,4.61888 1.17623,1.43444 h 7.77464 c 4.24593,-3.5574 8.49185,-7.08611 12.73778,-10.64351 v -4.64757 l -1.20492,-1.43443 h -21.0862 l -5.47954,4.61888 1.17624,1.43443 z m -19.90995,21.28702 h 13.82795 c 4.27462,-3.5574 8.52054,-7.1148 12.76647,-10.6722 v -4.5615 l -1.20492,-1.43444 h -2.86887 l -5.47954,4.61888 1.17623,1.43444 h 1.66395 v 3.09838 l -1.75001,1.46312 h -13.82796 l -5.47954,4.61888 z m 34.46332,-22.72145 v 21.28701 l 1.17623,1.43444 5.50823,-4.61888 v -6.02463 h 13.13943 l 1.46312,-1.23362 v 10.44269 l 1.17624,1.43444 5.50823,-4.61888 v -21.28702 l -1.20493,-1.43443 -5.47954,4.61888 v 6.02462 h -13.13942 l -1.46313,1.23362 v -10.44269 l -1.20492,-1.43443 z"
           id="path7" />
        <path
           style="font-family:'NewEng Hangeul';-inkscape-font-specification:'NewEng Hangeul';text-align:center;text-anchor:middle"
           d="m 31.660219,194.13878 v 21.28701 l 1.176237,1.43444 5.50823,-4.61889 v -6.02462 h 2.467228 l 1.463124,-1.23362 v 10.44269 l 1.204926,1.43444 h 7.946769 l 1.577879,-1.34837 1.147548,1.34837 5.479541,-4.61889 v -15.9796 l -1.204925,-1.43444 -5.479542,4.61888 v 11.36073 h -3.987729 v -16.84027 l -1.204925,-1.43443 -5.479542,4.61888 v 3.01231 H 39.80781 l -1.463124,1.23362 v -10.44269 l -1.204925,-1.43444 z m 37.016611,1.43443 h 10.729574 l -1.319681,1.09017 v 14.14353 h -5.106588 l -5.479542,4.61888 1.176237,1.43444 h 21.287015 l 5.50823,-4.61889 -1.204925,-1.43443 H 83.336755 l 1.463124,-1.23361 v -14.00009 h 5.163966 l 5.50823,-4.61888 -1.204925,-1.43444 H 72.980135 l -5.479542,4.61889 z m 35.84037,0 h 10.9304 l -1.46313,1.23361 v 14.00009 h -3.95904 v -3.87297 l -1.20492,-1.43444 -5.47954,4.59019 v 5.3361 l 1.17623,1.43444 h 8.00415 l 1.54919,-1.31968 1.09017,1.31968 5.50823,-4.61889 v -16.66813 h 5.13528 l 5.50823,-4.61888 -1.20493,-1.43444 h -21.28701 l -5.47954,4.61889 z m 49.66833,-2.0369 -6.62709,6.62709 h -3.61477 l -1.46313,1.23362 v -10.44269 l -1.20492,-1.43444 -5.47954,4.61889 v 21.28701 l 1.17623,1.43444 5.50823,-4.61889 v -6.02462 h 9.98367 l 4.61888,9.20907 1.17624,1.43444 5.50823,-4.61889 -5.3361,-10.6435 -1.17624,-1.43444 h -4.99183 l 1.09017,-0.63115 7.97546,-7.97546 -0.91804,-1.60656 z m 27.00425,19.3075 6.65578,-6.62709 h 3.61478 l 1.46312,-1.23362 v 10.44269 l 1.17624,1.43444 5.50823,-4.61889 v -21.28701 l -1.20493,-1.43444 -5.47954,4.61889 v 6.02462 h -10.01235 l -4.5902,-9.20907 -1.20492,-1.43444 -5.47954,4.61889 5.30741,10.6435 1.20492,1.43444 h 4.99183 l -1.09017,0.63115 -8.00414,7.97546 0.94672,1.60657 z m 26.28704,-18.70503 v 21.28701 l 1.17624,1.43444 h 21.28702 l 5.50823,-4.61889 -1.20493,-1.43443 h -20.08209 v -19.85258 l -1.20492,-1.43444 z m 35.84038,0 v 21.28701 l 1.17624,1.43444 5.50823,-4.61889 v -11.18859 l 5.13528,5.16397 5.50823,-4.61888 3.95904,-3.95904 v 17.78699 l 1.17623,1.43444 5.50823,-4.61889 v -21.28701 l -1.20492,-1.43444 -5.47954,4.61889 v 0.43033 l -2.66805,2.23771 -2.92625,2.92625 -7.54513,-7.54513 -1.46312,1.23362 v -2.46723 l -1.20493,-1.43444 z m 35.84036,0 v 21.28701 l 1.17624,1.43444 5.50823,-4.61889 v -11.18859 l 13.13943,13.13943 1.46312,-1.23362 v 2.46723 l 1.17624,1.43444 5.50823,-4.61889 v -21.28701 l -1.20493,-1.43444 -5.47954,4.61889 v 11.18859 l -13.13943,-13.13943 -1.46312,1.23362 v -2.46723 l -1.20492,-1.43444 z m 35.8404,0 v 21.28701 l 1.17623,1.43444 5.50823,-4.61889 v -7.65988 l 14.40173,-8.31972 v 14.54517 h -3.75822 v -6.54102 l -1.20492,-1.43444 -5.47955,4.61888 v 7.97546 l 1.17624,1.43444 h 8.00415 l 1.43443,-1.23362 1.0328,1.23362 5.47954,-4.61889 v -21.28701 l -1.20493,-1.43444 -18.41814,10.64351 -1.46313,1.23362 v -10.44269 l -1.20492,-1.43444 z m 35.63955,0 v 21.28701 l 1.17624,1.43444 5.50823,-4.61889 v -13.54106 l 13.13943,7.51644 1.46312,-1.23362 v 5.82381 h -5.16397 l -5.47954,4.61888 1.17624,1.43444 h 10.64351 l 5.50823,-4.61889 v -21.28701 l -1.20493,-1.43444 -5.47954,4.61889 v 4.41806 l -13.13943,-7.51644 -1.46312,1.23361 v -1.31968 l -1.20492,-1.43444 z m 35.84037,7.97545 v 5.3361 c 0,3.8156 0,5.79512 0.86066,6.82791 l 1.20492,1.43444 c 0.94673,1.14755 2.92625,1.14755 7.1148,1.14755 h 5.30741 c 3.8156,0 5.82381,0 6.8566,-0.88935 l 5.47954,-4.5902 c 1.14755,-0.97541 1.14755,-2.95493 1.14755,-7.11479 v -5.3361 c 0,-3.8156 0,-5.79512 -0.86066,-6.8566 l -1.20493,-1.40575 c -0.94672,-1.14755 -2.95493,-1.14755 -7.11479,-1.14755 h -5.3361 c -3.8156,0 -5.79512,0 -6.82791,0.88935 l -5.50823,4.5902 c -1.11886,0.94672 -1.11886,2.95493 -1.11886,7.11479 z m 6.68446,-3.18444 c 0,-1.31968 0,-2.43854 0.0287,-3.35658 0.71722,0 1.54919,0 2.46723,0 h 5.30741 c 3.2992,0 5.25003,0 6.39758,0.54509 0,1.17623 0.40164,3.041 0.40164,5.99593 v 5.3361 c 0,1.31968 0,2.43854 -0.0574,3.35658 -0.71721,0 -1.5205,0 -2.43853,0 h -5.3361 c -3.2992,0 -5.25004,0 -6.36889,-0.57377 0,-1.14755 -0.40165,-3.01232 -0.40165,-5.96725 z m 39.79941,-1.11886 v 12.99598 h -3.2992 l -0.65984,-0.0287 v -0.28689 -14.91812 h 2.46722 l 5.50823,-4.61888 -1.20492,-1.43444 -6.11069,0.0287 -1.31968,0.11476 -5.47955,4.61888 -0.4877,0.94673 -0.0574,2.61067 v 15.83616 l 0.0574,1.23361 1.20492,1.43444 0.48771,0.43033 1.29099,0.0861 h 6.97136 l 1.2623,-0.14345 5.50823,-4.61888 0.45902,-1.0041 0.0861,-2.63936 v -12.88123 h 2.26641 1.00411 l 0.65984,0.0287 0.0287,0.28689 v 14.91812 h -2.03689 l -5.47954,4.61888 1.17623,1.43444 h 4.64757 l 1.00411,-0.0287 1.31968,-0.11476 5.50823,-4.61888 0.45902,-0.94673 0.0861,-2.61067 v -15.83616 l -0.0861,-1.23361 -1.17624,-1.43444 -0.48771,-0.43033 -1.31968,-0.0861 h -1.0041 -5.93856 l -1.291,0.54509 -5.47954,4.59019 -0.48771,1.34837 z m 25.19688,-3.67215 v 21.28701 l 1.17624,1.43444 5.50823,-4.61889 v -3.38526 h 13.13942 l 1.54919,-1.29099 1.09017,1.29099 5.50823,-4.59019 v -13.31156 l -1.20492,-1.43444 h -18.61897 l -1.57788,1.31968 -1.09017,-1.31968 z m 6.68447,1.43443 h 14.60255 v 7.25824 h -13.13943 l -1.46312,1.23362 z"
           id="path8" />
        <path
           style="font-family:'NewEng Hangeul';-inkscape-font-specification:'NewEng Hangeul';text-align:center;text-anchor:middle"
           d="m 34.059809,222.82748 v 18.61896 l 1.176237,1.43444 h 9.467271 v 3.90166 l 1.176237,1.43443 5.50823,-4.61888 v -0.71721 h 5.135277 l 5.50823,-4.61888 -1.204925,-1.43444 h -0.258198 l 1.463123,-1.20492 v -15.97961 l -1.204925,-1.43444 H 42.2074 l -1.577879,1.31968 -1.09017,-1.31968 z m 10.643508,10.6435 v 3.35658 h -3.959041 v -12.56565 h 14.602548 v 12.56565 h -3.95904 v -6.54102 l -1.204926,-1.43444 z m 25.196866,-10.6435 v 21.28701 l 1.176237,1.43444 5.50823,-4.61889 v -6.02462 h 8.090214 l -1.491813,1.23361 1.204926,1.40575 7.975458,8.00415 5.50823,-4.61889 -1.204925,-1.43443 -5.680362,-5.68036 0.286887,-0.22951 1.09017,1.31968 5.50823,-4.61888 V 219.64303 L 96.66674,218.20859 H 78.047774 l -1.577879,1.31968 -1.09017,-1.31968 z m 6.684467,1.43443 h 14.602548 v 4.59019 H 78.047774 l -1.463124,1.23362 z m 30.33214,0 h 0.28689 l -1.46312,1.23361 v 7.97546 l 1.17623,1.43444 h 20.11078 v 4.59019 H 111.2201 l -5.47954,4.61888 1.17623,1.43444 h 18.64766 l 1.54919,-1.31968 1.09017,1.31968 5.50823,-4.61889 v -10.6435 l -1.20493,-1.43444 h -20.08209 v -4.59019 h 15.77879 l 5.50823,-4.61888 -1.20493,-1.43444 H 111.2201 l -5.47954,4.61889 z m 38.50842,2.63936 12.59434,12.59434 h -9.75416 v -6.54102 l -1.20492,-1.43444 -5.47954,4.61888 v 7.97546 l 1.17623,1.43444 h 21.28702 l 5.50823,-4.61889 -1.20493,-1.43443 h -2.92624 l 1.46312,-1.23361 -1.20492,-1.43444 -12.59434,-12.56565 h 9.78284 v 6.54102 l 1.17624,1.43444 5.50823,-4.61888 v -7.97546 l -1.20493,-1.43444 h -21.28701 l -5.47954,4.61889 1.17623,1.43443 h 2.92625 l -1.46312,1.23361 z m 33.17233,-2.63936 h 10.9304 l -1.46313,1.23361 v 18.61897 l 1.17624,1.43444 5.50823,-4.61889 v -16.66813 h 5.13528 l 5.50823,-4.61888 -1.20493,-1.43444 h -21.28701 l -5.47954,4.61889 z m 34.66414,-1.43443 v 13.31155 l 1.17624,1.40575 h 18.64765 l 1.46313,-1.20493 v 7.77464 l 1.17623,1.43444 5.50824,-4.61889 v -21.28701 l -1.20493,-1.43444 -5.47954,4.61889 v 8.69267 h -14.60255 v -11.87712 l -1.20493,-1.43444 z m 35.84037,0 v 21.28701 l 1.17623,1.43444 h 18.64766 l 1.54919,-1.31968 1.09017,1.31968 5.50823,-4.61889 v -21.28701 l -1.20493,-1.43444 -5.47954,4.61889 v 16.66813 h -14.60255 v -19.85258 l -1.20492,-1.43444 z m 48.26258,4.84839 c -2.84018,0 -4.47544,-0.34427 -5.45085,-0.34427 -0.17213,-0.74591 -0.20082,-1.54919 -0.28689,-4.13117 v -3.5574 l -1.20492,-1.43444 -5.47955,4.61889 v 3.55739 l 0.0287,1.20493 c 0.0861,2.00821 0.11476,3.15576 0.68853,3.8156 l 1.03279,1.23361 -0.63115,0.5164 c -0.77459,0.65984 -1.0041,1.83607 -1.09017,3.84428 -0.0287,0.86066 -0.0287,1.17624 -0.0287,1.20493 v 0 c 0,0.0287 0,0.20082 0.0287,0.97541 0.0574,1.92215 0.22951,3.06969 0.83197,3.78691 l 1.20493,1.43444 c 0.94673,1.14755 2.95494,1.14755 7.1148,1.14755 h 5.30741 c 3.81559,0 5.8238,0 6.8566,-0.88935 l 5.50823,-4.5902 c 0.80328,-0.68853 1.03279,-1.89345 1.09017,-4.0451 0.0287,-0.7746 0.0287,-0.97542 0.0287,-1.00411 v 0 c 0,-0.0287 0,-0.34426 -0.0287,-1.20492 -0.0574,-1.7787 -0.2582,-2.86887 -0.83198,-3.5574 l -0.60246,-0.71722 1.46313,-1.20492 v -8.69268 l -1.20493,-1.43444 -5.47954,4.61889 v 4.87707 c -0.74591,0 -1.54919,-0.0287 -2.49592,-0.0287 z m -5.73774,7.3443 c 0,-0.34426 0.0287,-1.2623 0.0287,-1.29099 0.71722,0 1.54919,0 2.46723,0 h 5.30741 c 3.32789,0 5.25003,0.57378 6.39758,0.57378 0.34426,1.0041 0.40164,2.89755 0.40164,3.90166 0,0.20082 -0.0287,1.2623 -0.0287,1.29099 -0.71722,0 -1.54919,0 -2.46723,0 h -5.30741 c -3.32789,0 -5.25003,-0.57377 -6.39758,-0.57377 -0.31557,-0.91804 -0.40164,-2.61068 -0.40164,-3.90167 z m 30.33215,-10.75826 21.28701,21.28702 5.50823,-4.61889 -1.20492,-1.43443 -1.57788,-1.54919 2.7828,-2.32378 v -15.97961 l -1.20492,-1.43444 -5.47954,4.61889 v 11.18859 l -15.80748,-15.80748 -5.47954,4.61889 z m 34.66412,-1.43443 v 21.28701 l 1.17624,1.43444 h 8.00415 l 1.54919,-1.31968 1.09017,1.31968 h 8.00415 l 1.54919,-1.31968 1.09017,1.31968 5.50823,-4.61889 v -21.28701 l -1.20493,-1.43444 -5.47954,4.61889 v 16.66813 h -3.95904 v -14.54517 l -1.20493,-1.40575 -5.47954,4.59019 v 11.36073 h -3.95904 v -19.85258 l -1.20492,-1.43444 z m 57.12741,0 -6.05331,6.02462 h -8.54924 v -9.20907 l -1.20492,-1.43444 -5.47954,4.61889 v 10.6435 l 1.17623,1.43444 h 8.03284 l -9.20907,9.20907 1.17623,1.43444 5.50823,-4.61889 6.02463,-6.02462 h 8.57792 v 9.20907 l 1.17624,1.43444 5.50823,-4.61889 v -10.6435 l -1.20493,-1.43444 h -8.00414 l 9.20907,-9.20907 -1.20493,-1.43444 z m 35.84036,0 -6.05331,6.02462 h -8.54923 v -9.20907 l -1.20493,-1.43444 -5.47954,4.61889 v 10.6435 l 1.17624,1.43444 h 8.03283 l -9.20907,9.20907 1.17624,1.43444 5.50823,-4.61889 21.28701,-21.28701 -1.20492,-1.43444 z m 19.287,16.66813 19.85258,-19.85258 -1.20493,-1.43444 h -21.28701 l -5.47954,4.61889 1.17623,1.43443 h 18.67635 l -19.85258,19.85258 1.17623,1.43444 h 21.28702 l 5.50823,-4.61889 -1.20493,-1.43443 z"
           id="path9" />
      </g>
    </g>
  </g>
</svg>
