<?xml version="1.0" encoding="UTF-8" standalone="no"?>
<!-- Created with Inkscape (http://www.inkscape.org/) -->

<svg
   version="1.1"
   id="svg1"
   width="495"
   height="280"
   viewBox="0 0 495 280"
   sodipodi:docname="Leaf Tech Font Cover landscape.svg"
   inkscape:version="1.4 (86a8ad7, 2024-10-11)"
   inkscape:export-filename="Font Cover landscape.png"
   inkscape:export-xdpi="96"
   inkscape:export-ydpi="96"
   xmlns:inkscape="http://www.inkscape.org/namespaces/inkscape"
   xmlns:sodipodi="http://sodipodi.sourceforge.net/DTD/sodipodi-0.dtd"
   xmlns="http://www.w3.org/2000/svg"
   xmlns:svg="http://www.w3.org/2000/svg">
  <defs
     id="defs1">
    <rect
       x="198.13704"
       y="58.2756"
       width="26.763609"
       height="44.893795"
       id="rect14" />
    <rect
       x="142.88313"
       y="45.325466"
       width="116.98287"
       height="137.27142"
       id="rect11" />
  </defs>
  <sodipodi:namedview
     id="namedview1"
     pagecolor="#ffffff"
     bordercolor="#000000"
     borderopacity="0.25"
     inkscape:showpageshadow="2"
     inkscape:pageopacity="0.0"
     inkscape:pagecheckerboard="0"
     inkscape:deskcolor="#d1d1d1"
     inkscape:zoom="2.0267851"
     inkscape:cx="264.70493"
     inkscape:cy="153.69168"
     inkscape:window-width="1920"
     inkscape:window-height="1009"
     inkscape:window-x="-8"
     inkscape:window-y="-8"
     inkscape:window-maximized="1"
     inkscape:current-layer="g1"
     showguides="false" />
  <g
     inkscape:groupmode="layer"
     inkscape:label="Image"
     id="g1"
     transform="translate(-19.645168,-21.043139)">
    <rect
       style="display:inline;opacity:1;fill:#ffffff;fill-opacity:0.578313"
       id="rect3"
       width="495.00003"
       height="279.99997"
       x="19.855019"
       y="20.665426"
       sodipodi:insensitive="true" />
    <rect
       style="opacity:0.861111;fill:#88009b;fill-opacity:1;stroke-width:0.999998"
       id="rect1"
       width="495.00003"
       height="280"
       x="19.645168"
       y="21.043139"
       inkscape:label="Background"
       sodipodi:insensitive="true" />
    <g
       id="g39"
       inkscape:label="Texts"
       transform="translate(7.2499965,-4)"
       style="display:none">
      <text
         xml:space="preserve"
         style="font-size:137.727px;line-height:1.1;text-align:start;writing-mode:lr-tb;direction:ltr;text-anchor:start;display:inline;opacity:0.602888;fill:#3a0043;fill-opacity:1;stroke:#3a0043;stroke-width:3.83659;stroke-dasharray:none;stroke-opacity:1"
         x="20.205862"
         y="143.09467"
         id="text1"><tspan
           sodipodi:role="line"
           x="20.205862"
           y="143.09467"
           style="font-style:normal;font-variant:normal;font-weight:normal;font-stretch:normal;line-height:1.1;font-family:'Leaf Tech';-inkscape-font-specification:'Leaf Tech';fill:#3a0043;fill-opacity:1;stroke:#3a0043;stroke-width:3.83659;stroke-dasharray:none;stroke-opacity:1"
           id="tspan3">AB<tspan
   style="letter-spacing:-7.67318px;fill:#3a0043;fill-opacity:1;stroke:#3a0043;stroke-width:3.83659;stroke-dasharray:none;stroke-opacity:1"
   id="tspan13">C</tspan>Đ<tspan
   style="letter-spacing:-9.59148px;stroke-width:3.83659"
   id="tspan14">E</tspan>FG</tspan></text>
      <text
         xml:space="preserve"
         style="font-style:normal;font-variant:normal;font-weight:normal;font-stretch:normal;font-size:79.9866px;line-height:0.9;font-family:'Leaf Tech';-inkscape-font-specification:'Leaf Tech';text-align:end;writing-mode:lr-tb;direction:ltr;text-anchor:end;display:inline;opacity:0.81;fill:#32003a;fill-opacity:1;stroke:#32003a;stroke-width:1.62543;stroke-dasharray:none;stroke-opacity:1;paint-order:normal"
         x="498.37775"
         y="224.51364"
         id="text2"><tspan
           sodipodi:role="line"
           id="tspan2"
           x="498.37775"
           y="224.51364"
           style="font-style:normal;font-variant:normal;font-weight:normal;font-stretch:normal;line-height:0.9;font-family:'Leaf Tech';-inkscape-font-specification:'Leaf Tech';text-align:end;text-anchor:end;fill:#32003a;fill-opacity:1;stroke:#32003a;stroke-width:1.62543;stroke-dasharray:none;stroke-opacity:1;paint-order:normal">Leaf</tspan><tspan
           sodipodi:role="line"
           x="498.37775"
           y="296.50159"
           style="font-style:normal;font-variant:normal;font-weight:normal;font-stretch:normal;line-height:0.9;font-family:'Leaf Tech';-inkscape-font-specification:'Leaf Tech';text-align:end;text-anchor:end;fill:#32003a;fill-opacity:1;stroke:#32003a;stroke-width:1.62543;stroke-dasharray:none;stroke-opacity:1;paint-order:normal"
           id="tspan5"><tspan
   style="letter-spacing:-5.27751px;stroke-width:1.62543"
   id="tspan7">T</tspan>ech</tspan></text>
      <text
         xml:space="preserve"
         style="font-style:normal;font-variant:normal;font-weight:normal;font-stretch:normal;font-size:54.981px;line-height:0.8;font-family:TallThin;-inkscape-font-specification:TallThin;text-align:end;letter-spacing:0px;writing-mode:lr-tb;direction:ltr;text-anchor:end;opacity:0.577428;fill:#3a0043;fill-opacity:1;stroke:#3a0043;stroke-width:0.7;stroke-dasharray:none;stroke-opacity:1;paint-order:normal"
         x="24.258524"
         y="199.94553"
         id="text56"><tspan
           sodipodi:role="line"
           x="24.258524"
           y="199.94553"
           style="font-style:normal;font-variant:normal;font-weight:normal;font-stretch:normal;line-height:0.8;font-family:'Leaf Tech';-inkscape-font-specification:'Leaf Tech';text-align:start;letter-spacing:0px;text-anchor:start;fill:#3a0043;fill-opacity:1;stroke:#3a0043;stroke-width:0.7;stroke-dasharray:none;stroke-opacity:1"
           id="tspan60">aấẳbcçdđeềfg</tspan><tspan
           sodipodi:role="line"
           x="24.258524"
           y="243.93033"
           style="font-style:normal;font-variant:normal;font-weight:normal;font-stretch:normal;line-height:0.8;font-family:'Leaf Tech';-inkscape-font-specification:'Leaf Tech';text-align:start;letter-spacing:0px;text-anchor:start;fill:#3a0043;fill-opacity:1;stroke:#3a0043;stroke-width:0.7;stroke-dasharray:none;stroke-opacity:1"
           id="tspan65">hijklmnoôơpqr</tspan><tspan
           sodipodi:role="line"
           x="24.258524"
           y="287.91513"
           style="font-style:normal;font-variant:normal;font-weight:normal;font-stretch:normal;line-height:0.8;font-family:'Leaf Tech';-inkscape-font-specification:'Leaf Tech';text-align:start;letter-spacing:0px;text-anchor:start;fill:#3a0043;fill-opacity:1;stroke:#3a0043;stroke-width:0.7;stroke-dasharray:none;stroke-opacity:1"
           id="tspan4">stuưvwxyz</tspan></text>
    </g>
    <g
       id="g38"
       inkscape:label="Vectors"
       transform="translate(-3.4533689,-4)"
       style="display:inline"
       sodipodi:insensitive="true">
      <g
         id="text8"
         style="font-size:137.727px;line-height:1.1;opacity:0.602888;fill:#3a0043;stroke:#3a0043;stroke-width:3.83659"
         transform="translate(10.703365)"
         aria-label="ABCĐEFG">
        <path
           style="font-family:'Leaf Tech';-inkscape-font-specification:'Leaf Tech'"
           d="m 53.39807,39.248504 h 22.862683 v 22.862683 6.473169 c 0,9.089982 -7.299531,16.251786 -16.389514,16.251786 H 46.924901 c -6.473169,0 -12.257703,2.892268 -16.389514,7.161805 V 88.141591 62.111187 c 0,-12.670885 10.191799,-22.862683 22.862683,-22.862683 z m 0,-6.197715 c -15.976332,0 -29.060398,12.946338 -29.060398,29.060398 v 26.030404 19.419509 32.50357 c 0,1.79045 1.37727,3.03 3.029994,3.03 1.790451,0 3.167721,-1.23955 3.167721,-3.03 V 107.5611 c 0,-9.089984 7.299532,-16.389515 16.389514,-16.389515 h 12.946338 c 6.47317,0 12.257704,-2.75454 16.389514,-7.024078 v 3.994084 38.976739 c 0,5.50908 -4.269537,9.77862 -9.778617,9.77862 -1.790451,0 -3.167721,1.515 -3.167721,3.16772 0,1.79045 1.37727,3.03 3.167721,3.03 8.814528,0 16.114059,-7.16181 16.114059,-15.97634 V 88.141591 68.584356 62.111187 33.050789 Z M 97.195232,84.836142 V 53.158931 c 0,-7.850439 6.335438,-14.048154 14.048158,-14.048154 H 142.9206 V 61.97346 c 0,12.670884 -10.1918,22.862682 -22.86269,22.862682 z m 0,6.197716 h 31.539488 c 7.85044,0 14.18588,6.335442 14.18588,14.185882 v 17.3536 c 0,7.85044 -6.33544,14.18588 -14.18588,14.18588 h -17.35361 c -7.85044,0 -14.185878,-6.33544 -14.185878,-14.18588 z m -6.335442,0 v 31.539482 c 0,11.29362 9.22771,20.52133 20.52132,20.52133 h 17.35361 c 11.29361,0 20.52132,-9.22771 20.52132,-20.52133 v -17.3536 c 0,-8.539075 -5.50908,-15.976333 -13.08407,-19.006328 7.85044,-5.233626 13.08407,-14.185881 13.08407,-24.239952 V 33.050789 h -38.01265 c -11.15589,0 -20.3836,8.952255 -20.3836,20.108142 v 31.677211 z"
           id="path22" />
        <path
           style="font-family:'Leaf Tech';-inkscape-font-specification:'Leaf Tech';letter-spacing:-7.67318px"
           d="m 157.51956,33.050789 v 80.983481 c 0,16.11406 13.08406,29.0604 29.19812,29.0604 h 26.03041 c 1.65272,0 3.16772,-1.23955 3.16772,-3.03 0,-1.65272 -1.515,-3.16772 -3.16772,-3.16772 h -26.03041 c -12.67088,0 -22.86268,-10.1918 -22.86268,-22.86268 V 39.248504 h 22.86268 c 12.67089,0 22.86268,10.191798 22.86268,22.862683 0,1.652724 1.37727,3.167721 3.16773,3.167721 1.65272,0 3.16772,-1.514997 3.16772,-3.167721 0,-16.11406 -13.08407,-29.060398 -29.19813,-29.060398 z"
           id="path23" />
        <path
           style="font-family:'Leaf Tech';-inkscape-font-specification:'Leaf Tech'"
           d="m 218.2966,82.770237 c 1.37727,0 2.47908,-0.826362 2.89226,-1.928178 0.68864,-1.37727 3.5809,-2.75454 6.19772,-2.892267 v 65.144878 h 29.0604 c 16.11406,0 29.19812,-13.08407 29.19812,-29.0604 V 61.97346 c 0,-15.976333 -13.08406,-29.060398 -29.19812,-29.060398 h -29.0604 v 3.167721 35.671294 c -5.50908,0.137727 -10.1918,2.479086 -11.98225,6.610896 -0.13773,0.413181 -0.27546,0.826362 -0.27546,1.239543 0,1.652724 1.37727,3.167721 3.16773,3.167721 z m 43.384,-10.880433 c -1.23954,0 -2.34136,0.826362 -2.89226,1.928178 -0.68864,1.790451 -3.99409,2.892267 -7.02408,2.892267 -0.68864,0 -1.23955,0 -1.79045,-0.137727 L 233.72202,72.578439 V 39.248504 h 22.72496 c 12.67088,0 22.86268,10.191798 22.86268,22.724956 v 52.06081 c 0,12.53315 -10.1918,22.72495 -22.86268,22.72495 H 233.72202 V 79.051608 l 15.01224,3.718629 c 1.10182,0.137727 2.34136,0.275454 3.44318,0.275454 5.78453,0 10.60498,-2.616813 12.39543,-6.748623 0.27545,-0.413181 0.27545,-0.826362 0.27545,-1.239543 0,-1.652724 -1.23954,-3.167721 -3.16772,-3.167721 z"
           id="path24" />
        <path
           style="font-family:'Leaf Tech';-inkscape-font-specification:'Leaf Tech';letter-spacing:-9.59148px"
           d="m 334.9514,88.141591 v -0.137727 c 0,-1.790452 -1.37727,-3.167722 -3.16773,-3.167722 H 316.6337 c -9.08998,0 -16.38951,-7.161804 -16.38951,-16.251786 V 39.248504 h 35.94675 c 5.37135,0 9.77862,4.269537 9.77862,9.778617 0,1.790451 1.37727,3.167721 3.16772,3.167721 1.65272,0 3.16772,-1.37727 3.16772,-3.167721 0,-8.814528 -7.29953,-15.976332 -16.11406,-15.976332 h -42.28219 v 35.533567 c 0,8.26362 4.68272,15.563151 11.43134,19.557235 -6.74862,3.856356 -11.43134,11.155887 -11.43134,19.419509 v 35.53357 h 42.28219 c 8.81453,0 16.11406,-7.16181 16.11406,-15.97634 0,-1.79045 -1.515,-3.16772 -3.16772,-3.16772 -1.79045,0 -3.16772,1.37727 -3.16772,3.16772 0,5.50908 -4.40727,9.77862 -9.77862,9.77862 H 300.24419 V 107.5611 c 0,-9.089984 7.29953,-16.389515 16.38951,-16.389515 h 15.14997 c 1.79046,0 3.16773,-1.239543 3.16773,-3.029994 z"
           id="path25" />
        <path
           style="font-family:'Leaf Tech';-inkscape-font-specification:'Leaf Tech'"
           d="m 370.53428,33.050789 v 51.785353 h -16.38951 c -1.79045,0 -3.16772,1.514997 -3.16772,3.305449 0,1.652724 1.37727,3.029994 3.16772,3.029994 h 16.38951 V 133.5915 c 0,9.08998 -7.29953,16.38952 -16.38951,16.38952 -1.79045,0 -3.16772,1.37727 -3.16772,3.02999 0,1.79045 1.37727,3.16772 3.16772,3.16772 12.53315,0 22.72495,-10.1918 22.72495,-22.58723 V 91.171585 h 48.89309 c 1.65272,0 3.02999,-1.37727 3.02999,-3.029994 0,-1.790452 -1.37727,-3.305449 -3.02999,-3.305449 H 376.86972 V 39.248504 h 22.72496 c 12.67088,0 23.00041,10.191798 23.00041,22.862683 0,1.790451 1.37727,3.167721 3.16772,3.167721 1.65272,0 3.02999,-1.37727 3.02999,-3.167721 0,-16.11406 -13.08406,-29.060398 -29.19812,-29.060398 z m 95.85799,0 c -16.11406,0 -29.33585,13.084065 -29.33585,29.198125 v 80.845756 h 29.0604 c 9.36544,0 17.62906,-4.40727 23.00041,-11.15589 v 8.12589 c 0,9.08998 -7.29953,16.38952 -16.38951,16.38952 h -32.50358 c -1.65272,0 -3.16772,1.37727 -3.16772,3.02999 0,1.79045 1.515,3.16772 3.16772,3.16772 h 32.50358 c 12.53315,0 22.72495,-10.1918 22.72495,-22.58723 V 107.5611 107.28564 84.836142 h -22.72495 c -8.95226,0 -16.11406,7.299532 -16.11406,16.251788 0,1.65272 1.37727,3.16772 3.16772,3.16772 1.65272,0 3.16772,-1.515 3.16772,-3.16772 0,-5.509081 4.26954,-9.916345 9.77862,-9.916345 h 16.38951 v 22.862685 c 0,12.67088 -10.1918,22.86268 -23.00041,22.86268 H 443.39186 V 62.248914 c 0,-12.808612 10.32953,-23.00041 23.00041,-23.00041 h 22.72496 v 9.916344 c 0,5.371353 -4.40726,9.778617 -9.77862,9.778617 -1.79045,0 -3.16772,1.377271 -3.16772,3.167722 0,1.652724 1.37727,3.167721 3.16772,3.167721 8.81453,0 16.11406,-7.299532 16.11406,-16.11406 V 33.050789 Z"
           id="path26" />
      </g>
      <g
         id="text11"
         style="font-size:79.9866px;line-height:0.9;font-family:'Leaf Tech';-inkscape-font-specification:'Leaf Tech';text-align:end;text-anchor:end;opacity:0.81;fill:#32003a;stroke:#32003a;stroke-width:1.62543"
         transform="translate(10.703365)"
         aria-label="Leaf&#10;Tech">
        <path
           d="m 359.3612,160.52436 c -6.5589,0 -11.91801,5.3591 -11.91801,11.918 v 52.07128 h 21.99632 c 6.5589,0 11.918,-5.27911 11.918,-11.83802 0,-0.95984 -0.87985,-1.83969 -1.83969,-1.83969 -1.03982,0 -1.83969,0.87985 -1.83969,1.83969 0,4.63923 -3.67938,8.23862 -8.23862,8.23862 h -18.31693 v -48.47188 c 0,-4.55923 3.67938,-8.23862 8.23862,-8.23862 1.03982,0 1.83969,-0.87985 1.83969,-1.83969 0,-1.03982 -0.79987,-1.83969 -1.83969,-1.83969 z m 17.99688,30.23493 v 16.7172 c 0,9.35844 7.67871,17.03715 17.03714,17.03715 h 14.9575 c 1.03982,0 1.83969,-0.79986 1.83969,-1.83969 0,-0.95984 -0.79987,-1.83969 -1.83969,-1.83969 h -14.9575 c -6.71887,0 -12.23795,-4.87919 -13.19779,-11.3581 1.99967,1.83969 4.47925,3.19946 8.07865,3.19946 h 21.91633 v -5.03915 c 0,-9.35843 -7.59873,-16.87718 -16.95716,-16.87718 z m 3.67938,3.5994 h 13.19779 c 7.35877,0 13.27777,5.91901 13.27777,13.27778 v 1.35977 h -18.23694 c -4.63922,0 -8.23862,-3.67938 -8.23862,-8.23862 z m 38.63351,7.43876 h 13.19779 c 7.35877,0 13.35776,5.919 13.35776,13.27777 v 5.75904 h -13.19779 c -7.43875,0 -13.35776,-5.999 -13.35776,-13.43775 z m -1.83969,-11.03816 c -1.03983,0 -1.83969,0.71988 -1.83969,1.75971 0,0.95984 0.79986,1.83969 1.83969,1.83969 h 18.87684 c 5.27911,0 9.5184,4.15931 9.5184,9.43842 v 0.87985 c -3.11947,-3.91934 -7.91867,-6.5589 -13.35776,-6.5589 h -16.87717 v 9.27845 c 0,9.43842 7.67871,17.11713 17.03714,17.11713 h 16.79719 v -20.71653 c 0,-7.27878 -5.91901,-13.03782 -13.1178,-13.03782 z m 38.63351,43.0328 c 0.47992,0 0.87986,-0.15998 1.1998,-0.47992 5.19913,-4.63923 8.15864,-11.27811 8.15864,-18.15696 v -20.79652 h 18.23694 c 1.03983,0 1.83969,-0.79986 1.83969,-1.83969 0,-0.95984 -0.79986,-1.83969 -1.83969,-1.83969 h -18.15696 c 0.87986,-9.27845 8.63856,-16.47724 18.15696,-16.47724 h 10.07831 c 1.03983,0 1.8397,-0.79987 1.8397,-1.75971 0,-1.03982 -0.79987,-1.83969 -1.8397,-1.83969 h -10.07831 c -11.43808,0 -20.8765,8.79853 -21.83634,20.07664 h -5.75904 c -1.03982,0 -1.83969,0.87985 -1.83969,1.83969 0,1.03983 0.79987,1.83969 1.83969,1.83969 h 5.67905 v 20.79652 c 0,5.83902 -2.47958,11.51807 -6.87885,15.43741 -0.39993,0.31995 -0.63989,0.79987 -0.63989,1.35978 0,1.03982 0.79987,1.83969 1.83969,1.83969 z"
           id="path19" />
        <path
           style="letter-spacing:-5.27751px"
           d="m 363.19882,232.5123 c -6.5589,0 -11.918,5.3591 -11.918,11.918 0,0.95984 0.79987,1.8397 1.83969,1.8397 1.03983,0 1.83969,-0.87986 1.83969,-1.8397 0,-4.55923 3.67939,-8.23862 8.23862,-8.23862 h 3.19947 c 0,10.79819 0,21.59639 0,32.31459 0,5.43909 0,10.79819 0,16.15729 0,6.55891 5.3591,11.83802 11.918,11.83802 1.03983,0 1.83969,-0.71988 1.83969,-1.7597 0,-0.95984 -0.79986,-1.8397 -1.83969,-1.8397 -4.55923,0 -8.3186,-3.59939 -8.3186,-7.99866 0,0 0,-0.08 0.08,-0.15997 v -48.55187 h 13.27778 c 0.95984,0 1.7597,-0.87985 1.7597,-1.83969 0,-1.03982 -0.79986,-1.83969 -1.7597,-1.83969 z"
           id="path20" />
        <path
           d="m 383.03706,262.74724 v 16.7172 c 0,9.35843 7.67871,17.03714 17.03714,17.03714 h 14.9575 c 1.03982,0 1.83969,-0.79986 1.83969,-1.83969 0,-0.95984 -0.79987,-1.83969 -1.83969,-1.83969 h -14.9575 c -6.71887,0 -12.23795,-4.87918 -13.19779,-11.3581 1.99967,1.83969 4.47925,3.19946 8.07865,3.19946 h 21.91633 v -5.03915 c 0,-9.35843 -7.59873,-16.87717 -16.95716,-16.87717 z m 3.67938,3.59939 h 13.19779 c 7.35877,0 13.27778,5.91901 13.27778,13.27778 v 1.35977 h -18.23695 c -4.63922,0 -8.23862,-3.67938 -8.23862,-8.23862 z m 34.95413,-3.67938 v 16.79719 c 0,9.35843 7.67871,17.03714 17.03715,17.03714 h 15.03748 c 0.95984,0 1.7597,-0.79986 1.7597,-1.83969 0,-0.95984 -0.79986,-1.83969 -1.7597,-1.83969 h -15.03748 c -7.43876,0 -13.35777,-5.91901 -13.35777,-13.35776 v -13.19779 h 17.03715 c 5.27911,0 9.5184,4.23929 9.5184,9.5184 0,1.03983 0.79987,1.83969 1.8397,1.83969 0.95984,0 1.7597,-0.79986 1.7597,-1.83969 0,-7.19879 -5.91901,-13.1178 -13.1178,-13.1178 z M 456.30482,234.272 c 0,0.47992 0.15997,0.87986 0.47992,1.1998 3.27945,3.67939 5.27911,8.55857 5.27911,13.91767 v 30.07497 c 0,9.35843 7.67871,17.03714 17.03715,17.03714 1.03982,0 1.83969,-0.79986 1.83969,-1.83969 0,-0.95984 -0.79987,-1.83969 -1.83969,-1.83969 -7.35877,0 -13.35777,-5.91901 -13.35777,-13.35776 v -13.19779 h 13.19779 c 7.43876,0 13.35777,5.99899 13.35777,13.35776 v 15.03748 c 0,1.03983 0.79986,1.83969 1.83969,1.83969 0.95984,0 1.83969,-0.79986 1.83969,-1.83969 v -15.03748 c 0,-9.35843 -7.67871,-16.95716 -17.03715,-16.95716 h -13.19779 v -13.27778 c 0,-6.31894 -2.39959,-11.99799 -6.23895,-16.39725 -0.31995,-0.31995 -0.79987,-0.47992 -1.35977,-0.47992 -1.03983,0 -1.83969,0.71988 -1.83969,1.7597 z"
           id="path21" />
      </g>
      <g
         id="text16"
         style="font-size:54.981px;line-height:0.8;font-family:TallThin;-inkscape-font-specification:TallThin;text-align:end;letter-spacing:0px;text-anchor:end;opacity:0.577428;fill:#3a0043;stroke:#3a0043;stroke-width:0.7"
         transform="translate(10.703365)"
         aria-label="aấẳbcçdđeềfg&#10;hijklmnoôơpqr&#10;stuưvwxyz">
        <path
           style="font-family:'Leaf Tech';-inkscape-font-specification:'Leaf Tech';text-align:start;text-anchor:start"
           d="m 28.43708,184.33092 h 9.071865 c 5.058252,0 9.181827,4.0686 9.181827,9.12685 v 3.95863 h -9.071865 c -5.113233,0 -9.181827,-4.12357 -9.181827,-9.23681 z m -1.264563,-7.58738 c -0.714753,0 -1.264563,0.49483 -1.264563,1.20959 0,0.65977 0.54981,1.26456 1.264563,1.26456 h 12.975516 c 3.628746,0 6.542739,2.85901 6.542739,6.48776 v 0.60479 c -2.144259,-2.69407 -5.443119,-4.50844 -9.181827,-4.50844 H 25.907954 v 6.37779 c 0,6.48776 5.278176,11.76594 11.710953,11.76594 h 11.546009 v -14.24008 c 0,-5.00327 -4.068593,-8.96191 -9.016883,-8.96191 z m 46.074065,-16.93414 -1.374525,1.81437 c -1.099619,1.42951 -2.034296,2.69407 -3.35384,4.56342 l -1.594449,2.36419 2.584107,-1.26457 c 1.924334,-0.93467 2.859011,-1.70441 3.35384,-2.63909 0.329886,-0.60479 0.384867,-1.20958 0.384867,-1.75939 0,-0.2749 0,-0.54981 0,-0.82471 z m -19.518254,16.93414 c -0.714753,0 -1.264563,0.49483 -1.264563,1.20959 0,0.65977 0.54981,1.26456 1.264563,1.26456 h 12.975516 c 3.628746,0 6.542738,2.85901 6.542738,6.48776 v 0.60479 c -2.144259,-2.69407 -5.443118,-4.50844 -9.181826,-4.50844 H 52.463765 v 6.37779 c 0,6.48776 5.278176,11.76594 11.710953,11.76594 h 11.546009 v -14.24008 c 0,-5.00327 -4.068594,-8.96191 -9.016883,-8.96191 z m 1.264563,7.58738 h 9.071865 c 5.058252,0 9.181826,4.0686 9.181826,9.12685 v 3.95863 h -9.071864 c -5.113233,0 -9.181827,-4.12357 -9.181827,-9.23681 z m 9.126846,-20.12304 -1.154601,2.19924 c -0.824715,1.64943 -1.594449,2.80403 -2.419164,3.4638 -0.879696,0.65977 -1.924335,1.04464 -3.793689,1.04464 -0.659772,0 -1.264563,0.54981 -1.264563,1.20958 0,0.71475 0.604791,1.26456 1.264563,1.26456 2.19924,0 3.958632,-0.49483 5.333157,-1.53946 0.769734,-0.65978 1.429506,-1.48449 2.034297,-2.36419 0.604791,0.8797 1.209582,1.70441 2.034297,2.36419 1.374525,1.04463 3.078936,1.53946 5.278175,1.53946 0.714753,0 1.264563,-0.54981 1.264563,-1.26456 0,-0.65977 -0.54981,-1.20958 -1.264563,-1.20958 -1.814372,0 -2.859011,-0.38487 -3.738707,-1.04464 -0.879696,-0.65977 -1.594449,-1.81437 -2.474145,-3.4638 z m 29.194899,-6.59772 -3.353841,1.86935 c -1.209582,0.71475 -1.869354,2.0343 -1.869354,3.35384 0,0.65977 0.109962,1.26456 0.439848,1.86936 l 2.144259,-1.26457 c -0.109962,-0.21992 -0.109962,-0.43985 -0.109962,-0.60479 0,-0.49483 0.219924,-0.87969 0.659772,-1.1546 l 1.154601,-0.65977 0.659772,1.1546 c 0.109962,0.21992 0.164943,0.43985 0.164943,0.65977 0,0.49483 -0.219924,0.8797 -0.659772,1.1546 l -3.29886,1.92434 c 0,0 0.824715,1.4295 1.264563,2.19924 0.439848,0.76973 1.264563,1.31954 2.309202,1.48448 0.164943,-0.43984 0.219924,-0.82471 0.219924,-1.20958 0,-0.54981 -0.109962,-1.09962 -0.384867,-1.53947 l 1.1546,-0.71475 c 1.209582,-0.71475 1.924335,-2.0343 1.924335,-3.35384 0,-0.65977 -0.164943,-1.26456 -0.494829,-1.86935 z m -13.030497,19.13338 c -0.714753,0 -1.264563,0.49483 -1.264563,1.20959 0,0.65977 0.54981,1.26456 1.264563,1.26456 h 12.975516 c 3.628745,0 6.542738,2.85901 6.542738,6.48776 v 0.60479 c -2.144259,-2.69407 -5.443119,-4.50844 -9.181826,-4.50844 H 79.019576 v 6.37779 c 0,6.48776 5.278176,11.76594 11.710953,11.76594 h 11.546011 v -14.24008 c 0,-5.00327 -4.068596,-8.96191 -9.016885,-8.96191 z m 1.264563,7.58738 h 9.071865 c 5.058251,0 9.181826,4.0686 9.181826,9.12685 v 3.95863 h -9.071864 c -5.113233,0 -9.181827,-4.12357 -9.181827,-9.23681 z m 0.659772,-14.84487 c 0,0.38487 0.164943,0.65977 0.384867,0.8797 1.869354,1.86935 4.013613,3.02395 8.24715,3.02395 4.233536,0 6.377795,-1.1546 8.247149,-3.02395 0.219924,-0.21993 0.329886,-0.49483 0.329886,-0.8797 0,-0.65977 -0.54981,-1.26456 -1.264563,-1.26456 -0.329886,0 -0.604791,0.16494 -0.879696,0.38487 -1.64943,1.64943 -2.584107,2.25422 -6.432776,2.25422 -3.903651,0 -4.838328,-0.60479 -6.487758,-2.25422 -0.219924,-0.21993 -0.54981,-0.38487 -0.879696,-0.38487 -0.659772,0 -1.264563,0.60479 -1.264563,1.26456 z m 27.105666,9.67666 h 9.07186 c 5.11324,0 9.18183,4.12357 9.18183,9.18183 v 9.07186 h -9.07186 c -5.05826,0 -9.18183,-4.06859 -9.18183,-9.18183 z m -6.48776,-21.9924 c 0,0.32988 0.10996,0.60479 0.32989,0.82471 2.25422,2.52913 3.62874,5.88297 3.62874,9.5667 v 20.67285 c 0,6.43278 5.27818,11.71096 11.71096,11.71096 h 11.60099 v -11.60099 c 0,-6.43278 -5.27818,-11.65598 -11.71096,-11.65598 h -9.07186 v -9.12684 c 0,-4.3435 -1.64943,-8.24715 -4.28852,-11.27111 -0.21992,-0.21992 -0.54981,-0.32988 -0.93468,-0.32988 -0.71475,0 -1.26456,0.49483 -1.26456,1.20958 z m 30.56942,19.51825 v 11.54601 c 0,6.43278 5.27818,11.71096 11.71095,11.71096 h 10.33643 c 0.65977,0 1.20958,-0.54981 1.20958,-1.26457 0,-0.65977 -0.54981,-1.26456 -1.20958,-1.26456 h -10.33643 c -5.11323,0 -9.18182,-4.06859 -9.18182,-9.18183 v -9.07186 h 11.71095 c 3.62874,0 6.54274,2.91399 6.54274,6.54274 0,0.71475 0.54981,1.26456 1.26456,1.26456 0.65977,0 1.20958,-0.54981 1.20958,-1.26456 0,-4.94829 -4.06859,-9.01689 -9.01688,-9.01689 z m 39.53133,32.7137 c -2.08928,0 -3.84867,-1.75939 -3.84867,-3.84867 h 2.3092 c 0,0.76973 0.76973,1.53947 1.53947,1.53947 h 1.53946 v -1.53947 c 0,-0.76974 -0.76973,-1.53947 -1.53946,-1.53947 h 0.055 v -2.3092 c 2.03429,0 3.79368,1.75939 3.79368,3.84867 v 3.84867 z m -12.97552,-32.7137 v 11.54601 c 0,5.71803 4.12357,10.55636 9.56669,11.54601 -0.2749,0.49483 -0.38486,1.09962 -0.38486,1.70441 v 2.52913 h 3.79369 v -2.3092 h -1.48449 v -0.21993 c 0,-0.71475 0.65977,-1.4295 1.37452,-1.53946 h 9.18183 c 0.65977,0 1.20958,-0.54981 1.20958,-1.26457 0,-0.65977 -0.54981,-1.26456 -1.20958,-1.26456 h -10.33643 c -5.11323,0 -9.18182,-4.06859 -9.18182,-9.18183 v -9.07186 h 11.71095 c 3.62874,0 6.54274,2.91399 6.54274,6.54274 0,0.71475 0.54981,1.26456 1.26456,1.26456 0.65977,0 1.20958,-0.54981 1.20958,-1.26456 0,-4.94829 -4.06859,-9.01689 -9.01688,-9.01689 z m 13.0305,25.01636 h -0.055 z m 25.12631,-45.74419 c -0.71476,0 -1.26457,0.49483 -1.26457,1.20958 0,0.65977 0.54981,1.26456 1.26457,1.26456 5.05825,0 9.18182,4.0686 9.18182,9.12685 v 13.63529 c -2.14426,-2.74905 -5.44312,-4.50845 -9.18182,-4.50845 h -11.60099 v 11.54601 c 0,6.43278 5.27817,11.71096 11.71095,11.71096 h 11.54601 v -32.38381 c 0,-6.43278 -5.2232,-11.60099 -11.65597,-11.60099 z m -9.07187,23.20198 h 9.07187 c 5.05825,0 9.18182,4.12357 9.18182,9.18183 v 9.07186 h -9.07186 c -5.11323,0 -9.18183,-4.06859 -9.18183,-9.18183 z m 32.10888,-9.40175 c 0.49483,0 0.93468,-0.32989 1.15461,-0.71476 0.32988,-0.76973 1.86935,-1.20958 3.29886,-1.20958 0.2749,0 0.54981,0 0.82471,0.055 l 7.36745,1.64943 v 11.65598 c -2.14425,-2.69407 -5.38813,-4.50845 -9.12684,-4.50845 h -11.60099 v 11.54601 c 0,6.43278 5.27817,11.71096 11.71095,11.71096 h 11.54601 v -11.60099 -18.47362 c 2.41916,-0.055 4.56342,-0.93468 5.38814,-2.63909 0.055,-0.16494 0.10996,-0.38487 0.10996,-0.54981 0,-0.65977 -0.49483,-1.26456 -1.26456,-1.26456 -0.49483,0 -0.93468,0.2749 -1.1546,0.71475 -0.27491,0.60479 -1.86936,1.20958 -3.07894,1.20958 -0.16494,-6.32281 -5.33316,-11.38106 -11.65597,-11.38106 -0.71475,0 -1.26456,0.54981 -1.26456,1.26456 0,0.65977 0.54981,1.26456 1.26456,1.26456 4.83833,0 8.74198,3.68373 9.12684,8.46708 l -6.9276,-1.53947 c -0.49483,-0.055 -0.98966,-0.10996 -1.42951,-0.10996 -2.47414,0 -4.6184,0.93467 -5.44312,2.63908 -0.055,0.16495 -0.10996,0.32989 -0.10996,0.54981 0,0.65978 0.54981,1.26457 1.26456,1.26457 z m -5.55308,9.45673 h 9.07187 c 5.05825,0 9.12684,4.06859 9.12684,9.12685 v 9.07186 h -9.01688 c -5.11323,0 -9.18183,-4.06859 -9.18183,-9.18183 z m 24.57651,-2.47415 v 11.49103 c 0,6.43278 5.27818,11.71096 11.71096,11.71096 h 10.28144 c 0.71476,0 1.26457,-0.54981 1.26457,-1.26457 0,-0.65977 -0.54981,-1.26456 -1.26457,-1.26456 h -10.28144 c -4.61841,0 -8.4121,-3.35384 -9.07187,-7.8073 1.37453,1.26456 3.07894,2.19924 5.55308,2.19924 h 15.0648 v -3.4638 c 0,-6.43278 -5.2232,-11.601 -11.65598,-11.601 z m 2.52913,2.47415 h 9.07186 c 5.05826,0 9.12685,4.06859 9.12685,9.12685 v 0.93467 h -12.53567 c -3.1889,0 -5.66304,-2.52912 -5.66304,-5.66304 z m 38.04685,-17.81384 1.20958,2.63908 c 0.87969,1.92434 1.59445,2.914 2.52912,3.46381 0.8797,0.49483 1.70441,0.49483 2.52913,0.54981 h 2.25422 l -1.70441,-1.42951 c -1.42951,-1.1546 -2.63909,-2.14426 -4.45346,-3.51878 z m -11.49103,17.81384 h 9.07186 c 5.05825,0 9.12685,4.06859 9.12685,9.12685 v 0.93467 h -12.53567 c -3.1889,0 -5.66304,-2.52912 -5.66304,-5.66304 z m -2.52913,-2.47415 v 11.49103 c 0,6.43278 5.27818,11.71096 11.71095,11.71096 h 10.28145 c 0.71475,0 1.26456,-0.54981 1.26456,-1.26457 0,-0.65977 -0.54981,-1.26456 -1.26456,-1.26456 h -10.28145 c -4.6184,0 -8.41209,-3.35384 -9.07186,-7.8073 1.37452,1.26456 3.07893,2.19924 5.55308,2.19924 h 15.06479 v -3.4638 c 0,-6.43278 -5.22319,-11.601 -11.65597,-11.601 z m 11.65597,-12.53566 -1.1546,2.19924 c -0.82471,1.64943 -1.59445,2.80403 -2.41916,3.4638 -0.8797,0.65977 -1.92434,1.04464 -3.79369,1.04464 -0.65977,0 -1.26456,0.54981 -1.26456,1.20958 0,0.71475 0.60479,1.26456 1.26456,1.26456 2.19924,0 3.95863,-0.49483 5.33316,-1.53946 0.76973,-0.65978 1.4295,-1.48449 2.03429,-2.36419 0.60479,0.8797 1.20958,1.70441 2.0343,2.36419 1.37452,1.04463 3.07894,1.53946 5.27818,1.53946 0.71475,0 1.26456,-0.54981 1.26456,-1.26456 0,-0.65977 -0.54981,-1.20958 -1.26456,-1.20958 -1.81438,0 -2.85902,-0.38487 -3.73871,-1.04464 -0.8797,-0.65977 -1.59445,-1.81437 -2.47415,-3.4638 z m 16.16439,42.11544 c 0.32989,0 0.6048,-0.10996 0.82472,-0.32988 3.57376,-3.1889 5.60806,-7.75232 5.60806,-12.48069 v -14.29506 h 12.53567 c 0.71475,0 1.26456,-0.54981 1.26456,-1.26456 0,-0.65978 -0.54981,-1.26457 -1.26456,-1.26457 H 301.0328 c 0.60479,-6.37779 5.93795,-11.32608 12.48069,-11.32608 h 6.92761 c 0.71475,0 1.26456,-0.54981 1.26456,-1.20958 0,-0.71476 -0.54981,-1.26457 -1.26456,-1.26457 h -6.92761 c -7.86228,0 -14.35004,6.04791 -15.00981,13.80023 h -3.95864 c -0.71475,0 -1.26456,0.60479 -1.26456,1.26457 0,0.71475 0.54981,1.26456 1.26456,1.26456 h 3.90366 v 14.29506 c 0,4.01361 -1.70442,7.91726 -4.72837,10.61133 -0.27491,0.21993 -0.43985,0.54981 -0.43985,0.93468 0,0.71475 0.54981,1.26456 1.26456,1.26456 z m 21.99235,-27.16061 h 9.07187 c 5.05825,0 9.18182,4.12357 9.18182,9.18183 v 9.07186 h -9.07186 c -5.11323,0 -9.18183,-4.06859 -9.18183,-9.18183 z m -2.52912,25.1813 c 0,0.49483 0.2749,0.87969 0.60479,1.09962 2.47414,1.4295 5.38813,2.25422 8.46707,2.25422 h 14.1851 v -19.35331 c 0,-6.43278 -5.2232,-11.65598 -11.65597,-11.65598 h -11.60099 v 11.54601 c 0,6.43278 5.27817,11.71096 11.71095,11.71096 h 9.07186 v 5.22319 h -11.71095 c -2.63909,0 -5.05825,-0.65977 -7.20251,-1.86935 -0.16494,-0.10996 -0.38487,-0.21993 -0.60479,-0.21993 -0.65977,0 -1.26456,0.54981 -1.26456,1.26457 z"
           id="path16" />
        <path
           style="font-family:'Leaf Tech';-inkscape-font-specification:'Leaf Tech';text-align:start;text-anchor:start"
           d="m 25.907954,201.15511 c 0,0.32988 0.109962,0.60479 0.329886,0.82471 2.254221,2.52913 3.628746,5.88297 3.628746,9.5667 v 20.67285 c 0,6.43278 5.278176,11.71096 11.710953,11.71096 0.714753,0 1.264563,-0.54981 1.264563,-1.26457 0,-0.65977 -0.54981,-1.26456 -1.264563,-1.26456 -5.058252,0 -9.181827,-4.06859 -9.181827,-9.18183 v -9.07186 h 9.071865 c 5.113233,0 9.181826,4.12357 9.181826,9.18183 v 10.33642 c 0,0.71476 0.54981,1.26457 1.264563,1.26457 0.659772,0 1.264563,-0.54981 1.264563,-1.26457 v -10.33642 c 0,-6.43278 -5.278175,-11.65598 -11.710952,-11.65598 h -9.071865 v -9.12684 c 0,-4.3435 -1.64943,-8.24715 -4.288518,-11.27111 -0.219924,-0.21992 -0.54981,-0.32988 -0.934677,-0.32988 -0.714753,0 -1.264563,0.49483 -1.264563,1.20958 z m 38.266762,41.51065 c 0,-0.32988 -0.109962,-0.60479 -0.329886,-0.82471 -2.254221,-2.52913 -3.683727,-5.88297 -3.683727,-9.5667 v -10.3914 c 0,-0.65978 -0.54981,-1.20959 -1.209582,-1.20959 -0.714753,0 -1.264563,0.54981 -1.264563,1.20959 v 10.3914 c 0,4.3435 1.594449,8.24715 4.288518,11.21613 0.219924,0.2749 0.54981,0.43985 0.934677,0.43985 0.714753,0 1.264563,-0.54981 1.264563,-1.26457 z m -7.69734,-28.04031 v 2.47415 h 2.419164 c 1.374525,0 2.474145,-1.09962 2.474145,-2.47415 v -2.41916 h -2.419164 c -1.429506,0 -2.474145,1.09962 -2.474145,2.41916 z m 6.762684,37.0572 c 0.274905,0 0.494829,-0.055 0.714753,-0.21993 4.508442,-2.96897 7.477416,-8.13719 7.477416,-14.02015 v -15.55962 c 0,-0.65978 -0.54981,-1.20959 -1.209582,-1.20959 -0.714753,0 -1.264563,0.54981 -1.264563,1.20959 v 15.55962 c 0,5.00327 -2.584107,9.40175 -6.432777,11.93087 -0.329886,0.21993 -0.54981,0.6048 -0.54981,1.04464 0,0.76974 0.604791,1.26457 1.264563,1.26457 z m 4.563423,-38.43172 v 2.47414 h 2.419164 c 1.374525,0 2.474145,-1.09962 2.474145,-2.47414 v -2.41917 h -2.419164 c -1.429506,0 -2.474145,1.09962 -2.474145,2.41917 z m 9.456684,-2.96898 c -0.714753,0 -1.264563,0.54981 -1.264563,1.26457 v 20.67285 c 0,6.43278 5.278176,11.71096 11.710953,11.71096 0.714753,0 1.264563,-0.54981 1.264563,-1.26457 0,-0.65977 -0.54981,-1.26456 -1.264563,-1.26456 -5.113233,0 -9.181827,-4.06859 -9.181827,-9.18183 v -9.07186 h 9.016884 c 5.113233,0 9.236808,4.12357 9.236808,9.23681 v 10.28144 c 0,0.71476 0.54981,1.26457 1.264563,1.26457 0.659772,0 1.209582,-0.54981 1.209582,-1.26457 v -10.28144 c 0,-4.72837 -2.804031,-8.79696 -6.872625,-10.66632 2.529126,-1.59445 4.233537,-4.39848 4.233537,-7.58738 0,-0.71475 -0.54981,-1.26456 -1.264563,-1.26456 -0.714753,0 -1.264563,0.54981 -1.264563,1.26456 0,3.62875 -2.913993,6.54274 -6.542739,6.54274 H 78.52473 v -9.12684 c 0,-0.71476 -0.604791,-1.26457 -1.264563,-1.26457 z m 22.542242,-9.07186 c 0,0.32989 0.109962,0.60479 0.329881,0.82471 2.25423,2.52913 3.62875,5.88297 3.62875,9.51172 v 10.39141 10.39141 c 0,3.57376 1.09962,6.87262 3.02396,9.56669 0.38486,0.60479 0.76973,1.09962 1.26456,1.59445 0.21992,0.2749 0.54981,0.43985 0.93468,0.43985 0.71475,0 1.26456,-0.54981 1.26456,-1.26457 0,-0.32988 -0.10996,-0.60479 -0.32989,-0.82471 -2.25422,-2.52913 -3.62874,-5.88297 -3.62874,-9.51171 v -10.39141 -10.39141 c 0,-4.28852 -1.64943,-8.19217 -4.28852,-11.16115 -0.27491,-0.2749 -0.60479,-0.43984 -0.93468,-0.43984 -0.71475,0 -1.264561,0.54981 -1.264561,1.26456 z m 10.996241,19.46327 v 16.82419 c 0,3.51878 2.91399,6.43278 6.43277,6.43278 0.71476,0 1.26457,-0.54981 1.26457,-1.26457 0,-0.65977 -0.54981,-1.26456 -1.26457,-1.26456 -2.19924,0 -3.90365,-1.70441 -3.90365,-3.90365 v -14.35004 h 3.84867 c 1.48449,0 2.80403,0.38487 4.01362,0.98966 v 13.36038 c 0,3.51878 2.91399,6.43278 6.43277,6.43278 h 1.26457 v -11.54601 c 0,-3.73871 -1.81438,-7.09255 -4.56343,-9.23681 h 3.29886 c 5.05826,0 9.18183,4.12357 9.18183,9.23681 v 10.28144 c 0,0.71476 0.54981,1.26457 1.26456,1.26457 0.65978,0 1.26457,-0.54981 1.26457,-1.26457 v -10.28144 c 0,-6.48776 -5.27818,-11.71096 -11.71096,-11.71096 h -6.43277 v 0.71476 c -1.26457,-0.43985 -2.58411,-0.71476 -4.01362,-0.71476 z m 12.92053,5.2232 c 1.64943,1.64943 2.69407,3.95863 2.69407,6.48776 v 8.79696 c -1.59445,-0.49483 -2.69407,-1.92434 -2.69407,-3.68373 z m 40.90589,18.03377 c 0.71475,0 1.26456,-0.49483 1.26456,-1.20959 v -0.055 -20.78281 c 0,-0.65978 -0.54981,-1.15461 -1.26456,-1.15461 -0.65977,0 -1.26456,0.49483 -1.26456,1.15461 v 3.35384 c -2.14426,-2.80403 -5.44312,-4.50845 -9.18183,-4.50845 h -11.54601 v 11.54601 c 0,6.43278 5.2232,11.65598 11.65597,11.65598 0.71475,0 1.26456,-0.54981 1.26456,-1.26457 0,-0.65977 -0.54981,-1.26456 -1.26456,-1.26456 -5.05825,0 -9.18182,-4.06859 -9.18182,-9.12685 v -9.12684 h 9.07186 c 5.11323,0 9.18183,4.12357 9.18183,9.23681 v 10.28144 c 0,0.71476 0.54981,1.26457 1.26456,1.26457 z m 27.82038,-23.25697 h -11.54601 c -5.66304,0 -10.39141,4.0686 -11.49103,9.40175 -0.16494,0.76974 -0.21992,1.53947 -0.21992,2.30921 v 11.54601 h 11.60099 c 6.43277,0 11.65597,-5.2232 11.65597,-11.65598 z m -2.52913,2.52913 v 9.07186 c 0,5.05826 -4.06859,9.12685 -9.12684,9.12685 h -9.07187 v -9.01688 c 0,-5.11324 4.0686,-9.18183 9.18183,-9.18183 z m 17.48394,-15.00981 -1.1546,2.19924 c -0.82472,1.64943 -1.59445,2.80403 -2.41917,3.4638 -0.87969,0.65977 -1.92433,1.04464 -3.79368,1.04464 -0.65978,0 -1.26457,0.54981 -1.26457,1.20958 0,0.71475 0.60479,1.26456 1.26457,1.26456 2.19924,0 3.95863,-0.49483 5.33315,-1.53946 0.76974,-0.65978 1.42951,-1.48449 2.0343,-2.36419 0.60479,0.8797 1.20958,1.70441 2.0343,2.36419 1.37452,1.04463 3.07893,1.53946 5.27817,1.53946 0.71476,0 1.26457,-0.54981 1.26457,-1.26456 0,-0.65977 -0.54981,-1.20958 -1.26457,-1.20958 -1.81437,0 -2.85901,-0.38487 -3.73871,-1.04464 -0.87969,-0.65977 -1.59444,-1.81437 -2.47414,-3.4638 z m 9.07186,15.00981 v 9.07186 c 0,5.05826 -4.06859,9.12685 -9.12684,9.12685 h -9.07187 v -9.01688 c 0,-5.11324 4.0686,-9.18183 9.18183,-9.18183 z m 2.52913,-2.52913 h -11.54601 c -5.66304,0 -10.39141,4.0686 -11.49103,9.40175 -0.16494,0.76974 -0.21992,1.53947 -0.21992,2.30921 v 11.54601 h 11.60099 c 6.43278,0 11.65597,-5.2232 11.65597,-11.65598 z m 25.29125,-5.38813 c -2.08927,0 -3.84867,1.75939 -3.84867,3.84867 h 2.30921 c 0,-0.76974 0.76973,-1.53947 1.53946,-1.53947 h 1.53947 v 1.53947 c 0,0.76973 -0.76973,1.53946 -1.53947,1.53946 h -10.28144 c -5.66305,0 -10.39141,4.0686 -11.49103,9.40175 -0.16494,0.76974 -0.21993,1.53947 -0.21993,2.30921 v 11.54601 h 11.601 c 6.43277,0 11.65597,-5.2232 11.65597,-11.65598 v -9.51171 c 1.48448,-0.49483 2.5841,-1.97931 2.5841,-3.62874 v -3.84867 z m -1.26456,7.91726 v 9.07186 c 0,5.05826 -4.06859,9.12685 -9.12684,9.12685 h -9.07187 v -9.01688 c 0,-5.11324 4.06859,-9.18183 9.18183,-9.18183 z m 5.82798,-2.52913 v 32.38381 c 0,0.71475 0.54981,1.26456 1.26456,1.26456 0.65978,0 1.26457,-0.54981 1.26457,-1.26456 v -13.63529 c 2.14426,2.74905 5.38814,4.50845 9.12684,4.50845 h 11.60099 v -11.65598 c 0,-6.37779 -5.22319,-11.60099 -11.60099,-11.60099 z m 2.52913,2.47415 h 9.12684 c 5.05826,0 9.12685,4.06859 9.12685,9.12684 v 9.12685 h -9.12685 c -5.05825,0 -9.12684,-4.06859 -9.12684,-9.12685 z m 46.01907,36.39742 h 0.055 c 0.71476,0 1.20959,-0.54981 1.20959,-1.26456 0,-2.19924 1.75939,-3.90365 3.95863,-3.95864 0.65977,0 1.26456,-0.54981 1.26456,-1.20958 0,-0.71475 -0.60479,-1.26456 -1.26456,-1.26456 -1.48449,0 -2.85901,0.54981 -3.95863,1.37452 v -20.94776 c 0,-6.37779 -5.2232,-11.60099 -11.601,-11.60099 h -11.65597 v 11.60099 c 0,6.43278 5.2232,11.65598 11.65597,11.65598 h 9.12685 v 14.35004 c 0,0.71475 0.49483,1.26456 1.20958,1.26456 z m -19.46327,-36.39742 h 9.12684 c 5.05826,0 9.12685,4.06859 9.12685,9.12684 v 9.12685 h -9.12685 c -5.05825,0 -9.12684,-4.06859 -9.12684,-9.12685 z m 27.6554,-5.16822 h 1.31954 c 0.76974,0 1.31955,0.6048 1.31955,1.31955 v 1.4295 h -1.31955 c -0.76973,0 -1.31954,-0.65977 -1.31954,-1.4295 z m -2.52913,-2.47414 v 3.79369 c 0,2.14426 1.75939,3.84867 3.84867,3.84867 h 1.31955 v 9.12684 c 0,5.05826 -4.0686,9.12685 -9.12685,9.12685 -0.65977,0 -1.26456,0.60479 -1.26456,1.26456 0,0.71476 0.60479,1.26457 1.26456,1.26457 6.43278,0 11.65597,-5.2232 11.65597,-11.65598 v -9.12684 h 2.19924 c 3.13392,0 5.66305,2.52912 5.66305,5.66304 v 8.687 c 0,3.51878 2.91399,6.43278 6.43277,6.43278 0.71476,0 1.26457,-0.54981 1.26457,-1.26457 0,-0.65977 -0.54981,-1.26456 -1.26457,-1.26456 -2.19924,0 -3.90365,-1.70441 -3.90365,-3.90365 v -8.687 c 0,-4.45346 -3.68373,-8.08221 -8.19217,-8.08221 h -2.19924 v -1.4295 c 0,-2.08928 -1.75939,-3.79369 -3.84867,-3.79369 z"
           id="path17" />
        <path
           style="font-family:'Leaf Tech';-inkscape-font-specification:'Leaf Tech';text-align:start;text-anchor:start"
           d="m 48.670087,270.10128 c 0,-0.16494 -0.05498,-0.32988 -0.109962,-0.49483 -1.209581,-2.74905 -4.068593,-4.94829 -7.532396,-4.94829 H 25.907954 v 4.72837 c 0,4.45346 3.683727,8.13719 8.192169,8.13719 h 12.590649 v 2.19924 c 0,3.13391 -2.529126,5.66304 -5.663043,5.66304 H 27.172517 c -0.714753,0 -1.264563,0.60479 -1.264563,1.26456 0,0.71476 0.54981,1.26457 1.264563,1.26457 h 13.855212 c 4.508442,0 8.137187,-3.68373 8.137187,-8.19217 v -4.67339 H 34.100123 c -3.133917,0 -5.663043,-2.52912 -5.663043,-5.66304 v -2.25422 h 12.590649 c 2.419164,0 4.39848,1.53947 5.223195,3.4638 0.164943,0.43985 0.604791,0.76974 1.154601,0.76974 0.714753,0 1.264562,-0.6048 1.264562,-1.26457 z m 5.058241,-15.83453 c -0.714753,0 -1.264563,0.54981 -1.264563,1.26457 v 20.67285 c 0,6.43278 5.278176,11.71096 11.710953,11.71096 0.714753,0 1.264563,-0.54981 1.264563,-1.26457 0,-0.65977 -0.54981,-1.26456 -1.264563,-1.26456 -5.113233,0 -9.181827,-4.06859 -9.181827,-9.18183 v -9.07186 h 9.071865 c 0.714753,0 1.264563,-0.54981 1.264563,-1.26456 0,-0.65978 -0.54981,-1.20959 -1.264563,-1.20959 h -9.071865 v -9.12684 c 0,-0.71476 -0.604791,-1.26457 -1.264563,-1.26457 z m 11.326052,10.39141 c -0.714753,0 -1.264563,0.54981 -1.264563,1.20959 v 10.33642 c 0,6.43278 5.278175,11.71096 11.710952,11.71096 h 11.54601 v -22.04738 c 0,-0.65978 -0.54981,-1.20959 -1.209582,-1.20959 -0.714753,0 -1.264563,0.54981 -1.264563,1.20959 V 285.386 h -9.071865 c -5.113233,0 -9.181826,-4.06859 -9.181826,-9.18183 v -10.33642 c 0,-0.65978 -0.604791,-1.20959 -1.264563,-1.20959 z m 47.33863,-5.38813 c -2.08928,0 -3.84867,1.75939 -3.84867,3.84867 h 2.3092 c 0,-0.76974 0.76974,-1.53947 1.53947,-1.53947 h 1.53947 v 1.53947 c 0,0.76973 -0.76974,1.53946 -1.53947,1.53946 -0.71475,0 -1.26456,0.54981 -1.26456,1.20959 V 285.386 h -9.07187 c -5.113231,0 -9.181825,-4.06859 -9.181825,-9.18183 v -10.33642 c 0,-0.65978 -0.604791,-1.20959 -1.264563,-1.20959 -0.714753,0 -1.264563,0.54981 -1.264563,1.20959 v 10.33642 c 0,6.43278 5.278176,11.71096 11.710951,11.71096 h 11.54601 v -21.16769 c 1.48449,-0.49483 2.63909,-1.97931 2.63909,-3.62874 v -3.84867 z m 4.50843,6.59772 c 0,0.32988 0.10996,0.65977 0.32988,0.87969 2.25423,2.52913 3.62875,5.82799 3.62875,9.51171 v 11.65598 h 4.23354 c 8.30213,0 15.06479,-6.76267 15.06479,-15.11978 v -6.9276 c 0,-0.65978 -0.54981,-1.20959 -1.20958,-1.20959 -0.71475,0 -1.26456,0.54981 -1.26456,1.20959 v 6.9276 c 0,6.98259 -5.66305,12.59065 -12.59065,12.59065 h -1.70441 v -9.12685 c 0,-4.28851 -1.64943,-8.24715 -4.28852,-11.21612 -0.21993,-0.21992 -0.54981,-0.38487 -0.93468,-0.38487 -0.71475,0 -1.26456,0.54981 -1.26456,1.20959 z m 50.25262,0 c 0,0.32988 0.10996,0.65977 0.32988,0.87969 2.25422,2.52913 3.62875,5.82799 3.62875,9.51171 v 9.12685 h -7.36745 c -2.19924,0 -3.90365,-1.70441 -3.95864,-3.84867 v -0.055 -8.687 c 0,-0.65977 -0.54981,-1.26456 -1.20958,-1.26456 h -0.055 c -0.65977,0 -1.20958,0.60479 -1.20958,1.26456 v 8.687 0.055 c -0.055,2.14426 -1.75939,3.84867 -3.95863,3.84867 h -7.36746 v -9.12685 c 0,-3.68372 1.37453,-6.98258 3.62875,-9.51171 0.21992,-0.21992 0.32989,-0.54981 0.32989,-0.87969 0,-0.65978 -0.54981,-1.20959 -1.26457,-1.20959 -0.38486,0 -0.71475,0.16495 -0.93467,0.38487 -2.63909,2.96897 -4.28852,6.92761 -4.28852,11.21612 v 11.65598 h 9.89658 c 2.14426,0 4.01361,-1.04464 5.22319,-2.63909 1.1546,1.59445 3.02396,2.63909 5.16822,2.63909 h 9.89658 v -11.65598 c 0,-4.28851 -1.59445,-8.24715 -4.28852,-11.21612 -0.21993,-0.21992 -0.54981,-0.38487 -0.93468,-0.38487 -0.71475,0 -1.26456,0.54981 -1.26456,1.20959 z m 11.05114,-1.20959 c -0.71475,0 -1.26456,0.54981 -1.26456,1.20959 0,0.71475 0.54981,1.26456 1.26456,1.26456 2.80403,0 5.4981,0.60479 7.86228,1.70441 -5.4981,4.01361 -9.12684,10.50137 -9.12684,17.81384 0,0.71476 0.54981,1.26457 1.26456,1.26457 0.65977,0 1.26456,-0.54981 1.26456,-1.26457 0,-6.98258 3.62875,-13.03049 9.12685,-16.4943 5.44312,3.46381 9.12685,9.51172 9.12685,16.4943 0,0.71476 0.54981,1.26457 1.26456,1.26457 0.65977,0 1.20958,-0.54981 1.20958,-1.26457 0,-7.31247 -3.57376,-13.80023 -9.12685,-17.81384 2.41917,-1.09962 5.05826,-1.70441 7.91727,-1.70441 0.65977,0 1.20958,-0.54981 1.20958,-1.26456 0,-0.65978 -0.54981,-1.20959 -1.20958,-1.20959 -3.79369,0 -7.31247,0.93468 -10.39141,2.58411 -3.13392,-1.64943 -6.6527,-2.58411 -10.39141,-2.58411 z m 48.54822,21.9924 v -20.78281 c 0,-0.65978 -0.54981,-1.20959 -1.20958,-1.20959 -0.71476,0 -1.26457,0.54981 -1.26457,1.20959 V 285.386 h -9.07186 c -5.11324,0 -9.18183,-4.06859 -9.18183,-9.18183 v -10.33642 c 0,-0.65978 -0.60479,-1.20959 -1.26456,-1.20959 -0.71476,0 -1.26457,0.54981 -1.26457,1.20959 v 10.33642 c 0,6.43278 5.27818,11.71096 11.71096,11.71096 h 8.90692 c -0.54981,3.02395 -3.1889,5.27817 -6.3778,5.27817 h -12.97551 c -0.71476,0 -1.26457,0.54981 -1.26457,1.26456 0,0.65978 0.54981,1.26457 1.26457,1.26457 h 12.97551 c 4.94829,0 9.01689,-4.0686 9.01689,-9.07187 z m 26.5558,-20.72783 v -0.055 c 0,-0.71476 -0.54981,-1.20959 -1.20958,-1.20959 h -2.63909 -18.14373 c -0.71475,0 -1.26456,0.54981 -1.26456,1.20959 0,0.71475 0.54981,1.26456 1.26456,1.26456 h 8.63202 c -5.88297,3.35384 -9.89658,9.67665 -9.89658,16.93415 v 3.84867 h 13.69027 c -0.54981,2.52912 -2.80404,4.39848 -5.4981,4.39848 -0.71476,0 -1.26457,0.54981 -1.26457,1.26456 0,0.71475 0.54981,1.26456 1.26457,1.26456 4.12357,0 7.47741,-2.96897 8.02722,-6.9276 3.95863,-0.54981 7.03757,-4.0686 7.03757,-8.19217 v -1.26457 h -1.20958 c -4.12358,0 -7.47742,3.02396 -8.08221,6.92761 h -11.43605 v -1.31954 c 0,-9.34677 7.5324,-16.93415 16.87917,-16.93415 h 2.63909 c 0.71475,0 1.20958,-0.49483 1.20958,-1.20958 z m -2.69407,15.28471 c -0.54981,1.92434 -2.0343,3.46381 -4.01361,3.95864 0.54981,-1.92434 2.03429,-3.46381 4.01361,-3.95864 z"
           id="path18" />
      </g>
    </g>
  </g>
</svg>
