<?xml version="1.0" encoding="UTF-8" standalone="no"?>
<!-- Created with Inkscape (http://www.inkscape.org/) -->

<svg
   version="1.1"
   id="svg1"
   width="37.714287"
   height="21.333332"
   viewBox="0 0 37.714287 21.333332"
   sodipodi:docname="PowerToys_UWP_Assets.svg"
   inkscape:version="1.4 (86a8ad7, 2024-10-11)"
   xmlns:inkscape="http://www.inkscape.org/namespaces/inkscape"
   xmlns:sodipodi="http://sodipodi.sourceforge.net/DTD/sodipodi-0.dtd"
   xmlns="http://www.w3.org/2000/svg"
   xmlns:svg="http://www.w3.org/2000/svg">
  <defs
     id="defs1">
    <linearGradient
       x1="0"
       y1="0"
       x2="1"
       y2="0"
       gradientUnits="userSpaceOnUse"
       gradientTransform="matrix(-10.649454,18.445394,18.445394,10.649454,13.324727,-1.2226976)"
       spreadMethod="pad"
       id="linearGradient35">
      <stop
         style="stop-opacity:1;stop-color:#d7ccb3"
         offset="0"
         id="stop34" />
      <stop
         style="stop-opacity:1;stop-color:#f2e6ca"
         offset="1"
         id="stop35" />
    </linearGradient>
    <clipPath
       clipPathUnits="userSpaceOnUse"
       id="clipPath37">
      <path
         d="M 0,16 H 16 V 0 H 0 Z"
         id="path37" />
    </clipPath>
    <linearGradient
       x1="0"
       y1="0"
       x2="1"
       y2="0"
       gradientUnits="userSpaceOnUse"
       gradientTransform="matrix(-1.2440726,2.1547968,2.1547968,1.2440726,4.6220365,2.9226015)"
       spreadMethod="pad"
       id="linearGradient38">
      <stop
         style="stop-opacity:1;stop-color:#d7ccb3"
         offset="0"
         id="stop37" />
      <stop
         style="stop-opacity:1;stop-color:#f2e6ca"
         offset="1"
         id="stop38" />
    </linearGradient>
    <linearGradient
       x1="0"
       y1="0"
       x2="1"
       y2="0"
       gradientUnits="userSpaceOnUse"
       gradientTransform="matrix(-1.2440726,2.1547968,2.1547968,1.2440726,8.622036,2.9226015)"
       spreadMethod="pad"
       id="linearGradient40">
      <stop
         style="stop-opacity:1;stop-color:#d7ccb3"
         offset="0"
         id="stop39" />
      <stop
         style="stop-opacity:1;stop-color:#f2e6ca"
         offset="1"
         id="stop40" />
    </linearGradient>
    <linearGradient
       x1="0"
       y1="0"
       x2="1"
       y2="0"
       gradientUnits="userSpaceOnUse"
       gradientTransform="matrix(-1.2440726,2.1547968,2.1547968,1.2440726,12.622036,2.9226015)"
       spreadMethod="pad"
       id="linearGradient42">
      <stop
         style="stop-opacity:1;stop-color:#d7ccb3"
         offset="0"
         id="stop41" />
      <stop
         style="stop-opacity:1;stop-color:#f2e6ca"
         offset="1"
         id="stop42" />
    </linearGradient>
    <linearGradient
       x1="0"
       y1="0"
       x2="1"
       y2="0"
       gradientUnits="userSpaceOnUse"
       gradientTransform="matrix(0,6,6,0,4.5,7)"
       spreadMethod="pad"
       id="linearGradient45">
      <stop
         style="stop-opacity:1;stop-color:#231f20"
         offset="0"
         id="stop43" />
      <stop
         style="stop-opacity:1;stop-color:#d83b01"
         offset="0.0027933"
         id="stop44" />
      <stop
         style="stop-opacity:1;stop-color:#ec6725"
         offset="1"
         id="stop45" />
    </linearGradient>
    <linearGradient
       x1="0"
       y1="0"
       x2="1"
       y2="0"
       gradientUnits="userSpaceOnUse"
       gradientTransform="matrix(0,6,6,0,6.75,7)"
       spreadMethod="pad"
       id="linearGradient48">
      <stop
         style="stop-opacity:1;stop-color:#231f20"
         offset="0"
         id="stop46" />
      <stop
         style="stop-opacity:1;stop-color:#ffb900"
         offset="0.0027933"
         id="stop47" />
      <stop
         style="stop-opacity:1;stop-color:#fef000"
         offset="1"
         id="stop48" />
    </linearGradient>
    <linearGradient
       x1="0"
       y1="0"
       x2="1"
       y2="0"
       gradientUnits="userSpaceOnUse"
       gradientTransform="matrix(0,6,6,0,11.5,7)"
       spreadMethod="pad"
       id="linearGradient51">
      <stop
         style="stop-opacity:1;stop-color:#231f20"
         offset="0"
         id="stop49" />
      <stop
         style="stop-opacity:1;stop-color:#0078d4"
         offset="0.0027933"
         id="stop50" />
      <stop
         style="stop-opacity:1;stop-color:#28afea"
         offset="1"
         id="stop51" />
    </linearGradient>
    <linearGradient
       x1="0"
       y1="0"
       x2="1"
       y2="0"
       gradientUnits="userSpaceOnUse"
       gradientTransform="matrix(0,6,6,0,9.25,7)"
       spreadMethod="pad"
       id="linearGradient54">
      <stop
         style="stop-opacity:1;stop-color:#231f20"
         offset="0"
         id="stop52" />
      <stop
         style="stop-opacity:1;stop-color:#56b60e"
         offset="0.0027933"
         id="stop53" />
      <stop
         style="stop-opacity:1;stop-color:#66eb6e"
         offset="1"
         id="stop54" />
    </linearGradient>
    <clipPath
       clipPathUnits="userSpaceOnUse"
       id="clipPath56">
      <path
         d="M 0,16 H 16 V 0 H 0 Z"
         id="path56" />
    </clipPath>
  </defs>
  <sodipodi:namedview
     id="namedview1"
     pagecolor="#ffffff"
     bordercolor="#000000"
     borderopacity="0.25"
     inkscape:showpageshadow="2"
     inkscape:pageopacity="0.0"
     inkscape:pagecheckerboard="0"
     inkscape:deskcolor="#d1d1d1"
     inkscape:zoom="18.914063"
     inkscape:cx="20.910367"
     inkscape:cy="10.283353"
     inkscape:window-width="1920"
     inkscape:window-height="1009"
     inkscape:window-x="-8"
     inkscape:window-y="-8"
     inkscape:window-maximized="1"
     inkscape:current-layer="layer-MC11">
    <inkscape:page
       x="0"
       y="0"
       id="page1"
       width="37.714287"
       height="21.333332"
       margin="0"
       bleed="0" />
  </sodipodi:namedview>
  <g
     id="layer-MC11"
     inkscape:groupmode="layer"
     inkscape:label="Ramp Work"
     style="display:inline">
    <g
       id="g1"
       transform="translate(8.1904769)">
      <path
         id="path35"
         d="M 0.761,16 C 0.341,16 0,15.659 0,15.238 v 0 V 0.761 C 0,0.341 0.341,0 0.761,0 V 0 H 15.238 C 15.659,0 16,0.341 16,0.761 v 0 14.477 C 16,15.659 15.659,16 15.238,16 v 0 z"
         transform="matrix(1.3333333,0,0,-1.3333333,0,21.333333)"
         style="fill:url(#linearGradient35);stroke:none" />
      <path
         id="path36"
         d="M 15,1 H 1 v 14 h 14 z"
         style="fill:#666666;fill-opacity:1;fill-rule:nonzero;stroke:none"
         transform="matrix(1.3333333,0,0,-1.3333333,0,21.333333)"
         clip-path="url(#clipPath37)" />
      <path
         id="path38"
         d="M 3.334,5 C 3.149,5 3,4.851 3,4.667 v 0 -1.333 C 3,3.149 3.149,3 3.334,3 V 3 H 4.667 C 4.851,3 5,3.149 5,3.334 v 0 1.333 C 5,4.851 4.851,5 4.667,5 v 0 z"
         transform="matrix(1.3333333,0,0,-1.3333333,0,21.333333)"
         style="fill:url(#linearGradient38);stroke:none" />
      <path
         id="path40"
         d="M 7.333,5 C 7.15,5 7,4.851 7,4.667 v 0 -1.333 C 7,3.149 7.15,3 7.333,3 V 3 H 8.666 C 8.851,3 9,3.149 9,3.334 v 0 1.333 C 9,4.851 8.851,5 8.666,5 v 0 z"
         transform="matrix(1.3333333,0,0,-1.3333333,0,21.333333)"
         style="fill:url(#linearGradient40);stroke:none" />
      <path
         id="path42"
         d="M 11.334,5 C 11.149,5 11,4.851 11,4.667 v 0 -1.333 C 11,3.149 11.149,3 11.334,3 v 0 h 1.333 C 12.85,3 13,3.149 13,3.334 v 0 1.333 C 13,4.851 12.85,5 12.667,5 v 0 z"
         transform="matrix(1.3333333,0,0,-1.3333333,0,21.333333)"
         style="fill:url(#linearGradient42);stroke:none" />
      <path
         id="path45"
         d="m 3,7 h 3.001 v 5.999 H 3 Z"
         transform="matrix(1.3333333,0,0,-1.3333333,0,21.333333)"
         style="fill:url(#linearGradient45);stroke:none" />
      <path
         id="path48"
         d="M 5.5,7 H 8 v 5.999 H 5.5 Z"
         transform="matrix(1.3333333,0,0,-1.3333333,0,21.333333)"
         style="fill:url(#linearGradient48);stroke:none" />
      <path
         id="path51"
         d="m 10,7 h 3 v 5.999 h -3 z"
         transform="matrix(1.3333333,0,0,-1.3333333,0,21.333333)"
         style="fill:url(#linearGradient51);stroke:none" />
      <path
         id="path54"
         d="m 8,7 h 2.5 v 5.999 H 8 Z"
         transform="matrix(1.3333333,0,0,-1.3333333,0,21.333333)"
         style="fill:url(#linearGradient54);stroke:none" />
      <path
         id="path55"
         d="M 13,6 H 3 v 1 h 10 z"
         style="fill:#4d4d4d;fill-opacity:1;fill-rule:nonzero;stroke:none"
         transform="matrix(1.3333333,0,0,-1.3333333,0,21.333333)"
         clip-path="url(#clipPath56)" />
    </g>
  </g>
</svg>
