<?xml version="1.0" encoding="UTF-8" standalone="no"?>
<!-- Created with Inkscape (http://www.inkscape.org/) -->

<svg
   version="1.1"
   id="svg1"
   width="495"
   height="280"
   viewBox="0 0 495 280"
   sodipodi:docname="Font Cover landscape.svg"
   inkscape:version="1.4 (86a8ad7, 2024-10-11)"
   inkscape:export-filename="Font Cover landscape.png"
   inkscape:export-xdpi="96"
   inkscape:export-ydpi="96"
   xmlns:inkscape="http://www.inkscape.org/namespaces/inkscape"
   xmlns:sodipodi="http://sodipodi.sourceforge.net/DTD/sodipodi-0.dtd"
   xmlns="http://www.w3.org/2000/svg"
   xmlns:svg="http://www.w3.org/2000/svg">
  <defs
     id="defs1">
    <rect
       x="198.13704"
       y="58.2756"
       width="26.763609"
       height="44.893795"
       id="rect14" />
    <rect
       x="142.88313"
       y="45.325466"
       width="116.98287"
       height="137.27142"
       id="rect11" />
  </defs>
  <sodipodi:namedview
     id="namedview1"
     pagecolor="#ffffff"
     bordercolor="#000000"
     borderopacity="0.25"
     inkscape:showpageshadow="2"
     inkscape:pageopacity="0.0"
     inkscape:pagecheckerboard="0"
     inkscape:deskcolor="#d1d1d1"
     inkscape:zoom="2.0267851"
     inkscape:cx="251.87673"
     inkscape:cy="144.81062"
     inkscape:window-width="1920"
     inkscape:window-height="1009"
     inkscape:window-x="-8"
     inkscape:window-y="-8"
     inkscape:window-maximized="1"
     inkscape:current-layer="g38"
     showguides="false" />
  <g
     inkscape:groupmode="layer"
     inkscape:label="Image"
     id="g1"
     transform="translate(-19.645168,-21.043139)">
    <rect
       style="display:inline;opacity:1;fill:#ffffff;fill-opacity:0.578313"
       id="rect3"
       width="495.00003"
       height="279.99997"
       x="19.855019"
       y="20.665426"
       sodipodi:insensitive="true" />
    <rect
       style="opacity:0.861111;fill:#88009b;fill-opacity:1;stroke-width:0.999998"
       id="rect1"
       width="495.00003"
       height="280"
       x="19.645168"
       y="21.043139"
       inkscape:label="Background"
       sodipodi:insensitive="true" />
    <g
       id="g39"
       inkscape:label="Texts"
       transform="translate(7.2499965,-4)"
       style="display:none">
      <text
         xml:space="preserve"
         style="font-size:143.593px;text-align:start;writing-mode:lr-tb;direction:ltr;text-anchor:start;display:inline;opacity:1;fill:#3a0043;fill-opacity:0.576471;stroke-width:11.9661"
         x="25.764984"
         y="147.12914"
         id="text1"><tspan
           sodipodi:role="line"
           id="tspan1"
           x="25.764984"
           y="147.12914"
           style="font-style:normal;font-variant:normal;font-weight:normal;font-stretch:normal;font-family:TallThin;-inkscape-font-specification:TallThin;fill:#3a0043;fill-opacity:0.576471;stroke-width:11.9661">ABЧ<tspan
   style="letter-spacing:-5px"
   id="tspan66">Þ</tspan>ꞰŊ<tspan
   style="font-style:normal;font-variant:normal;font-weight:normal;font-stretch:normal;font-family:TallThin;-inkscape-font-specification:TallThin;letter-spacing:-5.21208px;stroke-width:11.9661"
   id="tspan9">ȢΦ</tspan></tspan></text>
      <text
         xml:space="preserve"
         style="font-size:98.4185px;text-align:end;writing-mode:lr-tb;direction:ltr;text-anchor:end;display:inline;opacity:0.81;fill:#32003a;fill-opacity:1;stroke:#32003a;stroke-width:2;stroke-dasharray:none;stroke-opacity:1;paint-order:normal"
         x="482.94357"
         y="292.28152"
         id="text2"><tspan
           sodipodi:role="line"
           id="tspan2"
           x="482.94357"
           y="292.28152"
           style="font-style:normal;font-variant:normal;font-weight:normal;font-stretch:normal;font-family:TallThin;-inkscape-font-specification:TallThin;text-align:end;text-anchor:end;fill:#32003a;fill-opacity:1;stroke:none;stroke-width:2;stroke-dasharray:none;stroke-opacity:1;paint-order:normal"><tspan
   style="letter-spacing:-8px;stroke:none"
   id="tspan53">T</tspan>all<tspan
   style="letter-spacing:-6px;stroke:none"
   id="tspan54">T</tspan>hin</tspan></text>
      <text
         xml:space="preserve"
         style="font-style:normal;font-variant:normal;font-weight:normal;font-stretch:normal;font-size:56.7279px;line-height:0.8;font-family:TallThin;-inkscape-font-specification:TallThin;text-align:end;letter-spacing:0px;writing-mode:lr-tb;direction:ltr;text-anchor:end;opacity:0.861111;fill:#3a0043;fill-opacity:0.576471;stroke:none;stroke-width:1.70183;stroke-dasharray:none;stroke-opacity:1;paint-order:normal"
         x="38.514492"
         y="196.90248"
         id="text56"><tspan
           sodipodi:role="line"
           x="38.514492"
           y="196.90248"
           style="line-height:0.8;text-align:start;letter-spacing:0px;text-anchor:start;fill:#3a0043;fill-opacity:0.576471;stroke-width:1.70183"
           id="tspan60">abcçdefφþðgȝhƕijkʞlmnиŋ</tspan><tspan
           sodipodi:role="line"
           x="38.514492"
           y="242.28481"
           style="line-height:0.8;text-align:start;letter-spacing:0px;text-anchor:start;fill:#3a0043;fill-opacity:0.576471;stroke-width:1.70183"
           id="tspan63">oꝏpqrsʃtч</tspan><tspan
           sodipodi:role="line"
           x="38.514492"
           y="287.66711"
           style="line-height:0.8;text-align:start;letter-spacing:0px;text-anchor:start;fill:#3a0043;fill-opacity:0.576471;stroke-width:1.70183"
           id="tspan65">uȣvwxyz</tspan></text>
    </g>
    <g
       id="g38"
       inkscape:label="Vectors"
       transform="translate(-3.4533689,-4)"
       style="display:inline"
       sodipodi:insensitive="true">
      <g
         id="text69"
         style="font-size:143.593px;fill:#3a0043;fill-opacity:0.576471;stroke-width:11.9661"
         transform="translate(10.703365)"
         aria-label="ABЧÞꞰŊȢΦ">
        <path
           style="font-family:TallThin;-inkscape-font-specification:TallThin"
           d="M 68.842885,106.92309 H 44.432074 V 50.203859 c 0,-3.589825 2.87186,-6.461686 6.461686,-6.461686 H 62.3812 c 3.589825,0 6.461685,2.871861 6.461685,6.461686 z m 0,40.20605 h 11.48744 V 44.460138 c 0,-3.589825 -2.87186,-6.461685 -6.461685,-6.461685 H 39.406319 c -3.589825,0 -6.461685,2.87186 -6.461685,6.461685 V 147.12914 h 11.48744 V 112.66681 H 68.842885 Z M 130.58792,56.665544 v 37.33418 c 0,7.179646 -5.88732,12.923366 -13.06697,12.923366 H 106.17711 V 43.742173 h 11.48744 c 7.17965,0 12.92337,5.743721 12.92337,12.923371 z m 11.48744,77.540216 v -14.3593 c 0,-4.0206 -1.86671,-7.61042 -4.88216,-10.05151 3.01545,-2.44108 4.88216,-6.0309 4.88216,-10.051506 v -48.82162 c 0,-7.179651 -5.74372,-12.923371 -12.92337,-12.923371 H 94.689668 V 147.12914 h 34.462322 c 7.17965,0 12.92337,-5.74372 12.92337,-12.92338 z m -24.41081,-21.53895 c 7.17965,0 12.92337,5.74372 12.92337,12.92337 v 2.87186 c 0,7.03606 -5.74372,12.92338 -12.92337,12.92338 h -11.48744 v -28.71861 z m 37.33422,-74.668357 v 68.206677 c 0,3.58982 2.87186,6.46168 6.46169,6.46168 h 29.43656 v 34.46233 h 11.48744 V 37.998453 H 190.89702 V 106.92309 H 172.9479 c -3.58983,0 -6.46169,-2.87186 -6.46169,-6.46168 V 37.998453 Z"
           id="path82" />
        <path
           style="font-family:TallThin;-inkscape-font-specification:TallThin;letter-spacing:-5px"
           d="m 225.35932,62.409264 h 11.48744 c 7.17965,0 12.92337,5.74372 12.92337,12.92337 v 34.462316 c 0,7.17965 -5.74372,12.92337 -12.92337,12.92337 H 225.35932 Z M 213.87188,37.998453 V 147.12914 h 11.48744 v -18.6671 h 22.97488 c 7.17965,0 12.92337,-5.74372 12.92337,-12.92337 V 69.588914 c 0,-7.17965 -5.74372,-12.92337 -12.92337,-12.92337 H 225.35932 V 37.998453 Z"
           id="path83" />
        <path
           style="font-family:TallThin;-inkscape-font-specification:TallThin"
           d="m 296.1764,106.92309 c -0.28718,0 -0.57437,0 -0.86156,0 L 282.82225,49.629487 c -1.43593,-6.892465 -4.59497,-9.764325 -9.18995,-11.631034 h -5.88731 v 10.195104 c 3.73341,1.005151 7.32324,5.025755 8.1848,9.189952 0.14359,0.143593 4.45138,25.128775 10.76947,51.549891 -1.14874,0.43078 -2.29749,1.00515 -3.15904,1.43593 -9.47714,5.16934 -15.79523,16.22601 -15.79523,26.70829 v 10.05152 h 11.48744 v -10.19511 c 0,-14.21571 8.32839,-23.83644 24.41081,-23.83644 v 34.03155 h 11.48744 V 37.998453 h -11.48744 v 68.924637 h -6.46169 z m 41.92912,18.66709 V 50.060266 h 4.30779 c 4.0206,0 7.75402,1.723116 10.48229,4.30779 l 9.62073,9.333545 v 61.888579 2.72827 0.14359 c 0,7.17965 -5.74372,12.92338 -12.92337,12.92338 h -21.53895 v 5.74372 h 33.02639 c 7.17965,0 12.92337,-5.74372 12.92337,-12.92338 v -0.14359 -11.34385 -84.719867 h -11.48744 v 17.66194 c -4.59498,-4.451383 -9.18995,-8.902766 -13.92852,-13.35415 -2.72827,-2.728267 -6.46169,-4.30779 -10.48229,-4.30779 h -2.0103 -9.47714 v 87.591727 z"
           id="path84" />
        <path
           style="font-family:TallThin;-inkscape-font-specification:TallThin;letter-spacing:-5.21208px"
           d="m 385.49119,134.20576 c 0,7.17966 5.74372,12.92338 12.92337,12.92338 h 21.53895 c 7.17965,0 12.92337,-5.74372 12.92337,-12.92338 v -30.15453 c 0,-5.025751 -2.87186,-9.333541 -7.03606,-11.487436 4.1642,-2.153895 7.03606,-6.461685 7.03606,-11.48744 V 37.998453 h -11.48744 v 37.334181 c 0,6.892464 -5.45654,12.492591 -12.20541,12.92337 -6.74887,-0.430779 -12.2054,-6.030906 -12.2054,-12.92337 V 37.998453 h -11.48744 v 43.077901 c 0,5.025755 2.87186,9.333545 7.03605,11.48744 -4.16419,2.153895 -7.03605,6.461685 -7.03605,11.487436 z m 11.48744,-24.41081 c 0,-6.89246 5.45653,-12.492587 12.2054,-12.923366 6.74887,0.430779 12.20541,6.030906 12.20541,12.923366 v 18.66709 c 0,6.89247 -5.45654,12.4926 -12.20541,12.92338 -6.74887,-0.43078 -12.2054,-6.03091 -12.2054,-12.92338 z m 73.76406,24.41081 h 7.17965 c 7.17965,0 12.92337,-5.74372 12.92337,-12.92337 V 63.845194 c 0,-7.17965 -5.74372,-12.92337 -12.92337,-12.92337 h -7.17965 V 37.998453 h -11.48744 v 12.923371 h -7.17965 c -7.17965,0 -12.92337,5.74372 -12.92337,12.92337 v 57.437196 c 0,7.17965 5.74372,12.92337 12.92337,12.92337 h 7.17965 v 12.92338 h 11.48744 z m -0.71797,-6.17449 V 57.096323 c 5.45654,1.579523 9.33355,6.605278 9.33355,12.492591 v 45.949756 c 0,5.88732 -3.87701,10.91307 -9.33355,12.4926 z M 459.97321,57.096323 v 70.934947 c -5.45653,-1.57953 -9.33354,-6.60528 -9.33354,-12.4926 V 69.588914 c 0,-5.887313 3.87701,-10.913068 9.33354,-12.492591 z"
           id="path85" />
      </g>
      <g
         id="text72"
         style="font-size:98.4185px;text-align:end;text-anchor:end;opacity:0.81;fill:#32003a;stroke:#32003a;stroke-width:2"
         transform="translate(10.703365)"
         aria-label="TallThin">
        <path
           style="font-family:TallThin;-inkscape-font-specification:TallThin;letter-spacing:-8px;stroke:none"
           d="m 258.27848,217.48346 v 3.93674 h 11.81022 v 66.43249 c 0,2.46046 1.77153,4.42883 3.93674,4.42883 h 8.07032 v -3.93674 h -0.19684 c -2.16521,0 -3.93674,-1.96837 -3.93674,-4.42883 V 221.4202 h 12.7944 v -3.93674 z"
           id="path78" />
        <path
           style="font-family:TallThin;-inkscape-font-specification:TallThin;stroke:none"
           d="m 301.8498,264.62593 h -2.36204 -3.34623 -0.0984 c -2.46046,0 -4.42883,2.06678 -4.42883,4.52725 v 18.109 0.49209 c 0,2.46047 1.96837,4.52725 4.42883,4.52725 h 0.0984 8.46399 0.0984 0.29525 0.0984 c 1.27944,0 2.46047,-0.59051 3.24781,-1.57469 v 1.57469 h 3.34623 4.52725 v -5.31459 -36.31643 -5.01935 c 0,-2.46046 -1.96837,-4.52725 -4.42883,-4.52725 h -0.0984 -6.79087 -8.75925 -0.0984 c -2.46046,0 -4.42883,2.06679 -4.42883,4.52725 v 0.19684 3.64149 h 7.4798 0.19684 0.19684 c 0,-2.46047 1.86995,-4.42884 4.33041,-4.42884 h 0.0984 0.0984 c 2.46046,0 4.33041,2.06679 4.33041,4.52725 v 0.0984 1.47628 8.66083 0.19684 0.0984 c 0,2.46047 -1.86995,4.52726 -4.33041,4.52726 h -0.0984 z m 3.44465,4.03515 h 0.0984 c 1.18102,0 2.16521,-0.39367 2.95255,-1.18102 v 15.64854 0.4921 0.0984 c 0,2.46047 -1.86995,4.52726 -4.33041,4.52726 h -0.0984 -0.0984 c -2.46046,0 -4.33041,-2.06679 -4.33041,-4.52726 v -0.0984 -0.88577 -9.44818 -0.0984 c 0,-2.46047 1.86995,-4.52726 4.33041,-4.52726 h 0.0984 1.27944 z m 26.6714,23.62044 h 5.3146 0.0984 c 0.68893,0 0.78735,-0.19683 1.08261,-0.49209 l 1.37785,-1.47628 -1.37785,-1.47627 c -0.29526,-0.29526 -0.39368,-0.4921 -1.08261,-0.4921 -6.3972,0 -6.3972,-3.93674 -6.3972,-8.85766 v -60.03529 h -7.87348 v 63.97203 c 0,4.92092 3.93674,8.85766 8.85766,8.85766 z m 18.69957,0 h 5.3146 0.0984 c 0.68893,0 0.78735,-0.19683 1.0826,-0.49209 l 1.37786,-1.47628 -1.37786,-1.47627 c -0.29525,-0.29526 -0.39367,-0.4921 -1.0826,-0.4921 -6.3972,0 -6.3972,-3.93674 -6.3972,-8.85766 v -60.03529 h -7.87348 v 63.97203 c 0,4.92092 3.93674,8.85766 8.85766,8.85766 z"
           id="path79" />
        <path
           style="font-family:TallThin;-inkscape-font-specification:TallThin;letter-spacing:-6px;stroke:none"
           d="m 362.4757,217.48346 v 3.93674 h 11.81022 v 66.43249 c 0,2.46046 1.77153,4.42883 3.93674,4.42883 h 8.07032 v -3.93674 h -0.19684 c -2.16521,0 -3.93674,-1.96837 -3.93674,-4.42883 V 221.4202 h 12.7944 v -3.93674 z"
           id="path80" />
        <path
           style="font-family:TallThin;-inkscape-font-specification:TallThin;stroke:none"
           d="m 397.81151,219.45183 v 72.82969 h 7.87348 v -35.92275 c 0,-8.56241 1.27944,-11.31813 4.42883,-11.31813 3.05097,0 4.42883,2.75572 4.42883,11.31813 v 35.92275 h 7.87348 v -38.8753 c 0,-7.77507 -4.52725,-12.30232 -11.31813,-12.30232 h -1.96837 c -1.37786,0 -2.75571,0.29526 -3.44464,0.68893 v -22.341 z m 32.47808,68.40086 V 241.1039 h 7.87348 v 42.81205 c 0,2.46046 1.77154,4.42883 3.93674,4.42883 h 4.42884 v 3.93674 h -12.30232 c -2.1652,0 -3.93674,-1.96837 -3.93674,-4.42883 z m -0.98418,-57.87008 c 0,0.98419 0.49209,2.16521 1.37786,2.85414 l 3.54306,3.44465 3.54307,-3.44465 c 0.88577,-0.68893 1.37786,-1.86995 1.37786,-2.85414 0,-0.98418 -0.49209,-2.06679 -1.37786,-2.75572 l -3.54307,-3.44464 -3.54306,3.44464 c -0.88577,0.68893 -1.37786,1.77154 -1.37786,2.75572 z m 29.03345,62.29891 v -42.91046 c 2.75571,0 5.31459,1.0826 7.18455,2.95255 l 5.60985,5.41302 v 34.54489 h 7.87348 v -49.20925 c 0,-0.78734 -0.39367,-1.57469 -1.0826,-2.1652 l -2.85414,-2.75572 -2.85414,2.75572 c -0.68893,0.59051 -1.0826,1.37786 -1.0826,2.1652 v 9.15292 l -8.56241,-8.16873 c -1.86995,-1.86995 -4.42883,-2.95256 -7.18455,-2.95256 h -0.68893 -0.68893 -3.54307 v 51.17762 z"
           id="path81" />
      </g>
      <g
         id="text75"
         style="font-size:56.7279px;line-height:0.8;font-family:TallThin;-inkscape-font-specification:TallThin;text-align:end;letter-spacing:0px;text-anchor:end;opacity:0.861111;fill:#3a0043;fill-opacity:0.576471;stroke-width:1.70183"
         transform="translate(10.703365)"
         aria-label="abcçdefφþðgȝhƕijkʞlmnиŋ&#10;oꝏpqrsʃtч&#10;uȣvwxyz">
        <path
           style="text-align:start;text-anchor:start"
           d="m 46.68331,180.96194 h -1.36147 -1.928748 -0.05673 c -1.418198,0 -2.552756,1.19129 -2.552756,2.60948 v 10.43794 0.28364 c 0,1.4182 1.134558,2.60948 2.552756,2.60948 h 0.05673 4.878599 0.05673 0.170184 0.05673 c 0.737462,0 1.418197,-0.34037 1.87202,-0.90765 v 0.90765 h 1.928749 2.609483 v -3.06331 -20.93259 -2.89312 c 0,-1.4182 -1.134558,-2.60949 -2.552755,-2.60949 h -0.05673 -3.914225 -5.048783 -0.05673 c -1.418198,0 -2.552756,1.19129 -2.552756,2.60949 v 0.11345 2.09893 h 4.311321 0.113455 0.113456 c 0,-1.41819 1.07783,-2.55275 2.496028,-2.55275 h 0.05673 0.05673 c 1.418197,0 2.496027,1.19128 2.496027,2.60948 v 0.0567 0.85092 4.99205 0.11346 0.0567 c 0,1.41819 -1.07783,2.60948 -2.496027,2.60948 h -0.05673 z m 1.985476,2.32584 h 0.05673 c 0.680735,0 1.248014,-0.22691 1.701837,-0.68073 v 9.01974 0.28364 0.0567 c 0,1.4182 -1.07783,2.60949 -2.496027,2.60949 h -0.05673 -0.05673 c -1.418198,0 -2.496028,-1.19129 -2.496028,-2.60949 v -0.0567 -0.51056 -5.44587 -0.0567 c 0,-1.4182 1.07783,-2.60949 2.496028,-2.60949 h 0.05673 0.737462 z m 10.835025,-28.36395 h 4.538233 v 12.48014 h 4.538232 c 2.836395,0 5.105511,2.26912 5.105511,5.10551 v 19.28749 c 0,2.8364 -2.269116,5.10551 -5.105511,5.10551 h -2.72294 -0.113455 -0.113456 c -0.624007,0 -1.134558,-0.22691 -1.588381,-0.56728 v 0.56728 h -4.538233 z m 4.538233,14.74926 v 24.96028 c 2.836395,0 5.105511,-2.26912 5.105511,-5.10552 V 174.7786 c 0,-2.8364 -2.269116,-5.10551 -5.105511,-5.10551 z m 28.363946,24.96028 h -7.090987 c -1.418198,0 -2.552756,-1.13456 -2.552756,-2.55276 v -19.85477 c 0,-1.41819 1.134558,-2.55275 2.552756,-2.55275 h 7.090987 v -2.26912 H 80.77677 c -1.418197,0 -2.552755,1.13456 -2.552755,2.55276 v 24.393 c 0,1.41819 1.134558,2.55275 2.552755,2.55275 h 11.62922 z m 18.7202,0 h -7.09098 c -1.4182,0 -2.55276,-1.13456 -2.55276,-2.55276 v -19.85477 c 0,-1.41819 1.13456,-2.55275 2.55276,-2.55275 h 7.09098 v -2.26912 H 99.496974 c -1.418198,0 -2.552756,1.13456 -2.552756,2.55276 v 24.393 c 0,1.41819 1.134558,2.55275 2.552756,2.55275 h 11.629216 z m 18.72021,-39.70954 h -4.53824 v 12.48014 h -4.53823 c -2.83639,0 -5.10551,2.26912 -5.10551,5.10551 v 19.28749 c 0,2.8364 2.26912,5.10551 5.10551,5.10551 h 2.72294 0.11346 0.11345 c 0.62401,0 1.13456,-0.22691 1.58838,-0.56728 v 0.56728 h 4.53824 z m -4.53824,14.74926 v 24.96028 c -2.83639,0 -5.10551,-2.26912 -5.10551,-5.10552 V 174.7786 c 0,-2.8364 2.26912,-5.10551 5.10551,-5.10551 z m 11.62922,-2.26912 c -1.4182,0 -2.55276,1.13456 -2.55276,2.55276 v 24.393 c 0,1.41819 1.13456,2.55275 2.55276,2.55275 h 11.62922 v -2.26911 h -7.09099 c -1.4182,0 -2.55276,-1.13456 -2.55276,-2.55276 v -8.79283 h 7.09099 c 1.4182,0 2.55276,-1.13455 2.55276,-2.55275 v -10.7783 c 0,-1.4182 -1.13456,-2.55276 -2.55276,-2.55276 z m 4.4815,2.26912 h 0.11346 c 1.41819,0 2.49602,1.19128 2.49602,2.60948 v 6.18334 c 0,1.4182 -1.13455,2.55276 -2.55275,2.55276 h -2.55276 v -8.79283 c 0,-1.41819 1.07783,-2.55275 2.49603,-2.55275 z m 25.86792,-9.53029 v 2.15566 h -4.53823 c 0,-2.72294 0,-5.10551 -2.55275,-5.10551 -2.55276,0 -2.55276,2.38257 -2.55276,5.10551 v 0.11346 11.85613 c 0.17018,-0.0567 0.3971,-0.0567 0.56728,-0.0567 h 0.0567 6.75062 v 2.26912 h -4.82187 c -2.55276,0 -2.55276,1.24801 -2.55276,3.97095 v 1.19129 15.2598 h -4.53823 v -15.2598 -2.32585 -19.17403 -0.11345 c 0,-2.8364 2.26911,-5.10552 5.10551,-5.10552 h 3.97095 c 2.8364,0 5.10551,2.26912 5.10551,5.10552 z m 17.01837,7.26117 v -7.37462 h -4.53823 v 7.37462 h -2.83639 c -2.8364,0 -5.10551,2.26912 -5.10551,5.10551 v 19.28749 c 0,2.8364 2.26911,5.10551 5.10551,5.10551 h 2.83639 v 7.37463 h 4.53823 v -7.37463 h 2.8364 c 2.83639,0 5.10551,-2.26911 5.10551,-5.10551 v -19.28749 c 0,-2.83639 -2.26912,-5.10551 -5.10551,-5.10551 z m 0,26.94576 v -24.393 c 1.98548,0.68073 3.40368,2.60948 3.40368,4.82187 v 14.74925 c 0,2.21239 -1.4182,4.14114 -3.40368,4.82188 z m -4.53823,-24.393 v 24.393 c -1.98547,-0.68074 -3.40367,-2.60949 -3.40367,-4.82188 V 174.7786 c 0,-2.21239 1.4182,-4.14114 3.40367,-4.82187 z m 24.16611,-0.22691 c 1.4182,0 2.49603,1.19128 2.49603,2.60948 v 17.18855 c 0,2.8364 -2.21239,5.10552 -5.04879,5.10552 h -0.0567 V 172.3393 c 0,-1.4182 1.07783,-2.60948 2.49603,-2.60948 z m -2.60949,26.60538 c 0.45383,0.34037 0.96438,0.56728 1.58839,0.56728 h 0.11345 0.11346 2.72294 c 2.83639,0 5.10551,-2.26911 5.10551,-5.10551 v -19.28749 c 0,-2.83639 -2.26912,-5.10551 -5.10551,-5.10551 h -2.72294 -0.11346 -0.11345 c -0.62401,0 -1.13456,0.22691 -1.58839,0.56728 v -13.04742 h -4.53823 v 53.32423 h 4.53823 z M 223.958,165.13486 v -3.97096 c 1.30475,0.11346 2.32585,1.19129 2.32585,2.55276 v 0.11345 0.28364 c 0,2.09894 -0.56728,2.49603 -0.90765,4.19787 -0.45382,-0.56728 -1.13456,-0.90765 -1.92875,-0.90765 h -0.0567 -0.0567 -0.73747 -1.19128 -0.51055 -0.28364 c -2.8364,0 -5.10551,2.26912 -5.10551,5.10551 v 19.28749 c 0,2.8364 2.26911,5.10551 5.10551,5.10551 h 3.97095 c 2.8364,0 5.10551,-2.26911 5.10551,-5.10551 v -23.82572 -6.41025 -0.11346 c 0,-1.41819 -1.13456,-2.55275 -2.55275,-2.55275 H 223.958 v -3.97096 h -3.40367 v 3.97096 h -3.91422 v 2.26911 h 3.91422 v 3.97096 z m -3.91422,26.26501 v -19.00384 -0.0567 c 0,-1.4182 1.07783,-2.60948 2.49603,-2.60948 h 0.0567 0.0567 c 1.4182,0 2.49603,1.19128 2.49603,2.60948 v 0.0567 19.23076 0.28364 0.0567 c 0,1.4182 -1.07783,2.60949 -2.49603,2.60949 h -0.0567 -0.0567 c -1.4182,0 -2.49603,-1.19129 -2.49603,-2.60949 v -0.0567 z m 18.7202,-18.49329 v 19.00385 0.0567 c 0,1.4182 1.07783,2.60949 2.49603,2.60949 h 0.0567 0.0567 c 1.4182,0 2.49603,-1.19129 2.49603,-2.60949 v -0.0567 -19.23076 -0.28364 -0.0567 c 0,-1.4182 -1.07783,-2.60948 -2.49603,-2.60948 h -0.0567 -0.0567 c -1.4182,0 -2.49603,1.19128 -2.49603,2.60948 v 0.0567 z m 5.10551,23.31517 c -0.45382,0.45382 -1.0211,0.68073 -1.70184,0.68073 h -0.0567 -0.0567 -0.73747 -1.19128 -0.51055 -0.28364 c -2.8364,0 -5.10551,-2.26911 -5.10551,-5.10551 v -19.28749 c 0,-2.83639 2.26911,-5.10551 5.10551,-5.10551 h 2.4393 0.17018 0.0567 c 0.73746,0 1.4182,0.28364 1.87202,0.68074 v -0.68074 h 4.53823 v 5.67279 23.25844 6.41025 0.11346 c 0,1.4182 -1.13456,2.55276 -2.55275,2.55276 h -11.06194 v -2.26912 h 6.5237 c 1.4182,0 2.55276,-1.13456 2.55276,-2.55276 v -0.11345 -0.79419 z m 18.7202,-13.55797 V 172.3393 c 0,-1.4182 -1.07783,-2.60948 -2.49603,-2.60948 h -0.11345 c -1.4182,0 -2.49603,1.19128 -2.49603,2.60948 v 0.17018 h -4.53823 c 0,-2.83639 2.26911,-5.10551 5.10551,-5.10551 h 3.97095 c 2.8364,0 5.10551,2.26912 5.10551,5.10551 v 8.11209 1.4182 1.24801 c 0,1.87203 -0.56728,3.00658 -1.87202,3.97096 1.13456,0.90764 1.87202,2.38257 1.87202,3.97095 v 9.07647 c 0,2.83639 -2.26911,5.10551 -5.10551,5.10551 h -8.50918 v -2.26912 h 6.5237 c 1.4182,0 2.55276,-1.13456 2.55276,-2.55276 v -9.01973 -0.51055 c 0,-0.62401 -0.22691,-1.24802 -0.62401,-1.70184 l -5.61606,3.68731 -1.19129,-1.87202 5.2757,-3.23349 c 1.30474,-0.79419 2.15566,-1.81529 2.15566,-3.40367 z m 9.07646,-27.73995 v 41.97865 h 4.53823 V 176.1968 c 0,-4.93533 0.73746,-6.52371 2.55275,-6.52371 1.75857,0 2.55276,1.58838 2.55276,6.52371 v 20.70568 h 4.53823 v -22.40752 c 0,-4.4815 -2.60948,-7.09099 -6.52371,-7.09099 h -1.13456 c -0.79419,0 -1.58838,0.17019 -1.98547,0.3971 v -12.87724 z m 18.72021,0 v 41.97865 h 4.53823 V 176.1968 c 0,-4.93533 0.73747,-6.52371 2.55276,-6.52371 1.75856,0 2.55275,1.58838 2.55275,6.52371 v 18.43657 2.26911 h 1.98548 0.28364 c 1.81529,0 3.68731,-0.79419 5.10551,-2.26911 l 4.8786,-5.16224 c 1.64511,-1.75857 1.92875,-2.77967 1.92875,-4.48151 v -16.45109 c 0,-0.45382 -0.22691,-0.96437 -0.62401,-1.30474 l -1.64511,-1.58838 -1.64511,1.58838 c -0.39709,0.34037 -0.624,0.85092 -0.624,1.30474 v 17.92602 c 0,1.64511 -0.11346,2.83639 -1.4182,4.08441 l -2.66621,2.66621 c -0.34037,0.34036 -0.68074,0.624 -1.0211,0.85092 v -19.57113 c 0,-4.4815 -2.60949,-7.09099 -6.52371,-7.09099 h -1.13456 c -0.79419,0 -1.58838,0.17019 -1.98548,0.3971 v -12.87724 z m 28.36395,39.4259 v -26.94576 h 4.53824 v 24.67664 c 0,1.4182 1.0211,2.55276 2.26911,2.55276 h 2.55276 v 2.26911 h -7.09099 c -1.24801,0 -2.26912,-1.13456 -2.26912,-2.55275 z m -0.56728,-33.35601 c 0,0.56728 0.28364,1.24801 0.7942,1.64511 l 2.0422,1.98548 2.0422,-1.98548 c 0.51056,-0.3971 0.79419,-1.07783 0.79419,-1.64511 0,-0.56728 -0.28363,-1.19129 -0.79419,-1.58838 l -2.0422,-1.98548 -2.0422,1.98548 c -0.51056,0.39709 -0.7942,1.0211 -0.7942,1.58838 z m 16.73473,41.86519 v -35.45494 h -4.53824 v 33.18582 c 0,1.4182 -1.0211,2.55276 -2.26911,2.55276 h -2.55276 v 2.26912 h 7.09099 c 1.24801,0 2.26912,-1.13456 2.26912,-2.55276 z m 0.56728,-41.86519 c 0,0.56728 -0.28364,1.24801 -0.79419,1.64511 l -2.04221,1.98548 -2.0422,-1.98548 c -0.51055,-0.3971 -0.79419,-1.07783 -0.79419,-1.64511 0,-0.56728 0.28364,-1.19129 0.79419,-1.58838 l 2.0422,-1.98548 2.04221,1.98548 c 0.51055,0.39709 0.79419,1.0211 0.79419,1.58838 z m 8.50916,21.32969 3.97096,-3.97095 c 1.13455,-1.13456 1.13455,-2.4393 1.13455,-5.04879 v -0.39709 -4.36805 c 0,-0.45382 0.22692,-0.90765 0.62401,-1.24801 l 1.64511,-1.58838 1.64511,1.58838 c 0.3971,0.34036 0.62401,0.79419 0.62401,1.24801 v 4.70842 c 0,1.87202 -0.68074,3.00657 -1.75857,4.14113 l -3.23349,3.40368 -1.13456,1.07783 c 4.2546,1.41819 6.12662,5.61606 6.12662,11.96958 v 3.06331 h -4.53824 v -3.12003 c 0,-3.57386 -0.17018,-8.90628 -3.12003,-10.49467 l -1.98548,1.87203 v 11.74267 h -4.53823 v -41.97865 h 4.53823 z m 20.36533,0.11346 -1.19129,1.07783 -3.23349,3.40367 c -1.07783,1.13456 -1.75856,2.26912 -1.75856,4.14114 v 5.84297 h 4.53823 v -5.50261 -0.39709 c 0,-2.60948 0,-3.91423 1.13456,-5.04878 l 3.97095,-3.97096 v 0.90765 21.38642 h 4.53823 v -36.87314 h -4.53823 v 11.74268 l -1.98548,1.87202 c -2.94985,-1.58838 -3.12003,-6.92081 -3.12003,-10.49466 v -10.49466 h -4.53823 v 10.43793 c 0,6.41025 1.87202,10.60812 6.18334,11.96959 z m 17.07507,14.46561 h 3.06331 0.0567 c 0.39709,0 0.45382,-0.11345 0.624,-0.28364 l 0.79419,-0.85092 -0.79419,-0.85092 c -0.17018,-0.17018 -0.22691,-0.28363 -0.624,-0.28363 -3.68732,0 -3.68732,-2.26912 -3.68732,-5.10552 v -34.60402 h -4.53823 v 36.87314 c 0,2.8364 2.26912,5.10551 5.10551,5.10551 z m 10.77835,0 v -25.30064 c 1.58838,0 3.06331,0.624 4.14114,1.70183 l 3.8575,3.74405 c -0.3971,0.34036 -0.62401,0.79419 -0.62401,1.24801 v 18.60675 h 4.53823 v -18.60675 c 0,-0.45382 -0.22691,-0.90765 -0.624,-1.24801 l 3.85749,-3.74405 c 1.07783,-1.07783 2.55276,-1.70183 4.14114,-1.70183 v 23.5988 c 0,0.45383 0.22691,0.96438 0.62401,1.30475 l 1.64511,1.58838 1.64511,-1.58838 c 0.39709,-0.34037 0.624,-0.85092 0.624,-1.30475 v -28.36395 h -2.0422 -0.45383 -0.34036 c -1.58838,0 -3.06331,0.62401 -4.14114,1.70184 l -7.20444,6.9208 -7.20445,-6.9208 c -1.07783,-1.07783 -2.55275,-1.70184 -4.14113,-1.70184 h -0.3971 -0.39709 -2.04221 v 30.06579 z m 32.90216,0 v -24.73336 c 1.58839,0 3.06331,0.624 4.14114,1.70183 l 3.23349,3.12004 v 19.91149 h 4.53823 v -28.36395 c 0,-0.45382 -0.22691,-0.90765 -0.624,-1.24801 l -1.64511,-1.58838 -1.64511,1.58838 c -0.3971,0.34036 -0.62401,0.79419 -0.62401,1.24801 v 5.2757 l -4.93533,-4.70842 c -1.07783,-1.07783 -2.55275,-1.70184 -4.14113,-1.70184 h -0.3971 -0.39709 -2.04221 v 29.49851 z m 20.98938,0 v -14.86271 c 2.26912,-2.32584 5.04879,-5.21897 7.37463,-7.60154 v 22.46425 h 4.53823 v -28.25049 -0.11346 c 0,-0.45382 -0.22691,-0.90765 -0.624,-1.24801 l -1.64511,-1.58838 -1.64511,1.58838 c -0.3971,0.34036 -0.62401,0.79419 -0.62401,1.24801 v 0.0567 c 0,1.58838 -1.13456,3.40367 -1.81529,4.14114 l -5.55934,5.78624 v -11.11867 h -2.09893 -2.4393 v 29.49851 z m 20.98938,0 v -24.73336 c 1.58839,0 3.06331,0.624 4.14114,1.70183 l 3.23349,3.12004 v 18.77693 1.13456 3.57386 0.11345 c 0,1.4182 -1.13456,2.55276 -2.55275,2.55276 h -8.79283 v 2.26912 h 10.7783 c 2.8364,0 5.10551,-2.26912 5.10551,-5.10551 v -0.34037 -3.06331 -1.13456 -27.22939 c 0,-0.45382 -0.22691,-0.90765 -0.624,-1.24801 l -1.64511,-1.58838 -1.64511,1.58838 c -0.3971,0.34036 -0.62401,0.79419 -0.62401,1.24801 v 5.2757 l -4.93533,-4.70842 c -1.07783,-1.07783 -2.55275,-1.70184 -4.14113,-1.70184 h -0.3971 -0.39709 -2.04221 v 29.49851 z"
           id="path75" />
        <path
           style="text-align:start;text-anchor:start"
           d="m 45.32184,220.16092 c 0,-2.72294 0,-5.10551 2.552756,-5.10551 2.552755,0 2.552755,2.38257 2.552755,5.10551 v 14.74926 c 0,2.72294 0,5.10551 -2.552755,5.10551 -2.552756,0 -2.552756,-2.38257 -2.552756,-5.10551 z m -4.538232,17.01837 c 0,2.8364 2.269116,5.10551 5.105511,5.10551 h 3.970953 c 2.836395,0 5.105511,-2.26911 5.105511,-5.10551 v -19.28748 c 0,-2.8364 -2.269116,-5.10552 -5.105511,-5.10552 h -3.970953 c -2.836395,0 -5.105511,2.26912 -5.105511,5.10552 z m 23.258436,-17.01837 c 0,-2.72294 0,-5.10551 3.120034,-5.10551 1.07783,0 1.815293,0.3971 2.269116,1.13456 -0.170183,0.51055 -0.283639,1.07783 -0.283639,1.70184 v 17.01837 c 0,2.72294 0,5.10551 -2.552756,5.10551 -2.552755,0 -2.552755,-2.38257 -2.552755,-5.10551 z m -4.538233,17.01837 c 0,2.8364 2.269117,5.10551 5.105512,5.10551 h 3.970953 c 0.964374,0 1.87202,-0.28364 2.609483,-0.73746 0.680735,0.45382 1.531654,0.73746 2.496028,0.73746 h 4.538232 c 2.836395,0 5.105511,-2.26911 5.105511,-5.10551 v -19.28748 c 0,-2.8364 -2.269116,-5.10552 -5.105511,-5.10552 h -3.970953 c -0.964374,0 -1.872021,0.28364 -2.609484,0.73747 -0.680734,-0.45383 -1.531653,-0.73747 -2.496027,-0.73747 h -4.538232 c -2.836395,0 -5.105512,2.26912 -5.105512,5.10552 z m 13.898336,1.70184 c 0.170184,-0.51055 0.28364,-1.07783 0.28364,-1.70184 v -17.01837 c 0,-2.72294 0,-5.10551 2.552755,-5.10551 2.552756,0 2.552756,2.38257 2.552756,5.10551 v 14.74926 c 0,2.72294 0,5.10551 -3.120035,5.10551 -1.07783,0 -1.815292,-0.3971 -2.269116,-1.13456 z m 19.060573,1.13456 h -0.05673 v -24.96028 h 0.05673 c 2.836395,0 5.048784,2.26912 5.048784,5.10551 v 14.74926 c 0,2.83639 -2.212389,5.10551 -5.048784,5.10551 z m -0.05673,1.70183 c 0.453824,0.34037 0.964375,0.56728 1.588382,0.56728 h 0.113455 0.113456 2.72294 c 2.836395,0 5.105515,-2.26911 5.105515,-5.10551 v -19.28748 c 0,-2.8364 -2.26912,-5.10552 -5.105515,-5.10552 H 87.86776 v 40.84409 h 4.538232 z m 28.363948,3.29022 v 0.22691 c 0,1.98548 0.34037,3.91423 1.4182,4.99206 l 0.28364,0.28364 0.28364,-0.28364 c 1.13456,-1.0211 1.4182,-2.26912 1.4182,-4.25459 v -0.0567 -0.11346 -0.11345 c 0,-0.56728 0.22691,-0.90765 0.624,-1.24802 l 1.64511,-1.58838 1.64511,1.58838 c 0.3971,0.34037 0.62401,0.68074 0.62401,1.24802 v 0.11345 c 0,1.53166 -0.79419,2.09894 -2.72294,4.14114 l -3.51713,3.68731 -1.58838,-1.64511 c -0.0567,-0.0567 -0.0567,-0.0567 -0.11346,-0.11345 l -2.60948,-2.72294 c -1.19129,-1.19129 -1.92875,-3.29022 -1.92875,-5.61606 v -0.28364 -1.64511 c -0.45382,0.45382 -1.0211,0.68073 -1.70184,0.68073 h -0.0567 -0.0567 -0.73746 -1.19129 -0.51055 -0.28364 c -2.8364,0 -5.10551,-2.26911 -5.10551,-5.10551 v -19.28748 c 0,-2.8364 2.26911,-5.10552 5.10551,-5.10552 h 2.4393 0.17018 0.0567 c 0.73746,0 1.4182,0.28364 1.87202,0.68074 v -0.68074 h 4.53823 v 5.67279 23.25844 z M 111.1262,218.2889 v 19.00385 0.0567 c 0,1.41819 1.07783,2.60948 2.49603,2.60948 h 0.0567 0.0567 c 1.4182,0 2.49603,-1.19129 2.49603,-2.60948 v -0.0567 -19.23076 -0.28364 -0.0567 c 0,-1.4182 -1.07783,-2.60948 -2.49603,-2.60948 h -0.0567 -0.0567 c -1.4182,0 -2.49603,1.19128 -2.49603,2.60948 v 0.0567 z m 18.37982,-2.94985 c 0,0.85092 -0.22691,1.4182 -0.68074,2.0422 -0.0567,0.11346 -0.17018,0.22692 -0.22691,0.28364 -0.17018,0 -0.34036,0 -0.56728,-0.0567 -1.13455,-0.17019 -1.92874,-0.90765 -1.92874,-2.04221 0,-1.13456 0.73746,-1.87202 1.87202,-1.87202 0.90764,0 1.53165,0.62401 1.53165,1.53165 z m -1.81529,5.27569 c -0.0567,0.51056 -0.11346,1.19129 -0.11346,1.92875 v 3.8575 c 0,0.45382 0.22691,0.96437 0.62401,1.30474 l 1.64511,1.58838 1.64511,-1.58838 c 0.39709,-0.34037 0.624,-0.85092 0.624,-1.30474 v -7.54481 l 0.28364,-0.28364 2.09893,-2.09893 c 0.73747,-0.73746 1.30475,-1.13456 2.15567,-1.30474 v 27.11593 h 4.53823 v -29.49851 h -3.40368 -0.0567 c -1.8153,0 -3.63059,0.79419 -5.04879,2.26912 l -0.56728,0.62401 v -1.19129 c 0,-2.21239 -1.75856,-3.97095 -3.97095,-3.97095 -2.77967,0 -5.10551,2.21239 -5.10551,5.04878 0,2.66621 2.09893,4.76515 4.65169,5.04878 z m 30.29274,10.94849 -6.69389,-7.37463 c -1.0211,-1.07783 -1.0211,-1.19128 -1.0211,-3.0633 v -1.75857 -1.70184 -0.0567 c 0,-1.64511 1.30474,-2.55276 2.55276,-2.55276 1.24801,0 2.55275,0.90765 2.55275,2.55276 0,0.45382 0.22691,0.96437 0.62401,1.30474 l 1.64511,1.58838 1.64511,-1.58838 c 0.39709,-0.34037 0.624,-0.85092 0.624,-1.30474 v -2.26912 c 0,-1.4182 -1.13455,-2.55276 -2.55275,-2.55276 h -6.52371 c -2.8364,0 -5.10551,2.21239 -5.10551,5.04879 v 0.0567 c 0,2.32584 0,3.51713 1.92875,5.61606 l 6.75062,7.43135 c 0.90764,1.0211 0.96437,1.13456 0.96437,2.72294 v 2.04221 1.70183 0.0567 c 0,1.64511 -1.30474,2.55276 -2.55275,2.55276 -1.24802,0 -2.55276,-0.90765 -2.55276,-2.55276 h -4.53823 v 2.26912 c 0,1.41819 1.13456,2.55275 2.55275,2.55275 h 6.52371 c 2.8364,0 5.10551,-2.21239 5.10551,-5.04878 v -0.0567 c 0,-2.32584 0,-3.4604 -1.92875,-5.61606 z m 18.7202,2.83639 c 1.92875,2.89313 1.92875,8.96301 1.92875,11.28886 v 0.0567 c 0,2.8364 -2.26911,5.04879 -5.10551,5.04879 h -6.52371 c -1.41819,0 -2.55275,-1.13456 -2.55275,-2.55276 v -2.26911 h 4.53823 c 0,1.64511 1.30474,2.55275 2.55276,2.55275 1.24801,0 2.55275,-0.90764 2.55275,-2.55275 v -0.0567 -1.70184 -2.0422 c 0,-5.2757 -0.0567,-6.97753 -0.96437,-8.39573 l -6.75062,-10.26775 c -0.17019,-0.22691 -1.92875,-3.23349 -1.92875,-5.61606 v -0.0567 c 0,-2.8364 2.26911,-5.04879 5.10551,-5.04879 h 6.52371 c 1.4182,0 2.55275,1.13456 2.55275,2.55276 v 2.26912 c 0,0.45382 -0.22691,0.96437 -0.624,1.30474 l -1.64511,1.58838 -1.64511,-1.58838 c -0.3971,-0.34037 -0.62401,-0.85092 -0.62401,-1.30474 0,-1.64511 -1.30474,-2.55276 -2.55275,-2.55276 -1.24802,0 -2.55276,0.90765 -2.55276,2.55276 v 0.0567 1.70184 1.75857 c 0,1.75856 0.90765,2.83639 1.0211,3.0633 z m 15.82708,-16.678 v 19.74131 c 0,1.4182 1.0211,2.55276 2.26912,2.55276 h 2.55275 v 2.26911 h -7.09099 c -1.24801,0 -2.26911,-1.13456 -2.26911,-2.55275 v -22.63444 -2.0422 h -0.85092 -3.97095 v -2.26912 h 2.15566 1.19128 c 1.4182,0 1.47493,-0.51055 1.47493,-1.92874 v -0.62401 -3.12004 c 0,-0.45382 0.22691,-0.96437 0.62401,-1.30474 l 1.6451,-1.58838 1.64511,1.58838 c 0.3971,0.34037 0.62401,0.85092 0.62401,1.30474 v 5.67279 h 4.82187 v 2.26912 h -2.26911 -1.19129 c -1.36147,0 -1.36147,0.62401 -1.36147,2.0422 z m 19.00386,8.67937 c -0.68074,0 -2.21239,0 -2.49603,0 h -0.0567 c -2.55276,0 -2.55276,-2.38257 -2.55276,-5.10551 v -8.50919 h -4.53823 v 10.77831 c 0,2.83639 2.26912,5.10551 5.10551,5.10551 h 0.0567 4.48151 v 13.61469 h 4.53823 v -29.49851 h -4.53823 z"
           id="path76" />
        <path
           style="text-align:start;text-anchor:start"
           d="m 54.965583,258.16862 h -4.538232 v 22.12388 c 0,2.72294 0,5.10551 -2.552755,5.10551 -2.552756,0 -2.552756,-2.38257 -2.552756,-5.10551 v -22.12388 h -4.538232 v 24.39299 c 0,2.8364 2.269116,5.10551 5.105511,5.10551 h 3.970953 c 2.836395,0 5.105511,-2.26911 5.105511,-5.10551 z m 18.152925,0 h -4.538232 v 8.22554 c 0,2.72294 0,5.10551 -2.552756,5.10551 -2.552755,0 -2.552755,-2.38257 -2.552755,-5.10551 v -8.22554 h -4.538233 v 10.49466 c 0,1.75856 0.907647,3.34694 2.269117,4.25459 -1.36147,0.90765 -2.269117,2.49603 -2.269117,4.25459 v 5.38915 c 0,2.8364 2.269117,5.10551 5.105512,5.10551 h 3.970953 c 2.836395,0 5.105511,-2.26911 5.105511,-5.10551 v -5.38915 c 0,-1.75856 -0.907647,-3.34694 -2.269116,-4.25459 1.361469,-0.90765 2.269116,-2.49603 2.269116,-4.25459 z m -9.643743,21.27296 c 0,-2.72294 0,-5.10551 2.552755,-5.10551 2.552756,0 2.552756,2.38257 2.552756,5.10551 v 0.85092 c 0,2.72294 0,5.10551 -2.552756,5.10551 -2.552755,0 -2.552755,-2.38257 -2.552755,-5.10551 z m 15.656872,8.22554 h 0.226911 c 1.815293,0 3.687314,-0.79419 5.105512,-2.26911 l 4.878599,-5.16224 c 1.645109,-1.75857 1.928749,-2.77967 1.928749,-4.4815 v -16.4511 c 0,-0.45382 -0.226912,-0.96437 -0.624007,-1.30474 l -1.645109,-1.58838 -1.645109,1.58838 c -0.397096,0.34037 -0.624007,0.85092 -0.624007,1.30474 v 17.92602 c 0,1.64511 -0.113456,2.8364 -1.418198,4.08441 l -2.666211,2.66621 c -0.340368,0.34037 -0.680735,0.62401 -1.021103,0.85092 v -26.66211 h -4.538232 v 27.22939 2.26911 z m 30.746513,-2.77966 c 0.0567,-0.3971 0.11346,-0.85092 0.11346,-1.19129 v -24.393 c 0,-0.45382 -0.22691,-0.96437 -0.62401,-1.30474 l -1.64511,-1.58838 -1.64511,1.58838 c -0.39709,0.34037 -0.624,0.85092 -0.624,1.30474 v 24.393 c 0,0.34037 0.0567,0.79419 0.11345,1.19129 -0.39709,-0.22691 -0.73746,-0.51055 -1.13456,-0.90765 l -2.66621,-2.66621 c -1.30474,-1.24801 -1.4182,-2.4393 -1.4182,-4.08441 v -19.06057 h -4.538228 v 17.58565 c 0,1.70183 0.283639,2.72293 1.928749,4.4815 l 4.878599,5.16224 c 1.4182,1.47492 3.29022,2.26911 5.10551,2.26911 1.81529,0 3.68731,-0.79419 5.10551,-2.26911 l 4.8786,-5.16224 c 1.64511,-1.75857 1.92875,-2.77967 1.92875,-4.4815 v -17.58565 h -4.53823 v 19.06057 c 0,1.64511 -0.11346,2.8364 -1.4182,4.08441 l -2.66621,2.66621 c -0.3971,0.3971 -0.73746,0.68074 -1.13456,0.90765 z m 28.47741,-21.32969 v -0.28364 -5.10551 h -4.53823 v 4.53823 2.32584 0.22691 c 0,1.98548 -0.45383,3.80077 -1.4182,4.99206 l -1.13456,1.13456 -1.13456,-1.13456 c -0.96437,-1.19129 -1.41819,-3.00658 -1.41819,-4.99206 v -0.22691 -2.32584 -4.53823 h -4.53824 v 5.10551 0.28364 c 0,2.32584 0.73747,4.42477 1.92875,5.61606 3.17677,3.29022 3.23349,3.34695 3.23349,3.34695 l 0.3971,0.39709 -0.56728,0.51055 c -0.0567,0.0567 -0.0567,0.11346 -3.23349,3.40368 -1.07783,1.13455 -1.75857,2.4393 -1.75857,3.34694 v 7.48808 h 4.53824 v -7.20444 -1.0211 -0.96438 c 0,-0.73746 0.28364,-1.75856 1.13455,-2.60948 l 1.4182,-1.4182 1.4182,1.4182 c 0.85092,0.85092 1.13456,1.87202 1.13456,2.60948 v 0.96438 1.0211 7.20444 h 4.53823 v -7.48808 c 0,-0.96437 -0.68073,-2.21239 -1.75856,-3.34694 -3.17677,-3.29022 -3.17677,-3.34695 -3.2335,-3.40368 l -0.51055,-0.51055 0.3971,-0.39709 c 0,0 0,-0.0567 3.17676,-3.34695 1.19129,-1.19129 1.92875,-3.29022 1.92875,-5.61606 z m 7.94191,27.91012 0.0567,-0.0567 3.91423,-3.8575 1.58838,-1.58838 0.68074,-0.68074 3.0633,-3.23349 0.11346,-0.11345 c 1.13456,-1.24802 1.92875,-3.29022 1.92875,-5.61607 v -0.28364 -17.81256 h -4.53824 v 19.57113 0.22691 c 0,1.98548 -0.34036,3.91423 -1.41819,4.99206 l -0.11346,0.11345 -1.30474,1.30474 -1.36147,-1.36147 -0.0567,-0.0567 c -1.07783,-1.07783 -1.4182,-3.00658 -1.4182,-4.99206 v -0.22691 -19.57113 h -4.53823 v 17.81256 0.28364 c 0,2.32585 0.79419,4.36805 1.92875,5.61607 l 0.0567,0.0567 3.12003,3.29022 0.73747,0.73747 -6.2968,6.35352 -0.0567,0.0567 c -1.07783,1.13456 -1.75856,2.4393 -1.75856,3.34694 v 0.11346 3.12004 h 4.53823 v -4.76515 -0.17018 c 0,-0.73747 0.28364,-1.75857 1.13456,-2.60949 z m 17.64238,-17.24528 0.0567,-0.0567 6.35352,-6.46698 0.0567,-0.0567 c 1.30474,-1.30475 1.4182,-3.00658 1.4182,-4.99206 v -0.11346 -2.09893 h -9.64375 v -2.26911 h 9.64375 4.53823 v 2.26911 1.0211 0.0567 c 0,2.32585 -0.73746,4.42478 -1.92875,5.61606 l -0.0567,0.0567 -5.95643,6.06989 -0.0567,0.0567 c -1.64511,1.6451 -1.64511,2.89312 -1.64511,6.24006 v 0.0567 5.78625 h 9.64375 v 2.26911 h -9.64375 -4.53823 v -2.26911 -7.77172 -0.0567 c 0,-1.13456 0.62401,-2.21239 1.75857,-3.34695 z"
           id="path77" />
      </g>
    </g>
  </g>
</svg>
