<?xml version="1.0" encoding="UTF-8" standalone="no"?>
<!-- Created with Inkscape (http://www.inkscape.org/) -->

<svg
   version="1.1"
   id="svg1"
   width="495"
   height="280"
   viewBox="0 0 495 280"
   sodipodi:docname="Thaiic Font Cover landscape.svg"
   inkscape:version="1.4 (86a8ad7, 2024-10-11)"
   inkscape:export-filename="Font Cover landscape.png"
   inkscape:export-xdpi="96"
   inkscape:export-ydpi="96"
   xmlns:inkscape="http://www.inkscape.org/namespaces/inkscape"
   xmlns:sodipodi="http://sodipodi.sourceforge.net/DTD/sodipodi-0.dtd"
   xmlns="http://www.w3.org/2000/svg"
   xmlns:svg="http://www.w3.org/2000/svg">
  <defs
     id="defs1">
    <rect
       x="198.13704"
       y="58.2756"
       width="26.763609"
       height="44.893795"
       id="rect14" />
    <rect
       x="142.88313"
       y="45.325466"
       width="116.98287"
       height="137.27142"
       id="rect11" />
  </defs>
  <sodipodi:namedview
     id="namedview1"
     pagecolor="#ffffff"
     bordercolor="#000000"
     borderopacity="0.25"
     inkscape:showpageshadow="2"
     inkscape:pageopacity="0.0"
     inkscape:pagecheckerboard="0"
     inkscape:deskcolor="#d1d1d1"
     inkscape:zoom="1.4331535"
     inkscape:cx="238.28571"
     inkscape:cy="181.06923"
     inkscape:window-width="1920"
     inkscape:window-height="1009"
     inkscape:window-x="-8"
     inkscape:window-y="-8"
     inkscape:window-maximized="1"
     inkscape:current-layer="g38"
     showguides="false" />
  <g
     inkscape:groupmode="layer"
     inkscape:label="Image"
     id="g1"
     transform="translate(-19.645168,-21.043139)">
    <rect
       style="display:inline;opacity:1;fill:#ffffff;fill-opacity:0.578313"
       id="rect3"
       width="495.00003"
       height="279.99997"
       x="19.855019"
       y="20.665426"
       sodipodi:insensitive="true" />
    <rect
       style="opacity:0.861111;fill:#88009b;fill-opacity:1;stroke-width:0.999998"
       id="rect1"
       width="495.00003"
       height="280"
       x="19.645168"
       y="21.043139"
       inkscape:label="Background"
       sodipodi:insensitive="true" />
    <g
       id="g39"
       inkscape:label="Texts"
       transform="translate(7.2499965,-4)"
       style="display:none;stroke:none">
      <text
         xml:space="preserve"
         style="font-size:107.321px;text-align:start;letter-spacing:0px;writing-mode:lr-tb;direction:ltr;text-anchor:start;display:inline;opacity:1;fill:#3a0043;fill-opacity:0.576471;stroke:none;stroke-width:8.9434"
         x="38.275589"
         y="113.53887"
         id="text1"><tspan
           sodipodi:role="line"
           id="tspan1"
           x="38.275589"
           y="113.53887"
           style="font-style:normal;font-variant:normal;font-weight:normal;font-stretch:normal;font-family:'NewEng Thai';-inkscape-font-specification:'NewEng Thai';text-align:start;letter-spacing:0px;text-anchor:start;fill:#3a0043;fill-opacity:0.576471;stroke:none;stroke-width:8.9434">ABŋþΦȝ</tspan></text>
      <text
         xml:space="preserve"
         style="font-size:100.749px;text-align:end;letter-spacing:0px;writing-mode:lr-tb;direction:ltr;text-anchor:end;display:inline;opacity:0.81;fill:#32003a;fill-opacity:1;stroke:none;stroke-width:2.04735;stroke-dasharray:none;stroke-opacity:1;paint-order:normal"
         x="362.0274"
         y="281.3949"
         id="text2"><tspan
           sodipodi:role="line"
           x="362.0274"
           y="281.3949"
           style="font-style:normal;font-variant:normal;font-weight:normal;font-stretch:normal;font-family:'NewEng Thai';-inkscape-font-specification:'NewEng Thai';text-align:center;letter-spacing:0px;text-anchor:middle;fill:#32003a;fill-opacity:1;stroke:none;stroke-width:2.04735;stroke-dasharray:none;stroke-opacity:1;paint-order:normal"
           id="tspan100"><tspan
   style="letter-spacing:5px"
   id="tspan32">T</tspan><tspan
   style="letter-spacing:3px"
   id="tspan33">h</tspan><tspan
   style="letter-spacing:2px"
   id="tspan34">a</tspan>iic</tspan></text>
      <text
         xml:space="preserve"
         style="font-style:normal;font-variant:normal;font-weight:normal;font-stretch:normal;font-size:38.6271px;line-height:1;font-family:TallThin;-inkscape-font-specification:TallThin;text-align:end;letter-spacing:10px;writing-mode:lr-tb;direction:ltr;text-anchor:end;display:inline;opacity:0.861111;fill:#3a0043;fill-opacity:0.576471;stroke:none;stroke-width:1.15881;stroke-dasharray:none;stroke-opacity:1;paint-order:normal"
         x="27.468178"
         y="174.96837"
         id="text56"><tspan
           sodipodi:role="line"
           x="27.468178"
           y="174.96837"
           style="font-style:normal;font-variant:normal;font-weight:normal;font-stretch:normal;line-height:1;font-family:'NewEng Thai';-inkscape-font-specification:'NewEng Thai';text-align:start;letter-spacing:10px;text-anchor:start;fill:#3a0043;fill-opacity:0.576471;stroke:none;stroke-width:1.15881"
           id="tspan10">abcçdefφþðgȝhij</tspan><tspan
           sodipodi:role="line"
           x="27.468178"
           y="213.59547"
           style="font-style:normal;font-variant:normal;font-weight:normal;font-stretch:normal;line-height:1;font-family:'NewEng Thai';-inkscape-font-specification:'NewEng Thai';text-align:start;letter-spacing:10px;text-anchor:start;fill:#3a0043;fill-opacity:0.576471;stroke:none;stroke-width:1.15881"
           id="tspan19">kʞlmnԹŋopqr</tspan><tspan
           sodipodi:role="line"
           x="27.468178"
           y="252.22256"
           style="font-style:normal;font-variant:normal;font-weight:normal;font-stretch:normal;line-height:1;font-family:'NewEng Thai';-inkscape-font-specification:'NewEng Thai';text-align:start;letter-spacing:10px;text-anchor:start;fill:#3a0043;fill-opacity:0.576471;stroke:none;stroke-width:1.15881"
           id="tspan17">sʃtчuv</tspan><tspan
           sodipodi:role="line"
           x="27.468178"
           y="290.84967"
           style="font-style:normal;font-variant:normal;font-weight:normal;font-stretch:normal;line-height:1;font-family:'NewEng Thai';-inkscape-font-specification:'NewEng Thai';text-align:start;letter-spacing:10px;text-anchor:start;fill:#3a0043;fill-opacity:0.576471;stroke:none;stroke-width:1.15881"
           id="tspan21">wxyz</tspan></text>
    </g>
    <g
       id="g38"
       inkscape:label="Vectors"
       transform="translate(-3.4533689,-4)"
       style="display:inline">
      <path
         style="font-size:107.321px;font-family:'NewEng Thai';-inkscape-font-specification:'NewEng Thai';letter-spacing:0px;display:inline;fill:#3a0043;fill-opacity:1;stroke-width:8.9434"
         d="m 73.369556,109.56799 c -0.643926,0.21465 -1.609815,0.21465 -1.609815,0.21465 -0.858568,0 -1.717136,-0.21465 -2.575704,-0.53661 -2.253741,-1.71713 -2.468383,-4.72212 -2.468383,-5.36605 0,-0.21464 0,-0.42928 0,-0.5366 1.609815,-1.18053 3.112309,-1.18053 3.756235,-1.18053 0.751247,0 1.609815,0.10732 2.361062,0.42928 1.609815,1.28785 2.575704,3.11231 2.575704,5.04409 0,0.21464 0,0.5366 -0.107321,0.75124 -0.536605,0.42929 -1.180531,0.85857 -1.931778,1.18053 z M 100.73641,89.069684 c 0,4.936766 -1.287851,9.014964 -2.683024,11.912626 -4.29284,6.1173 -9.873532,8.80033 -11.697989,9.55157 l -1.287852,5.47337 c 4.507482,-2.03909 8.478359,-5.1514 11.483347,-9.12228 0.858568,-1.28785 0.858568,-1.28785 4.400158,-7.297828 3.64892,-6.43926 3.86356,-12.449236 3.86356,-14.381014 0,-13.093162 -8.263718,-20.498311 -11.376027,-22.859373 -1.287852,-0.965889 -2.039099,-1.395173 -4.29284,-2.683025 -4.400161,-2.575704 -9.551569,-3.970877 -14.595656,-3.970877 -6.224618,0 -12.556557,2.039099 -17.922607,5.902655 -3.541593,2.468383 -6.43926,5.795334 -8.58568,9.444248 l -2.683025,4.722124 c -3.21963,5.36605 -3.863556,10.624779 -3.863556,14.166372 0,10.302818 5.580692,16.634758 8.049075,18.995818 2.039099,1.82446 3.434272,2.5757 5.795334,3.97088 4.400161,2.46838 8.58568,3.1123 11.376026,3.1123 4.614803,0 7.083186,-1.71713 8.371038,-3.1123 0.429284,-0.53661 0.429284,-0.53661 3.434272,-5.90266 0.751247,-1.07321 0.965889,-2.25374 0.965889,-3.11231 0,-3.43427 -2.575704,-5.151406 -3.21963,-5.58069 -2.14642,-1.180531 -2.790346,-1.609815 -4.507482,-1.609815 -3.434272,0 -5.044087,2.361062 -5.580692,3.21963 l -2.683025,4.614805 c -0.643926,1.18053 -0.858568,2.36106 -0.858568,3.21963 0,0.75124 0.214642,1.50249 0.429284,2.25374 -2.039099,-0.42929 -3.970877,-1.18053 -5.795334,-2.14642 -1.287852,-0.85857 -2.468383,-1.82446 -3.648914,-2.79035 -7.297828,-6.868541 -8.049075,-15.454221 -8.049075,-18.995814 0,-5.688013 1.824457,-9.980853 2.575704,-11.80531 1.931778,-2.790346 4.400161,-5.258729 7.190507,-7.190507 7.083186,-5.151408 14.273693,-5.902655 17.922607,-5.902655 4.829445,0 9.65889,1.287852 13.95173,3.541593 6.546581,4.078198 9.766211,9.766211 11.268705,13.093162 1.502493,3.541593 2.25374,7.405149 2.25374,11.268705 z m 26.40093,-49.796944 0.10732,-0.429284 c 0,0 0.10733,0 0.10733,0 z m 5.68802,6.868544 c -0.85857,0 -1.71714,-0.107321 -2.46839,-0.429284 -2.14642,-1.609815 -2.5757,-3.863556 -2.5757,-5.473371 0,-0.536605 0,-1.07321 0.10732,-1.502494 0.85857,-0.214642 1.60981,-0.321963 2.46838,-0.321963 1.5025,0 2.68303,0.321963 3.64892,0.751247 2.36106,1.717136 2.5757,4.29284 2.5757,5.151408 0,0.214642 0,0.429284 0,0.643926 -1.39517,1.07321 -2.89767,1.180531 -3.75623,1.180531 z m -19.74707,18.673854 c 0,-8.693001 1.71714,-14.488335 3.32695,-18.029928 2.25374,-3.112309 5.15141,-5.688013 8.58568,-7.190507 -0.75124,1.287852 -1.28785,2.361062 -1.28785,4.507482 0,3.434272 2.0391,5.151408 3.21963,5.795334 2.14642,1.287852 2.89767,1.717136 4.6148,1.717136 3.5416,0 5.25873,-2.575704 5.5807,-3.21963 l 2.68302,-4.614803 c 0.75125,-1.287852 0.85857,-2.468383 0.85857,-3.21963 0,-3.541593 -2.46838,-5.258729 -3.32695,-5.688013 -2.14642,-1.287852 -3.21963,-1.931778 -5.68802,-1.931778 -1.60981,0 -3.1123,0.429284 -4.6148,0.965889 -4.6148,1.717136 -8.26371,5.36605 -10.7321,9.65889 l -2.68302,4.614803 c -3.75624,6.43926 -4.61481,14.488335 -4.61481,20.39099 0,11.590668 3.43428,23.288657 10.7321,32.196297 3.11231,3.75624 6.86855,6.97587 11.05407,9.33693 3.54159,2.0391 10.08817,5.79533 19.4251,5.79533 10.83942,0 20.17635,-5.04408 25.64972,-12.7712 0.75124,-1.07321 0.75124,-1.07321 4.07819,-6.868539 3.64892,-6.331939 3.86356,-12.127273 3.86356,-13.95173 0,-5.580692 -1.82446,-11.268705 -5.25873,-15.668866 -2.0391,-2.790346 -4.6148,-5.044087 -7.61979,-6.761223 -3.00499,-1.717136 -7.19051,-4.185519 -13.95173,-4.185519 -12.01995,0 -18.67385,7.834433 -20.60563,10.517458 -0.75125,1.07321 -0.75125,1.07321 -4.0782,6.761223 -2.14642,3.863556 -3.32695,8.263717 -3.43427,12.663878 l 4.0782,-3.863556 c 0.10732,-3.541593 0.85856,-6.975865 2.25374,-10.195495 3.11231,-4.29284 7.51247,-7.51247 12.44923,-9.122285 2.57571,-0.858568 5.25873,-1.287852 8.04908,-1.287852 5.79533,0 9.98085,1.931778 11.91263,3.004988 11.2687,6.975865 12.12727,18.673854 12.12727,22.000805 0,4.078198 -0.96589,7.941754 -2.5757,11.483347 -5.47337,7.727116 -14.8103,12.771196 -25.64972,12.771196 -7.19051,0 -13.20048,-2.25374 -17.386,-4.50748 -3.86356,-2.36106 -7.40515,-5.47337 -10.30282,-8.907642 -7.29783,-8.907643 -10.7321,-20.605632 -10.7321,-32.1963 z m 84.78373,3.863556 c 0,1.931778 -0.96589,3.21963 -1.18053,3.434272 -0.21464,0 -0.42928,0.107321 -0.75125,0.107321 -2.89766,0 -5.68801,-2.468383 -5.68801,-6.009976 0,-1.824457 0.85857,-3.004988 1.18053,-3.326951 0.21464,-0.107321 0.21464,-0.107321 0.75125,-0.107321 2.68302,0 5.68801,2.253741 5.68801,5.902655 z m -5.68801,6.546581 c 3.64891,0 8.80032,-3.004988 10.08817,-6.868544 1.93178,2.253741 3.21963,4.507482 3.97088,5.795334 -0.64393,1.180531 -1.28785,2.361062 -1.82446,3.541593 -3.97088,8.478359 -6.00997,17.922607 -6.00997,24.683832 0,10.94674 4.07819,12.66388 7.08318,12.66388 1.28785,0 2.79035,-0.21465 5.04409,-1.5025 3.21963,-1.82446 6.1173,-4.82944 6.1173,-14.273691 0,-4.185519 -1.07321,-18.566533 -5.5807,-27.366855 1.18053,-2.14642 2.57571,-4.185519 3.97088,-5.795334 4.0782,-4.829445 7.51247,-6.117297 11.59067,-6.117297 6.6539,0 15.56154,5.044087 18.78117,18.029928 1.39518,5.580692 2.0391,9.873532 2.0391,15.668866 0,6.868543 -0.10732,23.395973 -10.7321,33.162193 -6.22462,5.79533 -14.70297,6.54658 -18.56653,6.54658 -4.29284,0 -8.58568,-0.85857 -12.44924,-2.36107 l -4.29284,3.00499 c 3.97088,1.5025 8.37104,2.36106 12.98584,2.36106 6.76123,0 13.20049,-1.82445 19.31778,-5.36605 16.8494,-9.65889 18.45922,-26.6156 18.45922,-39.708765 0,-5.902655 -0.75125,-10.195495 -2.0391,-15.776187 -0.75125,-3.112309 -1.82446,-5.795334 -3.21963,-8.049075 -4.0782,-7.190507 -10.62478,-10.517458 -16.52744,-10.517458 -3.32695,0 -7.08318,0.965889 -11.05406,3.21963 -2.68302,1.502494 -6.22462,4.078198 -9.87353,8.907643 -1.93178,-3.004988 -4.18552,-5.473371 -6.54658,-7.083186 -2.14642,-1.502494 -4.29284,-2.361062 -6.43926,-2.361062 -1.5025,0 -3.32695,0.321963 -5.90266,1.717136 -5.04408,3.004988 -5.04408,6.546581 -5.04408,7.297828 0,3.326951 2.5757,6.546581 6.6539,6.546581 z m 10.94674,24.791155 c 0,-6.00998 1.60981,-14.273697 4.82944,-21.893488 2.57571,7.083186 3.97088,18.029928 3.97088,23.503298 0,6.33194 -1.28785,9.22961 -2.25374,10.41014 -0.10732,0 -0.21464,0 -0.42928,0 -5.25873,0 -6.1173,-7.19051 -6.1173,-12.01995 z m 70.50993,-30.908452 c 1.18054,0 3.5416,0 6.54659,-1.717136 4.18551,-2.468383 4.72212,-5.36605 4.72212,-7.405149 0,-3.756235 -3.00499,-6.331939 -6.33194,-6.331939 -1.50249,0 -3.21963,0.214642 -5.79533,1.717136 -1.71714,0.965889 -4.29284,2.790346 -4.93677,6.117297 -4.6148,-4.829445 -4.6148,-10.517458 -4.6148,-11.697989 0,-7.190507 4.40016,-13.093162 8.58568,-15.454224 1.71713,-1.07321 4.6148,-2.14642 8.26371,-2.14642 6.22462,0 12.34192,3.004988 15.77619,9.014964 3.00499,5.151408 3.00499,10.624779 3.00499,15.454224 v 6.43926 c -17.17136,12.127273 -19.63974,35.523251 -19.63974,47.650528 0,8.37103 0.85856,14.48833 2.79034,18.45921 2.46839,5.04408 6.54658,7.29783 10.30282,7.29783 3.00499,0 5.15141,-1.28786 5.90265,-1.71714 3.43427,-1.93178 5.36605,-4.72212 5.36605,-9.98085 V 62.132113 c 2.46839,-1.287852 5.79534,-2.14642 9.55157,-2.14642 11.80531,0 22.64473,8.907643 22.64473,21.678842 0,7.51247 -4.40016,13.629767 -8.37104,15.883508 -1.39517,0.858568 -4.18551,1.931778 -7.94175,1.931778 -2.46838,0 -4.93677,-0.536605 -7.29783,-1.395173 l -4.29284,2.897662 c 2.46839,0.96589 5.04409,1.5025 7.83444,1.5025 4.07819,0 8.15639,-0.96589 12.55655,-3.541594 9.44425,-5.473371 12.2346,-13.844409 12.2346,-19.747064 0,-12.663878 -10.7321,-22.322768 -23.61062,-22.322768 -4.0782,0 -8.58568,0.965889 -13.30781,3.326951 v -6.009976 c 0,-2.897667 0,-6.009976 -0.64392,-8.907643 -1.93178,-10.410137 -9.87353,-16.09815 -19.10314,-16.09815 -8.693,0 -17.27868,5.258729 -21.57152,11.483347 -2.46838,3.541593 -3.75624,7.405149 -3.75624,11.483347 0,10.088174 8.04908,16.956718 15.13226,16.956718 z m 25.22044,-3.756235 v 61.816897 c 0,2.0391 -0.32196,4.50748 -1.5025,6.22462 -0.32196,0 -0.75124,0.10732 -1.28785,0.10732 -2.5757,0 -6.33194,-1.60982 -8.80032,-6.00998 -1.71713,-2.79034 -3.32695,-7.61979 -3.32695,-19.10314 0,-27.152209 10.83942,-39.279482 14.91762,-43.035717 z m -26.40097,-4.936766 c 0,-1.931778 0.75125,-3.112309 1.18053,-3.648914 0.32197,-0.107321 0.64393,-0.107321 0.96589,-0.107321 2.89767,0 5.5807,2.468383 5.5807,5.688013 0,2.14642 -0.75125,3.21963 -0.96589,3.541593 -0.42929,0.107321 -0.96589,0.214642 -1.71714,0.107321 -2.5757,-0.321963 -5.04409,-2.683025 -5.04409,-5.580692 z m 91.65207,10.302816 c 0,3.648914 2.68302,6.43926 6.76122,6.43926 1.28785,0 2.89767,-0.214642 5.36605,-1.609815 4.29284,-2.468383 4.82945,-5.473371 4.82945,-7.190507 l 0.10732,-0.107321 c 0,-0.429284 -0.10732,-0.858568 -0.21465,-1.287852 -0.5366,-5.258729 -5.1514,-10.088174 -12.12727,-10.088174 -2.79034,0 -6.00997,0.751247 -9.76621,2.897667 -11.2687,6.546581 -12.12727,18.137249 -12.12727,22.859373 0,16.420113 12.34191,32.196296 36.59646,32.410946 v 20.28366 l 4.72212,-2.46838 v -17.92261 c 6.97587,-0.5366 13.20048,-2.36106 19.10314,-5.79533 15.88351,-9.12228 17.60064,-23.503298 17.60064,-29.191311 0,-12.771199 -7.40515,-23.074015 -18.24457,-23.074015 -2.79034,0 -6.00997,0.643926 -9.87353,2.897667 C 383.63464,67.390842 383.42,83.167029 383.42,91.645388 c 0,3.863556 0.10732,7.619791 0.10732,11.483342 v 8.69301 c -20.82028,-1.71714 -31.87434,-16.098154 -31.87434,-31.552378 0,-11.161384 5.15141,-17.278681 8.26372,-19.103138 0.85857,-0.536605 2.68302,-1.180531 5.15141,-1.180531 2.5757,0 5.04408,0.751247 6.97586,2.253741 -2.79034,0.751247 -7.94175,3.648914 -7.94175,8.478359 z m 24.0399,18.566533 c 0,-1.931778 0,-3.863556 0.10732,-5.795334 0.64393,-14.702977 6.6539,-20.820274 9.33693,-22.322768 0.96589,-0.536605 2.89767,-1.287852 5.36605,-1.287852 9.33693,0 17.27868,9.336927 17.27868,22.430089 0,10.839421 -5.58069,20.712949 -13.73709,25.435079 -3.75623,2.25374 -9.98085,4.18552 -18.24457,4.29284 v -11.26871 c 0,-3.970874 -0.10732,-7.727109 -0.10732,-11.483344 z M 368.82434,68.24941 c 0,-1.609815 0.75125,-2.790346 1.18053,-3.326951 0.10732,0 0.32197,0 0.53661,0 1.82445,0 3.97087,0.965889 5.15141,2.897667 0.64392,1.180531 0.64392,2.039099 0.64392,2.683025 0,1.502494 -0.32196,2.683025 -0.96589,3.541593 -0.21464,0.107321 -0.5366,0.107321 -0.75124,0.107321 -2.89767,0 -5.79534,-2.14642 -5.79534,-5.902655 z m 81.88584,6.331939 c 0,-3.541593 -2.57571,-6.546581 -6.65391,-6.546581 -1.18053,0 -2.89766,0.321963 -5.25873,1.609815 1.5025,-4.400161 6.33194,-9.766211 14.70298,-9.766211 9.12229,0 17.17136,7.083186 17.17136,16.09815 0,6.546581 -4.18552,10.410137 -5.79533,11.697989 -5.15141,4.078198 -16.52744,7.727112 -17.17136,7.941754 -0.64393,0.858568 -1.39518,1.824457 -2.14642,2.683025 l 13.09316,-3.970877 c 1.18053,-0.321963 2.5757,-0.536605 4.0782,-0.536605 8.693,0 16.74207,7.405152 16.74207,17.600642 0,9.87353 -7.83443,21.78616 -23.39597,21.78616 -6.97587,0 -14.38102,-2.5757 -20.17635,-8.693 l -4.61481,2.79035 c 5.90266,6.22462 13.41513,8.90764 21.03492,8.90764 15.45422,0 31.87434,-12.01995 31.87434,-27.25953 0,-10.088175 -7.83444,-18.13725 -17.70797,-18.13725 -0.10732,0 -2.79034,0.107321 -4.18552,0.429284 13.09317,-7.297828 13.09317,-15.02494 13.09317,-17.600644 0,-9.122285 -7.94176,-16.742076 -18.13725,-16.742076 -11.05407,0 -23.82527,9.229606 -23.82527,18.673854 0,6.224618 3.97088,7.941754 6.86855,7.941754 3.64891,0 10.41014,-3.541593 10.41014,-8.907643 z m -12.44924,0.321963 c 0,-1.931778 0.75125,-3.112309 1.28785,-3.756235 0.21464,0 0.42929,-0.107321 0.75125,-0.107321 2.89767,0 5.68801,2.361062 5.68801,5.902655 0,2.039099 -0.96589,3.326951 -1.18053,3.434272 -0.21464,0 -0.42928,0.107321 -0.75125,0.107321 -1.93177,0 -5.04408,-1.180531 -5.79533,-5.580692 z"
         id="text23"
         transform="translate(10.703365)"
         aria-label="ABŋþΦȝ" />
      <g
         id="text28"
         style="font-size:38.6271px;line-height:1;font-family:TallThin;-inkscape-font-specification:TallThin;text-align:end;letter-spacing:10px;text-anchor:end;opacity:0.861111;fill:#34033b;fill-opacity:1;stroke-width:1.15881;stroke:#34033b;stroke-opacity:1"
         transform="translate(10.703365,-2)"
         aria-label="abcçdefφþðgȝhij&#10;kʞlmnԹŋopqr&#10;sʃtчuv&#10;wxyz">
        <path
           style="font-family:'NewEng Thai';-inkscape-font-specification:'NewEng Thai';text-align:start;text-anchor:start;fill:#34033b;fill-opacity:1;stroke:#34033b;stroke-opacity:1"
           d="m 40.09924,173.53917 c -0.231762,0.0772 -0.579406,0.0772 -0.579406,0.0772 -0.309017,0 -0.618034,-0.0772 -0.927051,-0.19314 -0.811169,-0.61803 -0.888423,-1.69959 -0.888423,-1.93135 0,-0.0772 0,-0.15451 0,-0.19314 0.579406,-0.42489 1.120186,-0.42489 1.351948,-0.42489 0.27039,0 0.579407,0.0386 0.849797,0.1545 0.579406,0.46353 0.92705,1.12019 0.92705,1.81548 0,0.0772 0,0.19313 -0.03863,0.27039 -0.193136,0.15451 -0.424898,0.30901 -0.695288,0.4249 z m 9.849911,-7.37778 c 0,1.77685 -0.463525,3.24468 -0.965677,4.28761 -1.545085,2.20174 -3.553694,3.16742 -4.210355,3.43781 l -0.463525,1.96998 c 1.622339,-0.73391 3.051541,-1.8541 4.1331,-3.2833 0.309017,-0.46353 0.309017,-0.46353 1.583711,-2.62664 1.313322,-2.31763 1.390576,-4.48075 1.390576,-5.17604 0,-4.7125 -2.974287,-7.37777 -4.094473,-8.22757 -0.463525,-0.34764 -0.733915,-0.50215 -1.545084,-0.96568 -1.583711,-0.92705 -3.437812,-1.4292 -5.253286,-1.4292 -2.240372,0 -4.519371,0.73392 -6.450726,2.12449 -1.274694,0.88842 -2.317626,2.08586 -3.090168,3.39919 l -0.965677,1.69959 c -1.158814,1.93135 -1.390576,3.82408 -1.390576,5.09878 0,3.7082 2.008609,5.9872 2.897032,6.83699 0.733915,0.65666 1.236068,0.92705 2.085864,1.42921 1.583711,0.88842 3.090168,1.12018 4.094473,1.12018 1.660965,0 2.549389,-0.61803 3.012914,-1.12018 0.154508,-0.19314 0.154508,-0.19314 1.236067,-2.12449 0.27039,-0.38628 0.347644,-0.81117 0.347644,-1.12019 0,-1.23607 -0.927051,-1.8541 -1.158813,-2.00861 -0.772542,-0.4249 -1.004305,-0.57941 -1.622338,-0.57941 -1.236068,0 -1.815474,0.8498 -2.00861,1.15882 l -0.965677,1.66096 c -0.231763,0.4249 -0.309017,0.8498 -0.309017,1.15882 0,0.27038 0.07725,0.54077 0.154508,0.81116 -0.733915,-0.1545 -1.429202,-0.42489 -2.085863,-0.77254 -0.463525,-0.30901 -0.888424,-0.65666 -1.313322,-1.0043 -2.626643,-2.47214 -2.897032,-5.56231 -2.897032,-6.837 0,-2.04724 0.65666,-3.59232 0.92705,-4.24898 0.695288,-1.00431 1.583711,-1.89273 2.588016,-2.58802 2.549389,-1.8541 5.137405,-2.12449 6.450726,-2.12449 1.73822,0 3.476439,0.46353 5.021523,1.2747 2.356253,1.46783 3.515067,3.51506 4.055846,4.7125 0.540779,1.2747 0.811169,2.66527 0.811169,4.05585 z m 19.502256,-17.92298 0.03863,-0.1545 c 0,0 0.03863,0 0.03863,0 z m 2.047237,2.47214 c -0.309017,0 -0.618034,-0.0386 -0.888424,-0.15451 -0.772542,-0.57941 -0.92705,-1.39058 -0.92705,-1.96998 0,-0.19314 0,-0.38627 0.03863,-0.54078 0.309017,-0.0773 0.579407,-0.11588 0.888423,-0.11588 0.54078,0 0.965678,0.11588 1.313322,0.27039 0.849796,0.61803 0.92705,1.54508 0.92705,1.8541 0,0.0772 0,0.15451 0,0.23176 -0.502152,0.38627 -1.042931,0.4249 -1.351948,0.4249 z m -7.107387,6.72111 c 0,-3.12879 0.618034,-5.21465 1.19744,-6.48935 0.811169,-1.12018 1.854101,-2.04724 3.090168,-2.58801 -0.270389,0.46352 -0.463525,0.84979 -0.463525,1.62233 0,1.23607 0.733915,1.8541 1.158813,2.08587 0.772542,0.46352 1.042932,0.61803 1.660966,0.61803 1.274694,0 1.892728,-0.92705 2.008609,-1.15881 l 0.965677,-1.66097 c 0.27039,-0.46352 0.309017,-0.88842 0.309017,-1.15881 0,-1.2747 -0.888423,-1.89273 -1.19744,-2.04724 -0.772542,-0.46352 -1.158813,-0.69528 -2.047236,-0.69528 -0.579407,0 -1.120186,0.1545 -1.660966,0.34764 -1.660965,0.61803 -2.974287,1.93135 -3.86271,3.47644 l -0.965677,1.66096 c -1.351949,2.31763 -1.660966,5.21466 -1.660966,7.33915 0,4.17173 1.236067,8.38208 3.86271,11.58813 1.120186,1.35195 2.472135,2.51077 3.978592,3.36056 1.274694,0.73392 3.630947,2.08586 6.991505,2.08586 3.901338,0 7.261895,-1.81547 9.231878,-4.59662 0.270389,-0.38627 0.270389,-0.38627 1.46783,-2.47213 1.313321,-2.279 1.390575,-4.36487 1.390575,-5.02153 0,-2.00861 -0.656661,-4.05584 -1.892728,-5.63955 -0.733915,-1.00431 -1.660965,-1.81548 -2.742524,-2.43351 -1.081559,-0.61804 -2.588016,-1.50646 -5.021523,-1.50646 -4.326236,0 -6.721116,2.81978 -7.416404,3.78546 -0.27039,0.38627 -0.27039,0.38627 -1.46783,2.4335 -0.772542,1.39058 -1.19744,2.97429 -1.236067,4.558 l 1.46783,-1.39057 c 0.03863,-1.2747 0.309017,-2.51077 0.811169,-3.66958 1.120186,-1.54508 2.703897,-2.7039 4.480744,-3.2833 0.92705,-0.30902 1.892728,-0.46353 2.897032,-0.46353 2.085864,0 3.592321,0.69529 4.287609,1.08156 4.055845,2.51076 4.364862,6.72112 4.364862,7.91856 0,1.46783 -0.347644,2.8584 -0.92705,4.1331 -1.969982,2.78115 -5.33054,4.59662 -9.231877,4.59662 -2.588016,0 -4.751134,-0.81117 -6.257591,-1.62234 -1.390576,-0.84979 -2.66527,-1.96998 -3.708202,-3.20605 -2.626643,-3.20604 -3.86271,-7.4164 -3.86271,-11.58813 z m 48.549893,3.05155 c 0,1.27469 1.00431,2.35625 2.47214,2.35625 0.4249,0 1.04293,-0.0773 1.89273,-0.57941 1.73822,-1.0043 1.81547,-2.16312 1.81547,-2.62664 0,-2.78115 -3.59232,-5.02152 -6.91425,-5.02152 -1.58371,0 -3.32193,0.42489 -5.09878,1.46783 -4.90564,2.81977 -5.44642,7.26189 -5.44642,9.15462 0,5.63956 4.28761,10.27481 9.6954,10.27481 1.66097,0 3.47644,-0.4249 5.4078,-1.50646 1.89273,-1.08156 3.12879,-2.47213 4.36486,-4.32623 0,-0.0773 0.0386,-0.11589 0.0386,-0.15451 0,-0.11588 -0.15451,-0.11588 -0.19314,-0.11588 -0.38627,0 -1.19744,0.46352 -1.46783,0.81116 -0.57941,0.92706 -1.23607,1.77685 -1.89273,2.43351 -1.62233,1.54509 -3.78545,1.77685 -4.90564,1.77685 -4.94427,0 -9.34776,-4.40349 -9.34776,-10.04305 0,-3.90133 2.08587,-6.72111 4.01722,-7.80267 0.77254,-0.46353 2.00861,-0.88843 3.47644,-0.88843 1.66097,0 3.55369,0.65667 4.86702,1.73822 -0.57941,0.19314 -2.78116,1.12019 -2.78116,3.05155 z m 3.78546,1.27469 c -0.69529,0 -1.4292,-0.4249 -1.81547,-1.08156 -0.19314,-0.30902 -0.27039,-0.69529 -0.27039,-1.04293 0,-0.46353 0.1545,-0.92705 0.42489,-1.23607 0.0773,-0.0386 0.15451,-0.0386 0.30902,-0.0386 0.61804,0 1.35195,0.30902 1.89273,1.2747 0,0 0.15451,0.34764 0.15451,0.8498 0,0.61803 -0.23176,1.04293 -0.4249,1.23606 -0.0773,0.0386 -0.15451,0.0386 -0.27039,0.0386 z m 27.4595,-1.27469 c 0,1.27469 1.00431,2.35625 2.47214,2.35625 0.42489,0 1.04293,-0.0773 1.89272,-0.57941 1.73822,-1.0043 1.81548,-2.16312 1.81548,-2.62664 0,-2.78115 -3.59232,-5.02152 -6.91425,-5.02152 -1.58372,0 -3.32193,0.42489 -5.09878,1.46783 -4.90564,2.81977 -5.44642,7.26189 -5.44642,9.15462 0,5.63956 4.28761,10.27481 9.6954,10.27481 0.15451,0 2.20174,-0.19314 3.2833,-0.54078 0.11588,-0.0386 0.57941,-0.0386 0.65666,-0.0386 0.88843,0 1.81548,0.77254 1.81548,1.93136 0,1.39057 -1.15882,2.24037 -1.19744,2.24037 -0.88843,0.61803 -2.51076,0.61803 -2.51076,0.61803 -2.66527,0 -4.09448,-1.66096 -4.67388,-2.62664 -0.0386,-0.0386 -0.0773,-0.0386 -0.19314,-0.0386 -0.46352,0 -1.50646,0.65666 -1.50646,0.96568 0,0.0772 1.46783,2.78115 5.02153,2.78115 3.24467,0 6.75974,-2.35625 6.75974,-4.78976 0,-1.04293 -0.65666,-1.96998 -1.81547,-2.16312 1.69959,-1.04293 2.89703,-2.31762 4.1331,-4.17172 0,-0.0773 0.0386,-0.11589 0.0386,-0.15451 0,-0.11588 -0.1545,-0.11588 -0.19313,-0.11588 -0.38627,0 -1.19744,0.46352 -1.46783,0.81116 -0.57941,0.92706 -1.23607,1.77685 -1.89273,2.43351 -1.62234,1.54509 -3.78546,1.77685 -4.90564,1.77685 -4.94427,0 -9.34776,-4.40349 -9.34776,-10.04305 0,-3.90133 2.08586,-6.72111 4.01722,-7.80267 0.77254,-0.46353 2.00861,-0.88843 3.47644,-0.88843 1.66096,0 3.55369,0.65667 4.86701,1.73822 -0.5794,0.19314 -2.78115,1.12019 -2.78115,3.05155 z m 3.78546,1.27469 c -0.69529,0 -1.42921,-0.4249 -1.81548,-1.08156 -0.19313,-0.30902 -0.27039,-0.69529 -0.27039,-1.04293 0,-0.46353 0.15451,-0.92705 0.4249,-1.23607 0.0773,-0.0386 0.15451,-0.0386 0.30902,-0.0386 0.61803,0 1.35195,0.30902 1.89273,1.2747 0,0 0.1545,0.34764 0.1545,0.8498 0,0.61803 -0.23176,1.04293 -0.42489,1.23606 -0.0773,0.0386 -0.15451,0.0386 -0.27039,0.0386 z m 25.02599,-4.94427 c 0.4249,0.19314 1.50646,1.31332 1.50646,2.7039 0,0.27039 -0.0386,0.50215 -0.0773,0.73391 -0.61803,0.54078 -1.39057,0.81117 -2.16311,0.81117 -2.43351,0 -2.78115,-2.24037 -2.78115,-2.93566 0,-0.23176 0.0386,-0.46352 0.0773,-0.69529 0.57941,-0.54078 1.39058,-0.88842 2.20174,-0.88842 0.77255,0 1.08156,0.19314 1.23607,0.27039 z m -1.19744,6.21896 c 1.08156,0 2.12449,-0.50215 2.74253,-1.58371 l 0.96567,-1.66096 c 0.46353,-0.77254 0.46353,-1.42921 0.46353,-1.66097 0,-2.20174 -2.51076,-3.86271 -5.09878,-3.86271 -4.1331,0 -6.25759,3.28331 -6.72111,4.09447 l -0.96568,1.66097 c -0.81117,1.39058 -1.19744,2.93566 -1.19744,4.558 0,6.37347 6.14171,11.35637 12.28342,11.35637 4.17172,0 8.2662,-2.12449 10.66108,-6.21897 l 0.96567,-1.69959 c 1.8541,-3.24468 2.00861,-6.68249 2.00861,-7.99581 0,-6.14171 -2.89703,-13.17184 -7.72542,-18.42513 l -1.46783,1.39058 c 4.82839,5.25328 7.72542,12.28342 7.72542,18.3865 0,3.16742 -0.81117,5.60093 -1.58371,7.18464 -2.39488,3.55369 -6.25759,5.40779 -10.1203,5.40779 -6.91425,0 -11.27911,-5.5623 -11.27911,-10.77696 0,-1.27469 0.27039,-2.51076 0.77254,-3.66957 1.73822,-2.39488 4.01722,-3.05154 5.1374,-3.20605 l -0.92705,1.58371 c -0.27039,0.46352 -0.42489,1.0043 -0.42489,1.62234 0,2.47213 2.54938,3.51506 3.78545,3.51506 z m 45.42108,-1.96998 c 0,-3.43781 -3.09017,-6.48935 -7.45503,-6.48935 -1.58371,0 -3.36056,0.38627 -5.33054,1.50646 -4.32624,2.51076 -5.36917,6.45072 -5.36917,8.92286 0,5.36916 4.40349,10.50657 10.66108,10.50657 3.93996,0 7.45503,-2.16312 9.34776,-4.32624 l -1.4292,0.38627 c -2.16312,2.43351 -4.94427,2.85841 -6.60524,2.85841 -5.71681,0 -10.27481,-4.82839 -10.27481,-10.27481 0,-3.66957 2.08587,-6.48935 3.97859,-7.57091 0.8498,-0.50215 2.20175,-0.92705 3.66958,-0.92705 3.93996,0 7.10738,2.81978 7.10738,6.25759 0,2.279 -1.35194,4.01722 -2.47213,4.67388 -1.04293,0.5794 -2.39488,0.61803 -2.66527,0.61803 -0.69529,0 -1.31332,-0.11588 -1.8541,-0.34764 1.27469,-0.50216 2.43351,-1.54509 2.43351,-2.93566 0,-1.2747 -1.08156,-2.31763 -2.47214,-2.31763 -0.38627,0 -0.96568,0.0773 -1.81547,0.57941 -1.54509,0.88842 -1.89273,1.96998 -1.89273,2.74252 0.0773,2.08587 1.8541,3.36056 4.21035,3.36056 3.74683,0 8.22758,-2.97429 8.22758,-7.22327 z m -10.73834,3.01292 c 0,-0.54078 0.19314,-1.08156 0.4249,-1.35195 0.0386,-0.0386 0.23176,-0.0386 0.30902,-0.0386 0.92705,0 2.04723,0.8498 2.04723,2.08586 0,0.46353 -0.1545,0.92705 -0.42489,1.23607 -0.0773,0.0386 -0.15451,0.0386 -0.27039,0.0386 -1.04294,0 -2.08587,-0.92705 -2.08587,-1.96998 z m 24.4465,-7.10739 c 0,-2.7039 0.19313,-5.4078 1.19744,-7.8413 1.08156,-2.58802 2.58802,-3.59232 3.05154,-3.86271 0.54078,-0.30902 1.4292,-0.61804 2.51076,-0.61804 2.97429,0 6.21897,2.47214 7.03013,7.22327 -0.23176,-0.0772 -0.46352,-0.11588 -0.73391,-0.11588 -1.46783,0 -3.78546,1.31332 -3.78546,3.24468 0,1.39057 1.19744,2.39488 2.47214,2.39488 0.81117,0 1.58371,-0.38627 1.89273,-0.57941 0.81117,-0.46352 1.23606,-0.92705 1.50645,-1.35195 0.4249,-0.61803 0.50216,-1.81547 0.50216,-2.51076 0,-3.78546 -1.73822,-6.14171 -2.31763,-6.837 -1.8541,-2.20174 -4.09447,-2.54939 -5.25329,-2.54939 -1.66096,0 -3.09016,0.61804 -4.1331,1.19744 -5.44642,3.16743 -5.63955,9.61815 -5.63955,12.97871 0,1.15881 0.0386,3.51507 0.0772,4.28761 h -2.08586 l -1.35195,1.08156 h 3.47644 c 0.19313,4.01722 0.84979,8.30483 4.1331,10.85421 1.69959,1.31333 3.47644,1.58372 4.63525,1.58372 3.74683,0 8.30483,-3.01292 8.30483,-7.45504 0,-2.70389 -1.77685,-5.40779 -4.82839,-5.94857 -0.50215,-0.11588 -1.00431,-0.11588 -1.50646,-0.11588 h -1.23606 -2.7039 -5.09878 c -0.0773,-1.31332 -0.11588,-4.01722 -0.11588,-5.06015 z m 8.53659,17.49808 c -1.46783,0 -3.01292,-0.46353 -4.36486,-1.50646 -2.97429,-2.31763 -3.78546,-6.14171 -4.01722,-9.84991 h 3.7082 3.97859 c 0.4249,0 0.88842,0 1.31332,0.11588 2.78115,0.50215 4.63525,2.97429 4.63525,5.75544 0,2.43351 -1.4292,4.21035 -2.54938,4.86701 -1.08156,0.61804 -2.47214,0.61804 -2.7039,0.61804 z m 5.25328,-19.27493 c 0,0.19314 -0.0386,0.38627 -0.11588,0.54078 l 0.0386,-0.0386 c -0.0772,0.19314 -0.11588,0.34765 -0.34764,0.57941 -0.0773,0.0386 -0.15451,0.0386 -0.27039,0.0386 -1.00431,0 -2.12449,-0.88843 -2.12449,-2.16312 0,-0.61803 0.27039,-1.04293 0.42489,-1.27469 0.11589,0 0.19314,-0.0386 0.27039,-0.0386 1.2747,0 2.12449,1.19744 2.12449,2.35625 z m 20.3521,4.36486 c 0,1.31333 0.96568,2.31763 2.43351,2.31763 0.46353,0 1.04293,-0.0773 1.93136,-0.57941 1.54508,-0.88842 1.73822,-1.96998 1.73822,-2.58801 l 0.0386,-0.0386 c 0,-0.15451 -0.0386,-0.30902 -0.0772,-0.46352 -0.19314,-1.89273 -1.8541,-3.63095 -4.36486,-3.63095 -1.00431,0 -2.16312,0.27039 -3.51507,1.04293 -4.05584,2.35625 -4.36486,6.52798 -4.36486,8.22757 0,5.90995 4.44212,11.58813 13.17184,11.66539 v 7.30052 l 1.69959,-0.88842 v -6.45073 c 2.51076,-0.19313 4.75114,-0.8498 6.87563,-2.08586 5.71681,-3.28331 6.33484,-8.45934 6.33484,-10.50657 0,-4.59663 -2.66527,-8.30483 -6.56661,-8.30483 -1.0043,0 -2.16311,0.23176 -3.55369,1.04293 -4.75113,2.74252 -4.82839,8.42071 -4.82839,11.47225 0,1.39058 0.0386,2.74252 0.0386,4.1331 v 3.12879 c -7.49366,-0.61803 -11.47225,-5.79406 -11.47225,-11.35636 0,-4.01722 1.8541,-6.21897 2.97429,-6.87563 0.30901,-0.19313 0.96568,-0.4249 1.8541,-0.4249 0.92705,0 1.81547,0.27039 2.51076,0.81117 -1.0043,0.27039 -2.85841,1.31333 -2.85841,3.05154 z m 8.65248,6.68249 c 0,-0.69528 0,-1.39057 0.0386,-2.08586 0.23177,-5.29191 2.39488,-7.49366 3.36056,-8.03444 0.34764,-0.19313 1.04293,-0.46352 1.93136,-0.46352 3.36055,0 6.21896,3.36056 6.21896,8.07306 0,3.90134 -2.00861,7.45503 -4.94427,9.15463 -1.35195,0.81116 -3.59232,1.50645 -6.56661,1.54508 v -4.05585 c 0,-1.4292 -0.0386,-2.78115 -0.0386,-4.1331 z m -6.95288,-7.57091 c 0,-0.5794 0.27039,-1.0043 0.4249,-1.19744 0.0386,0 0.11588,0 0.19313,0 0.65666,0 1.4292,0.34765 1.8541,1.04293 0.23176,0.4249 0.23176,0.73392 0.23176,0.96568 0,0.54078 -0.11588,0.96568 -0.34764,1.2747 -0.0772,0.0386 -0.19314,0.0386 -0.27039,0.0386 -1.04293,0 -2.08586,-0.77254 -2.08586,-2.12449 z m 37.92736,0.30902 c 0.4249,0 1.27469,0 2.35625,-0.61804 1.50646,-0.88842 1.6996,-1.93135 1.6996,-2.66527 0,-1.35194 -1.08156,-2.27899 -2.279,-2.27899 -0.54078,0 -1.15882,0.0773 -2.08587,0.61803 -0.61803,0.34764 -1.54508,1.0043 -1.77684,2.20174 -1.66097,-1.73822 -1.66097,-3.78545 -1.66097,-4.21035 0,-2.58802 1.58371,-4.71251 3.09017,-5.5623 0.61803,-0.38627 1.66096,-0.77254 2.97429,-0.77254 2.24037,0 4.44211,1.08155 5.67818,3.24467 1.08156,1.8541 1.08156,3.82408 1.08156,5.5623 v 2.31763 c -6.18034,4.36486 -7.06876,12.78557 -7.06876,17.15043 0,3.01292 0.30902,5.21466 1.0043,6.64387 0.88843,1.81547 2.35626,2.62664 3.70821,2.62664 1.08155,0 1.8541,-0.46353 2.12449,-0.61804 1.23606,-0.69528 1.93135,-1.69959 1.93135,-3.59232 v -22.55822 c 0.88842,-0.46353 2.08587,-0.77255 3.43781,-0.77255 4.24898,0 8.15032,3.20605 8.15032,7.80268 0,2.7039 -1.58371,4.90564 -3.01291,5.71681 -0.50215,0.30902 -1.50646,0.69529 -2.85841,0.69529 -0.88842,0 -1.77684,-0.19314 -2.62664,-0.50215 l -1.54508,1.04293 c 0.88842,0.34764 1.81547,0.54078 2.81977,0.54078 1.46783,0 2.93566,-0.34765 4.51938,-1.2747 3.39918,-1.96998 4.40348,-4.98289 4.40348,-7.10738 0,-4.558 -3.86271,-8.03444 -8.49796,-8.03444 -1.46783,0 -3.09017,0.34764 -4.78976,1.19744 v -2.16312 c 0,-1.04293 0,-2.16312 -0.23176,-3.20605 -0.69529,-3.74683 -3.55369,-5.79406 -6.87563,-5.79406 -3.12879,0 -6.21896,1.89272 -7.76404,4.1331 -0.88843,1.27469 -1.35195,2.66527 -1.35195,4.1331 0,3.63094 2.89703,6.10308 5.44642,6.10308 z m 9.07737,-1.35195 v 22.24921 c 0,0.73392 -0.11588,1.62234 -0.54078,2.24037 -0.11588,0 -0.27039,0.0386 -0.46353,0.0386 -0.92705,0 -2.27899,-0.57941 -3.16742,-2.16312 -0.61803,-1.0043 -1.19744,-2.74252 -1.19744,-6.87562 0,-9.77266 3.90134,-14.13752 5.36917,-15.48947 z m -9.50227,-1.77685 c 0,-0.69528 0.27039,-1.12018 0.4249,-1.31332 0.11588,-0.0386 0.23176,-0.0386 0.34764,-0.0386 1.04294,0 2.00861,0.88843 2.00861,2.04724 0,0.77254 -0.27039,1.15881 -0.34764,1.2747 -0.15451,0.0386 -0.34764,0.0773 -0.61803,0.0386 -0.92705,-0.11588 -1.81548,-0.96568 -1.81548,-2.00861 z m 59.51992,-3.16742 c -0.8498,0.61803 -1.96998,1.04293 -3.43781,1.04293 -4.17173,0 -7.49366,-3.24467 -7.49366,-6.79837 0,-0.15451 0.0773,-3.93996 2.89703,-3.93996 0.61804,0 2.47214,0.19313 3.97859,2.24037 1.6996,2.279 3.09017,4.86701 4.05585,7.45503 z m 1.69959,-0.54078 c 0.0386,0 0.0386,-0.0386 0.0773,-0.0772 1.04293,-0.96568 1.89272,-2.16312 2.35625,-3.51507 l -1.66097,0.77254 c -0.1545,0.46353 -0.50215,1.19744 -1.0043,1.93136 -0.0386,0 -0.0386,0.0386 -0.0386,0.0386 0,0 0,-0.0386 0,-0.0386 -0.96568,-2.47214 -2.279,-4.90564 -3.90133,-7.10739 -1.19745,-1.58371 -2.78116,-2.24037 -4.17173,-2.24037 -2.279,0 -5.9872,2.00861 -5.9872,5.87132 0,3.78545 3.55369,7.03013 7.80267,7.03013 1.69959,0 3.51507,-0.57941 5.06015,-1.54508 0,0 0,0.0386 0,0.0386 0.96568,2.74253 1.46783,5.48505 1.46783,8.07307 0,3.16742 -0.77254,5.60093 -1.54508,7.18464 -2.43351,3.55369 -6.25759,5.40779 -10.1203,5.40779 -6.91425,0 -11.27912,-5.5623 -11.27912,-10.77696 0,-1.27469 0.23177,-2.51076 0.73392,-3.66957 1.77685,-2.39488 4.01722,-3.05154 5.1374,-3.20605 l -0.88842,1.58371 c -0.27039,0.46352 -0.4249,1.0043 -0.4249,1.62234 0,2.47213 2.54939,3.51506 3.78546,3.51506 1.04293,0 2.12449,-0.50215 2.74252,-1.58371 l 0.96568,-1.66096 c 0.4249,-0.77254 0.46352,-1.42921 0.46352,-1.66097 0,-2.20174 -2.51076,-3.86271 -5.1374,-3.86271 -0.8498,0 -4.48074,0.27039 -6.72112,4.09447 l -0.96567,1.66097 c -0.77255,1.39058 -1.15882,2.93566 -1.15882,4.558 0,6.37347 6.14171,11.35637 12.28342,11.35637 4.1331,0 8.2662,-2.12449 10.62246,-6.21897 l 0.96567,-1.69959 c 1.89273,-3.24468 2.00861,-6.68249 2.00861,-7.99581 0,-2.54939 -0.54078,-5.21466 -1.46783,-7.87993 z m -14.63967,4.40349 c 0.23176,0 0.73392,0 1.23607,0.27039 0.92705,0.61803 1.50645,1.69959 1.50645,2.7039 0,0.27039 -0.0386,0.50215 -0.0772,0.73391 -0.61803,0.54078 -1.39058,0.81117 -2.16312,0.81117 -2.4335,0 -2.78115,-2.24037 -2.78115,-2.93566 0,-0.23176 0,-0.46352 0.0773,-0.69529 0.5794,-0.54078 1.35194,-0.88842 2.20174,-0.88842 z m 40.94027,8.6911 c -0.46353,0 -1.08156,0.11588 -1.96999,0.61803 -1.35194,0.77254 -1.77684,1.73822 -1.77684,2.58802 0,1.27469 0.96567,2.39488 2.47213,2.39488 0.34765,0 0.77254,-0.0386 1.35195,-0.30902 -0.30902,0.4249 -0.61803,0.65666 -0.81117,0.77254 -0.50215,0.27039 -1.4292,0.50216 -2.51076,0.50216 -4.09447,0 -7.91856,-3.51507 -7.91856,-8.38208 0,-3.36056 1.89273,-5.94858 3.63095,-6.95288 0.65666,-0.38627 1.8541,-0.81117 3.2833,-0.81117 4.59663,0 9.57953,3.97859 9.57953,12.01303 0,0.46352 -0.0386,3.12879 -0.73392,6.02582 -0.84979,3.5537 -2.16312,5.44643 -3.09017,6.37348 -1.69959,1.69959 -3.82408,2.00861 -5.09877,2.00861 -0.92705,0 -4.21036,-0.19314 -6.68249,-3.09017 l -1.66097,1.0043 c 2.54939,2.93566 5.90995,3.16742 6.99151,3.16742 4.21035,0 7.18464,-2.74252 7.80267,-3.36055 4.01722,-4.05585 4.17173,-11.70402 4.17173,-13.01734 0,-7.91855 -4.82839,-12.20616 -9.92717,-12.20616 -1.54508,0 -3.20605,0.38627 -4.94427,1.39057 -4.55799,2.66527 -5.02152,6.75975 -5.02152,8.30483 0,4.82839 3.7082,8.61385 8.2662,8.61385 0.77254,0 1.50646,-0.0773 2.279,-0.30902 2.16312,-0.61804 4.71251,-2.35626 4.71251,-4.82839 0,-1.50646 -1.08156,-2.51076 -2.39488,-2.51076 z m 0.69528,3.39918 c 0,0.65666 -0.34764,1.04294 -0.42489,1.12019 -0.0386,0 -0.11589,0 -0.19314,0 -1.08156,0 -2.12449,-0.88842 -2.12449,-2.16312 0,-0.5794 0.19314,-0.96568 0.38627,-1.23607 0.0773,0 0.19314,0 0.30902,0 0.88842,0 2.04723,0.73392 2.04723,2.279 z m 23.51949,-7.68679 c 0,-1.27469 -0.92705,-2.35625 -2.39488,-2.35625 -0.4249,0 -1.04294,0.11588 -1.89273,0.5794 0.54078,-1.58371 2.279,-3.51506 5.29191,-3.51506 3.28331,0 6.18034,2.54939 6.18034,5.79406 0,2.35626 -1.50646,3.74683 -2.08587,4.21036 -1.8541,1.46783 -5.94857,2.78115 -6.18033,2.8584 -0.23176,0.30902 -0.50215,0.65666 -0.77254,0.96568 l 4.7125,-1.4292 c 0.4249,-0.11588 0.92705,-0.19314 1.46783,-0.19314 3.1288,0 6.02583,2.66527 6.02583,6.33485 0,3.55369 -2.81978,7.8413 -8.42071,7.8413 -2.51076,0 -5.17603,-0.92705 -7.26189,-3.1288 l -1.66097,1.00431 c 2.12449,2.24037 4.82839,3.20605 7.57091,3.20605 5.56231,0 11.47225,-4.32624 11.47225,-9.81129 0,-3.63094 -2.81978,-6.52798 -6.37347,-6.52798 -0.0386,0 -1.0043,0.0386 -1.50646,0.15451 4.71251,-2.62664 4.71251,-5.40779 4.71251,-6.33484 0,-3.28331 -2.85841,-6.02583 -6.52798,-6.02583 -3.97859,0 -8.57522,3.32193 -8.57522,6.72111 0,2.24038 1.42921,2.85841 2.47214,2.85841 1.31332,0 3.74683,-1.27469 3.74683,-3.20605 z m -4.48075,0.11588 c 0,-0.69529 0.27039,-1.12018 0.46353,-1.35195 0.0773,0 0.15451,-0.0386 0.27039,-0.0386 1.04293,0 2.04723,0.84979 2.04723,2.12449 0,0.73391 -0.34764,1.19744 -0.42489,1.23606 -0.0773,0 -0.15451,0.0386 -0.27039,0.0386 -0.69529,0 -1.81548,-0.4249 -2.08587,-2.00861 z m 32.4037,-3.12879 c 0,0.38627 -0.23176,0.88842 -0.4249,1.12018 -0.0772,0 -0.15451,0 -0.23176,0 -1.0043,0 -2.12449,-0.92705 -2.12449,-2.12449 0,-0.5794 0.23176,-0.96568 0.4249,-1.23607 0.0772,0 0.19313,0 0.30901,0 1.15882,0 2.04724,0.88843 2.04724,2.24038 z m -0.0772,6.91425 c 0,0.23176 0,0.50215 0,0.73391 v 6.14171 c 0,0.81117 0,1.96998 -0.50216,2.7039 -0.50215,-0.0386 -0.96567,-0.38627 -1.31332,-0.96568 -0.4249,-0.73391 -0.61803,-1.73822 -0.61803,-2.78115 0,-2.08586 0.8498,-4.36486 2.43351,-5.83269 z m 1.77684,-7.80268 c 0,-1.23606 -0.77254,-2.47213 -2.39488,-2.47213 -0.46352,0 -1.12018,0.11588 -1.96998,0.61803 -1.50646,0.88843 -1.81547,1.93136 -1.81547,2.62665 0,1.15881 1.0043,2.31762 2.47213,2.31762 0.65666,0 1.2747,-0.23176 1.89273,-0.57941 -0.0386,0.38628 -0.0386,0.88843 -0.0386,1.58372 0,0.54078 0,0.54078 0.0773,2.93566 -1.2747,0.81116 -2.12449,1.77684 -2.74253,2.78115 -0.92705,1.39057 -1.39057,3.01291 -1.39057,4.67388 0,1.69959 0.5794,3.97859 2.35625,3.97859 0.38627,0 0.96568,-0.15451 1.58371,-0.50215 1.77685,-1.04294 1.89273,-2.39488 1.89273,-4.1331 v -6.14171 c 0,-0.30902 0,-0.57941 0,-0.88843 0.4249,-0.11588 0.92705,-0.19313 1.54508,-0.19313 0.81117,0 3.16743,0.11588 4.90565,3.12879 1.81547,3.1288 1.96998,7.6868 1.96998,9.19325 0,1.42921 -0.11588,2.81978 -0.34765,4.21036 l 1.6996,-0.81117 c 0.23176,-1.39058 0.34764,-2.81978 0.34764,-4.24898 0,-4.24898 -1.08156,-12.55381 -7.22327,-12.55381 -0.92705,0 -1.89273,0.15451 -2.89703,0.57941 -0.0772,-2.31763 -0.0772,-2.31763 -0.0772,-2.85841 0,-2.20174 0.1545,-2.54939 0.1545,-3.24468 z m 25.79853,-8.11169 c 0,0.57941 -0.23177,1.04293 -0.4249,1.23607 -0.0386,0 -0.15451,0.0386 -0.27039,0.0386 -1.00431,0 -2.04724,-0.88843 -2.04724,-2.12449 0,-0.73392 0.34765,-1.15882 0.4249,-1.23607 0.0773,-0.0386 0.15451,-0.0386 0.27039,-0.0386 1.00431,0 2.04724,0.88842 2.04724,2.12449 z m -0.69529,-3.20605 c -0.46353,0 -1.08156,0.0773 -1.93136,0.57941 -1.50645,0.88842 -1.81547,1.93135 -1.81547,2.62664 0,1.19744 0.96568,2.35626 2.39488,2.35626 0.46353,0 1.08156,-0.11589 1.93136,-0.57941 1.50645,-0.88842 1.81547,-1.93136 1.81547,-2.62664 0,-1.23607 -0.92705,-2.35626 -2.39488,-2.35626 z m -2.04724,11.43362 c 0,-0.0386 0,-0.0386 0,-0.0772 0,-0.65666 0.19314,-1.08156 0.38627,-1.39058 0.0773,0 0.19314,0 0.30902,0 0.92705,0 2.08586,0.73392 2.08586,2.04724 0,0.73392 -0.30901,1.15881 -0.42489,1.2747 -0.0773,0.0386 -0.19314,0.0386 -0.30902,0.0386 -0.8498,0 -2.04724,-0.81117 -2.04724,-1.89273 z m 2.04724,-2.58801 c -0.46353,0 -1.08156,0.0772 -1.96998,0.57941 -1.54509,0.92705 -1.77685,2.04723 -1.77685,2.81977 0,1.12019 0.54078,3.90134 0.54078,6.837 0,7.06876 0,7.06876 0.27039,7.87993 0.11588,0.30902 0.23176,0.57941 0.38627,0.8498 0.73392,1.31332 2.04724,1.96998 3.47644,1.96998 0.77254,0 1.66097,-0.15451 2.78115,-0.81117 2.20175,-1.2747 2.58802,-2.97429 2.58802,-4.01722 0,-0.4249 -0.0773,-0.88842 -0.23177,-1.31332 l -1.69959,0.92705 c 0.15451,0.4249 0.23176,0.8498 0.23176,1.27469 0,1.50646 -0.88842,2.47214 -1.19744,2.62665 -0.0386,0.0386 -0.46352,0.23176 -1.12018,0.23176 -1.35195,0 -2.89703,-0.77254 -3.51507,-2.66527 -0.27039,-0.77254 -0.27039,-0.73392 -0.27039,-7.80268 0,-1.39057 -0.11588,-2.70389 -0.23176,-3.86271 0.11588,0.0386 0.27039,0.0386 0.38627,0.0386 0.50215,0 1.12019,-0.0772 1.96998,-0.57941 1.39058,-0.81116 1.81548,-1.77684 1.81548,-2.66527 0,-1.35194 -1.08156,-2.31762 -2.43351,-2.31762 z m 18.72971,-5.63956 c 0,0.57941 -0.27039,1.04293 -0.4249,1.23607 -0.0772,0 -0.15451,0.0386 -0.27039,0.0386 -1.04293,0 -2.08586,-0.88843 -2.08586,-2.12449 0,-0.73392 0.38627,-1.15882 0.4249,-1.23607 0.0772,-0.0386 0.19313,-0.0386 0.30901,-0.0386 1.00431,0 2.04724,0.88842 2.04724,2.12449 z m -0.69529,-3.20605 c -0.46352,0 -1.08156,0.0773 -1.93135,0.57941 -1.50646,0.88842 -1.81548,1.93135 -1.81548,2.62664 0,1.19744 0.92705,2.35626 2.39488,2.35626 0.46353,0 1.08156,-0.11589 1.89273,-0.57941 1.54509,-0.88842 1.8541,-1.93136 1.8541,-2.62664 0,-1.23607 -0.96568,-2.35626 -2.39488,-2.35626 z m 0.0386,8.84561 c -1.4292,0 -3.82408,1.08156 -3.82408,3.20605 0,1.46783 1.12018,2.35625 2.51076,2.35625 0.4249,0 1.0043,-0.11588 1.81547,-0.54078 -0.46352,3.5537 -0.46352,3.5537 -0.46352,9.34776 0,2.85841 0.0386,5.79407 0.0386,5.83269 0,0.69529 0,1.8541 -0.30901,3.09017 -0.57941,2.54939 -1.89273,3.47644 -2.279,3.7082 -0.8498,0.50216 -1.93136,0.54078 -2.31763,0.54078 -3.16742,0 -6.37347,-2.24037 -6.37347,-6.14171 0,-0.69528 0.11588,-1.04293 0.34764,-1.69959 l -1.66096,0.73392 c -0.27039,0.73391 -0.38627,1.08155 -0.38627,1.8541 0,3.86271 3.09017,6.33484 6.72111,6.33484 1.31332,0 2.62665,-0.34764 3.97859,-1.12018 3.36056,-1.96999 3.9786,-4.94427 3.9786,-8.15032 0,-0.0773 -0.0386,-3.01292 -0.0386,-5.8327 0,-1.89272 0,-3.36055 0.0386,-4.40349 0,-2.74252 0.54078,-5.21465 0.5794,-6.72111 0,0 0,-0.0386 0,-0.0386 0,-1.04293 -0.65666,-2.35625 -2.35625,-2.35625 z m 0.65666,3.20605 c 0,0.73391 -0.34764,1.15881 -0.4249,1.23607 -0.0772,0.0386 -0.11588,0.0386 -0.19313,0.0386 -0.96568,0 -2.16312,-0.69529 -2.16312,-2.12449 0,-0.54078 0.15451,-0.92705 0.38627,-1.23607 0.0773,0 0.23176,-0.0386 0.38627,-0.0386 1.19744,0 2.00861,0.96568 2.00861,2.12449 z"
           id="path28" />
        <path
           style="font-family:'NewEng Thai';-inkscape-font-specification:'NewEng Thai';text-align:start;text-anchor:start;fill:#34033b;fill-opacity:1;stroke:#34033b;stroke-opacity:1"
           d="m 31.755786,213.05469 c -0.733915,-0.0386 -1.429203,-0.88842 -1.429203,-2.35625 0,-1.4292 0.618034,-2.47214 1.313322,-3.20605 0.27039,1.4292 0.502152,2.74252 0.502152,3.90134 0,0.38627 -0.115881,1.15881 -0.386271,1.66096 z m 8.420708,-10.04305 c 0.154509,-1.54508 0.463526,-3.05154 0.965678,-4.51937 0.347644,-1.08156 0.772542,-1.54508 0.965677,-1.73822 0.03863,0 0.07726,-0.0386 0.193136,-0.0386 0.733915,0 1.545084,0.73391 1.545084,1.93135 0,2.62664 -3.321931,4.21036 -3.669575,4.36486 z m -6.79837,-9.81128 c -0.772542,0 -1.506457,0.30902 -2.047236,0.61803 -0.965678,0.54078 -1.892728,1.39058 -1.892728,3.16743 0,1.62233 0.579407,3.93996 1.19744,6.4121 0.309017,1.12018 0.618034,2.24037 0.849796,3.36055 -1.699592,1.2747 -2.858405,2.85841 -2.858405,4.82839 0,1.19744 0.502152,2.54939 1.815474,2.54939 1.429202,0 2.549388,-1.19744 2.549388,-1.23607 0.772542,-0.81117 0.849797,-2.00861 0.849797,-2.35625 0,-1.27469 -0.231763,-2.7039 -0.579407,-4.24898 0.811169,-0.4249 1.73822,-0.73392 2.317626,-0.92705 0.03863,0 2.163118,-0.69529 2.858406,-0.96568 0,0.4249 -0.03863,0.8498 -0.03863,1.27469 0,0.81117 0.115881,3.63095 1.390575,5.87132 1.313322,2.279 3.012914,2.58802 3.901338,2.58802 1.776846,0 3.86271,-1.27469 4.635252,-2.81978 l -1.622338,0.65666 c -0.27039,0.50215 -0.579407,0.81117 -0.733915,0.92705 0,0 -0.347644,0.15451 -0.927051,0.15451 -1.429203,0 -2.510761,-1.04293 -2.781151,-1.39057 -2.047237,-2.20175 -2.163118,-5.98721 -2.163118,-6.837 0,-0.38627 0.03863,-0.77254 0.03863,-1.12019 2.394881,-1.15881 3.785456,-2.62664 4.094473,-2.97428 0.772542,-0.88843 1.313321,-1.89273 1.313321,-2.97429 0,-1.08156 -0.695287,-2.12449 -1.892728,-2.12449 -0.965677,0 -2.549388,0.65666 -3.515066,2.16312 -0.965677,1.50645 -1.46783,4.32623 -1.622338,5.87132 -0.424898,0.11588 -0.811169,0.27038 -1.236067,0.42489 -1.622339,0.50216 -2.742525,0.88843 -4.1331,1.62234 -0.231763,-1.08156 -0.54078,-2.16312 -0.811169,-3.24467 -0.347644,-1.31333 -0.656661,-2.62665 -0.888424,-3.74683 0.193136,0.0386 0.386271,0.0386 0.579407,0.0386 0.463525,0 1.081559,-0.0773 1.931355,-0.5794 1.506457,-0.8498 1.815474,-1.89273 1.815474,-2.62665 0,-1.23606 -1.004305,-2.35625 -2.394881,-2.35625 z m -2.12449,2.35625 c 0,-0.34764 0.115881,-0.69528 0.231762,-0.96567 0.03863,-0.11589 0.115882,-0.19314 0.154509,-0.27039 0.07725,0 0.231762,-0.0386 0.386271,-0.0386 0.965677,0 2.047236,0.88842 2.047236,2.16312 0,0.61803 -0.270389,1.04293 -0.424898,1.23606 -0.07725,0 -0.154508,0 -0.27039,0 -1.004304,0 -2.12449,-0.88842 -2.12449,-2.12449 z m 44.996136,12.8242 v -6.33484 c 2.433507,-1.46783 4.017219,-3.36056 4.017219,-5.79407 0,-1.54508 -0.733915,-3.05154 -2.085864,-3.05154 -0.347644,0 -0.92705,0.15451 -1.506457,0.50215 -1.969982,1.12019 -2.12449,2.58802 -2.12449,4.36487 v 0.46352 3.7082 c -1.815474,0.81117 -3.630948,1.15882 -5.948574,2.00861 0,-0.46352 0.03863,-0.96568 0.03863,-1.4292 0,-5.36917 -2.781151,-9.61815 -6.52798,-9.61815 -0.849797,0 -1.73822,0.19314 -2.858406,0.81117 -1.815474,1.04293 -2.085863,2.279 -2.085863,2.93566 0,1.23607 0.888423,2.39488 2.39488,2.39488 0.463525,0 1.081559,-0.0773 1.969982,-0.57941 1.313322,-0.77254 1.776847,-1.73822 1.776847,-2.66527 0,-0.42489 -0.115881,-0.81117 -0.27039,-1.12018 0.579407,0.34764 1.042932,0.77254 1.313322,1.04293 2.356253,2.51076 2.588015,6.29622 2.588015,7.64817 0,0.42489 0,0.84979 -0.03863,1.27469 -4.905642,2.20174 -6.25759,5.25329 -6.25759,6.79837 0,1.27469 0.811169,2.39488 2.163118,2.39488 0.463525,0 1.120186,-0.11588 1.931355,-0.57941 1.120186,-0.65666 2.008609,-1.58371 2.626643,-3.39918 0.579406,-1.62234 0.965677,-3.36056 1.158813,-5.17603 2.317626,-0.81117 4.055845,-1.12019 6.025828,-2.04724 v 6.29622 c 0,1.23607 -0.03863,3.16742 -0.03863,4.40349 0,1.81547 0.03863,3.74683 0.927051,5.33054 1.19744,2.04723 3.090168,2.66527 3.746829,2.81978 l 1.506457,-1.08156 c -1.429203,-0.34765 -2.66527,-1.2747 -3.476439,-2.51076 -0.965678,-1.54509 -1.004305,-3.5537 -1.004305,-5.4078 0,-1.23607 0.03863,-3.16742 0.03863,-4.40349 z m -13.905757,2.51076 c 0,-0.69528 0.231763,-1.39057 0.579407,-1.96998 0.92705,-1.66096 2.201745,-2.54939 3.939964,-3.2833 -0.193135,1.8541 -0.618033,3.63095 -1.158813,5.25328 -0.463525,1.31332 -1.004304,1.93136 -1.236067,2.12449 -0.03863,0 -0.154508,0.0386 -0.309017,0.0386 -0.888423,0 -1.815474,-0.8498 -1.815474,-2.16312 z m -3.515066,-14.8328 c 0,-0.38627 0.154508,-0.77255 0.347644,-1.08156 0.115881,-0.11588 0.115881,-0.11588 0.309017,-0.11588 1.158813,0 2.12449,0.84979 2.12449,2.08586 0,0.73391 -0.309016,1.15881 -0.386271,1.27469 -0.07725,0.0386 -0.193135,0.0386 -0.309016,0.0386 -1.042932,0 -2.085864,-0.92705 -2.085864,-2.20174 z m 19.738449,1.08156 c 0,2.16311 -1.19744,3.43781 -2.317626,4.21035 v -3.7082 -0.4249 c 0,-0.0386 0,-1.19744 0.154508,-1.8541 0.154509,-0.57941 0.347644,-0.88843 0.502153,-1.04293 0.772542,0.0386 1.660965,1.08156 1.660965,2.81978 z m 17.030151,-14.98732 c -0.463525,0 -1.081558,0.0772 -1.931355,0.57941 -1.583711,0.88842 -1.854101,2.00861 -1.854101,2.62664 v 0.0386 0.0386 c 0,0 0,0.0386 0,0.0773 0,0.5794 0,2.279 0,2.62664 v 18.77277 c 0,1.12019 0,2.97429 0.927051,4.558 1.390576,2.39488 3.939964,2.58802 4.673879,2.58802 1.081559,0 2.317626,-0.27039 3.708199,-1.08156 2.35626,-1.35195 3.66958,-3.39919 3.66958,-5.79407 0,-0.4249 -0.0386,-0.81117 -0.11588,-1.19744 l -1.6996,0.92705 c 0.0773,0.34765 0.11589,0.73392 0.11589,1.12019 0,2.31762 -1.2747,3.90134 -2.24038,4.44211 -0.34764,0.19314 -1.120183,0.50216 -2.08586,0.50216 -0.733915,0 -1.506457,-0.15451 -2.201745,-0.50216 -3.051541,-1.46783 -3.051541,-4.78976 -3.051541,-6.45072 0,0 0,-15.87574 0,-18.3865 0.231763,0.0386 0.463525,0.0772 0.733915,0.0772 0.463525,0 1.081559,-0.11588 1.931355,-0.5794 1.506457,-0.88843 1.815474,-1.93136 1.815474,-2.66527 0,-1.08156 -0.811169,-2.31763 -2.394881,-2.31763 z m -2.085863,2.47213 c 0,-0.0386 0,-0.0772 0,-0.11588 0,-0.54078 0.193135,-0.96567 0.424898,-1.27469 0.07725,0 0.193136,0 0.309017,0 1.158813,0 2.085863,0.96568 2.085863,2.08586 0,0.73392 -0.347644,1.15881 -0.463525,1.2747 -0.07725,0.0386 -0.154508,0.0386 -0.27039,0.0386 -1.042931,0 -1.969982,-0.84979 -2.085863,-2.00861 z m 19.077376,10.62246 c 0,0.73391 -0.34765,1.15881 -0.4249,1.27469 -0.0772,0 -0.15451,0 -0.27039,0 -0.96568,0 -2.08586,-0.88842 -2.08586,-2.12449 0,-0.46352 0.1545,-0.92705 0.42489,-1.23607 0.0773,0 0.19314,-0.0386 0.34765,-0.0386 1.04293,0.0386 2.00861,0.88842 2.00861,2.12449 z m 2.16312,12.82419 c 0,-3.86271 0.92705,-6.87562 2.0086,-9.11599 0.30902,0.81117 1.73822,5.33054 1.73822,9.81128 0,1.12019 -0.11588,3.24468 -0.96567,4.24898 -0.0773,0 -0.15451,0.0386 -0.27039,0.0386 -2.08587,0 -2.51076,-2.81978 -2.51076,-4.9829 z m 12.63106,-9.42501 c 1.54508,2.85841 2.31762,6.52798 2.31762,9.07737 0,0.96568 -0.0772,3.90134 -1.04293,5.21466 0,0 0,0 -0.0386,0 -0.81117,0 -1.50646,-0.50215 -1.96999,-1.27469 -0.84979,-1.50646 -0.96567,-3.90134 -0.96567,-5.25329 0,-3.59232 1.27469,-6.837 1.69959,-7.76405 z m -16.84142,-1.0043 c 1.31332,0 3.20605,-1.08156 3.66958,-2.54939 0.88842,0.88842 1.50645,1.8541 1.93135,2.58801 -1.46783,2.43351 -3.09017,6.14171 -3.09017,11.27912 0,4.40349 1.58371,5.17603 2.85841,5.17603 0.46352,0 1.04293,-0.0772 1.93135,-0.57941 1.19744,-0.69528 2.35626,-1.8541 2.35626,-5.67818 0,-4.78976 -1.62234,-9.50227 -1.66097,-9.57952 -0.19313,-0.50215 -0.38627,-1.00431 -0.61803,-1.4292 0.50215,-0.81117 0.73391,-1.12019 1.19744,-1.54509 0.69529,-0.61803 1.46783,-1.0043 2.58801,-1.0043 1.96999,0 3.66958,1.27469 4.9829,3.16742 -1.73822,2.8584 -2.62664,6.87562 -2.66527,9.34776 0,0.15451 -0.0386,0.30901 -0.0386,0.50215 0,1.35195 0.11588,3.74683 1.00431,5.29191 0.46352,0.81117 1.15881,1.39058 2.279,1.39058 0.38627,0 0.92705,-0.0773 1.66096,-0.50215 0.65666,-0.38627 1.00431,-0.73392 1.19744,-1.00431 1.08156,-1.31332 1.2747,-3.82408 1.2747,-5.63956 0,-2.70389 -0.8498,-6.60523 -2.54939,-9.54089 -0.11588,-0.23176 -0.27039,-0.46352 -0.4249,-0.69529 0.92705,-1.46783 1.73822,-1.96998 1.8541,-2.00861 0.15451,-0.11588 0.57941,-0.30901 1.31332,-0.30901 2.97429,0 6.33485,3.97859 6.33485,10.19755 0,2.43351 -0.46353,5.94858 -2.62665,9.34776 l 1.58372,-0.57941 c 2.31762,-3.59232 2.74252,-7.18464 2.74252,-9.61814 0,-5.98721 -3.16742,-10.42932 -6.68249,-10.42932 -0.8498,0 -1.8541,0.23176 -2.97429,0.88842 -0.92705,0.54078 -1.58371,1.12019 -2.12449,1.69959 -1.23606,-1.54508 -2.78115,-2.62664 -4.78976,-2.62664 -2.04723,0 -4.28761,1.31332 -5.67818,2.78115 -1.46783,-2.24037 -3.66958,-3.93996 -5.36917,-3.93996 -0.0386,0 -0.0386,0 -0.0772,0 0,0 -0.0386,0 -0.0386,0 -0.54078,0 -1.15881,0.11588 -1.96998,0.61803 -1.73822,1.00431 -1.81548,2.24037 -1.81548,2.62664 0,1.19744 1.04294,2.35626 2.43351,2.35626 z m 43.87597,-0.19314 c 0,0.57941 -0.27039,1.00431 -0.46353,1.23607 -0.0772,0.0386 -0.15451,0.0386 -0.27039,0.0386 -1.08156,0 -2.08586,-0.92705 -2.08586,-2.16312 0,-0.65666 0.30901,-1.08156 0.42489,-1.19744 0.0773,0 0.0773,0 0.27039,0 1.00431,0 2.1245,0.77254 2.1245,2.08586 z m -2.08587,2.35626 c 1.31332,0 3.20605,-1.08156 3.66958,-2.51077 0.61803,0.73392 1.08156,1.50646 1.39057,2.12449 -0.23176,0.38628 -0.46352,0.81117 -0.65666,1.23607 -1.4292,3.05154 -2.16312,6.48935 -2.16312,8.92286 0,3.93997 1.42921,4.558 2.54939,4.558 0.4249,0 0.96568,-0.0772 1.81548,-0.54078 1.15881,-0.65666 2.20174,-1.73822 2.20174,-5.1374 0,-2.04724 -0.54078,-6.06446 -1.50646,-8.65247 -0.1545,-0.4249 -0.34764,-0.8498 -0.50215,-1.23607 0.4249,-0.77254 0.92705,-1.46783 1.4292,-2.08587 1.46783,-1.69959 2.7039,-2.16311 4.1331,-2.16311 3.66958,0 7.33915,3.97859 7.33915,10.85421 0,1.39058 -0.1545,4.9829 -2.08586,8.76835 l 1.62234,-0.69528 c 2.04723,-3.90134 2.16312,-7.53229 2.16312,-8.92286 0,-6.72112 -3.47644,-11.08598 -7.6868,-11.08598 -1.19744,0 -2.54939,0.34764 -3.97859,1.15881 -0.92705,0.54078 -2.20174,1.4292 -3.51506,3.16742 -1.93136,-3.20605 -4.32624,-3.32193 -4.67388,-3.32193 -0.57941,0 -1.23607,0.0773 -2.16312,0.61804 -1.50646,0.84979 -1.81548,1.89272 -1.81548,2.58801 0,1.19744 0.92705,2.35626 2.43351,2.35626 z m 3.90134,8.92286 c 0,-2.16312 0.61803,-5.13741 1.73822,-7.87993 0.96568,2.54939 1.46783,6.48935 1.46783,8.45933 0,2.279 -0.50215,3.32193 -0.81117,3.74683 -0.0386,0 -0.11588,0 -0.15451,0 -1.89273,0 -2.24037,-2.58801 -2.24037,-4.32623 z m 36.15054,-0.0386 c 0,-3.20605 1.08156,-6.25759 1.73822,-7.80268 0.27039,0.73392 1.46783,4.558 1.46783,8.42071 0,2.279 -0.50215,3.32193 -0.81117,3.74683 -0.0773,0 -0.11588,0 -0.15451,0 -1.89272,0 -2.24037,-2.58801 -2.24037,-4.36486 z m 8.18895,-1.46783 c 0,-1.8541 0.88842,-3.32193 1.81547,-3.82408 1.04293,-0.61804 2.89703,-0.69529 3.47644,-0.69529 0.96568,0 3.47644,0.19313 3.51507,0.19313 0.0772,1.08156 0.11588,2.12449 0.11588,3.1288 0,0 0,0.65666 0,0.65666 v 0.30902 c 0,0.61803 0,1.69959 -0.23176,2.78115 -0.4249,2.31762 -1.50646,2.97428 -1.54509,3.01291 -0.0386,0 -0.65666,0.27039 -1.58371,0.27039 -2.89703,0 -5.5623,-2.51076 -5.5623,-5.83269 z m -5.90995,-9.61815 c -1.31332,-2.08586 -3.09017,-3.39918 -4.67388,-3.39918 -0.54078,0 -1.19744,0.11588 -2.12449,0.61803 -1.81547,1.08156 -1.81547,2.35625 -1.81547,2.62664 0,1.23607 0.96567,2.35626 2.39488,2.35626 1.31332,0 3.16742,-1.04294 3.63095,-2.43351 0.69528,0.77254 1.15881,1.54508 1.4292,2.04723 -0.57941,1.08156 -1.12019,2.31763 -1.58371,3.63095 -0.73392,2.04724 -1.23607,4.32624 -1.23607,6.52798 0,3.93997 1.46783,4.558 2.58802,4.558 0.42489,0 0.96567,-0.0772 1.81547,-0.54078 1.15881,-0.65666 2.20174,-1.73822 2.20174,-5.1374 0,-4.32624 -1.46783,-8.53659 -1.50645,-8.65247 -0.15451,-0.4249 -0.34765,-0.81117 -0.54078,-1.19745 0.46352,-0.84979 0.92705,-1.54508 1.31332,-1.96998 0.30902,-0.38627 1.08156,-1.12018 1.81547,-1.54508 0.57941,-0.34765 1.50646,-0.73392 2.93566,-0.73392 3.28331,0 6.95288,2.51077 7.87993,7.33915 -0.65666,-0.0386 -1.27469,-0.0772 -1.96998,-0.0772 -1.12019,0 -2.08586,0.11588 -2.97429,0.34764 -2.16312,0.57941 -5.36916,2.35626 -5.36916,6.10308 0,3.32194 2.54938,6.06446 5.90994,6.06446 1.04293,0 2.00861,-0.15451 3.24468,-0.8498 2.7039,-1.58371 3.16742,-4.17172 3.16742,-7.14601 v -0.0386 c 0,0 0,-0.23176 0,-0.23176 v -0.0386 -0.65666 c 0,-0.73391 0,-1.46783 -0.0772,-2.20174 0.38627,0 0.73391,-0.0386 1.08156,-0.0386 l 1.31332,-1.08156 c -0.4249,0 -0.8498,0 -1.23607,0 -0.46353,0 -0.8498,0 -1.23607,0 -0.0773,-0.65666 -0.19313,-1.31332 -0.34764,-1.93135 -1.12019,-4.05585 -4.40349,-6.68249 -8.03444,-6.68249 -2.81978,0 -6.10308,1.77684 -7.99581,4.36486 z m -4.1331,-0.15451 c 0,0.69529 -0.34764,1.15881 -0.46352,1.23607 -0.0386,0.0386 -0.15451,0.0386 -0.27039,0.0386 -1.00431,0 -2.04724,-0.8498 -2.04724,-2.12449 0,-0.69529 0.30902,-1.12019 0.4249,-1.23607 0.0772,-0.0386 0.0772,-0.0386 0.27039,-0.0386 1.0043,0 2.08586,0.8498 2.08586,2.12449 z m 39.70426,0 c 0,0.69529 -0.34764,1.15881 -0.42489,1.23607 -0.0773,0 -0.15451,0.0386 -0.27039,0.0386 -1.04294,0 -2.04724,-0.88843 -2.04724,-2.16312 0,-0.65666 0.30902,-1.08156 0.4249,-1.19744 0.0773,-0.0386 0.0773,-0.0386 0.27039,-0.0386 0.96567,0 2.04723,0.81117 2.04723,2.12449 z m -2.04723,2.35626 c 1.31332,0 3.16742,-1.08156 3.63094,-2.47214 0.69529,0.81117 1.15882,1.62234 1.42921,2.08586 -0.23177,0.4249 -0.46353,0.8498 -0.65666,1.2747 -1.42921,3.05154 -2.16312,6.45072 -2.16312,8.88423 0,3.93997 1.46783,4.558 2.54939,4.558 0.46352,0 1.0043,-0.0772 1.81547,-0.54078 1.15881,-0.65666 2.20175,-1.73822 2.20175,-5.1374 0,-1.50646 -0.38627,-6.68249 -2.00861,-9.84992 0.4249,-0.77254 0.92705,-1.50645 1.4292,-2.08586 1.46783,-1.73822 2.7039,-2.20174 4.17173,-2.20174 2.39488,0 5.60093,1.81547 6.75974,6.48935 0.50215,2.00861 0.73391,3.55369 0.73391,5.63956 0,2.47213 -0.0386,8.4207 -3.86271,11.93577 -2.24037,2.08586 -5.29191,2.35625 -6.68248,2.35625 -1.54509,0 -3.09017,-0.30901 -4.48075,-0.84979 l -1.54508,1.08156 c 1.4292,0.54078 3.01291,0.84979 4.67388,0.84979 2.4335,0 4.75113,-0.65666 6.95288,-1.93135 6.06445,-3.47644 6.64386,-9.57952 6.64386,-14.29203 0,-2.12449 -0.27039,-3.66957 -0.73392,-5.67818 -0.27039,-1.12019 -0.65666,-2.08587 -1.15881,-2.89704 -1.46783,-2.58801 -3.82408,-3.78545 -5.94857,-3.78545 -1.19744,0 -2.54939,0.34764 -3.9786,1.15881 -0.96567,0.54078 -2.24037,1.46783 -3.55369,3.20605 -0.69529,-1.08156 -1.50646,-1.96998 -2.35625,-2.54939 -0.77254,-0.54078 -1.54509,-0.84979 -2.31763,-0.84979 -0.54078,0 -1.19744,0.11588 -2.12449,0.61803 -1.81547,1.08156 -1.81547,2.35625 -1.81547,2.62664 0,1.19744 0.92705,2.35626 2.39488,2.35626 z m 3.93996,8.92286 c 0,-2.16312 0.57941,-5.13741 1.73822,-7.87993 0.92705,2.54939 1.4292,6.48935 1.4292,8.45933 0,2.279 -0.46352,3.32193 -0.81117,3.74683 -0.0386,0 -0.0773,0 -0.1545,0 -1.89273,0 -2.20175,-2.58801 -2.20175,-4.32623 z m 29.93161,-5.29192 c 0,4.75114 3.97859,10.69971 10.81558,10.69971 6.37348,0 12.47656,-5.63956 12.47656,-12.24479 0,-6.72112 -5.52368,-9.50227 -6.37347,-9.88854 l -1.58371,1.04293 c 3.32193,1.50646 6.25759,5.06015 6.25759,9.73403 0,4.1331 -2.97429,10.27481 -9.42502,10.27481 -6.37347,0 -10.46794,-5.67818 -10.46794,-10.46794 0,-4.48075 3.09017,-8.30483 7.53228,-8.30483 2.04724,0 3.7082,0.88842 4.71251,2.12449 -1.00431,0.11588 -3.36056,1.15881 -3.36056,3.20605 0,1.27469 1.12019,2.31763 2.43351,2.31763 1.23607,0 3.74683,-1.04294 3.74683,-3.32194 0,0 0,0 0,-0.0386 0,0 0,-0.0386 0,-0.0386 0,-2.12449 -1.93136,-5.33054 -6.18034,-5.33054 -4.21035,0 -10.58382,3.63095 -10.58382,10.23618 z m 15.06457,-3.93996 c 0,0.77254 -0.27039,1.15881 -0.38628,1.31332 -0.0772,0 -0.1545,0.0386 -0.30901,0.0386 -0.92705,0 -2.08587,-0.81117 -2.08587,-2.12449 0,-0.61804 0.27039,-1.04294 0.4249,-1.23607 0.0773,0 0.15451,-0.0386 0.27039,-0.0386 0.92705,0 2.08587,0.73392 2.08587,2.04724 z m 23.5195,-2.04724 c 0,0.57941 -0.19313,0.96568 -0.38627,1.19744 -0.0772,0 -0.19313,0.0386 -0.27039,0.0386 -1.15881,0 -2.12449,-0.96568 -2.12449,-2.12449 0,-0.57941 0.23176,-0.96568 0.4249,-1.23607 0.11588,0 0.15451,0 0.19313,0 1.12019,0 2.16312,0.69529 2.16312,2.12449 z m 1.12019,16.45515 c 0,-4.59663 0.88842,-9.19325 2.66527,-13.36498 1.58371,2.89703 2.78115,6.75974 2.78115,11.20186 0,1.89273 -0.15451,7.14601 -1.96998,9.00011 -0.0386,0 -0.19314,0.0386 -0.30902,0.0386 -3.16742,0 -3.16742,-4.94427 -3.16742,-6.87562 z m 3.05154,-16.33927 c -0.69529,-0.92705 -1.46783,-1.69959 -2.16312,-2.24037 -0.92705,-0.69529 -1.77685,-1.12018 -2.62664,-1.12018 -0.54078,0 -1.15881,0.11588 -2.04724,0.61803 -1.15881,0.65666 -1.81547,1.58371 -1.81547,2.58801 0,1.15882 0.88842,2.35626 2.47213,2.35626 0.46353,0 1.08156,-0.11588 1.93136,-0.57941 0.5794,-0.34764 1.31332,-0.88842 1.62234,-1.77685 0.50215,0.54078 1.0043,1.19744 1.50645,1.89273 -0.27039,0.50216 -0.50215,0.96568 -0.73391,1.46783 -1.96998,4.40349 -2.89703,9.19325 -2.89703,14.02164 v 0.0386 c 0,2.54939 0.11588,7.03013 3.51506,7.03013 0.46353,0 1.12019,-0.11588 1.96998,-0.57941 0.81117,-0.46352 1.19744,-0.92705 1.46783,-1.31332 1.62234,-2.12449 1.89273,-6.4121 1.89273,-9.07737 0,-6.25759 -2.279,-10.58382 -3.47644,-12.43792 1.23607,-2.12449 2.43351,-3.05154 3.05154,-3.39919 0.61804,-0.34764 1.66097,-0.73391 3.1288,-0.73391 4.48074,0 8.57522,4.09447 8.57522,9.15462 0,3.05154 -1.58372,4.90564 -2.43351,5.40779 -0.23176,0.11589 -0.88843,0.38628 -1.81548,0.38628 -1.04293,0 -2.16311,-0.34765 -3.05154,-1.00431 l -1.62233,1.04293 c 0.92705,0.65666 2.08586,1.04293 3.32193,1.04293 1.0043,0 2.16311,-0.23176 3.47644,-0.96567 3.36055,-1.96999 3.82408,-5.13741 3.82408,-6.75975 0,-5.02152 -4.01722,-9.38638 -8.92286,-9.38638 -3.32193,0 -6.25759,1.81547 -8.15032,4.32623 z m 39.89735,11.9744 c 0,-0.5794 0.27039,-1.0043 0.46353,-1.19744 0.0772,-0.0386 0.19313,-0.0386 0.30902,-0.0386 0.96567,0 2.08586,0.88842 2.08586,2.12449 0,0.0772 0,0.0772 -0.0386,0.0772 0,0.57941 -0.27039,1.00431 -0.4249,1.19744 -0.0772,0 -0.11588,0 -0.19313,0 -1.15881,0 -2.20175,-0.81117 -2.20175,-2.16312 z m -9.19325,-5.40779 c 0,-2.04724 0.65666,-3.97859 1.73822,-5.60093 0.88843,-1.27469 2.00861,-2.24037 3.05154,-2.8584 1.2747,-0.73392 3.20605,-1.35195 5.52368,-1.35195 6.25759,0 12.01303,4.51937 12.01303,10.77696 0,3.63095 -1.96998,6.21896 -3.63095,7.18464 -0.65666,0.38627 -1.73822,0.77254 -3.09017,0.77254 -0.0386,0 -0.69529,0 -0.69529,0 -0.77254,0 -1.62233,0.15451 -2.66527,0.73392 -1.50645,0.88842 -2.27899,2.08586 -2.27899,3.36055 0,1.62234 1.39057,3.1288 3.39918,3.1288 0.69529,0 1.54508,-0.15451 2.54939,-0.73392 1.89273,-1.08155 2.24037,-2.4335 2.31763,-2.78115 l -1.66097,0.77254 c -0.23176,0.8498 -0.77254,1.39058 -0.92705,1.50646 0,0 -0.34764,0.15451 -0.92705,0.15451 -1.62234,0 -3.05154,-1.27469 -3.05154,-2.89703 0,-1.23607 0.73391,-1.93136 0.84979,-2.00861 0,0 0.34765,-0.15451 1.04294,-0.15451 0.19313,0 0.42489,0 0.69528,0 1.46783,0 3.05154,-0.38627 4.75114,-1.35195 3.59232,-2.08586 5.02152,-5.40779 5.02152,-8.53659 0,-6.29622 -5.71681,-11.00872 -12.36067,-11.00872 -5.21466,0 -9.42501,2.8584 -11.47225,5.83269 -1.23607,1.81547 -1.89273,3.82408 -1.89273,5.94857 0,5.09878 4.36486,9.116 8.6911,9.116 3.93996,0 6.75974,-2.54939 6.75974,-4.558 0,-1.23607 -1.0043,-2.39488 -2.43351,-2.39488 -0.46352,0 -1.12018,0.11588 -1.96998,0.61804 -1.54508,0.92705 -1.8541,1.96998 -1.8541,2.62664 0,1.31332 0.96568,2.35625 2.54939,2.35625 0.11588,0 0.19314,0 0.34764,-0.0386 -0.73391,0.27039 -1.58371,0.30902 -2.04723,0.30902 -3.86271,0 -8.34346,-3.78545 -8.34346,-8.92286 z m 34.1806,-5.9872 c 0,0 0,0 0,0 0,0.0386 0,0.0772 0,0.11588 0.0772,1.31332 0.92705,2.35625 2.43351,2.35625 1.39057,0 3.74683,-1.31332 3.74683,-3.12879 0,-1.2747 -0.96568,-2.43351 -2.43351,-2.43351 -0.34765,0 -0.8498,0.11588 -1.46783,0.38627 0.5794,-0.84979 1.23606,-1.15881 2.20174,-1.15881 2.16312,0 5.52368,1.69959 7.37778,3.90134 -0.38627,0.5794 -0.77254,1.15881 -1.12019,1.77684 -1.50645,2.7039 -2.47213,5.9872 -2.47213,9.00012 0,2.8584 1.23607,5.17603 3.47644,5.17603 0.50215,0 1.15881,-0.11588 2.04723,-0.61803 0.81117,-0.46353 2.85841,-1.6996 2.85841,-6.45073 0,-3.05154 -0.77254,-6.10308 -2.08586,-8.38208 -0.30902,-0.46353 -0.61804,-0.92705 -0.92705,-1.31332 1.27469,-1.66097 2.78115,-3.05154 5.09877,-3.05154 1.2747,0 2.62665,0.50215 3.66958,1.39057 l 1.62234,-1.0043 c -1.04294,-0.92705 -2.43351,-1.46783 -3.93997,-1.46783 -1.19744,0 -2.62664,0.34764 -4.21035,1.23606 -1.2747,0.69529 -2.16312,1.54509 -2.81978,2.24038 -1.93136,-2.00861 -4.94427,-3.5537 -7.22327,-3.5537 -2.43351,0 -5.83269,2.279 -5.83269,4.9829 z m 9.96579,9.96579 c 0,-4.24898 1.8541,-7.87993 2.54939,-9.03874 2.279,3.43781 2.43351,7.64817 2.43351,8.84561 0,3.66957 -1.2747,4.90564 -1.42921,5.09877 -0.0772,0 -0.23176,0.0386 -0.42489,0.0386 -1.6996,0 -3.1288,-1.8541 -3.1288,-4.94427 z m -8.2662,-10.81559 c 0.0386,-0.54078 0.34765,-0.92705 0.54078,-1.15881 0.0386,0 0.0772,0 0.15451,0 1.04293,0 2.08586,0.92705 2.08586,2.20175 0,0.69528 -0.34764,1.08155 -0.4249,1.15881 -0.0386,0 -0.1545,0.0386 -0.27039,0.0386 -1.12018,0 -2.08586,-0.8498 -2.08586,-2.24038 z"
           id="path29" />
        <path
           style="font-family:'NewEng Thai';-inkscape-font-specification:'NewEng Thai';text-align:start;text-anchor:start;fill:#34033b;fill-opacity:1;stroke:#34033b;stroke-opacity:1"
           d="m 42.069222,234.64724 c 0,-0.38627 0.07725,-0.8498 0.386271,-1.27469 0.115882,-0.0386 0.231763,-0.0386 0.347644,-0.0386 h 0.03863 c 1.815474,0.27039 1.969983,1.66096 1.969983,2.16312 0,0.54078 -0.193136,0.96567 -0.424899,1.19744 -0.03863,0.0386 -0.115881,0.0386 -0.231762,0.0386 -1.004305,0 -2.085864,-0.84979 -2.085864,-2.08586 z m -1.699592,0.8498 c 0,1.23606 1.004304,2.31762 2.433507,2.31762 0.463525,0 1.081559,-0.11588 1.892728,-0.5794 1.19744,-0.69529 1.815474,-1.62234 1.815474,-2.62665 0,-1.08155 -0.656661,-2.08586 -2.085863,-2.35625 -0.888424,-0.15451 -3.592321,-0.4249 -4.94427,-0.4249 -1.660965,0 -3.746828,0.19314 -5.832692,1.39058 -3.321931,1.93135 -3.476439,4.67388 -3.476439,5.09878 0,0.73391 0.193135,1.4292 0.540779,2.04723 1.390576,2.39488 4.751134,2.39488 6.025828,2.39488 0,0 1.506457,0 1.506457,0 6.334845,0 7.030133,3.09017 7.030133,4.44212 0,1.62234 -1.042932,3.12879 -2.163118,3.78546 -0.540779,0.27038 -1.660965,0.69528 -3.090168,0.69528 -4.094473,0 -7.300522,-2.51076 -9.73403,-5.75544 l -1.660965,0.96568 c 2.433507,3.28331 5.678184,5.87132 10.043046,5.87132 1.545084,0 3.090168,-0.34764 4.712507,-1.27469 3.244676,-1.89273 3.59232,-4.24898 3.59232,-5.13741 0,-0.54078 -0.115881,-1.31332 -0.540779,-2.04723 -0.772542,-1.31333 -2.588016,-2.66527 -6.836997,-2.66527 l -1.506457,0.0386 h -0.03863 c -1.236068,0 -4.210354,0 -5.60093,-2.16311 -0.386271,-0.61804 -0.579407,-1.35195 -0.579407,-2.04724 0,-1.00431 0.656661,-2.93566 2.085864,-3.74683 1.274694,-0.73391 3.321931,-0.81117 4.171727,-0.81117 0.849796,0 2.39488,0.11588 3.553693,0.27039 -1.004304,0.73392 -1.313321,1.54509 -1.313321,2.31763 z m 26.37792,-14.71693 c -1.120186,0 -2.278999,0.23176 -3.669575,1.00431 -3.553693,2.08586 -3.553693,5.17603 -3.553693,7.26189 v 20.78138 l 0.03863,5.21466 c 0,2.62664 -1.236068,3.93997 -1.622339,4.17173 0,0 -0.347644,0.19313 -0.965677,0.19313 -1.892728,0 -3.824083,-1.81547 -3.824083,-4.01722 0,-0.84979 0.270389,-1.66096 0.733915,-2.24037 l -1.545084,0.54078 c -0.618034,0.81117 -0.888424,1.66097 -0.888424,2.54939 0,2.16312 1.854101,4.24898 4.171727,4.24898 0.733915,0 1.545084,-0.15451 2.626643,-0.77254 2.39488,-1.35195 3.012914,-3.59232 3.012914,-5.52368 l -0.03863,-5.25328 v -20.78138 c 0,-1.2747 0.07725,-1.93136 0.193136,-2.58802 0.347643,-1.77684 1.313321,-2.89703 1.969982,-3.2833 0.270389,-0.15451 1.004304,-0.4249 2.008609,-0.4249 3.360558,0 5.716811,2.24037 5.716811,4.63525 0,0.54078 -0.07725,1.08156 -0.193135,1.54509 -0.07725,-1.23607 -1.004305,-2.31763 -2.510762,-2.31763 -1.313321,0 -3.669575,1.31332 -3.669575,3.16742 0,1.2747 0.888424,2.39488 2.394881,2.39488 0.03863,0 0.07725,0 0.115881,0 1.158813,0 2.163118,-0.4249 2.781151,-0.81117 1.274695,-0.69528 2.781152,-2.04723 2.781152,-4.82838 0,-2.47214 -2.317627,-4.86702 -6.064455,-4.86702 z m 2.472134,8.22757 c 0,0.50216 -0.27039,1.00431 -0.463525,1.19744 -0.07725,0 -0.193136,0 -0.27039,0 -1.042932,0 -2.047236,-0.84979 -2.047236,-2.16311 0,-0.61804 0.270389,-1.04294 0.424898,-1.19744 0.03863,-0.0386 0.115881,-0.0386 0.193135,-0.0386 1.120186,0 2.163118,0.88842 2.163118,2.20174 z m 8.339028,6.52798 c 0,1.58372 1.19744,2.93566 2.935659,2.93566 1.699593,0 4.287609,-1.62233 4.287609,-3.63094 0,-0.88843 -0.347644,-1.50646 -0.618034,-1.89273 1.390576,0 3.669575,0 6.025828,0 -4.094473,1.81547 -6.952878,5.33054 -6.952878,9.65677 0,5.63956 4.673879,10.15893 10.313436,10.15893 2.626643,0 4.635252,-0.88842 4.635252,-1.46783 0,-0.11588 -0.154508,-0.11588 -0.154508,-0.11588 -0.03863,0 -1.583712,0.50215 -3.128796,0.50215 -5.214658,0 -9.965792,-4.28761 -9.965792,-9.96579 0,-3.24468 2.047236,-8.57522 8.845606,-8.76835 2.93566,0 5.291913,0 5.291913,0 0.502153,0 1.506453,-0.65666 1.506453,-0.96568 0,-0.11588 -0.11588,-0.11588 -0.1545,-0.11588 h -4.751138 c -0.03863,0 -0.07725,0 -0.193135,0 -0.115881,0 -0.231763,0 -0.347644,0 H 84.086692 c -0.656661,0 -1.313322,0 -2.008609,0 -1.892728,0 -4.519371,1.4292 -4.519371,3.66957 z m 5.523675,0.15451 c 0,0.81117 -0.463525,1.39058 -0.695288,1.58371 -0.07725,0.0386 -0.270389,0.0773 -0.540779,0.0773 -1.274694,0 -2.588016,-1.08156 -2.588016,-2.66527 0,-1.00431 0.502152,-1.50646 0.618034,-1.62234 0.07725,-0.0772 0.65666,-0.11588 0.733915,-0.11588 0,0 0.03863,0 0.07725,0 1.158813,0 2.39488,1.15881 2.39488,2.74252 z m 31.592553,-1.50645 c 0,-0.0386 0,-0.0773 0,-0.0773 0,0 0,-0.0386 0,-0.0386 0.11588,-0.65666 0.30902,-1.0043 0.4249,-1.12018 0.0773,0 0.15451,-0.0386 0.23176,-0.0386 1.50646,0 2.12449,1.31332 2.12449,2.12449 0,0.73392 -0.34764,1.12019 -0.4249,1.23607 -0.0772,0.0386 -0.1545,0.0386 -0.30901,0.0386 -0.8498,0 -2.04724,-0.77255 -2.04724,-2.12449 z m -0.0773,3.24467 c 0,-0.0386 0,-0.11588 0,-0.15451 0.23176,0.0773 0.50215,0.11589 0.77254,0.11589 0.46352,0 1.08156,-0.11589 1.96998,-0.57941 1.4292,-0.8498 1.81547,-1.8541 1.81547,-2.62664 0,-0.69529 -0.50215,-2.35626 -2.47213,-2.35626 -0.50215,0 -1.04293,0.0773 -1.89273,0.57941 -1.58371,0.88842 -1.89273,2.08586 -1.89273,3.74683 v 0.0386 0.50215 c 0,0 0,0.4249 0,1.04293 0,0.50215 0,0.50215 0,0.57941 0,3.90133 3.47644,7.45503 9.38639,7.45503 5.52368,0 8.49796,-3.05154 9.2705,-3.9786 v 10.85422 c 0,0.11588 0.15451,0.11588 0.15451,0.11588 0.50215,0 1.54509,-0.65666 1.54509,-0.96568 v -13.98301 c 0,-0.15451 0,-0.30901 0,-0.46352 0,-0.15451 0,-0.38627 0,-0.46353 v -4.94427 c 0,-0.11588 -0.15451,-0.11588 -0.19314,-0.11588 -0.46352,0 -1.50646,0.69529 -1.50646,1.00431 v 5.83269 c 0,1.12019 -0.50215,2.20174 -1.12018,3.12879 -0.57941,0.81117 -1.2747,1.39058 -1.93136,1.77685 -0.96567,0.54078 -2.66527,1.12019 -4.86701,1.12019 -5.52368,0 -9.03874,-3.36056 -9.03874,-7.2619 z m 32.75136,-3.16742 c 0,0 0,-0.15451 0,-0.19314 0,0 0,0 0,0 0.0773,-0.46352 0.23176,-0.84979 0.46353,-1.12018 0.0386,0 0.1545,-0.0386 0.23176,-0.0386 1.15881,0 2.12449,0.96568 2.12449,2.16312 0,0.61803 -0.27039,1.0043 -0.4249,1.19744 -0.0386,0.0386 -0.15451,0.0386 -0.27039,0.0386 -1.12018,0 -2.12449,-0.96568 -2.12449,-2.04724 z m 2.04724,-2.43351 c -0.4249,0 -1.00431,0.0773 -1.89273,0.57941 -1.4292,0.81117 -1.8541,1.89273 -1.89273,3.05154 0,0 -0.0386,1.04293 -0.0386,2.51076 0,0 0,1.00431 0,1.00431 0,0.38627 0,0.81117 0,1.19744 v 3.05154 c 0,0.65666 0,1.69959 0,1.69959 0,4.05585 3.63095,7.8413 9.92717,7.8413 2.81978,0 5.02152,-0.77254 6.75974,-1.73822 3.93997,-2.279 4.558,-5.29191 4.558,-6.95288 0,0 -0.0386,-1.0043 -0.0386,-1.58371 0,-0.65666 0,-1.31332 0,-1.93135 v -8.61385 c 0,-0.11588 -0.11588,-0.11588 -0.15451,-0.11588 -0.50215,0 -1.54508,0.69529 -1.54508,1.00431 v 8.57521 c 0,0.65666 0,1.31333 0,1.96999 0,0.5794 0.0386,1.46783 0.0386,1.58371 0,1.81547 -0.77254,3.12879 -1.19744,3.74683 -0.57941,0.84979 -1.31332,1.4292 -1.96998,1.81547 -1.77685,1.0043 -4.01722,1.15881 -5.09878,1.15881 -5.94858,0 -9.57952,-3.59232 -9.57952,-7.60954 0,-0.73391 0,-1.19744 0,-1.73822 0,0 0,-3.01291 0,-3.01291 0,-0.19314 0,-2.04724 0,-2.04724 0.27039,0.0773 0.54078,0.11589 0.84979,0.11589 0.4249,0 1.08156,-0.11589 1.93136,-0.61804 1.4292,-0.81117 1.81547,-1.77685 1.81547,-2.54939 0,-1.19744 -0.88842,-2.39488 -2.47213,-2.39488 z m 29.69979,3.24468 c 0,1.39057 1.15881,2.35625 2.39488,2.35625 1.39057,0 2.62664,-0.96568 3.05154,-1.4292 3.74683,6.02583 5.79406,11.16323 6.45072,16.68691 0.0386,0.0772 0.15451,0.0772 0.19314,0.0772 0.46352,0 1.46783,-0.61803 1.50646,-0.96568 0.27039,-1.96998 0.84979,-4.7125 1.96998,-7.76404 1.4292,-3.78546 3.74683,-8.07307 7.30052,-11.8199 0.11588,-0.0772 0.15451,-0.19313 0.15451,-0.27039 0,-0.11588 -0.11588,-0.11588 -0.15451,-0.11588 -0.34764,0 -1.04293,0.38627 -1.39057,0.73392 -4.90565,5.17603 -7.37778,10.93147 -8.57522,15.29633 -1.15881,-4.558 -3.28331,-9.03874 -6.52798,-14.06027 -0.19314,-0.27038 -0.34765,-0.5794 -0.50215,-0.81116 -0.30902,-0.50216 -1.04294,-1.12019 -2.12449,-1.12019 -1.54509,0 -3.74683,1.50646 -3.74683,3.20605 z m 4.48074,-0.0386 v 0.0386 c 0,0.57941 -0.23176,1.0043 -0.4249,1.23607 -0.0772,0 -0.19313,0.0386 -0.30901,0.0386 -0.81117,0 -2.04724,-0.73391 -2.04724,-2.12449 0,-0.61803 0.30902,-1.08156 0.46352,-1.27469 0.0773,0 0.15451,0 0.23177,0 0.69528,0 2.08586,0.57941 2.08586,2.08586 z"
           id="path30" />
        <path
           style="font-family:'NewEng Thai';-inkscape-font-specification:'NewEng Thai';text-align:start;text-anchor:start;fill:#34033b;fill-opacity:1;stroke:#34033b;stroke-opacity:1"
           d="m 30.867363,272.84944 c 0,-0.54077 0.193135,-0.92705 0.463525,-1.23606 0.07725,-0.0386 0.154508,-0.0386 0.231763,-0.0386 0.695287,0 1.429202,0.38627 1.815473,1.04293 0.193136,0.30902 0.309017,0.73392 0.309017,1.12019 0,0.4249 -0.154508,0.84979 -0.424898,1.19744 -0.07725,0.0386 -0.154508,0.0386 -0.309017,0.0386 -1.042931,0 -2.085863,-0.92706 -2.085863,-2.1245 z m 11.742639,13.44224 c -1.004305,-2.16312 -1.583711,-4.94427 -1.583711,-7.84131 0,-1.77684 0.309016,-5.25328 1.236067,-6.52798 0,0 0.03863,0 0.03863,0 0.463525,0 0.92705,0.27039 1.274694,0.88843 0.618034,1.0043 0.888424,2.8584 0.888424,5.29191 0,4.09447 -1.313322,7.10739 -1.854101,8.18895 z m -1.158813,1.93135 c -1.313322,1.73822 -2.394881,2.08586 -3.592321,2.08586 -3.553693,0 -7.532285,-4.09447 -7.532285,-12.70831 0,-0.61804 0.03863,-1.23607 0.07726,-1.8541 0.347643,0.19313 0.733914,0.30901 1.19744,0.30901 0.463525,0 1.120186,-0.11588 1.969982,-0.5794 1.506457,-0.88843 1.815474,-1.89273 1.815474,-2.58802 0,-1.27469 -0.965678,-2.39488 -2.433508,-2.39488 -0.579406,0 -1.19744,0.15451 -1.931355,0.57941 -0.540779,0.30901 -0.92705,0.65666 -1.158813,0.92705 -0.618034,0.73391 -0.733915,1.27469 -1.004305,3.16742 -0.154508,1.12019 -0.231762,2.20175 -0.231762,3.2833 0,8.38209 3.785456,12.94008 7.879929,12.94008 2.356253,0 4.442116,-1.46783 5.446421,-2.47213 1.120186,1.54508 2.588016,2.51076 4.480744,2.51076 0.849796,0 1.931355,-0.23176 3.244676,-1.0043 4.017219,-2.31763 5.021524,-6.91426 5.021524,-10.81559 v -0.0386 c 0,-3.05154 -0.54078,-6.10308 -1.545084,-9.00011 0,-0.0773 -0.115882,-0.0773 -0.154509,-0.0773 -0.502152,0 -1.545084,0.65666 -1.545084,0.96568 0,0.0772 1.545084,3.86271 1.545084,9.00011 0,4.9829 -1.622338,7.53229 -2.588016,8.61385 -0.502152,0.54078 -1.236067,1.23606 -2.626643,1.23606 -1.815473,0 -3.399185,-1.08155 -4.557998,-2.89703 2.742525,-3.90134 2.93566,-8.88423 2.93566,-10.15893 0,-5.52367 -1.351948,-6.45072 -2.510762,-6.45072 -0.386271,0 -0.888423,0.0772 -1.699592,0.54078 -1.120186,0.65666 -1.73822,1.50645 -2.085863,3.12879 -0.347644,1.62234 -0.54078,3.24468 -0.54078,4.86702 0,4.78976 1.429203,7.72542 2.124491,8.88423 z m 28.154709,0.19314 c 0,-0.92705 0.502153,-1.66097 0.888424,-2.12449 1.429202,-1.77685 3.167422,-2.85841 5.9872,-4.1331 -0.193135,4.21035 -3.515066,7.4164 -4.480743,8.03443 -0.07725,0.0386 -0.27039,0.11588 -0.579407,0.11588 -0.888423,0 -1.815474,-0.77254 -1.815474,-1.89272 z m 16.995925,-15.1032 c 0,0.50215 -0.115881,0.92705 -0.27039,1.27469 -1.081559,2.78116 -3.399185,4.01722 -5.832692,5.13741 0.07725,-4.40349 2.278999,-6.79837 2.93566,-7.4164 0.811169,-0.73392 1.19744,-0.73392 1.429202,-0.73392 0.927051,0 1.73822,0.61803 1.73822,1.73822 z m -15.798485,-2.81978 c -0.502152,0 -1.120186,0.0773 -1.969982,0.57941 -1.583711,0.88842 -1.854101,2.00861 -1.854101,2.62664 0,1.31332 1.004305,2.35625 2.433508,2.35625 0.463525,0 1.081559,-0.0772 1.931355,-0.5794 1.081559,-0.61804 1.545084,-1.35195 1.738219,-1.93136 0.579407,0.65666 1.158813,1.42921 1.660966,2.279 1.004304,1.69959 1.660965,3.74683 1.738219,5.63956 -1.854101,0.84979 -5.291913,2.51076 -7.493657,5.29191 -0.463526,0.57941 -1.081559,1.50646 -1.081559,2.51076 0,1.12019 0.849796,2.12449 2.163117,2.12449 2.356254,0 4.712507,-2.70389 5.485049,-3.7082 1.313321,-1.62234 2.472134,-3.82408 2.626643,-6.29622 0.03863,0 0.618033,-0.23176 0.618033,-0.27039 0.115882,6.60524 3.824084,10.27481 7.570912,10.27481 2.00861,0 3.746829,-1.04293 3.746829,-1.46783 0,-0.11588 -0.154508,-0.11588 -0.154508,-0.11588 -0.424898,0 -0.965678,0.50215 -2.240372,0.50215 -3.244677,0 -7.06876,-3.2833 -7.223268,-9.92716 2.588016,-1.19744 4.519371,-2.43351 5.871319,-3.90134 1.313322,-1.4292 1.931356,-3.09017 1.931356,-4.01722 0,-1.12018 -0.772543,-2.00861 -2.085864,-2.00861 -0.540779,0 -1.390576,0.27039 -2.356253,0.81117 -3.012914,1.73822 -4.944269,5.21466 -5.060151,9.19325 -0.07725,0.0386 -0.618033,0.27039 -0.618033,0.27039 -0.115881,-4.67388 -3.824083,-10.23618 -7.377777,-10.23618 z m -2.12449,2.35625 c 0,-0.69528 0.347644,-1.15881 0.424898,-1.23606 0.07725,-0.0386 0.193135,-0.0386 0.347644,-0.0386 0.154508,0 0.347644,0 0.502152,0.0386 0.695288,0.15451 1.506457,0.92705 1.506457,2.08586 0,0.61803 -0.231763,1.00431 -0.424898,1.2747 -0.07725,0 -0.154508,0 -0.27039,0 -1.004304,0 -2.085863,-0.81117 -2.085863,-2.1245 z m 32.905892,0.0386 c 0,-0.0386 0,-0.23176 0,-0.30901 0,0 0,0 0,0 0.0773,-0.54078 0.30902,-0.88843 0.38628,-0.96568 0.0773,0 0.19313,-0.0386 0.23176,-0.0386 1.0043,0 2.16312,0.77254 2.16312,2.16312 0,0.61803 -0.4249,1.15881 -0.46353,1.19744 -0.0773,0.0386 -0.15451,0.0386 -0.27039,0.0386 -0.8498,0 -2.04724,-0.73392 -2.04724,-2.08587 z m 15.99162,12.59244 c -0.65666,-2.97429 -1.23606,-6.4121 -1.23606,-9.57952 0,-3.01292 0.23176,-3.51507 0.38627,-3.78546 0.0773,-0.19314 0.19313,-0.38627 0.30902,-0.54078 0,0 0.0386,0 0.0773,0 0.69529,0 1.23607,0.4249 1.62234,1.08156 0.81117,1.39057 0.81117,3.7082 0.81117,4.67388 0,4.21035 -1.2747,6.95288 -1.96999,8.15032 z m -16.14612,-5.25329 c 0,0 0,-1.54508 0,-2.04724 0,0 0,-1.31332 0,-1.35194 v -0.88843 c 0.27039,0.0773 0.54078,0.11588 0.84979,0.11588 0.50215,0 1.12019,-0.0772 1.93136,-0.5794 1.69959,-0.96568 1.8541,-2.279 1.8541,-2.58802 0,-1.39057 -1.08156,-2.39488 -2.51076,-2.39488 -0.77255,0 -1.62234,0.46353 -1.89273,0.61804 -1.54509,0.88842 -1.738221,1.93135 -1.776848,2.27899 -0.154508,0.77255 -0.154508,2.16312 -0.154508,2.20175 0,0 0,0.92705 0,1.12018 0,0 0,1.00431 0,1.00431 0,0 0,1.31332 0,1.35195 0,0.46352 0,2.00861 0,2.04723 0,7.33915 5.214656,10.27481 9.231876,10.27481 3.55369,0 6.37347,-2.12449 7.4164,-3.05154 1.35195,5.21466 2.1245,6.06446 2.1245,7.41641 0,1.4292 -0.92706,2.12449 -0.92706,2.12449 0,0.0386 -0.34764,0.15451 -0.77254,0.15451 -1.58371,0 -3.05154,-1.35195 -3.05154,-3.1288 0,-0.81117 0.34765,-1.4292 0.34765,-1.50646 0,-0.11588 -0.15451,-0.11588 -0.15451,-0.11588 -0.4249,0 -1.31332,0.50215 -1.50646,0.88842 -0.38627,0.69529 -0.38627,1.31333 -0.38627,1.58372 0,1.77684 1.39057,3.36055 3.39918,3.36055 0.61804,0 1.42921,-0.1545 2.39488,-0.73391 2.00861,-1.12019 2.35626,-2.58802 2.35626,-3.47644 0,-1.46783 -0.92705,-2.54939 -2.31763,-8.15032 3.24468,-3.97859 3.36056,-8.8456 3.36056,-10.31343 v -0.0386 c 0,-2.24037 -0.19314,-5.90995 -2.78115,-5.90995 -0.96568,0 -2.24037,0.61804 -2.97429,1.58371 -0.65666,0.8498 -0.84979,1.66097 -0.84979,4.67388 0,3.63095 0.73391,7.57091 1.50645,10.73834 -0.69529,0.81117 -2.54939,2.81977 -5.83269,2.81977 -3.59232,0 -8.88423,-2.70389 -8.88423,-10.08167 z m 52.68289,-6.79837 c 0,0.81117 -0.4249,1.19744 -0.46353,1.19744 -0.0386,0.0386 -0.73391,0.34765 -1.77684,0.34765 -0.46353,0 -0.92706,-0.0386 -1.35195,-0.11589 0.15451,-0.38627 0.30901,-0.73391 0.46352,-1.08155 0.46353,-1.04294 0.69529,-1.66097 1.19744,-2.16312 0.0386,-0.0386 0.11588,-0.0386 0.19314,-0.0386 0.84979,0 1.73822,0.77254 1.73822,1.8541 z m -0.38627,-2.93566 c -0.46353,0 -1.04294,0.11588 -1.8541,0.57941 -1.46783,0.84979 -1.96999,2.00861 -2.54939,3.43781 -3.28331,-1.19744 -5.71681,-4.01722 -9.27051,-4.01722 -1.0043,0 -2.04723,0.19314 -3.2833,0.92705 -2.51076,1.4292 -2.85841,3.36056 -2.85841,4.32624 0,0.11588 0,0.27039 0,0.38627 0,1.4292 1.35195,2.31762 2.43351,2.31762 0.4249,0 1.08156,-0.11588 1.93136,-0.61803 1.54508,-0.88842 1.8541,-1.93135 1.8541,-2.58801 0,-1.2747 -1.04294,-2.39489 -2.51077,-2.39489 -0.34764,0 -0.92705,0.0773 -1.69959,0.50216 0.46353,-1.04293 1.15882,-1.42921 1.15882,-1.42921 0.1545,-0.11588 0.73391,-0.34764 1.62233,-0.34764 3.59232,0 6.37348,3.39919 10.00442,4.28761 -2.00861,4.28761 -5.06015,7.95718 -8.38208,11.31774 -1.15881,-0.50215 -2.20174,-0.81117 -3.12879,-0.81117 -0.65666,0 -1.31332,0.0773 -2.279,0.65666 -1.35195,0.77254 -1.73822,1.66097 -1.73822,2.39488 0,0.96568 0.69529,1.96998 2.00861,1.96998 0.54078,0 1.35195,-0.23176 2.12449,-0.69528 0.77254,-0.4249 1.08156,-0.73392 2.47213,-2.00861 0.30902,0.11588 0.61804,0.27039 0.92705,0.38627 2.39488,1.08156 5.06015,2.31762 7.76405,2.31762 3.43781,0 5.94857,-1.96998 6.91425,-3.24467 0.65666,-0.81117 0.92705,-1.58371 0.92705,-2.279 0,-1.00431 -0.73391,-1.96998 -1.96998,-1.96998 -0.38627,0 -0.92705,0.0772 -1.69959,0.54078 -1.2747,0.73391 -1.62234,1.54508 -1.62234,2.24037 0,0.46352 0.0772,0.46352 0.19313,0.46352 0.50216,0 1.54509,-0.65666 1.54509,-0.96568 0,-0.0386 -0.0386,-0.1545 -0.0386,-0.34764 0,-0.38627 0.11588,-0.65666 0.23176,-0.8498 0,0 0.0386,0 0.0386,0 0.77254,0 1.62234,0.69529 1.62234,1.77685 0,1.04293 -0.8498,2.279 -1.89273,2.89703 -0.46352,0.27039 -1.46783,0.65666 -2.89703,0.65666 -2.47214,0 -5.13741,-1.19744 -7.53229,-2.27899 -0.42489,-0.19314 -0.84979,-0.38628 -1.23606,-0.54078 3.47644,-3.39919 6.68249,-7.18464 8.88423,-11.43363 0.19314,0 0.38627,0.0386 0.57941,0.0386 1.73822,0 3.16742,-0.81117 3.43781,-0.96568 1.8541,-1.08156 1.8541,-2.20174 1.8541,-2.58801 0,-1.04293 -0.81117,-2.04724 -2.08586,-2.04724 z m -18.85003,18.07749 c 0,-0.50216 0.19314,-0.8498 0.34764,-1.04294 0.15451,-0.0386 0.34765,-0.0772 0.61804,-0.0772 0.84979,0 1.96998,0.38627 3.24467,0.92705 -1.19744,1.12019 -1.89272,1.73822 -2.08586,1.8541 0,0 -0.0772,0.0772 -0.46352,0.0772 -0.8498,0 -1.66097,-0.73391 -1.66097,-1.73821 z m 3.55369,-12.47656 c 0,0.77254 -0.42489,1.19744 -0.46352,1.23607 -0.0386,0 -0.15451,0 -0.27039,0 -0.65666,0 -2.08586,-0.65666 -2.08586,-2.04724 0,-0.0773 0,-0.11588 0,-0.19313 0,0 0,0 0,0 0.0386,-0.61804 0.34764,-1.00431 0.42489,-1.12019 0.0773,0 0.15451,-0.0386 0.23177,-0.0386 1.04293,0 2.16311,0.88843 2.16311,2.16312 z"
           id="path31" />
      </g>
      <g
         id="text38"
         style="font-size:100.749px;text-align:end;letter-spacing:0px;text-anchor:end;opacity:0.81;stroke:#000000;stroke-width:2.04735"
         aria-label="Thaiic">
        <path
           style="font-family:'NewEng Thai';-inkscape-font-specification:'NewEng Thai';text-align:center;letter-spacing:2.5px;text-anchor:middle"
           d="m 238.81301,239.87133 c 0,4.13071 3.12322,7.65692 7.65693,7.65692 4.43295,0 11.18314,-4.23145 11.18314,-9.4704 0,-2.31723 -0.90674,-3.92921 -1.61199,-4.9367 3.62697,0 9.57116,0 15.71685,0 -10.6794,4.7352 -18.13482,13.90336 -18.13482,25.18725 0,14.70935 12.19063,26.49698 26.89998,26.49698 6.85093,0 12.08988,-2.31722 12.08988,-3.82846 0,-0.30225 -0.403,-0.30225 -0.403,-0.30225 -0.10074,0 -4.1307,1.30974 -8.16066,1.30974 -13.60112,0 -25.99325,-11.18314 -25.99325,-25.99324 0,-8.46292 5.3397,-22.36628 23.07152,-22.87002 7.65693,0 13.80262,0 13.80262,0 1.30973,0 3.92921,-1.71274 3.92921,-2.51873 0,-0.30225 -0.30225,-0.30225 -0.403,-0.30225 H 286.0643 c -0.10075,0 -0.2015,0 -0.50375,0 -0.30225,0 -0.60449,0 -0.90674,0 H 255.8396 c -1.71274,0 -3.42547,0 -5.23895,0 -4.9367,0 -11.78764,3.72772 -11.78764,9.57116 z m 14.40711,0.403 c 0,2.11572 -1.20899,3.62696 -1.81348,4.1307 -0.2015,0.10075 -0.70524,0.2015 -1.41049,0.2015 -3.32471,0 -6.75018,-2.82097 -6.75018,-6.95168 0,-2.61947 1.30974,-3.92921 1.61198,-4.23146 0.2015,-0.20149 1.71274,-0.30224 1.91424,-0.30224 0,0 0.10074,0 0.20149,0 3.02247,0 6.24644,3.02247 6.24644,7.15318 z m 60.63218,-1.30974 c 0,1.00749 -0.60449,2.31723 -1.10823,2.92172 -0.2015,0 -0.403,0 -0.6045,0 -2.61947,0 -5.54119,-2.41798 -5.54119,-5.5412 0,-1.51123 0.60449,-2.51872 1.10824,-3.22396 0.20149,0 0.50374,0 0.80599,0 3.02247,0 5.33969,2.31722 5.33969,5.84344 z m -0.20149,18.03407 c 0,0.60449 0,1.30974 0,1.91423 v 16.01909 c 0,2.11573 0,5.1382 -1.30974,7.05243 -1.30974,-0.10075 -2.51873,-1.00749 -3.42547,-2.51872 -1.10824,-1.91423 -1.61198,-4.53371 -1.61198,-7.25393 0,-5.44045 2.21648,-11.38464 6.34719,-15.2131 z m 4.63445,-20.3513 c 0,-3.22397 -2.01498,-6.44793 -6.24644,-6.44793 -1.20899,0 -2.92172,0.30224 -5.1382,1.61198 -3.92921,2.31723 -4.7352,5.03745 -4.7352,6.85093 0,3.02247 2.61947,6.04494 6.44794,6.04494 1.71273,0 3.32471,-0.60449 4.9367,-1.51123 -0.10075,1.00749 -0.10075,2.31722 -0.10075,4.13071 0,1.41048 0,1.41048 0.2015,7.65692 -3.32472,2.11573 -5.5412,4.63445 -7.15318,7.25393 -2.41798,3.62696 -3.62697,7.85842 -3.62697,12.19063 0,4.43295 1.51124,10.37714 6.14569,10.37714 1.00749,0 2.51873,-0.40299 4.13071,-1.30973 4.63446,-2.72023 4.9367,-6.24644 4.9367,-10.78015 v -16.01909 c 0,-0.80599 0,-1.51123 0,-2.31722 1.10824,-0.30225 2.41798,-0.50375 4.02996,-0.50375 2.11573,0 8.26142,0.30225 12.79513,8.16067 4.7352,8.16067 5.13819,20.04905 5.13819,23.97826 0,3.72771 -0.30224,7.35468 -0.90674,10.98164 l 4.43296,-2.11573 c 0.60449,-3.62696 0.90674,-7.35467 0.90674,-11.08239 0,-11.08239 -2.82097,-32.74342 -18.84006,-32.74342 -2.41798,0 -4.9367,0.40299 -7.55618,1.51123 -0.2015,-6.04494 -0.2015,-6.04494 -0.2015,-7.45542 0,-5.7427 0.403,-6.64944 0.403,-8.46292 z m 61.53885,43.01982 c -0.60449,0.2015 -1.51123,0.2015 -1.51123,0.2015 -0.80599,0 -1.61199,-0.2015 -2.41798,-0.50374 -2.11573,-1.61199 -2.31722,-4.43296 -2.31722,-5.03745 0,-0.2015 0,-0.403 0,-0.50375 1.51123,-1.10824 2.92172,-1.10824 3.52621,-1.10824 0.70524,0 1.51124,0.10075 2.21648,0.403 1.51123,1.20899 2.41797,2.92172 2.41797,4.7352 0,0.2015 0,0.50375 -0.10074,0.70525 -0.50375,0.40299 -1.10824,0.80599 -1.81349,1.10823 z m 25.691,-19.24305 c 0,4.63445 -1.20899,8.46291 -2.51873,11.18313 -4.02996,5.7427 -9.2689,8.26142 -10.98164,8.96667 l -1.20899,5.13819 c 4.23146,-1.91423 7.95918,-4.83595 10.78015,-8.56366 0.80599,-1.20899 0.80599,-1.20899 4.13071,-6.85093 3.42546,-6.04494 3.62696,-11.68689 3.62696,-13.50037 0,-12.29138 -7.75767,-19.24306 -10.67939,-21.45954 -1.20899,-0.90674 -1.91423,-1.30973 -4.02996,-2.51872 -4.13071,-2.41798 -8.96666,-3.72771 -13.70187,-3.72771 -5.84344,0 -11.78763,1.91423 -16.82508,5.54119 -3.32472,2.31723 -6.04494,5.44045 -8.05992,8.86591 l -2.51873,4.43296 c -3.02247,5.03745 -3.62696,9.97415 -3.62696,13.29887 0,9.6719 5.23895,15.61609 7.55618,17.83257 1.91423,1.71273 3.22396,2.41798 5.44044,3.72771 4.13071,2.31723 8.05992,2.92172 10.6794,2.92172 4.3322,0 6.64943,-1.61198 7.85842,-2.92172 0.40299,-0.50374 0.40299,-0.50374 3.22397,-5.54119 0.70524,-1.00749 0.90674,-2.11573 0.90674,-2.92172 0,-3.22397 -2.41798,-4.83595 -3.02247,-5.23895 -2.01498,-1.10824 -2.61948,-1.51124 -4.23146,-1.51124 -3.22397,0 -4.7352,2.21648 -5.23895,3.02247 l -2.51872,4.33221 c -0.6045,1.10824 -0.806,2.21648 -0.806,3.02247 0,0.70524 0.2015,1.41049 0.403,2.11573 -1.91423,-0.403 -3.72771,-1.10824 -5.44045,-2.01498 -1.20898,-0.80599 -2.31722,-1.71273 -3.42546,-2.61947 -6.85093,-6.44794 -7.55618,-14.50786 -7.55618,-17.83258 0,-5.33969 1.71274,-9.36965 2.41798,-11.08239 1.81348,-2.61947 4.13071,-4.9367 6.75018,-6.75018 6.64944,-4.83595 13.39962,-5.54119 16.82508,-5.54119 4.53371,0 9.06741,1.20898 13.09737,3.32471 6.14569,3.82846 9.16816,9.16816 10.57865,12.29138 1.41049,3.32472 2.11573,6.95168 2.11573,10.57865 z"
           id="path40" />
        <path
           style="font-family:'NewEng Thai';-inkscape-font-specification:'NewEng Thai';text-align:center;text-anchor:middle"
           d="m 429.37391,215.49007 c 0,1.51124 -0.60449,2.72022 -1.10824,3.22397 -0.10075,0 -0.40299,0.10075 -0.70524,0.10075 -2.61947,0 -5.3397,-2.31723 -5.3397,-5.5412 0,-1.91423 0.90674,-3.02247 1.10824,-3.22396 0.2015,-0.10075 0.403,-0.10075 0.70524,-0.10075 2.61948,0 5.3397,2.31722 5.3397,5.54119 z m -1.81348,-8.36217 c -1.20899,0 -2.82097,0.2015 -5.03745,1.51124 -3.92921,2.31723 -4.7352,5.03745 -4.7352,6.85093 0,3.12322 2.51872,6.14569 6.24643,6.14569 1.20899,0 2.82098,-0.30225 5.03745,-1.51123 3.92922,-2.31723 4.73521,-5.03745 4.73521,-6.85094 0,-3.22396 -2.41798,-6.14569 -6.24644,-6.14569 z m -5.3397,29.82171 c 0,-0.10075 0,-0.10075 0,-0.2015 0,-1.71273 0.50375,-2.82097 1.00749,-3.62696 0.2015,0 0.50375,0 0.80599,0 2.41798,0 5.44045,1.91423 5.44045,5.33969 0,1.91423 -0.80599,3.02247 -1.10824,3.32472 -0.2015,0.10075 -0.50374,0.10075 -0.80599,0.10075 -2.21648,0 -5.3397,-2.11573 -5.3397,-4.9367 z m 5.3397,-6.75018 c -1.20899,0 -2.82097,0.20149 -5.1382,1.51123 -4.02996,2.41798 -4.63445,5.3397 -4.63445,7.35468 0,2.92172 1.41048,10.17565 1.41048,17.83257 0,18.43707 0,18.43707 0.70525,20.5528 0.30224,0.80599 0.60449,1.51123 1.00749,2.21647 1.91423,3.42547 5.33969,5.1382 9.06741,5.1382 2.01498,0 4.3322,-0.40299 7.25392,-2.11573 5.7427,-3.32471 6.75019,-7.75767 6.75019,-10.47789 0,-1.10824 -0.2015,-2.31723 -0.6045,-3.42547 l -4.43295,2.41798 c 0.40299,1.10824 0.60449,2.21648 0.60449,3.32472 0,3.92921 -2.31723,6.44793 -3.12322,6.85093 -0.10075,0.10075 -1.20899,0.60449 -2.92172,0.60449 -3.52621,0 -7.55617,-2.01498 -9.16816,-6.95168 -0.70524,-2.01498 -0.70524,-1.91423 -0.70524,-20.3513 0,-3.62696 -0.30225,-7.05243 -0.6045,-10.0749 0.30225,0.10075 0.70525,0.10075 1.00749,0.10075 1.30974,0 2.92173,-0.2015 5.1382,-1.51123 3.62697,-2.11573 4.73521,-4.63446 4.73521,-6.95168 0,-3.52622 -2.82098,-6.04494 -6.34719,-6.04494 z m 21.66109,-14.70936 c 0,1.51124 -0.60449,2.72022 -1.10824,3.22397 -0.10075,0 -0.40299,0.10075 -0.70524,0.10075 -2.61947,0 -5.3397,-2.31723 -5.3397,-5.5412 0,-1.91423 0.90674,-3.02247 1.10824,-3.22396 0.2015,-0.10075 0.403,-0.10075 0.70524,-0.10075 2.61948,0 5.3397,2.31722 5.3397,5.54119 z m -1.81348,-8.36217 c -1.20899,0 -2.82097,0.2015 -5.03745,1.51124 -3.92921,2.31723 -4.7352,5.03745 -4.7352,6.85093 0,3.12322 2.51872,6.14569 6.24643,6.14569 1.20899,0 2.82098,-0.30225 5.03745,-1.51123 3.92922,-2.31723 4.73521,-5.03745 4.73521,-6.85094 0,-3.22396 -2.41798,-6.14569 -6.24644,-6.14569 z m -5.3397,29.82171 c 0,-0.10075 0,-0.10075 0,-0.2015 0,-1.71273 0.50375,-2.82097 1.00749,-3.62696 0.2015,0 0.50375,0 0.80599,0 2.41798,0 5.44045,1.91423 5.44045,5.33969 0,1.91423 -0.80599,3.02247 -1.10824,3.32472 -0.2015,0.10075 -0.50374,0.10075 -0.80599,0.10075 -2.21648,0 -5.3397,-2.11573 -5.3397,-4.9367 z m 5.3397,-6.75018 c -1.20899,0 -2.82097,0.20149 -5.1382,1.51123 -4.02996,2.41798 -4.63445,5.3397 -4.63445,7.35468 0,2.92172 1.41048,10.17565 1.41048,17.83257 0,18.43707 0,18.43707 0.70525,20.5528 0.30224,0.80599 0.60449,1.51123 1.00749,2.21647 1.91423,3.42547 5.33969,5.1382 9.06741,5.1382 2.01498,0 4.3322,-0.40299 7.25392,-2.11573 5.7427,-3.32471 6.75019,-7.75767 6.75019,-10.47789 0,-1.10824 -0.2015,-2.31723 -0.6045,-3.42547 l -4.43295,2.41798 c 0.40299,1.10824 0.60449,2.21648 0.60449,3.32472 0,3.92921 -2.31723,6.44793 -3.12322,6.85093 -0.10075,0.10075 -1.20899,0.60449 -2.92172,0.60449 -3.52621,0 -7.55617,-2.01498 -9.16816,-6.95168 -0.70524,-2.01498 -0.70524,-1.91423 -0.70524,-20.3513 0,-3.62696 -0.30225,-7.05243 -0.6045,-10.0749 0.30225,0.10075 0.70525,0.10075 1.00749,0.10075 1.30974,0 2.92173,-0.2015 5.1382,-1.51123 3.62697,-2.11573 4.73521,-4.63446 4.73521,-6.95168 0,-3.52622 -2.82098,-6.04494 -6.34719,-6.04494 z m 37.7809,15.41459 c 0,3.32472 2.61947,6.14569 6.44793,6.14569 1.10824,0 2.72023,-0.2015 4.9367,-1.51123 4.53371,-2.61948 4.73521,-5.64195 4.73521,-6.85094 0,-7.25392 -9.36966,-13.09737 -18.03407,-13.09737 -4.13071,0 -8.66442,1.10824 -13.29887,3.82847 -12.79513,7.35467 -14.20561,18.94081 -14.20561,23.87751 0,14.70935 11.18314,26.79923 25.288,26.79923 4.33221,0 9.06741,-1.10824 14.10486,-3.92921 4.9367,-2.82097 8.16067,-6.44793 11.38464,-11.28389 0,-0.20149 0.10074,-0.30224 0.10074,-0.40299 0,-0.30225 -0.40299,-0.30225 -0.50374,-0.30225 -1.00749,0 -3.12322,1.20899 -3.82846,2.11573 -1.51124,2.41798 -3.22397,4.63445 -4.9367,6.34719 -4.23146,4.02996 -9.87341,4.63445 -12.79513,4.63445 -12.89587,0 -24.38126,-11.48538 -24.38126,-26.19474 0,-10.17565 5.44045,-17.53032 10.4779,-20.3513 2.01498,-1.20898 5.23895,-2.31722 9.06741,-2.31722 4.33221,0 9.26891,1.71273 12.69438,4.5337 -1.51124,0.50375 -7.25393,2.92172 -7.25393,7.95917 z m 9.8734,3.32472 c -1.81348,0 -3.72771,-1.10824 -4.7352,-2.82097 -0.50375,-0.80599 -0.70525,-1.81348 -0.70525,-2.72023 0,-1.20898 0.403,-2.41797 1.10824,-3.22396 0.2015,-0.10075 0.403,-0.10075 0.80599,-0.10075 1.61199,0 3.52622,0.80599 4.93671,3.32471 0,0 0.40299,0.90675 0.40299,2.21648 0,1.61199 -0.60449,2.72023 -1.10824,3.22397 -0.2015,0.10075 -0.40299,0.10075 -0.70524,0.10075 z"
           id="path41" />
      </g>
    </g>
  </g>
</svg>
