<?xml version="1.0" encoding="UTF-8" standalone="no"?>
<!-- Created with Inkscape (http://www.inkscape.org/) -->

<svg
   width="882.03998"
   height="94.413254"
   viewBox="0 0 233.37309 24.980175"
   version="1.1"
   id="svg1"
   inkscape:version="1.4 (86a8ad7, 2024-10-11)"
   sodipodi:docname="Word Hangeulic Regular Thanks Moon.svg"
   xmlns:inkscape="http://www.inkscape.org/namespaces/inkscape"
   xmlns:sodipodi="http://sodipodi.sourceforge.net/DTD/sodipodi-0.dtd"
   xmlns="http://www.w3.org/2000/svg"
   xmlns:svg="http://www.w3.org/2000/svg">
  <sodipodi:namedview
     id="namedview1"
     pagecolor="#ffffff"
     bordercolor="#000000"
     borderopacity="0.25"
     inkscape:showpageshadow="2"
     inkscape:pageopacity="0.0"
     inkscape:pagecheckerboard="0"
     inkscape:deskcolor="#d1d1d1"
     inkscape:document-units="px"
     inkscape:zoom="1.0393815"
     inkscape:cx="425.73396"
     inkscape:cy="36.079149"
     inkscape:window-width="1920"
     inkscape:window-height="1027"
     inkscape:window-x="-8"
     inkscape:window-y="-8"
     inkscape:window-maximized="1"
     inkscape:current-layer="layer1" />
  <defs
     id="defs1" />
  <g
     inkscape:label="Layer 1"
     inkscape:groupmode="layer"
     id="layer1"
     transform="translate(-20.020035,-65.793585)">
    <text
       xml:space="preserve"
       style="font-size:28.2222px;line-height:1;font-family:'BlockTrain Hand';-inkscape-font-specification:'BlockTrain Hand';text-align:start;writing-mode:lr-tb;direction:ltr;text-anchor:start;display:none;fill:#19919b;fill-opacity:1;stroke:#7c7c7c;stroke-width:0.79375;stroke-dasharray:none;stroke-opacity:1"
       x="136.70659"
       y="88.739998"
       id="text1"><tspan
         sodipodi:role="line"
         id="tspan1"
         style="font-style:normal;font-variant:normal;font-weight:normal;font-stretch:normal;font-size:28.2222px;font-family:'NewEng Hangeul';-inkscape-font-specification:'NewEng Hangeul';text-align:center;text-anchor:middle;fill:#19919b;fill-opacity:1;stroke:#7c7c7c;stroke-width:0.79375;stroke-dasharray:none;stroke-opacity:1"
         x="136.70659"
         y="88.739998">Þaŋks mꝏn</tspan></text>
    <path
       style="font-size:28.2222px;line-height:1;font-family:'NewEng Hangeul';-inkscape-font-specification:'NewEng Hangeul';text-align:center;text-anchor:middle;fill:#19919b;stroke:#7c7c7c;stroke-width:0.79375"
       d="m 20.41691,68.561125 v 20.940872 l 0.705555,0.874888 2.82222,-2.370664 v -3.58422 h 15.52221 l 2.031999,-1.693332 v 0.846666 l 0.705555,0.846666 2.82222,-2.342442 V 72.99201 L 44.292891,72.117122 H 25.835572 l -1.890887,1.580443 V 67.065348 L 23.210908,66.19046 Z m 3.527775,6.773328 H 41.498894 V 81.20467 H 25.835572 l -1.890887,1.580444 z m 27.431982,12.671768 v -8.099772 h 15.52221 l 1.890888,-1.608665 v 11.204213 l 0.705555,0.874888 2.82222,-2.370664 V 67.065348 L 71.583763,66.19046 H 53.267554 l -1.890887,1.608665 V 67.065348 L 50.64289,66.19046 47.848892,68.561125 v 20.940872 l 0.705555,0.874888 z m 0,-18.59843 h 17.413098 v 7.253105 H 53.267554 l -1.890887,1.608666 z m 45.409548,20.969094 2.82222,-2.370664 V 67.065348 L 98.874658,66.19046 96.08066,68.561125 v 7.986882 l -15.52221,-8.861771 -1.890887,1.608666 v -2.229554 l -0.733778,-0.874888 -2.793998,2.370665 v 16.086654 l 0.705555,0.846666 2.822221,-2.342443 V 71.016456 l 15.52221,8.889993 1.890887,-1.608665 v 8.833548 H 81.997782 l -2.82222,2.370665 0.733777,0.874888 z M 124.35933,67.234681 h -3.66889 l -8.57954,8.551327 v 0.874888 h -4.26156 l -1.89088,1.608666 V 67.065348 l -0.73378,-0.874888 -2.794,2.370665 v 20.940872 l 0.70556,0.874888 2.82222,-2.370664 v -8.099772 h 12.5871 l 4.82599,9.595548 0.70556,0.874888 2.82222,-2.370664 L 121.65,77.535784 120.94444,76.660896 H 116.062 l 8.29733,-8.297327 z m 6.06781,2.17311 h 1.38289 l -2.08845,1.777998 v 7.845772 l 0.70556,0.874888 h 20.23531 v 7.224883 h -18.14687 l -2.794,2.370665 0.70556,0.874888 h 18.34443 l 1.89088,-1.608665 v 0.733777 l 0.70556,0.874888 2.82222,-2.370664 V 77.535784 l -0.73378,-0.874888 h -20.20709 v -6.970883 l -0.22578,-0.282222 h 18.34443 l 2.82222,-2.342443 -0.73378,-0.874888 h -20.94087 l -2.794,2.370665 z m 43.51867,-0.846666 v 20.940872 l 0.70556,0.874888 2.82222,-2.370664 v -15.77621 l 7.64821,7.676438 2.82222,-2.370665 6.94266,-6.942661 v 18.908874 l 0.70556,0.874888 2.82222,-2.370664 V 67.065348 l -0.73378,-0.874888 -2.794,2.370665 v 0.423333 l -2.62466,2.201331 -5.27755,5.249329 -7.62,-7.619994 -1.89088,1.580444 v -3.33022 l -0.73378,-0.874888 z m 30.81867,2.144887 c 0,-0.479778 0,-0.903111 0,-1.269999 h 5.87022 l 2.82222,-2.370665 -0.73378,-0.874888 -6.858,0.02822 c -0.73377,0 -1.15711,0 -1.41111,0.225778 l -2.82222,2.342442 c -0.39511,0.338667 -0.39511,1.213555 -0.39511,3.414886 v 15.578655 c 0,0.818444 0,1.241777 0.16934,1.467554 l 0.73377,0.846666 c 0.22578,0.282222 0.67734,0.282222 1.63689,0.282222 h 6.858 c 0.67733,0 1.10066,-0.02822 1.35466,-0.225777 l 2.82222,-2.370665 c 0.39511,-0.338666 0.42334,-1.241777 0.42334,-3.499553 v -13.6031 c 0,-0.423333 0,-0.846666 0.0282,-1.241777 h 4.79777 0.98778 c 0.47978,0 0.84666,0 1.10066,0.02822 0.0282,0.197555 0.0282,0.479777 0.0282,0.818444 v 15.578654 c 0,0.479778 -0.0282,0.903111 -0.0282,1.269999 h -5.50332 l -2.794,2.370665 0.70555,0.874888 h 5.50333 l 0.98778,-0.02822 c 0.73378,0 1.15711,0 1.43933,-0.225777 l 2.794,-2.342443 c 0.42333,-0.338666 0.42333,-1.213555 0.42333,-3.414886 V 68.786902 c 0,-0.818444 0,-1.241777 -0.19755,-1.467554 l -0.73378,-0.846666 c -0.19756,-0.282222 -0.64911,-0.282222 -1.63689,-0.282222 h -0.98778 -5.84199 c -0.47978,0 -0.81845,0.141111 -1.07244,0.338666 l -2.82222,2.370665 c -0.70556,0.592666 -0.70556,1.890887 -0.70556,3.273775 v 13.603101 c 0,0.536222 -0.0282,0.987777 -0.0282,1.354665 h -5.81378 c -0.47977,0 -0.81844,0 -1.10066,-0.02822 0,-0.197555 0,-0.479777 0,-0.818444 z m 23.76312,-2.144887 v 20.940872 l 0.70555,0.874888 2.82222,-2.370664 v -15.77621 l 15.52221,15.52221 1.89089,-1.580443 v 3.330219 l 0.70555,0.874888 2.82222,-2.370664 V 67.065348 l -0.73377,-0.874888 -2.794,2.370665 v 15.77621 l -15.52221,-15.522211 -1.89089,1.580444 v -3.33022 L 231.3216,66.19046 Z"
       id="text2"
       aria-label="Þaŋks mꝏn" />
  </g>
</svg>
