<?xml version="1.0" encoding="UTF-8" standalone="no"?>
<!-- Created with Inkscape (http://www.inkscape.org/) -->

<svg
   width="695.79938"
   height="105.39992"
   viewBox="0 0 184.09692 27.887062"
   version="1.1"
   id="svg1"
   inkscape:version="1.4 (86a8ad7, 2024-10-11)"
   sodipodi:docname="Word TallThin Fifth Eighth.svg"
   xmlns:inkscape="http://www.inkscape.org/namespaces/inkscape"
   xmlns:sodipodi="http://sodipodi.sourceforge.net/DTD/sodipodi-0.dtd"
   xmlns="http://www.w3.org/2000/svg"
   xmlns:svg="http://www.w3.org/2000/svg">
  <sodipodi:namedview
     id="namedview1"
     pagecolor="#ffffff"
     bordercolor="#000000"
     borderopacity="0.25"
     inkscape:showpageshadow="2"
     inkscape:pageopacity="0.0"
     inkscape:pagecheckerboard="0"
     inkscape:deskcolor="#d1d1d1"
     inkscape:document-units="px"
     inkscape:zoom="1.4699074"
     inkscape:cx="363.28819"
     inkscape:cy="94.223623"
     inkscape:window-width="1920"
     inkscape:window-height="1027"
     inkscape:window-x="-8"
     inkscape:window-y="-8"
     inkscape:window-maximized="1"
     inkscape:current-layer="layer1" />
  <defs
     id="defs1" />
  <g
     inkscape:label="Layer 1"
     inkscape:groupmode="layer"
     id="layer1"
     transform="translate(-44.658134,-66.894251)">
    <text
       xml:space="preserve"
       style="font-size:28.2222px;line-height:1;font-family:'BlockTrain Hand';-inkscape-font-specification:'BlockTrain Hand';text-align:start;writing-mode:lr-tb;direction:ltr;text-anchor:start;display:none;fill:#19919b;fill-opacity:1;stroke:#7c7c7c;stroke-width:0.79375;stroke-dasharray:none;stroke-opacity:1"
       x="136.70659"
       y="88.739998"
       id="text1"><tspan
         sodipodi:role="line"
         style="font-style:normal;font-variant:normal;font-weight:normal;font-stretch:normal;font-size:28.2222px;font-family:TallThin;-inkscape-font-specification:TallThin;text-align:center;text-anchor:middle;fill:#19919b;fill-opacity:1;stroke:#7c7c7c;stroke-width:0.79375;stroke-dasharray:none;stroke-opacity:1"
         x="0"
         y="0"
         id="tspan2">Þird Fȣrþ Fifþ Eiȝtþ</tspan></text>
    <path
       style="font-size:28.2222px;line-height:1;font-family:TallThin;-inkscape-font-specification:TallThin;text-align:center;text-anchor:middle;fill:#19919b;stroke:#7c7c7c;stroke-width:0.79375"
       d="m 47.312785,72.0889 h 2.257776 c 1.41111,0 2.539998,1.128888 2.539998,2.539998 v 6.773328 c 0,1.41111 -1.128888,2.539998 -2.539998,2.539998 h -2.257776 z m -2.257776,-4.797774 v 21.448872 h 2.257776 v -3.668886 h 4.515552 c 1.41111,0 2.539998,-1.128888 2.539998,-2.539998 V 73.50001 c 0,-1.41111 -1.128888,-2.539998 -2.539998,-2.539998 H 47.312785 V 67.291126 Z M 56.626107,87.469999 V 74.064454 h 2.257776 v 12.276657 c 0,0.705555 0.508,1.269999 1.128888,1.269999 h 1.27 v 1.128888 h -3.527776 c -0.620888,0 -1.128888,-0.564444 -1.128888,-1.269999 z M 56.343885,70.875345 c 0,0.282222 0.141111,0.620888 0.395111,0.818444 l 1.015999,0.987777 1.016,-0.987777 c 0.253999,-0.197556 0.39511,-0.536222 0.39511,-0.818444 0,-0.282222 -0.141111,-0.592666 -0.39511,-0.790222 l -1.016,-0.987777 -1.015999,0.987777 c -0.254,0.197556 -0.395111,0.508 -0.395111,0.790222 z m 8.438436,4.459108 c 0,0.423333 -0.112888,0.705555 -0.338666,1.015999 -0.02822,0.05644 -0.08467,0.112889 -0.112889,0.141111 -0.08467,0 -0.169333,0 -0.282222,-0.02822 -0.564444,-0.08467 -0.959555,-0.451556 -0.959555,-1.016 0,-0.564444 0.366889,-0.931332 0.931333,-0.931332 0.451555,0 0.761999,0.310444 0.761999,0.761999 z m -0.90311,2.624664 c -0.02822,0.254 -0.05644,0.592667 -0.05644,0.959555 v 1.91911 c 0,0.225777 0.112888,0.479777 0.310444,0.64911 l 0.818444,0.790222 0.818443,-0.790222 c 0.197556,-0.169333 0.310445,-0.423333 0.310445,-0.64911 v -3.753553 l 0.141111,-0.141111 1.044221,-1.044221 c 0.366889,-0.366889 0.649111,-0.564444 1.072444,-0.649111 v 13.490212 h 2.257776 V 74.064454 h -1.693332 -0.02822 c -0.90311,0 -1.80622,0.39511 -2.511775,1.128888 L 66.08055,75.503786 V 74.91112 c 0,-1.100666 -0.874889,-1.975554 -1.975554,-1.975554 -1.382888,0 -2.539998,1.100665 -2.539998,2.511775 0,1.326444 1.044221,2.370665 2.31422,2.511776 z M 79.909445,67.85557 h -2.257776 v 6.208884 h -2.257777 c -1.41111,0 -2.539998,1.128888 -2.539998,2.539998 V 86.2 c 0,1.41111 1.128888,2.539998 2.539998,2.539998 h 1.354666 0.05644 0.05644 c 0.310444,0 0.564444,-0.112889 0.790222,-0.282222 v 0.282222 h 2.257776 z m -2.257776,7.337772 V 87.61111 c -1.41111,0 -2.539999,-1.128888 -2.539999,-2.539998 V 77.73334 c 0,-1.41111 1.128889,-2.539998 2.539999,-2.539998 z M 92.18608,67.291126 c -0.705555,0 -1.269999,0.564444 -1.269999,1.269999 v 20.178873 h 2.257776 V 81.96667 h 5.785551 V 80.837782 H 93.173857 V 69.690013 c 0,-0.705555 0.564444,-1.269999 1.269999,-1.269999 h 5.785554 v -1.128888 z m 17.35666,6.773328 h -2.25778 v 4.092219 c 0,1.354665 0,2.539998 -1.27,2.539998 -1.27,0 -1.27,-1.185333 -1.27,-2.539998 v -4.092219 h -2.25777 v 5.221107 c 0,0.874888 0.45155,1.66511 1.12889,2.116665 -0.67734,0.451555 -1.12889,1.241777 -1.12889,2.116665 V 86.2 c 0,1.41111 1.12889,2.539998 2.54,2.539998 h 1.97555 c 1.41111,0 2.54,-1.128888 2.54,-2.539998 v -2.681109 c 0,-0.874888 -0.45156,-1.66511 -1.12889,-2.116665 0.67733,-0.451555 1.12889,-1.241777 1.12889,-2.116665 z m -4.79778,10.583325 c 0,-1.354666 0,-2.539998 1.27,-2.539998 1.27,0 1.27,1.185332 1.27,2.539998 v 0.423333 c 0,1.354665 0,2.539998 -1.27,2.539998 -1.27,0 -1.27,-1.185333 -1.27,-2.539998 z m 9.14399,-9.313326 c 0,0.423333 -0.11289,0.705555 -0.33867,1.015999 -0.0282,0.05644 -0.0847,0.112889 -0.11289,0.141111 -0.0847,0 -0.16933,0 -0.28222,-0.02822 -0.56445,-0.08467 -0.95956,-0.451556 -0.95956,-1.016 0,-0.564444 0.36689,-0.931332 0.93134,-0.931332 0.45155,0 0.762,0.310444 0.762,0.761999 z m -0.90311,2.624664 c -0.0282,0.254 -0.0564,0.592667 -0.0564,0.959555 v 1.91911 c 0,0.225777 0.11289,0.479777 0.31045,0.64911 l 0.81844,0.790222 0.81844,-0.790222 c 0.19756,-0.169333 0.31045,-0.423333 0.31045,-0.64911 v -3.753553 l 0.14111,-0.141111 1.04422,-1.044221 c 0.36689,-0.366889 0.64911,-0.564444 1.07244,-0.649111 v 13.490212 h 2.25778 V 74.064454 h -1.69333 -0.0282 c -0.90312,0 -1.80623,0.39511 -2.51178,1.128888 l -0.28222,0.310444 V 74.91112 c 0,-1.100666 -0.87489,-1.975554 -1.97556,-1.975554 -1.38288,0 -2.53999,1.100665 -2.53999,2.511775 0,1.326444 1.04422,2.370665 2.31422,2.511776 z m 12.53068,-2.737553 c 0.70555,0 1.24177,0.592666 1.24177,1.298221 v 8.551327 c 0,1.41111 -1.10066,2.539998 -2.51177,2.539998 h -0.0282 V 76.519785 c 0,-0.705555 0.53622,-1.298221 1.24177,-1.298221 z m -1.29822,13.236212 c 0.22577,0.169333 0.47977,0.282222 0.79022,0.282222 h 0.0564 0.0564 1.35466 c 1.41111,0 2.54,-1.128888 2.54,-2.539998 v -9.595548 c 0,-1.41111 -1.12889,-2.539998 -2.54,-2.539998 h -1.35466 -0.0564 -0.0564 c -0.31045,0 -0.56445,0.112888 -0.79022,0.282222 V 67.85557 h -2.25778 v 26.528868 h 2.25778 z m 17.0744,-21.16665 c -0.70555,0 -1.27,0.564444 -1.27,1.269999 v 20.178873 h 2.25778 V 81.96667 h 5.78555 v -1.128888 h -5.78555 V 69.690013 c 0,-0.705555 0.56444,-1.269999 1.27,-1.269999 h 5.78555 v -1.128888 z m 10.58333,20.178873 V 74.064454 h 2.25778 v 12.276657 c 0,0.705555 0.508,1.269999 1.12889,1.269999 h 1.26999 v 1.128888 h -3.52777 c -0.62089,0 -1.12889,-0.564444 -1.12889,-1.269999 z m -0.28222,-16.594654 c 0,0.282222 0.14111,0.620888 0.39511,0.818444 l 1.016,0.987777 1.016,-0.987777 c 0.254,-0.197556 0.39511,-0.536222 0.39511,-0.818444 0,-0.282222 -0.14111,-0.592666 -0.39511,-0.790222 l -1.016,-0.987777 -1.016,0.987777 c -0.254,0.197556 -0.39511,0.508 -0.39511,0.790222 z m 13.12332,-0.423333 v 1.072444 h -2.25777 c 0,-1.354666 0,-2.539998 -1.27,-2.539998 -1.27,0 -1.27,1.185332 -1.27,2.539998 v 0.05644 5.89844 c 0.0847,-0.02822 0.19756,-0.02822 0.28222,-0.02822 h 0.0282 3.35845 v 1.128888 h -2.39889 c -1.27,0 -1.27,0.620888 -1.27,1.975554 v 0.592666 7.591772 h -2.25778 v -7.591772 -1.15711 -9.539104 -0.05644 c 0,-1.41111 1.12889,-2.539998 2.54,-2.539998 h 1.97556 c 1.41111,0 2.53999,1.128888 2.53999,2.539998 z m 5.81378,4.769552 c 0.70555,0 1.24177,0.592666 1.24177,1.298221 v 8.551327 c 0,1.41111 -1.10066,2.539998 -2.51177,2.539998 h -0.0282 V 76.519785 c 0,-0.705555 0.53623,-1.298221 1.24178,-1.298221 z m -1.29823,13.236212 c 0.22578,0.169333 0.47978,0.282222 0.79023,0.282222 h 0.0564 0.0564 1.35467 c 1.41111,0 2.54,-1.128888 2.54,-2.539998 v -9.595548 c 0,-1.41111 -1.12889,-2.539998 -2.54,-2.539998 h -1.35467 -0.0564 -0.0564 c -0.31045,0 -0.56445,0.112888 -0.79023,0.282222 V 67.85557 h -2.25777 v 26.528868 h 2.25777 z m 25.11774,-0.846666 h -5.78555 c -0.70556,0 -1.27,-0.564444 -1.27,-1.269999 V 81.96667 h 5.78555 v -1.128888 h -5.78555 V 68.420014 h 7.05555 v -1.128888 h -9.31333 v 20.178873 c 0,0.705555 0.56444,1.269999 1.27,1.269999 h 8.04333 z m 2.54001,-0.141111 V 74.064454 h 2.25777 v 12.276657 c 0,0.705555 0.508,1.269999 1.12889,1.269999 h 1.27 v 1.128888 h -3.52777 c -0.62089,0 -1.12889,-0.564444 -1.12889,-1.269999 z m -0.28222,-16.594654 c 0,0.282222 0.14111,0.620888 0.39511,0.818444 l 1.016,0.987777 1.016,-0.987777 c 0.25399,-0.197556 0.39511,-0.536222 0.39511,-0.818444 0,-0.282222 -0.14112,-0.592666 -0.39511,-0.790222 l -1.016,-0.987777 -1.016,0.987777 c -0.254,0.197556 -0.39511,0.508 -0.39511,0.790222 z m 10.86553,10.780881 v -5.136441 c 0,-0.705555 -0.53622,-1.298221 -1.24178,-1.298221 h -0.0564 c -0.70556,0 -1.24178,0.592666 -1.24178,1.298221 v 0.08467 h -2.25777 c 0,-1.41111 1.12888,-2.539998 2.53999,-2.539998 h 1.97556 c 1.41111,0 2.54,1.128888 2.54,2.539998 v 4.035774 0.705555 0.620889 c 0,0.931332 -0.28223,1.495776 -0.93134,1.975554 0.56445,0.451555 0.93134,1.185332 0.93134,1.975554 v 4.515552 c 0,1.41111 -1.12889,2.539998 -2.54,2.539998 h -4.23333 V 91.84444 h 3.24555 c 0.70556,0 1.27,-0.564444 1.27,-1.269999 v -4.48733 -0.254 c 0,-0.310444 -0.11289,-0.620888 -0.31044,-0.846666 l -2.794,1.834443 -0.59267,-0.931332 2.62467,-1.608666 c 0.64911,-0.395111 1.07244,-0.90311 1.07244,-1.693332 z m 9.17221,-5.136441 v 9.821326 c 0,0.705555 0.508,1.269999 1.12889,1.269999 h 1.27 v 1.128888 h -3.52778 c -0.62088,0 -1.12888,-0.564444 -1.12888,-1.269999 V 76.209341 75.193342 h -0.42334 -1.97555 v -1.128888 h 1.07244 0.59267 c 0.70555,0 0.73378,-0.254 0.73378,-0.959555 v -0.310444 -1.552221 c 0,-0.225778 0.11289,-0.479778 0.31044,-0.649111 l 0.81844,-0.790222 0.81845,0.790222 c 0.19755,0.169333 0.31044,0.423333 0.31044,0.649111 v 2.82222 h 2.39889 v 1.128888 h -1.12889 -0.59266 c -0.67734,0 -0.67734,0.310444 -0.67734,1.015999 z m 8.21266,-1.298221 c 0.70556,0 1.24178,0.592666 1.24178,1.298221 v 8.551327 c 0,1.41111 -1.10067,2.539998 -2.51178,2.539998 h -0.0282 V 76.519785 c 0,-0.705555 0.53622,-1.298221 1.24178,-1.298221 z m -1.29822,13.236212 c 0.22578,0.169333 0.47978,0.282222 0.79022,0.282222 h 0.0565 0.0564 1.35467 c 1.41111,0 2.53999,-1.128888 2.53999,-2.539998 v -9.595548 c 0,-1.41111 -1.12888,-2.539998 -2.53999,-2.539998 h -1.35467 -0.0564 -0.0565 c -0.31044,0 -0.56444,0.112888 -0.79022,0.282222 V 67.85557 h -2.25778 v 26.528868 h 2.25778 z"
       id="text3"
       aria-label="Þird Fȣrþ Fifþ Eiȝtþ" />
  </g>
</svg>
