<?xml version="1.0" encoding="UTF-8" standalone="no"?>
<!-- Created with Inkscape (http://www.inkscape.org/) -->

<svg
   width="449.10849"
   height="85.453285"
   viewBox="0 0 118.82662 22.609515"
   version="1.1"
   id="svg1"
   inkscape:version="1.4 (86a8ad7, 2024-10-11)"
   sodipodi:docname="Word DotsNLines Clothing.svg"
   xmlns:inkscape="http://www.inkscape.org/namespaces/inkscape"
   xmlns:sodipodi="http://sodipodi.sourceforge.net/DTD/sodipodi-0.dtd"
   xmlns="http://www.w3.org/2000/svg"
   xmlns:svg="http://www.w3.org/2000/svg">
  <sodipodi:namedview
     id="namedview1"
     pagecolor="#ffffff"
     bordercolor="#000000"
     borderopacity="0.25"
     inkscape:showpageshadow="2"
     inkscape:pageopacity="0.0"
     inkscape:pagecheckerboard="0"
     inkscape:deskcolor="#d1d1d1"
     inkscape:document-units="px"
     inkscape:zoom="2.078763"
     inkscape:cx="215.99384"
     inkscape:cy="82.982043"
     inkscape:window-width="1920"
     inkscape:window-height="1027"
     inkscape:window-x="-8"
     inkscape:window-y="-8"
     inkscape:window-maximized="1"
     inkscape:current-layer="layer1" />
  <defs
     id="defs1" />
  <g
     inkscape:label="Layer 1"
     inkscape:groupmode="layer"
     id="layer1"
     transform="translate(-77.31114,-67.007136)">
    <text
       xml:space="preserve"
       style="font-size:28.2222px;line-height:1;font-family:'BlockTrain Hand';-inkscape-font-specification:'BlockTrain Hand';text-align:start;writing-mode:lr-tb;direction:ltr;text-anchor:start;display:none;fill:#19919b;fill-opacity:1;stroke:#7c7c7c;stroke-width:0.79375;stroke-dasharray:none;stroke-opacity:1"
       x="136.70659"
       y="88.739998"
       id="text1"><tspan
         sodipodi:role="line"
         id="tspan1"
         style="font-style:normal;font-variant:normal;font-weight:normal;font-stretch:normal;font-size:28.2222px;font-family:'Dots n Lines';-inkscape-font-specification:'Dots n Lines';text-align:center;text-anchor:middle;fill:#19919b;fill-opacity:1;stroke:#7c7c7c;stroke-width:0.79375;stroke-dasharray:none;stroke-opacity:1"
         x="0"
         y="0">cloðiŋ</tspan></text>
    <path
       style="font-size:28.2222px;line-height:1;font-family:'Dots n Lines';-inkscape-font-specification:'Dots n Lines';text-align:center;text-anchor:middle;fill:#19919b;stroke:#7c7c7c;stroke-width:0.79375"
       d="m 89.250927,88.852887 c 0.790221,0 1.777998,0.02822 2.652887,0.02822 0.90311,0 1.693332,-0.02822 2.003776,-0.282222 0.620888,-0.508 0.818444,-0.592666 0.987777,-0.762 0.02822,-0.02822 1.072443,-1.439332 1.072443,-1.80622 0,-0.08467 0,-0.112889 -0.112888,-0.112889 -0.05644,0 -5.24933,-0.197556 -6.011329,-0.197556 h -0.649111 c -2.229554,0 -4.571996,-0.112888 -6.095995,-1.777998 -0.366889,-0.366889 -0.620888,-0.762 -0.620888,-0.874888 0,-0.508 -0.620889,-0.169334 -0.620889,-3.922886 0,-2.201332 0.366889,-3.866442 1.044222,-5.164663 0.39511,-0.733777 1.947331,-2.342443 3.104442,-2.850442 0.620888,-0.254 1.693332,-0.620889 3.866441,-0.620889 2.201332,0 2.991553,0.338667 3.612442,0.338667 0.90311,0 2.088443,-1.523999 2.088443,-1.91911 0,-0.225777 -0.874889,-0.592666 -1.41111,-0.733777 -0.254,-0.08467 -0.790222,-0.112889 -1.439333,-0.112889 -0.987777,0 -2.201331,0.08467 -3.076219,0.225778 -5.446885,0.90311 -9.313327,5.221107 -9.397993,5.305773 -0.169333,0.254 -0.508,0.649111 -0.733777,0.903111 -0.479778,0.507999 -1.016,1.721554 -1.439333,3.07622 -0.366888,1.15711 -0.366888,2.652887 -0.366888,4.571996 0,1.439332 0.08467,1.806221 0.564444,2.991553 0.479777,1.185333 1.241777,1.975554 2.681109,2.765776 1.326443,0.733777 1.580443,0.733777 4.459107,0.846666 1.016,0.05644 2.060221,0.08467 3.104442,0.08467 z m 27.657773,-3.07622 h -1.43933 c -0.0282,0 -0.762,0.02822 -1.91911,0.02822 -0.79023,0 -1.83445,0 -2.90689,-0.02822 -0.53622,0 -1.04422,-0.02822 -1.55222,-0.02822 -1.35467,0 -2.59644,0.02822 -3.89467,0.02822 h -1.12888 c -0.254,-4.092219 -0.33867,-13.320879 -0.33867,-13.46199 v -1.721554 c 0,-1.015999 -0.0564,-1.975554 -0.28222,-2.285998 -0.22578,-0.282222 -0.254,-0.423333 -0.47978,-0.423333 0,0 -2.45533,0.564444 -3.838218,1.834443 0,0 -0.05644,2.201331 -0.05644,3.273775 0,0.874888 -0.02822,1.66511 -0.02822,2.539998 v 1.213555 c 0,3.894663 0.02822,7.30955 0.254,11.486435 l 0.677333,0.225778 c 0.649115,0.225777 1.128895,0.225777 4.628445,0.282222 2.08844,0.02822 2.794,0.02822 3.18911,0.02822 h 4.48733 c 1.016,0 1.91911,0 2.14488,-0.02822 1.97556,-0.225778 3.33022,-2.229554 3.33022,-2.596443 0,-0.366888 -0.62088,-0.366888 -0.84666,-0.366888 z m 10.47044,-18.146875 c 0,0.08467 -0.45156,0.338666 -1.016,0.564444 -3.24555,1.354666 -5.47511,2.624665 -7.11199,6.80155 -0.508,1.269999 -0.73378,2.652887 -0.79023,4.007553 0,0.254 -0.0282,0.507999 -0.0282,0.761999 0,1.015999 0.0847,2.031999 0.42333,2.935109 2.25778,6.180662 7.81755,6.519328 9.03111,6.519328 0.90311,0 1.80622,-0.112889 2.70933,-0.254 2.08844,-0.310444 5.08,-2.06022 5.13644,-2.088442 0.81844,-0.564444 1.60867,-1.241777 2.22955,-2.031999 1.83445,-2.31422 1.91911,-6.519328 1.91911,-6.603995 0,-1.41111 -0.39511,-3.330219 -1.04422,-4.402663 -1.38289,-2.455331 -5.39044,-5.531551 -8.12799,-5.531551 h -0.22578 c 0.62089,-0.620889 0.62089,-0.592666 0.62089,-0.677333 v -0.08467 c -0.0847,-0.08467 -0.56444,-0.141111 -1.18533,-0.141111 h -0.254 c -0.98778,0 -2.286,0.08467 -2.286,0.225778 z m 2.54,3.499553 c 0.98777,0.423333 2.90688,1.834443 3.38666,2.455331 2.06022,2.56822 2.17311,4.007553 2.22956,6.208884 v 0.141111 c 0,2.878665 -1.69334,5.616218 -1.72156,5.672663 -0.508,0.620888 -2.85044,0.64911 -3.01977,0.64911 -3.18911,0 -4.826,-1.41111 -5.36222,-2.031998 -2.20133,-2.370665 -2.22956,-6.462884 -2.22956,-6.547551 0,-4.120441 2.06022,-6.54755 2.22956,-6.773328 0,0 0.56444,-0.282222 1.49577,-0.282222 1.10067,0 2.54,0.310444 2.99156,0.508 z m 22.69065,-0.649111 c 3.18911,0 5.13644,1.947332 5.78555,2.765776 1.18533,1.439332 1.49578,3.838219 1.49578,5.785551 0,0.536222 -0.0565,1.15711 -0.11289,1.806221 -0.22578,2.31422 -0.53622,2.455331 -0.90311,3.527775 -0.56445,1.467554 -1.15711,1.495776 -2.032,1.66511 -0.93133,0.225777 -1.91911,0.39511 -3.95111,0.39511 -0.98778,0 -1.94733,-0.02822 -3.21733,-0.169333 l -2.22955,-0.254 -0.87489,0.310445 c -1.016,0.366888 -2.25778,1.41111 -2.25778,1.777998 0,0.141111 0.0847,0.197556 0.254,0.282222 0.36689,0.141111 2.76578,0.366889 3.95111,0.366889 0.36689,0 0.98778,-0.05644 1.80622,-0.05644 h 1.27 c 2.85044,0 4.96711,-0.423333 5.02355,-0.451555 2.20133,-0.564444 3.89466,-1.721554 4.826,-2.455331 1.29822,-1.015999 1.94733,-1.354666 2.56822,-2.991553 0.14111,-0.366889 0.31044,-0.677333 0.39511,-1.044222 0.28222,-1.298221 0.39511,-3.07622 0.39511,-4.23333 0,-2.709331 -1.12889,-4.430885 -1.18533,-4.769552 0,-0.05644 -1.15711,-1.890887 -2.99156,-2.963331 -2.96333,-1.721554 -5.64444,-1.721554 -8.60777,-1.721554 -1.35466,0 -2.73755,0.141111 -3.64066,0.197555 -0.70556,0.02822 -2.70933,0.141111 -3.89467,1.495777 0,0 -0.33866,0.225778 -0.33866,0.395111 0,0.02822 0.28222,0.64911 1.58044,0.64911 0.0847,0 6.71689,-0.310444 6.88622,-0.310444 z m 2.93511,6.575773 h -0.39511 c -0.0564,0 -5.95489,-0.225778 -6.49111,-0.225778 -1.38289,0 -2.34244,0.112889 -2.87866,0.254 -0.16934,0.05645 -2.85045,1.241777 -2.85045,2.370665 0,0.366889 0.39511,0.395111 0.62089,0.395111 0.22578,0 0.47978,-0.05644 0.70556,-0.05644 0.56444,0 4.91066,0.282222 7.08377,0.282222 1.91911,0 2.68111,-0.507999 2.96333,-0.64911 0.28222,-0.141111 0.42333,-0.395111 0.67733,-0.564444 0.14111,-0.141111 1.07245,-0.620889 1.24178,-1.015999 0.0564,-0.112889 0.0564,-0.197556 0.0564,-0.338667 0,-0.197555 -0.0282,-0.451555 -0.73377,-0.451555 z m 13.09512,12.163768 c 0.64911,0 1.91911,-0.705555 2.25778,-0.818444 0.36689,-0.141111 1.86266,-0.705555 2.42711,-1.015999 0.22577,-0.141111 0.28222,-0.112889 0.28222,-0.423333 0,-0.02822 -0.0565,-1.693332 -0.0565,-2.878664 0,-1.91911 0.11289,-1.495777 0.11289,-2.681109 0,-0.479778 -0.0564,-0.959555 -0.0564,-1.439332 0,-0.141111 0.0847,-7.619995 0.11289,-9.22866 0,0 0.0564,-0.987777 0.0564,-1.495777 v -1.044221 c 0,-0.536222 -0.0564,-0.564444 -0.19755,-0.564444 -0.36689,0 -3.49956,1.269999 -4.318,1.834443 l -0.36689,0.225778 -0.0847,1.326443 c -0.0847,1.241777 -0.16933,13.46199 -0.16933,13.603101 -0.0847,1.072443 -0.0847,1.693332 -0.14111,2.963331 0,0 -0.11289,0.507999 -0.11289,0.931332 0,0.677333 0.16933,0.705555 0.254,0.705555 z M 178.6589,68.674013 c -1.49578,0.790222 -1.69334,1.213555 -1.86267,1.213555 -0.16933,0 -0.28222,0.508 -0.28222,1.41111 0,0.169333 0.0282,0.395111 0.0282,0.620888 v 0.395111 c 0,0.987777 -0.0847,2.455332 -0.0847,3.640664 v 0.987777 3.894664 0.338666 c 0,1.91911 0,3.866442 -0.0564,5.785551 0,0.310444 0,0.479778 -0.0564,0.959555 l -0.0282,0.874888 0.42334,0.05644 h 0.0564 c 0.90311,0 2.48355,-0.818444 3.66889,-1.382888 0.11289,0 0.19755,-0.05644 0.19755,-0.112889 0.42333,-2.765776 0.22578,-10.809103 0.59267,-12.728212 v -0.02822 c 0.11289,0 1.60866,1.636888 1.63689,1.66511 1.01599,1.185333 1.60866,1.947332 1.60866,1.975554 0,0.02822 0.62089,0.733778 1.41111,1.523999 3.49955,3.58422 4.88244,5.051774 4.88244,6.237106 0,0.762 -1.016,0.790222 -1.15711,0.790222 -0.67733,0 -1.72155,-0.423333 -2.08844,-0.90311 -0.508,-0.649111 -0.22578,-2.031999 -0.98778,-2.031999 -0.79022,0 -3.24555,1.777999 -3.38666,2.427109 v 0.08467 c 0,0.479777 0.53622,1.693332 1.016,2.060221 0.73377,0.564444 1.58044,0.677332 2.20133,0.677332 0.90311,0 2.17311,-0.169333 3.10444,-0.39511 0.73378,-0.141111 1.43933,-0.479778 2.11667,-0.762 1.60866,-0.677333 1.58044,-0.677333 2.59644,-1.580443 0.90311,-0.790222 0.98777,-1.693332 0.98777,-2.060221 0,-0.790221 -0.39511,-1.269999 -1.18533,-2.285998 -1.18533,-1.495776 -1.18533,-1.552221 -4.34622,-4.797774 l -1.12888,-1.213555 c -0.67734,-0.790221 -1.35467,-1.636887 -2.032,-2.427109 -3.72533,-4.148663 -3.72533,-4.120441 -4.51555,-4.769552 -0.36689,-0.310444 -1.24178,-0.818443 -1.41111,-0.818443 -0.62089,0 -1.07245,0.225777 -1.91911,0.677332 z m 10.18821,2.201332 c 0,0.141111 0.0564,0.338666 0.19756,0.649111 0.64911,1.241776 2.56822,1.41111 2.59644,1.41111 1.07244,0 2.85044,-1.185333 2.87866,-1.213555 1.18533,-1.072444 1.21356,-1.890887 1.21356,-1.975554 0,-0.141111 0.0282,-0.282222 -0.0282,-0.508 -0.0564,-0.225777 -0.64911,-0.959554 -0.87488,-1.100665 -0.39511,-0.338667 -0.53623,-0.282222 -1.18534,-0.366889 h -0.0282 c -0.0847,0 -0.14111,0.02822 -0.19755,0.02822 -0.0564,0 -0.11289,-0.02822 -0.14111,-0.05644 -0.81845,0.05644 -0.93134,0.05644 -1.41111,0.197555 -0.14112,0 -3.01978,1.185333 -3.01978,2.935109 z"
       id="text2"
       aria-label="cloðiŋ" />
  </g>
</svg>
