<?xml version="1.0" encoding="UTF-8" standalone="no"?>
<!-- Created with Inkscape (http://www.inkscape.org/) -->

<svg
   width="765.66559"
   height="108.49326"
   viewBox="0 0 202.58236 28.705508"
   version="1.1"
   id="svg1"
   inkscape:version="1.4 (86a8ad7, 2024-10-11)"
   sodipodi:docname="Word Leaf Tech Photograph Moon.svg"
   xmlns:inkscape="http://www.inkscape.org/namespaces/inkscape"
   xmlns:sodipodi="http://sodipodi.sourceforge.net/DTD/sodipodi-0.dtd"
   xmlns="http://www.w3.org/2000/svg"
   xmlns:svg="http://www.w3.org/2000/svg">
  <sodipodi:namedview
     id="namedview1"
     pagecolor="#ffffff"
     bordercolor="#000000"
     borderopacity="0.25"
     inkscape:showpageshadow="2"
     inkscape:pageopacity="0.0"
     inkscape:pagecheckerboard="0"
     inkscape:deskcolor="#d1d1d1"
     inkscape:document-units="px"
     inkscape:zoom="1.0393815"
     inkscape:cx="332.40923"
     inkscape:cy="65.904579"
     inkscape:window-width="1920"
     inkscape:window-height="1027"
     inkscape:window-x="-8"
     inkscape:window-y="-8"
     inkscape:window-maximized="1"
     inkscape:current-layer="layer1" />
  <defs
     id="defs1" />
  <g
     inkscape:label="Layer 1"
     inkscape:groupmode="layer"
     id="layer1"
     transform="translate(-35.415414,-65.765363)">
    <text
       xml:space="preserve"
       style="font-size:28.2222px;line-height:1;font-family:'BlockTrain Hand';-inkscape-font-specification:'BlockTrain Hand';text-align:start;letter-spacing:0px;writing-mode:lr-tb;direction:ltr;text-anchor:start;display:none;fill:#17a23e;fill-opacity:0.854902;stroke:#4d804f;stroke-width:0.79375;stroke-dasharray:none;stroke-opacity:1"
       x="136.70659"
       y="88.739998"
       id="text1"><tspan
         sodipodi:role="line"
         id="tspan1"
         style="font-style:normal;font-variant:normal;font-weight:normal;font-stretch:normal;font-size:28.2222px;font-family:'Leaf Tech';-inkscape-font-specification:'Leaf Tech';text-align:center;letter-spacing:0px;text-anchor:middle;fill:#17a23e;fill-opacity:0.854902;stroke:#4d804f;stroke-width:0.79375;stroke-dasharray:none;stroke-opacity:1"
         x="0"
         y="0">Photograph Moon</tspan></text>
    <path
       style="font-size:28.2222px;line-height:1;font-family:'Leaf Tech';-inkscape-font-specification:'Leaf Tech';text-align:center;letter-spacing:0px;text-anchor:middle;fill:#17a23e;fill-opacity:0.854902;stroke:#4d804f;stroke-width:0.79375"
       d="m 41.795396,67.460459 h 4.684885 v 4.684885 c 0,2.596442 -2.088443,4.656663 -4.684885,4.656663 H 37.11051 v -4.656663 c 0,-2.596442 2.088443,-4.684885 4.684886,-4.684885 z m 0,-1.298221 c -3.301998,0 -5.983107,2.681109 -5.983107,5.983106 v 15.973765 c 0,0.366889 0.310444,0.620889 0.649111,0.620889 0.366888,0 0.64911,-0.254 0.64911,-0.620889 V 78.100228 h 4.684886 c 3.301997,0 5.983106,-2.681109 5.983106,-5.954884 v -5.983106 z m 7.676417,0.620888 c 0,0.169333 0.05644,0.310444 0.169333,0.423333 1.15711,1.298221 1.862665,3.019775 1.862665,4.910663 v 10.611547 c 0,3.301998 2.709332,6.011329 6.011329,6.011329 0.366889,0 0.649111,-0.282222 0.649111,-0.649111 0,-0.338666 -0.282222,-0.64911 -0.649111,-0.64911 -2.596442,0 -4.713107,-2.088443 -4.713107,-4.713108 v -4.656663 h 4.656663 c 2.624664,0 4.713107,2.116665 4.713107,4.713108 v 5.305773 c 0,0.366889 0.282222,0.649111 0.649111,0.649111 0.338666,0 0.64911,-0.282222 0.64911,-0.649111 v -5.305773 c 0,-3.301998 -2.709331,-5.983107 -6.011328,-5.983107 h -4.656663 v -4.684885 c 0,-2.229554 -0.846666,-4.23333 -2.201332,-5.785551 -0.112889,-0.112889 -0.282222,-0.169333 -0.479777,-0.169333 -0.366889,0 -0.649111,0.253999 -0.649111,0.620888 z m 27.629528,10.018881 h -5.926662 c -2.906887,0 -5.333996,2.088443 -5.89844,4.825996 -0.08467,0.395111 -0.112889,0.790222 -0.112889,1.185333 v 5.926662 h 5.954884 c 3.301998,0 5.983107,-2.681109 5.983107,-5.983107 z m -1.298221,1.298221 v 4.656663 c 0,2.596443 -2.088443,4.684886 -4.684886,4.684886 h -4.656663 v -4.628441 c 0,-2.624665 2.088443,-4.713108 4.713108,-4.713108 z m 3.640656,-6.632217 c -0.366889,0 -0.649111,0.282222 -0.649111,0.649111 v 10.611547 c 0,3.301998 2.709331,6.011329 6.011329,6.011329 0.366888,0 0.64911,-0.282222 0.64911,-0.649111 0,-0.338666 -0.282222,-0.64911 -0.64911,-0.64911 -2.624665,0 -4.713108,-2.088443 -4.713108,-4.713108 v -4.656663 h 4.656663 c 0.366889,0 0.649111,-0.282222 0.649111,-0.64911 0,-0.338667 -0.282222,-0.620889 -0.649111,-0.620889 h -4.656663 v -4.684885 c 0,-0.366889 -0.310444,-0.649111 -0.64911,-0.649111 z m 17.525952,5.333996 h -5.926662 c -2.906887,0 -5.333996,2.088443 -5.89844,4.825996 -0.08467,0.395111 -0.112889,0.790222 -0.112889,1.185333 v 5.926662 h 5.954884 c 3.301998,0 5.983107,-2.681109 5.983107,-5.983107 z m -1.298221,1.298221 v 4.656663 c 0,2.596443 -2.088443,4.684886 -4.684886,4.684886 h -4.656663 v -4.628441 c 0,-2.624665 2.088443,-4.713108 4.713108,-4.713108 z m 4.289769,-0.02822 h 4.656664 c 2.59644,0 4.71311,2.116665 4.71311,4.713108 v 4.656663 h -4.65667 c -2.62466,0 -4.713104,-2.088443 -4.713104,-4.713108 z m -1.298222,12.925768 c 0,0.254 0.141111,0.451555 0.310445,0.564444 1.270001,0.733777 2.765771,1.15711 4.346221,1.15711 h 7.28133 v -9.934214 c 0,-3.301998 -2.68111,-5.983107 -5.98311,-5.983107 h -5.954886 v 5.926662 c 0,3.301998 2.709336,6.011329 6.011326,6.011329 h 4.65667 v 2.681109 h -6.01133 c -1.35467,0 -2.59645,-0.338667 -3.697111,-0.959555 -0.08467,-0.05644 -0.197555,-0.112889 -0.310444,-0.112889 -0.338666,0 -0.649111,0.282222 -0.649111,0.649111 z M 113.7337,75.419119 h 0.67734 c 0.39511,0 0.67733,0.310444 0.67733,0.677333 v 0.733777 h -0.67733 c -0.39511,0 -0.67734,-0.338666 -0.67734,-0.733777 z m -1.29822,-1.269999 v 1.947332 c 0,1.100666 0.90311,1.975554 1.97556,1.975554 h 0.67733 v 4.684885 c 0,2.596443 -2.08844,4.684886 -4.68489,4.684886 -0.33866,0 -0.64911,0.310444 -0.64911,0.64911 0,0.366889 0.31045,0.649111 0.64911,0.649111 3.302,0 5.98311,-2.681109 5.98311,-5.983107 v -4.684885 h 1.12889 c 1.60866,0 2.90689,1.298221 2.90689,2.906887 V 85.438 c 0,1.806221 1.49577,3.301998 3.30199,3.301998 0.36689,0 0.64911,-0.282222 0.64911,-0.649111 0,-0.338666 -0.28222,-0.64911 -0.64911,-0.64911 -1.12888,0 -2.00377,-0.874889 -2.00377,-2.003777 v -4.459107 c 0,-2.285998 -1.89089,-4.148664 -4.20511,-4.148664 h -1.12889 v -0.733777 c 0,-1.072444 -0.90311,-1.947332 -1.97555,-1.947332 z m 12.95398,6.575773 h 4.65666 c 2.59644,0 4.71311,2.088443 4.71311,4.684885 v 2.031999 h -4.65667 c -2.62466,0 -4.7131,-2.116665 -4.7131,-4.74133 z m -0.64911,-3.894664 c -0.36689,0 -0.64911,0.254 -0.64911,0.620889 0,0.338666 0.28222,0.64911 0.64911,0.64911 h 6.66043 c 1.86267,0 3.35845,1.467555 3.35845,3.33022 v 0.310444 c -1.10067,-1.382888 -2.794,-2.31422 -4.71311,-2.31422 h -5.95488 v 3.273775 c 0,3.33022 2.70933,6.039551 6.01132,6.039551 h 5.92667 v -7.30955 c 0,-2.56822 -2.08845,-4.600219 -4.62845,-4.600219 z m 12.9822,-0.02822 v 16.622876 c 0,0.366889 0.28222,0.649111 0.64911,0.649111 0.33867,0 0.64911,-0.282222 0.64911,-0.649111 v -6.999106 c 1.10067,1.41111 2.76578,2.314221 4.68489,2.314221 h 5.95488 v -5.983107 c 0,-3.273775 -2.68111,-5.954884 -5.95488,-5.954884 z m 1.29822,1.269999 h 4.68489 c 2.59644,0 4.68488,2.088443 4.68488,4.684885 v 4.684886 h -4.68488 c -2.59644,0 -4.68489,-2.088443 -4.68489,-4.684886 z m 10.92201,-11.28888 c 0,0.169333 0.0565,0.310444 0.16934,0.423333 1.15711,1.298221 1.86266,3.019775 1.86266,4.910663 v 10.611547 c 0,3.301998 2.70933,6.011329 6.01133,6.011329 0.36689,0 0.64911,-0.282222 0.64911,-0.649111 0,-0.338666 -0.28222,-0.64911 -0.64911,-0.64911 -2.59644,0 -4.71311,-2.088443 -4.71311,-4.713108 v -4.656663 h 4.65666 c 2.62467,0 4.71311,2.116665 4.71311,4.713108 v 5.305773 c 0,0.366889 0.28222,0.649111 0.64911,0.649111 0.33867,0 0.64911,-0.282222 0.64911,-0.649111 v -5.305773 c 0,-3.301998 -2.70933,-5.983107 -6.01133,-5.983107 H 153.273 v -4.684885 c 0,-2.229554 -0.84666,-4.23333 -2.20133,-5.785551 -0.11289,-0.112889 -0.28222,-0.169333 -0.47978,-0.169333 -0.36689,0 -0.64911,0.253999 -0.64911,0.620888 z m 24.15817,-0.620888 v 18.400874 c 0,2.314221 1.89089,4.176886 4.20511,4.176886 0.36689,0 0.64911,-0.254 0.64911,-0.620889 0,-0.338666 -0.28222,-0.64911 -0.64911,-0.64911 -1.60866,0 -2.90688,-1.269999 -2.90688,-2.906887 V 67.460459 h 4.68488 c 2.59644,0 4.68489,2.088443 4.68489,4.684885 v 12.417768 c 0,0.366889 0.28222,0.649111 0.64911,0.649111 0.33866,0 0.64911,-0.282222 0.64911,-0.649111 V 67.460459 h 4.68488 c 2.59645,0 4.68489,2.088443 4.68489,4.684885 v 15.973765 c 0,0.366889 0.28222,0.620889 0.64911,0.620889 0.33867,0 0.62089,-0.254 0.62089,-0.620889 V 72.145344 c 0,-3.301997 -2.68111,-5.983106 -5.95489,-5.983106 h -5.9831 v 2.31422 c -1.10067,-1.41111 -2.76578,-2.31422 -4.68489,-2.31422 z m 36.23731,10.639769 h -5.92666 c -2.90689,0 -5.334,2.088443 -5.89844,4.825996 -0.0847,0.395111 -0.11289,0.790222 -0.11289,1.185333 V 88.74 h 5.95489 c 3.30199,0 5.9831,-2.681109 5.9831,-5.983107 z m -1.29822,1.298221 v 4.656663 c 0,2.596443 -2.08844,4.684886 -4.68488,4.684886 h -4.65667 v -4.628441 c 0,-2.624665 2.08845,-4.713108 4.71311,-4.713108 z m 4.28977,0 h 4.65666 c 2.59645,0 4.68489,2.088443 4.68489,4.684886 v 4.656663 h -4.62844 c -2.62467,0 -4.71311,-2.088443 -4.71311,-4.713108 z m -1.29822,-1.298221 v 5.926662 c 0,2.906887 2.08844,5.333996 4.82599,5.89844 0.39512,0.08467 0.79023,0.112889 1.18534,0.112889 h 5.92666 v -5.954884 c 0,-3.301998 -2.68111,-5.983107 -5.98311,-5.983107 z M 236.95179,88.74 c 0.36688,0 0.64911,-0.254 0.64911,-0.620889 V 88.090891 77.4229 c 0,-0.338667 -0.28223,-0.592667 -0.64911,-0.592667 -0.33867,0 -0.64911,0.254 -0.64911,0.592667 v 1.721554 c -1.10067,-1.439332 -2.794,-2.314221 -4.71311,-2.314221 h -5.92666 v 5.926662 c 0,3.301998 2.6811,5.983107 5.9831,5.983107 0.36689,0 0.64911,-0.282222 0.64911,-0.649111 0,-0.338666 -0.28222,-0.64911 -0.64911,-0.64911 -2.59644,0 -4.71311,-2.088443 -4.71311,-4.684886 V 78.07201 h 4.65667 c 2.62466,0 4.71311,2.116665 4.71311,4.74133 v 5.277551 c 0,0.366889 0.28222,0.649111 0.64911,0.649111 z"
       id="text2"
       aria-label="Photograph Moon" />
  </g>
</svg>
