<?xml version="1.0" encoding="UTF-8" standalone="no"?>
<!-- Created with Inkscape (http://www.inkscape.org/) -->

<svg
   width="471.18433"
   height="94.068069"
   viewBox="0 0 124.66752 24.888843"
   version="1.1"
   id="svg1"
   inkscape:version="1.4 (86a8ad7, 2024-10-11)"
   sodipodi:docname="Word Stronger.svg"
   xmlns:inkscape="http://www.inkscape.org/namespaces/inkscape"
   xmlns:sodipodi="http://sodipodi.sourceforge.net/DTD/sodipodi-0.dtd"
   xmlns="http://www.w3.org/2000/svg"
   xmlns:svg="http://www.w3.org/2000/svg">
  <sodipodi:namedview
     id="namedview1"
     pagecolor="#ffffff"
     bordercolor="#000000"
     borderopacity="0.25"
     inkscape:showpageshadow="2"
     inkscape:pageopacity="0.0"
     inkscape:pagecheckerboard="0"
     inkscape:deskcolor="#d1d1d1"
     inkscape:document-units="px"
     inkscape:zoom="2.078763"
     inkscape:cx="226.81758"
     inkscape:cy="90.919453"
     inkscape:window-width="1512"
     inkscape:window-height="1018"
     inkscape:window-x="399"
     inkscape:window-y="0"
     inkscape:window-maximized="0"
     inkscape:current-layer="layer1" />
  <defs
     id="defs1" />
  <g
     inkscape:label="Layer 1"
     inkscape:groupmode="layer"
     id="layer1"
     transform="translate(-74.386934,-65.004272)">
    <text
       xml:space="preserve"
       style="font-size:28.2222px;line-height:1;font-family:'BlockTrain Hand';-inkscape-font-specification:'BlockTrain Hand';text-align:start;writing-mode:lr-tb;direction:ltr;text-anchor:start;display:none;fill:#19919b;fill-opacity:1;stroke:#7c7c7c;stroke-width:0.79375;stroke-dasharray:none;stroke-opacity:1"
       x="136.70659"
       y="88.739998"
       id="text1"><tspan
         sodipodi:role="line"
         id="tspan1"
         style="font-style:normal;font-variant:normal;font-weight:normal;font-stretch:normal;font-size:28.2222px;font-family:'NewEng Rune';-inkscape-font-specification:'NewEng Rune';text-align:center;text-anchor:middle;fill:#19919b;fill-opacity:1;stroke:#7c7c7c;stroke-width:0.79375;stroke-dasharray:none;stroke-opacity:1"
         x="136.70659"
         y="88.739998">stroŋger</tspan></text>
    <path
       style="font-size:28.2222px;line-height:1;font-family:'NewEng Rune';-inkscape-font-specification:'NewEng Rune';text-align:center;text-anchor:middle;fill:#19919b;stroke:#7c7c7c;stroke-width:0.79375"
       d="m 92.89163,66.162238 -6.773328,6.773328 0.254,0.64911 6.349995,8.494883 -6.603995,6.660439 0.254,0.64911 1.806221,-0.64911 6.80155,-6.773328 -0.197555,-0.649111 -6.40644,-8.579549 6.603995,-6.575772 -0.197555,-0.649111 z m 11.28888,-0.649111 -1.89088,0.649111 -4.515556,4.515552 0.254,0.64911 1.806221,-0.64911 2.455335,-2.455332 v 20.51754 l 0.254,0.64911 1.83444,-0.64911 V 68.674013 l 2.68111,2.652887 1.83444,-0.64911 -0.19755,-0.649111 z m 7.50711,0.649111 v 22.57776 l 0.254,0.64911 1.80622,-0.64911 V 81.20467 l 4.96711,8.184438 1.83444,-0.64911 -0.19756,-0.649111 -6.46288,-10.724436 6.66044,-5.559773 -0.19756,-0.649111 -6.77332,-5.64444 z m 6.49111,5.870217 -4.43089,3.668886 v -7.30955 z m 7.78932,0.366889 3.49955,5.164663 -3.27377,4.938885 -3.47133,-5.24933 z m -5.44689,5.051774 0.254,0.64911 4.51556,6.773328 1.83444,-0.64911 4.51555,-6.773328 -0.19755,-0.649111 -4.51556,-6.773328 -1.89088,0.649111 z m 22.94465,-1.806221 V 86.2 l -6.97088,-6.942661 V 68.674013 Z m 2.08845,-0.451555 v -9.031104 l -0.19756,-0.649111 -1.89089,0.649111 v 6.491106 l -7.14021,-7.140217 -1.89089,0.649111 v 13.546656 9.031104 l 0.254,0.64911 1.80622,-0.64911 V 82.22067 l 7.22488,7.168438 1.83445,-0.64911 z m 9.59553,-9.031104 -6.77333,11.28888 0.254,0.64911 6.77333,11.28888 1.83444,-0.64911 6.77333,-11.28888 -0.19756,-0.649111 h -6.77333 l -1.89088,0.649111 0.254,0.64911 h 6.15244 l -5.27756,8.748882 -5.70088,-9.510881 6.66044,-11.175991 -0.19756,-0.649111 z m 14.16754,10.639769 6.35,-10.639769 -0.19756,-0.649111 -1.89088,0.649111 -6.77333,11.28888 0.254,0.64911 6.77333,11.28888 1.83444,-0.64911 -0.19756,-0.649111 -6.03955,-9.990659 h 4.40267 l 1.83444,-0.64911 -0.19756,-0.649111 z m 9.144,-10.639769 v 22.57776 l 0.254,0.64911 1.80622,-0.64911 V 81.20467 l 4.96711,8.184438 1.83444,-0.64911 -0.19756,-0.649111 -6.46288,-10.724436 6.66044,-5.559773 -0.19756,-0.649111 -6.77333,-5.64444 z m 6.4911,5.870217 -4.43088,3.668886 v -7.30955 z"
       id="text2"
       aria-label="stroŋger" />
  </g>
</svg>
