<?xml version="1.0" encoding="UTF-8" standalone="no"?>
<!-- Created with Inkscape (http://www.inkscape.org/) -->

<svg
   width="376.86642"
   height="105.39992"
   viewBox="0 0 99.712575 27.887062"
   version="1.1"
   id="svg1"
   inkscape:version="1.4 (86a8ad7, 2024-10-11)"
   sodipodi:docname="Word TallThin Month Kitchen.svg"
   xmlns:inkscape="http://www.inkscape.org/namespaces/inkscape"
   xmlns:sodipodi="http://sodipodi.sourceforge.net/DTD/sodipodi-0.dtd"
   xmlns="http://www.w3.org/2000/svg"
   xmlns:svg="http://www.w3.org/2000/svg">
  <sodipodi:namedview
     id="namedview1"
     pagecolor="#ffffff"
     bordercolor="#000000"
     borderopacity="0.25"
     inkscape:showpageshadow="2"
     inkscape:pageopacity="0.0"
     inkscape:pagecheckerboard="0"
     inkscape:deskcolor="#d1d1d1"
     inkscape:document-units="px"
     inkscape:zoom="1.0393815"
     inkscape:cx="197.23268"
     inkscape:cy="58.207694"
     inkscape:window-width="1920"
     inkscape:window-height="1027"
     inkscape:window-x="-8"
     inkscape:window-y="-8"
     inkscape:window-maximized="1"
     inkscape:current-layer="layer1" />
  <defs
     id="defs1" />
  <g
     inkscape:label="Layer 1"
     inkscape:groupmode="layer"
     id="layer1"
     transform="translate(-86.991401,-66.894251)">
    <text
       xml:space="preserve"
       style="font-style:normal;font-variant:normal;font-weight:normal;font-stretch:normal;font-size:28.2222px;line-height:1;font-family:'Dots n Lines';-inkscape-font-specification:'Dots n Lines';text-align:start;writing-mode:lr-tb;direction:ltr;text-anchor:start;display:none;fill:#19919b;fill-opacity:1;stroke:#7c7c7c;stroke-width:0.79375;stroke-dasharray:none;stroke-opacity:1"
       x="136.70659"
       y="88.739998"
       id="text1"><tspan
         sodipodi:role="line"
         id="tspan1"
         style="font-style:normal;font-variant:normal;font-weight:normal;font-stretch:normal;font-size:28.2222px;font-family:TallThin;-inkscape-font-specification:TallThin;text-align:center;text-anchor:middle;fill:#19919b;fill-opacity:1;stroke:#7c7c7c;stroke-width:0.79375;stroke-dasharray:none;stroke-opacity:1"
         x="0"
         y="0">Monþ Kiчen</tspan></text>
    <path
       style="font-size:28.2222px;line-height:1;font-family:TallThin;-inkscape-font-specification:TallThin;text-align:center;text-anchor:middle;fill:#19919b;stroke:#7c7c7c;stroke-width:0.79375"
       d="M 89.646052,88.739998 V 69.66179 c 0.790222,0 1.523999,0.310445 2.060221,0.846666 l 1.608665,1.552221 v 16.679321 h 2.257776 V 72.060677 l 1.608666,-1.552221 c 0.536222,-0.536221 1.269999,-0.846666 2.06022,-0.846666 v 19.078208 h 2.25778 V 67.291126 h -1.016 -0.22578 -0.16933 c -0.790225,0 -1.524002,0.310444 -2.060224,0.846666 -0.818444,0.790221 -1.636888,1.580443 -2.455332,2.342442 v -3.189108 h -2.257776 v 3.189108 C 92.496495,69.718235 91.678051,68.928013 90.859607,68.137792 90.323385,67.60157 89.589608,67.291126 88.799386,67.291126 h -0.197555 -0.197555 -1.016 V 88.739998 Z M 106.29716,77.73334 c 0,-1.354666 0,-2.539998 1.27,-2.539998 1.27,0 1.27,1.185332 1.27,2.539998 v 7.337772 c 0,1.354665 0,2.539998 -1.27,2.539998 -1.27,0 -1.27,-1.185333 -1.27,-2.539998 z M 104.03938,86.2 c 0,1.41111 1.12889,2.539998 2.54,2.539998 h 1.97556 c 1.41111,0 2.53999,-1.128888 2.53999,-2.539998 v -9.595548 c 0,-1.41111 -1.12888,-2.539998 -2.53999,-2.539998 h -1.97556 c -1.41111,0 -2.54,1.128888 -2.54,2.539998 z m 11.5711,2.539998 v -12.30488 c 0.79023,0 1.524,0.310445 2.06023,0.846667 l 1.60866,1.552221 v 9.905992 h 2.25778 v -14.1111 c 0,-0.225778 -0.11289,-0.451556 -0.31045,-0.620889 l -0.81844,-0.790221 -0.81844,0.790221 c -0.19756,0.169333 -0.31045,0.395111 -0.31045,0.620889 v 2.624664 l -2.45533,-2.342442 c -0.53622,-0.536222 -1.27,-0.846666 -2.06022,-0.846666 h -0.19756 -0.19755 -1.016 v 14.675544 z m 11.74046,-13.518434 c 0.70556,0 1.24178,0.592666 1.24178,1.298221 v 8.551327 c 0,1.41111 -1.10067,2.539998 -2.51178,2.539998 h -0.0282 V 76.519785 c 0,-0.705555 0.53622,-1.298221 1.24178,-1.298221 z m -1.29822,13.236212 c 0.22578,0.169333 0.47978,0.282222 0.79022,0.282222 h 0.0564 0.0564 1.35467 c 1.41111,0 2.54,-1.128888 2.54,-2.539998 v -9.595548 c 0,-1.41111 -1.12889,-2.539998 -2.54,-2.539998 h -1.35467 -0.0564 -0.0564 c -0.31044,0 -0.56444,0.112888 -0.79022,0.282222 V 67.85557 h -2.25777 v 26.528868 h 2.25777 z m 18.06219,-6.970884 4.17688,-4.176885 0.0565,-0.05644 c 0.56444,-0.564444 0.56444,-1.213554 0.56444,-2.511776 v -0.197555 -7.253105 h 2.25778 v 7.253105 0.169333 c 0,0.931333 -0.33867,1.495777 -0.87489,2.060221 l -1.60866,1.693332 -1.94734,1.890887 1.94734,1.890888 1.60866,1.693332 c 0.53622,0.564444 0.87489,1.128888 0.87489,2.06022 v 0.169334 2.56822 h -2.25778 v -2.56822 -0.197556 c 0,-1.241777 0,-1.919109 -0.45155,-2.370665 l -0.16934,-0.197555 -2.31422,-2.31422 -1.86266,1.80622 v 5.841996 h -2.25778 V 67.291126 h 2.25778 z m 9.59555,5.983107 V 74.064454 h 2.25778 v 12.276657 c 0,0.705555 0.508,1.269999 1.12889,1.269999 h 1.27 v 1.128888 h -3.52778 c -0.62089,0 -1.12889,-0.564444 -1.12889,-1.269999 z m -0.28222,-16.594654 c 0,0.282222 0.14111,0.620888 0.39511,0.818444 l 1.016,0.987777 1.016,-0.987777 c 0.254,-0.197556 0.39511,-0.536222 0.39511,-0.818444 0,-0.282222 -0.14111,-0.592666 -0.39511,-0.790222 l -1.016,-0.987777 -1.016,0.987777 c -0.254,0.197556 -0.39511,0.508 -0.39511,0.790222 z m 10.86555,9.962437 c -0.33867,0 -1.10067,0 -1.24178,0 h -0.0282 c -1.27,0 -1.27,-1.185333 -1.27,-2.539998 v -4.23333 h -2.25777 v 5.362218 c 0,1.41111 1.12888,2.539998 2.53999,2.539998 h 0.0282 2.22955 v 6.773328 h 2.25778 V 74.064454 h -2.25778 z m 5.78555,-6.773328 c -0.70556,0 -1.27,0.564444 -1.27,1.269999 v 12.135546 c 0,0.705555 0.56444,1.269999 1.27,1.269999 h 5.78555 V 87.61111 h -3.52778 c -0.70555,0 -1.26999,-0.564444 -1.26999,-1.269999 V 81.96667 h 3.52777 c 0.70556,0 1.27,-0.564444 1.27,-1.269999 v -5.362218 c 0,-0.705555 -0.56444,-1.269999 -1.27,-1.269999 z m 2.22955,1.128888 h 0.0565 c 0.70555,0 1.24177,0.592666 1.24177,1.298221 v 3.07622 c 0,0.705555 -0.56444,1.269999 -1.27,1.269999 h -1.26999 v -4.374441 c 0,-0.705555 0.53622,-1.269999 1.24177,-1.269999 z m 8.07155,13.546656 v -12.30488 c 0.79022,0 1.524,0.310445 2.06022,0.846667 l 1.60867,1.552221 v 9.905992 h 2.25777 v -14.1111 c 0,-0.225778 -0.11289,-0.451556 -0.31044,-0.620889 l -0.81845,-0.790221 -0.81844,0.790221 c -0.19756,0.169333 -0.31044,0.395111 -0.31044,0.620889 v 2.624664 l -2.45534,-2.342442 c -0.53622,-0.536222 -1.26999,-0.846666 -2.06022,-0.846666 h -0.19755 -0.19756 -1.016 v 14.675544 z"
       id="text2"
       aria-label="Monþ Kiчen" />
  </g>
</svg>
