<?xml version="1.0" encoding="UTF-8" standalone="no"?>
<!-- Created with Inkscape (http://www.inkscape.org/) -->

<svg
   width="738.14594"
   height="87.053268"
   viewBox="0 0 195.30111 23.032844"
   version="1.1"
   id="svg1"
   inkscape:version="1.4 (86a8ad7, 2024-10-11)"
   sodipodi:docname="Word DotsNLines Fifth Eighth.svg"
   xmlns:inkscape="http://www.inkscape.org/namespaces/inkscape"
   xmlns:sodipodi="http://sodipodi.sourceforge.net/DTD/sodipodi-0.dtd"
   xmlns="http://www.w3.org/2000/svg"
   xmlns:svg="http://www.w3.org/2000/svg">
  <sodipodi:namedview
     id="namedview1"
     pagecolor="#ffffff"
     bordercolor="#000000"
     borderopacity="0.25"
     inkscape:showpageshadow="2"
     inkscape:pageopacity="0.0"
     inkscape:pagecheckerboard="0"
     inkscape:deskcolor="#d1d1d1"
     inkscape:document-units="px"
     inkscape:zoom="1.4699074"
     inkscape:cx="370.77165"
     inkscape:cy="141.84567"
     inkscape:window-width="1920"
     inkscape:window-height="1027"
     inkscape:window-x="-8"
     inkscape:window-y="-8"
     inkscape:window-maximized="1"
     inkscape:current-layer="layer1" />
  <defs
     id="defs1" />
  <g
     inkscape:label="Layer 1"
     inkscape:groupmode="layer"
     id="layer1"
     transform="translate(-39.098367,-66.837806)">
    <text
       xml:space="preserve"
       style="font-size:28.2222px;line-height:1;font-family:'BlockTrain Hand';-inkscape-font-specification:'BlockTrain Hand';text-align:start;writing-mode:lr-tb;direction:ltr;text-anchor:start;display:none;fill:#19919b;fill-opacity:1;stroke:#7c7c7c;stroke-width:0.79375;stroke-dasharray:none;stroke-opacity:1"
       x="136.70659"
       y="88.739998"
       id="text1"><tspan
         sodipodi:role="line"
         id="tspan1"
         style="font-style:normal;font-variant:normal;font-weight:normal;font-stretch:normal;font-size:28.2222px;font-family:'Dots n Lines';-inkscape-font-specification:'Dots n Lines';text-align:center;text-anchor:middle;fill:#19919b;fill-opacity:1;stroke:#7c7c7c;stroke-width:0.79375;stroke-dasharray:none;stroke-opacity:1"
         x="0"
         y="0">fifþ eiȝtþ</tspan></text>
    <path
       style="font-size:28.2222px;line-height:1;font-family:'Dots n Lines';-inkscape-font-specification:'Dots n Lines';text-align:center;text-anchor:middle;fill:#19919b;stroke:#7c7c7c;stroke-width:0.79375"
       d="m 44.377679,72.032455 c 0,-0.366888 0.02822,-0.564444 0.08467,-0.592666 0.254,-0.141111 2.116665,-0.254 5.13644,-0.254 1.41111,0 3.104442,0.05644 5.023552,0.08467 l 2.681109,0.02822 c 0,0 0.508,-0.254 0.733777,-0.395111 1.693332,-1.185332 1.862666,-1.213554 1.862666,-1.721554 0,-0.790222 -0.564444,-0.874888 -6.91444,-1.100666 h -9.905992 c -0.395111,0 -1.100666,0.02822 -1.91911,0.987777 -0.39511,0.508 -1.665109,1.100666 -1.665109,1.269999 0,0.282222 0.931332,0.423333 0.931332,0.705555 0,0.225778 -0.564444,0.620889 -0.564444,0.987777 0,0.02822 0.02822,0.08467 0.02822,0.112889 0.141111,0.620888 0.169334,4.684885 0.423333,5.870218 0.112889,0.451555 0.112889,4.289774 0.112889,6.462884 v 1.495776 c 0,1.947332 0,2.229554 -0.141111,2.257776 -0.08467,0.02822 -0.112889,0.05644 -0.112889,0.112889 0,0.08467 0.366889,0.564444 0.649111,0.564444 0.479777,0 2.906887,-0.987777 3.697108,-2.031998 0.225778,-0.338667 0.282222,-1.495777 0.282222,-4.600219 0,-8.184438 -0.423333,-6.914439 -0.423333,-10.244659 z m 7.535328,8.692438 c 0,0.282222 0.141111,0.423333 0.761999,0.818444 0.225778,0.141111 0.282222,0.310444 0.818444,0.310444 1.241777,0 2.56822,-0.733777 2.991553,-1.015999 0.310444,-0.225778 1.157111,-1.128888 1.241777,-1.41111 C 57.755,79.313783 57.755,79.200894 57.755,79.116228 v -0.254 c 0,-1.495777 -1.806221,-1.636888 -1.834443,-1.636888 -0.761999,0 -4.007552,2.539998 -4.007552,3.499553 z m 11.796862,8.494882 c 0.649111,0 1.91911,-0.705555 2.257776,-0.818444 0.366889,-0.141111 1.862665,-0.705555 2.427109,-1.015999 0.225778,-0.141111 0.282222,-0.112889 0.282222,-0.423333 0,-0.02822 -0.05644,-1.693332 -0.05644,-2.878664 0,-1.91911 0.112889,-1.495777 0.112889,-2.681109 0,-0.479778 -0.05645,-0.959555 -0.05645,-1.439332 0,-0.141111 0.08467,-7.619995 0.112889,-9.22866 0,0 0.05644,-0.987777 0.05644,-1.495777 v -1.044221 c 0,-0.536222 -0.05644,-0.564444 -0.197556,-0.564444 -0.366888,0 -3.499553,1.269999 -4.317997,1.834443 l -0.366888,0.225778 -0.08467,1.326443 c -0.08467,1.241777 -0.169333,13.46199 -0.169333,13.603101 -0.08467,1.072443 -0.08467,1.693332 -0.141111,2.963331 0,0 -0.112889,0.507999 -0.112889,0.931332 0,0.677333 0.169333,0.705555 0.254,0.705555 z m 12.558874,-17.18732 c 0,-0.366888 0.02822,-0.564444 0.08467,-0.592666 0.253999,-0.141111 2.116665,-0.254 5.13644,-0.254 1.41111,0 3.104442,0.05644 5.023552,0.08467 l 2.681109,0.02822 c 0,0 0.507999,-0.254 0.733777,-0.395111 1.693332,-1.185332 1.862665,-1.213554 1.862665,-1.721554 0,-0.790222 -0.564444,-0.874888 -6.914439,-1.100666 h -9.905992 c -0.395111,0 -1.100666,0.02822 -1.91911,0.987777 -0.395111,0.508 -1.66511,1.100666 -1.66511,1.269999 0,0.282222 0.931333,0.423333 0.931333,0.705555 0,0.225778 -0.564444,0.620889 -0.564444,0.987777 0,0.02822 0.02822,0.08467 0.02822,0.112889 0.141111,0.620888 0.169333,4.684885 0.423333,5.870218 0.112889,0.451555 0.112889,4.289774 0.112889,6.462884 v 1.495776 c 0,1.947332 0,2.229554 -0.141111,2.257776 -0.08467,0.02822 -0.112889,0.05644 -0.112889,0.112889 0,0.08467 0.366889,0.564444 0.649111,0.564444 0.479777,0 2.906886,-0.987777 3.697108,-2.031998 0.225778,-0.338667 0.282222,-1.495777 0.282222,-4.600219 0,-8.184438 -0.423333,-6.914439 -0.423333,-10.244659 z m 7.535328,8.692438 c 0,0.282222 0.141111,0.423333 0.761999,0.818444 0.225778,0.141111 0.282222,0.310444 0.818444,0.310444 1.241777,0 2.56822,-0.733777 2.991553,-1.015999 0.310444,-0.225778 1.15711,-1.128888 1.241777,-1.41111 0.02822,-0.112889 0.02822,-0.225778 0.02822,-0.310444 v -0.254 c 0,-1.495777 -1.806221,-1.636888 -1.834443,-1.636888 -0.761999,0 -4.007552,2.539998 -4.007552,3.499553 z M 98.987595,67.234681 c -0.508,0 -1.015999,0.169333 -1.439332,0.310444 -0.508,0.141111 -0.903111,0.508 -1.298222,0.818444 -0.366888,0.282222 -0.818443,0.564444 -1.044221,0.987777 -0.112889,0.225778 -0.225778,0.479778 -0.225778,0.705555 0,1.015999 1.241777,1.128888 1.636888,1.128888 0.931333,0 3.52778,-0.846666 3.52778,-2.765775 0,-1.072444 -0.790227,-1.185333 -1.157115,-1.185333 z m 3.838215,5.192885 c -3.781771,0 -5.333992,0.310444 -6.660435,0.959555 -0.395111,0.225777 -1.100666,0.64911 -1.100666,1.15711 0,0.254 0.197555,0.282222 0.310444,0.282222 0.141111,0 0.366889,-0.05644 0.508,-0.05644 0.05644,0 3.301997,0.112888 5.333997,0.112888 0.93133,0 1.97555,-0.02822 2.90689,-0.02822 h 0.98777 c 0.39511,0 0.84667,0 1.41111,0.05644 1.07245,0.112888 1.69333,0 2.93511,1.15711 1.18533,1.072444 1.46756,2.31422 1.46756,3.33022 0,1.580443 -0.36689,1.693332 -0.73378,1.80622 -0.62089,0.169334 -3.38667,0.197556 -3.41489,0.197556 -2.20133,0 -4.31799,-0.169333 -6.51933,-0.169333 -0.56444,0 -2.624661,0.02822 -2.963327,0.112888 -0.169333,0.05644 -0.141111,0.02822 -0.762,0.423333 -1.41111,0.931333 -1.693332,1.862666 -1.693332,1.890888 0,0.141111 0.112889,0.282222 0.225778,0.282222 0,0 0,-0.02822 0.310444,-0.02822 0.05644,0 3.697108,0.112888 4.741327,0.112888 1.38289,0 3.048,-0.05644 4.12044,-0.05644 0.67734,0 1.35467,0.02822 2.08845,0.02822 0.33866,0 0.70555,0 1.07244,-0.02822 3.75355,-0.169333 3.24555,-0.338666 4.74133,-0.959555 0.36689,-0.141111 1.778,-1.298221 2.14489,-2.031998 0.14111,-0.225778 0.39511,-0.705555 0.56444,-1.015999 0.254,-0.479778 0.39511,-1.552221 0.39511,-2.455332 0,-1.072444 -0.16933,-1.495777 -0.33866,-1.862665 -0.62089,-1.072444 -1.66511,-1.947332 -2.73756,-2.56822 -0.64911,-0.366889 -1.63689,-0.620889 -2.87866,-0.620889 -0.98778,0 -2.14489,0.02822 -3.21733,0.02822 -0.0282,0 -3.16089,-0.05644 -3.24556,-0.05644 z m -7.450657,15.889099 c 0,0.338666 0.141111,0.620888 0.395111,0.846666 0.310444,0.254 1.467554,0.310444 1.495777,0.310444 0.169333,0 0.366888,-0.02822 0.536221,-0.08467 0.479778,-0.141111 2.596438,-1.608665 2.878668,-2.116665 0.11289,-0.225777 0.22577,-0.479777 0.22577,-0.705555 0,-0.536221 -0.56444,-0.846666 -0.90311,-0.987777 -0.225773,-0.112888 -0.225773,0 -0.451551,-0.08467 l -0.338667,-0.112889 h -0.112888 c -1.269999,0 -3.725331,2.031998 -3.725331,2.935109 z M 144.00199,68.166014 h -1.46755 -3.97933 -0.53622 c -1.12889,0 -3.01978,0.310444 -3.92289,0.536222 -0.31044,0.08467 -1.32644,1.269999 -1.46755,1.495776 -0.0847,0.112889 -0.14112,1.044222 -0.14112,1.834443 0,0.08467 0.22578,3.443109 0.22578,7.789328 0,4.289774 -0.19755,7.309549 -0.19755,7.394216 0,0.112889 0,1.382888 1.15711,1.382888 0.14111,0 0.22577,-0.02822 0.36689,-0.02822 0,0 0.19755,0.02822 0.33866,0.02822 0.11289,0 5.41866,-0.112889 9.84955,-0.112889 h 2.17311 c 0.56444,0 0.39511,-0.02822 0.70555,-0.02822 0.62089,0 3.81,0.141111 3.83822,0.141111 0.14111,0 0.36689,-0.338667 0.53623,-0.479778 0.33866,-0.310444 0.79022,-0.564444 1.04422,-0.931332 0.16933,-0.254 0.53622,-0.790222 0.53622,-1.015999 0,-0.05644 0,-0.05644 -0.0564,-0.05644 h -0.0282 l -0.73378,0.02822 -3.49955,-0.141111 c -1.86266,-0.08467 -4.45911,-0.141111 -5.36222,-0.141111 h -2.06022 -0.31044 c -1.07244,0 -1.27,0.08467 -2.17311,0.08467 -0.79022,0 -1.69333,-0.02822 -1.74978,-0.08467 0,-0.02822 -0.0282,-0.282222 -0.0282,-0.64911 0,-2.596443 0.16933,-4.99533 0.16933,-7.591772 0,-2.793998 -0.19755,-3.640664 -0.19755,-4.261552 0,-0.395111 0.0564,-0.225778 0.0564,-0.508 0,-0.508 -0.11289,-1.044221 -0.11289,-1.354666 0,-0.169333 0.0282,-0.253999 0.14112,-0.310444 0.62088,-0.395111 3.35844,-0.254 5.05177,-0.338666 0.79022,-0.02822 2.00378,-0.08467 3.86644,-0.08467 0.79022,0 1.60867,0.08467 2.39889,0.08467 1.83444,0 1.69333,-0.197556 2.06022,-0.197556 0.0847,0 0.0847,0.02822 0.14111,0.02822 0.31044,0 2.17311,-2.060221 2.17311,-2.314221 0,-0.141111 -0.14111,-0.197555 -1.04422,-0.197555 h -1.32645 -0.70555 z m 1.38289,11.03488 c 0,0.254 0.64911,0.987777 1.07244,1.15711 0.33867,0.141111 1.016,0.395111 1.38289,0.395111 0.56445,0 1.04422,-0.423333 1.55222,-0.705555 0.508,-0.282222 1.016,-0.620888 1.49578,-0.987777 0.39511,-0.338666 1.04422,-0.620888 1.12889,-1.15711 v -0.05644 c 0,-0.762 -1.63689,-1.580444 -2.31422,-1.580444 -1.43934,0 -4.318,2.257776 -4.318,2.935109 z m 11.51465,10.018881 c 0.64911,0 1.91911,-0.705555 2.25777,-0.818444 0.36689,-0.141111 1.86267,-0.705555 2.42711,-1.015999 0.22578,-0.141111 0.28222,-0.112889 0.28222,-0.423333 0,-0.02822 -0.0564,-1.693332 -0.0564,-2.878664 0,-1.91911 0.11289,-1.495777 0.11289,-2.681109 0,-0.479778 -0.0565,-0.959555 -0.0565,-1.439332 0,-0.141111 0.0847,-7.619995 0.11289,-9.22866 0,0 0.0564,-0.987777 0.0564,-1.495777 v -1.044221 c 0,-0.536222 -0.0564,-0.564444 -0.19756,-0.564444 -0.36689,0 -3.49955,1.269999 -4.318,1.834443 l -0.36688,0.225778 -0.0847,1.326443 c -0.0847,1.241777 -0.16933,13.46199 -0.16933,13.603101 -0.0847,1.072443 -0.0847,1.693332 -0.14111,2.963331 0,0 -0.11289,0.507999 -0.11289,0.931332 0,0.677333 0.16933,0.705555 0.254,0.705555 z m 13.40553,-0.338666 3.95111,-0.02822 h 0.28222 c 0.47978,0 4.26156,-0.08467 6.18067,-0.874889 1.86266,-0.733777 4.40266,-3.697108 4.40266,-5.108218 0,-0.169333 -0.0847,-0.451555 -0.22578,-0.677333 -0.42333,-1.241776 -2.11666,-3.104442 -3.49955,-3.555997 -0.16933,-0.05644 -0.31045,-0.141111 -0.31045,-0.254 0,-0.141111 0.53623,-0.677332 0.93134,-0.987777 1.35466,-1.015999 2.68111,-2.652887 2.794,-3.838219 v -0.254 c 0,-1.439332 -0.762,-2.173109 -1.38289,-2.709331 -2.06022,-1.91911 -4.26155,-2.681109 -7.05555,-2.681109 h -0.53622 c -1.18534,0 -3.72533,0.423333 -3.97933,0.479777 -1.41111,0.282222 -2.37067,0.536222 -4.064,1.326444 -1.49578,0.733777 -2.39889,1.326443 -2.39889,1.749776 0,0.338667 0.45156,0.395111 0.79022,0.395111 1.41111,0 2.14489,-0.564444 4.48733,-1.072444 1.07245,-0.225777 3.47133,-0.39511 4.03578,-0.39511 h 0.39511 c 2.032,0 3.61244,1.269999 4.09222,1.749776 1.12889,1.185332 1.27,1.439332 1.27,2.229554 v 0.02822 c 0,1.072444 -0.36689,2.003776 -1.016,2.427109 -0.508,0.338667 -0.81845,0.423333 -2.93511,0.649111 -0.90311,0.112889 -0.64911,-0.141111 -1.97556,0.592666 -0.90311,0.508 -1.77799,1.185333 -1.77799,1.467555 0.0282,0.507999 1.01599,0.479777 1.91911,0.564444 2.20133,0.169333 2.20133,0.169333 3.33022,0.705555 0.93133,0.507999 1.12888,0.677332 1.77799,1.439332 0.39511,0.507999 1.10067,1.326443 1.10067,2.144887 0,0.423333 -0.28222,0.959555 -0.42333,1.185332 -0.36689,0.564444 -0.45156,0.818444 -4.68489,0.818444 h -1.46755 c -5.70089,0 -6.49111,-0.395111 -6.57578,-0.395111 -0.36688,0 -1.24177,0.592667 -1.46755,0.762 l -1.27,1.044221 c -0.28222,0.310444 -0.42333,0.536222 -0.42333,0.677333 0,0.141111 0.14111,0.225778 0.39511,0.254 1.41111,0.141111 2.06022,0.141111 2.56822,0.141111 z m 31.75001,-20.940873 c -0.67733,0 -1.49578,0.05644 -2.39889,0.05644 -3.64066,0.02822 -7.30955,0.02822 -8.21266,0.02822 -0.47978,0 -0.59266,0 -0.84666,0.112889 -0.254,0.112888 -0.36689,0.310444 -0.87489,0.846666 -0.36689,0.366888 -0.95956,0.959554 -1.18533,1.269999 l -0.39512,0.507999 0.64912,0.338667 c 1.07244,0.423333 4.00755,0.507999 5.64444,0.507999 3.47133,0 10.10354,-0.05644 11.00665,-0.112889 1.63689,-0.08467 2.39889,-0.338666 2.90689,-0.592666 0.36689,-0.225777 2.17311,-1.298221 2.17311,-1.975554 v -0.05644 c 0,-0.762 -2.39889,-0.931333 -8.46666,-0.931333 z m -3.556,21.081984 c 0.90311,0 2.31422,-0.959555 2.70933,-1.269999 0.47978,-0.338667 0.87489,-0.536222 1.18534,-1.185333 0.0847,-0.169333 0.14111,-0.253999 0.14111,-0.423333 0,-0.225777 -0.0282,-0.479777 -0.11289,-0.846666 -0.0565,-0.225777 -0.64911,-1.015999 -0.87489,-1.185332 -0.39511,-0.338666 -0.79022,-0.366889 -1.21355,-0.451555 h -0.53623 c -0.87488,0.02822 -0.90311,0.197555 -1.32644,0.423333 -1.60867,0.874888 -2.56822,1.382888 -2.93511,2.285998 -0.0847,0.225778 -0.16933,0.366889 -0.16933,0.620888 0,1.580444 2.62466,2.031999 3.13266,2.031999 z m 19.24755,-21.787539 c -0.508,0 -1.01599,0.169333 -1.43933,0.310444 -0.508,0.141111 -0.90311,0.508 -1.29822,0.818444 -0.36689,0.282222 -0.81844,0.564444 -1.04422,0.987777 -0.11289,0.225778 -0.22578,0.479778 -0.22578,0.705555 0,1.015999 1.24178,1.128888 1.63689,1.128888 0.93133,0 3.52777,-0.846666 3.52777,-2.765775 0,-1.072444 -0.79022,-1.185333 -1.15711,-1.185333 z m 3.83822,5.192885 c -3.78177,0 -5.33399,0.310444 -6.66044,0.959555 -0.39511,0.225777 -1.10066,0.64911 -1.10066,1.15711 0,0.254 0.19755,0.282222 0.31044,0.282222 0.14111,0 0.36689,-0.05644 0.508,-0.05644 0.0565,0 3.302,0.112888 5.334,0.112888 0.93133,0 1.97555,-0.02822 2.90688,-0.02822 h 0.98778 c 0.39511,0 0.84667,0 1.41111,0.05644 1.07245,0.112888 1.69333,0 2.93511,1.15711 1.18533,1.072444 1.46756,2.31422 1.46756,3.33022 0,1.580443 -0.36689,1.693332 -0.73378,1.80622 -0.62089,0.169334 -3.38667,0.197556 -3.41489,0.197556 -2.20133,0 -4.318,-0.169333 -6.51933,-0.169333 -0.56444,0 -2.62466,0.02822 -2.96333,0.112888 -0.16933,0.05644 -0.14111,0.02822 -0.762,0.423333 -1.41111,0.931333 -1.69333,1.862666 -1.69333,1.890888 0,0.141111 0.11289,0.282222 0.22578,0.282222 0,0 0,-0.02822 0.31044,-0.02822 0.0565,0 3.69711,0.112888 4.74133,0.112888 1.38289,0 3.048,-0.05644 4.12044,-0.05644 0.67734,0 1.35467,0.02822 2.08845,0.02822 0.33866,0 0.70555,0 1.07244,-0.02822 3.75355,-0.169333 3.24555,-0.338666 4.74133,-0.959555 0.36689,-0.141111 1.778,-1.298221 2.14489,-2.031998 0.14111,-0.225778 0.39511,-0.705555 0.56444,-1.015999 0.254,-0.479778 0.39511,-1.552221 0.39511,-2.455332 0,-1.072444 -0.16933,-1.495777 -0.33866,-1.862665 -0.62089,-1.072444 -1.66511,-1.947332 -2.73756,-2.56822 -0.64911,-0.366889 -1.63689,-0.620889 -2.87866,-0.620889 -0.98778,0 -2.14489,0.02822 -3.21733,0.02822 -0.0282,0 -3.16089,-0.05644 -3.24556,-0.05644 z m -7.45066,15.889099 c 0,0.338666 0.14111,0.620888 0.39511,0.846666 0.31045,0.254 1.46756,0.310444 1.49578,0.310444 0.16933,0 0.36689,-0.02822 0.53622,-0.08467 0.47978,-0.141111 2.59644,-1.608665 2.87867,-2.116665 0.11289,-0.225777 0.22577,-0.479777 0.22577,-0.705555 0,-0.536221 -0.56444,-0.846666 -0.90311,-0.987777 -0.22577,-0.112888 -0.22577,0 -0.45155,-0.08467 l -0.33867,-0.112889 h -0.11289 c -1.27,0 -3.72533,2.031998 -3.72533,2.935109 z"
       id="text2"
       aria-label="fifþ eiȝtþ" />
  </g>
</svg>
