<?xml version="1.0" encoding="UTF-8" standalone="no"?>
<!-- Created with Inkscape (http://www.inkscape.org/) -->

<svg
   width="711.79932"
   height="103.37325"
   viewBox="0 0 188.33024 27.350841"
   version="1.1"
   id="svg1"
   inkscape:version="1.4 (86a8ad7, 2024-10-11)"
   sodipodi:docname="Word Leaf Tech Clothing Weather.svg"
   xmlns:inkscape="http://www.inkscape.org/namespaces/inkscape"
   xmlns:sodipodi="http://sodipodi.sourceforge.net/DTD/sodipodi-0.dtd"
   xmlns="http://www.w3.org/2000/svg"
   xmlns:svg="http://www.w3.org/2000/svg">
  <sodipodi:namedview
     id="namedview1"
     pagecolor="#ffffff"
     bordercolor="#000000"
     borderopacity="0.25"
     inkscape:showpageshadow="2"
     inkscape:pageopacity="0.0"
     inkscape:pagecheckerboard="0"
     inkscape:deskcolor="#d1d1d1"
     inkscape:document-units="px"
     inkscape:zoom="1.4699074"
     inkscape:cx="361.5874"
     inkscape:cy="43.2"
     inkscape:window-width="1920"
     inkscape:window-height="1027"
     inkscape:window-x="-8"
     inkscape:window-y="-8"
     inkscape:window-maximized="1"
     inkscape:current-layer="layer1" />
  <defs
     id="defs1" />
  <g
     inkscape:label="Layer 1"
     inkscape:groupmode="layer"
     id="layer1"
     transform="translate(-42.541481,-65.765363)">
    <text
       xml:space="preserve"
       style="font-size:28.2222px;line-height:1;font-family:'BlockTrain Hand';-inkscape-font-specification:'BlockTrain Hand';text-align:start;letter-spacing:0px;writing-mode:lr-tb;direction:ltr;text-anchor:start;display:none;fill:#17a23e;fill-opacity:0.854902;stroke:#4d804f;stroke-width:0.79375;stroke-dasharray:none;stroke-opacity:1"
       x="136.70659"
       y="88.739998"
       id="text1"><tspan
         sodipodi:role="line"
         id="tspan1"
         style="font-style:normal;font-variant:normal;font-weight:normal;font-stretch:normal;font-size:28.2222px;font-family:'Leaf Tech';-inkscape-font-specification:'Leaf Tech';text-align:center;letter-spacing:0px;text-anchor:middle;fill:#17a23e;fill-opacity:0.854902;stroke:#4d804f;stroke-width:0.79375;stroke-dasharray:none;stroke-opacity:1"
         x="0"
         y="0">Clothing Weather</tspan></text>
    <path
       style="font-size:28.2222px;line-height:1;font-family:'Leaf Tech';-inkscape-font-specification:'Leaf Tech';text-align:center;letter-spacing:0px;text-anchor:middle;fill:#17a23e;fill-opacity:0.854902;stroke:#4d804f;stroke-width:0.79375"
       d="m 42.938356,66.19046 v 16.594654 c 0,3.301997 2.681109,5.954884 5.983106,5.954884 h 5.333996 c 0.338667,0 0.649111,-0.254 0.649111,-0.620889 0,-0.338666 -0.310444,-0.64911 -0.649111,-0.64911 h -5.333996 c -2.596442,0 -4.684885,-2.088443 -4.684885,-4.684885 V 67.460459 h 4.684885 c 2.596443,0 4.684886,2.088443 4.684886,4.684885 0,0.338666 0.282222,0.649111 0.64911,0.649111 0.338667,0 0.649111,-0.310445 0.649111,-0.649111 0,-3.301997 -2.681109,-5.954884 -5.983107,-5.954884 z m 11.40175,0.620888 c 0,0.169333 0.05644,0.310444 0.169333,0.423333 1.15711,1.298221 1.862665,3.019776 1.862665,4.882441 v 5.333996 5.333996 c 0,1.834443 0.564444,3.527775 1.552221,4.910662 0.197555,0.310445 0.395111,0.564444 0.649111,0.818444 0.112888,0.141111 0.282222,0.225778 0.479777,0.225778 0.366889,0 0.649111,-0.282222 0.649111,-0.649111 0,-0.169333 -0.05644,-0.310444 -0.169334,-0.423333 -1.15711,-1.298221 -1.862665,-3.019775 -1.862665,-4.88244 v -5.333996 -5.333996 c 0,-2.201332 -0.846666,-4.205108 -2.201331,-5.729107 -0.141111,-0.141111 -0.310445,-0.225777 -0.479778,-0.225777 -0.366888,0 -0.64911,0.282222 -0.64911,0.64911 z m 6.942682,11.28888 h 4.656663 c 2.596443,0 4.684886,2.088443 4.684886,4.684886 v 4.656663 h -4.628441 c -2.624665,0 -4.713108,-2.088443 -4.713108,-4.713108 z m -1.298221,-1.298221 v 5.926662 c 0,2.906887 2.088443,5.333996 4.825996,5.89844 0.395111,0.08467 0.790222,0.112889 1.185333,0.112889 h 5.926662 v -5.954884 c 0,-3.301998 -2.681109,-5.983107 -5.983107,-5.983107 z m 14.280428,-5.333996 c -0.366889,0 -0.649111,0.282222 -0.649111,0.649111 v 10.611547 c 0,3.301998 2.709332,6.011329 6.011329,6.011329 0.366889,0 0.649111,-0.282222 0.649111,-0.649111 0,-0.338666 -0.282222,-0.64911 -0.649111,-0.64911 -2.624665,0 -4.713107,-2.088443 -4.713107,-4.713108 v -4.656663 h 4.656663 c 0.366888,0 0.64911,-0.282222 0.64911,-0.64911 0,-0.338667 -0.282222,-0.620889 -0.64911,-0.620889 h -4.656663 v -4.684885 c 0,-0.366889 -0.310445,-0.649111 -0.649111,-0.649111 z m 3.471327,-4.684885 c 0,0.169333 0.05644,0.310444 0.169333,0.423333 1.15711,1.298221 1.862665,3.019775 1.862665,4.910663 v 10.611547 c 0,3.301998 2.709332,6.011329 6.011329,6.011329 0.366889,0 0.649111,-0.282222 0.649111,-0.649111 0,-0.338666 -0.282222,-0.64911 -0.649111,-0.64911 -2.596442,0 -4.713107,-2.088443 -4.713107,-4.713108 v -4.656663 h 4.656663 c 2.624664,0 4.713107,2.116665 4.713107,4.713108 v 5.305773 c 0,0.366889 0.282222,0.649111 0.649111,0.649111 0.338666,0 0.64911,-0.282222 0.64911,-0.649111 v -5.305773 c 0,-3.301998 -2.709331,-5.983107 -6.011328,-5.983107 h -4.656663 v -4.684885 c 0,-2.229554 -0.846666,-4.23333 -2.201332,-5.785551 -0.112889,-0.112889 -0.282222,-0.169333 -0.479777,-0.169333 -0.366889,0 -0.649111,0.253999 -0.649111,0.620888 z m 19.642644,21.307761 c 0,-0.169333 -0.05644,-0.310444 -0.169333,-0.423333 -1.15711,-1.298221 -1.890888,-3.019775 -1.890888,-4.910663 v -5.333995 c 0,-0.338667 -0.282222,-0.620889 -0.620888,-0.620889 -0.366889,0 -0.649111,0.282222 -0.649111,0.620889 v 5.333995 c 0,2.229554 0.818444,4.23333 2.201332,5.757329 0.112889,0.141111 0.282222,0.225778 0.479777,0.225778 0.366889,0 0.649111,-0.282222 0.649111,-0.649111 z M 93.427858,73.697565 v 1.269999 h 1.241777 c 0.705555,0 1.269999,-0.564444 1.269999,-1.269999 v -1.241777 h -1.241777 c -0.733777,0 -1.269999,0.564444 -1.269999,1.241777 z m 15.522252,15.042433 c 0.36689,0 0.64911,-0.254 0.64911,-0.620889 v -0.02822 -10.667991 c 0,-0.338667 -0.28222,-0.592667 -0.64911,-0.592667 -0.33866,0 -0.64911,0.254 -0.64911,0.592667 v 1.721554 c -1.10066,-1.439332 -2.79399,-2.314221 -4.7131,-2.314221 h -5.926667 v 5.926662 c 0,3.301998 2.681107,5.983107 5.983107,5.983107 0.36689,0 0.64911,-0.282222 0.64911,-0.649111 0,-0.338666 -0.28222,-0.64911 -0.64911,-0.64911 -2.59644,0 -4.713108,-2.088443 -4.713108,-4.684886 v -4.684885 h 4.656668 c 2.62466,0 4.7131,2.116665 4.7131,4.74133 v 5.277551 c 0,0.366889 0.28222,0.649111 0.64911,0.649111 z m 3.64066,-10.667992 h 4.65666 c 2.59645,0 4.71311,2.116665 4.71311,4.713108 v 4.656663 h -4.65666 c -2.62467,0 -4.71311,-2.088443 -4.71311,-4.713108 z m -1.29822,12.925768 c 0,0.254 0.14111,0.451555 0.31044,0.564444 1.27,0.733777 2.76578,1.15711 4.34622,1.15711 h 7.28133 v -9.934214 c 0,-3.301998 -2.68111,-5.983107 -5.98311,-5.983107 h -5.95488 v 5.926662 c 0,3.301998 2.70933,6.011329 6.01133,6.011329 h 4.65666 v 2.681109 h -6.01133 c -1.35466,0 -2.59644,-0.338667 -3.6971,-0.959555 -0.0847,-0.05644 -0.19756,-0.112889 -0.31045,-0.112889 -0.33867,0 -0.64911,0.282222 -0.64911,0.649111 z M 144.67938,70.16979 c -0.36688,0 -0.62088,0.254 -0.62088,0.649111 v 11.966213 c 0,2.596442 -2.08845,4.684885 -4.68489,4.684885 h -4.68488 V 70.367345 c 0,-1.608665 1.29822,-2.906886 2.90688,-2.906886 0.33867,0 0.64911,-0.310444 0.64911,-0.649111 0,-0.366888 -0.31044,-0.64911 -0.64911,-0.64911 -2.31422,0 -4.20511,1.890887 -4.20511,4.205107 v 18.372653 h 5.98311 c 2.34244,0 4.34622,-1.326444 5.30577,-3.301998 0.98778,1.975554 2.99156,3.301998 5.334,3.301998 h 5.98311 V 70.367345 c 0,-2.31422 -1.89089,-4.205107 -4.20511,-4.205107 -0.33867,0 -0.64911,0.282222 -0.64911,0.64911 0,0.338667 0.31044,0.649111 0.64911,0.649111 1.60866,0 2.90689,1.298221 2.90689,2.906886 v 17.102654 h -4.68489 c -2.59644,0 -4.68488,-2.088443 -4.68488,-4.684885 v -11.966213 -0.02822 c 0,-0.366888 -0.28223,-0.620888 -0.64912,-0.620888 z m 13.01044,6.660439 v 5.89844 c 0,3.301998 2.70933,6.011329 6.01133,6.011329 h 5.27755 c 0.36689,0 0.64911,-0.282222 0.64911,-0.649111 0,-0.338666 -0.28222,-0.64911 -0.64911,-0.64911 h -5.27755 c -2.37067,0 -4.318,-1.721555 -4.65666,-4.007553 0.70555,0.649111 1.58044,1.128888 2.85044,1.128888 h 7.73288 v -1.777998 c 0,-3.301998 -2.68111,-5.954885 -5.9831,-5.954885 z m 1.29822,1.269999 h 4.65667 c 2.59644,0 4.68488,2.088443 4.68488,4.684886 v 0.479777 h -6.43466 c -1.63689,0 -2.90689,-1.298221 -2.90689,-2.906887 z m 13.63132,2.624665 h 4.65666 c 2.59644,0 4.71311,2.088443 4.71311,4.684885 v 2.031999 h -4.65666 c -2.62467,0 -4.71311,-2.116665 -4.71311,-4.74133 z m -0.64911,-3.894664 c -0.36689,0 -0.64911,0.254 -0.64911,0.620889 0,0.338666 0.28222,0.64911 0.64911,0.64911 h 6.66044 c 1.86266,0 3.35844,1.467555 3.35844,3.33022 v 0.310444 c -1.10067,-1.382888 -2.794,-2.31422 -4.71311,-2.31422 h -5.95488 v 3.273775 c 0,3.33022 2.70933,6.039551 6.01133,6.039551 h 5.92666 v -7.30955 c 0,-2.56822 -2.08844,-4.600219 -4.62844,-4.600219 z m 13.63132,-5.362218 c -0.36689,0 -0.64911,0.282222 -0.64911,0.649111 v 10.611547 c 0,3.301998 2.70933,6.011329 6.01132,6.011329 0.36689,0 0.64911,-0.282222 0.64911,-0.649111 0,-0.338666 -0.28222,-0.64911 -0.64911,-0.64911 -2.62466,0 -4.7131,-2.088443 -4.7131,-4.713108 v -4.656663 h 4.65666 c 0.36689,0 0.64911,-0.282222 0.64911,-0.64911 0,-0.338667 -0.28222,-0.620889 -0.64911,-0.620889 h -4.65666 v -4.684885 c 0,-0.366889 -0.31045,-0.649111 -0.64911,-0.649111 z m 3.47132,-4.684885 c 0,0.169333 0.0565,0.310444 0.16934,0.423333 1.15711,1.298221 1.86266,3.019775 1.86266,4.910663 v 10.611547 c 0,3.301998 2.70933,6.011329 6.01133,6.011329 0.36689,0 0.64911,-0.282222 0.64911,-0.649111 0,-0.338666 -0.28222,-0.64911 -0.64911,-0.64911 -2.59644,0 -4.71311,-2.088443 -4.71311,-4.713108 v -4.656663 h 4.65667 c 2.62466,0 4.7131,2.116665 4.7131,4.713108 v 5.305773 c 0,0.366889 0.28222,0.649111 0.64911,0.649111 0.33867,0 0.64911,-0.282222 0.64911,-0.649111 v -5.305773 c 0,-3.301998 -2.70933,-5.983107 -6.01132,-5.983107 h -4.65667 v -4.684885 c 0,-2.229554 -0.84666,-4.23333 -2.20133,-5.785551 -0.11289,-0.112889 -0.28222,-0.169333 -0.47978,-0.169333 -0.36689,0 -0.64911,0.253999 -0.64911,0.620888 z m 15.69155,10.047103 v 5.89844 c 0,3.301998 2.70933,6.011329 6.01132,6.011329 h 5.27756 c 0.36689,0 0.64911,-0.282222 0.64911,-0.649111 0,-0.338666 -0.28222,-0.64911 -0.64911,-0.64911 h -5.27756 c -2.37066,0 -4.31799,-1.721555 -4.65666,-4.007553 0.70556,0.649111 1.58045,1.128888 2.85044,1.128888 h 7.73289 v -1.777998 c 0,-3.301998 -2.68111,-5.954885 -5.98311,-5.954885 z m 1.29822,1.269999 h 4.65666 c 2.59644,0 4.68489,2.088443 4.68489,4.684886 v 0.479777 h -6.43467 c -1.63688,0 -2.90688,-1.298221 -2.90688,-2.906887 z m 13.77242,-2.681109 h 0.67733 c 0.39511,0 0.67733,0.310444 0.67733,0.677333 v 0.733777 h -0.67733 c -0.39511,0 -0.67733,-0.338666 -0.67733,-0.733777 z m -1.29823,-1.269999 v 1.947332 c 0,1.100666 0.90311,1.975554 1.97556,1.975554 h 0.67733 v 4.684885 c 0,2.596443 -2.08844,4.684886 -4.68488,4.684886 -0.33867,0 -0.64912,0.310444 -0.64912,0.64911 0,0.366889 0.31045,0.649111 0.64912,0.649111 3.30199,0 5.9831,-2.681109 5.9831,-5.983107 v -4.684885 h 1.12889 c 1.60867,0 2.90689,1.298221 2.90689,2.906887 V 85.438 c 0,1.806221 1.49577,3.301998 3.30199,3.301998 0.36689,0 0.64911,-0.282222 0.64911,-0.649111 0,-0.338666 -0.28222,-0.64911 -0.64911,-0.64911 -1.12888,0 -2.00377,-0.874889 -2.00377,-2.003777 v -4.459107 c 0,-2.285998 -1.89089,-4.148664 -4.20511,-4.148664 h -1.12889 v -0.733777 c 0,-1.072444 -0.90311,-1.947332 -1.97555,-1.947332 z"
       id="text2"
       aria-label="Clothing Weather" />
  </g>
</svg>
