<?xml version="1.0" encoding="UTF-8" standalone="no"?>
<!-- Created with Inkscape (http://www.inkscape.org/) -->

<svg
   width="438.19946"
   height="105.39992"
   viewBox="0 0 115.94027 27.887061"
   version="1.1"
   id="svg1"
   inkscape:version="1.4 (86a8ad7, 2024-10-11)"
   sodipodi:docname="Word TallThin Couple Should.svg"
   xmlns:inkscape="http://www.inkscape.org/namespaces/inkscape"
   xmlns:sodipodi="http://sodipodi.sourceforge.net/DTD/sodipodi-0.dtd"
   xmlns="http://www.w3.org/2000/svg"
   xmlns:svg="http://www.w3.org/2000/svg">
  <sodipodi:namedview
     id="namedview1"
     pagecolor="#ffffff"
     bordercolor="#000000"
     borderopacity="0.25"
     inkscape:showpageshadow="2"
     inkscape:pageopacity="0.0"
     inkscape:pagecheckerboard="0"
     inkscape:deskcolor="#d1d1d1"
     inkscape:document-units="px"
     inkscape:zoom="1.4056311"
     inkscape:cx="218.40724"
     inkscape:cy="80.746649"
     inkscape:window-width="1920"
     inkscape:window-height="1027"
     inkscape:window-x="-8"
     inkscape:window-y="-8"
     inkscape:window-maximized="1"
     inkscape:current-layer="layer1" />
  <defs
     id="defs1" />
  <g
     inkscape:label="Layer 1"
     inkscape:groupmode="layer"
     id="layer1"
     transform="translate(-78.877562,-66.894251)">
    <text
       xml:space="preserve"
       style="font-style:normal;font-variant:normal;font-weight:normal;font-stretch:normal;font-size:28.2222px;line-height:1;font-family:'Dots n Lines';-inkscape-font-specification:'Dots n Lines';text-align:start;writing-mode:lr-tb;direction:ltr;text-anchor:start;display:none;fill:#19919b;fill-opacity:1;stroke:#7c7c7c;stroke-width:0.79375;stroke-dasharray:none;stroke-opacity:1"
       x="136.70659"
       y="88.739998"
       id="text1"><tspan
         sodipodi:role="line"
         id="tspan1"
         style="font-style:normal;font-variant:normal;font-weight:normal;font-stretch:normal;font-size:28.2222px;font-family:TallThin;-inkscape-font-specification:TallThin;text-align:center;text-anchor:middle;fill:#19919b;fill-opacity:1;stroke:#7c7c7c;stroke-width:0.79375;stroke-dasharray:none;stroke-opacity:1"
         x="0"
         y="0">Cȣpl Ʃȣld Ȣȝt</tspan></text>
    <path
       style="font-size:28.2222px;line-height:1;font-family:TallThin;-inkscape-font-specification:TallThin;text-align:center;text-anchor:middle;fill:#19919b;stroke:#7c7c7c;stroke-width:0.79375"
       d="m 88.587763,87.61111 h -5.785551 c -0.705555,0 -1.269999,-0.564444 -1.269999,-1.269999 V 69.690013 c 0,-0.705555 0.564444,-1.269999 1.269999,-1.269999 h 5.785551 v -1.128888 h -8.043327 c -0.705555,0 -1.269999,0.564444 -1.269999,1.269999 v 18.908874 c 0,0.705555 0.564444,1.269999 1.269999,1.269999 h 8.043327 z m 9.313334,-13.546656 h -2.257776 v 4.092219 c 0,1.354665 0,2.539998 -1.269999,2.539998 -1.269999,0 -1.269999,-1.185333 -1.269999,-2.539998 v -4.092219 h -2.257776 v 5.221107 c 0,0.874888 0.451555,1.66511 1.128888,2.116665 -0.677333,0.451555 -1.128888,1.241777 -1.128888,2.116665 V 86.2 c 0,1.41111 1.128888,2.539998 2.539998,2.539998 h 1.975554 c 1.41111,0 2.539998,-1.128888 2.539998,-2.539998 v -2.681109 c 0,-0.874888 -0.451555,-1.66511 -1.128888,-2.116665 0.677333,-0.451555 1.128888,-1.241777 1.128888,-2.116665 z m -4.797774,10.583325 c 0,-1.354666 0,-2.539998 1.269999,-2.539998 1.269999,0 1.269999,1.185332 1.269999,2.539998 v 0.423333 c 0,1.354665 0,2.539998 -1.269999,2.539998 -1.269999,0 -1.269999,-1.185333 -1.269999,-2.539998 z m 9.059317,2.963331 h -0.0282 V 75.193342 h 0.0282 c 1.41111,0 2.51177,1.128888 2.51177,2.539998 v 7.337772 c 0,1.41111 -1.10066,2.539998 -2.51177,2.539998 z m -0.0282,0.846666 c 0.22578,0.169333 0.47978,0.282222 0.79022,0.282222 h 0.0565 0.0564 1.35467 c 1.41111,0 2.54,-1.128888 2.54,-2.539998 v -9.595548 c 0,-1.41111 -1.12889,-2.539998 -2.54,-2.539998 h -4.515553 v 20.319984 h 2.257773 z m 9.31333,0.282222 h 1.524 0.0282 c 0.19755,0 0.22578,-0.05644 0.31044,-0.141111 l 0.39511,-0.423333 -0.39511,-0.423333 c -0.0847,-0.08467 -0.11289,-0.141111 -0.31044,-0.141111 -1.83444,0 -1.83444,-1.128888 -1.83444,-2.539998 V 67.85557 h -2.25778 V 86.2 c 0,1.41111 1.12889,2.539998 2.54,2.539998 z m 11.57109,-2.511776 v -0.479777 -0.225778 c 0,-0.451555 0.33867,-1.100666 0.87489,-1.66511 1.58045,-1.66511 1.60867,-1.693332 1.60867,-1.693332 l 2.45533,-2.455331 c 0.42333,-0.479778 0.64911,-1.072444 0.70555,-1.693332 -0.0564,-0.620889 -0.28222,-1.213555 -0.70555,-1.693332 l -2.39889,-2.398887 c 0,0 0,-0.02822 -1.58044,-1.66511 -0.59267,-0.592666 -0.95956,-1.636888 -0.95956,-2.793998 v -0.141111 -0.338666 -0.366889 -0.05644 c 0,-0.705555 0.56445,-1.269999 1.27,-1.269999 h 6.77333 c 0.70556,0 1.27,0.564444 1.27,1.269999 v 1.128888 h -2.25778 c 0,-0.705555 -0.56444,-1.269999 -1.27,-1.269999 h -2.25777 c -0.70556,0 -1.27,0.564444 -1.27,1.269999 v 0.02822 0.112889 0.366888 0.564444 c 0,0.846666 0.0282,1.326444 0.70555,2.031999 l 1.69334,1.693332 3.52777,3.527775 -3.52777,3.527775 -1.83445,1.834443 c -0.53622,0.564444 -0.56444,0.90311 -0.56444,1.298221 v 0.479777 1.072444 0.08467 0.02822 c 0,0.705555 0.56444,1.269999 1.27,1.269999 h 2.25777 c 0.70556,0 1.27,-0.564444 1.27,-1.269999 h 2.25778 v 1.128888 c 0,0.705555 -0.56444,1.269999 -1.27,1.269999 h -6.77333 c -0.70555,0 -1.27,-0.564444 -1.27,-1.269999 v -0.05644 -0.05644 z m 18.34443,-12.163768 h -2.25778 v 4.092219 c 0,1.354665 0,2.539998 -1.26999,2.539998 -1.27,0 -1.27,-1.185333 -1.27,-2.539998 v -4.092219 h -2.25778 v 5.221107 c 0,0.874888 0.45156,1.66511 1.12889,2.116665 -0.67733,0.451555 -1.12889,1.241777 -1.12889,2.116665 V 86.2 c 0,1.41111 1.12889,2.539998 2.54,2.539998 h 1.97555 c 1.41111,0 2.54,-1.128888 2.54,-2.539998 v -2.681109 c 0,-0.874888 -0.45156,-1.66511 -1.12889,-2.116665 0.67733,-0.451555 1.12889,-1.241777 1.12889,-2.116665 z m -4.79777,10.583325 c 0,-1.354666 0,-2.539998 1.27,-2.539998 1.26999,0 1.26999,1.185332 1.26999,2.539998 v 0.423333 c 0,1.354665 0,2.539998 -1.26999,2.539998 -1.27,0 -1.27,-1.185333 -1.27,-2.539998 z m 9.03108,4.092219 h 1.524 0.0282 c 0.19756,0 0.22578,-0.05644 0.31045,-0.141111 l 0.39511,-0.423333 -0.39511,-0.423333 c -0.0847,-0.08467 -0.11289,-0.141111 -0.31045,-0.141111 -1.83444,0 -1.83444,-1.128888 -1.83444,-2.539998 V 67.85557 h -2.25778 V 86.2 c 0,1.41111 1.12889,2.539998 2.54,2.539998 z M 155.75658,67.85557 h -2.25777 v 6.208884 h -2.25778 c -1.41111,0 -2.54,1.128888 -2.54,2.539998 V 86.2 c 0,1.41111 1.12889,2.539998 2.54,2.539998 h 1.35466 0.0565 0.0564 c 0.31045,0 0.56445,-0.112889 0.79023,-0.282222 v 0.282222 h 2.25777 z m -2.25777,7.337772 V 87.61111 c -1.41111,0 -2.54,-1.128888 -2.54,-2.539998 V 77.73334 c 0,-1.41111 1.12889,-2.539998 2.54,-2.539998 z M 166.48099,86.2 c 0,1.41111 1.12889,2.539998 2.54,2.539998 h 4.23333 c 1.41111,0 2.54,-1.128888 2.54,-2.539998 v -5.926662 c 0,-0.987777 -0.56445,-1.834443 -1.38289,-2.257776 0.81844,-0.423333 1.38289,-1.269999 1.38289,-2.257776 v -8.46666 h -2.25778 v 7.337772 c 0,1.354665 -1.07244,2.455331 -2.39888,2.539998 -1.32645,-0.08467 -2.39889,-1.185333 -2.39889,-2.539998 v -7.337772 h -2.25778 v 8.46666 c 0,0.987777 0.56445,1.834443 1.38289,2.257776 -0.81844,0.423333 -1.38289,1.269999 -1.38289,2.257776 z m 2.25778,-4.797774 c 0,-1.354666 1.07244,-2.455332 2.39889,-2.539998 1.32644,0.08467 2.39888,1.185332 2.39888,2.539998 v 3.668886 c 0,1.354665 -1.07244,2.455331 -2.39888,2.539998 -1.32645,-0.08467 -2.39889,-1.185333 -2.39889,-2.539998 z m 14.11109,0.254 v -5.136441 c 0,-0.705555 -0.53622,-1.298221 -1.24177,-1.298221 h -0.0565 c -0.70555,0 -1.24177,0.592666 -1.24177,1.298221 v 0.08467 h -2.25778 c 0,-1.41111 1.12889,-2.539998 2.54,-2.539998 h 1.97555 c 1.41111,0 2.54,1.128888 2.54,2.539998 v 4.035774 0.705555 0.620889 c 0,0.931332 -0.28222,1.495776 -0.93133,1.975554 0.56444,0.451555 0.93133,1.185332 0.93133,1.975554 v 4.515552 c 0,1.41111 -1.12889,2.539998 -2.54,2.539998 h -4.23333 V 91.84444 h 3.24556 c 0.70555,0 1.26999,-0.564444 1.26999,-1.269999 v -4.48733 -0.254 c 0,-0.310444 -0.11288,-0.620888 -0.31044,-0.846666 l -2.794,1.834443 -0.59266,-0.931332 2.62466,-1.608666 c 0.64911,-0.395111 1.07244,-0.90311 1.07244,-1.693332 z m 9.17222,-5.136441 v 9.821326 c 0,0.705555 0.508,1.269999 1.12889,1.269999 h 1.26999 v 1.128888 h -3.52777 c -0.62089,0 -1.12889,-0.564444 -1.12889,-1.269999 V 76.209341 75.193342 h -0.42333 -1.97556 v -1.128888 h 1.07245 0.59266 c 0.70556,0 0.73378,-0.254 0.73378,-0.959555 v -0.310444 -1.552221 c 0,-0.225778 0.11289,-0.479778 0.31045,-0.649111 l 0.81844,-0.790222 0.81844,0.790222 c 0.19756,0.169333 0.31045,0.423333 0.31045,0.649111 v 2.82222 h 2.39888 v 1.128888 h -1.12888 -0.59267 c -0.67733,0 -0.67733,0.310444 -0.67733,1.015999 z"
       id="text2"
       aria-label="Cȣpl Ʃȣld Ȣȝt" />
  </g>
</svg>
