<?xml version="1.0" encoding="UTF-8" standalone="no"?>
<!-- Created with Inkscape (http://www.inkscape.org/) -->

<svg
   width="471.18433"
   height="94.068069"
   viewBox="0 0 124.66752 24.888843"
   version="1.1"
   id="svg1"
   inkscape:version="1.4 (86a8ad7, 2024-10-11)"
   sodipodi:docname="Word Month Kitchen.svg"
   xmlns:inkscape="http://www.inkscape.org/namespaces/inkscape"
   xmlns:sodipodi="http://sodipodi.sourceforge.net/DTD/sodipodi-0.dtd"
   xmlns="http://www.w3.org/2000/svg"
   xmlns:svg="http://www.w3.org/2000/svg">
  <sodipodi:namedview
     id="namedview1"
     pagecolor="#ffffff"
     bordercolor="#000000"
     borderopacity="0.25"
     inkscape:showpageshadow="2"
     inkscape:pageopacity="0.0"
     inkscape:pagecheckerboard="0"
     inkscape:deskcolor="#d1d1d1"
     inkscape:document-units="px"
     inkscape:zoom="2.078763"
     inkscape:cx="226.81758"
     inkscape:cy="90.919453"
     inkscape:window-width="1512"
     inkscape:window-height="1018"
     inkscape:window-x="399"
     inkscape:window-y="0"
     inkscape:window-maximized="0"
     inkscape:current-layer="layer1" />
  <defs
     id="defs1" />
  <g
     inkscape:label="Layer 1"
     inkscape:groupmode="layer"
     id="layer1"
     transform="translate(-74.386934,-65.004272)">
    <text
       xml:space="preserve"
       style="font-size:28.2222px;line-height:1;font-family:'BlockTrain Hand';-inkscape-font-specification:'BlockTrain Hand';text-align:start;writing-mode:lr-tb;direction:ltr;text-anchor:start;display:none;fill:#19919b;fill-opacity:1;stroke:#7c7c7c;stroke-width:0.79375;stroke-dasharray:none;stroke-opacity:1"
       x="136.70659"
       y="88.739998"
       id="text1"><tspan
         sodipodi:role="line"
         id="tspan1"
         style="font-style:normal;font-variant:normal;font-weight:normal;font-stretch:normal;font-size:28.2222px;font-family:'NewEng Rune';-inkscape-font-specification:'NewEng Rune';text-align:center;text-anchor:middle;fill:#19919b;fill-opacity:1;stroke:#7c7c7c;stroke-width:0.79375;stroke-dasharray:none;stroke-opacity:1"
         x="136.70659"
         y="88.739998">monþ kiчen</tspan></text>
    <path
       style="font-size:28.2222px;line-height:1;font-family:'NewEng Rune';-inkscape-font-specification:'NewEng Rune';text-align:center;text-anchor:middle;fill:#19919b;stroke:#7c7c7c;stroke-width:0.79375"
       d="m 90.15408,73.274232 -4.289775,-2.878664 4.289775,-2.850443 z m 0,2.427109 v 13.038657 l 0.254,0.64911 1.834443,-0.64911 V 75.193342 66.162238 l -0.197556,-0.649111 -1.890887,0.649111 -5.333996,3.584219 -6.321773,-4.23333 -1.890887,0.649111 v 9.031104 13.546656 l 0.253999,0.64911 1.806221,-0.64911 V 75.193342 l 5.362218,-3.58422 z M 78.667644,73.782232 v -5.700885 l 4.346219,2.850442 z m 21.815756,-1.382888 3.49956,5.164663 -3.27378,4.938885 -3.47133,-5.24933 z m -5.446882,5.051774 0.254,0.64911 4.515552,6.773328 1.83444,-0.64911 4.51555,-6.773328 -0.19755,-0.649111 -4.51555,-6.773328 -1.89089,0.649111 z m 15.973762,-8.777105 6.97089,6.970884 v 13.095101 l 0.254,0.64911 1.83444,-0.64911 V 75.193342 66.162238 l -0.19755,-0.649111 -1.89089,0.649111 v 6.491106 l -7.14022,-7.140217 -1.89089,0.649111 v 22.57776 l 0.254,0.64911 1.80622,-0.64911 z m 11.85333,-2.511775 v 4.515552 13.546656 4.515552 l 0.254,0.64911 1.80622,-0.64911 v -4.515552 l 6.80155,-6.773328 -0.19755,-0.649111 -6.604,-6.575773 v -4.063996 l -0.16933,-0.649111 z m 2.06022,16.001987 v -8.97466 l 4.48733,4.48733 z m 22.97285,6.575773 v -8.777104 l 4.96711,4.910662 1.83444,-0.64911 -0.19756,-0.649111 -6.37821,-6.349995 6.57577,-6.54755 -0.19756,-0.649111 -1.89088,0.649111 -4.71311,4.713107 v -9.228659 l -0.16933,-0.649111 -1.89089,0.649111 v 11.28888 11.28888 l 0.254,0.64911 z m 9.59555,-22.57776 v 22.57776 l 0.254,0.64911 1.80622,-0.64911 v -22.57776 l -0.16934,-0.649111 z m 13.74422,0 -0.19755,-0.649111 -1.89089,0.649111 v 9.031104 l -4.71311,4.713107 V 70.67779 l -0.16933,-0.649111 -1.89089,0.649111 v 11.28888 l 0.254,0.64911 1.80622,-0.64911 4.71311,-4.713108 v 11.486436 l 0.254,0.64911 1.83444,-0.64911 z m 5.33398,10.639769 6.35,-10.639769 -0.19756,-0.649111 -1.89089,0.649111 -6.77332,11.28888 0.254,0.64911 6.77332,11.28888 1.83445,-0.64911 -0.19756,-0.649111 -6.03955,-9.990659 h 4.40266 l 1.83445,-0.64911 -0.19756,-0.649111 z m 11.20422,-8.127994 6.97089,6.970884 v 13.095101 l 0.254,0.64911 1.83444,-0.64911 V 75.193342 66.162238 l -0.19756,-0.649111 -1.89088,0.649111 v 6.491106 l -7.14022,-7.140217 -1.89089,0.649111 v 22.57776 l 0.254,0.64911 1.80622,-0.64911 z"
       id="text2"
       aria-label="monþ kiчen" />
  </g>
</svg>
