<?xml version="1.0" encoding="UTF-8" standalone="no"?>
<!-- Created with Inkscape (http://www.inkscape.org/) -->

<svg
   width="1100.1472"
   height="105.90039"
   viewBox="0 0 291.08063 28.019479"
   version="1.1"
   id="svg1"
   inkscape:version="1.4 (86a8ad7, 2024-10-11)"
   sodipodi:docname="Word Hangeulic Regular Aether Circle.svg"
   xmlns:inkscape="http://www.inkscape.org/namespaces/inkscape"
   xmlns:sodipodi="http://sodipodi.sourceforge.net/DTD/sodipodi-0.dtd"
   xmlns="http://www.w3.org/2000/svg"
   xmlns:svg="http://www.w3.org/2000/svg">
  <sodipodi:namedview
     id="namedview1"
     pagecolor="#ffffff"
     bordercolor="#000000"
     borderopacity="0.25"
     inkscape:showpageshadow="2"
     inkscape:pageopacity="0.0"
     inkscape:pagecheckerboard="0"
     inkscape:deskcolor="#d1d1d1"
     inkscape:document-units="px"
     inkscape:zoom="1.0393815"
     inkscape:cx="536.85774"
     inkscape:cy="55.321362"
     inkscape:window-width="1920"
     inkscape:window-height="1027"
     inkscape:window-x="-8"
     inkscape:window-y="-8"
     inkscape:window-maximized="1"
     inkscape:current-layer="layer1" />
  <defs
     id="defs1" />
  <g
     inkscape:label="Layer 1"
     inkscape:groupmode="layer"
     id="layer1"
     transform="translate(8.7524921,-64.274002)">
    <text
       xml:space="preserve"
       style="font-style:normal;font-variant:normal;font-weight:normal;font-stretch:normal;font-size:28.2222px;line-height:1;font-family:'NewEng Hangeul';-inkscape-font-specification:'NewEng Hangeul';text-align:start;writing-mode:lr-tb;direction:ltr;text-anchor:start;display:none;fill:#19919b;fill-opacity:1;stroke:#7c7c7c;stroke-width:0.79375;stroke-dasharray:none;stroke-opacity:1"
       x="136.70659"
       y="88.739998"
       id="text1"><tspan
         sodipodi:role="line"
         id="tspan1"
         style="font-style:normal;font-variant:normal;font-weight:normal;font-stretch:normal;font-size:28.2222px;font-family:'NewEng Hangeul';-inkscape-font-specification:'NewEng Hangeul';text-align:center;text-anchor:middle;fill:#19919b;fill-opacity:1;stroke:#7c7c7c;stroke-width:0.79375;stroke-dasharray:none;stroke-opacity:1"
         x="136.70659"
         y="88.739998">Æþer Çircl</tspan></text>
    <path
       style="font-size:28.2222px;line-height:1;font-family:'NewEng Hangeul';-inkscape-font-specification:'NewEng Hangeul';text-align:center;text-anchor:middle;fill:#19919b;stroke:#7c7c7c;stroke-width:0.79375"
       d="m 22.265453,70.790678 c 1.693332,0 3.386664,0 5.108219,0 l 5.39044,-4.543774 -1.185333,-1.41111 h -7.873993 l -1.523999,1.298221 -1.100666,-1.298221 h -7.81755 l -1.523998,1.298221 -1.100666,-1.298221 -5.3904405,4.543774 v 20.940873 l 1.1853324,1.41111 5.3904401,-4.543774 v -5.926662 h 3.866442 v 9.059326 l 1.185332,1.41111 1.523999,-1.298221 1.100666,1.298221 h 7.873994 l 5.39044,-4.543774 -1.185333,-1.41111 h -7.873993 l -1.439333,1.213554 v -5.729106 h 2.229554 l 5.39044,-4.543775 -1.185332,-1.41111 h -5.277551 v 0 h -1.157111 z m -10.442214,5.729107 v -5.729107 c 1.298221,0 2.56822,0 3.866442,0 v 4.515552 h -2.42711 z m 23.763114,-7.95866 v 20.940872 l 0.705555,0.874888 2.82222,-2.370664 v -3.58422 h 15.52221 l 2.031998,-1.693332 v 0.846666 l 0.705555,0.846666 2.82222,-2.342442 V 72.99201 L 59.462334,72.117122 H 41.005015 l -1.890887,1.580443 V 67.065348 L 38.380351,66.19046 Z m 3.527775,6.773328 H 56.668336 V 81.20467 H 41.005015 l -1.890887,1.580444 z m 24.60976,-5.926662 h 1.382888 l -2.088443,1.777998 v 18.316208 l 0.705555,0.874888 h 20.940873 l 2.82222,-2.370664 -0.733778,-0.874889 H 66.546108 v -7.224883 h 12.897546 l 2.793997,-2.370665 -0.705555,-0.874888 H 68.154773 l -1.608665,1.354666 V 69.690013 L 66.32033,69.407791 h 18.344431 l 2.82222,-2.342443 -0.733778,-0.874888 H 65.812331 l -2.793998,2.370665 z m 26.585346,-0.846666 v 20.940872 l 0.705555,0.874888 2.82222,-2.370664 v -8.099772 h 11.627551 l -2.08845,1.749777 0.73378,0.846666 7.84577,7.873993 2.82222,-2.370664 -0.73378,-0.874889 -7.2531,-7.224883 h 2.56822 l 1.89089,-1.608665 v 0.733777 l 0.70555,0.874888 2.82222,-2.370665 V 67.065348 L 114.0441,66.19046 H 95.727897 l -1.890888,1.608665 V 67.065348 L 93.103232,66.19046 Z m 3.527775,0.846666 h 17.413101 v 7.253105 H 95.727897 l -1.890888,1.608666 z m 44.224231,7.281327 v -6.999105 l -0.22578,-0.282222 h 18.34443 l 2.82222,-2.342443 -0.73378,-0.874888 h -20.94087 l -2.794,2.370665 0.70556,0.846666 h 1.38288 l -2.08844,1.777998 v 7.873994 l 0.70556,0.874888 h 15.07065 l -1.35466,1.128888 v 6.067773 h -7.42244 l -2.794,2.370665 0.70555,0.874888 h 10.21644 l 2.82222,-2.370664 v -8.07155 h 3.69711 l 2.82222,-2.370664 -0.73378,-0.874889 z m 24.46867,-7.281327 h 11.65577 l -1.94733,1.636887 v 15.832655 l 0.22578,0.253999 h -7.84578 l -2.79399,2.370665 0.70555,0.874888 h 20.94087 l 2.82222,-2.370664 -0.73377,-0.874889 H 173.7059 l 2.08844,-1.749776 V 69.548902 l -0.11288,-0.141111 h 7.78932 l 2.82222,-2.342443 -0.73377,-0.874888 h -20.94088 l -2.79399,2.370665 z m 26.58534,-0.846666 v 20.940872 l 0.70555,0.874888 2.82222,-2.370664 v -8.099772 h 11.62755 l -2.08844,1.749777 0.73378,0.846666 7.84577,7.873993 2.82222,-2.370664 -0.73378,-0.874889 -7.25311,-7.224883 h 2.56822 l 1.89089,-1.608665 v 0.733777 l 0.70556,0.874888 2.82222,-2.370665 V 67.065348 l -0.73378,-0.874888 h -18.31621 l -1.89089,1.608665 v -0.733777 l -0.73377,-0.874888 z m 3.52777,0.846666 h 17.4131 v 7.253105 h -15.52221 l -1.89089,1.608666 z m 24.46868,0 h 1.38289 l -2.08845,1.777998 v 18.316208 l 0.70556,0.874888 h 20.94087 l 2.82222,-2.370664 -0.73378,-0.874889 H 219.93392 V 69.690013 l -0.22578,-0.282222 h 18.34443 l 2.82222,-2.342443 -0.73378,-0.874888 h -20.94087 l -2.794,2.370665 z m 30.11311,17.723541 V 67.065348 l -0.73378,-0.874888 -2.79399,2.370665 v 20.940872 l 0.70555,0.874888 h 20.94087 l 2.82222,-2.370664 -0.73377,-0.874889 z"
       id="text10"
       aria-label="Æþer Çircl" />
  </g>
</svg>
