<?xml version="1.0" encoding="UTF-8" standalone="no"?>
<!-- Created with Inkscape (http://www.inkscape.org/) -->

<svg
   width="886.49658"
   height="141.02655"
   viewBox="0 0 234.55224 37.313277"
   version="1.1"
   id="svg1"
   inkscape:version="1.4 (86a8ad7, 2024-10-11)"
   sodipodi:docname="Word Hangeulic Regular Stronger Thanks.svg"
   xmlns:inkscape="http://www.inkscape.org/namespaces/inkscape"
   xmlns:sodipodi="http://sodipodi.sourceforge.net/DTD/sodipodi-0.dtd"
   xmlns="http://www.w3.org/2000/svg"
   xmlns:svg="http://www.w3.org/2000/svg">
  <sodipodi:namedview
     id="namedview1"
     pagecolor="#ffffff"
     bordercolor="#000000"
     borderopacity="0.25"
     inkscape:showpageshadow="2"
     inkscape:pageopacity="0.0"
     inkscape:pagecheckerboard="0"
     inkscape:deskcolor="#d1d1d1"
     inkscape:document-units="px"
     inkscape:zoom="1.0393815"
     inkscape:cx="426.69607"
     inkscape:cy="63.018247"
     inkscape:window-width="1920"
     inkscape:window-height="1027"
     inkscape:window-x="-8"
     inkscape:window-y="-8"
     inkscape:window-maximized="1"
     inkscape:current-layer="layer1" />
  <defs
     id="defs1" />
  <g
     inkscape:label="Layer 1"
     inkscape:groupmode="layer"
     id="layer1"
     transform="translate(-19.430458,-54.815149)">
    <text
       xml:space="preserve"
       style="font-size:28.2222px;line-height:1;font-family:'BlockTrain Hand';-inkscape-font-specification:'BlockTrain Hand';text-align:start;writing-mode:lr-tb;direction:ltr;text-anchor:start;display:none;fill:#19919b;fill-opacity:1;stroke:#7c7c7c;stroke-width:0.79375;stroke-dasharray:none;stroke-opacity:1"
       x="136.70659"
       y="88.739998"
       id="text1"><tspan
         sodipodi:role="line"
         id="tspan1"
         style="font-style:normal;font-variant:normal;font-weight:800;font-stretch:normal;font-size:28.2222px;font-family:'NewEng Hangeul';-inkscape-font-specification:'NewEng Hangeul Ultra-Bold';text-align:center;text-anchor:middle;fill:#19919b;fill-opacity:1;stroke:#7c7c7c;stroke-width:0.79375;stroke-dasharray:none;stroke-opacity:1"
         x="136.70659"
         y="88.739998"
         dx="0 -2.8001435">Stróŋg̊er</tspan></text>
    <path
       style="font-weight:800;font-size:28.2222px;line-height:1;font-family:'NewEng Hangeul';-inkscape-font-specification:'NewEng Hangeul Ultra-Bold';text-align:center;text-anchor:middle;fill:#19919b;stroke:#7c7c7c;stroke-width:0.79375"
       d="m 20.984443,70.790678 h 0.282222 l -1.439332,1.213555 v 7.845772 l 1.15711,1.41111 h 19.783763 v 4.515552 H 25.217773 l -5.39044,4.543774 1.15711,1.41111 h 18.34443 l 1.523999,-1.298221 1.072444,1.298221 5.418662,-4.543774 V 76.71734 l -1.185332,-1.41111 h -19.75554 v -4.515552 h 15.52221 l 5.418662,-4.543774 -1.185332,-1.41111 H 25.217773 l -5.39044,4.543774 z m 27.538742,0 h 10.752659 l -1.439333,1.213555 v 18.316208 l 1.157111,1.41111 5.418662,-4.543774 V 70.790678 h 5.051774 l 5.418662,-4.543774 -1.185332,-1.41111 H 52.756515 l -5.39044,4.543774 z m 25.851557,-1.41111 v 20.940873 l 1.15711,1.41111 5.418663,-4.543774 v -5.926662 h 7.95866 l -1.467554,1.213554 1.185332,1.382888 7.845772,7.873994 5.418665,-4.543774 -1.18534,-1.41111 -5.587991,-5.587996 0.282222,-0.225777 1.072444,1.298221 5.418665,-4.543775 V 66.246904 l -1.18534,-1.41111 H 82.389847 l -1.552221,1.298221 -1.072444,-1.298221 z m 6.575773,1.41111 h 14.3651 V 75.30623 H 82.389847 l -1.439332,1.213555 z m 32.257995,-8.240882 c 2.82222,-0.282222 6.99911,-1.608666 8.91822,-2.709331 l 2.59644,-2.17311 -0.53622,-0.64911 c -1.91911,1.100665 -6.09599,2.398887 -8.91821,2.709331 l -2.59645,2.173109 z m -8.49488,14.675544 v 5.249329 c 0,3.753553 0,5.700885 0.84667,6.716884 l 1.18533,1.41111 c 0.93133,1.128888 2.87866,1.128888 6.99911,1.128888 h 5.2211 c 3.75356,0 5.72911,0 6.74511,-0.874888 l 5.39044,-4.515552 c 1.12889,-0.959555 1.12889,-2.906887 1.12889,-6.999106 v -5.249329 c 0,-3.753553 0,-5.700885 -0.84667,-6.745106 l -1.18533,-1.382888 c -0.93133,-1.128888 -2.90689,-1.128888 -6.99911,-1.128888 h -5.24933 c -3.75355,0 -5.70088,0 -6.71688,0.874888 l -5.41866,4.515552 c -1.10067,0.931333 -1.10067,2.906887 -1.10067,6.999106 z m 6.57577,-3.132664 c 0,-1.298221 0,-2.398887 0.0282,-3.301998 0.70555,0 1.524,0 2.42711,0 h 5.2211 c 3.24556,0 5.16467,0 6.29355,0.536222 0,1.15711 0.39511,2.991553 0.39511,5.89844 v 5.249329 c 0,1.298222 0,2.398887 -0.0564,3.301998 -0.70555,0 -1.49578,0 -2.39889,0 h -5.24933 c -3.24555,0 -5.16466,0 -6.26532,-0.564444 0,-1.128888 -0.39512,-2.963331 -0.39512,-5.870218 z m 23.76311,-4.713108 v 20.940873 l 1.15711,1.41111 5.41867,-4.543774 V 73.866898 l 12.92576,7.394217 1.43934,-1.213555 v 5.729107 h -5.08 l -5.39044,4.543774 1.15711,1.41111 h 10.47044 l 5.41866,-4.543774 V 66.246904 l -1.18533,-1.41111 -5.39044,4.543774 v 4.346219 l -12.92577,-7.394216 -1.43933,1.213554 v -1.298221 l -1.18534,-1.41111 z m 31.60889,1.41111 h 0.16934 l -1.43934,1.213555 v 18.316208 l 1.15711,1.41111 h 20.94088 l 5.41866,-4.543774 -1.18533,-1.41111 h -0.254 l 1.43933,-1.213555 V 76.71734 l -1.18533,-1.41111 h -10.47044 l -5.39044,4.543775 1.15711,1.41111 h 9.31333 v 4.515552 h -14.3651 V 70.790678 h 15.52221 l 5.41866,-4.543774 -1.18533,-1.41111 h -20.82799 l -5.41866,4.543774 z m 13.57486,-15.578654 c -0.62089,0 -1.55222,0.112889 -2.42711,0.846666 l -2.59644,2.173109 c -0.11289,0.08467 -0.22578,0.197556 -0.33867,0.338667 l 0.19756,0.225777 -0.67733,0.564444 c -0.0847,0.254 -0.0847,0.310444 -0.0847,0.592666 0,1.100666 0.47978,1.693332 0.62089,1.834443 l 0.53622,0.649111 c 0.56444,0.649111 1.41111,1.044222 2.42711,1.044222 0.11289,0 0.42333,-0.02822 0.42333,-0.02822 0.56445,0 1.60867,-0.112888 2.42711,-0.790221 l 2.59644,-2.17311 c 0.22578,-0.197555 0.42334,-0.423333 0.59267,-0.705555 l -0.36689,-0.451555 0.64911,-0.536222 c 0.0282,-0.141111 0.0282,-0.254 0.0282,-0.395111 0,-0.310444 -0.0847,-0.592666 -0.16933,-0.874888 -0.11289,-0.282222 -0.16933,-0.338666 -0.93133,-1.241777 -0.42333,-0.507999 -1.21356,-1.072443 -2.48356,-1.072443 -0.11288,0 -0.42333,0 -0.42333,0 z m -2.76577,2.878664 c 0.254,-0.02822 0.508,-0.05644 0.70555,-0.05644 0,0 0.31045,0 0.42333,0 1.016,0 1.74978,0.366888 2.20134,0.761999 0.16933,0.282222 0.31044,0.733777 0.31044,1.15711 0,0.112889 -0.0282,0.225778 -0.0282,0.366889 l 0.16933,0.225778 c -0.33867,0.08467 -0.64911,0.08467 -0.87489,0.08467 0,0 -0.31044,0 -0.42333,0 -0.84667,0 -1.58044,-0.254 -2.14489,-0.705555 -0.28222,-0.507999 -0.36689,-1.072443 -0.36689,-1.495776 0,-0.169334 0,-0.254 0.0282,-0.338667 z m 19.41691,12.69999 h 0.28222 l -1.43933,1.213555 v 18.316208 l 1.15711,1.41111 h 20.94087 l 5.41866,-4.543774 -1.18533,-1.41111 h -19.75554 v -4.515552 h 10.3011 l 5.39044,-4.543775 -1.15711,-1.41111 h -13.37732 l -1.15711,0.987777 v -5.503329 h 15.52221 l 5.41866,-4.543774 -1.18533,-1.41111 h -20.94087 l -5.39044,4.543774 z m 29.18177,-1.41111 v 20.940873 l 1.15711,1.41111 5.41866,-4.543774 v -5.926662 h 7.95866 l -1.46755,1.213554 1.18533,1.382888 7.84577,7.873994 5.41866,-4.543774 -1.18533,-1.41111 -5.58799,-5.587996 0.28222,-0.225777 1.07244,1.298221 5.41866,-4.543775 V 66.246904 l -1.18533,-1.41111 h -18.31621 l -1.55222,1.298221 -1.07244,-1.298221 z m 6.57577,1.41111 h 14.3651 v 4.515552 h -12.92577 l -1.43933,1.213555 z"
       id="text2"
       aria-label="Stróŋg̊er" />
  </g>
</svg>
