<?xml version="1.0" encoding="UTF-8" standalone="no"?>
<!-- Created with Inkscape (http://www.inkscape.org/) -->

<svg
   width="1403.4656"
   height="141.65039"
   viewBox="0 0 371.33358 37.478332"
   version="1.1"
   id="svg1"
   inkscape:version="1.4 (86a8ad7, 2024-10-11)"
   sodipodi:docname="Word Hangeulic Chunky Couple Should Ought.svg"
   xmlns:inkscape="http://www.inkscape.org/namespaces/inkscape"
   xmlns:sodipodi="http://sodipodi.sourceforge.net/DTD/sodipodi-0.dtd"
   xmlns="http://www.w3.org/2000/svg"
   xmlns:svg="http://www.w3.org/2000/svg">
  <sodipodi:namedview
     id="namedview1"
     pagecolor="#ffffff"
     bordercolor="#000000"
     borderopacity="0.25"
     inkscape:showpageshadow="2"
     inkscape:pageopacity="0.0"
     inkscape:pagecheckerboard="0"
     inkscape:deskcolor="#d1d1d1"
     inkscape:document-units="px"
     inkscape:zoom="0.70281555"
     inkscape:cx="707.86709"
     inkscape:cy="242.59566"
     inkscape:window-width="1920"
     inkscape:window-height="1027"
     inkscape:window-x="-8"
     inkscape:window-y="-8"
     inkscape:window-maximized="1"
     inkscape:current-layer="layer1" />
  <defs
     id="defs1" />
  <g
     inkscape:label="Layer 1"
     inkscape:groupmode="layer"
     id="layer1"
     transform="translate(48.958116,-54.815149)">
    <text
       xml:space="preserve"
       style="font-style:normal;font-variant:normal;font-weight:normal;font-stretch:normal;font-size:28.2222px;line-height:1;font-family:'Dots n Lines';-inkscape-font-specification:'Dots n Lines';text-align:start;writing-mode:lr-tb;direction:ltr;text-anchor:start;display:none;fill:#19919b;fill-opacity:1;stroke:#7c7c7c;stroke-width:0.79375;stroke-dasharray:none;stroke-opacity:1"
       x="136.70659"
       y="88.739998"
       id="text1"><tspan
         sodipodi:role="line"
         id="tspan1"
         style="font-style:normal;font-variant:normal;font-weight:800;font-stretch:normal;font-size:28.2222px;font-family:'NewEng Hangeul';-inkscape-font-specification:'NewEng Hangeul Ultra-Bold';text-align:center;text-anchor:middle;fill:#19919b;fill-opacity:1;stroke:#7c7c7c;stroke-width:0.79375;stroke-dasharray:none;stroke-opacity:1"
         x="0"
         y="0">Cȣ̂pl Ʃȣld Ȣ̊ȝt</tspan></text>
    <path
       style="font-weight:800;font-size:28.2222px;line-height:1;font-family:'NewEng Hangeul';-inkscape-font-specification:'NewEng Hangeul Ultra-Bold';text-align:center;text-anchor:middle;fill:#19919b;stroke:#7c7c7c;stroke-width:0.79375"
       d="m -47.245854,70.790678 h 0.282222 l -1.439332,1.213555 v 18.316208 l 1.15711,1.41111 h 20.940873 l 5.418662,-4.543774 -1.185332,-1.41111 h -19.75554 V 70.790678 h 15.52221 l 5.418662,-4.543774 -1.185332,-1.41111 h -20.940873 l -5.39044,4.543774 z m 41.401989,3.358442 c -2.7939978,0 -4.402663,-0.338666 -5.362218,-0.338666 -0.169333,-0.733777 -0.197555,-1.523999 -0.282222,-4.063997 v -3.499553 l -1.185332,-1.41111 -5.390441,4.543774 v 3.499553 l 0.02822,1.185333 c 0.08467,1.975554 0.112889,3.104442 0.677333,3.753552 l 1.015999,1.213555 -0.620888,0.508 c -0.761999,0.64911 -0.987777,1.80622 -1.072444,3.781774 -0.02822,0.846666 -0.02822,1.157111 -0.02822,1.185333 v 0 c 0,0.02822 0,0.197555 0.02822,0.959555 0.05645,1.890887 0.225778,3.019775 0.818444,3.72533 l 1.185333,1.41111 c 0.931332,1.128888 2.906886,1.128888 6.9991054,1.128888 h 5.221107 c 3.75355269,0 5.7291067,0 6.7451059,-0.874888 l 5.4186625,-4.515552 c 0.7902216,-0.677333 1.0159992,-1.862665 1.0724436,-3.97933 0.028222,-0.762 0.028222,-0.959555 0.028222,-0.987777 v 0 c 0,-0.02822 0,-0.338667 -0.028222,-1.185333 C 9.367901,78.438895 9.1703456,77.366451 8.6059016,76.689118 L 8.0132354,75.983563 9.4525676,74.798231 v -8.551327 l -1.1853324,-1.41111 -5.3904403,4.543774 v 4.797774 c -0.7337772,0 -1.5239988,-0.02822 -2.45533141,-0.02822 z m -5.64444,7.224884 c 0,-0.338667 0.02822,-1.241777 0.02822,-1.269999 0.705555,0 1.5239989,0 2.4271094,0 h 5.221107 c 3.27377528,0 5.1646627,0.564444 6.2935507,0.564444 0.3386664,0.987777 0.3951108,2.850442 0.3951108,3.838219 0,0.197555 -0.028222,1.241777 -0.028222,1.269999 -0.705555,0 -1.5239988,0 -2.42710921,0 H -4.7996436 c -3.2737752,0 -5.1646627,-0.564444 -6.2935504,-0.564444 -0.310444,-0.903111 -0.395111,-2.56822 -0.395111,-3.838219 z M -1.72344,58.993791 c -0.028222,-0.05644 -0.056444,-0.08467 -0.056444,-0.141111 l -0.5362218,-0.64911 c -3.1326642,1.326443 -6.2653285,2.031998 -6.2653285,2.031998 l -2.5964427,2.201332 0.536222,0.64911 c 0,0 3.0762199,-0.705555 6.1524398,-2.003776 l 0.3668886,0.423333 c 0.987777,1.185333 4.26155225,1.523999 4.26155225,1.523999 L 2.7356677,60.828234 2.1994459,60.179124 c 0,0 -2.68110906,-0.254 -3.9228859,-1.185333 z m 13.998248,10.385777 v 20.940873 l 1.157111,1.41111 5.418662,-4.543774 v -3.33022 h 12.925768 l 1.523999,-1.269999 1.072443,1.269999 5.418663,-4.515552 V 66.246904 l -1.185333,-1.41111 H 20.289913 l -1.552221,1.298221 -1.072443,-1.298221 z m 6.575773,1.41111 h 14.3651 v 7.140217 H 20.289913 l -1.439332,1.213555 z m 23.763118,-1.41111 v 20.940873 l 1.15711,1.41111 h 20.940872 l 5.418663,-4.543774 -1.185332,-1.41111 H 49.189471 V 66.246904 l -1.185332,-1.41111 z m 53.876226,4.007553 12.389545,12.389546 h -9.595547 v -6.434662 l -1.185332,-1.41111 -5.390441,4.543774 v 7.845772 l 1.157111,1.41111 h 20.940869 l 5.41867,-4.543774 -1.18534,-1.41111 h -2.87866 l 1.43933,-1.213555 -1.18533,-1.41111 -12.38955,-12.361324 h 9.62377 v 6.434662 l 1.15711,1.41111 5.41867,-4.543774 v -7.845772 l -1.18534,-1.41111 H 98.098591 l -5.390441,4.543774 1.157111,1.41111 h 2.878664 l -1.439332,1.213555 z m 38.777325,0.761999 c -2.794,0 -4.40267,-0.338666 -5.36222,-0.338666 -0.16934,-0.733777 -0.19756,-1.523999 -0.28222,-4.063997 v -3.499553 l -1.18534,-1.41111 -5.39044,4.543774 v 3.499553 l 0.0282,1.185333 c 0.0847,1.975554 0.11288,3.104442 0.67733,3.753552 l 1.016,1.213555 -0.62089,0.508 c -0.762,0.64911 -0.98778,1.80622 -1.07244,3.781774 -0.0282,0.846666 -0.0282,1.157111 -0.0282,1.185333 v 0 c 0,0.02822 0,0.197555 0.0282,0.959555 0.0564,1.890887 0.22577,3.019775 0.81844,3.72533 l 1.18533,1.41111 c 0.93133,1.128888 2.90689,1.128888 6.99911,1.128888 h 5.2211 c 3.75356,0 5.72911,0 6.74511,-0.874888 l 5.41866,-4.515552 c 0.79022,-0.677333 1.016,-1.862665 1.07245,-3.97933 0.0282,-0.762 0.0282,-0.959555 0.0282,-0.987777 v 0 c 0,-0.02822 0,-0.338667 -0.0282,-1.185333 -0.0565,-1.749776 -0.254,-2.82222 -0.81845,-3.499553 l -0.59266,-0.705555 1.43933,-1.185332 v -8.551327 l -1.18533,-1.41111 -5.39044,4.543774 v 4.797774 c -0.73378,0 -1.524,-0.02822 -2.45534,-0.02822 z m -5.64444,7.224884 c 0,-0.338667 0.0282,-1.241777 0.0282,-1.269999 0.70555,0 1.524,0 2.42711,0 h 5.2211 c 3.27378,0 5.16467,0.564444 6.29355,0.564444 0.33867,0.987777 0.39512,2.850442 0.39512,3.838219 0,0.197555 -0.0282,1.241777 -0.0282,1.269999 -0.70555,0 -1.524,0 -2.42711,0 h -5.2211 c -3.27378,0 -5.16467,-0.564444 -6.29355,-0.564444 -0.31045,-0.903111 -0.39511,-2.56822 -0.39511,-3.838219 z m 23.76311,-11.994436 v 20.940873 l 1.15711,1.41111 h 20.94087 l 5.41866,-4.543774 -1.18533,-1.41111 H 159.96169 V 66.246904 l -1.18533,-1.41111 z m 30.33888,0 v 20.940873 l 1.15711,1.41111 1.55222,-1.298221 1.07244,1.298221 h 15.71977 l 1.524,-1.298221 1.07244,1.298221 5.41866,-4.543774 V 71.468011 l -1.18533,-1.382888 -5.22111,-5.249329 h -13.0951 l -1.55222,1.298221 -1.07244,-1.298221 z m 6.57577,1.41111 h 10.3011 l 4.064,4.035775 V 85.776667 H 191.7399 l -1.43933,1.213554 z m 55.73891,3.358442 c -2.794,0 -4.40267,-0.338666 -5.36222,-0.338666 -0.16933,-0.733777 -0.19756,-1.523999 -0.28222,-4.063997 v -3.499553 l -1.18533,-1.41111 -5.39045,4.543774 v 3.499553 l 0.0282,1.185333 c 0.0847,1.975554 0.11289,3.104442 0.67733,3.753552 l 1.016,1.213555 -0.62089,0.508 c -0.762,0.64911 -0.98778,1.80622 -1.07244,3.781774 -0.0282,0.846666 -0.0282,1.157111 -0.0282,1.185333 v 0 c 0,0.02822 0,0.197555 0.0282,0.959555 0.0564,1.890887 0.22577,3.019775 0.81844,3.72533 l 1.18533,1.41111 c 0.93134,1.128888 2.90689,1.128888 6.99911,1.128888 h 5.22111 c 3.75355,0 5.7291,0 6.7451,-0.874888 l 5.41866,-4.515552 c 0.79023,-0.677333 1.016,-1.862665 1.07245,-3.97933 0.0282,-0.762 0.0282,-0.959555 0.0282,-0.987777 v 0 c 0,-0.02822 0,-0.338667 -0.0282,-1.185333 -0.0564,-1.749776 -0.254,-2.82222 -0.81845,-3.499553 l -0.59266,-0.705555 1.43933,-1.185332 v -8.551327 l -1.18533,-1.41111 -5.39044,4.543774 v 4.797774 c -0.73378,0 -1.524,-0.02822 -2.45533,-0.02822 z m -5.64444,7.224884 c 0,-0.338667 0.0282,-1.241777 0.0282,-1.269999 0.70555,0 1.524,0 2.42711,0 h 5.22111 c 3.27377,0 5.16466,0.564444 6.29355,0.564444 0.33866,0.987777 0.39511,2.850442 0.39511,3.838219 0,0.197555 -0.0282,1.241777 -0.0282,1.269999 -0.70556,0 -1.524,0 -2.42711,0 h -5.22111 c -3.27378,0 -5.16466,-0.564444 -6.29355,-0.564444 -0.31045,-0.903111 -0.39511,-2.56822 -0.39511,-3.838219 z m 8.26907,-26.16198 c -0.62089,0 -1.55222,0.112889 -2.42711,0.846666 l -2.59644,2.173109 c -0.11289,0.08467 -0.22578,0.197556 -0.33867,0.338667 l 0.19755,0.225777 -0.67733,0.564444 c -0.0847,0.254 -0.0847,0.310444 -0.0847,0.592666 0,1.100666 0.47978,1.693332 0.62089,1.834443 l 0.53623,0.649111 c 0.56444,0.649111 1.41111,1.044222 2.4271,1.044222 0.11289,0 0.42334,-0.02822 0.42334,-0.02822 0.56444,0 1.60866,-0.112888 2.42711,-0.790221 l 2.59644,-2.17311 c 0.22578,-0.197555 0.42333,-0.423333 0.59267,-0.705555 l -0.36689,-0.451555 0.64911,-0.536222 c 0.0282,-0.141111 0.0282,-0.254 0.0282,-0.395111 0,-0.310444 -0.0847,-0.592666 -0.16933,-0.874888 -0.11289,-0.282222 -0.16934,-0.338666 -0.93134,-1.241777 -0.42333,-0.507999 -1.21355,-1.072443 -2.48355,-1.072443 -0.11289,0 -0.42333,0 -0.42333,0 z m -2.76578,2.878664 c 0.254,-0.02822 0.508,-0.05644 0.70556,-0.05644 0,0 0.31044,0 0.42333,0 1.016,0 1.74978,0.366888 2.20133,0.761999 0.16933,0.282222 0.31045,0.733777 0.31045,1.15711 0,0.112889 -0.0282,0.225778 -0.0282,0.366889 l 0.16934,0.225778 c -0.33867,0.08467 -0.64911,0.08467 -0.87489,0.08467 0,0 -0.31045,0 -0.42333,0 -0.84667,0 -1.58045,-0.254 -2.14489,-0.705555 -0.28222,-0.507999 -0.36689,-1.072443 -0.36689,-1.495776 0,-0.169334 0,-0.254 0.0282,-0.338667 z m 39.00312,12.69999 v 3.132665 l -1.72155,1.41111 h -7.64822 l -5.39044,4.543774 1.15711,1.41111 h 7.64822 c 4.17688,-3.499553 8.35377,-6.970884 12.53065,-10.470436 v -4.571997 l -1.18533,-1.41111 h -20.74332 l -5.39044,4.543774 1.15711,1.41111 z m -19.58621,20.940873 h 13.6031 c 4.20511,-3.499553 8.382,-6.999106 12.55888,-10.498658 v -4.48733 l -1.18533,-1.41111 h -2.82222 l -5.39044,4.543774 1.15711,1.41111 h 1.63689 v 3.047998 l -1.72156,1.439332 h -13.6031 l -5.39044,4.543774 z m 30.14133,-20.940873 h 10.75266 l -1.43933,1.213555 v 18.316208 l 1.15711,1.41111 5.41866,-4.543774 V 70.790678 h 5.05177 l 5.41866,-4.543774 -1.18533,-1.41111 H 299.6899 l -5.39044,4.543774 z"
       id="text2"
       aria-label="Cȣ̂pl Ʃȣld Ȣ̊ȝt" />
  </g>
</svg>
