<?xml version="1.0" encoding="UTF-8" standalone="no"?>
<!-- Created with Inkscape (http://www.inkscape.org/) -->

<svg
   width="471.18433"
   height="94.068069"
   viewBox="0 0 124.66752 24.888843"
   version="1.1"
   id="svg1"
   inkscape:version="1.4 (86a8ad7, 2024-10-11)"
   sodipodi:docname="Word Clothing.svg"
   xmlns:inkscape="http://www.inkscape.org/namespaces/inkscape"
   xmlns:sodipodi="http://sodipodi.sourceforge.net/DTD/sodipodi-0.dtd"
   xmlns="http://www.w3.org/2000/svg"
   xmlns:svg="http://www.w3.org/2000/svg">
  <sodipodi:namedview
     id="namedview1"
     pagecolor="#ffffff"
     bordercolor="#000000"
     borderopacity="0.25"
     inkscape:showpageshadow="2"
     inkscape:pageopacity="0.0"
     inkscape:pagecheckerboard="0"
     inkscape:deskcolor="#d1d1d1"
     inkscape:document-units="px"
     inkscape:zoom="2.078763"
     inkscape:cx="226.81758"
     inkscape:cy="90.919453"
     inkscape:window-width="1512"
     inkscape:window-height="1018"
     inkscape:window-x="399"
     inkscape:window-y="0"
     inkscape:window-maximized="0"
     inkscape:current-layer="layer1" />
  <defs
     id="defs1" />
  <g
     inkscape:label="Layer 1"
     inkscape:groupmode="layer"
     id="layer1"
     transform="translate(-74.386934,-65.004272)">
    <text
       xml:space="preserve"
       style="font-size:28.2222px;line-height:1;font-family:'BlockTrain Hand';-inkscape-font-specification:'BlockTrain Hand';text-align:start;writing-mode:lr-tb;direction:ltr;text-anchor:start;display:none;fill:#19919b;fill-opacity:1;stroke:#7c7c7c;stroke-width:0.79375;stroke-dasharray:none;stroke-opacity:1"
       x="136.70659"
       y="88.739998"
       id="text1"><tspan
         sodipodi:role="line"
         id="tspan1"
         style="font-style:normal;font-variant:normal;font-weight:normal;font-stretch:normal;font-size:28.2222px;font-family:'NewEng Rune';-inkscape-font-specification:'NewEng Rune';text-align:center;text-anchor:middle;fill:#19919b;fill-opacity:1;stroke:#7c7c7c;stroke-width:0.79375;stroke-dasharray:none;stroke-opacity:1"
         x="136.70659"
         y="88.739998">clōðiŋ</tspan></text>
    <path
       style="font-size:28.2222px;line-height:1;font-family:'NewEng Rune';-inkscape-font-specification:'NewEng Rune';text-align:center;text-anchor:middle;fill:#19919b;stroke:#7c7c7c;stroke-width:0.79375"
       d="m 110.34708,66.162238 -6.77333,11.28888 0.254,0.64911 6.77333,11.28888 1.83444,-0.64911 -0.19755,-0.649111 -6.46289,-10.752658 6.66044,-11.175991 -0.19755,-0.649111 z m 4.88245,22.57776 0.254,0.64911 1.80622,-0.64911 6.80155,-11.28888 -0.19756,-0.649111 -1.89089,0.649111 -4.7131,7.817549 V 66.162238 l -0.16934,-0.649111 -1.89088,0.649111 z m 16.17129,-14.082878 3.49955,5.164663 -3.27377,4.938885 -3.47133,-5.24933 z m -5.44688,5.051774 0.254,0.64911 4.51555,6.773328 1.83444,-0.64911 4.51555,-6.773328 -0.19755,-0.649111 -4.51555,-6.773328 -1.89089,0.649111 z m 2.51177,-10.63977 h 4.51556 l 1.83444,-0.64911 -0.19756,-0.649111 h -4.51555 l -1.89089,0.649111 z m 15.74798,19.670874 6.80155,-11.28888 -0.19756,-0.649111 -6.77333,-11.28888 -1.89088,0.649111 0.254,0.64911 6.46288,10.752659 -4.65666,7.70466 v -7.168439 h 0.45155 l 1.83445,-0.64911 -0.19756,-0.649111 h -2.25778 -2.25777 l -1.89089,0.649111 0.254,0.64911 h 2.00378 v 10.63977 l 0.254,0.64911 z m 9.62375,-22.57776 v 22.57776 l 0.254,0.64911 1.80622,-0.64911 v -22.57776 l -0.16933,-0.649111 z M 167.751,75.644897 V 86.2 l -6.97089,-6.942661 V 68.674013 Z m 2.08844,-0.451555 v -9.031104 l -0.19755,-0.649111 -1.89089,0.649111 v 6.491106 l -7.14022,-7.140217 -1.89089,0.649111 v 13.546656 9.031104 l 0.254,0.64911 1.80622,-0.64911 V 82.22067 l 7.22489,7.168438 1.83444,-0.64911 z"
       id="text2"
       aria-label="clōðiŋ" />
  </g>
</svg>
