<?xml version="1.0" encoding="UTF-8" standalone="no"?>
<!-- Created with Inkscape (http://www.inkscape.org/) -->

<svg
   width="471.18433"
   height="94.068069"
   viewBox="0 0 124.66752 24.888843"
   version="1.1"
   id="svg1"
   inkscape:version="1.4 (86a8ad7, 2024-10-11)"
   sodipodi:docname="Word Psychedelic.svg"
   xmlns:inkscape="http://www.inkscape.org/namespaces/inkscape"
   xmlns:sodipodi="http://sodipodi.sourceforge.net/DTD/sodipodi-0.dtd"
   xmlns="http://www.w3.org/2000/svg"
   xmlns:svg="http://www.w3.org/2000/svg">
  <sodipodi:namedview
     id="namedview1"
     pagecolor="#ffffff"
     bordercolor="#000000"
     borderopacity="0.25"
     inkscape:showpageshadow="2"
     inkscape:pageopacity="0.0"
     inkscape:pagecheckerboard="0"
     inkscape:deskcolor="#d1d1d1"
     inkscape:document-units="px"
     inkscape:zoom="2.078763"
     inkscape:cx="226.81758"
     inkscape:cy="90.919453"
     inkscape:window-width="1512"
     inkscape:window-height="1018"
     inkscape:window-x="399"
     inkscape:window-y="0"
     inkscape:window-maximized="0"
     inkscape:current-layer="layer1" />
  <defs
     id="defs1" />
  <g
     inkscape:label="Layer 1"
     inkscape:groupmode="layer"
     id="layer1"
     transform="translate(-74.386934,-65.004272)">
    <text
       xml:space="preserve"
       style="font-size:28.2222px;line-height:1;font-family:'BlockTrain Hand';-inkscape-font-specification:'BlockTrain Hand';text-align:start;writing-mode:lr-tb;direction:ltr;text-anchor:start;display:none;fill:#19919b;fill-opacity:1;stroke:#7c7c7c;stroke-width:0.79375;stroke-dasharray:none;stroke-opacity:1"
       x="136.70659"
       y="88.739998"
       id="text1"><tspan
         sodipodi:role="line"
         id="tspan1"
         style="font-style:normal;font-variant:normal;font-weight:normal;font-stretch:normal;font-size:28.2222px;font-family:'NewEng Rune';-inkscape-font-specification:'NewEng Rune';text-align:center;text-anchor:middle;fill:#19919b;fill-opacity:1;stroke:#7c7c7c;stroke-width:0.79375;stroke-dasharray:none;stroke-opacity:1"
         x="0"
         y="0">psȳʞedelic</tspan></text>
    <path
       style="font-size:28.2222px;line-height:1;font-family:'NewEng Rune';-inkscape-font-specification:'NewEng Rune';text-align:center;text-anchor:middle;fill:#19919b;stroke:#7c7c7c;stroke-width:0.79375"
       d="m 82.068407,88.739998 0.254,0.64911 1.806221,-0.64911 v -9.031104 l 6.80155,-6.773328 -0.197555,-0.649111 -6.773329,-6.773328 -1.890887,0.649111 z m 6.547551,-15.578655 -4.48733,4.48733 v -8.97466 z m 11.881552,-6.999105 -6.773331,6.773328 0.254,0.64911 6.349991,8.494883 -6.603991,6.660439 0.254,0.64911 1.806221,-0.64911 6.80155,-6.773328 -0.19756,-0.649111 -6.406435,-8.579549 6.603995,-6.575772 -0.19756,-0.649111 z m 10.69621,7.789327 -3.92288,-3.922886 -1.89089,0.649111 0.254,0.64911 4.26155,4.317997 v 13.095101 l 0.254,0.64911 1.83445,-0.64911 V 75.193342 l 4.51555,-4.515552 -0.19756,-0.649111 -1.89088,0.649111 z m -5.55977,-7.140217 h 9.03111 l 1.83444,-0.64911 -0.19756,-0.649111 h -9.0311 l -1.89089,0.649111 z m 20.46108,-0.64911 v 8.748882 l -4.88244,-4.882441 -1.89089,0.649111 0.254,0.64911 6.29355,6.349995 -6.54755,6.547551 0.254,0.64911 1.80622,-0.64911 4.71311,-4.713108 v 9.22866 l 0.254,0.64911 1.83444,-0.64911 v -11.28888 -11.28888 l -0.19755,-0.649111 z m 7.42243,10.639769 6.34999,-10.639769 -0.19755,-0.649111 -1.89089,0.649111 -6.77333,11.28888 0.254,0.64911 6.77333,11.28888 1.83444,-0.64911 -0.19755,-0.649111 -6.03955,-9.990659 h 4.40266 l 1.83444,-0.64911 -0.19755,-0.649111 z m 11.20422,11.937991 6.80155,-11.28888 -0.19756,-0.649111 -6.77333,-11.28888 -1.89088,0.649111 0.25399,0.64911 6.46289,10.752659 -4.65666,7.70466 v -7.817549 l -0.16934,-0.649111 -1.89088,0.649111 v 11.28888 l 0.25399,0.64911 z m 12.10732,-11.937991 6.35,-10.639769 -0.19756,-0.649111 -1.89089,0.649111 -6.77333,11.28888 0.254,0.64911 6.77333,11.28888 1.83445,-0.64911 -0.19756,-0.649111 -6.03955,-9.990659 h 4.40266 l 1.83445,-0.64911 -0.19756,-0.649111 z m 9.144,11.937991 0.254,0.64911 1.80622,-0.64911 6.80155,-11.28888 -0.19755,-0.649111 -1.89089,0.649111 -4.71311,7.817549 V 66.162238 l -0.16933,-0.649111 -1.89089,0.649111 z m 11.65577,-22.57776 v 22.57776 l 0.254,0.64911 1.80622,-0.64911 v -22.57776 l -0.16933,-0.649111 z m 11.65578,0 -6.77333,11.28888 0.254,0.64911 6.77333,11.28888 1.83444,-0.64911 -0.19756,-0.649111 -6.46288,-10.752658 6.66044,-11.175991 -0.19756,-0.649111 z"
       id="text2"
       aria-label="psȳʞedelic" />
  </g>
</svg>
