<?xml version="1.0" encoding="UTF-8" standalone="no"?>
<!-- Created with Inkscape (http://www.inkscape.org/) -->

<svg
   width="563.9812"
   height="84.600487"
   viewBox="0 0 149.22003 22.383878"
   version="1.1"
   id="svg1"
   inkscape:version="1.4 (86a8ad7, 2024-10-11)"
   sodipodi:docname="Word DotsNLines Mechanic.svg"
   xmlns:inkscape="http://www.inkscape.org/namespaces/inkscape"
   xmlns:sodipodi="http://sodipodi.sourceforge.net/DTD/sodipodi-0.dtd"
   xmlns="http://www.w3.org/2000/svg"
   xmlns:svg="http://www.w3.org/2000/svg">
  <sodipodi:namedview
     id="namedview1"
     pagecolor="#ffffff"
     bordercolor="#000000"
     borderopacity="0.25"
     inkscape:showpageshadow="2"
     inkscape:pageopacity="0.0"
     inkscape:pagecheckerboard="0"
     inkscape:deskcolor="#d1d1d1"
     inkscape:document-units="px"
     inkscape:zoom="2.078763"
     inkscape:cx="273.23942"
     inkscape:cy="82.019932"
     inkscape:window-width="1920"
     inkscape:window-height="1027"
     inkscape:window-x="-8"
     inkscape:window-y="-8"
     inkscape:window-maximized="1"
     inkscape:current-layer="layer1" />
  <defs
     id="defs1" />
  <g
     inkscape:label="Layer 1"
     inkscape:groupmode="layer"
     id="layer1"
     transform="translate(-62.113559,-67.232768)">
    <text
       xml:space="preserve"
       style="font-size:28.2222px;line-height:1;font-family:'BlockTrain Hand';-inkscape-font-specification:'BlockTrain Hand';text-align:start;writing-mode:lr-tb;direction:ltr;text-anchor:start;display:none;fill:#19919b;fill-opacity:1;stroke:#7c7c7c;stroke-width:0.79375;stroke-dasharray:none;stroke-opacity:1"
       x="136.70659"
       y="88.739998"
       id="text1"><tspan
         sodipodi:role="line"
         id="tspan1"
         style="font-style:normal;font-variant:normal;font-weight:normal;font-stretch:normal;font-size:28.2222px;font-family:'Dots n Lines';-inkscape-font-specification:'Dots n Lines';text-align:center;text-anchor:middle;fill:#19919b;fill-opacity:1;stroke:#7c7c7c;stroke-width:0.79375;stroke-dasharray:none;stroke-opacity:1"
         x="0"
         y="0">Meʞanic</tspan></text>
    <path
       style="font-size:28.2222px;line-height:1;font-family:'Dots n Lines';-inkscape-font-specification:'Dots n Lines';text-align:center;text-anchor:middle;fill:#19919b;stroke:#7c7c7c;stroke-width:0.79375"
       d="m 62.651534,77.564007 v 5.954884 l -0.02822,5.13644 0.451555,0.169333 c 0.05645,0.02822 0.112889,0.02822 0.169334,0.02822 0.366888,0 2.850442,-0.733778 2.878664,-0.733778 1.185333,-0.366888 1.15711,-0.338666 1.213555,-0.846666 0.08467,-0.39511 0.169333,-9.285103 0.169333,-9.397992 v -0.169333 c 0,-0.338667 -0.08467,-4.854219 -0.08467,-4.910663 0,-0.874889 0.02822,-1.185333 0.112889,-1.269999 0.366889,-0.366889 3.132664,-0.366889 3.160887,-0.366889 0.64911,0 1.919109,0.02822 2.56822,0.02822 0.225777,0 1.044221,-0.02822 1.269999,-0.02822 0.733777,-0.02822 0.818444,-0.141111 2.596442,-0.141111 1.580444,0 1.890888,-0.141111 3.33022,-0.282222 0.02822,0 0,-0.05644 0.02822,-0.05644 0.112889,0 0.395111,0.253999 0.395111,0.818443 0,0.225778 -0.02822,0.423333 -0.02822,0.649111 v 0.169333 c 0,0.423333 -0.02822,0.846666 -0.02822,1.269999 v 0.141111 c 0,0.762 0.02822,1.467555 0.02822,2.229554 v 0.225778 c -0.02822,2.201331 -0.225778,10.583325 -0.225778,10.696214 0,2.116665 0.112889,2.116665 0.479778,2.116665 0.05644,0 1.749776,-0.141111 3.781774,-1.298222 0.225778,-0.141111 0.395111,-0.225777 0.395111,-1.15711 V 78.89045 c 0,-0.90311 -0.02822,-1.890888 -0.02822,-2.793998 v -1.41111 c 0,-0.620888 -0.02822,-1.213555 -0.02822,-1.834443 -0.02822,-0.761999 -0.05644,-1.66511 -0.05644,-2.342443 v -0.64911 c 0,-0.874888 -0.08467,-1.128888 -0.169333,-1.41111 l -0.112889,-0.366889 h -1.213554 c -0.987777,0.05645 -1.975554,0.225778 -2.963331,0.310444 -2.229554,0.141111 -12.671768,0.536222 -12.784657,0.536222 -0.225778,0 -0.395111,-0.02822 -0.423333,-0.05644 -0.02822,-0.02822 -0.112889,-0.310444 -0.112889,-0.451555 -0.02822,-0.254 -0.02822,-0.254 -0.366888,-0.254 h -0.02822 c -0.366888,0 -2.398887,0.846666 -3.584219,1.185332 -0.225778,0.05644 -0.903111,0.620889 -0.903111,1.044222 0,0.08467 0.141111,-0.310445 0.141111,7.168439 z m 12.925768,0.112888 H 75.29508 c -0.564444,0 -0.761999,0.225778 -1.128888,0.254 -0.112889,0 -1.41111,0.395111 -2.201331,1.636888 -0.310445,0.507999 -0.479778,0.818444 -0.508,1.044221 v 0.112889 c 0,1.298221 1.947332,1.326443 1.975554,1.326443 0.423333,0 1.608665,-0.197555 2.257776,-0.705555 0.987777,-0.733777 1.382888,-1.552221 1.439332,-2.031998 v -0.05644 c 0,-0.254 -0.507999,-1.467555 -1.552221,-1.580444 z m 24.299325,-9.510881 h -1.467555 -3.97933 -0.536222 c -1.128888,0 -3.019775,0.310444 -3.922886,0.536222 -0.310444,0.08467 -1.326443,1.269999 -1.467554,1.495776 -0.08467,0.112889 -0.141111,1.044222 -0.141111,1.834443 0,0.08467 0.225777,3.443109 0.225777,7.789328 0,4.289774 -0.197555,7.309549 -0.197555,7.394216 0,0.112889 0,1.382888 1.15711,1.382888 0.141111,0 0.225778,-0.02822 0.366889,-0.02822 0,0 0.197555,0.02822 0.338666,0.02822 0.112889,0 5.418663,-0.112889 9.849544,-0.112889 h 2.17311 c 0.56445,0 0.39511,-0.02822 0.70556,-0.02822 0.62089,0 3.81,0.141111 3.83822,0.141111 0.14111,0 0.36689,-0.338667 0.53622,-0.479778 0.33867,-0.310444 0.79022,-0.564444 1.04422,-0.931332 0.16933,-0.254 0.53622,-0.790222 0.53622,-1.015999 0,-0.05644 0,-0.05644 -0.0564,-0.05644 h -0.0282 l -0.73378,0.02822 -3.49955,-0.141111 c -1.86267,-0.08467 -4.45911,-0.141111 -5.362222,-0.141111 h -2.06022 -0.310445 c -1.072443,0 -1.269999,0.08467 -2.173109,0.08467 -0.790222,0 -1.693332,-0.02822 -1.749777,-0.08467 0,-0.02822 -0.02822,-0.282222 -0.02822,-0.64911 0,-2.596443 0.169333,-4.99533 0.169333,-7.591772 0,-2.793998 -0.197555,-3.640664 -0.197555,-4.261552 0,-0.395111 0.05644,-0.225778 0.05644,-0.508 0,-0.508 -0.112888,-1.044221 -0.112888,-1.354666 0,-0.169333 0.02822,-0.253999 0.141111,-0.310444 0.620888,-0.395111 3.358442,-0.254 5.051774,-0.338666 0.790221,-0.02822 2.003778,-0.08467 3.866448,-0.08467 0.79022,0 1.60866,0.08467 2.39888,0.08467 1.83445,0 1.69333,-0.197556 2.06022,-0.197556 0.0847,0 0.0847,0.02822 0.14111,0.02822 0.31045,0 2.17311,-2.060221 2.17311,-2.314221 0,-0.141111 -0.14111,-0.197555 -1.04422,-0.197555 h -1.32644 -0.70556 z m 1.382883,11.03488 c 0,0.254 0.64912,0.987777 1.07245,1.15711 0.33866,0.141111 1.016,0.395111 1.38289,0.395111 0.56444,0 1.04422,-0.423333 1.55222,-0.705555 0.508,-0.282222 1.016,-0.620888 1.49577,-0.987777 0.39511,-0.338666 1.04422,-0.620888 1.12889,-1.15711 v -0.05644 c 0,-0.762 -1.63689,-1.580444 -2.31422,-1.580444 -1.43933,0 -4.318,2.257776 -4.318,2.935109 z m 26.04908,9.708437 c -0.0282,0 -0.0282,0.02822 -0.0282,0.05644 0,0 0.0282,0.112889 0.28222,0.112889 1.49577,0 3.66888,-1.044221 4.23333,-1.326443 0.16933,-0.112889 0.42333,-0.112889 0.53622,-0.282222 0.11289,-0.169333 0.11289,-0.592666 0.11289,-1.100666 v -1.128888 c 0.11289,-3.189109 0.11289,-4.543774 0.11289,-5.587996 v -1.298221 c 0,-1.044221 -0.0282,-2.116665 -0.0282,-3.160886 0,-0.141111 0.0282,-0.282222 0.0282,-0.423333 0,-0.05644 0.0847,-3.555998 0.0847,-5.418663 l 0.0282,-1.41111 c -0.0847,-0.08467 -0.19756,-0.112889 -0.36689,-0.112889 -0.62089,0 -1.63689,0.620889 -2.82222,0.987777 -0.254,0.112889 -1.016,0.395111 -1.41111,0.790222 -0.33867,0.338666 -0.36689,1.862665 -0.39511,3.33022 -0.0564,2.737553 0,3.076219 -0.508,3.612441 -1.07245,1.072444 -1.32645,1.326444 -2.87867,2.596443 -2.59644,2.088443 -4.48733,3.753552 -7.08377,5.475107 -2.032,1.382887 -1.55222,1.15711 -2.45533,1.665109 -0.79022,0.423333 -2.22956,2.088443 -2.22956,2.314221 0,0.141111 0.42334,0.254 1.32645,0.254 h 0.508 c 1.46755,-0.02822 2.96333,-0.987777 5.05177,-2.568221 l 2.22956,-1.552221 c 0.62088,-0.39511 1.21355,-0.818443 1.83444,-1.213554 0.90311,-0.649111 3.86644,-3.07622 3.92288,-3.07622 0.0847,0 0.11289,0.254 0.11289,1.185332 0,0.649111 -0.0282,1.495777 -0.0282,2.031999 v 0.90311 c 0,1.439332 -0.11289,4.346219 -0.16933,4.346219 z M 117.4026,68.137792 c -0.36689,0 -0.87489,0.05644 -1.24178,0.169333 -0.90311,0.225777 -3.52778,2.003776 -3.52778,3.245553 v 0.02822 c 0.0282,0.536222 0.59267,0.959555 0.95956,1.326443 0.39511,0.395111 0.84666,0.818444 1.89089,0.818444 0.39511,0 0.84666,-0.05644 1.21355,-0.169333 0.47978,-0.141111 3.41489,-1.636888 3.41489,-2.935109 v -0.02822 c -0.0564,-1.15711 -1.38289,-2.455331 -2.70933,-2.455331 z m 29.32287,-0.08467 c -0.0564,0 -0.16933,0.05644 -0.64911,0.310444 -0.47977,0.225778 -0.70555,0.338667 -0.81844,0.338667 -0.14111,0 -0.36689,0.08467 -0.47978,0.225777 -0.14111,0.141111 -0.45155,0.254 -0.73377,0.310444 -0.28223,0.05644 -0.45156,0.141111 -0.45156,0.254 0,0.08467 -0.16933,0.338667 -0.33867,0.592666 -0.16933,0.254 -0.33866,0.536222 -0.33866,0.677333 0,0.254 -0.11289,1.015999 -0.62089,2.82222 -0.22578,0.790222 -0.79022,1.91911 -1.15711,2.82222 -1.016,2.42711 -1.89089,4.854219 -3.07622,7.168439 -0.79022,1.523999 -1.66511,3.019776 -1.91911,3.245553 -0.22578,0.225778 -0.28222,0.451555 -0.31044,0.620889 -0.0282,0.141111 -0.19756,0.39511 -0.36689,0.564444 l -0.254,0.253999 0.254,0.08467 c 0.0564,0.02822 0.0564,0.02822 0.11289,0.02822 0.11288,0 0.39511,0 0.47977,-0.112889 0.14111,-0.141111 0.16934,-0.197555 0.508,-0.197555 0.36689,0 0.42334,-0.141111 0.56445,-0.310444 0.0847,-0.112889 0.39511,-0.366889 0.81844,-0.705555 0.36689,-0.282222 0.79022,-0.790222 1.016,-1.072444 1.18533,-1.580443 1.60867,-2.144887 1.69333,-2.427109 0.0847,-0.366889 0.59267,-1.269999 0.98778,-1.777999 0.254,-0.310444 0.70555,-1.354665 0.70555,-1.608665 0,-0.141111 0.47978,-1.128888 0.62089,-1.298221 0.0847,-0.112889 0.16934,-0.338667 0.22578,-0.508 0.11289,-0.310444 0.33867,-0.987777 0.56444,-1.382888 0.22578,-0.479777 0.45156,-1.15711 0.45156,-1.269999 0,-0.08467 0.0847,-0.225777 0.22578,-0.451555 0.14111,-0.141111 0.16933,-0.169333 0.22577,-0.169333 0.16934,0 0.36689,0.395111 1.27,2.596442 1.07245,2.709332 2.39889,5.390441 3.41489,6.886217 1.46755,2.201332 1.91911,2.765776 2.82222,3.668886 0.508,0.508 0.93133,0.874888 1.04422,0.874888 0.14111,0 0.28222,-0.02822 0.36689,-0.141111 0.11289,-0.169333 0.254,-0.253999 0.62089,-0.253999 0.42333,0 0.53622,0 0.53622,-0.225778 0,-0.141111 0.0282,-0.169333 0.16933,-0.169333 0.11289,0 0.22578,-0.08467 0.254,-0.141111 0.0282,-0.02822 0.0847,-0.05645 0.19756,-0.05645 0.0564,0 0.11289,-0.02822 0.16933,0 0.0565,0.02822 0.0847,0.05645 0.14111,0.05645 0.0565,0 0.0847,-0.02822 0.0847,-0.05645 v -0.08467 -0.05644 c 0,-0.08467 0.14111,-0.197555 0.36689,-0.423333 0.33866,-0.338666 0.39511,-0.366888 0.39511,-0.620888 V 86.79266 c -0.0282,-0.366889 -0.14111,-0.536222 -0.762,-1.185332 -0.39511,-0.395111 -0.93133,-1.016 -1.15711,-1.382888 -0.22578,-0.282222 -0.45156,-0.705555 -0.67733,-0.959555 -0.67734,-0.761999 -3.18911,-5.249329 -3.556,-6.434662 -0.0565,-0.141111 -0.19756,-0.64911 -0.42333,-1.015999 -0.62089,-1.185332 -2.25778,-5.221107 -2.56822,-6.378217 -0.0847,-0.225778 -0.56445,-1.269999 -0.64912,-1.382888 z m -0.31044,15.832654 c -0.0564,-0.05644 -0.16933,-0.02822 -0.22578,0 -0.16933,0.02822 -0.39511,0.169334 -0.62089,0.310445 -0.22577,0.141111 -0.45155,0.423333 -0.70555,0.536221 -0.79022,0.310445 -1.21355,0.762 -1.74978,1.044222 -0.508,0.254 -0.28222,0.112889 -0.508,0.620888 -0.0564,0.08467 -0.0847,0.254 -0.0847,0.366889 0,0.225777 0.0847,0.395111 0.11289,0.620888 0.0282,0.169333 0.19755,0.508 0.28222,0.592666 0.0564,0.05644 0.31044,0.225778 0.62089,0.225778 0.33866,0 0.84666,-0.02822 1.18533,-0.02822 0.11289,0 0.22578,0 0.56444,-0.225778 0.254,-0.141111 0.39511,-0.282222 0.73378,-0.507999 0.33867,-0.225778 0.93133,-0.620889 1.27,-0.931333 0.508,-0.479777 0.59267,-0.592666 0.59267,-0.761999 0,-0.08467 0,-0.112889 -0.0564,-0.282222 -0.0564,-0.282222 -0.47978,-0.846666 -0.762,-1.100666 -0.33867,-0.310444 -0.508,-0.479778 -0.64911,-0.479778 z m 27.82708,-12.530657 c 0,0.620889 0.90311,1.354666 1.69333,1.354666 0.14111,0 0.53622,0.169333 0.95955,0.169333 h 0.28222 c 1.18534,0 1.32645,-0.395111 1.63689,-0.395111 0.22578,0 2.31422,-1.072443 2.37067,-1.80622 v -0.05644 c 0,-0.366888 -0.14111,-1.015999 -0.16934,-1.15711 0,-0.02822 -0.16933,-0.282222 -0.39511,-0.536222 -0.508,-0.620888 -1.07244,-0.818444 -2.06022,-0.846666 h -0.22578 c -1.38288,0 -4.09221,1.693332 -4.09221,3.273775 z m -14.39333,17.215543 c 0.0282,0.02822 0.0847,0.02822 0.19756,0.02822 0.0564,0 2.68111,-0.08467 4.43088,-1.552221 0.11289,-0.08467 0.11289,-0.282222 0.11289,-0.649111 0,-0.254 0.0847,-0.536222 0.11289,-0.790221 0.14111,-2.314221 0.36689,-9.285104 0.36689,-9.369771 v -0.282222 c 0.0565,0 0.22578,0.169333 0.31044,0.310444 0.64912,0.790222 8.24089,9.256882 10.72444,11.571102 l 0.87489,0.790222 c 0.0847,0.08467 0.14111,0.112889 0.28222,0.112889 0.64911,0 2.85044,-1.298221 2.87867,-1.326444 0.62088,-0.366888 1.01599,-0.479777 1.01599,-0.705555 0,-0.112888 -0.11288,-0.282222 -0.25399,-0.423333 -3.16089,-3.273775 -7.05555,-7.478883 -7.112,-7.535327 -3.07622,-3.245553 -5.13644,-5.841996 -5.19288,-5.89844 -0.0282,-0.05644 -2.34245,-3.104442 -2.99156,-4.007552 -0.254,-0.338667 -0.508,-0.620889 -0.62089,-0.649111 -0.0282,0 -0.14111,-0.02822 -0.28222,-0.02822 h -0.16933 c -1.35467,0 -3.83822,1.15711 -4.064,1.326443 -0.36689,0.254 -0.93133,0.846666 -0.93133,0.987777 0,0.05645 0.11289,0.169333 0.14111,0.254 0.22578,0.790222 0.33867,6.660439 0.39511,9.200437 0,0.790222 0.0282,1.580444 0.0282,2.370665 0,4.430886 -0.254,5.729107 -0.254,6.265329 z m 25.14599,0.64911 c 0.64911,0 1.91911,-0.705555 2.25777,-0.818444 0.36689,-0.141111 1.86267,-0.705555 2.42711,-1.015999 0.22578,-0.141111 0.28222,-0.112889 0.28222,-0.423333 0,-0.02822 -0.0564,-1.693332 -0.0564,-2.878664 0,-1.91911 0.11289,-1.495777 0.11289,-2.681109 0,-0.479778 -0.0564,-0.959555 -0.0564,-1.439332 0,-0.141111 0.0847,-7.619995 0.11289,-9.22866 0,0 0.0565,-0.987777 0.0565,-1.495777 v -1.044221 c 0,-0.536222 -0.0565,-0.564444 -0.19756,-0.564444 -0.36689,0 -3.49955,1.269999 -4.318,1.834443 l -0.36688,0.225778 -0.0847,1.326443 c -0.0847,1.241777 -0.16933,13.46199 -0.16933,13.603101 -0.0847,1.072443 -0.0847,1.693332 -0.14111,2.963331 0,0 -0.11289,0.507999 -0.11289,0.931332 0,0.677333 0.16933,0.705555 0.254,0.705555 z m 19.2193,-0.366888 c 0.79022,0 1.778,0.02822 2.65289,0.02822 0.90311,0 1.69333,-0.02822 2.00377,-0.282222 0.62089,-0.508 0.81845,-0.592666 0.98778,-0.762 0.0282,-0.02822 1.07244,-1.439332 1.07244,-1.80622 0,-0.08467 0,-0.112889 -0.11289,-0.112889 -0.0564,0 -5.24932,-0.197556 -6.01132,-0.197556 h -0.64911 c -2.22956,0 -4.572,-0.112888 -6.096,-1.777998 -0.36689,-0.366889 -0.62089,-0.762 -0.62089,-0.874888 0,-0.508 -0.62089,-0.169334 -0.62089,-3.922886 0,-2.201332 0.36689,-3.866442 1.04422,-5.164663 0.39512,-0.733777 1.94734,-2.342443 3.10445,-2.850442 0.62089,-0.254 1.69333,-0.620889 3.86644,-0.620889 2.20133,0 2.99155,0.338667 3.61244,0.338667 0.90311,0 2.08844,-1.523999 2.08844,-1.91911 0,-0.225777 -0.87489,-0.592666 -1.41111,-0.733777 -0.254,-0.08467 -0.79022,-0.112889 -1.43933,-0.112889 -0.98778,0 -2.20133,0.08467 -3.07622,0.225778 -5.44688,0.90311 -9.31333,5.221107 -9.39799,5.305773 -0.16934,0.254 -0.508,0.649111 -0.73378,0.903111 -0.47978,0.507999 -1.016,1.721554 -1.43933,3.07622 -0.36689,1.15711 -0.36689,2.652887 -0.36689,4.571996 0,1.439332 0.0847,1.806221 0.56444,2.991553 0.47978,1.185333 1.24178,1.975554 2.68111,2.765776 1.32645,0.733777 1.58045,0.733777 4.45911,0.846666 1.016,0.05644 2.06022,0.08467 3.10444,0.08467 z"
       id="text2"
       aria-label="Meʞanic" />
  </g>
</svg>
