<?xml version="1.0" encoding="UTF-8" standalone="no"?>
<!-- Created with Inkscape (http://www.inkscape.org/) -->

<svg
   width="804.9201"
   height="152.84059"
   viewBox="0 0 212.96845 40.439075"
   version="1.1"
   id="svg1"
   inkscape:version="1.4 (86a8ad7, 2024-10-11)"
   sodipodi:docname="Word Hangeulic Regular Photograph.svg"
   xmlns:inkscape="http://www.inkscape.org/namespaces/inkscape"
   xmlns:sodipodi="http://sodipodi.sourceforge.net/DTD/sodipodi-0.dtd"
   xmlns="http://www.w3.org/2000/svg"
   xmlns:svg="http://www.w3.org/2000/svg">
  <sodipodi:namedview
     id="namedview1"
     pagecolor="#ffffff"
     bordercolor="#000000"
     borderopacity="0.25"
     inkscape:showpageshadow="2"
     inkscape:pageopacity="0.0"
     inkscape:pagecheckerboard="0"
     inkscape:deskcolor="#d1d1d1"
     inkscape:document-units="px"
     inkscape:zoom="1.0393815"
     inkscape:cx="413.22652"
     inkscape:cy="100.54056"
     inkscape:window-width="1920"
     inkscape:window-height="1027"
     inkscape:window-x="-8"
     inkscape:window-y="-8"
     inkscape:window-maximized="1"
     inkscape:current-layer="layer1" />
  <defs
     id="defs1" />
  <g
     inkscape:label="Layer 1"
     inkscape:groupmode="layer"
     id="layer1"
     transform="translate(-59.778583,-53.092617)">
    <text
       xml:space="preserve"
       style="font-size:28.2222px;line-height:1;font-family:'BlockTrain Hand';-inkscape-font-specification:'BlockTrain Hand';text-align:start;writing-mode:lr-tb;direction:ltr;text-anchor:start;display:none;fill:#19919b;fill-opacity:1;stroke:#7c7c7c;stroke-width:0.79375;stroke-dasharray:none;stroke-opacity:1"
       x="166.26282"
       y="88.739998"
       id="text1"><tspan
         sodipodi:role="line"
         id="tspan1"
         style="font-style:normal;font-variant:normal;font-weight:normal;font-stretch:normal;font-size:28.2222px;font-family:'NewEng Hangeul';-inkscape-font-specification:'NewEng Hangeul';text-align:center;text-anchor:middle;fill:#19919b;fill-opacity:1;stroke:#7c7c7c;stroke-width:0.79375;stroke-dasharray:none;stroke-opacity:1"
         x="0"
         y="0">Φṓtogrâφ</tspan></text>
    <path
       style="font-size:28.2222px;line-height:1;font-family:'NewEng Hangeul';-inkscape-font-specification:'NewEng Hangeul';text-align:center;text-anchor:middle;fill:#19919b;stroke:#7c7c7c;stroke-width:0.79375"
       d="m 70.645894,65.93646 v 5.503329 h -7.676438 l -2.793998,2.342443 v 10.470436 l 0.705555,0.874888 h 9.764881 v 6.999106 l 0.705555,0.846666 2.82222,-2.342443 v -5.503329 h 7.648217 l 2.82222,-2.370665 V 72.286455 l -0.733777,-0.846666 h -9.73666 v -6.999106 l -0.733777,-0.874888 z m 0,8.72066 v 7.253105 H 63.703233 V 74.65712 Z m 3.527775,0 h 6.942662 v 7.253105 H 74.173669 Z M 92.264128,62.634462 h 15.719762 l 2.59645,-2.201331 -0.56445,-0.649111 H 94.324348 l -2.596442,2.201332 z m -4.825997,13.772434 v 5.24933 c 0,3.753552 0,5.700884 0.874888,6.716883 l 0.705555,0.874888 c 0.959555,1.128888 2.906887,1.128888 6.999106,1.128888 h 5.24933 c 3.75355,0 5.70088,0 6.74511,-0.874888 l 2.79399,-2.342442 C 111.935,86.2 111.935,84.252668 111.935,80.160449 V 74.91112 c 0,-3.753553 0,-5.700885 -0.87489,-6.745106 l -0.70555,-0.846666 C 109.395,66.19046 107.44767,66.19046 103.35545,66.19046 h -5.249327 c -3.753553,0 -5.700884,0 -6.745106,0.874888 l -2.793998,2.342443 c -1.128888,0.931332 -1.128888,2.906886 -1.128888,6.999105 z m 3.555998,-1.495776 c 0,-2.483554 0,-4.176886 0.225777,-5.333996 1.128888,0 2.681109,-0.169333 4.797774,-0.169333 h 5.24933 c 3.556,0 5.53155,0 6.57577,0.761999 0,1.100666 0.53622,3.019775 0.53622,6.237106 v 5.24933 c 0,2.483553 0,4.176885 -0.22577,5.333995 -1.12889,0 -2.68111,0.141111 -4.79778,0.141111 h -5.249327 c -3.555997,0 -5.503329,0 -6.575773,-0.733777 0,-1.128888 -0.536221,-3.019775 -0.536221,-6.237106 z m 5.785557,-15.747965 c 2.82222,-0.310444 6.999104,-1.636888 8.918214,-2.709331 l 2.59644,-2.201332 -0.53622,-0.649111 c -1.91911,1.100666 -6.09599,2.42711 -8.918213,2.709332 l -2.596443,2.201331 z M 115.4628,69.407791 h 11.85333 l -2.08844,1.777998 v 18.316208 l 0.70555,0.874888 2.82222,-2.370664 V 69.690013 l -0.22578,-0.282222 h 7.874 l 2.82222,-2.342443 -0.73378,-0.874888 h -20.94087 l -2.794,2.370665 z m 23.25512,6.999105 v 5.24933 c 0,3.753552 0,5.700884 0.84667,6.716883 l 0.73378,0.874888 c 0.93133,1.128888 2.87866,1.128888 6.9991,1.128888 h 5.22111 c 3.75355,0 5.72911,0 6.74511,-0.874888 l 2.79399,-2.342442 c 1.12889,-0.959555 1.12889,-2.906887 1.12889,-6.999106 V 74.91112 c 0,-3.753553 0,-5.700885 -0.84667,-6.745106 l -0.73377,-0.846666 C 160.6748,66.19046 158.69924,66.19046 154.60702,66.19046 h -5.24933 c -3.75355,0 -5.70088,0 -6.71688,0.874888 l -2.82222,2.342443 c -1.10067,0.931332 -1.10067,2.906886 -1.10067,6.999105 z m 3.52778,-1.495776 c 0,-2.483554 0,-4.176886 0.254,-5.333996 1.12889,0 2.65288,-0.169333 4.79777,-0.169333 h 5.22111 c 3.58422,0 5.53155,0 6.57577,0.761999 0,1.100666 0.56445,3.019775 0.56445,6.237106 v 5.24933 c 0,2.483553 0,4.176885 -0.254,5.333995 -1.12889,0 -2.68111,0.141111 -4.79778,0.141111 h -5.24933 c -3.55599,0 -5.50333,0 -6.57577,-0.733777 0,-1.128888 -0.53622,-3.019775 -0.53622,-6.237106 z m 24.58156,-5.503329 h 1.27 l -2.08844,1.777998 v 18.316208 l 0.70555,0.874888 h 20.94087 l 2.82222,-2.370664 -0.73377,-0.874889 h -1.35467 l 2.08844,-1.749776 v -7.845772 l -0.73377,-0.874888 h -10.47044 l -2.794,2.370665 0.70556,0.874888 h 9.76488 v 6.970884 l 0.19755,0.253999 H 169.53659 V 69.690013 l -0.22578,-0.282222 h 18.34443 l 2.82222,-2.342443 -0.73377,-0.874888 H 168.9157 l -2.82222,2.370665 z m 26.47245,-0.846666 v 20.940872 l 0.70556,0.874888 2.82222,-2.370664 v -8.099772 h 11.62754 l -2.08844,1.749777 0.73378,0.846666 7.84577,7.873993 2.82222,-2.370664 -0.73378,-0.874889 -7.2531,-7.224883 h 2.56822 l 1.89088,-1.608665 v 0.733777 l 0.70556,0.874888 2.82222,-2.370665 V 67.065348 l -0.73378,-0.874888 h -18.31621 l -1.89088,1.608665 v -0.733777 l -0.73378,-0.874888 z m 3.52778,0.846666 h 17.41309 v 7.253105 h -15.52221 l -1.89088,1.608666 z m 38.57977,-10.13177 c 0,-0.02822 -0.0282,-0.08467 -0.0282,-0.112889 l -0.53622,-0.649111 c -3.13267,1.326444 -6.26533,2.031999 -6.26533,2.031999 l -2.59645,2.173109 0.53623,0.649111 c 0,0 3.07622,-0.705555 6.15244,-2.003777 l 0.36688,0.423333 c 0.98778,1.185333 4.26156,1.523999 4.26156,1.523999 l 2.59644,-2.173109 -0.53622,-0.649111 c 0,0 -2.70933,-0.282222 -3.95111,-1.213554 z m -11.28888,28.7302 v -8.099772 h 15.52221 l 1.89089,-1.608665 v 11.204213 l 0.70555,0.874888 2.82222,-2.370664 V 67.065348 l -0.73378,-0.874888 h -18.3162 l -1.89089,1.608665 v -0.733777 l -0.73378,-0.874888 -2.794,2.370665 v 20.940872 l 0.70556,0.874888 z m 0,-18.59843 h 17.4131 v 7.253105 h -15.52221 l -1.89089,1.608666 z m 34.23357,-3.471331 v 5.503329 h -7.67644 l -2.794,2.342443 v 10.470436 l 0.70556,0.874888 h 9.76488 v 6.999106 l 0.70555,0.846666 2.82222,-2.342443 v -5.503329 h 7.64822 l 2.82222,-2.370665 V 72.286455 l -0.73378,-0.846666 h -9.73666 v -6.999106 l -0.73377,-0.874888 z m 0,8.72066 v 7.253105 h -6.94266 V 74.65712 Z m 3.52777,0 h 6.94267 v 7.253105 h -6.94267 z"
       id="text2"
       aria-label="Φṓtogrâφ" />
  </g>
</svg>
