<?xml version="1.0" encoding="UTF-8" standalone="no"?>
<!-- Created with Inkscape (http://www.inkscape.org/) -->

<svg
   width="1024.9515"
   height="125.87653"
   viewBox="0 0 271.1851 33.304829"
   version="1.1"
   id="svg1"
   inkscape:version="1.4 (86a8ad7, 2024-10-11)"
   sodipodi:docname="Word Hangeulic Regular Psychedelic.svg"
   xmlns:inkscape="http://www.inkscape.org/namespaces/inkscape"
   xmlns:sodipodi="http://sodipodi.sourceforge.net/DTD/sodipodi-0.dtd"
   xmlns="http://www.w3.org/2000/svg"
   xmlns:svg="http://www.w3.org/2000/svg">
  <sodipodi:namedview
     id="namedview1"
     pagecolor="#ffffff"
     bordercolor="#000000"
     borderopacity="0.25"
     inkscape:showpageshadow="2"
     inkscape:pageopacity="0.0"
     inkscape:pagecheckerboard="0"
     inkscape:deskcolor="#d1d1d1"
     inkscape:document-units="px"
     inkscape:zoom="1.0393815"
     inkscape:cx="507.51336"
     inkscape:cy="117.85855"
     inkscape:window-width="1920"
     inkscape:window-height="1027"
     inkscape:window-x="-8"
     inkscape:window-y="-8"
     inkscape:window-maximized="1"
     inkscape:current-layer="layer1" />
  <defs
     id="defs1" />
  <g
     inkscape:label="Layer 1"
     inkscape:groupmode="layer"
     id="layer1"
     transform="translate(-1.1958056,-57.636369)">
    <text
       xml:space="preserve"
       style="font-size:28.2222px;line-height:1;font-family:'BlockTrain Hand';-inkscape-font-specification:'BlockTrain Hand';text-align:start;writing-mode:lr-tb;direction:ltr;text-anchor:start;display:none;fill:#19919b;fill-opacity:1;stroke:#7c7c7c;stroke-width:0.79375;stroke-dasharray:none;stroke-opacity:1"
       x="136.70659"
       y="88.739998"
       id="text1"><tspan
         sodipodi:role="line"
         id="tspan1"
         style="font-style:normal;font-variant:normal;font-weight:normal;font-stretch:normal;font-size:28.2222px;font-family:'NewEng Hangeul';-inkscape-font-specification:'NewEng Hangeul';text-align:center;text-anchor:middle;fill:#19919b;fill-opacity:1;stroke:#7c7c7c;stroke-width:0.79375;stroke-dasharray:none;stroke-opacity:1"
         x="0"
         y="0">P̀sȳʞėdélic</tspan></text>
    <path
       style="font-size:28.2222px;line-height:1;font-family:'NewEng Hangeul';-inkscape-font-specification:'NewEng Hangeul';text-align:center;text-anchor:middle;fill:#19919b;stroke:#7c7c7c;stroke-width:0.79375"
       d="m 1.5926806,68.561125 v 20.940872 l 0.705555,0.874888 2.82222,-2.370664 V 82.502892 H 20.642666 l 1.890887,-1.580444 v 0.733778 l 0.705555,0.846666 2.82222,-2.342443 V 67.065348 L 25.327551,66.19046 H 7.011343 L 5.1204556,67.799125 V 67.065348 L 4.3866784,66.19046 Z m 3.527775,0.846666 H 22.533553 v 9.87777 H 7.011343 L 5.1204556,80.866004 Z M 19.316247,60.82826 c -0.508,-0.395111 -2.596443,-1.806221 -8.918216,-2.709331 l -2.5964421,2.201332 0.5362218,0.64911 c 6.3217733,0.874888 8.4102153,2.285998 8.9182153,2.709331 l 2.596442,-2.201331 z m 10.272884,8.579531 h 1.382888 l -2.088443,1.777998 v 7.845772 l 0.705555,0.874888 h 20.235318 v 7.224883 H 31.677574 l -2.793998,2.370665 0.705555,0.874888 h 18.34443 l 1.890888,-1.608665 v 0.733777 l 0.705555,0.874888 2.82222,-2.370664 V 77.535784 L 52.618447,76.660896 H 32.411351 v -6.970883 l -0.225778,-0.282222 h 18.344431 l 2.82222,-2.342443 -0.733777,-0.874888 H 31.677574 l -2.793998,2.370665 z m 29.859116,-5.672663 h 15.719765 l 2.596443,-2.201331 -0.536222,-0.649111 H 61.508467 l -2.596442,2.201332 z m 21.335983,3.499553 h -3.668886 l -9.426215,9.426215 h -7.930438 v -9.595548 l -0.733777,-0.874888 -2.793998,2.370665 v 10.470436 l 0.733777,0.874888 h 7.478883 l -8.269105,8.269105 v 1.128888 h 3.668887 L 80.78423,68.363569 Z m 5.36222,22.069761 h 3.668886 l 8.551326,-8.551327 v -0.846666 h 4.289778 l 1.89088,-1.608665 v 11.204213 l 0.70556,0.874888 2.82222,-2.370664 V 67.065348 l -0.73378,-0.874888 -2.794,2.370665 v 8.099771 H 91.932001 l -4.797774,-9.595548 -0.733778,-0.874888 -2.793997,2.370665 5.221107,10.470436 0.733777,0.874888 h 4.882441 l -8.297327,8.269105 z m 25.45646,-19.896651 h 1.38289 l -2.08845,1.777998 v 18.316208 l 0.70556,0.874888 h 20.94087 l 2.82222,-2.370664 -0.73378,-0.874889 h -20.20709 v -7.224883 h 12.89754 l 2.794,-2.370665 -0.70555,-0.874888 h -13.37733 l -1.60866,1.354666 v -8.325549 l -0.22578,-0.282222 h 18.34443 l 2.82222,-2.342443 -0.73378,-0.874888 h -20.94087 l -2.794,2.370665 z m 8.74888,-5.729089 h 3.556 l 2.59644,-2.201331 -0.53622,-0.649111 h -3.556 l -2.59644,2.201332 z m 17.83646,4.882423 v 20.940872 l 0.70555,0.874888 2.82222,-2.370664 v -18.59843 h 12.89755 l 4.51555,4.515552 v 11.175991 l 0.70555,0.874888 2.82222,-2.370665 V 72.286455 l -0.73377,-0.846666 -5.22111,-5.249329 h -13.0951 l -1.89089,1.608665 v -0.733777 l -0.73378,-0.874888 z m 3.33022,21.81576 h 13.0951 c 1.43933,-1.241776 2.90688,-2.455331 4.34622,-3.668886 l -0.70556,-0.874888 -1.55222,1.298221 h -13.0951 l -2.82222,2.370665 z m 30.62111,-26.698201 c 2.82222,-0.282222 6.9991,-1.608666 8.91821,-2.709331 l 2.59645,-2.17311 -0.53622,-0.64911 c -1.91911,1.100665 -6.096,2.398887 -8.94644,2.709331 l -2.56822,2.173109 z m -5.95489,5.729107 h 1.38289 l -2.08844,1.777998 v 18.316208 l 0.70555,0.874888 h 20.94088 l 2.82222,-2.370664 -0.73378,-0.874889 h -20.2071 v -7.224883 h 12.89755 l 2.794,-2.370665 -0.70556,-0.874888 h -13.37732 l -1.60867,1.354666 v -8.325549 l -0.22577,-0.282222 h 18.34443 l 2.82222,-2.342443 -0.73378,-0.874888 h -20.94087 l -2.794,2.370665 z m 30.11312,17.723541 V 67.065348 l -0.73378,-0.874888 -2.794,2.370665 v 20.940872 l 0.70556,0.874888 h 20.94087 l 2.82222,-2.370664 -0.73378,-0.874889 z m 24.46867,-17.723541 h 11.65577 l -1.94733,1.636887 v 15.832655 l 0.22578,0.253999 h -7.84578 l -2.79399,2.370665 0.70555,0.874888 h 20.94087 l 2.82222,-2.370664 -0.73377,-0.874889 h -11.85333 l 2.08845,-1.749776 V 69.548902 l -0.11289,-0.141111 h 7.78932 l 2.82222,-2.342443 -0.73377,-0.874888 h -20.94088 l -2.79399,2.370665 z m 27.2909,0 h 1.38288 l -2.08844,1.777998 v 18.316208 l 0.70556,0.874888 h 20.94087 l 2.82222,-2.370664 -0.73378,-0.874889 H 250.8796 V 69.690013 l -0.22578,-0.282222 h 18.34443 l 2.82222,-2.342443 -0.73378,-0.874888 h -20.94087 l -2.794,2.370665 z"
       id="text2"
       aria-label="P̀sȳʞėdélic" />
  </g>
</svg>
