<?xml version="1.0" encoding="UTF-8" standalone="no"?>
<!-- Created with Inkscape (http://www.inkscape.org/) -->

<svg
   width="704.65295"
   height="85.773285"
   viewBox="0 0 186.43943 22.694181"
   version="1.1"
   id="svg1"
   inkscape:version="1.4 (86a8ad7, 2024-10-11)"
   sodipodi:docname="Word DotsNLines Photograph.svg"
   xmlns:inkscape="http://www.inkscape.org/namespaces/inkscape"
   xmlns:sodipodi="http://sodipodi.sourceforge.net/DTD/sodipodi-0.dtd"
   xmlns="http://www.w3.org/2000/svg"
   xmlns:svg="http://www.w3.org/2000/svg">
  <sodipodi:namedview
     id="namedview1"
     pagecolor="#ffffff"
     bordercolor="#000000"
     borderopacity="0.25"
     inkscape:showpageshadow="2"
     inkscape:pageopacity="0.0"
     inkscape:pagecheckerboard="0"
     inkscape:deskcolor="#d1d1d1"
     inkscape:document-units="px"
     inkscape:zoom="1.4699074"
     inkscape:cx="345.6"
     inkscape:cy="60.207874"
     inkscape:window-width="1920"
     inkscape:window-height="1027"
     inkscape:window-x="-8"
     inkscape:window-y="-8"
     inkscape:window-maximized="1"
     inkscape:current-layer="layer1" />
  <defs
     id="defs1" />
  <g
     inkscape:label="Layer 1"
     inkscape:groupmode="layer"
     id="layer1"
     transform="translate(-73.057233,-67.007136)">
    <text
       xml:space="preserve"
       style="font-size:28.2222px;line-height:1;font-family:'BlockTrain Hand';-inkscape-font-specification:'BlockTrain Hand';text-align:start;writing-mode:lr-tb;direction:ltr;text-anchor:start;display:none;fill:#19919b;fill-opacity:1;stroke:#7c7c7c;stroke-width:0.79375;stroke-dasharray:none;stroke-opacity:1"
       x="166.26282"
       y="88.739998"
       id="text1"><tspan
         sodipodi:role="line"
         id="tspan1"
         style="font-style:normal;font-variant:normal;font-weight:normal;font-stretch:normal;font-size:28.2222px;font-family:'Dots n Lines';-inkscape-font-specification:'Dots n Lines';text-align:center;text-anchor:middle;fill:#19919b;fill-opacity:1;stroke:#7c7c7c;stroke-width:0.79375;stroke-dasharray:none;stroke-opacity:1"
         x="0"
         y="0">φotograφ</tspan></text>
    <path
       style="font-size:28.2222px;line-height:1;font-family:'Dots n Lines';-inkscape-font-specification:'Dots n Lines';text-align:center;text-anchor:middle;fill:#19919b;stroke:#7c7c7c;stroke-width:0.79375"
       d="m 87.08543,69.210235 v -0.02822 c -0.05644,-0.677333 -1.128888,-1.495777 -2.116665,-1.495777 -0.90311,0 -1.749776,0.705555 -1.777998,0.705555 -0.677333,0.620889 -1.636888,1.241777 -1.636888,2.144888 0,0.338666 0.282222,0.64911 0.564444,0.818443 0.254,0.169334 1.41111,0.338667 1.439332,0.338667 h 0.112889 c 1.269999,-0.08467 3.414886,-1.749777 3.414886,-2.483554 z m -4.797774,3.612442 c -2.088443,0.112889 -2.709331,-0.141111 -5.559773,1.298221 -1.072444,0.536222 -2.652887,2.370665 -2.878665,2.991553 -0.253999,0.649111 -0.39511,2.031999 -0.39511,3.217331 0,1.044222 0.141111,1.947332 0.366888,2.201332 0.620889,0.790221 1.382888,1.044221 2.624665,1.41111 0.677333,0.225777 4.23333,0.310444 4.289774,0.310444 0.733777,0 1.072444,-0.02822 1.721554,-0.02822 H 82.5981 c 1.016,0 2.003777,0.05644 3.019776,0.05644 h 0.366888 c 0.05644,0 1.806221,-0.08467 2.060221,-0.112889 0.931333,-0.141111 2.511776,-0.366888 2.850442,-0.592666 0.479778,-0.338666 0.536222,0.05645 2.060221,-1.269999 0.310444,-0.141111 1.015999,-1.213554 1.241777,-1.862665 0.05644,-0.141111 0.08467,-0.620888 0.08467,-1.15711 0,-2.42711 -0.08467,-3.922886 -0.423333,-4.571997 C 92.870981,72.99201 90.330983,72.73801 89.089207,72.73801 h -3.951109 c 0,0 -1.919109,0.02822 -2.850442,0.08467 z m 7.196661,8.918215 -1.269999,0.112889 c -0.366888,0.02822 -0.846666,0.02822 -1.326443,0.02822 -0.564444,0 -1.15711,-0.02822 -1.552221,-0.02822 h -1.947332 c -0.790222,0.02822 -1.749776,0.05644 -2.31422,0.05644 -0.366889,0 -1.608666,-0.112888 -1.890888,-0.197555 -0.479777,-0.141111 -0.90311,-0.225778 -1.15711,-0.649111 -0.366889,-0.64911 -0.536222,-1.947331 -0.536222,-3.076219 0,-2.116666 0.508,-2.342443 1.128888,-2.568221 1.185333,-0.479777 5.785551,-0.507999 5.841996,-0.507999 h 0.64911 c 2.737554,0.05644 3.922886,0.282222 4.261553,0.64911 0.677332,0.818444 0.733777,2.652887 0.733777,3.301998 0,2.201331 -0.197556,2.370665 -0.620889,2.878664 z m -8.156216,6.349995 v 0.02822 c 0,0.310445 0.169334,0.649111 0.395111,0.874889 0.254,0.225777 1.41111,0.253999 1.439332,0.253999 0.169334,0 0.423333,0.02822 0.592667,-0.02822 0.282222,-0.08467 0.536221,-0.310444 0.790221,-0.451555 l 0.423333,-0.310444 c 0.02822,0 1.41111,-0.987777 1.580443,-1.354666 0.112889,-0.225777 0.225778,-0.451555 0.225778,-0.677333 0,-0.02822 -0.02822,-0.959554 -1.580443,-1.128888 -0.05644,0 -0.169333,-0.02822 -0.225778,-0.02822 -1.608665,0 -3.584219,2.17311 -3.640664,2.82222 z M 106.30475,67.629792 c 0,0.08467 -0.45155,0.338666 -1.016,0.564444 -3.24555,1.354666 -5.475104,2.624665 -7.111991,6.80155 -0.508,1.269999 -0.733778,2.652887 -0.790222,4.007553 0,0.254 -0.02822,0.507999 -0.02822,0.761999 0,1.015999 0.08467,2.031999 0.423333,2.935109 2.25777,6.180662 7.81755,6.519328 9.0311,6.519328 0.90311,0 1.80622,-0.112889 2.70933,-0.254 2.08845,-0.310444 5.08,-2.06022 5.13644,-2.088442 0.81845,-0.564444 1.60867,-1.241777 2.22956,-2.031999 1.83444,-2.31422 1.91911,-6.519328 1.91911,-6.603995 0,-1.41111 -0.39511,-3.330219 -1.04422,-4.402663 -1.38289,-2.455331 -5.39044,-5.531551 -8.128,-5.531551 h -0.22578 c 0.62089,-0.620889 0.62089,-0.592666 0.62089,-0.677333 v -0.08467 c -0.0847,-0.08467 -0.56444,-0.141111 -1.18533,-0.141111 h -0.254 c -0.98778,0 -2.286,0.08467 -2.286,0.225778 z m 2.54,3.499553 c 0.98778,0.423333 2.90689,1.834443 3.38666,2.455331 2.06022,2.56822 2.17311,4.007553 2.22956,6.208884 v 0.141111 c 0,2.878665 -1.69333,5.616218 -1.72156,5.672663 -0.508,0.620888 -2.85044,0.64911 -3.01977,0.64911 -3.18911,0 -4.826,-1.41111 -5.36222,-2.031998 -2.20133,-2.370665 -2.22955,-6.462884 -2.22955,-6.547551 0,-4.120441 2.06022,-6.54755 2.22955,-6.773328 0,0 0.56444,-0.282222 1.49578,-0.282222 1.10066,0 2.54,0.310444 2.99155,0.508 z m 24.83555,-3.189109 c -0.67733,0 -1.49577,0.05644 -2.39888,0.05644 -3.64067,0.02822 -7.30955,0.02822 -8.21266,0.02822 -0.47978,0 -0.59267,0 -0.84667,0.112889 -0.254,0.112888 -0.36689,0.310444 -0.87489,0.846666 -0.36689,0.366888 -0.95955,0.959554 -1.18533,1.269999 l -0.39511,0.507999 0.64911,0.338667 c 1.07244,0.423333 4.00755,0.507999 5.64444,0.507999 3.47133,0 10.10355,-0.05644 11.00666,-0.112889 1.63689,-0.08467 2.39889,-0.338666 2.90689,-0.592666 0.36688,-0.225777 2.17311,-1.298221 2.17311,-1.975554 v -0.05644 c 0,-0.762 -2.39889,-0.931333 -8.46667,-0.931333 z m -3.55599,21.081984 c 0.90311,0 2.31422,-0.959555 2.70933,-1.269999 0.47978,-0.338667 0.87489,-0.536222 1.18533,-1.185333 0.0847,-0.169333 0.14111,-0.253999 0.14111,-0.423333 0,-0.225777 -0.0282,-0.479777 -0.11289,-0.846666 -0.0564,-0.225777 -0.64911,-1.015999 -0.87488,-1.185332 -0.39512,-0.338666 -0.79023,-0.366889 -1.21356,-0.451555 h -0.53622 c -0.87489,0.02822 -0.90311,0.197555 -1.32644,0.423333 -1.60867,0.874888 -2.56822,1.382888 -2.93511,2.285998 -0.0847,0.225778 -0.16934,0.366889 -0.16934,0.620888 0,1.580444 2.62467,2.031999 3.13267,2.031999 z M 150.9523,67.629792 c 0,0.08467 -0.45156,0.338666 -1.016,0.564444 -3.24556,1.354666 -5.47511,2.624665 -7.112,6.80155 -0.508,1.269999 -0.73378,2.652887 -0.79022,4.007553 0,0.254 -0.0282,0.507999 -0.0282,0.761999 0,1.015999 0.0847,2.031999 0.42333,2.935109 2.25778,6.180662 7.81755,6.519328 9.0311,6.519328 0.90312,0 1.80623,-0.112889 2.70934,-0.254 2.08844,-0.310444 5.07999,-2.06022 5.13644,-2.088442 0.81844,-0.564444 1.60866,-1.241777 2.22955,-2.031999 1.83444,-2.31422 1.91911,-6.519328 1.91911,-6.603995 0,-1.41111 -0.39511,-3.330219 -1.04422,-4.402663 -1.38289,-2.455331 -5.39044,-5.531551 -8.128,-5.531551 h -0.22577 c 0.62089,-0.620889 0.62089,-0.592666 0.62089,-0.677333 v -0.08467 c -0.0847,-0.08467 -0.56445,-0.141111 -1.18534,-0.141111 h -0.254 c -0.98777,0 -2.28599,0.08467 -2.28599,0.225778 z m 2.53999,3.499553 c 0.98778,0.423333 2.90689,1.834443 3.38667,2.455331 2.06022,2.56822 2.17311,4.007553 2.22955,6.208884 v 0.141111 c 0,2.878665 -1.69333,5.616218 -1.72155,5.672663 -0.508,0.620888 -2.85045,0.64911 -3.01978,0.64911 -3.18911,0 -4.82599,-1.41111 -5.36222,-2.031998 -2.20133,-2.370665 -2.22955,-6.462884 -2.22955,-6.547551 0,-4.120441 2.06022,-6.54755 2.22955,-6.773328 0,0 0.56445,-0.282222 1.49578,-0.282222 1.10067,0 2.54,0.310444 2.99155,0.508 z m 25.90799,-2.935109 c -3.72534,0 -6.604,2.088443 -8.80533,4.120441 -2.45533,2.314221 -2.45533,2.82222 -3.10444,4.515552 -0.53623,1.439333 -0.98778,2.991554 -0.98778,4.543775 0,3.189108 2.08844,5.362218 3.27377,6.29355 1.41111,1.15711 8.24089,1.213555 8.26911,1.213555 2.22955,0 5.10822,-0.451555 5.24933,-0.508 1.58044,-0.507999 3.89466,-3.330219 3.89466,-3.668886 0,-0.282222 -1.18533,-1.100666 -1.49577,-1.100666 -0.62089,0 -1.04423,2.060221 -6.88622,2.060221 -1.41111,0 -4.65666,-0.169333 -6.12422,-1.777999 -0.73378,-0.90311 -1.38289,-1.552221 -1.89089,-3.132664 -0.0564,-0.225777 -0.14111,-0.733777 -0.14111,-1.467554 0,-1.721554 0.11289,-2.370665 1.016,-4.289775 0.79022,-1.636887 1.29822,-2.031998 1.94733,-2.652887 1.524,-1.41111 3.13267,-1.41111 4.54378,-1.41111 0.22578,0 2.76577,0.05645 2.794,0.05645 0.0282,0 2.99155,0 3.30199,-0.225778 0.33867,-0.225777 1.524,-1.806221 1.524,-2.173109 0,-0.366889 -0.98777,-0.395111 -4.31799,-0.395111 z m 5.55977,8.21266 c -0.56445,0 -2.00378,0.677333 -2.62467,0.987777 -1.35466,0.790222 -1.83444,1.044222 -1.83444,1.806221 0,0.08467 0.22578,1.66511 2.00378,1.66511 1.55222,0 2.70933,-1.072444 2.76577,-1.128888 0.36689,-0.366889 0.90311,-0.536222 1.524,-1.185332 l 0.67733,-0.705555 -0.36688,-0.395111 c -0.16934,-0.225778 -1.04423,-1.100666 -1.60867,-1.100666 -0.14111,0 -0.31044,0.02822 -0.53622,0.05644 z m 7.08375,-4.741329 c 0.31045,0 0.56445,-0.197556 0.98778,-0.366889 1.66511,-0.620888 5.39044,-0.818444 6.68866,-0.818444 1.778,0 4.37444,0.282222 5.55977,1.467555 1.18534,1.185332 1.35467,3.076219 1.35467,4.007552 0,1.495777 -0.508,2.229554 -2.42711,2.737554 -2.96333,0.790221 -3.33022,0.874888 -6.37822,1.128888 -4.23333,0.310444 -3.89466,0.282222 -4.93888,0.790221 -1.66511,0.818444 -2.11667,1.015999 -2.20133,1.41111 -0.0282,0.08467 -0.0282,0.310444 -0.0282,0.592666 0,2.370665 0.14112,3.697109 0.14112,5.221107 v 0.225778 l -0.0282,0.761999 0.42334,0.141111 c 0.36688,0.141111 0.53622,0.338667 0.81844,0.338667 h 0.0564 c 0.508,0 0.95956,-0.310444 1.43934,-0.479778 1.80622,-0.761999 1.83444,-1.072443 1.83444,-1.693332 0,-0.02822 0,-0.02822 0,-0.05644 v -0.90311 c -0.0847,-2.060221 -0.31044,-2.850443 -0.31044,-3.414887 0,-0.310444 0.0847,-0.253999 0.19755,-0.310444 0.62089,-0.225777 1.27,-0.05644 3.302,-0.451555 0.62089,-0.141111 1.524,-0.282222 1.94733,-0.366889 1.18533,-0.225777 1.10067,-0.338666 2.39889,-0.64911 1.55222,-0.338667 4.37444,-1.41111 5.24933,-2.031999 2.22955,-1.495776 2.59644,-2.483553 2.59644,-4.007552 0,-1.777999 -0.22578,-2.455332 -0.28222,-2.596443 -0.762,-1.862665 -2.11667,-2.681109 -3.89467,-3.584219 -0.762,-0.310444 -2.79399,-0.846666 -4.31799,-0.846666 -3.24556,0 -6.77333,0.649111 -7.93044,1.015999 -2.59644,0.874888 -3.75355,1.749777 -3.75355,2.003776 0,0.08467 0.98777,0.733778 1.49577,0.733778 z m 12.55888,14.1111 c -0.64911,0.564444 -0.73378,0.705555 -0.73378,1.044221 0,0.508 0.39511,0.762 0.56445,1.128888 0.14111,0.338667 1.89089,1.015999 2.39888,1.015999 0.42334,0 1.86267,-0.338666 2.11667,-0.479777 0.87489,-0.423333 1.91911,-1.552221 1.91911,-1.947332 0,-0.254 -0.64911,-1.213554 -1.15711,-1.636887 -0.508,-0.423333 -1.32644,-0.677333 -1.69333,-0.677333 h -0.0282 c -1.74978,0.141111 -3.35845,1.523999 -3.38667,1.552221 z m 20.85621,-17.723542 c -0.0564,0 -0.16933,0.05644 -0.64911,0.310444 -0.47978,0.225778 -0.70555,0.338667 -0.81844,0.338667 -0.14111,0 -0.36689,0.08467 -0.47978,0.225777 -0.14111,0.141111 -0.45155,0.254 -0.73378,0.310444 -0.28222,0.05644 -0.45155,0.141111 -0.45155,0.254 0,0.08467 -0.16933,0.338667 -0.33867,0.592666 -0.16933,0.254 -0.33866,0.536222 -0.33866,0.677333 0,0.254 -0.11289,1.015999 -0.62089,2.82222 -0.22578,0.790222 -0.79022,1.91911 -1.15711,2.82222 -1.016,2.42711 -1.89089,4.854219 -3.07622,7.168439 -0.79022,1.523999 -1.66511,3.019776 -1.91911,3.245553 -0.22578,0.225778 -0.28222,0.451555 -0.31045,0.620889 -0.0282,0.141111 -0.19755,0.39511 -0.36689,0.564444 l -0.25399,0.253999 0.25399,0.08467 c 0.0565,0.02822 0.0565,0.02822 0.11289,0.02822 0.11289,0 0.39511,0 0.47978,-0.112889 0.14111,-0.141111 0.16933,-0.197555 0.508,-0.197555 0.36689,0 0.42333,-0.141111 0.56444,-0.310444 0.0847,-0.112889 0.39512,-0.366889 0.81845,-0.705555 0.36689,-0.282222 0.79022,-0.790222 1.016,-1.072444 1.18533,-1.580443 1.60866,-2.144887 1.69333,-2.427109 0.0847,-0.366889 0.59267,-1.269999 0.98778,-1.777999 0.254,-0.310444 0.70555,-1.354665 0.70555,-1.608665 0,-0.141111 0.47978,-1.128888 0.62089,-1.298221 0.0847,-0.112889 0.16933,-0.338667 0.22578,-0.508 0.11289,-0.310444 0.33866,-0.987777 0.56444,-1.382888 0.22578,-0.479777 0.45156,-1.15711 0.45156,-1.269999 0,-0.08467 0.0847,-0.225777 0.22577,-0.451555 0.14112,-0.141111 0.16934,-0.169333 0.22578,-0.169333 0.16934,0 0.36689,0.395111 1.27,2.596442 1.07244,2.709332 2.39889,5.390441 3.41489,6.886217 1.46755,2.201332 1.91911,2.765776 2.82222,3.668886 0.508,0.508 0.93133,0.874888 1.04422,0.874888 0.14111,0 0.28222,-0.02822 0.36689,-0.141111 0.11289,-0.169333 0.254,-0.253999 0.62089,-0.253999 0.42333,0 0.53622,0 0.53622,-0.225778 0,-0.141111 0.0282,-0.169333 0.16933,-0.169333 0.11289,0 0.22578,-0.08467 0.254,-0.141111 0.0282,-0.02822 0.0847,-0.05645 0.19756,-0.05645 0.0564,0 0.11288,-0.02822 0.16933,0 0.0564,0.02822 0.0847,0.05645 0.14111,0.05645 0.0564,0 0.0847,-0.02822 0.0847,-0.05645 v -0.08467 -0.05644 c 0,-0.08467 0.14111,-0.197555 0.36689,-0.423333 0.33866,-0.338666 0.39511,-0.366888 0.39511,-0.620888 v -0.141111 c -0.0282,-0.366889 -0.14111,-0.536222 -0.762,-1.185332 -0.39511,-0.395111 -0.93134,-1.016 -1.15711,-1.382888 -0.22578,-0.282222 -0.45156,-0.705555 -0.67734,-0.959555 -0.67733,-0.761999 -3.1891,-5.249329 -3.55599,-6.434662 -0.0564,-0.141111 -0.19756,-0.64911 -0.42334,-1.015999 -0.62088,-1.185332 -2.25777,-5.221107 -2.56822,-6.378217 -0.0847,-0.225778 -0.56444,-1.269999 -0.64911,-1.382888 z m -0.31044,15.832654 c -0.0564,-0.05644 -0.16933,-0.02822 -0.22578,0 -0.16933,0.02822 -0.39511,0.169334 -0.62089,0.310445 -0.22577,0.141111 -0.45155,0.423333 -0.70555,0.536221 -0.79022,0.310445 -1.21356,0.762 -1.74978,1.044222 -0.508,0.254 -0.28222,0.112889 -0.508,0.620888 -0.0564,0.08467 -0.0847,0.254 -0.0847,0.366889 0,0.225777 0.0847,0.395111 0.11289,0.620888 0.0282,0.169333 0.19756,0.508 0.28223,0.592666 0.0564,0.05644 0.31044,0.225778 0.62088,0.225778 0.33867,0 0.84667,-0.02822 1.18534,-0.02822 0.11289,0 0.22577,0 0.56444,-0.225778 0.254,-0.141111 0.39511,-0.282222 0.73378,-0.507999 0.33866,-0.225778 0.93133,-0.620889 1.27,-0.931333 0.508,-0.479777 0.59266,-0.592666 0.59266,-0.761999 0,-0.08467 0,-0.112889 -0.0564,-0.282222 -0.0565,-0.282222 -0.47978,-0.846666 -0.762,-1.100666 -0.33867,-0.310444 -0.508,-0.479778 -0.64911,-0.479778 z m 26.75464,-14.675544 v -0.02822 c -0.0564,-0.677333 -1.12889,-1.495777 -2.11667,-1.495777 -0.90311,0 -1.74977,0.705555 -1.778,0.705555 -0.67733,0.620889 -1.63688,1.241777 -1.63688,2.144888 0,0.338666 0.28222,0.64911 0.56444,0.818443 0.254,0.169334 1.41111,0.338667 1.43933,0.338667 h 0.11289 c 1.27,-0.08467 3.41489,-1.749777 3.41489,-2.483554 z m -4.79778,3.612442 c -2.08844,0.112889 -2.70933,-0.141111 -5.55977,1.298221 -1.07244,0.536222 -2.65289,2.370665 -2.87866,2.991553 -0.254,0.649111 -0.39512,2.031999 -0.39512,3.217331 0,1.044222 0.14112,1.947332 0.36689,2.201332 0.62089,0.790221 1.38289,1.044221 2.62467,1.41111 0.67733,0.225777 4.23333,0.310444 4.28977,0.310444 0.73378,0 1.07245,-0.02822 1.72156,-0.02822 h 0.14111 c 1.016,0 2.00377,0.05644 3.01977,0.05644 h 0.36689 c 0.0564,0 1.80622,-0.08467 2.06022,-0.112889 0.93134,-0.141111 2.51178,-0.366888 2.85044,-0.592666 0.47978,-0.338666 0.53623,0.05645 2.06023,-1.269999 0.31044,-0.141111 1.01599,-1.213554 1.24177,-1.862665 0.0564,-0.141111 0.0847,-0.620888 0.0847,-1.15711 0,-2.42711 -0.0847,-3.922886 -0.42333,-4.571997 -0.98778,-1.721554 -3.52778,-1.975554 -4.76956,-1.975554 h -3.9511 c 0,0 -1.91911,0.02822 -2.85045,0.08467 z m 7.19666,8.918215 -1.26999,0.112889 c -0.36689,0.02822 -0.84667,0.02822 -1.32645,0.02822 -0.56444,0 -1.15711,-0.02822 -1.55222,-0.02822 h -1.94733 c -0.79022,0.02822 -1.74978,0.05644 -2.31422,0.05644 -0.36689,0 -1.60867,-0.112888 -1.89089,-0.197555 -0.47978,-0.141111 -0.90311,-0.225778 -1.15711,-0.649111 -0.36689,-0.64911 -0.53622,-1.947331 -0.53622,-3.076219 0,-2.116666 0.508,-2.342443 1.12889,-2.568221 1.18533,-0.479777 5.78555,-0.507999 5.84199,-0.507999 h 0.64911 c 2.73756,0.05644 3.92289,0.282222 4.26156,0.64911 0.67733,0.818444 0.73377,2.652887 0.73377,3.301998 0,2.201331 -0.19755,2.370665 -0.62089,2.878664 z m -8.15621,6.349995 v 0.02822 c 0,0.310445 0.16933,0.649111 0.39511,0.874889 0.254,0.225777 1.41111,0.253999 1.43933,0.253999 0.16934,0 0.42333,0.02822 0.59267,-0.02822 0.28222,-0.08467 0.53622,-0.310444 0.79022,-0.451555 l 0.42333,-0.310444 c 0.0282,0 1.41111,-0.987777 1.58045,-1.354666 0.11288,-0.225777 0.22577,-0.451555 0.22577,-0.677333 0,-0.02822 -0.0282,-0.959554 -1.58044,-1.128888 -0.0564,0 -0.16933,-0.02822 -0.22578,-0.02822 -1.60866,0 -3.58422,2.17311 -3.64066,2.82222 z"
       id="text2"
       aria-label="φotograφ" />
  </g>
</svg>
