<?xml version="1.0" encoding="UTF-8" standalone="no"?>
<!-- Created with Inkscape (http://www.inkscape.org/) -->

<svg
   width="546.8797"
   height="88.333267"
   viewBox="0 0 144.69526 23.371511"
   version="1.1"
   id="svg1"
   inkscape:version="1.4 (86a8ad7, 2024-10-11)"
   sodipodi:docname="Word Leaf Tech Aether Circle.svg"
   xmlns:inkscape="http://www.inkscape.org/namespaces/inkscape"
   xmlns:sodipodi="http://sodipodi.sourceforge.net/DTD/sodipodi-0.dtd"
   xmlns="http://www.w3.org/2000/svg"
   xmlns:svg="http://www.w3.org/2000/svg">
  <sodipodi:namedview
     id="namedview1"
     pagecolor="#ffffff"
     bordercolor="#000000"
     borderopacity="0.25"
     inkscape:showpageshadow="2"
     inkscape:pageopacity="0.0"
     inkscape:pagecheckerboard="0"
     inkscape:deskcolor="#d1d1d1"
     inkscape:document-units="px"
     inkscape:zoom="1.4699074"
     inkscape:cx="239.13071"
     inkscape:cy="56.125985"
     inkscape:window-width="1920"
     inkscape:window-height="1027"
     inkscape:window-x="-8"
     inkscape:window-y="-8"
     inkscape:window-maximized="1"
     inkscape:current-layer="layer1" />
  <defs
     id="defs1" />
  <g
     inkscape:label="Layer 1"
     inkscape:groupmode="layer"
     id="layer1"
     transform="translate(-64.358965,-65.765363)">
    <text
       xml:space="preserve"
       style="font-size:28.2222px;line-height:1;font-family:'BlockTrain Hand';-inkscape-font-specification:'BlockTrain Hand';text-align:start;letter-spacing:1.32292px;writing-mode:lr-tb;direction:ltr;text-anchor:start;display:none;fill:#17a23e;fill-opacity:0.854902;stroke:#4d804f;stroke-width:0.79375;stroke-dasharray:none;stroke-opacity:1"
       x="136.70659"
       y="88.739998"
       id="text1"><tspan
         sodipodi:role="line"
         id="tspan1"
         style="font-style:normal;font-variant:normal;font-weight:normal;font-stretch:normal;font-size:28.2222px;font-family:'Leaf Tech';-inkscape-font-specification:'Leaf Tech';text-align:center;letter-spacing:1.32292px;text-anchor:middle;fill:#17a23e;fill-opacity:0.854902;stroke:#4d804f;stroke-width:0.79375;stroke-dasharray:none;stroke-opacity:1"
         x="137.36806"
         y="88.739998">1234567890</tspan></text>
    <path
       style="font-size:28.2222px;line-height:1;font-family:'Leaf Tech';-inkscape-font-specification:'Leaf Tech';text-align:center;letter-spacing:1.32292px;text-anchor:middle;fill:#17a23e;fill-opacity:0.854902;stroke:#4d804f;stroke-width:0.52916669;stroke-dasharray:none"
       d="m 65.404951,88.739998 h 7.05555 c 0.366888,0 0.64911,-0.282222 0.64911,-0.649111 0,-0.366888 -0.282222,-0.64911 -0.64911,-0.64911 h -4.063997 c 0.733777,-0.762 1.185332,-1.777999 1.185332,-2.906887 V 66.811348 c 0,-0.423333 -0.310444,-0.64911 -0.620888,-0.64911 -0.338666,0 -0.649111,0.225777 -0.649111,0.64911 0,1.608666 -1.298221,2.906887 -2.906886,2.906887 -0.366889,0 -0.649111,0.282222 -0.649111,0.64911 0,0.338667 0.282222,0.620889 0.649111,0.620889 1.128888,0 2.144887,-0.451555 2.906886,-1.185333 V 84.53489 c 0,1.608665 -1.298221,2.906887 -2.906886,2.906887 -0.366889,0 -0.649111,0.310444 -0.649111,0.64911 0,0.338667 0.282222,0.649111 0.649111,0.649111 z m 16.675822,-22.57776 c -3.301997,0 -5.954884,2.681109 -5.954884,5.954884 0,0.366888 0.282222,0.64911 0.620888,0.64911 0.366889,0 0.649111,-0.282222 0.649111,-0.64911 0,-2.56822 2.088443,-4.656663 4.684885,-4.656663 h 4.684885 v 4.656663 c 0,1.608665 -1.298221,2.906886 -2.906886,2.906886 -4.261553,0 -7.732883,3.471331 -7.732883,7.732883 v 5.983107 h 7.732883 c 2.31422,0 4.176885,-1.890888 4.176885,-4.205108 0,-0.338666 -0.282222,-0.649111 -0.64911,-0.649111 -0.338667,0 -0.620889,0.310445 -0.620889,0.649111 0,1.608665 -1.298221,2.906887 -2.906886,2.906887 h -6.462884 v -4.684886 c 0,-3.555997 2.878664,-6.434661 6.462884,-6.434661 2.31422,0 4.176885,-1.890888 4.176885,-4.205108 v -5.954884 z m 14.27692,9.510881 c 0,0.366889 0.282222,0.649111 0.649111,0.649111 2.596443,0 4.684886,2.088443 4.684886,4.684885 0,3.555997 -2.878665,6.434662 -6.462885,6.434662 h -2.850442 c 0.02822,-0.931333 0.141111,-1.862666 0.338667,-2.765776 V 84.53489 c 0,-0.338666 -0.254,-0.649111 -0.620889,-0.649111 -0.310444,0 -0.564444,0.225778 -0.64911,0.508 -0.254,1.185332 -0.395111,2.427109 -0.395111,3.697108 v 0.649111 h 4.176885 c 4.261553,0 7.732885,-3.471331 7.761105,-7.732883 0,-2.088443 -1.10067,-3.922886 -2.70933,-4.99533 1.58044,-0.592666 2.70933,-2.116665 2.70933,-3.894663 v -5.954884 h -5.983106 c -3.273775,0 -5.954884,2.681109 -5.954884,5.954884 0,0.366888 0.282222,0.64911 0.64911,0.64911 0.338667,0 0.620889,-0.282222 0.620889,-0.64911 0,-2.56822 2.088443,-4.656663 4.684885,-4.656663 h 4.684886 v 4.656663 c 0,1.608665 -1.29822,2.906886 -2.906887,2.906886 h -1.777999 c -0.366889,0 -0.649111,0.282222 -0.649111,0.649111 z m 20.288237,-8.156216 v 4.600219 c 0,3.047997 -0.22578,6.067773 -1.18534,8.748882 -0.16933,0.423333 -0.33866,0.846666 -0.53622,1.269999 h -7.61999 v -1.128888 c 0,-2.765776 1.15711,-6.237106 2.99155,-8.946438 1.72156,-2.483553 3.95111,-4.261552 6.35,-4.543774 z m -10.63977,13.490212 v 2.398887 h 8.21266 c -1.016,1.580443 -2.37067,2.991553 -4.318,4.092219 -0.19755,0.112889 -0.33867,0.338666 -0.33867,0.564444 0,0.366889 0.31045,0.649111 0.64911,0.649111 0.11289,0 0.22578,-0.02822 0.33867,-0.08467 2.37067,-1.382888 4.03578,-3.189109 5.16466,-5.221107 h 1.58045 c 0.36689,0 0.64911,-0.282222 0.64911,-0.649111 0,-0.338666 -0.28222,-0.620888 -0.64911,-0.620888 h -0.95956 c 1.24178,-2.906887 1.60867,-6.603995 1.60867,-10.018881 v -5.954884 h -0.64911 c -6.29355,0 -11.28888,8.551326 -11.28888,14.844877 z m 15.60334,-5.587996 c 0.36689,0 0.64911,-0.254 0.64911,-0.64911 0,-0.254 0.33867,-0.790222 1.18534,-1.241777 0.87488,-0.451555 2.08844,-0.762 3.47133,-0.762 h 4.68488 v 1.128888 c 0,2.765776 -1.15711,6.237107 -2.99155,8.946438 -1.72156,2.483554 -3.95111,4.261552 -6.35,4.543774 V 85.438 82.785114 c 0,-0.366889 -0.31044,-0.649111 -0.64911,-0.649111 -0.36689,0 -0.64911,0.282222 -0.64911,0.649111 v 5.954884 h 0.64911 c 6.29355,0 11.28888,-8.579549 11.28888,-14.844878 v -2.398887 h -5.9831 c -1.89089,0 -3.52778,0.479778 -4.65667,1.269999 v -3.301997 c 0,-1.128888 0.87489,-2.003776 2.00378,-2.003776 h 7.98688 c 0.36689,0 0.64911,-0.310444 0.64911,-0.649111 0,-0.366888 -0.28222,-0.64911 -0.64911,-0.64911 h -7.98688 c -1.80622,0 -3.302,1.495776 -3.302,3.301997 v 5.305774 c 0,0.39511 0.28222,0.64911 0.64911,0.64911 z m 20.26002,0.903111 h 4.68488 v 6.434661 c 0,2.596443 -2.08844,4.684886 -4.68488,4.684886 h -4.65667 v -4.684886 c 0,-3.104442 1.778,-6.434661 4.65667,-6.434661 z m -4.65667,1.693332 v -0.564444 c 0,-5.531552 4.45911,-9.990659 9.99066,-9.990659 0.33867,0 0.64911,-0.310444 0.64911,-0.649111 0,-0.366888 -0.31044,-0.64911 -0.64911,-0.64911 -6.23711,0 -11.28888,5.051773 -11.28888,11.28888 v 11.28888 h 5.95489 c 3.30199,0 5.9831,-2.681109 5.9831,-5.983107 v -7.732883 h -5.9831 c -1.89089,0 -3.81,1.269999 -4.65667,2.991554 z m 26.61001,-11.853324 h -12.30488 c -0.36689,0 -0.64911,0.282222 -0.64911,0.64911 0,0.338667 0.28222,0.649111 0.64911,0.649111 h 9.05933 c -3.81,3.922886 -6.15244,9.285104 -6.15244,15.239988 v 5.39044 c 0,0.366889 0.28222,0.649111 0.62089,0.649111 0.36688,0 0.64911,-0.282222 0.64911,-0.649111 v -5.39044 c 0,-6.15244 2.65288,-11.627547 6.88621,-15.409321 z m 8.88644,11.93799 4.76955,1.580444 v 3.076219 c 0,2.596443 -2.08844,4.684886 -4.68488,4.684886 h -4.68489 v -4.684886 c 0,-2.539998 2.06022,-4.600218 4.60022,-4.656663 z m 0.0847,-10.639769 h 4.68488 v 4.656663 c 0,2.56822 -2.06022,4.628441 -4.62844,4.684885 l -4.74133,-1.580443 v -3.104442 c 0,-2.56822 2.08845,-4.656663 4.68489,-4.656663 z m 0,-1.298221 c -3.27378,0 -5.95489,2.681109 -5.95489,5.954884 v 4.035774 l 3.52778,1.185333 c -2.06022,0.931333 -3.52778,2.991553 -3.52778,5.418662 v 5.983107 h 5.95489 c 3.27377,0 5.95488,-2.681109 5.95488,-5.983107 v -4.007552 l -3.55599,-1.185332 c 2.08844,-0.931333 3.55599,-3.019776 3.55599,-5.446885 v -5.954884 z m 13.17626,22.57776 c 0.0847,0 0.16933,-0.02822 0.254,-0.05644 4.43088,-2.003776 7.47888,-7.253105 7.47888,-13.264434 v -1.636887 c -0.0847,-4.205108 -3.52778,-7.619994 -7.73288,-7.619994 h -4.20511 v 5.954884 c 0,4.289774 3.47133,7.761105 7.7611,7.761105 h 2.22956 c -1.04422,3.555997 -3.27378,6.378217 -6.03955,7.619994 -0.22578,0.112889 -0.39512,0.338666 -0.39512,0.592666 0,0.366889 0.31045,0.649111 0.64912,0.649111 z m -2.90689,-21.279539 h 2.90689 c 3.55599,0 6.43466,2.878664 6.43466,6.462884 v 1.495776 c 0,1.100666 -0.11289,2.144888 -0.33867,3.160887 h -2.54 c -3.58422,0 -6.46288,-2.878665 -6.46288,-6.462884 z m 23.25156,4.176885 c 0.64912,1.185333 1.04423,2.568221 1.04423,4.035775 v 11.768658 h -1.12889 c -2.54,0 -4.826,-1.157111 -6.32177,-2.963331 2.11666,-4.289775 4.26155,-8.551327 6.40643,-12.841102 z m -8.29732,-4.176885 h 1.12889 c 2.53999,0 4.82599,1.15711 6.32177,2.963331 -2.11667,4.289774 -4.26155,8.551327 -6.40644,12.812879 -0.67733,-1.185333 -1.04422,-2.539998 -1.04422,-4.007553 z m -1.29822,-1.298221 v 13.066878 c 0,5.24933 4.26155,9.510882 9.51088,9.510882 h 2.42711 V 75.673119 c 0,-5.249329 -4.26156,-9.510881 -9.51088,-9.510881 z"
       id="text2"
       aria-label="1234567890" />
  </g>
</svg>
