<?xml version="1.0" encoding="UTF-8" standalone="no"?>
<!-- Created with Inkscape (http://www.inkscape.org/) -->

<svg
   width="355.85333"
   height="87.267159"
   viewBox="0 0 94.152861 23.089435"
   version="1.1"
   id="svg1"
   inkscape:version="1.4 (86a8ad7, 2024-10-11)"
   sodipodi:docname="Word DotsNLines Circle.svg"
   xmlns:inkscape="http://www.inkscape.org/namespaces/inkscape"
   xmlns:sodipodi="http://sodipodi.sourceforge.net/DTD/sodipodi-0.dtd"
   xmlns="http://www.w3.org/2000/svg"
   xmlns:svg="http://www.w3.org/2000/svg">
  <sodipodi:namedview
     id="namedview1"
     pagecolor="#ffffff"
     bordercolor="#000000"
     borderopacity="0.25"
     inkscape:showpageshadow="2"
     inkscape:pageopacity="0.0"
     inkscape:pagecheckerboard="0"
     inkscape:deskcolor="#d1d1d1"
     inkscape:document-units="px"
     inkscape:zoom="1.4699074"
     inkscape:cx="186.4063"
     inkscape:cy="71.773228"
     inkscape:window-width="1920"
     inkscape:window-height="1027"
     inkscape:window-x="-8"
     inkscape:window-y="-8"
     inkscape:window-maximized="1"
     inkscape:current-layer="layer1" />
  <defs
     id="defs1" />
  <g
     inkscape:label="Layer 1"
     inkscape:groupmode="layer"
     id="layer1"
     transform="translate(-89.672515,-67.23277)">
    <text
       xml:space="preserve"
       style="font-size:28.2222px;line-height:1;font-family:'BlockTrain Hand';-inkscape-font-specification:'BlockTrain Hand';text-align:start;writing-mode:lr-tb;direction:ltr;text-anchor:start;display:none;fill:#19919b;fill-opacity:1;stroke:#7c7c7c;stroke-width:0.79375;stroke-dasharray:none;stroke-opacity:1"
       x="136.70659"
       y="88.739998"
       id="text1"><tspan
         sodipodi:role="line"
         id="tspan1"
         style="font-style:normal;font-variant:normal;font-weight:normal;font-stretch:normal;font-size:28.2222px;font-family:'Dots n Lines';-inkscape-font-specification:'Dots n Lines';text-align:center;text-anchor:middle;fill:#19919b;fill-opacity:1;stroke:#7c7c7c;stroke-width:0.79375;stroke-dasharray:none;stroke-opacity:1"
         x="0"
         y="0">çircl</tspan></text>
    <path
       style="font-size:28.2222px;line-height:1;font-family:'Dots n Lines';-inkscape-font-specification:'Dots n Lines';text-align:center;text-anchor:middle;fill:#19919b;stroke:#7c7c7c;stroke-width:0.79375"
       d="m 105.95849,70.847123 c 0.90311,0 2.08844,-1.552221 2.08844,-1.91911 0,-0.141111 -1.04422,-0.846666 -4.28977,-0.846666 -6.716887,0 -10.075329,3.019776 -11.232439,4.063997 -0.987777,0.90311 -1.721554,2.173109 -2.060221,3.753553 -0.169333,0.874888 -0.39511,2.088443 -0.39511,2.709331 0,1.806221 0.931332,3.104442 1.439332,3.668886 0.818444,0.987777 2.455331,1.693332 3.838219,2.173109 1.072444,0.366889 3.838219,0.366889 4.148664,0.366889 2.455335,0 6.011325,-0.282222 7.140215,-0.761999 0.81845,-0.338667 1.89089,-1.636888 1.89089,-2.144888 0,-0.141111 -0.73378,-0.564444 -1.27,-0.564444 -0.0564,0 -3.75355,0.536222 -5.842,0.536222 -1.26999,0 -4.120437,-0.366888 -4.910659,-0.761999 -1.636887,-0.818444 -2.06022,-1.100666 -2.06022,-3.33022 0,-3.245553 0.874888,-4.797774 1.523999,-5.475107 0.620888,-0.64911 1.608665,-0.931332 2.483553,-1.298221 2.031997,-0.874888 3.725327,-0.874888 3.838217,-0.874888 1.74978,0 3.41489,0.705555 3.66889,0.705555 z M 97.943384,89.92533 c 1.185332,0 2.116666,-0.451555 2.483556,-0.677333 0.73377,-0.423333 1.74977,-0.931332 1.83444,-1.749776 v -0.112889 c 0,-0.818444 -1.07244,-1.693332 -1.55222,-1.693332 -1.044222,0 -2.793999,0.874888 -3.443109,1.523999 -0.790222,0.818444 -0.846666,0.931333 -0.846666,1.298221 0,0.169333 0.169333,1.41111 1.523999,1.41111 z m 14.365086,-0.705555 c 0.64911,0 1.91911,-0.705555 2.25778,-0.818444 0.36689,-0.141111 1.86267,-0.705555 2.42711,-1.015999 0.22578,-0.141111 0.28222,-0.112889 0.28222,-0.423333 0,-0.02822 -0.0564,-1.693332 -0.0564,-2.878664 0,-1.91911 0.11289,-1.495777 0.11289,-2.681109 0,-0.479778 -0.0564,-0.959555 -0.0564,-1.439332 0,-0.141111 0.0847,-7.619995 0.11289,-9.22866 0,0 0.0564,-0.987777 0.0564,-1.495777 v -1.044221 c 0,-0.536222 -0.0564,-0.564444 -0.19755,-0.564444 -0.36689,0 -3.49955,1.269999 -4.318,1.834443 l -0.36689,0.225778 -0.0847,1.326443 c -0.0847,1.241777 -0.16934,13.46199 -0.16934,13.603101 -0.0847,1.072443 -0.0847,1.693332 -0.14111,2.963331 0,0 -0.11289,0.507999 -0.11289,0.931332 0,0.677333 0.16934,0.705555 0.254,0.705555 z m 9.17221,-17.554208 c 0.31045,0 0.56445,-0.197556 0.98778,-0.366889 1.66511,-0.620888 5.39044,-0.818444 6.68866,-0.818444 1.778,0 4.37444,0.282222 5.55977,1.467555 1.18534,1.185332 1.35467,3.076219 1.35467,4.007552 0,1.495777 -0.508,2.229554 -2.42711,2.737554 -2.96333,0.790221 -3.33022,0.874888 -6.37822,1.128888 -4.23333,0.310444 -3.89466,0.282222 -4.93888,0.790221 -1.66511,0.818444 -2.11667,1.015999 -2.20133,1.41111 -0.0282,0.08467 -0.0282,0.310444 -0.0282,0.592666 0,2.370665 0.14112,3.697109 0.14112,5.221107 v 0.225778 l -0.0282,0.761999 0.42334,0.141111 c 0.36688,0.141111 0.53622,0.338667 0.81844,0.338667 h 0.0564 c 0.508,0 0.95956,-0.310444 1.43934,-0.479778 1.80622,-0.761999 1.83444,-1.072443 1.83444,-1.693332 0,-0.02822 0,-0.02822 0,-0.05644 v -0.90311 c -0.0847,-2.060221 -0.31044,-2.850443 -0.31044,-3.414887 0,-0.310444 0.0847,-0.253999 0.19755,-0.310444 0.62089,-0.225777 1.27,-0.05644 3.302,-0.451555 0.62089,-0.141111 1.524,-0.282222 1.94733,-0.366889 1.18533,-0.225777 1.10067,-0.338666 2.39889,-0.64911 1.55222,-0.338667 4.37444,-1.41111 5.24933,-2.031999 2.22955,-1.495776 2.59644,-2.483553 2.59644,-4.007552 0,-1.777999 -0.22578,-2.455332 -0.28222,-2.596443 -0.762,-1.862665 -2.11667,-2.681109 -3.89467,-3.584219 -0.762,-0.310444 -2.79399,-0.846666 -4.31799,-0.846666 -3.24556,0 -6.77333,0.649111 -7.93044,1.015999 -2.59644,0.874888 -3.75355,1.749777 -3.75355,2.003776 0,0.08467 0.98777,0.733778 1.49577,0.733778 z m 12.55888,14.1111 c -0.64911,0.564444 -0.73378,0.705555 -0.73378,1.044221 0,0.508 0.39511,0.762 0.56445,1.128888 0.14111,0.338667 1.89089,1.015999 2.39889,1.015999 0.42333,0 1.86266,-0.338666 2.11666,-0.479777 0.87489,-0.423333 1.91911,-1.552221 1.91911,-1.947332 0,-0.254 -0.64911,-1.213554 -1.15711,-1.636887 -0.508,-0.423333 -1.32644,-0.677333 -1.69333,-0.677333 h -0.0282 c -1.74978,0.141111 -3.35845,1.523999 -3.38667,1.552221 z m 20.88444,3.07622 c 0.79022,0 1.778,0.02822 2.65289,0.02822 0.90311,0 1.69333,-0.02822 2.00378,-0.282222 0.62088,-0.508 0.81844,-0.592666 0.98777,-0.762 0.0282,-0.02822 1.07245,-1.439332 1.07245,-1.80622 0,-0.08467 0,-0.112889 -0.11289,-0.112889 -0.0564,0 -5.24933,-0.197556 -6.01133,-0.197556 h -0.64911 c -2.22956,0 -4.572,-0.112888 -6.096,-1.777998 -0.36689,-0.366889 -0.62089,-0.762 -0.62089,-0.874888 0,-0.508 -0.62088,-0.169334 -0.62088,-3.922886 0,-2.201332 0.36688,-3.866442 1.04422,-5.164663 0.39511,-0.733777 1.94733,-2.342443 3.10444,-2.850442 0.62089,-0.254 1.69333,-0.620889 3.86644,-0.620889 2.20133,0 2.99155,0.338667 3.61244,0.338667 0.90311,0 2.08845,-1.523999 2.08845,-1.91911 0,-0.225777 -0.87489,-0.592666 -1.41111,-0.733777 -0.254,-0.08467 -0.79023,-0.112889 -1.43934,-0.112889 -0.98777,0 -2.20133,0.08467 -3.07622,0.225778 -5.44688,0.90311 -9.31332,5.221107 -9.39799,5.305773 -0.16933,0.254 -0.508,0.649111 -0.73378,0.903111 -0.47977,0.507999 -1.016,1.721554 -1.43933,3.07622 -0.36689,1.15711 -0.36689,2.652887 -0.36689,4.571996 0,1.439332 0.0847,1.806221 0.56445,2.991553 0.47977,1.185333 1.24177,1.975554 2.68111,2.765776 1.32644,0.733777 1.58044,0.733777 4.4591,0.846666 1.016,0.05644 2.06022,0.08467 3.10445,0.08467 z m 27.65778,-3.07622 h -1.43933 c -0.0282,0 -0.762,0.02822 -1.91911,0.02822 -0.79023,0 -1.83445,0 -2.90689,-0.02822 -0.53622,0 -1.04422,-0.02822 -1.55222,-0.02822 -1.35467,0 -2.59644,0.02822 -3.89467,0.02822 h -1.12888 c -0.254,-4.092219 -0.33867,-13.320879 -0.33867,-13.46199 v -1.721554 c 0,-1.015999 -0.0564,-1.975554 -0.28222,-2.285998 -0.22578,-0.282222 -0.254,-0.423333 -0.47978,-0.423333 0,0 -2.45533,0.564444 -3.83822,1.834443 0,0 -0.0564,2.201331 -0.0564,3.273775 0,0.874888 -0.0282,1.66511 -0.0282,2.539998 v 1.213555 c 0,3.894663 0.0282,7.30955 0.254,11.486435 l 0.67733,0.225778 c 0.64911,0.225777 1.12889,0.225777 4.62844,0.282222 2.08844,0.02822 2.794,0.02822 3.18911,0.02822 h 4.48733 c 1.016,0 1.91911,0 2.14488,-0.02822 1.97556,-0.225778 3.33022,-2.229554 3.33022,-2.596443 0,-0.366888 -0.62088,-0.366888 -0.84666,-0.366888 z"
       id="text2"
       aria-label="çircl" />
  </g>
</svg>
