<?xml version="1.0" encoding="UTF-8" standalone="no"?>
<!-- Created with Inkscape (http://www.inkscape.org/) -->

<svg
   width="1061.5598"
   height="301.02643"
   viewBox="0 0 280.87104 79.646578"
   version="1.1"
   id="svg1"
   inkscape:version="1.4 (86a8ad7, 2024-10-11)"
   sodipodi:docname="Word Hangeulic Chunky Third Fourth Fifth Eighth.svg"
   xmlns:inkscape="http://www.inkscape.org/namespaces/inkscape"
   xmlns:sodipodi="http://sodipodi.sourceforge.net/DTD/sodipodi-0.dtd"
   xmlns="http://www.w3.org/2000/svg"
   xmlns:svg="http://www.w3.org/2000/svg">
  <sodipodi:namedview
     id="namedview1"
     pagecolor="#ffffff"
     bordercolor="#000000"
     borderopacity="0.25"
     inkscape:showpageshadow="2"
     inkscape:pageopacity="0.0"
     inkscape:pagecheckerboard="0"
     inkscape:deskcolor="#d1d1d1"
     inkscape:document-units="px"
     inkscape:zoom="1.0393815"
     inkscape:cx="544.07357"
     inkscape:cy="180.39575"
     inkscape:window-width="1920"
     inkscape:window-height="1027"
     inkscape:window-x="-8"
     inkscape:window-y="-8"
     inkscape:window-maximized="1"
     inkscape:current-layer="layer1" />
  <defs
     id="defs1" />
  <g
     inkscape:label="Layer 1"
     inkscape:groupmode="layer"
     id="layer1"
     transform="translate(-136.30972,-54.815149)">
    <text
       xml:space="preserve"
       style="font-size:28.2222px;line-height:1.5;font-family:'BlockTrain Hand';-inkscape-font-specification:'BlockTrain Hand';text-align:start;writing-mode:lr-tb;direction:ltr;text-anchor:start;display:none;fill:#19919b;fill-opacity:1;stroke:#7c7c7c;stroke-width:0.79375;stroke-dasharray:none;stroke-opacity:1"
       x="276.74524"
       y="88.739998"
       id="text1"><tspan
         sodipodi:role="line"
         style="font-style:normal;font-variant:normal;font-weight:800;font-stretch:normal;font-size:28.2222px;line-height:1.5;font-family:'NewEng Hangeul';-inkscape-font-specification:'NewEng Hangeul Ultra-Bold';text-align:center;text-anchor:middle;fill:#19919b;fill-opacity:1;stroke:#7c7c7c;stroke-width:0.79375;stroke-dasharray:none;stroke-opacity:1"
         x="276.74524"
         y="88.739998"
         id="tspan2">Þird Fȣ̊rþ</tspan><tspan
         sodipodi:role="line"
         style="font-style:normal;font-variant:normal;font-weight:800;font-stretch:normal;font-size:28.2222px;line-height:1.5;font-family:'NewEng Hangeul';-inkscape-font-specification:'NewEng Hangeul Ultra-Bold';text-align:center;text-anchor:middle;fill:#19919b;fill-opacity:1;stroke:#7c7c7c;stroke-width:0.79375;stroke-dasharray:none;stroke-opacity:1"
         x="276.74524"
         y="131.0733"
         id="tspan1">Fifþ Eiȝtþ</tspan></text>
    <g
       id="text4"
       style="font-size:28.2222px;line-height:1.5;font-family:'BlockTrain Hand';-inkscape-font-specification:'BlockTrain Hand';fill:#19919b;stroke:#7c7c7c;stroke-width:0.79375"
       aria-label="Þird Fȣ̊rþ&#10;Fifþ Eiȝtþ">
      <path
         style="font-weight:800;font-family:'NewEng Hangeul';-inkscape-font-specification:'NewEng Hangeul Ultra-Bold';text-align:center;text-anchor:middle"
         d="m 148.44704,69.379568 v 20.940873 l 1.15711,1.41111 5.41867,-4.543774 v -1.41111 h 12.92576 l 1.60867,-1.354666 1.12889,1.354666 5.41866,-4.515552 v -9.087549 l -1.18533,-1.41111 h -18.45732 l -1.43933,1.213555 v -5.729107 l -1.18534,-1.41111 z m 6.57578,7.30955 h 14.50621 v 3.160887 h -13.06688 l -1.43933,1.213554 z m 25.06131,-5.89844 h 10.5551 l -1.29822,1.072444 v 13.913545 h -5.02355 l -5.39044,4.543774 1.15711,1.41111 H 201.025 l 5.41866,-4.543774 -1.18533,-1.41111 h -10.75266 l 1.43934,-1.213555 V 70.790678 h 5.07999 l 5.41866,-4.543774 -1.18533,-1.41111 h -20.94087 l -5.39044,4.543774 z m 29.18178,-1.41111 v 20.940873 l 1.15711,1.41111 5.41866,-4.543774 v -5.926662 h 7.95866 l -1.46755,1.213554 1.18533,1.382888 7.84577,7.873994 5.41866,-4.543774 -1.18533,-1.41111 -5.588,-5.587996 0.28223,-0.225777 1.07244,1.298221 5.41866,-4.543775 V 66.246904 l -1.18533,-1.41111 h -18.31621 l -1.55222,1.298221 -1.07244,-1.298221 z m 6.57577,1.41111 h 14.3651 v 4.515552 h -12.92577 l -1.43933,1.213555 z m 23.76311,-1.41111 v 20.940873 l 1.15711,1.41111 1.55222,-1.298221 1.07244,1.298221 h 15.71977 l 1.524,-1.298221 1.07244,1.298221 5.41866,-4.543774 V 71.468011 l -1.18533,-1.382888 -5.22111,-5.249329 h -13.0951 l -1.55222,1.298221 -1.07244,-1.298221 z m 6.57577,1.41111 h 10.3011 l 4.064,4.035775 v 10.950214 h -12.92577 l -1.43933,1.213554 z m 50.09445,10.470437 h 10.30111 l 5.39044,-4.543775 -1.15711,-1.41111 h -13.0951 l -1.43934,1.213555 v -5.729107 h 15.52221 l 5.41867,-4.543774 -1.18534,-1.41111 h -20.94087 l -5.39044,4.543774 1.15711,1.41111 h 0.28222 l -1.43933,1.213555 v 18.316208 l 1.15711,1.41111 5.41866,-4.543774 z m 32.65311,-7.111995 c -2.794,0 -4.40266,-0.338666 -5.36222,-0.338666 -0.16933,-0.733777 -0.19755,-1.523999 -0.28222,-4.063997 v -3.499553 l -1.18533,-1.41111 -5.39044,4.543774 v 3.499553 l 0.0282,1.185333 c 0.0847,1.975554 0.11289,3.104442 0.67733,3.753552 l 1.016,1.213555 -0.62089,0.508 c -0.762,0.64911 -0.98777,1.80622 -1.07244,3.781774 -0.0282,0.846666 -0.0282,1.157111 -0.0282,1.185333 v 0 c 0,0.02822 0,0.197555 0.0282,0.959555 0.0564,1.890887 0.22578,3.019775 0.81844,3.72533 l 1.18534,1.41111 c 0.93133,1.128888 2.90688,1.128888 6.9991,1.128888 h 5.22111 c 3.75355,0 5.72911,0 6.7451,-0.874888 l 5.41867,-4.515552 c 0.79022,-0.677333 1.016,-1.862665 1.07244,-3.97933 0.0282,-0.762 0.0282,-0.959555 0.0282,-0.987777 v 0 c 0,-0.02822 0,-0.338667 -0.0282,-1.185333 -0.0564,-1.749776 -0.254,-2.82222 -0.81844,-3.499553 l -0.59267,-0.705555 1.43933,-1.185332 v -8.551327 l -1.18533,-1.41111 -5.39044,4.543774 v 4.797774 c -0.73378,0 -1.524,-0.02822 -2.45533,-0.02822 z m -5.64444,7.224884 c 0,-0.338667 0.0282,-1.241777 0.0282,-1.269999 0.70556,0 1.524,0 2.42711,0 h 5.22111 c 3.27377,0 5.16466,0.564444 6.29355,0.564444 0.33867,0.987777 0.39511,2.850442 0.39511,3.838219 0,0.197555 -0.0282,1.241777 -0.0282,1.269999 -0.70556,0 -1.524,0 -2.42711,0 h -5.22111 c -3.27377,0 -5.16466,-0.564444 -6.29355,-0.564444 -0.31044,-0.903111 -0.39511,-2.56822 -0.39511,-3.838219 z m 8.26909,-26.16198 c -0.62089,0 -1.55223,0.112889 -2.42711,0.846666 l -2.59645,2.173109 c -0.11289,0.08467 -0.22577,0.197556 -0.33866,0.338667 l 0.19755,0.225777 -0.67733,0.564444 c -0.0847,0.254 -0.0847,0.310444 -0.0847,0.592666 0,1.100666 0.47978,1.693332 0.62089,1.834443 l 0.53622,0.649111 c 0.56445,0.649111 1.41111,1.044222 2.42711,1.044222 0.11289,0 0.42334,-0.02822 0.42334,-0.02822 0.56444,0 1.60866,-0.112888 2.4271,-0.790221 l 2.59645,-2.17311 c 0.22577,-0.197555 0.42333,-0.423333 0.59266,-0.705555 l -0.36689,-0.451555 0.64912,-0.536222 c 0.0282,-0.141111 0.0282,-0.254 0.0282,-0.395111 0,-0.310444 -0.0847,-0.592666 -0.16934,-0.874888 -0.11288,-0.282222 -0.16933,-0.338666 -0.93133,-1.241777 -0.42333,-0.507999 -1.21355,-1.072443 -2.48355,-1.072443 -0.11289,0 -0.42333,0 -0.42333,0 z m -2.76578,2.878664 c 0.254,-0.02822 0.508,-0.05644 0.70555,-0.05644 0,0 0.31045,0 0.42334,0 1.016,0 1.74977,0.366888 2.20133,0.761999 0.16933,0.282222 0.31044,0.733777 0.31044,1.15711 0,0.112889 -0.0282,0.225778 -0.0282,0.366889 l 0.16933,0.225778 c -0.33866,0.08467 -0.64911,0.08467 -0.87488,0.08467 0,0 -0.31045,0 -0.42334,0 -0.84666,0 -1.58044,-0.254 -2.14488,-0.705555 -0.28223,-0.507999 -0.36689,-1.072443 -0.36689,-1.495776 0,-0.169334 0,-0.254 0.0282,-0.338667 z m 18.2598,11.28888 v 20.940873 l 1.15711,1.41111 5.41866,-4.543774 v -5.926662 h 7.95866 l -1.46755,1.213554 1.18533,1.382888 7.84577,7.873994 5.41867,-4.543774 -1.18534,-1.41111 -5.58799,-5.587996 0.28222,-0.225777 1.07244,1.298221 5.41867,-4.543775 V 66.246904 l -1.18534,-1.41111 h -18.3162 l -1.55223,1.298221 -1.07244,-1.298221 z m 6.57577,1.41111 h 14.3651 V 75.30623 H 355.0619 l -1.43934,1.213555 z m 23.76311,-1.41111 v 20.940873 l 1.15711,1.41111 5.41867,-4.543774 v -1.41111 h 12.92576 l 1.60867,-1.354666 1.12889,1.354666 5.41866,-4.515552 v -9.087549 l -1.18533,-1.41111 h -18.45732 l -1.43933,1.213555 v -5.729107 l -1.18534,-1.41111 z m 6.57578,7.30955 h 14.50621 v 3.160887 h -13.06688 l -1.43933,1.213554 z"
         id="path4" />
      <path
         style="font-weight:800;font-family:'NewEng Hangeul';-inkscape-font-specification:'NewEng Hangeul Ultra-Bold';text-align:center;text-anchor:middle"
         d="m 143.28237,123.59442 h 10.3011 l 5.39044,-4.54378 -1.15711,-1.41111 h -13.0951 l -1.43933,1.21356 v -5.72911 h 15.52221 l 5.41866,-4.54378 -1.18533,-1.41111 h -20.94087 l -5.39044,4.54378 1.15711,1.41111 h 0.28222 l -1.43933,1.21355 v 18.31621 l 1.15711,1.41111 5.41866,-4.54377 z m 21.59,-10.47044 h 10.55511 l -1.29822,1.07244 v 13.91355 h -5.02355 l -5.39045,4.54377 1.15711,1.41111 h 20.94088 l 5.41866,-4.54377 -1.18533,-1.41111 h -10.75266 l 1.43933,-1.21356 v -13.77243 h 5.08 l 5.41866,-4.54378 -1.18533,-1.41111 h -20.94087 l -5.39045,4.54378 z m 35.75755,10.47044 h 10.30111 l 5.39044,-4.54378 -1.15711,-1.41111 h -13.0951 l -1.43934,1.21356 v -5.72911 h 15.52221 l 5.41867,-4.54378 -1.18534,-1.41111 h -20.94087 l -5.39044,4.54378 1.15711,1.41111 h 0.28222 l -1.43933,1.21355 v 18.31621 l 1.15711,1.41111 5.41866,-4.54377 z m 20.43289,-11.88155 v 20.94087 l 1.15711,1.41111 5.41867,-4.54377 v -1.41111 h 12.92576 l 1.60867,-1.35467 1.12889,1.35467 5.41866,-4.51555 v -9.08755 l -1.18533,-1.41111 h -18.45732 l -1.43933,1.21355 v -5.72911 l -1.18534,-1.41111 z m 6.57578,7.30955 h 14.50621 v 3.16089 h -13.06688 l -1.43933,1.21355 z m 44.81687,-5.89844 h 0.28222 l -1.43933,1.21355 v 18.31621 l 1.15711,1.41111 h 20.94087 l 5.41866,-4.54377 -1.18533,-1.41111 h -19.75554 v -4.51555 h 10.3011 l 5.39045,-4.54378 -1.15712,-1.41111 h -13.37732 l -1.15711,0.98778 v -5.50333 h 15.52221 l 5.41866,-4.54378 -1.18533,-1.41111 h -20.94087 l -5.39044,4.54378 z m 30.3389,0 h 10.5551 l -1.29822,1.07244 v 13.91355 h -5.02355 l -5.39044,4.54377 1.15711,1.41111 h 20.94087 l 5.41866,-4.54377 -1.18533,-1.41111 H 317.2159 l 1.43933,-1.21356 v -13.77243 h 5.08 l 5.41866,-4.54378 -1.18533,-1.41111 h -20.94087 l -5.39044,4.54378 z m 49.92509,0 v 3.13266 l -1.72156,1.41111 h -7.64821 l -5.39044,4.54378 1.15711,1.41111 h 7.64821 c 4.17689,-3.49956 8.35377,-6.97089 12.53066,-10.47044 v -4.572 l -1.18533,-1.41111 h -20.74332 l -5.39044,4.54378 1.15711,1.41111 z m -19.58621,20.94087 h 13.6031 c 4.20511,-3.49955 8.38199,-6.9991 12.55888,-10.49866 v -4.48733 l -1.18533,-1.41111 h -2.82222 l -5.39044,4.54378 1.15711,1.41111 h 1.63688 v 3.048 l -1.72155,1.43933 h -13.6031 l -5.39044,4.54377 z m 30.14133,-20.94087 h 10.75265 l -1.43933,1.21355 v 18.31621 l 1.15711,1.41111 5.41866,-4.54377 v -16.3971 h 5.05178 l 5.41866,-4.54378 -1.18533,-1.41111 H 367.5079 l -5.39044,4.54378 z m 25.85155,-1.41111 v 20.94087 l 1.15711,1.41111 5.41867,-4.54377 v -1.41111 h 12.92576 l 1.60867,-1.35467 1.12889,1.35467 5.41866,-4.51555 v -9.08755 l -1.18533,-1.41111 h -18.45732 l -1.43933,1.21355 v -5.72911 l -1.18534,-1.41111 z m 6.57578,7.30955 h 14.50621 v 3.16089 h -13.06688 l -1.43933,1.21355 z"
         id="path5" />
    </g>
  </g>
</svg>
