<?xml version="1.0" encoding="UTF-8" standalone="no"?>
<!-- Created with Inkscape (http://www.inkscape.org/) -->

<svg
   width="820.51422"
   height="84.600494"
   viewBox="0 0 217.09439 22.38388"
   version="1.1"
   id="svg1"
   inkscape:version="1.4 (86a8ad7, 2024-10-11)"
   sodipodi:docname="Word DotsNLines Psychedelic.svg"
   xmlns:inkscape="http://www.inkscape.org/namespaces/inkscape"
   xmlns:sodipodi="http://sodipodi.sourceforge.net/DTD/sodipodi-0.dtd"
   xmlns="http://www.w3.org/2000/svg"
   xmlns:svg="http://www.w3.org/2000/svg">
  <sodipodi:namedview
     id="namedview1"
     pagecolor="#ffffff"
     bordercolor="#000000"
     borderopacity="0.25"
     inkscape:showpageshadow="2"
     inkscape:pageopacity="0.0"
     inkscape:pagecheckerboard="0"
     inkscape:deskcolor="#d1d1d1"
     inkscape:document-units="px"
     inkscape:zoom="1.0393815"
     inkscape:cx="405.52963"
     inkscape:cy="120.74489"
     inkscape:window-width="1920"
     inkscape:window-height="1027"
     inkscape:window-x="-8"
     inkscape:window-y="-8"
     inkscape:window-maximized="1"
     inkscape:current-layer="layer1" />
  <defs
     id="defs1" />
  <g
     inkscape:label="Layer 1"
     inkscape:groupmode="layer"
     id="layer1"
     transform="translate(-28.17637,-67.232768)">
    <text
       xml:space="preserve"
       style="font-size:28.2222px;line-height:1;font-family:'BlockTrain Hand';-inkscape-font-specification:'BlockTrain Hand';text-align:start;writing-mode:lr-tb;direction:ltr;text-anchor:start;display:none;fill:#19919b;fill-opacity:1;stroke:#7c7c7c;stroke-width:0.79375;stroke-dasharray:none;stroke-opacity:1"
       x="136.70659"
       y="88.739998"
       id="text1"><tspan
         sodipodi:role="line"
         id="tspan1"
         style="font-style:normal;font-variant:normal;font-weight:normal;font-stretch:normal;font-size:28.2222px;font-family:'Dots n Lines';-inkscape-font-specification:'Dots n Lines';text-align:center;text-anchor:middle;fill:#19919b;fill-opacity:1;stroke:#7c7c7c;stroke-width:0.79375;stroke-dasharray:none;stroke-opacity:1"
         x="0"
         y="0">psyʞedelic</tspan></text>
    <path
       style="font-size:28.2222px;line-height:1;font-family:'Dots n Lines';-inkscape-font-specification:'Dots n Lines';text-align:center;text-anchor:middle;fill:#19919b;stroke:#7c7c7c;stroke-width:0.79375"
       d="m 31.028576,71.129345 c 0.05645,0 1.834443,-0.282222 5.079996,-0.282222 2.596443,0 4.515552,0.08467 6.293551,1.636887 0.790222,0.677333 1.41111,1.693332 1.41111,4.205108 0,0.987777 -0.112889,2.003777 -0.254,2.229554 -0.620888,0.903111 -1.354665,1.382888 -2.624664,1.382888 -0.141111,0 -0.282222,-0.02822 -0.423334,-0.05644 h -2.483553 c -0.564444,0 -1.15711,-0.02822 -1.721554,-0.02822 h -0.141111 c -1.693332,0 -2.963331,0.05644 -5.164663,0.112889 -1.354666,0.903111 -2.427109,1.947332 -2.427109,2.314221 v 0.02822 c 0,0.02822 0.395111,0.423333 1.66511,0.423333 0.564444,0 1.241776,-0.05644 1.80622,-0.05644 h 0.197556 c 1.015999,0 2.003776,-0.02822 3.019775,-0.02822 h 0.02822 c 0.649111,0 1.298222,0.02822 1.947332,0.02822 h 0.874888 c 1.523999,0 2.596443,-0.253999 2.624665,-0.253999 1.213555,-0.310445 3.922886,-1.580444 5.249329,-3.019776 0.649111,-0.733777 1.354666,-1.213554 1.580444,-2.511776 0.141111,-0.90311 0.282222,-1.721554 0.282222,-2.455331 0,-2.17311 -0.705555,-3.555997 -1.975554,-4.459108 -3.33022,-2.342442 -6.491107,-2.342442 -8.269105,-2.342442 -0.790222,0 -1.439332,-0.05644 -2.17311,-0.05644 -1.072443,0 -2.201331,0.08467 -3.809997,0.225778 -0.733777,0.08467 -2.681109,1.947332 -2.681109,2.285998 0,0.02822 -0.02822,0.02822 0,0.02822 0.169334,0 1.439333,0.649111 2.088443,0.649111 z m 1.298221,13.349101 c -0.507999,0 -0.761999,0.08467 -1.41111,0.592666 -0.366888,0.282222 -0.620888,0.423333 -0.874888,0.64911 -0.536222,0.508 -1.241777,0.959555 -1.382888,1.693332 0,0.05644 -0.02822,0.08467 -0.02822,0.141111 0,0.282222 0.141111,0.536222 0.310444,0.818444 0.169334,0.310444 1.157111,0.620889 2.060221,0.620889 h 0.197555 c 0.620889,-0.08467 0.903111,-0.423333 1.806221,-0.931333 1.241777,-0.733777 1.91911,-1.552221 1.91911,-2.285998 0,-0.649111 -1.580443,-1.298221 -2.596443,-1.298221 z m 24.271119,-7.422439 c 0,-0.677333 0.05644,-0.846666 0.592666,-1.91911 0.762,-1.495776 1.495777,-2.483553 2.793998,-3.47133 1.552221,-1.185333 1.890888,-1.128888 2.935109,-1.41111 1.128888,-0.282222 2.229554,-0.197556 3.414886,-0.225778 h 0.338667 c 0.761999,0 1.523998,0.05644 2.285998,0.05644 h 0.282222 c 0.282222,0 0.592666,0.02822 0.90311,0.02822 0.282222,0 0.592666,-0.02822 0.733777,-0.112889 0.310445,-0.169333 0.564444,-0.423333 1.044222,-0.705555 0.479777,-0.282222 0.592666,-0.451555 0.592666,-0.564444 0,-0.225778 -1.213555,-0.818444 -5.221107,-0.818444 h -0.08467 c -4.515552,0 -6.406439,0.846666 -7.591771,1.382888 -1.975555,0.90311 -3.104443,1.636887 -4.882441,3.273775 -1.580443,1.467554 -2.17311,2.624665 -2.398887,3.132664 -0.366889,0.987777 -0.536222,2.568221 -0.536222,2.596443 v 0.225777 c 0,0.141111 0.112889,0.536222 0.112889,0.536222 0,0 0.846666,0.338667 0.987777,0.366889 0.05644,0 0.08467,0.02822 0.141111,0.02822 1.241777,0 2.765775,-0.959555 3.132664,-1.213555 0.366889,-0.253999 0.423333,-0.451555 0.423333,-0.987777 z m 2.850442,2.285998 c 0,0.141111 0.08467,0.282222 0.169334,0.423333 0.253999,0.479778 2.511775,0.903111 2.878664,0.903111 1.015999,0 2.652887,-1.157111 2.991553,-1.523999 0.225778,-0.254 0.536222,-0.395111 0.536222,-0.903111 0,-0.90311 -2.793998,-1.552221 -3.047998,-1.552221 -0.253999,0 -3.527775,1.523999 -3.527775,2.652887 z m 12.756435,-2.398887 c -0.790222,0 -2.229554,0.874888 -3.612442,1.66511 -0.423333,0.254 -0.197555,1.777999 -0.705555,3.358442 -0.507999,1.721554 -0.733777,2.398887 -1.919109,3.019775 -1.806221,0.903111 -5.164663,0.931333 -5.587996,0.931333 -0.508,0 -0.987777,-0.02822 -4.628441,-0.02822 h -0.479777 c -1.241777,0 -1.580444,0.02822 -2.483554,0.64911 -0.677333,0.423333 -1.91911,1.354666 -1.91911,1.580443 0,0.05645 0.282222,0.197556 0.423333,0.310445 0.790222,0.423333 0.931333,0.451555 1.495777,0.451555 0.02822,0 1.354666,-0.05644 3.555997,-0.05644 h 1.495777 c 4.007552,0 7.083772,-0.987777 7.168439,-1.015999 1.777998,-0.507999 3.838219,-1.862665 4.317996,-2.173109 2.17311,-1.467555 3.499553,-2.455332 3.640664,-7.111995 v -0.64911 c 0,-0.762 -0.08467,-0.931333 -0.451555,-0.931333 z m 21.36419,-8.269105 c -0.677333,0.169334 -0.959555,0.282222 -1.015999,0.762 -0.02822,0.141111 -0.141111,0.395111 -0.225778,0.564444 -1.044221,2.539998 -1.495777,3.527775 -4.713108,9.510881 -3.386664,5.841996 -4.317996,8.72066 -4.346218,8.833549 -0.141111,0.254 -0.254,0.423333 -0.254,0.564444 0,0.141111 0.141111,0.197555 0.423333,0.197555 0.761999,0 4.035774,-0.64911 4.402663,-0.874888 0.423333,-0.282222 0.959555,-2.201331 1.382888,-3.104442 0.564444,-1.298221 3.697108,-6.688661 4.910663,-8.946437 0.05644,-0.08467 3.612441,-6.716884 3.612441,-8.297327 v -0.08467 c -0.02822,-0.141111 -0.112888,-0.169333 -0.253999,-0.169333 -0.169334,0 -3.866442,1.044221 -3.922886,1.044221 z M 80.417437,68.053125 c -1.919109,0 -4.430885,1.552221 -4.430885,2.850442 0,0.564444 0.451555,2.088443 2.624665,2.088443 1.919109,0 4.374441,-1.269999 4.374441,-2.56822 0,-0.479778 -0.254,-0.987777 -0.536222,-1.382888 -0.649111,-0.959555 -1.269999,-0.987777 -1.777999,-0.987777 z m 35.701053,20.856206 c -0.0282,0 -0.0282,0.02822 -0.0282,0.05644 0,0 0.0282,0.112889 0.28222,0.112889 1.49578,0 3.66889,-1.044221 4.23333,-1.326443 0.16934,-0.112889 0.42334,-0.112889 0.53623,-0.282222 0.11289,-0.169333 0.11289,-0.592666 0.11289,-1.100666 v -1.128888 c 0.11288,-3.189109 0.11288,-4.543774 0.11288,-5.587996 v -1.298221 c 0,-1.044221 -0.0282,-2.116665 -0.0282,-3.160886 0,-0.141111 0.0282,-0.282222 0.0282,-0.423333 0,-0.05644 0.0847,-3.555998 0.0847,-5.418663 l 0.0282,-1.41111 c -0.0847,-0.08467 -0.19755,-0.112889 -0.36689,-0.112889 -0.62088,0 -1.63688,0.620889 -2.82222,0.987777 -0.254,0.112889 -1.01599,0.395111 -1.41111,0.790222 -0.33866,0.338666 -0.36688,1.862665 -0.39511,3.33022 -0.0564,2.737553 0,3.076219 -0.508,3.612441 -1.07244,1.072444 -1.32644,1.326444 -2.87866,2.596443 -2.59644,2.088443 -4.48733,3.753552 -7.08377,5.475107 -2.032,1.382887 -1.55222,1.15711 -2.45533,1.665109 -0.79023,0.423333 -2.22956,2.088443 -2.22956,2.314221 0,0.141111 0.42333,0.254 1.32645,0.254 h 0.50799 c 1.46756,-0.02822 2.96334,-0.987777 5.05178,-2.568221 l 2.22955,-1.552221 c 0.62089,-0.39511 1.21356,-0.818443 1.83445,-1.213554 0.90311,-0.649111 3.86644,-3.07622 3.92288,-3.07622 0.0847,0 0.11289,0.254 0.11289,1.185332 0,0.649111 -0.0282,1.495777 -0.0282,2.031999 v 0.90311 c 0,1.439332 -0.11289,4.346219 -0.16934,4.346219 z M 106.2125,68.137792 c -0.36689,0 -0.87489,0.05644 -1.24177,0.169333 -0.90311,0.225777 -3.52778,2.003776 -3.52778,3.245553 v 0.02822 c 0.0282,0.536222 0.59267,0.959555 0.95956,1.326443 0.39511,0.395111 0.84666,0.818444 1.89088,0.818444 0.39511,0 0.84667,-0.05644 1.21356,-0.169333 0.47977,-0.141111 3.41488,-1.636888 3.41488,-2.935109 v -0.02822 c -0.0564,-1.15711 -1.38288,-2.455331 -2.70933,-2.455331 z m 29.32288,0.02822 h -1.46755 -3.97933 -0.53622 c -1.12889,0 -3.01978,0.310444 -3.92289,0.536222 -0.31044,0.08467 -1.32644,1.269999 -1.46756,1.495776 -0.0847,0.112889 -0.14111,1.044222 -0.14111,1.834443 0,0.08467 0.22578,3.443109 0.22578,7.789328 0,4.289774 -0.19755,7.309549 -0.19755,7.394216 0,0.112889 0,1.382888 1.15711,1.382888 0.14111,0 0.22577,-0.02822 0.36689,-0.02822 0,0 0.19755,0.02822 0.33866,0.02822 0.11289,0 5.41866,-0.112889 9.84955,-0.112889 h 2.17311 c 0.56444,0 0.39511,-0.02822 0.70555,-0.02822 0.62089,0 3.81,0.141111 3.83822,0.141111 0.14111,0 0.36689,-0.338667 0.53622,-0.479778 0.33867,-0.310444 0.79023,-0.564444 1.04423,-0.931332 0.16933,-0.254 0.53622,-0.790222 0.53622,-1.015999 0,-0.05644 0,-0.05644 -0.0564,-0.05644 h -0.0282 l -0.73378,0.02822 -3.49955,-0.141111 c -1.86266,-0.08467 -4.45911,-0.141111 -5.36222,-0.141111 h -2.06022 -0.31044 c -1.07245,0 -1.27,0.08467 -2.17311,0.08467 -0.79022,0 -1.69333,-0.02822 -1.74978,-0.08467 0,-0.02822 -0.0282,-0.282222 -0.0282,-0.64911 0,-2.596443 0.16933,-4.99533 0.16933,-7.591772 0,-2.793998 -0.19755,-3.640664 -0.19755,-4.261552 0,-0.395111 0.0564,-0.225778 0.0564,-0.508 0,-0.508 -0.11289,-1.044221 -0.11289,-1.354666 0,-0.169333 0.0282,-0.253999 0.14111,-0.310444 0.62089,-0.395111 3.35845,-0.254 5.05178,-0.338666 0.79022,-0.02822 2.00377,-0.08467 3.86644,-0.08467 0.79022,0 1.60867,0.08467 2.39889,0.08467 1.83444,0 1.69333,-0.197556 2.06022,-0.197556 0.0847,0 0.0847,0.02822 0.14111,0.02822 0.31044,0 2.17311,-2.060221 2.17311,-2.314221 0,-0.141111 -0.14111,-0.197555 -1.04422,-0.197555 h -1.32645 -0.70555 z m 1.38289,11.03488 c 0,0.254 0.64911,0.987777 1.07244,1.15711 0.33867,0.141111 1.016,0.395111 1.38289,0.395111 0.56445,0 1.04422,-0.423333 1.55222,-0.705555 0.508,-0.282222 1.016,-0.620888 1.49578,-0.987777 0.39511,-0.338666 1.04422,-0.620888 1.12889,-1.15711 v -0.05644 c 0,-0.762 -1.63689,-1.580444 -2.31422,-1.580444 -1.43934,0 -4.318,2.257776 -4.318,2.935109 z m 12.47419,-8.748882 c 0.39511,0 0.87489,-0.112889 1.24178,-0.112889 h 0.28222 c 1.016,0 1.89089,-0.197555 3.61244,-0.197555 0.762,0 5.24933,0.02822 6.71689,1.213554 3.18911,2.455332 3.78177,6.124218 3.78177,8.692438 0,2.17311 -0.42333,4.656663 -1.60866,5.559774 -0.56445,0.479777 -2.54,0.90311 -3.97933,0.90311 -0.28223,0 -2.56822,-0.197555 -2.59645,-0.197555 -5.4751,-0.366889 -4.2051,-0.451556 -5.07999,-0.451556 -0.39511,0 -0.762,0.141111 -1.778,0.508 -0.79022,0.282222 -2.31422,1.495777 -2.31422,1.806221 0,0.112889 0.11289,0.141111 0.28222,0.141111 0.16933,0 0.36689,-0.05644 0.73378,-0.05644 0.0847,0 5.19288,0.508 8.04332,0.508 4.03578,0 7.95867,-1.241777 9.79311,-2.624665 2.59644,-1.919109 2.70933,-2.511775 3.07622,-4.995329 0.0847,-0.649111 0.16933,-1.241777 0.16933,-2.229554 0,-4.48733 -1.97555,-7.732883 -4.65666,-9.228659 -2.62467,-1.495777 -4.88244,-1.693332 -6.57577,-1.693332 -0.11289,0 -10.07533,0.366888 -10.18822,1.890887 0.16933,0.508 0.90311,0.564444 1.04422,0.564444 z m 1.60867,10.018881 c 0.28222,0 2.11666,-0.310444 3.38666,-1.552221 0.39511,-0.395111 1.21356,-1.072443 1.21356,-1.185332 0,-0.395111 -0.56445,-0.874889 -1.21356,-1.439333 -0.254,-0.225777 -0.31044,-0.253999 -0.67733,-0.253999 -0.508,0 -0.56444,0 -2.286,0.818443 -1.72155,0.790222 -2.25777,1.326444 -2.25777,2.229554 0,1.128888 1.52399,1.382888 1.83444,1.382888 z m 33.30218,-12.304879 h -1.46755 -3.97933 -0.53623 c -1.12888,0 -3.01977,0.310444 -3.92288,0.536222 -0.31045,0.08467 -1.32644,1.269999 -1.46756,1.495776 -0.0847,0.112889 -0.14111,1.044222 -0.14111,1.834443 0,0.08467 0.22578,3.443109 0.22578,7.789328 0,4.289774 -0.19755,7.309549 -0.19755,7.394216 0,0.112889 0,1.382888 1.15711,1.382888 0.14111,0 0.22577,-0.02822 0.36688,-0.02822 0,0 0.19756,0.02822 0.33867,0.02822 0.11289,0 5.41866,-0.112889 9.84955,-0.112889 h 2.17311 c 0.56444,0 0.39511,-0.02822 0.70555,-0.02822 0.62089,0 3.81,0.141111 3.83822,0.141111 0.14111,0 0.36689,-0.338667 0.53622,-0.479778 0.33867,-0.310444 0.79023,-0.564444 1.04423,-0.931332 0.16933,-0.254 0.53622,-0.790222 0.53622,-1.015999 0,-0.05644 0,-0.05644 -0.0565,-0.05644 h -0.0282 l -0.73378,0.02822 -3.49955,-0.141111 c -1.86266,-0.08467 -4.45911,-0.141111 -5.36222,-0.141111 h -2.06022 -0.31044 c -1.07245,0 -1.27,0.08467 -2.17311,0.08467 -0.79022,0 -1.69333,-0.02822 -1.74978,-0.08467 0,-0.02822 -0.0282,-0.282222 -0.0282,-0.64911 0,-2.596443 0.16933,-4.99533 0.16933,-7.591772 0,-2.793998 -0.19755,-3.640664 -0.19755,-4.261552 0,-0.395111 0.0564,-0.225778 0.0564,-0.508 0,-0.508 -0.11289,-1.044221 -0.11289,-1.354666 0,-0.169333 0.0282,-0.253999 0.14111,-0.310444 0.62089,-0.395111 3.35845,-0.254 5.05178,-0.338666 0.79022,-0.02822 2.00377,-0.08467 3.86644,-0.08467 0.79022,0 1.60866,0.08467 2.39889,0.08467 1.83444,0 1.69333,-0.197556 2.06022,-0.197556 0.0847,0 0.0847,0.02822 0.14111,0.02822 0.31044,0 2.17311,-2.060221 2.17311,-2.314221 0,-0.141111 -0.14111,-0.197555 -1.04422,-0.197555 h -1.32645 -0.70555 z m 1.38289,11.03488 c 0,0.254 0.64911,0.987777 1.07244,1.15711 0.33867,0.141111 1.016,0.395111 1.38289,0.395111 0.56444,0 1.04422,-0.423333 1.55222,-0.705555 0.508,-0.282222 1.016,-0.620888 1.49578,-0.987777 0.39511,-0.338666 1.04422,-0.620888 1.12889,-1.15711 v -0.05644 c 0,-0.762 -1.63689,-1.580444 -2.31422,-1.580444 -1.43934,0 -4.318,2.257776 -4.318,2.935109 z m 28.61728,6.575773 h -1.43933 c -0.0282,0 -0.762,0.02822 -1.91911,0.02822 -0.79022,0 -1.83444,0 -2.90689,-0.02822 -0.53622,0 -1.04422,-0.02822 -1.55222,-0.02822 -1.35466,0 -2.59644,0.02822 -3.89466,0.02822 h -1.12889 c -0.254,-4.092219 -0.33866,-13.320879 -0.33866,-13.46199 v -1.721554 c 0,-1.015999 -0.0564,-1.975554 -0.28223,-2.285998 -0.22577,-0.282222 -0.254,-0.423333 -0.47977,-0.423333 0,0 -2.45534,0.564444 -3.83822,1.834443 0,0 -0.0565,2.201331 -0.0565,3.273775 0,0.874888 -0.0282,1.66511 -0.0282,2.539998 v 1.213555 c 0,3.894663 0.0282,7.30955 0.254,11.486435 l 0.67733,0.225778 c 0.64911,0.225777 1.12889,0.225777 4.62844,0.282222 2.08845,0.02822 2.794,0.02822 3.18911,0.02822 h 4.48733 c 1.016,0 1.91911,0 2.14489,-0.02822 1.97555,-0.225778 3.33022,-2.229554 3.33022,-2.596443 0,-0.366888 -0.62089,-0.366888 -0.84667,-0.366888 z m 4.62846,3.443108 c 0.64911,0 1.91911,-0.705555 2.25778,-0.818444 0.36688,-0.141111 1.86266,-0.705555 2.4271,-1.015999 0.22578,-0.141111 0.28223,-0.112889 0.28223,-0.423333 0,-0.02822 -0.0564,-1.693332 -0.0564,-2.878664 0,-1.91911 0.11289,-1.495777 0.11289,-2.681109 0,-0.479778 -0.0564,-0.959555 -0.0564,-1.439332 0,-0.141111 0.0847,-7.619995 0.11289,-9.22866 0,0 0.0564,-0.987777 0.0564,-1.495777 v -1.044221 c 0,-0.536222 -0.0564,-0.564444 -0.19756,-0.564444 -0.36688,0 -3.49955,1.269999 -4.31799,1.834443 l -0.36689,0.225778 -0.0847,1.326443 c -0.0847,1.241777 -0.16933,13.46199 -0.16933,13.603101 -0.0847,1.072443 -0.0847,1.693332 -0.14111,2.963331 0,0 -0.11289,0.507999 -0.11289,0.931332 0,0.677333 0.16933,0.705555 0.254,0.705555 z m 19.21931,-0.366888 c 0.79022,0 1.778,0.02822 2.65289,0.02822 0.90311,0 1.69333,-0.02822 2.00377,-0.282222 0.62089,-0.508 0.81845,-0.592666 0.98778,-0.762 0.0282,-0.02822 1.07244,-1.439332 1.07244,-1.80622 0,-0.08467 0,-0.112889 -0.11288,-0.112889 -0.0564,0 -5.24933,-0.197556 -6.01133,-0.197556 h -0.64911 c -2.22956,0 -4.572,-0.112888 -6.096,-1.777998 -0.36689,-0.366889 -0.62089,-0.762 -0.62089,-0.874888 0,-0.508 -0.62089,-0.169334 -0.62089,-3.922886 0,-2.201332 0.36689,-3.866442 1.04423,-5.164663 0.39511,-0.733777 1.94733,-2.342443 3.10444,-2.850442 0.62089,-0.254 1.69333,-0.620889 3.86644,-0.620889 2.20133,0 2.99155,0.338667 3.61244,0.338667 0.90311,0 2.08844,-1.523999 2.08844,-1.91911 0,-0.225777 -0.87488,-0.592666 -1.41111,-0.733777 -0.254,-0.08467 -0.79022,-0.112889 -1.43933,-0.112889 -0.98778,0 -2.20133,0.08467 -3.07622,0.225778 -5.44688,0.90311 -9.31332,5.221107 -9.39799,5.305773 -0.16933,0.254 -0.508,0.649111 -0.73378,0.903111 -0.47978,0.507999 -1.016,1.721554 -1.43933,3.07622 -0.36689,1.15711 -0.36689,2.652887 -0.36689,4.571996 0,1.439332 0.0847,1.806221 0.56444,2.991553 0.47978,1.185333 1.24178,1.975554 2.68111,2.765776 1.32645,0.733777 1.58045,0.733777 4.45911,0.846666 1.016,0.05644 2.06022,0.08467 3.10444,0.08467 z"
       id="text2"
       aria-label="psyʞedelic" />
  </g>
</svg>
