<?xml version="1.0" encoding="UTF-8" standalone="no"?>
<!-- Created with Inkscape (http://www.inkscape.org/) -->

<svg
   width="947.21338"
   height="292.27985"
   viewBox="0 0 250.61688 77.332378"
   version="1.1"
   id="svg1"
   inkscape:version="1.4 (86a8ad7, 2024-10-11)"
   sodipodi:docname="Word Hangeulic Regular Third Fourth Fifth Eighth.svg"
   xmlns:inkscape="http://www.inkscape.org/namespaces/inkscape"
   xmlns:sodipodi="http://sodipodi.sourceforge.net/DTD/sodipodi-0.dtd"
   xmlns="http://www.w3.org/2000/svg"
   xmlns:svg="http://www.w3.org/2000/svg">
  <sodipodi:namedview
     id="namedview1"
     pagecolor="#ffffff"
     bordercolor="#000000"
     borderopacity="0.25"
     inkscape:showpageshadow="2"
     inkscape:pageopacity="0.0"
     inkscape:pagecheckerboard="0"
     inkscape:deskcolor="#d1d1d1"
     inkscape:document-units="px"
     inkscape:zoom="1.0393815"
     inkscape:cx="487.30904"
     inkscape:cy="176.5473"
     inkscape:window-width="1920"
     inkscape:window-height="1027"
     inkscape:window-x="-8"
     inkscape:window-y="-8"
     inkscape:window-maximized="1"
     inkscape:current-layer="layer1" />
  <defs
     id="defs1" />
  <g
     inkscape:label="Layer 1"
     inkscape:groupmode="layer"
     id="layer1"
     transform="translate(-151.4368,-55.77468)">
    <text
       xml:space="preserve"
       style="font-size:28.2222px;line-height:1.5;font-family:'BlockTrain Hand';-inkscape-font-specification:'BlockTrain Hand';text-align:start;writing-mode:lr-tb;direction:ltr;text-anchor:start;display:none;fill:#19919b;fill-opacity:1;stroke:#7c7c7c;stroke-width:0.79375;stroke-dasharray:none;stroke-opacity:1"
       x="276.74524"
       y="88.739998"
       id="text1"><tspan
         sodipodi:role="line"
         style="font-style:normal;font-variant:normal;font-weight:normal;font-stretch:normal;font-size:28.2222px;line-height:1.5;font-family:'NewEng Hangeul';-inkscape-font-specification:'NewEng Hangeul';text-align:center;text-anchor:middle;fill:#19919b;fill-opacity:1;stroke:#7c7c7c;stroke-width:0.79375;stroke-dasharray:none;stroke-opacity:1"
         x="276.74524"
         y="88.739998"
         id="tspan2">Þird Fȣ̊rþ</tspan><tspan
         sodipodi:role="line"
         style="font-style:normal;font-variant:normal;font-weight:normal;font-stretch:normal;font-size:28.2222px;line-height:1.5;font-family:'NewEng Hangeul';-inkscape-font-specification:'NewEng Hangeul';text-align:center;text-anchor:middle;fill:#19919b;fill-opacity:1;stroke:#7c7c7c;stroke-width:0.79375;stroke-dasharray:none;stroke-opacity:1"
         x="276.74524"
         y="131.0733"
         id="tspan1">Fifþ Eiȝtþ</tspan></text>
    <g
       id="text6"
       style="font-size:28.2222px;line-height:1.5;font-family:'BlockTrain Hand';-inkscape-font-specification:'BlockTrain Hand';fill:#19919b;stroke:#7c7c7c;stroke-width:0.79375"
       aria-label="Þird Fȣ̊rþ&#10;Fifþ Eiȝtþ">
      <path
         style="font-family:'NewEng Hangeul';-inkscape-font-specification:'NewEng Hangeul';text-align:center;text-anchor:middle"
         d="m 162.05013,68.561125 v 20.940872 l 0.70555,0.874888 2.82222,-2.370664 v -3.58422 h 15.52221 l 2.032,-1.693332 v 0.846666 l 0.70556,0.846666 2.82222,-2.342442 V 72.99201 l -0.73378,-0.874888 h -18.45732 l -1.89089,1.580443 v -6.632217 l -0.73378,-0.874888 z m 3.52777,6.773328 h 17.55421 v 5.870217 h -15.66332 l -1.89089,1.580444 z m 24.60976,-5.926662 h 11.65577 l -1.94733,1.636887 v 15.832655 l 0.22578,0.253999 h -7.84577 l -2.794,2.370665 0.70555,0.874888 h 20.94088 l 2.82222,-2.370664 -0.73378,-0.874889 h -11.85332 l 2.08844,-1.749776 V 69.548902 l -0.11289,-0.141111 h 7.78933 l 2.82222,-2.342443 -0.73378,-0.874888 h -20.94087 l -2.794,2.370665 z M 216.773,68.561125 v 20.940872 l 0.70556,0.874888 2.82222,-2.370664 v -8.099772 h 11.62755 l -2.08845,1.749777 0.73378,0.846666 7.84577,7.873993 2.82222,-2.370664 -0.73377,-0.874889 -7.25311,-7.224883 h 2.56822 l 1.89089,-1.608665 v 0.733777 l 0.70555,0.874888 2.82222,-2.370665 V 67.065348 l -0.73377,-0.874888 h -18.31621 l -1.89089,1.608665 V 67.065348 L 219.567,66.19046 Z m 3.52778,0.846666 h 17.4131 v 7.253105 h -15.52221 l -1.89089,1.608666 z m 23.76312,-0.846666 v 20.940872 l 0.70555,0.874888 2.82222,-2.370664 v -18.59843 h 12.89755 l 4.51555,4.515552 v 11.175991 l 0.70556,0.874888 2.82222,-2.370665 V 72.286455 l -0.73378,-0.846666 -5.22111,-5.249329 h -13.0951 l -1.89089,1.608665 V 67.065348 L 246.8579,66.19046 Z m 3.33022,21.81576 h 13.0951 c 1.43933,-1.241776 2.90689,-2.455331 4.34622,-3.668886 l -0.70556,-0.874888 -1.55222,1.298221 h -13.0951 l -2.82222,2.370665 z m 41.59956,-20.969094 h 1.38289 l -2.08844,1.777998 v 18.316208 l 0.70555,0.874888 2.82222,-2.370664 v -8.099772 h 12.89755 l 2.79399,-2.370665 -0.70555,-0.874888 h -13.0951 l -1.89089,1.608666 v -8.579549 l -0.22578,-0.282222 h 18.34443 l 2.82222,-2.342443 -0.73377,-0.874888 h -20.94088 l -2.79399,2.370665 z m 43.17999,20.969094 c 0.81844,0 1.24178,0 1.46755,-0.197555 l 2.82222,-2.370665 c 0.254,-0.197555 0.254,-0.677333 0.254,-1.636887 l -0.73377,-0.874889 -2.17311,1.834443 h -15.1271 c -1.49578,0 -2.37067,-0.112888 -2.87867,-0.112888 -0.0282,-0.225778 -0.0282,-0.508 -0.0282,-0.846666 v -6.293551 c 0.254,0.02822 0.53622,0.02822 0.79022,0.02822 h 13.6031 c 1.35467,0 2.22956,0.197556 2.76578,0.564444 0.22578,0.536222 0.254,1.213555 0.254,1.890888 v 2.737553 l 0.70555,0.874888 2.82222,-2.370665 v -2.737553 c 0,-0.90311 0,-1.777999 -0.53622,-2.398887 l -0.73377,-0.846666 c -0.14112,-0.197555 -0.33867,-0.338666 -0.59267,-0.479777 l 1.38289,-1.157111 c 0.31044,-0.282222 0.47977,-0.733777 0.47977,-1.439332 v -7.478883 l -0.73377,-0.874888 -2.794,2.370665 v 7.45066 l -0.81844,0.649111 c -0.0282,0 -0.0847,0 -0.11289,0 h -13.6031 c -1.07245,0 -2.11667,0 -2.82222,-0.366889 -0.0282,-0.169333 -0.0564,-0.338666 -0.0564,-0.564444 v -8.664215 l -0.73378,-0.874888 -2.79399,2.370665 v 8.664215 c 0,0.479778 0.11289,0.818444 0.33866,1.072444 l 0.70556,0.874888 c 0.14111,0.141111 0.28222,0.254 0.47978,0.366889 l -1.524,1.269999 v 6.857994 c 0,0.733777 0,1.15711 0.22577,1.439332 l 0.70556,0.846666 c 0.36689,0.423333 1.21355,0.423333 3.41489,0.423333 z m -5.95489,-34.20533 c -0.62089,0 -1.55222,0.112889 -2.42711,0.846666 l -2.59644,2.17311 c -0.11289,0.08467 -0.22578,0.197555 -0.33867,0.338666 l 0.19756,0.225778 -0.67734,0.564444 c -0.0847,0.254 -0.0847,0.310444 -0.0847,0.592666 0,1.100666 0.47977,1.693332 0.62089,1.834443 l 0.53622,0.649111 c 0.56444,0.64911 1.41111,1.044221 2.42711,1.044221 0.11289,0 0.42333,-0.02822 0.42333,-0.02822 0.56444,0 1.60867,-0.112889 2.42711,-0.790222 l 2.59644,-2.173109 c 0.22578,-0.197556 0.42333,-0.423333 0.59267,-0.705555 l -0.36689,-0.451555 0.64911,-0.536222 c 0.0282,-0.141111 0.0282,-0.254 0.0282,-0.395111 0,-0.310444 -0.0847,-0.592666 -0.16933,-0.874888 -0.11289,-0.282222 -0.16933,-0.338667 -0.93133,-1.241777 -0.42334,-0.508 -1.21356,-1.072444 -2.48356,-1.072444 -0.11289,0 -0.42333,0 -0.42333,0 z M 323.453,59.05022 c 0.254,-0.02822 0.508,-0.05645 0.70556,-0.05645 0,0 0.31044,0 0.42333,0 1.016,0 1.74978,0.366889 2.20133,0.762 0.16934,0.282222 0.31045,0.733777 0.31045,1.15711 0,0.112889 -0.0282,0.225778 -0.0282,0.366889 l 0.16933,0.225777 c -0.33867,0.08467 -0.64911,0.08467 -0.87489,0.08467 0,0 -0.31044,0 -0.42333,0 -0.84667,0 -1.58045,-0.254 -2.14489,-0.705555 -0.28222,-0.508 -0.36689,-1.072444 -0.36689,-1.495777 0,-0.169333 0,-0.254 0.0282,-0.338666 z m 16.08669,9.510905 v 20.940872 l 0.70556,0.874888 2.82222,-2.370664 v -8.099772 h 11.62754 l -2.08844,1.749777 0.73378,0.846666 7.84577,7.873993 2.82222,-2.370664 -0.73378,-0.874889 -7.2531,-7.224883 h 2.56822 l 1.89088,-1.608665 v 0.733777 l 0.70556,0.874888 2.82222,-2.370665 V 67.065348 l -0.73378,-0.874888 h -18.31621 l -1.89088,1.608665 v -0.733777 l -0.73378,-0.874888 z m 3.52778,0.846666 h 17.41309 v 7.253105 h -15.52221 l -1.89088,1.608666 z m 23.76311,-0.846666 v 20.940872 l 0.70556,0.874888 2.82222,-2.370664 v -3.58422 h 15.52221 l 2.032,-1.693332 v 0.846666 l 0.70555,0.846666 2.82222,-2.342442 V 72.99201 l -0.73377,-0.874888 h -18.45732 l -1.89089,1.580443 v -6.632217 l -0.73378,-0.874888 z m 3.52778,6.773328 h 17.55421 v 5.870217 h -15.66332 l -1.89089,1.580444 z"
         id="path6" />
      <path
         style="font-family:'NewEng Hangeul';-inkscape-font-specification:'NewEng Hangeul';text-align:center;text-anchor:middle"
         d="m 152.53923,111.74109 h 1.38289 l -2.08844,1.778 v 18.31621 l 0.70555,0.87489 2.82222,-2.37067 v -8.09977 H 168.259 l 2.794,-2.37067 -0.70556,-0.87488 h -13.0951 l -1.89089,1.60866 v -8.57955 l -0.22578,-0.28222 h 18.34444 l 2.82222,-2.34244 -0.73378,-0.87489 h -20.94087 l -2.794,2.37067 z m 23.96068,0 h 11.65577 l -1.94734,1.63689 v 15.83265 l 0.22578,0.254 h -7.84577 l -2.794,2.37067 0.70556,0.87489 h 20.94087 l 2.82222,-2.37067 -0.73378,-0.87489 H 187.6759 l 2.08844,-1.74977 V 111.8822 l -0.11289,-0.14111 h 7.78933 l 2.82222,-2.34244 -0.73378,-0.87489 h -20.94087 l -2.794,2.37067 z m 27.29089,0 h 1.38289 l -2.08844,1.778 v 18.31621 l 0.70555,0.87489 2.82222,-2.37067 v -8.09977 h 12.89755 l 2.794,-2.37067 -0.70556,-0.87488 h -13.0951 l -1.89089,1.60866 v -8.57955 l -0.22577,-0.28222 h 18.34443 l 2.82222,-2.34244 -0.73378,-0.87489 h -20.94087 l -2.794,2.37067 z m 23.25512,-0.84666 v 20.94087 l 0.70555,0.87489 2.82222,-2.37067 v -3.58422 h 15.52221 l 2.032,-1.69333 v 0.84667 l 0.70556,0.84666 2.82222,-2.34244 v -9.08755 l -0.73378,-0.87489 h -18.45732 l -1.89089,1.58045 v -6.63222 l -0.73377,-0.87489 z m 3.52777,6.77332 h 17.55421 v 5.87022 h -15.66332 l -1.89089,1.58044 z m 41.5431,-5.92666 h 1.38289 l -2.08844,1.778 v 18.31621 l 0.70555,0.87489 h 20.94088 l 2.82222,-2.37067 -0.73378,-0.87489 h -20.2071 v -7.22488 h 12.89755 l 2.794,-2.37067 -0.70556,-0.87488 h -13.37732 l -1.60867,1.35466 v -8.32555 l -0.22577,-0.28222 h 18.34443 l 2.82222,-2.34244 -0.73378,-0.87489 h -20.94087 l -2.794,2.37067 z m 27.2909,0 h 11.65577 l -1.94734,1.63689 v 15.83265 l 0.22578,0.254 h -7.84577 l -2.794,2.37067 0.70556,0.87489 h 20.94087 l 2.82222,-2.37067 -0.73378,-0.87489 h -11.85332 l 2.08844,-1.74977 V 111.8822 l -0.11289,-0.14111 h 7.78933 l 2.82222,-2.34244 -0.73378,-0.87489 h -20.94087 l -2.794,2.37067 z m 47.32865,0.0282 v 3.66889 l -4.31799,3.58422 h -7.64822 l -2.794,2.37066 0.70556,0.87489 h 7.64821 c 3.302,-2.76577 6.63222,-5.53155 9.93422,-8.29732 v -4.572 l -0.73378,-0.87489 h -20.74332 l -2.794,2.37067 0.70556,0.87488 z m -20.03776,20.94088 h 13.6031 c 3.33022,-2.794 6.66044,-5.53156 9.96244,-8.32555 v -4.48733 l -0.73378,-0.87489 h -3.95111 l -2.794,2.37066 0.70556,0.87489 h 3.21733 v 3.58422 l -4.318,3.61244 h -13.6031 l -2.794,2.37067 z m 27.09334,-20.9691 h 11.85332 l -2.08844,1.778 v 18.31621 l 0.70555,0.87489 2.82222,-2.37067 v -18.31621 l -0.22577,-0.28222 h 7.87399 l 2.82222,-2.34244 -0.73378,-0.87489 h -20.94087 l -2.794,2.37067 z m 23.25512,-0.84666 v 20.94087 l 0.70556,0.87489 2.82222,-2.37067 v -3.58422 h 15.52221 l 2.03199,-1.69333 v 0.84667 l 0.70556,0.84666 2.82222,-2.34244 v -9.08755 l -0.73378,-0.87489 H 382.4657 l -1.89088,1.58045 v -6.63222 l -0.73378,-0.87489 z m 3.52778,6.77332 h 17.5542 v 5.87022 H 382.4657 l -1.89088,1.58044 z"
         id="path7" />
    </g>
  </g>
</svg>
