<?xml version="1.0" encoding="UTF-8" standalone="no"?>
<!-- Created with Inkscape (http://www.inkscape.org/) -->

<svg
   width="471.18433"
   height="94.068069"
   viewBox="0 0 124.66752 24.888843"
   version="1.1"
   id="svg1"
   inkscape:version="1.4 (86a8ad7, 2024-10-11)"
   sodipodi:docname="Word Aether Circle.svg"
   xmlns:inkscape="http://www.inkscape.org/namespaces/inkscape"
   xmlns:sodipodi="http://sodipodi.sourceforge.net/DTD/sodipodi-0.dtd"
   xmlns="http://www.w3.org/2000/svg"
   xmlns:svg="http://www.w3.org/2000/svg">
  <sodipodi:namedview
     id="namedview1"
     pagecolor="#ffffff"
     bordercolor="#000000"
     borderopacity="0.25"
     inkscape:showpageshadow="2"
     inkscape:pageopacity="0.0"
     inkscape:pagecheckerboard="0"
     inkscape:deskcolor="#d1d1d1"
     inkscape:document-units="px"
     inkscape:zoom="2.078763"
     inkscape:cx="226.81758"
     inkscape:cy="90.919453"
     inkscape:window-width="1512"
     inkscape:window-height="1018"
     inkscape:window-x="399"
     inkscape:window-y="0"
     inkscape:window-maximized="0"
     inkscape:current-layer="layer1" />
  <defs
     id="defs1" />
  <g
     inkscape:label="Layer 1"
     inkscape:groupmode="layer"
     id="layer1"
     transform="translate(-74.386934,-65.004272)">
    <text
       xml:space="preserve"
       style="font-size:28.2222px;line-height:1;font-family:'BlockTrain Hand';-inkscape-font-specification:'BlockTrain Hand';text-align:start;writing-mode:lr-tb;direction:ltr;text-anchor:start;display:none;fill:#19919b;fill-opacity:1;stroke:#7c7c7c;stroke-width:0.79375;stroke-dasharray:none;stroke-opacity:1"
       x="136.70659"
       y="88.739998"
       id="text1"><tspan
         sodipodi:role="line"
         id="tspan1"
         style="font-style:normal;font-variant:normal;font-weight:normal;font-stretch:normal;font-size:28.2222px;font-family:'NewEng Rune';-inkscape-font-specification:'NewEng Rune';text-align:center;text-anchor:middle;fill:#19919b;fill-opacity:1;stroke:#7c7c7c;stroke-width:0.79375;stroke-dasharray:none;stroke-opacity:1"
         x="136.70659"
         y="88.739998">æþer çircl</tspan></text>
    <path
       style="font-size:28.2222px;line-height:1;font-family:'NewEng Rune';-inkscape-font-specification:'NewEng Rune';text-align:center;text-anchor:middle;fill:#19919b;stroke:#7c7c7c;stroke-width:0.79375"
       d="m 88.164425,66.162238 -6.773329,22.57776 0.254,0.64911 1.806221,-0.64911 5.813773,-19.247541 c 0.479778,1.326444 0.874889,2.596443 1.354666,3.922886 l -2.455331,4.035775 0.253999,0.64911 6.773328,11.28888 1.834443,-0.64911 -0.197555,-0.649111 -6.039551,-9.990659 h 4.402663 l 1.834443,-0.64911 -0.197555,-0.649111 H 90.6762 l 6.349995,-10.639769 -0.197555,-0.649111 -1.890887,0.649111 -3.019776,5.023551 -1.66511,-5.023551 -0.197555,-0.649111 z m 11.683972,0 v 4.515552 13.546656 4.515552 l 0.254003,0.64911 1.80622,-0.64911 v -4.515552 l 6.80155,-6.773328 -0.19756,-0.649111 -6.60399,-6.575773 v -4.063996 l -0.16934,-0.649111 z m 2.060223,16.001987 v -8.97466 l 4.48733,4.48733 z m 12.13553,-5.362218 6.34999,-10.639769 -0.19755,-0.649111 -1.89089,0.649111 -6.77333,11.28888 0.254,0.64911 6.77333,11.28888 1.83444,-0.64911 -0.19755,-0.649111 -6.03955,-9.990659 h 4.40266 l 1.83444,-0.64911 -0.19755,-0.649111 z m 9.144,-10.639769 v 22.57776 l 0.254,0.64911 1.80622,-0.64911 V 81.20467 l 4.9671,8.184438 1.83445,-0.64911 -0.19756,-0.649111 -6.46288,-10.724436 6.66044,-5.559773 -0.19756,-0.649111 -6.77333,-5.64444 z m 6.4911,5.870217 -4.43088,3.668886 v -7.30955 z m 23.22687,-5.870217 -6.77333,11.28888 0.254,0.64911 1.94733,3.245553 -2.20133,3.640664 0.254,0.649111 1.72155,2.850442 1.80622,-0.649111 -0.19755,-0.705555 -1.38289,-2.31422 0.98778,-1.721554 3.83822,6.29355 1.83444,-0.64911 -0.19756,-0.649111 -4.51555,-7.535327 -1.94733,-3.217331 6.66044,-11.175991 -0.19756,-0.649111 z m 4.91065,0 v 22.57776 l 0.254,0.64911 1.80622,-0.64911 v -22.57776 l -0.16933,-0.649111 z m 4.88245,0 v 22.57776 l 0.254,0.64911 1.80622,-0.64911 V 81.20467 l 4.96711,8.184438 1.83444,-0.64911 -0.19756,-0.649111 -6.46288,-10.724436 6.66044,-5.559773 -0.19756,-0.649111 -6.77333,-5.64444 z m 6.4911,5.870217 -4.43088,3.668886 v -7.30955 z m 9.11577,-5.870217 -6.77333,11.28888 0.254,0.64911 6.77333,11.28888 1.83444,-0.64911 -0.19756,-0.649111 -6.46288,-10.752658 6.66044,-11.175991 -0.19756,-0.649111 z m 4.88244,22.57776 0.254,0.64911 1.80622,-0.64911 6.80155,-11.28888 -0.19756,-0.649111 -1.89088,0.649111 -4.71311,7.817549 V 66.162238 l -0.16933,-0.649111 -1.89089,0.649111 z"
       id="text2"
       aria-label="æþer çircl" />
  </g>
</svg>
