<?xml version="1.0" encoding="UTF-8" standalone="no"?>
<!-- Created with Inkscape (http://www.inkscape.org/) -->

<svg
   width="1210.7233"
   height="130.9875"
   viewBox="0 0 320.33718 34.657114"
   version="1.1"
   id="svg1"
   inkscape:version="1.4 (86a8ad7, 2024-10-11)"
   sodipodi:docname="Word Hangeulic Regular Clothing Weather.svg"
   xmlns:inkscape="http://www.inkscape.org/namespaces/inkscape"
   xmlns:sodipodi="http://sodipodi.sourceforge.net/DTD/sodipodi-0.dtd"
   xmlns="http://www.w3.org/2000/svg"
   xmlns:svg="http://www.w3.org/2000/svg">
  <sodipodi:namedview
     id="namedview1"
     pagecolor="#ffffff"
     bordercolor="#000000"
     borderopacity="0.25"
     inkscape:showpageshadow="2"
     inkscape:pageopacity="0.0"
     inkscape:pagecheckerboard="0"
     inkscape:deskcolor="#d1d1d1"
     inkscape:document-units="px"
     inkscape:zoom="0.84032951"
     inkscape:cx="615.82985"
     inkscape:cy="169.57634"
     inkscape:window-width="1920"
     inkscape:window-height="1027"
     inkscape:window-x="-8"
     inkscape:window-y="-8"
     inkscape:window-maximized="1"
     inkscape:current-layer="layer1" />
  <defs
     id="defs1" />
  <g
     inkscape:label="Layer 1"
     inkscape:groupmode="layer"
     id="layer1"
     transform="translate(23.460906,-57.63637)">
    <text
       xml:space="preserve"
       style="font-size:28.2222px;line-height:1;font-family:'BlockTrain Hand';-inkscape-font-specification:'BlockTrain Hand';text-align:start;writing-mode:lr-tb;direction:ltr;text-anchor:start;display:none;fill:#19919b;fill-opacity:1;stroke:#7c7c7c;stroke-width:0.79375;stroke-dasharray:none;stroke-opacity:1"
       x="136.70659"
       y="88.739998"
       id="text1"><tspan
         sodipodi:role="line"
         id="tspan1"
         style="font-style:normal;font-variant:normal;font-weight:normal;font-stretch:normal;font-size:28.2222px;font-family:'NewEng Hangeul';-inkscape-font-specification:'NewEng Hangeul';text-align:center;text-anchor:middle;fill:#19919b;fill-opacity:1;stroke:#7c7c7c;stroke-width:0.79375;stroke-dasharray:none;stroke-opacity:1"
         x="0"
         y="0">Clōðiŋ Ƕéðer</tspan></text>
    <path
       style="font-size:28.2222px;line-height:1;font-family:'NewEng Hangeul';-inkscape-font-specification:'NewEng Hangeul';text-align:center;text-anchor:middle;fill:#19919b;stroke:#7c7c7c;stroke-width:0.79375"
       d="m -22.198635,69.407791 h 1.382888 l -2.088443,1.777998 v 18.316208 l 0.705555,0.874888 h 20.9408725 l 2.82222,-2.370664 -0.73377722,-0.874889 H -19.376415 V 69.690013 l -0.225778,-0.282222 H -1.2577625 L 1.5644575,67.065348 0.83068028,66.19046 H -20.110192 l -2.793998,2.370665 z M 7.9144803,87.131332 V 67.065348 L 7.1807031,66.19046 4.3867052,68.561125 v 20.940872 l 0.705555,0.874888 H 26.033133 l 2.82222,-2.370664 -0.733777,-0.874889 z M 36.475375,62.634462 H 52.19514 L 54.791583,60.433131 54.227139,59.78402 H 38.535595 l -2.596442,2.201332 z m -4.825997,13.772434 v 5.24933 c 0,3.753552 0,5.700884 0.874889,6.716883 l 0.705555,0.874888 c 0.959555,1.128888 2.906886,1.128888 6.999105,1.128888 h 5.24933 c 3.753552,0 5.700884,0 6.745106,-0.874888 L 55.01736,87.159555 C 56.146248,86.2 56.146248,84.252668 56.146248,80.160449 V 74.91112 c 0,-3.753553 0,-5.700885 -0.874888,-6.745106 L 54.565805,67.319348 C 53.60625,66.19046 51.658919,66.19046 47.566699,66.19046 H 42.31737 c -3.753552,0 -5.700884,0 -6.745106,0.874888 l -2.793998,2.342443 c -1.128888,0.931332 -1.128888,2.906886 -1.128888,6.999105 z m 3.555998,-1.495776 c 0,-2.483554 0,-4.176886 0.225777,-5.333996 1.128888,0 2.681109,-0.169333 4.797774,-0.169333 h 5.24933 c 3.555997,0 5.531551,0 6.575772,0.761999 0,1.100666 0.536222,3.019775 0.536222,6.237106 v 5.24933 c 0,2.483553 0,4.176885 -0.225777,5.333995 -1.128888,0 -2.681109,0.141111 -4.797775,0.141111 H 42.31737 c -3.555997,0 -5.503329,0 -6.575772,-0.733777 0,-1.128888 -0.536222,-3.019775 -0.536222,-6.237106 z m 49.163102,8.692437 V 72.286455 L 83.634701,71.439789 78.413594,66.19046 H 65.318493 l -1.890887,1.608665 v -0.733777 l -0.733778,-0.874888 -2.82222,2.370665 v 5.277551 H 59.50472 l -2.793998,2.370665 0.705555,0.874888 h 2.455331 v 12.417768 l 0.733778,0.874888 2.82222,-2.370664 V 77.084229 h 5.023551 l 2.82222,-2.370665 -0.733777,-0.874888 h -7.111994 v -4.430885 h 12.897545 l 4.48733,4.515552 v 11.175991 l 0.733777,0.874888 z m -8.043327,6.773328 c 1.439333,-1.241776 2.906887,-2.455331 4.346219,-3.668886 l -0.705555,-0.874888 -1.552221,1.298221 H 65.318493 l -2.82222,2.370665 0.733777,0.874888 z M 87.896252,69.407791 H 99.55202 l -1.947332,1.636887 v 15.832655 l 0.225778,0.253999 h -7.845772 l -2.793997,2.370665 0.705555,0.874888 h 20.940868 l 2.82222,-2.370664 -0.73377,-0.874889 H 99.072243 l 2.088447,-1.749776 V 69.548902 l -0.11289,-0.141111 h 7.78932 l 2.82222,-2.342443 -0.73377,-0.874888 H 89.984694 l -2.793997,2.370665 z m 48.231778,20.969094 2.82222,-2.370664 V 67.065348 l -0.73378,-0.874888 -2.794,2.370665 v 7.986882 l -15.52221,-8.861771 -1.89089,1.608666 v -2.229554 l -0.73377,-0.874888 -2.794,2.370665 v 16.086654 l 0.70555,0.846666 2.82222,-2.342443 V 71.016456 l 15.52221,8.889993 1.89089,-1.608665 v 8.833548 h -14.08288 l -2.82222,2.370665 0.73378,0.874888 z m 22.5778,-20.997317 v 20.940873 l 1.15711,1.41111 5.41866,-4.543774 v -5.926662 h 2.42711 l 1.43933,-1.213555 v 10.272881 l 1.18533,1.41111 h 7.81755 l 1.55222,-1.326443 1.12889,1.326443 5.39044,-4.543774 V 66.246904 l -1.18533,-1.41111 -5.39044,4.543774 v 16.397099 h -3.92289 V 69.210235 l -1.18533,-1.41111 -5.39044,4.543774 v 2.963331 h -2.42711 l -1.43933,1.213555 V 66.246904 l -1.18533,-1.41111 z m 36.99932,-5.700884 c 2.82222,-0.282222 6.9991,-1.608666 8.91821,-2.709331 l 2.59645,-2.17311 -0.53623,-0.64911 c -1.91911,1.100665 -6.09599,2.398887 -8.94643,2.709331 l -2.56822,2.173109 z m -5.95489,5.729107 h 1.38289 l -2.08844,1.777998 v 18.316208 l 0.70555,0.874888 h 20.94088 l 2.82222,-2.370664 -0.73378,-0.874889 h -20.2071 v -7.224883 h 12.89755 l 2.794,-2.370665 -0.70556,-0.874888 h -13.37732 l -1.60867,1.354666 v -8.325549 l -0.22577,-0.282222 h 18.34443 l 2.82222,-2.342443 -0.73378,-0.874888 h -20.94087 l -2.794,2.370665 z m 51.98532,14.195766 V 72.286455 l -0.73378,-0.846666 -5.2211,-5.249329 h -13.0951 l -1.89089,1.608665 v -0.733777 l -0.73378,-0.874888 -2.82222,2.370665 v 5.277551 h -0.36689 l -2.79399,2.370665 0.70555,0.874888 h 2.45533 v 12.417768 l 0.73378,0.874888 2.82222,-2.370664 V 77.084229 h 5.02355 l 2.82222,-2.370665 -0.73378,-0.874888 h -7.11199 v -4.430885 h 12.89754 l 4.48733,4.515552 v 11.175991 l 0.73378,0.874888 z m -8.04333,6.773328 c 1.43934,-1.241776 2.90689,-2.455331 4.34622,-3.668886 l -0.70555,-0.874888 -1.55222,1.298221 h -13.0951 l -2.82222,2.370665 0.73377,0.874888 z m 11.57109,-20.969094 h 1.38289 l -2.08845,1.777998 v 18.316208 l 0.70556,0.874888 h 20.94087 l 2.82222,-2.370664 -0.73377,-0.874889 h -20.2071 v -7.224883 h 12.89755 l 2.79399,-2.370665 -0.70555,-0.874888 h -13.37732 l -1.60867,1.354666 v -8.325549 l -0.22578,-0.282222 h 18.34443 l 2.82222,-2.342443 -0.73377,-0.874888 h -20.94088 l -2.794,2.370665 z m 26.58537,-0.846666 v 20.940872 l 0.70555,0.874888 2.82222,-2.370664 v -8.099772 h 11.62755 l -2.08844,1.749777 0.73377,0.846666 7.84578,7.873993 2.82222,-2.370664 -0.73378,-0.874889 -7.25311,-7.224883 h 2.56822 l 1.89089,-1.608665 v 0.733777 l 0.70556,0.874888 2.82222,-2.370665 V 67.065348 l -0.73378,-0.874888 h -18.31621 l -1.89089,1.608665 v -0.733777 l -0.73377,-0.874888 z m 3.52777,0.846666 h 17.4131 v 7.253105 h -15.52221 l -1.89089,1.608666 z"
       id="text2"
       aria-label="Clōðiŋ Ƕéðer" />
  </g>
</svg>
