<?xml version="1.0" encoding="UTF-8" standalone="no"?>
<!-- Created with Inkscape (http://www.inkscape.org/) -->

<svg
   width="839.90588"
   height="108.49325"
   viewBox="0 0 222.2251 28.705506"
   version="1.1"
   id="svg1"
   inkscape:version="1.4 (86a8ad7, 2024-10-11)"
   sodipodi:docname="Word Leaf Tech Couple Should Ought.svg"
   xmlns:inkscape="http://www.inkscape.org/namespaces/inkscape"
   xmlns:sodipodi="http://sodipodi.sourceforge.net/DTD/sodipodi-0.dtd"
   xmlns="http://www.w3.org/2000/svg"
   xmlns:svg="http://www.w3.org/2000/svg">
  <sodipodi:namedview
     id="namedview1"
     pagecolor="#ffffff"
     bordercolor="#000000"
     borderopacity="0.25"
     inkscape:showpageshadow="2"
     inkscape:pageopacity="0.0"
     inkscape:pagecheckerboard="0"
     inkscape:deskcolor="#d1d1d1"
     inkscape:document-units="px"
     inkscape:zoom="1.0393815"
     inkscape:cx="458.44572"
     inkscape:cy="30.306485"
     inkscape:window-width="1920"
     inkscape:window-height="1027"
     inkscape:window-x="-8"
     inkscape:window-y="-8"
     inkscape:window-maximized="1"
     inkscape:current-layer="layer1" />
  <defs
     id="defs1" />
  <g
     inkscape:label="Layer 1"
     inkscape:groupmode="layer"
     id="layer1"
     transform="translate(-25.594047,-65.765363)">
    <text
       xml:space="preserve"
       style="font-size:28.2222px;line-height:1;font-family:'BlockTrain Hand';-inkscape-font-specification:'BlockTrain Hand';text-align:start;letter-spacing:0px;writing-mode:lr-tb;direction:ltr;text-anchor:start;display:none;fill:#17a23e;fill-opacity:0.854902;stroke:#4d804f;stroke-width:0.79375;stroke-dasharray:none;stroke-opacity:1"
       x="136.70659"
       y="88.739998"
       id="text1"><tspan
         sodipodi:role="line"
         id="tspan1"
         style="font-style:normal;font-variant:normal;font-weight:normal;font-stretch:normal;font-size:28.2222px;font-family:'Leaf Tech';-inkscape-font-specification:'Leaf Tech';text-align:center;letter-spacing:0px;text-anchor:middle;fill:#17a23e;fill-opacity:0.854902;stroke:#4d804f;stroke-width:0.79375;stroke-dasharray:none;stroke-opacity:1"
         x="0"
         y="0">Couple Should Ought</tspan></text>
    <path
       style="font-size:28.2222px;line-height:1;font-family:'Leaf Tech';-inkscape-font-specification:'Leaf Tech';text-align:center;letter-spacing:0px;text-anchor:middle;fill:#17a23e;fill-opacity:0.854902;stroke:#4d804f;stroke-width:0.79375"
       d="m 25.990922,66.19046 v 16.594654 c 0,3.301997 2.681109,5.954884 5.983106,5.954884 h 5.333996 c 0.338666,0 0.649111,-0.254 0.649111,-0.620889 0,-0.338666 -0.310445,-0.64911 -0.649111,-0.64911 h -5.333996 c -2.596442,0 -4.684885,-2.088443 -4.684885,-4.684885 V 67.460459 h 4.684885 c 2.596442,0 4.684885,2.088443 4.684885,4.684885 0,0.338666 0.282222,0.649111 0.649111,0.649111 0.338666,0 0.649111,-0.310445 0.649111,-0.649111 0,-3.301997 -2.681109,-5.954884 -5.983107,-5.954884 z m 22.775283,10.611547 h -5.926662 c -2.906887,0 -5.333996,2.088443 -5.89844,4.825996 -0.08467,0.395111 -0.112889,0.790222 -0.112889,1.185333 v 5.926662 h 5.954885 c 3.301997,0 5.983106,-2.681109 5.983106,-5.983107 z m -1.298221,1.298221 v 4.656663 c 0,2.596443 -2.088443,4.684886 -4.684885,4.684886 h -4.656664 v -4.628441 c 0,-2.624665 2.088443,-4.713108 4.713108,-4.713108 z m 3.640657,-1.298221 c -0.366889,0 -0.649111,0.282222 -0.649111,0.620889 v 5.305773 c 0,3.301998 2.709332,6.011329 6.011329,6.011329 h 5.926662 V 77.422896 c 0,-0.338667 -0.282222,-0.620889 -0.620888,-0.620889 -0.366889,0 -0.649111,0.282222 -0.649111,0.620889 v 10.018881 h -4.656663 c -2.624665,0 -4.713107,-2.088443 -4.713107,-4.713108 v -5.305773 c 0,-0.338667 -0.310445,-0.620889 -0.649111,-0.620889 z m 12.982207,0 v 16.622876 c 0,0.366889 0.282222,0.649111 0.64911,0.649111 0.338667,0 0.649111,-0.282222 0.649111,-0.649111 v -6.999106 c 1.100666,1.41111 2.765775,2.314221 4.684885,2.314221 h 5.954884 v -5.983107 c 0,-3.273775 -2.681109,-5.954884 -5.954884,-5.954884 z m 1.298221,1.269999 h 4.684885 c 2.596442,0 4.684885,2.088443 4.684885,4.684885 v 4.684886 h -4.684885 c -2.596442,0 -4.684885,-2.088443 -4.684885,-4.684886 z M 76.311078,66.811348 c 0,0.169333 0.05644,0.310444 0.169333,0.423333 1.15711,1.298221 1.862665,3.019776 1.862665,4.882441 v 5.333996 5.333996 c 0,1.834443 0.564444,3.527775 1.552221,4.910662 0.197556,0.310445 0.395111,0.564444 0.649111,0.818444 0.112889,0.141111 0.282222,0.225778 0.479777,0.225778 0.366889,0 0.649111,-0.282222 0.649111,-0.649111 0,-0.169333 -0.05644,-0.310444 -0.169333,-0.423333 -1.157111,-1.298221 -1.862666,-3.019775 -1.862666,-4.88244 v -5.333996 -5.333996 c 0,-2.201332 -0.846666,-4.205108 -2.201331,-5.729107 -0.141111,-0.141111 -0.310445,-0.225777 -0.479778,-0.225777 -0.366888,0 -0.64911,0.282222 -0.64911,0.64911 z m 5.644462,10.018881 v 5.89844 c 0,3.301998 2.709331,6.011329 6.011329,6.011329 h 5.277551 c 0.366889,0 0.649111,-0.282222 0.649111,-0.649111 0,-0.338666 -0.282222,-0.64911 -0.649111,-0.64911 h -5.277551 c -2.370665,0 -4.317997,-1.721555 -4.656663,-4.007553 0.705555,0.649111 1.580443,1.128888 2.850442,1.128888 h 7.732883 v -1.777998 c 0,-3.301998 -2.681109,-5.954885 -5.983106,-5.954885 z m 1.298221,1.269999 h 4.656664 c 2.596442,0 4.684885,2.088443 4.684885,4.684886 v 0.479777 h -6.434662 c -1.636888,0 -2.906887,-1.298221 -2.906887,-2.906887 z M 104.0535,66.162238 V 72.0889 c 0,3.330219 2.70933,6.011328 6.01133,6.011328 h 4.65666 v 4.684886 c 0,2.596442 -2.08844,4.684885 -4.71311,4.684885 h -4.65666 v -4.628441 c 0,-0.366889 -0.28222,-0.649111 -0.64911,-0.649111 -0.33867,0 -0.64911,0.282222 -0.64911,0.649111 v 5.89844 h 5.95488 c 3.302,0 6.01133,-2.652887 6.01133,-5.954884 v -5.983107 h -5.95488 c -2.59645,0 -4.71311,-2.088443 -4.71311,-4.713107 v -4.628441 h 4.65666 c 2.62467,0 4.71311,2.088443 4.71311,4.684885 0,0.366889 0.28222,0.649111 0.64911,0.649111 0.33867,0 0.64911,-0.282222 0.64911,-0.649111 0,-3.301997 -2.70933,-5.983106 -6.01133,-5.983106 z m 12.24843,0.620888 c 0,0.169333 0.0564,0.310444 0.16933,0.423333 1.15711,1.298221 1.86266,3.019775 1.86266,4.910663 v 10.611547 c 0,3.301998 2.70934,6.011329 6.01133,6.011329 0.36689,0 0.64911,-0.282222 0.64911,-0.649111 0,-0.338666 -0.28222,-0.64911 -0.64911,-0.64911 -2.59644,0 -4.7131,-2.088443 -4.7131,-4.713108 v -4.656663 h 4.65666 c 2.62466,0 4.71311,2.116665 4.71311,4.713108 v 5.305773 c 0,0.366889 0.28222,0.649111 0.64911,0.649111 0.33866,0 0.64911,-0.282222 0.64911,-0.649111 v -5.305773 c 0,-3.301998 -2.70933,-5.983107 -6.01133,-5.983107 h -4.65666 v -4.684885 c 0,-2.229554 -0.84667,-4.23333 -2.20134,-5.785551 -0.11288,-0.112889 -0.28222,-0.169333 -0.47977,-0.169333 -0.36689,0 -0.64911,0.253999 -0.64911,0.620888 z m 27.62953,10.018881 h -5.92666 c -2.90689,0 -5.334,2.088443 -5.89844,4.825996 -0.0847,0.395111 -0.11289,0.790222 -0.11289,1.185333 v 5.926662 h 5.95488 c 3.302,0 5.98311,-2.681109 5.98311,-5.983107 z m -1.29822,1.298221 v 4.656663 c 0,2.596443 -2.08844,4.684886 -4.68489,4.684886 h -4.65666 v -4.628441 c 0,-2.624665 2.08844,-4.713108 4.71311,-4.713108 z m 3.64066,-1.298221 c -0.36689,0 -0.64911,0.282222 -0.64911,0.620889 v 5.305773 c 0,3.301998 2.70933,6.011329 6.01133,6.011329 h 5.92666 V 77.422896 c 0,-0.338667 -0.28222,-0.620889 -0.62089,-0.620889 -0.36689,0 -0.64911,0.282222 -0.64911,0.620889 v 10.018881 h -4.65666 c -2.62467,0 -4.71311,-2.088443 -4.71311,-4.713108 v -5.305773 c 0,-0.338667 -0.31045,-0.620889 -0.64911,-0.620889 z m 11.57112,-9.990659 c 0,0.169333 0.0564,0.310444 0.16933,0.423333 1.15711,1.298221 1.86267,3.019776 1.86267,4.882441 v 5.333996 5.333996 c 0,1.834443 0.56444,3.527775 1.55222,4.910662 0.19755,0.310445 0.39511,0.564444 0.64911,0.818444 0.11289,0.141111 0.28222,0.225778 0.47977,0.225778 0.36689,0 0.64912,-0.282222 0.64912,-0.649111 0,-0.169333 -0.0565,-0.310444 -0.16934,-0.423333 -1.15711,-1.298221 -1.86266,-3.019775 -1.86266,-4.88244 v -5.333996 -5.333996 c 0,-2.201332 -0.84667,-4.205108 -2.20133,-5.729107 -0.14112,-0.141111 -0.31045,-0.225777 -0.47978,-0.225777 -0.36689,0 -0.64911,0.282222 -0.64911,0.64911 z m 11.59934,-0.64911 c -0.36689,0 -0.64911,0.253999 -0.64911,0.620888 0,0.338666 0.28222,0.649111 0.64911,0.649111 2.59644,0 4.7131,2.088442 4.7131,4.684885 v 6.999106 c -1.10066,-1.41111 -2.79399,-2.314221 -4.7131,-2.314221 h -5.95489 v 5.926662 c 0,3.301998 2.70933,6.011329 6.01133,6.011329 h 5.92666 V 72.117122 c 0,-3.301998 -2.68111,-5.954884 -5.9831,-5.954884 z m -4.65667,11.909768 h 4.65667 c 2.59644,0 4.7131,2.116665 4.7131,4.713108 v 4.656663 h -4.65666 c -2.62466,0 -4.71311,-2.088443 -4.71311,-4.713108 z m 26.75463,-10.611547 h 4.68488 v 15.324655 c 0,2.596442 -2.08844,4.684885 -4.68488,4.684885 h -4.68489 V 72.145344 c 0,-2.596442 2.08845,-4.684885 4.68489,-4.684885 z m 0,-1.298221 c -3.27378,0 -5.95489,2.681109 -5.95489,5.983106 v 16.594654 h 5.95489 c 3.302,0 5.9831,-2.652887 5.9831,-5.954884 V 66.162238 Z m 8.32554,10.639769 c -0.36689,0 -0.64911,0.282222 -0.64911,0.620889 v 5.305773 c 0,3.301998 2.70933,6.011329 6.01133,6.011329 h 5.92666 V 77.422896 c 0,-0.338667 -0.28222,-0.620889 -0.62089,-0.620889 -0.36689,0 -0.64911,0.282222 -0.64911,0.620889 v 10.018881 h -4.65666 c -2.62467,0 -4.71311,-2.088443 -4.71311,-4.713108 v -5.305773 c 0,-0.338667 -0.31044,-0.620889 -0.64911,-0.620889 z m 14.28043,1.269999 h 4.65666 c 2.59644,0 4.71311,2.116665 4.71311,4.713108 v 4.656663 h -4.65666 c -2.62467,0 -4.71311,-2.088443 -4.71311,-4.713108 z m -1.29822,12.925768 c 0,0.254 0.14111,0.451555 0.31044,0.564444 1.27,0.733777 2.76578,1.15711 4.34622,1.15711 h 7.28133 v -9.934214 c 0,-3.301998 -2.68111,-5.983107 -5.98311,-5.983107 h -5.95488 v 5.926662 c 0,3.301998 2.70933,6.011329 6.01133,6.011329 h 4.65666 v 2.681109 h -6.01133 c -1.35466,0 -2.59644,-0.338667 -3.69711,-0.959555 -0.0847,-0.05644 -0.19755,-0.112889 -0.31044,-0.112889 -0.33867,0 -0.64911,0.282222 -0.64911,0.649111 z M 225.0703,66.783126 c 0,0.169333 0.0564,0.310444 0.16933,0.423333 1.15711,1.298221 1.86267,3.019775 1.86267,4.910663 v 10.611547 c 0,3.301998 2.70933,6.011329 6.01132,6.011329 0.36689,0 0.64912,-0.282222 0.64912,-0.649111 0,-0.338666 -0.28223,-0.64911 -0.64912,-0.64911 -2.59644,0 -4.7131,-2.088443 -4.7131,-4.713108 v -4.656663 h 4.65666 c 2.62467,0 4.71311,2.116665 4.71311,4.713108 v 5.305773 c 0,0.366889 0.28222,0.649111 0.64911,0.649111 0.33866,0 0.64911,-0.282222 0.64911,-0.649111 v -5.305773 c 0,-3.301998 -2.70933,-5.983107 -6.01133,-5.983107 h -4.65666 v -4.684885 c 0,-2.229554 -0.84667,-4.23333 -2.20133,-5.785551 -0.11289,-0.112889 -0.28223,-0.169333 -0.47978,-0.169333 -0.36689,0 -0.64911,0.253999 -0.64911,0.620888 z m 16.34064,4.684885 c -0.36689,0 -0.64911,0.282222 -0.64911,0.649111 v 10.611547 c 0,3.301998 2.70933,6.011329 6.01132,6.011329 0.36689,0 0.64912,-0.282222 0.64912,-0.649111 0,-0.338666 -0.28223,-0.64911 -0.64912,-0.64911 -2.62466,0 -4.7131,-2.088443 -4.7131,-4.713108 v -4.656663 h 4.65666 c 0.36689,0 0.64911,-0.282222 0.64911,-0.64911 0,-0.338667 -0.28222,-0.620889 -0.64911,-0.620889 h -4.65666 v -4.684885 c 0,-0.366889 -0.31045,-0.649111 -0.64911,-0.649111 z"
       id="text2"
       aria-label="Couple Should Ought" />
  </g>
</svg>
