<?xml version="1.0" encoding="UTF-8" standalone="no"?>
<!-- Created with Inkscape (http://www.inkscape.org/) -->

<svg
   width="523.2793"
   height="209.03908"
   viewBox="0 0 138.45099 55.308259"
   version="1.1"
   id="svg1"
   inkscape:version="1.4 (86a8ad7, 2024-10-11)"
   sodipodi:docname="Word Leaf Tech Third Fourth Fifth Eighth.svg"
   xmlns:inkscape="http://www.inkscape.org/namespaces/inkscape"
   xmlns:sodipodi="http://sodipodi.sourceforge.net/DTD/sodipodi-0.dtd"
   xmlns="http://www.w3.org/2000/svg"
   xmlns:svg="http://www.w3.org/2000/svg">
  <sodipodi:namedview
     id="namedview1"
     pagecolor="#ffffff"
     bordercolor="#000000"
     borderopacity="0.25"
     inkscape:showpageshadow="2"
     inkscape:pageopacity="0.0"
     inkscape:pagecheckerboard="0"
     inkscape:deskcolor="#d1d1d1"
     inkscape:document-units="px"
     inkscape:zoom="2.078763"
     inkscape:cx="278.77156"
     inkscape:cy="122.90964"
     inkscape:window-width="1920"
     inkscape:window-height="1027"
     inkscape:window-x="-8"
     inkscape:window-y="-8"
     inkscape:window-maximized="1"
     inkscape:current-layer="text4" />
  <defs
     id="defs1" />
  <g
     inkscape:label="Layer 1"
     inkscape:groupmode="layer"
     id="layer1"
     transform="translate(-67.481106,-65.897655)">
    <text
       xml:space="preserve"
       style="font-size:28.2222px;line-height:1;font-family:'BlockTrain Hand';-inkscape-font-specification:'BlockTrain Hand';text-align:start;letter-spacing:0px;writing-mode:lr-tb;direction:ltr;text-anchor:start;display:none;fill:#17a23e;fill-opacity:0.854902;stroke:none;stroke-width:0.264583;stroke-dasharray:none;stroke-opacity:1"
       x="136.70659"
       y="88.739998"
       id="text1"><tspan
         sodipodi:role="line"
         id="tspan1"
         style="font-style:normal;font-variant:normal;font-weight:normal;font-stretch:normal;font-size:28.2222px;font-family:'Leaf Tech';-inkscape-font-specification:'Leaf Tech';text-align:center;letter-spacing:0px;text-anchor:middle;fill:#17a23e;fill-opacity:0.854902;stroke:none;stroke-width:0.264583;stroke-dasharray:none;stroke-opacity:1"
         x="0"
         y="0">Third Fourth</tspan><tspan
         sodipodi:role="line"
         style="font-style:normal;font-variant:normal;font-weight:normal;font-stretch:normal;font-size:28.2222px;font-family:'Leaf Tech';-inkscape-font-specification:'Leaf Tech';text-align:center;letter-spacing:0px;text-anchor:middle;fill:#17a23e;fill-opacity:0.854902;stroke:none;stroke-width:0.264583;stroke-dasharray:none;stroke-opacity:1"
         x="0"
         y="0"
         id="tspan2">Fifth Eighth</tspan></text>
    <g
       id="text4"
       style="font-size:28.2222px;line-height:1;font-family:'BlockTrain Hand';-inkscape-font-specification:'BlockTrain Hand';letter-spacing:0px;fill:#17a23e;fill-opacity:0.854902;stroke-width:0.264583"
       aria-label="Third Fourth&#10;Fifth Eighth">
      <path
         id="path5"
         style="font-family:'Leaf Tech';-inkscape-font-specification:'Leaf Tech';text-align:center;text-anchor:middle;stroke:#4d804f;stroke-width:0.529167;stroke-dasharray:none;stroke-opacity:1"
         d="m 71.9506,66.162238 c -2.314221,0 -4.204911,1.890691 -4.204911,4.204911 0,0.338667 0.282168,0.649057 0.649056,0.649057 0.366889,0 0.649056,-0.31039 0.649056,-0.649057 0,-1.608665 1.298133,-2.906799 2.906799,-2.906799 h 1.129131 v 11.401889 5.700944 c 0,2.314221 1.89069,4.177006 4.204911,4.177006 0.366888,0 0.649056,-0.254262 0.649056,-0.621151 0,-0.338666 -0.282168,-0.649056 -0.649056,-0.649056 -1.608666,0 -2.934705,-1.269829 -2.934705,-2.82205 0,0 -3.14e-4,-0.02862 0.02791,-0.05684 V 67.46035 h 4.535124 c 1.034904,1.266931 1.673799,2.880069 1.673799,4.656564 v 10.611755 c 0,3.301998 2.709522,6.01152 6.01152,6.01152 0.366888,0 0.649056,-0.282167 0.649056,-0.649056 0,-0.338666 -0.282168,-0.649573 -0.649056,-0.649573 -2.596443,0 -4.713408,-2.088226 -4.713408,-4.712891 v -4.656563 h 4.656564 c 2.624665,0 4.713407,2.116448 4.713407,4.712891 v 5.306136 c 0,0.366889 0.282168,0.649056 0.649056,0.649056 0.338667,0 0.649057,-0.282167 0.649057,-0.649056 v -5.306136 c 0,-3.301998 -2.709522,-5.983098 -6.01152,-5.983098 h -4.656564 v -4.684985 c 0,-2.229554 -0.846751,-4.232956 -2.201416,-5.785177 -0.112889,-0.112889 -0.282001,-0.169499 -0.479557,-0.169499 -0.02718,0 -0.04979,0.01071 -0.07596,0.01344 -0.0224,-0.0025 -0.04212,-0.01344 -0.06511,-0.01344 z m 45.86129,0 c -0.36689,0 -0.64906,0.253745 -0.64906,0.620634 0,0.338666 0.28217,0.649573 0.64906,0.649573 2.59645,0 4.71289,2.088026 4.71289,4.684469 v 6.999056 c -1.10067,-1.41111 -2.79378,-2.314071 -4.71289,-2.314071 h -5.95468 v 5.92677 c 0,3.301998 2.709,6.01152 6.011,6.01152 h 5.92677 V 72.116914 c 0,-3.301998 -2.68109,-5.954676 -5.98309,-5.954676 z m 74.50656,0 c -0.36689,0 -0.64905,0.253745 -0.64905,0.620634 0,0.169333 0.056,0.310858 0.16898,0.423747 1.15711,1.298221 1.86293,3.019407 1.86293,4.910295 v 4.723226 c -0.0631,-0.01939 -0.12662,-0.03824 -0.1974,-0.03824 h -4.65708 v -4.684985 c 0,-0.366889 -0.31039,-0.649056 -0.64906,-0.649056 -0.36689,0 -0.64905,0.282167 -0.64905,0.649056 V 82.72867 c 0,3.301998 2.70952,6.01152 6.01152,6.01152 0.36689,0 0.64905,-0.282167 0.64905,-0.649056 0,-0.338666 -0.28216,-0.649573 -0.64905,-0.649573 -2.62467,0 -4.71341,-2.088226 -4.71341,-4.712891 v -4.656563 h 4.65708 c 0.0708,0 0.13434,-0.01916 0.1974,-0.03876 v 4.69532 c 0,3.301998 2.70952,6.01152 6.01152,6.01152 0.36688,0 0.64906,-0.282167 0.64906,-0.649056 0,-0.338666 -0.28218,-0.649573 -0.64906,-0.649573 -2.59645,0 -4.7134,-2.088226 -4.7134,-4.712891 v -4.656563 h 4.65656 c 2.62467,0 4.71341,2.116448 4.71341,4.712891 v 5.306136 c 0,0.366889 0.28216,0.649056 0.64905,0.649056 0.33867,0 0.64906,-0.282167 0.64906,-0.649056 v -5.306136 c 0,-3.301998 -2.70952,-5.983098 -6.01152,-5.983098 h -4.65656 v -4.684985 c 0,-2.229554 -0.84676,-4.232956 -2.20142,-5.785177 -0.11289,-0.112889 -0.28201,-0.169499 -0.47956,-0.169499 z m -54.35585,0.02842 v 10.611239 h -3.35846 c -0.36689,0 -0.64905,0.310589 -0.64905,0.677478 0,0.338666 0.28216,0.620634 0.64905,0.620634 h 3.35846 v 8.692493 c 0,1.862665 -1.49579,3.358452 -3.35846,3.358452 -0.36689,0 -0.64905,0.282485 -0.64905,0.621151 0,0.366889 0.28216,0.649056 0.64905,0.649056 2.56822,0 4.65657,-2.088661 4.65657,-4.628659 v -8.692493 h 10.01902 c 0.33866,0 0.62064,-0.281968 0.62064,-0.620634 0,-0.366889 -0.28198,-0.677478 -0.62064,-0.677478 H 139.26071 V 67.46035 h 4.65656 c 2.59644,0 4.71341,2.088544 4.71341,4.684986 0,0.366889 0.28216,0.649056 0.64905,0.649056 0.33866,0 0.62064,-0.282167 0.62064,-0.649056 0,-3.301997 -2.6811,-5.954676 -5.9831,-5.954676 z m -42.446512,6.208924 c -0.705555,0 -1.26969,0.592357 -1.26969,1.26969 v 1.270206 h 1.26969 c 0.677332,0 1.241785,-0.592873 1.241785,-1.270206 v -1.26969 z m 4.684982,1.721342 v 1.97559 c 0,1.100666 0.87493,1.97559 1.97559,1.97559 h 0.67748 v 4.684985 c 0,2.596443 -2.08854,4.684469 -4.684984,4.684469 -1.128888,0 -2.031917,-0.874607 -2.031917,-2.003495 v -2.680974 -4.684985 -0.621151 c 0,-0.423333 -0.310389,-0.649056 -0.649056,-0.649056 -0.310444,0 -0.621151,0.225723 -0.621151,0.649056 v 0.621151 4.684985 2.680974 c 0,1.806221 1.495904,3.302124 3.302124,3.302124 3.302004,0 5.983094,-2.6811 5.983094,-5.983098 v -4.684985 h 1.12913 c 1.60867,0 2.9068,1.298133 2.9068,2.906799 v 4.45916 c 0,1.806221 1.46768,3.302124 3.30213,3.302124 0.33866,0 0.64905,-0.282167 0.64905,-0.649056 0,-0.338666 -0.31039,-0.649573 -0.64905,-0.649573 -1.12889,0 -2.00401,-0.874607 -2.00401,-2.003495 v -4.45916 c 0,-2.314221 -1.8907,-4.177006 -4.20492,-4.177006 h -1.12913 v -0.705383 c 0,-1.072444 -0.90315,-1.97559 -1.97559,-1.97559 z m 75.69203,0.02842 v 1.947168 c 0,1.100666 0.90314,1.97559 1.97559,1.97559 h 0.67748 v 4.684985 c 0,2.528772 -1.98564,4.559852 -4.48759,4.664832 V 77.42305 c 0,-0.338667 -0.28197,-0.621151 -0.62063,-0.621151 -0.36689,0 -0.64906,0.282484 -0.64906,0.621151 v 10.01851 h -4.65708 c -2.62466,0 -4.71289,-2.088226 -4.71289,-4.712891 V 77.42305 c 0,-0.338667 -0.31038,-0.621151 -0.64905,-0.621151 -0.36688,0 -0.64906,0.282484 -0.64906,0.621151 v 5.305619 c 0,3.301998 2.709,6.01152 6.011,6.01152 h 5.72937 0.1974 v -0.02015 c 3.20863,-0.106711 5.7857,-2.728563 5.7857,-5.962944 V 78.07211 h 1.12861 c 1.60866,0 2.90732,1.298133 2.90732,2.906799 v 4.45916 c 0,1.806221 1.49539,3.302124 3.30161,3.302124 0.36689,0 0.64905,-0.282167 0.64905,-0.649056 0,-0.338666 -0.28216,-0.649573 -0.64905,-0.649573 -1.12889,0 -2.0035,-0.874607 -2.0035,-2.003495 v -4.45916 c 0,-2.285998 -1.89121,-4.148584 -4.20543,-4.148584 h -1.12861 V 76.09652 c 0,-1.072444 -0.90315,-1.947168 -1.97559,-1.947168 z m -74.39391,1.26969 h 0.67747 c 0.36689,0 0.67748,0.310589 0.67748,0.677478 v 0.705383 h -0.67748 c -0.39511,0 -0.67747,-0.310272 -0.67747,-0.705383 z m 75.69202,0 h 0.67748 c 0.39511,0 0.67748,0.310589 0.67748,0.677478 v 0.733805 h -0.67748 c -0.39512,0 -0.67748,-0.338694 -0.67748,-0.733805 z m -22.69061,1.382861 c -2.90689,0 -5.3339,2.088509 -5.89834,4.826062 -0.0847,0.395111 -0.11266,0.790347 -0.11266,1.185458 v 5.92677 h 5.95468 c 3.302,0 5.98309,-2.6811 5.98309,-5.983098 v -5.955192 z m -41.34528,1.270207 h 4.65657 c 2.59645,0 4.71289,2.116448 4.71289,4.712891 v 4.656563 h -4.65657 c -2.62467,0 -4.71289,-2.088226 -4.71289,-4.712891 z m 41.34528,0.0279 h 4.62866 v 4.65708 c 0,2.596443 -2.08854,4.684469 -4.68498,4.684469 h -4.65657 V 82.81341 c 0,-2.624665 2.08822,-4.713408 4.71289,-4.713408 z M 109.51472,94.38428 c -0.36689,0 -0.64958,0.254263 -0.64958,0.621151 0,0.169334 0.0566,0.310342 0.1695,0.42323 1.15711,1.298222 1.86294,3.019927 1.86294,4.910809 v 4.72271 c -0.0631,-0.0194 -0.12711,-0.0377 -0.19792,-0.0377 h -4.65657 v -4.68499 c 0,-0.366883 -0.31038,-0.649053 -0.64905,-0.649053 -0.36689,0 -0.64906,0.28217 -0.64906,0.649053 v 4.73821 c -0.0776,-0.0339 -0.16327,-0.0532 -0.25425,-0.0532 h -6.406323 c 0.310444,-3.27378 3.047883,-5.814117 6.406323,-5.814117 h 3.55638 c 0.36689,0 0.64905,-0.281968 0.64905,-0.620634 0,-0.366889 -0.28216,-0.649056 -0.64905,-0.649056 h -3.55638 c -4.03577,0 -7.365769,3.104477 -7.704435,7.083807 h -2.031917 c -0.366888,0 -0.649056,0.31038 -0.649056,0.64905 0,0.36689 0.282168,0.64906 0.649056,0.64906 h 2.003495 v 7.33754 c 0,2.06022 -0.874504,4.06432 -2.426725,5.44721 -0.141111,0.11288 -0.225826,0.28201 -0.225826,0.47956 0,0.36689 0.282168,0.64905 0.649056,0.64905 0.169333,0 0.310341,-0.0566 0.42323,-0.1695 1.834443,-1.63689 2.878894,-3.97921 2.878894,-6.40632 v -7.33754 h 6.434228 c 0.091,0 0.1767,-0.0179 0.25425,-0.0496 v 4.67775 c 0,3.302 2.70952,6.01152 6.01152,6.01152 0.36689,0 0.64906,-0.28217 0.64906,-0.64906 0,-0.33867 -0.28217,-0.64905 -0.64906,-0.64905 -2.62466,0 -4.71341,-2.08875 -4.71341,-4.71341 v -4.65656 h 4.65657 c 0.0708,0 0.13483,-0.0186 0.19792,-0.0382 v 4.6948 c 0,3.302 2.709,6.01152 6.011,6.01152 0.36689,0 0.64906,-0.28217 0.64906,-0.64906 0,-0.33867 -0.28217,-0.64905 -0.64906,-0.64905 -2.59644,0 -4.71289,-2.08875 -4.71289,-4.71341 v -4.65656 h 4.65656 c 2.62467,0 4.7129,2.11696 4.7129,4.7134 v 5.30562 c 0,0.36689 0.28268,0.64906 0.64957,0.64906 0.33867,0 0.64905,-0.28217 0.64905,-0.64906 v -5.30562 c 0,-3.30199 -2.70952,-5.98309 -6.01152,-5.98309 h -4.65656 v -4.68499 c 0,-2.229549 -0.84676,-4.23347 -2.20142,-5.785691 -0.11289,-0.112889 -0.28199,-0.169499 -0.47955,-0.169499 z m 53.7068,0 c -0.36689,0 -0.64906,0.254263 -0.64906,0.621151 0,0.169334 0.0561,0.310342 0.16899,0.42323 1.15711,1.298222 1.86293,3.019927 1.86293,4.910809 v 10.61124 c 0,3.302 2.709,6.01152 6.011,6.01152 0.36688,0 0.64906,-0.28217 0.64906,-0.64906 0,-0.33867 -0.28218,-0.64905 -0.64906,-0.64905 -2.59645,0 -4.71289,-2.08875 -4.71289,-4.71341 v -4.65656 h 4.65657 c 2.62467,0 4.7134,2.11696 4.7134,4.7134 v 5.30562 c 0,0.36689 0.28217,0.64906 0.64906,0.64906 0.33867,0 0.64906,-0.28217 0.64906,-0.64906 v -5.30562 c 0,-3.30199 -2.70952,-5.98309 -6.01152,-5.98309 h -4.65657 v -4.68499 c 0,-2.229549 -0.84675,-4.23347 -2.20141,-5.785691 -0.11289,-0.112889 -0.28201,-0.169499 -0.47956,-0.169499 z m 19.81171,0 c -0.36689,0 -0.64905,0.254263 -0.64905,0.621151 0,0.169334 0.0567,0.310342 0.16949,0.42323 1.15711,1.298222 1.86242,3.019927 1.86242,4.910809 v 4.72271 c -0.063,-0.0193 -0.12677,-0.0377 -0.1974,-0.0377 h -4.65657 v -4.68499 c 0,-0.366883 -0.31039,-0.649053 -0.64905,-0.649053 -0.36689,0 -0.64906,0.28217 -0.64906,0.649053 v 10.61124 c 0,3.302 2.70902,6.01152 6.01101,6.01152 0.36689,0 0.64905,-0.28217 0.64905,-0.64906 0,-0.33867 -0.28216,-0.64905 -0.64905,-0.64905 -2.62466,0 -4.7129,-2.08875 -4.7129,-4.71341 v -4.65656 h 4.65657 c 0.0706,0 0.13445,-0.0187 0.1974,-0.0382 v 4.6948 c 0,3.302 2.70952,6.01152 6.01152,6.01152 0.36689,0 0.64906,-0.28217 0.64906,-0.64906 0,-0.33867 -0.28217,-0.64905 -0.64906,-0.64905 -2.59644,0 -4.71341,-2.08875 -4.71341,-4.71341 v -4.65656 h 4.65708 c 2.62467,0 4.7129,2.11696 4.7129,4.7134 v 5.30562 c 0,0.36689 0.28216,0.64906 0.64905,0.64906 0.33867,0 0.64906,-0.28217 0.64906,-0.64906 v -5.30562 c 0,-3.30199 -2.70901,-5.98309 -6.01101,-5.98309 h -4.65708 v -4.68499 c 0,-2.229549 -0.84622,-4.23347 -2.20089,-5.785691 -0.11289,-0.112889 -0.28252,-0.169499 -0.48008,-0.169499 z M 81.038418,94.4127 v 10.61176 h -3.358451 c -0.366889,0 -0.649056,0.31007 -0.649056,0.67696 0,0.33867 0.282167,0.62115 0.649056,0.62115 h 3.358451 v 8.69249 c 0,1.86266 -1.495786,3.35845 -3.358451,3.35845 -0.366889,0 -0.649056,0.28197 -0.649056,0.62064 0,0.36689 0.282167,0.64905 0.649056,0.64905 2.56822,0 4.656563,-2.08815 4.656563,-4.62814 v -8.69249 h 6.745325 v 4.65656 c 0,2.22956 0.818012,4.23327 2.2009,5.75727 0.112889,0.14111 0.282519,0.22583 0.480074,0.22583 0.366889,0 0.649056,-0.28217 0.649056,-0.64906 0,-0.16934 -0.05661,-0.31034 -0.169499,-0.42323 -1.15711,-1.29822 -1.890841,-3.01992 -1.890841,-4.91081 v -4.65656 h 2.004013 c 0.338666,0 0.620634,-0.28248 0.620634,-0.62115 0,-0.36689 -0.281968,-0.67696 -0.620634,-0.67696 H 89.730911 82.33653 v -9.34207 h 4.656564 c 2.596442,0 4.713408,2.088548 4.713408,4.68499 0,0.36689 0.282167,0.64905 0.649056,0.64905 0.338666,0 0.620634,-0.28216 0.620634,-0.64905 0,-3.301997 -2.681101,-5.95468 -5.983098,-5.95468 z m 51.984942,0 v 7.28121 c 0,1.69333 0.9596,3.18907 2.34249,4.00751 -1.38289,0.79022 -2.34249,2.28627 -2.34249,3.9796 v 7.28121 h 8.66459 c 1.80622,0 3.30161,-1.46748 3.30161,-3.2737 0,-0.36689 -0.31039,-0.64906 -0.64906,-0.64906 -0.36689,0 -0.64906,0.28217 -0.64906,0.64906 0,1.12889 -0.90282,2.00349 -2.00349,2.00349 h -7.36596 v -6.011 c 0,-1.86266 1.49578,-3.35845 3.35845,-3.35845 h 3.10421 c 0.36689,0 0.64905,-0.25426 0.64905,-0.62115 v -0.0279 c 0,-0.36689 -0.28216,-0.64905 -0.64905,-0.64905 h -3.10421 c -1.86267,0 -3.35845,-1.46789 -3.35845,-3.33055 v -6.011003 h 7.36596 c 1.10067,0 2.00349,0.874607 2.00349,2.003495 0,0.366889 0.28217,0.649057 0.64906,0.649057 0.33867,0 0.64906,-0.282168 0.64906,-0.649057 0,-1.80622 -1.49539,-3.273702 -3.30161,-3.273702 z m -43.292449,6.26525 c -0.733777,0 -1.270206,0.56445 -1.270206,1.24179 v 1.2702 h 1.241784 c 0.705555,0 1.270207,-0.56465 1.270207,-1.2702 v -1.24179 z m 57.657979,0 c -0.73378,0 -1.2702,0.56445 -1.2702,1.24179 v 1.2702 h 1.24178 c 0.70555,0 1.27021,-0.56465 1.27021,-1.2702 v -1.24179 z m 0,4.34651 c -0.36689,0 -0.64957,0.28196 -0.64957,0.62063 v 5.33404 c 0,2.22956 0.81854,4.23327 2.20142,5.75727 0.11289,0.14111 0.28251,0.22583 0.48007,0.22583 0.36689,0 0.64906,-0.28217 0.64906,-0.64906 0,-0.16934 -0.0566,-0.31034 -0.1695,-0.42323 -1.15711,-1.29822 -1.89084,-3.01992 -1.89084,-4.91081 v -5.33404 c 0,-0.33867 -0.28197,-0.62063 -0.62064,-0.62063 z m 2.96313,0 v 5.92625 c 0,3.302 2.70952,6.01152 6.01152,6.01152 h 4.65656 v 2.68097 h -6.01152 c -1.35466,0 -2.59626,-0.33874 -3.69693,-0.95963 -0.0847,-0.0564 -0.19768,-0.11265 -0.31057,-0.11265 -0.33867,0 -0.64906,0.28217 -0.64906,0.64905 0,0.254 0.14125,0.45142 0.31058,0.56431 1.27,0.73378 2.76554,1.15704 4.34598,1.15704 h 7.28121 v -9.93377 c 0,-3.30199 -2.68109,-5.98309 -5.98309,-5.98309 z m 1.29811,1.26969 h 4.65657 c 2.59645,0 4.7134,2.11696 4.7134,4.7134 v 4.65657 h -4.65656 c -2.62467,0 -4.71341,-2.08875 -4.71341,-4.71341 z" />
    </g>
  </g>
</svg>
