<?xml version="1.0" encoding="UTF-8" standalone="no"?>
<!-- Created with Inkscape (http://www.inkscape.org/) -->

<svg
   width="984.86639"
   height="104.65325"
   viewBox="0 0 260.57925 27.689508"
   version="1.1"
   id="svg1"
   inkscape:version="1.4 (86a8ad7, 2024-10-11)"
   sodipodi:docname="Word Hangeulic Chunky Thanks Moon.svg"
   xmlns:inkscape="http://www.inkscape.org/namespaces/inkscape"
   xmlns:sodipodi="http://sodipodi.sourceforge.net/DTD/sodipodi-0.dtd"
   xmlns="http://www.w3.org/2000/svg"
   xmlns:svg="http://www.w3.org/2000/svg">
  <sodipodi:namedview
     id="namedview1"
     pagecolor="#ffffff"
     bordercolor="#000000"
     borderopacity="0.25"
     inkscape:showpageshadow="2"
     inkscape:pageopacity="0.0"
     inkscape:pagecheckerboard="0"
     inkscape:deskcolor="#d1d1d1"
     inkscape:document-units="px"
     inkscape:zoom="1.0393815"
     inkscape:cx="465.1805"
     inkscape:cy="59.169805"
     inkscape:window-width="1920"
     inkscape:window-height="1027"
     inkscape:window-x="-8"
     inkscape:window-y="-8"
     inkscape:window-maximized="1"
     inkscape:current-layer="layer1" />
  <defs
     id="defs1" />
  <g
     inkscape:label="Layer 1"
     inkscape:groupmode="layer"
     id="layer1"
     transform="translate(-6.4169514,-64.438919)">
    <text
       xml:space="preserve"
       style="font-size:28.2222px;line-height:1;font-family:'BlockTrain Hand';-inkscape-font-specification:'BlockTrain Hand';text-align:start;writing-mode:lr-tb;direction:ltr;text-anchor:start;display:inline;fill:#19919b;fill-opacity:1;stroke:#7c7c7c;stroke-width:0.79375;stroke-dasharray:none;stroke-opacity:1"
       x="136.70659"
       y="88.739998"
       id="text1"><tspan
         sodipodi:role="line"
         id="tspan1"
         style="font-style:normal;font-variant:normal;font-weight:800;font-stretch:normal;font-size:28.2222px;font-family:'NewEng Hangeul';-inkscape-font-specification:'NewEng Hangeul Ultra-Bold';text-align:center;text-anchor:middle;fill:#19919b;fill-opacity:1;stroke:#7c7c7c;stroke-width:0.79375;stroke-dasharray:none;stroke-opacity:1"
         x="136.70657"
         y="88.739998">Þaŋks mꝏn</tspan></text>
    <path
       style="font-weight:800;font-size:28.2222px;line-height:1;font-family:'NewEng Hangeul';-inkscape-font-specification:'NewEng Hangeul Ultra-Bold';text-align:center;text-anchor:middle;display:none;fill:#19919b;stroke:#7c7c7c;stroke-width:0.79375"
       d="m 6.8138264,69.379568 v 20.940873 l 1.1571102,1.41111 5.4186624,-4.543774 v -1.41111 h 12.925768 l 1.608665,-1.354666 1.128888,1.354666 5.418663,-4.515552 V 72.173566 L 33.28625,70.762456 H 14.828931 l -1.439332,1.213555 v -5.729107 l -1.185332,-1.41111 z m 6.5757726,7.30955 H 27.89581 v 3.160887 H 14.828931 l -1.439332,1.213554 z m 30.479975,10.498659 v -5.926662 h 12.925768 l 1.439332,-1.213555 v 10.272881 l 1.15711,1.41111 5.418663,-4.543774 V 66.246904 l -1.185333,-1.41111 H 45.308906 l -1.552221,1.298221 -1.072444,-1.298221 -5.39044,4.543774 v 20.940873 l 1.15711,1.41111 z m 0,-16.397099 h 14.3651 V 75.30623 H 45.308906 l -1.439332,1.213555 z m 23.763115,-1.41111 v 20.940873 l 1.157111,1.41111 5.418662,-4.543774 V 73.866898 l 12.925768,7.394217 1.439332,-1.213555 v 5.729107 h -5.079996 l -5.39044,4.543774 1.15711,1.41111 h 10.470436 l 5.418663,-4.543774 V 66.246904 l -1.185333,-1.41111 -5.39044,4.543774 v 4.346219 L 75.647794,66.331571 74.208462,67.545125 V 66.246904 L 73.02313,64.835794 Z M 116.062,68.786902 109.54267,75.30623 h -3.55599 l -1.43934,1.213555 V 66.246904 l -1.18533,-1.41111 -5.390438,4.543774 v 20.940873 l 1.15711,1.41111 5.418658,-4.543774 v -5.926662 h 9.82133 l 4.54377,9.059326 1.15711,1.41111 5.41867,-4.543774 -5.24933,-10.470437 -1.15711,-1.41111 h -4.91067 l 1.07245,-0.620888 7.84577,-7.845772 -0.90311,-1.580443 z m 13.40557,2.003776 h 0.28222 l -1.43933,1.213555 v 7.845772 l 1.15711,1.41111 h 19.78376 v 4.515552 H 133.7009 l -5.39044,4.543774 1.15711,1.41111 H 147.812 l 1.524,-1.298221 1.07244,1.298221 5.41867,-4.543774 V 76.71734 l -1.18534,-1.41111 h -19.75554 v -4.515552 h 15.52221 l 5.41867,-4.543774 -1.18534,-1.41111 H 133.7009 l -5.39044,4.543774 z m 48.93734,-1.41111 v 20.940873 l 1.15711,1.41111 5.41866,-4.543774 V 76.181119 l 5.05177,5.079996 5.41867,-4.543775 3.89466,-3.894663 v 17.497764 l 1.15711,1.41111 5.41866,-4.543774 V 66.246904 l -1.18533,-1.41111 -5.39044,4.543774 v 0.423333 l -2.62467,2.201332 -2.87866,2.878664 -7.42244,-7.422438 -1.43933,1.213554 v -2.427109 l -1.18533,-1.41111 z m 40.80931,3.612442 v 12.784657 h -3.24555 l -0.64911,-0.02822 V 85.466223 70.790678 h 2.42711 l 5.41866,-4.543774 -1.18533,-1.41111 -6.01133,0.02822 -1.29822,0.112889 -5.39044,4.543774 -0.47978,0.931333 -0.0564,2.56822 v 15.578655 l 0.0564,1.213554 1.18534,1.41111 0.47977,0.423334 1.27,0.08467 h 6.858 l 1.24177,-0.141111 5.41867,-4.543774 0.45155,-0.987777 0.0847,-2.596443 v -12.67177 h 2.22955 0.98778 l 0.64911,0.02822 0.0282,0.282222 v 14.675544 h -2.00377 l -5.39045,4.543774 1.15711,1.41111 h 4.572 l 0.98778,-0.02822 1.29822,-0.112889 5.41866,-4.543774 0.45156,-0.931333 0.0847,-2.56822 V 67.968458 l -0.0847,-1.213554 -1.15711,-1.41111 -0.47978,-0.423333 -1.29822,-0.08467 h -0.98778 -5.84199 l -1.27,0.536222 -5.39044,4.515552 -0.47978,1.326443 z m 19.86847,-3.612442 v 20.940873 l 1.15711,1.41111 5.41866,-4.543774 V 76.181119 l 12.92577,12.925767 1.43933,-1.213554 v 2.427109 l 1.15711,1.41111 5.41866,-4.543774 V 66.246904 l -1.18533,-1.41111 -5.39044,4.543774 v 11.006659 l -12.92577,-12.925768 -1.43933,1.213554 v -2.427109 l -1.18533,-1.41111 z"
       id="text2"
       aria-label="Þaŋks mꝏn" />
  </g>
</svg>
