<?xml version="1.0" encoding="UTF-8" standalone="no"?>
<!-- Created with Inkscape (http://www.inkscape.org/) -->

<svg
   width="985.18665"
   height="125.96721"
   viewBox="0 0 260.66397 33.328828"
   version="1.1"
   id="svg1"
   inkscape:version="1.4 (86a8ad7, 2024-10-11)"
   sodipodi:docname="Word Hangeulic Regular Month Kitchen.svg"
   xmlns:inkscape="http://www.inkscape.org/namespaces/inkscape"
   xmlns:sodipodi="http://sodipodi.sourceforge.net/DTD/sodipodi-0.dtd"
   xmlns="http://www.w3.org/2000/svg"
   xmlns:svg="http://www.w3.org/2000/svg">
  <sodipodi:namedview
     id="namedview1"
     pagecolor="#ffffff"
     bordercolor="#000000"
     borderopacity="0.25"
     inkscape:showpageshadow="2"
     inkscape:pageopacity="0.0"
     inkscape:pagecheckerboard="0"
     inkscape:deskcolor="#d1d1d1"
     inkscape:document-units="px"
     inkscape:zoom="1.0393815"
     inkscape:cx="503.66492"
     inkscape:cy="167.88831"
     inkscape:window-width="1920"
     inkscape:window-height="1027"
     inkscape:window-x="-8"
     inkscape:window-y="-8"
     inkscape:window-maximized="1"
     inkscape:current-layer="layer1" />
  <defs
     id="defs1" />
  <g
     inkscape:label="Layer 1"
     inkscape:groupmode="layer"
     id="layer1"
     transform="translate(-6.3745875,-98.087168)">
    <text
       xml:space="preserve"
       style="font-style:normal;font-variant:normal;font-weight:normal;font-stretch:normal;font-size:28.2222px;line-height:1;font-family:'Dots n Lines';-inkscape-font-specification:'Dots n Lines';text-align:start;writing-mode:lr-tb;direction:ltr;text-anchor:start;display:none;fill:#19919b;fill-opacity:1;stroke:#7c7c7c;stroke-width:0.79375;stroke-dasharray:none;stroke-opacity:1"
       x="136.70659"
       y="129.24368"
       id="text1"><tspan
         sodipodi:role="line"
         id="tspan1"
         style="font-style:normal;font-variant:normal;font-weight:normal;font-stretch:normal;font-size:28.2222px;font-family:'NewEng Hangeul';-inkscape-font-specification:'NewEng Hangeul Ultra-Bold';text-align:center;text-anchor:middle;fill:#19919b;fill-opacity:1;stroke:#7c7c7c;stroke-width:0.79375;stroke-dasharray:none;stroke-opacity:1"
         x="136.70659"
         y="129.24368">Mônþ Kíчėn</tspan></text>
    <path
       style="font-size:28.2222px;line-height:1;font-family:'NewEng Hangeul';-inkscape-font-specification:'NewEng Hangeul Ultra-Bold';text-align:center;text-anchor:middle;display:inline;fill:#19919b;stroke:#7c7c7c;stroke-width:0.79375"
       d="m 6.7714657,109.03592 v 20.94087 l 0.705555,0.87489 2.8222203,-2.37066 v -15.77621 l 7.648216,7.67643 2.82222,-2.37066 6.942661,-6.94266 v 18.90887 l 0.705555,0.87489 2.82222,-2.37066 v -20.94088 l -0.733777,-0.87489 -2.793998,2.37067 v 0.42333 l -2.624664,2.20133 -5.277552,5.24933 -7.619994,-7.61999 -1.890887,1.58044 v -3.33022 L 9.5654635,106.66525 Z M 48.879016,99.750816 c 0,-0.02822 -0.02822,-0.08467 -0.02822,-0.112889 l -0.536222,-0.649111 c -3.132664,1.326444 -6.265328,2.031994 -6.265328,2.031994 l -2.596443,2.17311 0.536222,0.64911 c 0,0 3.07622,-0.70555 6.15244,-2.00377 l 0.366888,0.42333 c 0.987777,1.18533 4.261553,1.524 4.261553,1.524 l 2.596442,-2.17311 -0.536222,-0.64911 c 0,0 -2.709331,-0.28222 -3.951108,-1.213554 z M 34.062361,116.88169 v 5.24933 c 0,3.75355 0,5.70088 0.846666,6.71688 l 0.733777,0.87489 c 0.931333,1.12889 2.878665,1.12889 6.999106,1.12889 h 5.221107 c 3.753553,0 5.729107,0 6.745106,-0.87489 l 2.793998,-2.34244 c 1.128888,-0.95956 1.128888,-2.90689 1.128888,-6.99911 v -5.24933 c 0,-3.75355 0,-5.70088 -0.846666,-6.7451 l -0.733778,-0.84667 c -0.931332,-1.12889 -2.906886,-1.12889 -6.999105,-1.12889 h -5.249329 c -3.753553,0 -5.700885,0 -6.716884,0.87489 l -2.82222,2.34245 c -1.100666,0.93133 -1.100666,2.90688 -1.100666,6.9991 z m 3.527775,-1.49578 c 0,-2.48355 0,-4.17688 0.254,-5.33399 1.128888,0 2.652887,-0.16933 4.797774,-0.16933 h 5.221107 c 3.584219,0 5.531551,0 6.575773,0.76199 0,1.10067 0.564444,3.01978 0.564444,6.23711 v 5.24933 c 0,2.48355 0,4.17689 -0.254,5.334 -1.128888,0 -2.681109,0.14111 -4.797774,0.14111 h -5.249329 c -3.555998,0 -5.50333,0 -6.575773,-0.73378 0,-1.12889 -0.536222,-3.01978 -0.536222,-6.23711 z m 23.76312,-6.34999 v 20.94087 l 0.705555,0.87489 2.82222,-2.37066 v -15.77621 l 15.522211,15.52221 1.890887,-1.58045 v 3.33022 l 0.705555,0.87489 2.82222,-2.37066 v -20.94088 l -0.733777,-0.87489 -2.793998,2.37067 v 15.77621 l -15.52221,-15.52221 -1.890888,1.58044 v -3.33022 l -0.733777,-0.87489 z m 27.290898,0 v 20.94087 l 0.705555,0.87489 2.82222,-2.37066 v -3.58422 h 15.522211 l 2.03199,-1.69334 v 0.84667 l 0.70556,0.84667 2.82222,-2.34245 v -9.08755 l -0.73378,-0.87488 H 94.062816 l -1.890887,1.58044 v -6.63222 l -0.733777,-0.87489 z m 3.527775,6.77333 h 17.554201 v 5.87021 H 94.062816 l -1.890887,1.58045 z m 62.766181,-8.09977 h -3.66888 l -8.57955,8.55132 v 0.87489 h -4.26156 l -1.89088,1.60867 v -11.20422 l -0.73378,-0.87489 -2.794,2.37067 v 20.94087 l 0.70556,0.87489 2.82222,-2.37066 v -8.09978 h 12.5871 l 4.82599,9.59555 0.70556,0.87489 2.82222,-2.37066 -5.24933,-10.47044 -0.70556,-0.87489 h -4.88244 l 8.29733,-8.29733 z m 12.02269,-3.58422 c 2.85044,-0.28223 7.02733,-1.60867 8.94644,-2.70934 l 2.59644,-2.173104 -0.56444,-0.649111 c -1.91911,1.100666 -6.096,2.427105 -8.91822,2.709335 l -2.59644,2.17311 z m -5.95488,5.75733 h 11.65577 l -1.94734,1.63688 v 15.83266 l 0.22578,0.254 h -7.84577 l -2.794,2.37066 0.70556,0.87489 h 20.94087 l 2.82222,-2.37066 -0.73378,-0.87489 h -11.85332 l 2.08844,-1.74978 V 110.0237 l -0.11289,-0.14111 h 7.78933 l 2.82222,-2.34245 -0.73378,-0.87489 h -20.94087 l -2.794,2.37067 z m 30.11311,7.2531 v -9.59555 l -0.73378,-0.87489 -2.79399,2.37067 v 10.47044 l 0.70555,0.87488 h 18.34443 l 1.89089,-1.60866 v 11.20421 l 0.70555,0.87489 2.82222,-2.37066 v -20.94088 l -0.73377,-0.87489 -2.794,2.37067 v 8.09977 z m 24.46867,-7.2531 h 1.38289 l -2.08844,1.77799 v 18.31621 l 0.70555,0.87489 h 20.94088 l 2.82222,-2.37066 -0.73378,-0.87489 h -20.2071 v -7.22489 h 12.89755 l 2.794,-2.37066 -0.70556,-0.87489 h -13.37732 l -1.60867,1.35467 v -8.32555 l -0.22577,-0.28222 h 18.34443 l 2.82222,-2.34245 -0.73378,-0.87489 h -20.94087 l -2.794,2.37067 z m 8.74889,-5.72909 h 3.556 l 2.59644,-2.20133 -0.53622,-0.64912 h -3.556 l -2.59644,2.20134 z m 17.83645,4.88242 v 20.94087 l 0.70556,0.87489 2.82222,-2.37066 v -15.77621 l 15.52221,15.52221 1.89089,-1.58045 v 3.33022 l 0.70555,0.87489 2.82222,-2.37066 v -20.94088 l -0.73378,-0.87489 -2.79399,2.37067 v 15.77621 l -15.52221,-15.52221 -1.89089,1.58044 v -3.33022 l -0.73378,-0.87489 z"
       id="text2"
       aria-label="Mônþ Kíчėn" />
  </g>
</svg>
