<?xml version="1.0" encoding="UTF-8" standalone="no"?>
<!-- Created with Inkscape (http://www.inkscape.org/) -->

<svg
   width="482.4664"
   height="97.933258"
   viewBox="0 0 127.65257 25.911507"
   version="1.1"
   id="svg1"
   inkscape:version="1.4 (86a8ad7, 2024-10-11)"
   sodipodi:docname="Word TallThin Mechanic.svg"
   xmlns:inkscape="http://www.inkscape.org/namespaces/inkscape"
   xmlns:sodipodi="http://sodipodi.sourceforge.net/DTD/sodipodi-0.dtd"
   xmlns="http://www.w3.org/2000/svg"
   xmlns:svg="http://www.w3.org/2000/svg">
  <sodipodi:namedview
     id="namedview1"
     pagecolor="#ffffff"
     bordercolor="#000000"
     borderopacity="0.25"
     inkscape:showpageshadow="2"
     inkscape:pageopacity="0.0"
     inkscape:pagecheckerboard="0"
     inkscape:deskcolor="#d1d1d1"
     inkscape:document-units="px"
     inkscape:zoom="1.4699074"
     inkscape:cx="217.02047"
     inkscape:cy="102.3874"
     inkscape:window-width="1920"
     inkscape:window-height="1027"
     inkscape:window-x="-8"
     inkscape:window-y="-8"
     inkscape:window-maximized="1"
     inkscape:current-layer="layer1" />
  <defs
     id="defs1" />
  <g
     inkscape:label="Layer 1"
     inkscape:groupmode="layer"
     id="layer1"
     transform="translate(-73.021415,-66.894251)">
    <text
       xml:space="preserve"
       style="font-size:28.2222px;line-height:1;font-family:'BlockTrain Hand';-inkscape-font-specification:'BlockTrain Hand';text-align:start;writing-mode:lr-tb;direction:ltr;text-anchor:start;display:none;fill:#19919b;fill-opacity:1;stroke:#7c7c7c;stroke-width:0.79375;stroke-dasharray:none;stroke-opacity:1"
       x="136.70659"
       y="88.739998"
       id="text1"><tspan
         sodipodi:role="line"
         id="tspan1"
         style="font-style:normal;font-variant:normal;font-weight:normal;font-stretch:normal;font-size:28.2222px;font-family:TallThin;-inkscape-font-specification:TallThin;text-align:center;text-anchor:middle;fill:#19919b;fill-opacity:1;stroke:#7c7c7c;stroke-width:0.79375;stroke-dasharray:none;stroke-opacity:1"
         x="0"
         y="0">Meʞanic Teʞno</tspan></text>
    <path
       style="font-size:28.2222px;line-height:1;font-family:TallThin;-inkscape-font-specification:TallThin;text-align:center;text-anchor:middle;fill:#19919b;stroke:#7c7c7c;stroke-width:0.79375"
       d="M 75.676066,88.739998 V 69.66179 c 0.790222,0 1.523999,0.310445 2.060221,0.846666 l 1.608665,1.552221 v 16.679321 h 2.257776 V 72.060677 l 1.608666,-1.552221 c 0.536222,-0.536221 1.269999,-0.846666 2.060221,-0.846666 v 19.078208 h 2.257776 V 67.291126 h -1.016 -0.225777 -0.169333 c -0.790222,0 -1.523999,0.310444 -2.060221,0.846666 -0.818444,0.790221 -1.636888,1.580443 -2.455332,2.342442 v -3.189108 h -2.257776 v 3.189108 C 78.526509,69.718235 77.708065,68.928013 76.889621,68.137792 76.353399,67.60157 75.619622,67.291126 74.8294,67.291126 h -0.197555 -0.197555 -1.016 V 88.739998 Z M 91.339398,74.064454 c -0.705555,0 -1.269999,0.564444 -1.269999,1.269999 v 12.135546 c 0,0.705555 0.564444,1.269999 1.269999,1.269999 h 5.785551 V 87.61111 h -3.527775 c -0.705555,0 -1.269999,-0.564444 -1.269999,-1.269999 V 81.96667 h 3.527775 c 0.705555,0 1.269999,-0.564444 1.269999,-1.269999 v -5.362218 c 0,-0.705555 -0.564444,-1.269999 -1.269999,-1.269999 z m 2.229554,1.128888 h 0.05644 c 0.705555,0 1.241777,0.592666 1.241777,1.298221 v 3.07622 c 0,0.705555 -0.564444,1.269999 -1.269999,1.269999 h -1.269999 v -4.374441 c 0,-0.705555 0.536222,-1.269999 1.241777,-1.269999 z m 8.889988,6.349995 -0.59266,0.536222 -1.60867,1.693332 c -0.536221,0.564444 -0.874887,1.128888 -0.874887,2.06022 v 2.906887 h 2.257777 v -2.737554 -0.197555 c 0,-1.298221 0,-1.947332 0.56444,-2.511776 l 1.97556,-1.975554 v 0.451555 10.63977 h 2.25777 v -18.34443 h -2.25777 v 5.841995 l -0.98778,0.931333 c -1.46755,-0.790222 -1.55222,-3.443109 -1.55222,-5.221107 v -5.221107 h -2.257777 v 5.192884 c 0,3.189109 0.931337,5.277552 3.076217,5.954885 z m 9.17222,-0.733777 h -0.67734 -0.95955 -0.0282 c -0.70556,0 -1.27,0.592666 -1.27,1.298221 v 5.192885 0.141111 c 0,0.705555 0.56444,1.298221 1.27,1.298221 h 0.0282 2.42711 0.0282 0.0847 0.0282 c 0.36689,0 0.70555,-0.169333 0.93133,-0.451555 v 0.451555 h 0.95956 1.29822 V 87.215999 76.802007 75.362675 c 0,-0.705555 -0.56445,-1.298221 -1.27,-1.298221 h -0.0282 -1.94734 -2.51177 -0.0282 c -0.70556,0 -1.27,0.592666 -1.27,1.298221 v 0.05644 1.044222 h 2.14488 0.0564 0.0564 c 0,-0.705555 0.53622,-1.269999 1.24178,-1.269999 h 0.0282 0.0282 c 0.70556,0 1.24178,0.592666 1.24178,1.298221 v 0.02822 0.423333 2.483554 0.05644 0.02822 c 0,0.705555 -0.53622,1.298222 -1.24178,1.298222 h -0.0282 z m 0.98777,1.15711 h 0.0282 c 0.33867,0 0.62089,-0.112889 0.84667,-0.338667 v 4.48733 0.141111 0.02822 c 0,0.705555 -0.53622,1.298222 -1.24178,1.298222 h -0.0282 -0.0282 c -0.70556,0 -1.24178,-0.592667 -1.24178,-1.298222 v -0.02822 -0.254 -2.709331 -0.02822 c 0,-0.705555 0.53622,-1.298221 1.24178,-1.298221 h 0.0282 0.36689 z m 7.64822,6.773328 v -12.30488 c 0.79022,0 1.524,0.310445 2.06022,0.846667 l 1.60866,1.552221 v 9.905992 h 2.25778 v -14.1111 c 0,-0.225778 -0.11289,-0.451556 -0.31045,-0.620889 l -0.81844,-0.790221 -0.81844,0.790221 c -0.19756,0.169333 -0.31045,0.395111 -0.31045,0.620889 v 2.624664 L 121.4807,74.91112 c -0.53622,-0.536222 -1.27,-0.846666 -2.06022,-0.846666 h -0.19755 -0.19756 -1.016 v 14.675544 z m 8.18446,-1.269999 V 74.064454 h 2.25777 v 12.276657 c 0,0.705555 0.508,1.269999 1.12889,1.269999 h 1.27 v 1.128888 h -3.52777 c -0.62089,0 -1.12889,-0.564444 -1.12889,-1.269999 z m -0.28222,-16.594654 c 0,0.282222 0.14111,0.620888 0.39511,0.818444 l 1.016,0.987777 1.016,-0.987777 c 0.254,-0.197556 0.39511,-0.536222 0.39511,-0.818444 0,-0.282222 -0.14111,-0.592666 -0.39511,-0.790222 l -1.016,-0.987777 -1.016,0.987777 c -0.254,0.197556 -0.39511,0.508 -0.39511,0.790222 z m 13.12332,16.735765 h -3.52778 c -0.70555,0 -1.27,-0.564444 -1.27,-1.269999 v -9.87777 c 0,-0.705555 0.56445,-1.269999 1.27,-1.269999 h 3.52778 v -1.128888 h -5.78555 c -0.70556,0 -1.27,0.564444 -1.27,1.269999 v 12.135546 c 0,0.705555 0.56444,1.269999 1.27,1.269999 h 5.78555 z m 11.00663,-20.319984 v 1.128888 h 3.38666 v 19.049985 c 0,0.705555 0.508,1.269999 1.12889,1.269999 h 2.31422 V 87.61111 h -0.0564 c -0.62089,0 -1.12889,-0.564444 -1.12889,-1.269999 V 68.420014 h 3.66889 v -1.128888 z m 13.12334,6.773328 c -0.70556,0 -1.27,0.564444 -1.27,1.269999 v 12.135546 c 0,0.705555 0.56444,1.269999 1.27,1.269999 h 5.78555 V 87.61111 h -3.52778 c -0.70555,0 -1.27,-0.564444 -1.27,-1.269999 V 81.96667 h 3.52778 c 0.70555,0 1.27,-0.564444 1.27,-1.269999 v -5.362218 c 0,-0.705555 -0.56445,-1.269999 -1.27,-1.269999 z m 2.22955,1.128888 h 0.0564 c 0.70556,0 1.24178,0.592666 1.24178,1.298221 v 3.07622 c 0,0.705555 -0.56444,1.269999 -1.27,1.269999 h -1.27 v -4.374441 c 0,-0.705555 0.53623,-1.269999 1.24178,-1.269999 z m 8.88999,6.349995 -0.59266,0.536222 -1.60867,1.693332 c -0.53622,0.564444 -0.87489,1.128888 -0.87489,2.06022 v 2.906887 h 2.25778 v -2.737554 -0.197555 c 0,-1.298221 0,-1.947332 0.56444,-2.511776 l 1.97556,-1.975554 v 0.451555 10.63977 h 2.25777 v -18.34443 h -2.25777 v 5.841995 l -0.98778,0.931333 c -1.46756,-0.790222 -1.55222,-3.443109 -1.55222,-5.221107 V 70.395568 H 173.466 v 5.192884 c 0,3.189109 0.93133,5.277552 3.07622,5.954885 z m 8.49488,7.196661 v -12.30488 c 0.79022,0 1.524,0.310445 2.06022,0.846667 l 1.60867,1.552221 v 9.905992 h 2.25777 v -14.1111 c 0,-0.225778 -0.11289,-0.451556 -0.31044,-0.620889 l -0.81844,-0.790221 -0.81845,0.790221 c -0.19755,0.169333 -0.31044,0.395111 -0.31044,0.620889 v 2.624664 l -2.45533,-2.342442 c -0.53623,-0.536222 -1.27,-0.846666 -2.06022,-0.846666 h -0.19756 -0.19756 -1.01599 V 88.739998 Z M 195.47934,77.73334 c 0,-1.354666 0,-2.539998 1.27,-2.539998 1.27,0 1.27,1.185332 1.27,2.539998 v 7.337772 c 0,1.354665 0,2.539998 -1.27,2.539998 -1.27,0 -1.27,-1.185333 -1.27,-2.539998 z M 193.22156,86.2 c 0,1.41111 1.12889,2.539998 2.54,2.539998 h 1.97556 c 1.41111,0 2.53999,-1.128888 2.53999,-2.539998 v -9.595548 c 0,-1.41111 -1.12888,-2.539998 -2.53999,-2.539998 h -1.97556 c -1.41111,0 -2.54,1.128888 -2.54,2.539998 z"
       id="text2"
       aria-label="Meʞanic Teʞno" />
  </g>
</svg>
