<?xml version="1.0" encoding="UTF-8" standalone="no"?>
<!-- Created with Inkscape (http://www.inkscape.org/) -->

<svg
   width="519.26654"
   height="100.06657"
   viewBox="0 0 137.38928 26.475947"
   version="1.1"
   id="svg1"
   inkscape:version="1.4 (86a8ad7, 2024-10-11)"
   sodipodi:docname="Word TallThin Stronger.svg"
   xmlns:inkscape="http://www.inkscape.org/namespaces/inkscape"
   xmlns:sodipodi="http://sodipodi.sourceforge.net/DTD/sodipodi-0.dtd"
   xmlns="http://www.w3.org/2000/svg"
   xmlns:svg="http://www.w3.org/2000/svg">
  <sodipodi:namedview
     id="namedview1"
     pagecolor="#ffffff"
     bordercolor="#000000"
     borderopacity="0.25"
     inkscape:showpageshadow="2"
     inkscape:pageopacity="0.0"
     inkscape:pagecheckerboard="0"
     inkscape:deskcolor="#d1d1d1"
     inkscape:document-units="px"
     inkscape:zoom="1.4699074"
     inkscape:cx="272.8063"
     inkscape:cy="89.461418"
     inkscape:window-width="1920"
     inkscape:window-height="1027"
     inkscape:window-x="-8"
     inkscape:window-y="-8"
     inkscape:window-maximized="1"
     inkscape:current-layer="layer1" />
  <defs
     id="defs1" />
  <g
     inkscape:label="Layer 1"
     inkscape:groupmode="layer"
     id="layer1"
     transform="translate(-68.153069,-66.894251)">
    <text
       xml:space="preserve"
       style="font-size:28.2222px;line-height:1;font-family:'BlockTrain Hand';-inkscape-font-specification:'BlockTrain Hand';text-align:start;writing-mode:lr-tb;direction:ltr;text-anchor:start;display:none;fill:#19919b;fill-opacity:1;stroke:#7c7c7c;stroke-width:0.79375;stroke-dasharray:none;stroke-opacity:1"
       x="136.70659"
       y="88.739998"
       id="text1"><tspan
         sodipodi:role="line"
         id="tspan1"
         style="font-style:normal;font-variant:normal;font-weight:normal;font-stretch:normal;font-size:28.2222px;font-family:TallThin;-inkscape-font-specification:TallThin;text-align:center;text-anchor:middle;fill:#19919b;fill-opacity:1;stroke:#7c7c7c;stroke-width:0.79375;stroke-dasharray:none;stroke-opacity:1"
         x="0"
         y="0">Stroŋger Þaŋks</tspan></text>
    <path
       style="font-size:28.2222px;line-height:1;font-family:TallThin;-inkscape-font-specification:TallThin;text-align:center;text-anchor:middle;fill:#19919b;stroke:#7c7c7c;stroke-width:0.79375"
       d="m 75.379716,79.39845 -1.41111,-1.382888 -0.761999,-0.762 -1.693332,-1.693332 C 71.033497,74.967564 70.80772,74.064454 70.80772,73.076677 v -0.112889 -3.245553 -0.02822 c 0,-0.705555 0.564444,-1.269999 1.269999,-1.269999 h 2.257776 c 0.705555,0 1.269999,0.564444 1.269999,1.269999 h 2.257776 v -1.128888 c 0,-0.705555 -0.564444,-1.269999 -1.269999,-1.269999 h -6.773328 c -0.705555,0 -1.269999,0.564444 -1.269999,1.269999 v 0.05644 3.471331 0.141111 c 0,1.15711 0.366888,2.201331 0.959554,2.793997 1.580444,1.636888 1.580444,1.66511 1.580444,1.66511 l 1.354665,1.326444 0.762,0.761999 1.834443,1.834443 c 0.423333,0.423333 0.564444,0.931333 0.564444,1.298221 v 0.479778 3.922886 0.02822 c 0,0.705555 -0.564444,1.269999 -1.269999,1.269999 h -2.257776 c -0.705555,0 -1.269999,-0.564444 -1.269999,-1.269999 h -2.257776 v 1.128888 c 0,0.705555 0.564444,1.269999 1.269999,1.269999 h 6.773328 c 0.705555,0 1.269999,-0.564444 1.269999,-1.269999 v -0.05644 -0.05644 -4.374441 -0.225778 c 0,-0.451555 -0.338667,-1.100665 -0.874889,-1.665109 -1.580443,-1.636888 -1.580443,-1.66511 -1.608665,-1.693332 z m 9.680223,-2.878665 v 9.821326 c 0,0.705555 0.508,1.269999 1.128888,1.269999 h 1.269999 v 1.128888 h -3.527775 c -0.620888,0 -1.128888,-0.564444 -1.128888,-1.269999 V 76.209341 75.193342 H 82.37883 80.403276 v -1.128888 h 1.072443 0.592667 c 0.705555,0 0.733777,-0.254 0.733777,-0.959555 v -0.310444 -1.552221 c 0,-0.225778 0.112889,-0.479778 0.310444,-0.649111 l 0.818444,-0.790222 0.818444,0.790222 c 0.197555,0.169333 0.310444,0.423333 0.310444,0.649111 v 2.82222 h 2.398887 v 1.128888 h -1.128888 -0.592666 c -0.677333,0 -0.677333,0.310444 -0.677333,1.015999 z m 7.027327,-1.185332 c 0,0.423333 -0.112889,0.705555 -0.338667,1.015999 -0.02822,0.05644 -0.08467,0.112889 -0.112889,0.141111 -0.08467,0 -0.169333,0 -0.282222,-0.02822 -0.564444,-0.08467 -0.959554,-0.451556 -0.959554,-1.016 0,-0.564444 0.366888,-0.931332 0.931332,-0.931332 0.451555,0 0.762,0.310444 0.762,0.761999 z m -0.903111,2.624664 c -0.02822,0.254 -0.05644,0.592667 -0.05644,0.959555 v 1.91911 c 0,0.225777 0.112889,0.479777 0.310444,0.64911 l 0.818444,0.790222 0.818444,-0.790222 c 0.197555,-0.169333 0.310444,-0.423333 0.310444,-0.64911 v -3.753553 l 0.141111,-0.141111 1.044221,-1.044221 c 0.366889,-0.366889 0.649111,-0.564444 1.072444,-0.649111 v 13.490212 h 2.257776 V 74.064454 h -1.693332 -0.02822 c -0.903111,0 -1.806221,0.39511 -2.511776,1.128888 l -0.282222,0.310444 V 74.91112 c 0,-1.100666 -0.874888,-1.975554 -1.975554,-1.975554 -1.382888,0 -2.539998,1.100665 -2.539998,2.511775 0,1.326444 1.044221,2.370665 2.31422,2.511776 z M 102.41661,77.73334 c 0,-1.354666 0,-2.539998 1.27,-2.539998 1.27,0 1.27,1.185332 1.27,2.539998 v 7.337772 c 0,1.354665 0,2.539998 -1.27,2.539998 -1.27,0 -1.27,-1.185333 -1.27,-2.539998 z M 100.15884,86.2 c 0,1.41111 1.12889,2.539998 2.54,2.539998 h 1.97555 c 1.41111,0 2.54,-1.128888 2.54,-2.539998 v -9.595548 c 0,-1.41111 -1.12889,-2.539998 -2.54,-2.539998 h -1.97555 c -1.41111,0 -2.54,1.128888 -2.54,2.539998 z m 11.5711,2.539998 v -12.30488 c 0.79022,0 1.524,0.310445 2.06022,0.846667 l 1.60866,1.552221 v 9.341548 0.564444 1.777998 0.05644 c 0,0.705555 -0.56444,1.269999 -1.26999,1.269999 h -4.37445 v 1.128888 h 5.36222 c 1.41111,0 2.54,-1.128888 2.54,-2.539998 V 90.263997 88.739998 88.175554 74.628898 c 0,-0.225778 -0.11289,-0.451556 -0.31044,-0.620889 l -0.81845,-0.790221 -0.81844,0.790221 c -0.19756,0.169333 -0.31045,0.395111 -0.31045,0.620889 v 2.624664 l -2.45533,-2.342442 c -0.53622,-0.536222 -1.27,-0.846666 -2.06022,-0.846666 h -0.19755 -0.19756 -1.016 v 14.675544 z m 10.44224,-11.937991 v 9.454437 0.02822 c 0,0.705555 0.53622,1.298222 1.24177,1.298222 h 0.0282 0.0282 c 0.70555,0 1.24177,-0.592667 1.24177,-1.298222 v -0.02822 -9.567326 -0.141111 -0.02822 c 0,-0.705555 -0.53622,-1.298221 -1.24177,-1.298221 h -0.0282 -0.0282 c -0.70555,0 -1.24177,0.592666 -1.24177,1.298221 v 0.02822 z m 2.53999,11.599324 c -0.22577,0.225778 -0.508,0.338667 -0.84666,0.338667 h -0.0282 -0.0282 -0.36688 -0.59267 -0.254 -0.14111 c -1.41111,0 -2.54,-1.128888 -2.54,-2.539998 v -9.595548 c 0,-1.41111 1.12889,-2.539998 2.54,-2.539998 h 1.21355 0.0847 0.0282 c 0.36689,0 0.70556,0.141111 0.93133,0.338666 v -0.338666 h 2.25778 v 2.82222 11.571102 3.189109 0.05644 c 0,0.705555 -0.56444,1.269999 -1.27,1.269999 h -5.50333 V 91.84444 h 3.24556 c 0.70555,0 1.26999,-0.564444 1.26999,-1.269999 v -0.05644 -0.39511 z m 5.78555,-14.336877 c -0.70555,0 -1.27,0.564444 -1.27,1.269999 v 12.135546 c 0,0.705555 0.56445,1.269999 1.27,1.269999 h 5.78555 V 87.61111 h -3.52777 c -0.70556,0 -1.27,-0.564444 -1.27,-1.269999 V 81.96667 h 3.52778 c 0.70555,0 1.26999,-0.564444 1.26999,-1.269999 v -5.362218 c 0,-0.705555 -0.56444,-1.269999 -1.26999,-1.269999 z m 2.22956,1.128888 h 0.0564 c 0.70556,0 1.24178,0.592666 1.24178,1.298221 v 3.07622 c 0,0.705555 -0.56445,1.269999 -1.27,1.269999 h -1.27 v -4.374441 c 0,-0.705555 0.53622,-1.269999 1.24178,-1.269999 z m 8.18443,0.141111 c 0,0.423333 -0.11289,0.705555 -0.33867,1.015999 -0.0282,0.05644 -0.0847,0.112889 -0.11289,0.141111 -0.0847,0 -0.16933,0 -0.28222,-0.02822 -0.56444,-0.08467 -0.95955,-0.451556 -0.95955,-1.016 0,-0.564444 0.36689,-0.931332 0.93133,-0.931332 0.45156,0 0.762,0.310444 0.762,0.761999 z m -0.90311,2.624664 c -0.0282,0.254 -0.0565,0.592667 -0.0565,0.959555 v 1.91911 c 0,0.225777 0.11289,0.479777 0.31045,0.64911 l 0.81844,0.790222 0.81845,-0.790222 c 0.19755,-0.169333 0.31044,-0.423333 0.31044,-0.64911 v -3.753553 l 0.14111,-0.141111 1.04422,-1.044221 c 0.36689,-0.366889 0.64911,-0.564444 1.07245,-0.649111 v 13.490212 h 2.25777 V 74.064454 h -1.69333 -0.0282 c -0.90311,0 -1.80622,0.39511 -2.51178,1.128888 l -0.28222,0.310444 V 74.91112 c 0,-1.100666 -0.87489,-1.975554 -1.97555,-1.975554 -1.38289,0 -2.54,1.100665 -2.54,2.511775 0,1.326444 1.04422,2.370665 2.31422,2.511776 z M 159.7077,72.0889 h 2.25778 c 1.41111,0 2.54,1.128888 2.54,2.539998 v 6.773328 c 0,1.41111 -1.12889,2.539998 -2.54,2.539998 h -2.25778 z m -2.25777,-4.797774 v 21.448872 h 2.25777 v -3.668886 h 4.51555 c 1.41111,0 2.54,-1.128888 2.54,-2.539998 V 73.50001 c 0,-1.41111 -1.12889,-2.539998 -2.54,-2.539998 h -4.51555 v -3.668886 z m 14.5062,13.518434 h -0.67733 -0.95955 -0.0282 c -0.70555,0 -1.26999,0.592666 -1.26999,1.298221 v 5.192885 0.141111 c 0,0.705555 0.56444,1.298221 1.26999,1.298221 h 0.0282 2.42711 0.0282 0.0847 0.0282 c 0.36689,0 0.70555,-0.169333 0.93133,-0.451555 v 0.451555 h 0.95955 1.29823 V 87.215999 76.802007 75.362675 c 0,-0.705555 -0.56445,-1.298221 -1.27,-1.298221 h -0.0282 -1.94733 -2.51177 -0.0282 c -0.70555,0 -1.26999,0.592666 -1.26999,1.298221 v 0.05644 1.044222 h 2.14488 0.0565 0.0564 c 0,-0.705555 0.53622,-1.269999 1.24178,-1.269999 h 0.0282 0.0282 c 0.70556,0 1.24178,0.592666 1.24178,1.298221 v 0.02822 0.423333 2.483554 0.05644 0.02822 c 0,0.705555 -0.53622,1.298222 -1.24178,1.298222 h -0.0282 z m 0.98778,1.15711 h 0.0282 c 0.33867,0 0.62089,-0.112889 0.84667,-0.338667 v 4.48733 0.141111 0.02822 c 0,0.705555 -0.53622,1.298222 -1.24178,1.298222 h -0.0282 -0.0282 c -0.70556,0 -1.24178,-0.592667 -1.24178,-1.298222 v -0.02822 -0.254 -2.709331 -0.02822 c 0,-0.705555 0.53622,-1.298221 1.24178,-1.298221 h 0.0282 0.36689 z m 7.64822,6.773328 v -12.30488 c 0.79022,0 1.52399,0.310445 2.06022,0.846667 l 1.60866,1.552221 v 9.341548 0.564444 1.777998 0.05644 c 0,0.705555 -0.56444,1.269999 -1.27,1.269999 h -4.37444 v 1.128888 h 5.36222 c 1.41111,0 2.54,-1.128888 2.54,-2.539998 V 90.263997 88.739998 88.175554 74.628898 c 0,-0.225778 -0.11289,-0.451556 -0.31045,-0.620889 l -0.81844,-0.790221 -0.81844,0.790221 c -0.19756,0.169333 -0.31045,0.395111 -0.31045,0.620889 v 2.624664 l -2.45533,-2.342442 c -0.53622,-0.536222 -1.27,-0.846666 -2.06022,-0.846666 h -0.19756 -0.19755 -1.016 v 14.675544 z m 10.44223,-7.253106 1.97556,-1.975554 c 0.56444,-0.564444 0.56444,-1.213554 0.56444,-2.511776 v -0.197555 -2.173109 c 0,-0.225778 0.11289,-0.451556 0.31045,-0.620889 l 0.81844,-0.790221 0.81844,0.790221 c 0.19756,0.169333 0.31045,0.395111 0.31045,0.620889 v 2.342442 c 0,0.931333 -0.33867,1.495777 -0.87489,2.060221 l -1.60867,1.693332 -0.56444,0.536222 c 2.11666,0.705555 3.048,2.793998 3.048,5.954884 v 1.523999 h -2.25778 v -1.552221 c 0,-1.777999 -0.0847,-4.430886 -1.55222,-5.221107 l -0.98778,0.931332 v 5.841996 h -2.25777 V 67.85557 h 2.25777 z m 13.15155,1.91911 -3.33022,-3.668886 c -0.508,-0.536222 -0.508,-0.592666 -0.508,-1.523999 v -0.874888 -0.846666 -0.02822 c 0,-0.818444 0.64911,-1.269999 1.27,-1.269999 0.62088,0 1.26999,0.451555 1.26999,1.269999 0,0.225777 0.11289,0.479777 0.31045,0.64911 l 0.81844,0.790222 0.81845,-0.790222 c 0.19755,-0.169333 0.31044,-0.423333 0.31044,-0.64911 v -1.128888 c 0,-0.705555 -0.56444,-1.269999 -1.27,-1.269999 h -3.24555 c -1.41111,0 -2.54,1.100665 -2.54,2.511775 v 0.02822 c 0,1.15711 0,1.749776 0.95956,2.793998 l 3.35844,3.697108 c 0.45155,0.507999 0.47977,0.564444 0.47977,1.354665 v 1.016 0.846666 0.02822 c 0,0.818444 -0.64911,1.269999 -1.26999,1.269999 -0.62089,0 -1.27,-0.451555 -1.27,-1.269999 h -2.25778 v 1.128888 c 0,0.705555 0.56444,1.269999 1.27,1.269999 h 3.24555 c 1.41111,0 2.54,-1.100666 2.54,-2.511776 V 86.2 c 0,-1.15711 0,-1.721554 -0.95955,-2.793998 z"
       id="text2"
       aria-label="Stroŋger Þaŋks" />
  </g>
</svg>
