<?xml version="1.0" encoding="UTF-8" standalone="no"?>
<!-- Created with Inkscape (http://www.inkscape.org/) -->

<svg
   width="1294.0935"
   height="125.87652"
   viewBox="0 0 342.39558 33.304827"
   version="1.1"
   id="svg1"
   inkscape:version="1.4 (86a8ad7, 2024-10-11)"
   sodipodi:docname="Word Hangeulic Regular Mechanic Techno.svg"
   xmlns:inkscape="http://www.inkscape.org/namespaces/inkscape"
   xmlns:sodipodi="http://sodipodi.sourceforge.net/DTD/sodipodi-0.dtd"
   xmlns="http://www.w3.org/2000/svg"
   xmlns:svg="http://www.w3.org/2000/svg">
  <sodipodi:namedview
     id="namedview1"
     pagecolor="#ffffff"
     bordercolor="#000000"
     borderopacity="0.25"
     inkscape:showpageshadow="2"
     inkscape:pageopacity="0.0"
     inkscape:pagecheckerboard="0"
     inkscape:deskcolor="#d1d1d1"
     inkscape:document-units="px"
     inkscape:zoom="0.7349537"
     inkscape:cx="619.76693"
     inkscape:cy="143.54646"
     inkscape:window-width="1920"
     inkscape:window-height="1027"
     inkscape:window-x="-8"
     inkscape:window-y="-8"
     inkscape:window-maximized="1"
     inkscape:current-layer="layer1" />
  <defs
     id="defs1" />
  <g
     inkscape:label="Layer 1"
     inkscape:groupmode="layer"
     id="layer1"
     transform="translate(34.491211,-57.636369)">
    <text
       xml:space="preserve"
       style="font-size:28.2222px;line-height:1;font-family:'BlockTrain Hand';-inkscape-font-specification:'BlockTrain Hand';text-align:start;writing-mode:lr-tb;direction:ltr;text-anchor:start;display:none;fill:#19919b;fill-opacity:1;stroke:#7c7c7c;stroke-width:0.79375;stroke-dasharray:none;stroke-opacity:1"
       x="136.70659"
       y="88.739998"
       id="text1"><tspan
         sodipodi:role="line"
         id="tspan1"
         style="font-style:normal;font-variant:normal;font-weight:normal;font-stretch:normal;font-size:28.2222px;font-family:'NewEng Hangeul';-inkscape-font-specification:'NewEng Hangeul';text-align:center;text-anchor:middle;fill:#19919b;fill-opacity:1;stroke:#7c7c7c;stroke-width:0.79375;stroke-dasharray:none;stroke-opacity:1"
         x="0"
         y="0">Meʞánic Téʞnō</tspan></text>
    <path
       style="font-size:28.2222px;line-height:1;font-family:'NewEng Hangeul';-inkscape-font-specification:'NewEng Hangeul';text-align:center;text-anchor:middle;fill:#19919b;stroke:#7c7c7c;stroke-width:0.79375"
       d="m -34.094336,68.561125 v 20.940872 l 0.705555,0.874888 2.82222,-2.370664 v -15.77621 l 7.648216,7.676438 2.82222,-2.370665 6.942661,-6.942661 v 18.908874 l 0.705556,0.874888 2.8222195,-2.370664 V 67.065348 l -0.7337775,-0.874888 -2.793998,2.370665 v 0.423333 l -2.624664,2.201331 -5.277552,5.249329 -7.619994,-7.619994 -1.890887,1.580444 v -3.33022 l -0.733777,-0.874888 z m 27.9964503,0.846666 h 1.3828878 l -2.0884428,1.777998 v 18.316208 l 0.705555,0.874888 H 14.842987 l 2.82222,-2.370664 -0.733777,-0.874889 H -3.2756657 V 79.906449 H 9.6218799 L 12.415878,77.535784 11.710323,76.660896 H -1.6670003 l -1.6086654,1.354666 V 69.690013 L -3.5014433,69.407791 H 14.842987 L 17.665207,67.065348 16.93143,66.19046 H -4.0094429 l -2.7939978,2.370665 z M 23.027453,89.304442 h 3.668886 l 8.551327,-8.551327 v -0.846666 h 4.289774 l 1.890887,-1.608665 v 11.204213 l 0.705555,0.874888 2.82222,-2.370664 V 67.065348 l -0.733777,-0.874888 -2.793998,2.370665 v 8.099771 H 28.813004 l -4.797774,-9.595548 -0.733777,-0.874888 -2.793998,2.370665 5.221107,10.470436 0.733777,0.874888 h 4.882441 l -8.297327,8.269105 z M 54.438791,63.678684 c 2.82222,-0.282222 6.999106,-1.608666 8.918216,-2.709331 l 2.596442,-2.17311 -0.536222,-0.64911 c -1.919109,1.100665 -6.095995,2.398887 -8.946437,2.709331 l -2.56822,2.173109 z m -3.132664,24.327537 v -8.099772 h 15.52221 l 1.890888,-1.608665 V 89.501997 L 69.42478,90.376885 72.247,88.006221 V 67.065348 L 71.513223,66.19046 H 53.197015 l -1.890888,1.608665 V 67.065348 L 50.57235,66.19046 47.778352,68.561125 v 20.940872 l 0.705555,0.874888 z m 0,-18.59843 h 17.413098 v 7.253105 h -15.52221 l -1.890888,1.608666 z m 23.763119,-0.846666 v 20.940872 l 0.705555,0.874888 2.82222,-2.370664 v -15.77621 l 15.52221,15.52221 1.890887,-1.580443 v 3.330219 l 0.705555,0.874888 2.82222,-2.370664 V 67.065348 l -0.733777,-0.874888 -2.793998,2.370665 v 15.77621 l -15.52221,-15.522211 -1.890887,1.580444 v -3.33022 L 77.863243,66.19046 Z m 27.996454,0.846666 h 11.65577 l -1.94733,1.636887 v 15.832655 l 0.22578,0.253999 h -7.84578 l -2.79399,2.370665 0.70555,0.874888 h 20.94087 l 2.82222,-2.370664 -0.73377,-0.874889 h -11.85333 l 2.08845,-1.749776 V 69.548902 l -0.11289,-0.141111 h 7.78932 l 2.82222,-2.342443 -0.73377,-0.874888 h -20.94088 l -2.79399,2.370665 z m 27.2909,0 h 1.38288 l -2.08844,1.777998 v 18.316208 l 0.70556,0.874888 h 20.94087 l 2.82222,-2.370664 -0.73378,-0.874889 H 133.17882 V 69.690013 l -0.22578,-0.282222 h 18.34443 l 2.82222,-2.342443 -0.73378,-0.874888 h -20.94087 l -2.794,2.370665 z m 44.22422,0 h 11.85333 l -2.08845,1.777998 v 18.316208 l 0.70556,0.874888 2.82222,-2.370664 V 69.690013 l -0.22578,-0.282222 h 7.874 l 2.82222,-2.342443 -0.73378,-0.874888 h -20.94087 l -2.794,2.370665 z m 33.24578,-5.729107 c 2.82222,-0.282222 6.99911,-1.608666 8.91822,-2.709331 l 2.59644,-2.17311 -0.53622,-0.64911 c -1.91911,1.100665 -6.096,2.398887 -8.94644,2.709331 l -2.56822,2.173109 z m -5.95488,5.729107 h 1.38288 l -2.08844,1.777998 v 18.316208 l 0.70556,0.874888 h 20.94087 l 2.82222,-2.370664 -0.73378,-0.874889 h -20.20709 v -7.224883 h 12.89754 l 2.794,-2.370665 -0.70555,-0.874888 H 206.3026 l -1.60866,1.354666 v -8.325549 l -0.22578,-0.282222 h 18.34443 l 2.82222,-2.342443 -0.73378,-0.874888 h -20.94087 l -2.794,2.370665 z m 29.12533,19.896651 h 3.66889 l 8.55133,-8.551327 v -0.846666 h 4.28977 l 1.89089,-1.608665 v 11.204213 l 0.70555,0.874888 2.82222,-2.370664 V 67.065348 l -0.73377,-0.874888 -2.794,2.370665 v 8.099771 H 236.7826 l -4.79777,-9.595548 -0.73378,-0.874888 -2.79399,2.370665 5.2211,10.470436 0.73378,0.874888 h 4.88244 l -8.29733,8.269105 z m 24.7509,-20.743317 v 20.940872 l 0.70555,0.874888 2.82222,-2.370664 v -15.77621 l 15.52221,15.52221 1.89089,-1.580443 v 3.330219 l 0.70556,0.874888 2.82222,-2.370664 V 67.065348 l -0.73378,-0.874888 -2.794,2.370665 v 15.77621 l -15.52221,-15.522211 -1.89089,1.580444 v -3.33022 l -0.73377,-0.874888 z m 32.08867,-5.926663 h 15.71976 l 2.59644,-2.201331 -0.56444,-0.649111 h -15.69154 l -2.59645,2.201332 z m -4.826,13.772434 v 5.24933 c 0,3.753552 0,5.700884 0.87489,6.716883 l 0.70555,0.874888 c 0.95956,1.128888 2.90689,1.128888 6.99911,1.128888 h 5.24933 c 3.75355,0 5.70088,0 6.7451,-0.874888 l 2.794,-2.342442 c 1.12889,-0.959555 1.12889,-2.906887 1.12889,-6.999106 V 74.91112 c 0,-3.753553 0,-5.700885 -0.87489,-6.745106 l -0.70555,-0.846666 c -0.95956,-1.128888 -2.90689,-1.128888 -6.99911,-1.128888 h -5.24933 c -3.75355,0 -5.70088,0 -6.7451,0.874888 l -2.794,2.342443 c -1.12889,0.931332 -1.12889,2.906886 -1.12889,6.999105 z m 3.556,-1.495776 c 0,-2.483554 0,-4.176886 0.22578,-5.333996 1.12888,0 2.6811,-0.169333 4.79777,-0.169333 h 5.24933 c 3.556,0 5.53155,0 6.57577,0.761999 0,1.100666 0.53622,3.019775 0.53622,6.237106 v 5.24933 c 0,2.483553 0,4.176885 -0.22577,5.333995 -1.12889,0 -2.68111,0.141111 -4.79778,0.141111 h -5.24933 c -3.556,0 -5.50333,0 -6.57577,-0.733777 0,-1.128888 -0.53622,-3.019775 -0.53622,-6.237106 z"
       id="text2"
       aria-label="Meʞánic Téʞnō" />
  </g>
</svg>
