<?xml version="1.0" encoding="UTF-8" standalone="no"?>
<!-- Created with Inkscape (http://www.inkscape.org/) -->

<svg
   width="328.86649"
   height="105.3999"
   viewBox="0 0 87.012592 27.887056"
   version="1.1"
   id="svg1"
   inkscape:version="1.4 (86a8ad7, 2024-10-11)"
   sodipodi:docname="Word TallThin Psychedelic.svg"
   xmlns:inkscape="http://www.inkscape.org/namespaces/inkscape"
   xmlns:sodipodi="http://sodipodi.sourceforge.net/DTD/sodipodi-0.dtd"
   xmlns="http://www.w3.org/2000/svg"
   xmlns:svg="http://www.w3.org/2000/svg">
  <sodipodi:namedview
     id="namedview1"
     pagecolor="#ffffff"
     bordercolor="#000000"
     borderopacity="0.25"
     inkscape:showpageshadow="2"
     inkscape:pageopacity="0.0"
     inkscape:pagecheckerboard="0"
     inkscape:deskcolor="#d1d1d1"
     inkscape:document-units="px"
     inkscape:zoom="1.4699074"
     inkscape:cx="180.28346"
     inkscape:cy="39.798425"
     inkscape:window-width="1920"
     inkscape:window-height="1027"
     inkscape:window-x="-8"
     inkscape:window-y="-8"
     inkscape:window-maximized="1"
     inkscape:current-layer="layer1" />
  <defs
     id="defs1" />
  <g
     inkscape:label="Layer 1"
     inkscape:groupmode="layer"
     id="layer1"
     transform="translate(-93.341407,-66.894251)">
    <text
       xml:space="preserve"
       style="font-size:28.2222px;line-height:1;font-family:'BlockTrain Hand';-inkscape-font-specification:'BlockTrain Hand';text-align:start;writing-mode:lr-tb;direction:ltr;text-anchor:start;display:none;fill:#19919b;fill-opacity:1;stroke:#7c7c7c;stroke-width:0.79375;stroke-dasharray:none;stroke-opacity:1"
       x="136.70659"
       y="88.739998"
       id="text1"><tspan
         sodipodi:role="line"
         id="tspan1"
         style="font-style:normal;font-variant:normal;font-weight:normal;font-stretch:normal;font-size:28.2222px;font-family:TallThin;-inkscape-font-specification:TallThin;text-align:center;text-anchor:middle;fill:#19919b;fill-opacity:1;stroke:#7c7c7c;stroke-width:0.79375;stroke-dasharray:none;stroke-opacity:1"
         x="0"
         y="0">Psyʞedelic</tspan></text>
    <path
       style="font-size:28.2222px;line-height:1;font-family:TallThin;-inkscape-font-specification:TallThin;text-align:center;text-anchor:middle;fill:#19919b;stroke:#7c7c7c;stroke-width:0.79375"
       d="m 93.738282,67.291126 v 21.448872 h 2.257776 V 81.96667 h 4.515552 c 1.41111,0 2.54,-1.128888 2.54,-2.539998 v -9.595548 c 0,-1.41111 -1.12889,-2.539998 -2.54,-2.539998 z m 4.515552,13.546656 H 95.996058 V 68.420014 h 2.257776 c 1.41111,0 2.539996,1.128888 2.539996,2.539998 v 7.337772 c 0,1.41111 -1.128886,2.539998 -2.539996,2.539998 z m 13.433776,2.56822 -3.33022,-3.668886 c -0.508,-0.536222 -0.508,-0.592666 -0.508,-1.523999 v -0.874888 -0.846666 -0.02822 c 0,-0.818444 0.64911,-1.269999 1.27,-1.269999 0.62089,0 1.27,0.451555 1.27,1.269999 0,0.225777 0.11289,0.479777 0.31044,0.64911 l 0.81845,0.790222 0.81844,-0.790222 c 0.19756,-0.169333 0.31044,-0.423333 0.31044,-0.64911 v -1.128888 c 0,-0.705555 -0.56444,-1.269999 -1.26999,-1.269999 h -3.24556 c -1.41111,0 -2.54,1.100665 -2.54,2.511775 v 0.02822 c 0,1.15711 0,1.749776 0.95956,2.793998 l 3.35844,3.697108 c 0.45156,0.507999 0.47978,0.564444 0.47978,1.354665 v 1.016 0.846666 0.02822 c 0,0.818444 -0.64911,1.269999 -1.27,1.269999 -0.62089,0 -1.27,-0.451555 -1.27,-1.269999 h -2.25778 v 1.128888 c 0,0.705555 0.56445,1.269999 1.27,1.269999 h 3.24556 c 1.41111,0 2.53999,-1.100666 2.53999,-2.511776 V 86.2 c 0,-1.15711 0,-1.721554 -0.95955,-2.793998 z m 4.91066,7.224883 0.0282,-0.02822 1.94734,-1.91911 0.79022,-0.790221 0.33866,-0.338667 1.524,-1.608665 0.0564,-0.05644 c 0.56444,-0.620889 0.95955,-1.636888 0.95955,-2.793998 v -0.141111 -8.861771 h -2.25777 v 9.736659 0.112889 c 0,0.987777 -0.16934,1.947332 -0.70556,2.483553 l -0.0564,0.05644 -0.64911,0.64911 -0.67734,-0.677332 -0.0282,-0.02822 c -0.53622,-0.536221 -0.70555,-1.495776 -0.70555,-2.483553 V 83.829339 74.09268 h -2.25778 v 8.861771 0.141111 c 0,1.15711 0.39511,2.173109 0.95955,2.793998 l 0.0282,0.02822 1.55222,1.636887 0.36689,0.366889 -3.13267,3.160886 -0.0282,0.02822 c -0.53622,0.564444 -0.87489,1.213554 -0.87489,1.66511 v 0.05644 1.552221 h 2.25778 v -2.370665 -0.08467 c 0,-0.366889 0.14111,-0.874889 0.56444,-1.298222 z m 10.97844,-9.087548 -0.59267,0.536222 -1.60866,1.693332 c -0.53622,0.564444 -0.87489,1.128888 -0.87489,2.06022 v 2.906887 h 2.25778 v -2.737554 -0.197555 c 0,-1.298221 0,-1.947332 0.56444,-2.511776 l 1.97555,-1.975554 v 0.451555 10.63977 h 2.25778 v -18.34443 h -2.25778 v 5.841995 l -0.98777,0.931333 c -1.46756,-0.790222 -1.55222,-3.443109 -1.55222,-5.221107 v -5.221107 h -2.25778 v 5.192884 c 0,3.189109 0.93133,5.277552 3.07622,5.954885 z m 7.5071,-7.478883 c -0.70555,0 -1.27,0.564444 -1.27,1.269999 v 12.135546 c 0,0.705555 0.56445,1.269999 1.27,1.269999 h 5.78555 V 87.61111 h -3.52777 c -0.70556,0 -1.27,-0.564444 -1.27,-1.269999 V 81.96667 h 3.52778 c 0.70555,0 1.26999,-0.564444 1.26999,-1.269999 v -5.362218 c 0,-0.705555 -0.56444,-1.269999 -1.26999,-1.269999 z m 2.22956,1.128888 h 0.0564 c 0.70556,0 1.24178,0.592666 1.24178,1.298221 v 3.07622 c 0,0.705555 -0.56445,1.269999 -1.27,1.269999 h -1.27 v -4.374441 c 0,-0.705555 0.53622,-1.269999 1.24178,-1.269999 z m 12.86932,-7.337772 h -2.25778 v 6.208884 h -2.25777 c -1.41111,0 -2.54,1.128888 -2.54,2.539998 V 86.2 c 0,1.41111 1.12889,2.539998 2.54,2.539998 h 1.35466 0.0564 0.0564 c 0.31044,0 0.56444,-0.112889 0.79022,-0.282222 v 0.282222 h 2.25778 z m -2.25778,7.337772 V 87.61111 c -1.41111,0 -2.54,-1.128888 -2.54,-2.539998 V 77.73334 c 0,-1.41111 1.12889,-2.539998 2.54,-2.539998 z m 5.78555,-1.128888 c -0.70555,0 -1.27,0.564444 -1.27,1.269999 v 12.135546 c 0,0.705555 0.56445,1.269999 1.27,1.269999 h 5.78555 V 87.61111 h -3.52777 c -0.70556,0 -1.27,-0.564444 -1.27,-1.269999 V 81.96667 h 3.52777 c 0.70556,0 1.27,-0.564444 1.27,-1.269999 v -5.362218 c 0,-0.705555 -0.56444,-1.269999 -1.27,-1.269999 z m 2.22955,1.128888 h 0.0565 c 0.70555,0 1.24178,0.592666 1.24178,1.298221 v 3.07622 c 0,0.705555 -0.56445,1.269999 -1.27,1.269999 h -1.27 v -4.374441 c 0,-0.705555 0.53622,-1.269999 1.24177,-1.269999 z m 8.07156,13.546656 h 1.52399 0.0282 c 0.19755,0 0.22577,-0.05644 0.31044,-0.141111 l 0.39511,-0.423333 -0.39511,-0.423333 c -0.0847,-0.08467 -0.11289,-0.141111 -0.31044,-0.141111 -1.83445,0 -1.83445,-1.128888 -1.83445,-2.539998 V 67.85557 h -2.25777 V 86.2 c 0,1.41111 1.12889,2.539998 2.54,2.539998 z m 3.10445,-1.269999 V 74.064454 h 2.25777 v 12.276657 c 0,0.705555 0.508,1.269999 1.12889,1.269999 h 1.27 v 1.128888 h -3.52777 c -0.62089,0 -1.12889,-0.564444 -1.12889,-1.269999 z M 166.8338,70.875345 c 0,0.282222 0.14111,0.620888 0.39511,0.818444 l 1.016,0.987777 1.016,-0.987777 c 0.254,-0.197556 0.39511,-0.536222 0.39511,-0.818444 0,-0.282222 -0.14111,-0.592666 -0.39511,-0.790222 l -1.016,-0.987777 -1.016,0.987777 c -0.254,0.197556 -0.39511,0.508 -0.39511,0.790222 z m 13.12332,16.735765 h -3.52777 c -0.70556,0 -1.27,-0.564444 -1.27,-1.269999 v -9.87777 c 0,-0.705555 0.56444,-1.269999 1.27,-1.269999 h 3.52777 v -1.128888 h -5.78555 c -0.70555,0 -1.27,0.564444 -1.27,1.269999 v 12.135546 c 0,0.705555 0.56445,1.269999 1.27,1.269999 h 5.78555 z"
       id="text2"
       aria-label="Psyʞedelic" />
  </g>
</svg>
