<?xml version="1.0" encoding="UTF-8" standalone="no"?>
<!-- Created with Inkscape (http://www.inkscape.org/) -->

<svg
   width="471.18433"
   height="94.068069"
   viewBox="0 0 124.66752 24.888843"
   version="1.1"
   id="svg1"
   inkscape:version="1.4 (86a8ad7, 2024-10-11)"
   sodipodi:docname="Word Fifth Eighth.svg"
   xmlns:inkscape="http://www.inkscape.org/namespaces/inkscape"
   xmlns:sodipodi="http://sodipodi.sourceforge.net/DTD/sodipodi-0.dtd"
   xmlns="http://www.w3.org/2000/svg"
   xmlns:svg="http://www.w3.org/2000/svg">
  <sodipodi:namedview
     id="namedview1"
     pagecolor="#ffffff"
     bordercolor="#000000"
     borderopacity="0.25"
     inkscape:showpageshadow="2"
     inkscape:pageopacity="0.0"
     inkscape:pagecheckerboard="0"
     inkscape:deskcolor="#d1d1d1"
     inkscape:document-units="px"
     inkscape:zoom="2.078763"
     inkscape:cx="226.81758"
     inkscape:cy="90.919453"
     inkscape:window-width="1512"
     inkscape:window-height="1018"
     inkscape:window-x="399"
     inkscape:window-y="0"
     inkscape:window-maximized="0"
     inkscape:current-layer="layer1" />
  <defs
     id="defs1" />
  <g
     inkscape:label="Layer 1"
     inkscape:groupmode="layer"
     id="layer1"
     transform="translate(-74.386934,-65.004272)">
    <text
       xml:space="preserve"
       style="font-size:28.2222px;line-height:1;font-family:'BlockTrain Hand';-inkscape-font-specification:'BlockTrain Hand';text-align:start;writing-mode:lr-tb;direction:ltr;text-anchor:start;display:none;fill:#19919b;fill-opacity:1;stroke:#7c7c7c;stroke-width:0.79375;stroke-dasharray:none;stroke-opacity:1"
       x="136.70659"
       y="88.739998"
       id="text1"><tspan
         sodipodi:role="line"
         id="tspan1"
         style="font-style:normal;font-variant:normal;font-weight:normal;font-stretch:normal;font-size:28.2222px;font-family:'NewEng Rune';-inkscape-font-specification:'NewEng Rune';text-align:center;text-anchor:middle;fill:#19919b;fill-opacity:1;stroke:#7c7c7c;stroke-width:0.79375;stroke-dasharray:none;stroke-opacity:1"
         x="136.70659"
         y="88.739998">fifþ eiȝtþ</tspan></text>
    <path
       style="font-size:28.2222px;line-height:1;font-family:'NewEng Rune';-inkscape-font-specification:'NewEng Rune';text-align:center;text-anchor:middle;fill:#19919b;stroke:#7c7c7c;stroke-width:0.79375"
       d="m 85.624416,66.162238 v 6.773328 6.773328 9.031104 l 0.254,0.64911 1.80622,-0.64911 v -9.031104 l 6.801551,-6.773328 -0.197556,-0.649111 -1.890887,0.649111 -4.713108,4.713107 v -4.713107 l 6.801551,-6.773328 -0.197556,-0.649111 -1.890887,0.649111 -4.713108,4.62844 v -4.62844 l -0.169333,-0.649111 z m 11.655772,0 v 22.57776 l 0.254,0.64911 1.806221,-0.64911 v -22.57776 l -0.169334,-0.649111 z m 4.882452,0 v 6.773328 6.773328 9.031104 l 0.254,0.64911 1.80622,-0.64911 v -9.031104 l 6.80155,-6.773328 -0.19756,-0.649111 -1.89088,0.649111 -4.71311,4.713107 v -4.713107 l 6.80155,-6.773328 -0.19756,-0.649111 -1.89088,0.649111 -4.71311,4.62844 v -4.62844 l -0.16933,-0.649111 z m 11.65577,0 v 4.515552 13.546656 4.515552 l 0.254,0.64911 1.80622,-0.64911 v -4.515552 l 6.80155,-6.773328 -0.19755,-0.649111 -6.604,-6.575773 v -4.063996 l -0.16933,-0.649111 z m 2.06022,16.001987 v -8.97466 l 4.48733,4.48733 z m 23.4244,-5.362218 6.35,-10.639769 -0.19756,-0.649111 -1.89088,0.649111 -6.77333,11.28888 0.254,0.64911 6.77333,11.28888 1.83444,-0.64911 -0.19756,-0.649111 -6.03955,-9.990659 h 4.40267 l 1.83444,-0.64911 -0.19756,-0.649111 z m 9.144,-10.639769 v 22.57776 l 0.254,0.64911 1.80622,-0.64911 v -22.57776 l -0.16933,-0.649111 z m 7.16845,8.777104 6.57577,-8.777104 -0.19756,-0.649111 h -6.77332 l -1.89089,0.649111 0.254,0.64911 h 6.01133 l -6.26533,8.381994 0.254,0.64911 6.29355,6.349995 -6.54755,6.547551 0.254,0.64911 1.80622,-0.64911 6.80155,-6.773328 -0.19756,-0.649111 z m 15.80442,-9.426215 -1.89089,0.649111 -4.51555,4.515552 0.254,0.64911 1.80622,-0.64911 2.45533,-2.455332 v 20.51754 l 0.254,0.64911 1.83445,-0.64911 V 68.674013 l 2.68111,2.652887 1.83444,-0.64911 -0.19756,-0.649111 z m 7.50711,0.649111 v 4.515552 13.546656 4.515552 l 0.25399,0.64911 1.80623,-0.64911 v -4.515552 l 6.80155,-6.773328 -0.19756,-0.649111 -6.60399,-6.575773 v -4.063996 l -0.16934,-0.649111 z m 2.06022,16.001987 v -8.97466 l 4.48733,4.48733 z"
       id="text2"
       aria-label="fifþ eiȝtþ" />
  </g>
</svg>
