<?xml version="1.0" encoding="UTF-8" standalone="no"?>
<!-- Created with Inkscape (http://www.inkscape.org/) -->

<svg
   width="1099.533"
   height="134.19989"
   viewBox="0 0 290.9181 35.507059"
   version="1.1"
   id="svg1"
   inkscape:version="1.4 (86a8ad7, 2024-10-11)"
   sodipodi:docname="Word Hangeulic Regular Month Kitchen.svg"
   xmlns:inkscape="http://www.inkscape.org/namespaces/inkscape"
   xmlns:sodipodi="http://sodipodi.sourceforge.net/DTD/sodipodi-0.dtd"
   xmlns="http://www.w3.org/2000/svg"
   xmlns:svg="http://www.w3.org/2000/svg">
  <sodipodi:namedview
     id="namedview1"
     pagecolor="#ffffff"
     bordercolor="#000000"
     borderopacity="0.25"
     inkscape:showpageshadow="2"
     inkscape:pageopacity="0.0"
     inkscape:pagecheckerboard="0"
     inkscape:deskcolor="#d1d1d1"
     inkscape:document-units="px"
     inkscape:zoom="1.0393815"
     inkscape:cx="538.3009"
     inkscape:cy="101.50267"
     inkscape:window-width="1920"
     inkscape:window-height="1027"
     inkscape:window-x="-8"
     inkscape:window-y="-8"
     inkscape:window-maximized="1"
     inkscape:current-layer="layer1" />
  <defs
     id="defs1" />
  <g
     inkscape:label="Layer 1"
     inkscape:groupmode="layer"
     id="layer1"
     transform="translate(8.7524921,-97.125055)">
    <text
       xml:space="preserve"
       style="font-style:normal;font-variant:normal;font-weight:normal;font-stretch:normal;font-size:28.2222px;line-height:1;font-family:'Dots n Lines';-inkscape-font-specification:'Dots n Lines';text-align:start;writing-mode:lr-tb;direction:ltr;text-anchor:start;display:none;fill:#19919b;fill-opacity:1;stroke:#7c7c7c;stroke-width:0.79375;stroke-dasharray:none;stroke-opacity:1"
       x="136.70659"
       y="129.24368"
       id="text1"><tspan
         sodipodi:role="line"
         id="tspan1"
         style="font-style:normal;font-variant:normal;font-weight:bold;font-stretch:normal;font-size:28.2222px;font-family:'NewEng Hangeul';-inkscape-font-specification:'NewEng Hangeul Ultra-Bold';text-align:center;text-anchor:middle;fill:#19919b;fill-opacity:1;stroke:#7c7c7c;stroke-width:0.79375;stroke-dasharray:none;stroke-opacity:1"
         x="136.70659"
         y="129.24368">Mônþ Kíчėn</tspan></text>
    <path
       style="font-weight:bold;font-size:28.2222px;line-height:1;font-family:'NewEng Hangeul';-inkscape-font-specification:'NewEng Hangeul Ultra-Bold';text-align:center;text-anchor:middle;fill:#19919b;stroke:#7c7c7c;stroke-width:0.79375"
       d="m -8.3556171,109.88325 v 20.94088 l 1.1571102,1.41111 5.4186625,-4.54378 V 116.6848 l 5.0517739,5.08 5.4186624,-4.54377 3.8946641,-3.89467 v 17.49777 l 1.15711,1.41111 5.418662,-4.54378 v -20.94087 l -1.185332,-1.41111 -5.39044,4.54377 v 0.42334 l -2.624665,2.20133 -2.8786645,2.87866 -7.42243868,-7.42244 -1.43933222,1.21356 v -2.42711 l -1.1853324,-1.41111 z M 38.323923,99.497484 c -0.02822,-0.02822 -0.05644,-0.08467 -0.05644,-0.112889 l -0.536222,-0.649111 c -3.132664,1.326446 -6.265329,2.031996 -6.265329,2.031996 l -2.596442,2.17311 0.536222,0.64911 c 0,0 3.07622,-0.70555 6.15244,-2.00377 l 0.366888,0.42333 c 0.987777,1.18533 4.261552,1.524 4.261552,1.524 l 2.596443,-2.17311 -0.536222,-0.64911 c 0,0 -2.681109,-0.28222 -3.922886,-1.213556 z M 21.983269,117.72903 v 5.24932 c 0,3.75356 0,5.70089 0.846666,6.71689 l 1.185333,1.41111 c 0.931332,1.12889 2.878664,1.12889 6.999105,1.12889 h 5.221107 c 3.753553,0 5.729107,0 6.745106,-0.87489 l 5.390441,-4.51555 c 1.128888,-0.95956 1.128888,-2.90689 1.128888,-6.99911 v -5.24933 c 0,-3.75355 0,-5.70088 -0.846666,-6.74511 l -1.185333,-1.38288 c -0.931332,-1.12889 -2.906887,-1.12889 -6.999106,-1.12889 h -5.249329 c -3.753553,0 -5.700884,0 -6.716884,0.87489 l -5.418662,4.51555 c -1.100666,0.93133 -1.100666,2.90689 -1.100666,6.99911 z m 6.575773,-3.13267 c 0,-1.29822 0,-2.39889 0.02822,-3.302 0.705555,0 1.523999,0 2.427109,0 h 5.221107 c 3.245553,0 5.164663,0 6.293551,0.53623 0,1.15711 0.395111,2.99155 0.395111,5.89844 v 5.24932 c 0,1.29823 0,2.39889 -0.05645,3.302 -0.705555,0 -1.495776,0 -2.398887,0 h -5.249329 c -3.245553,0 -5.164663,0 -6.265328,-0.56444 0,-1.12889 -0.395111,-2.96333 -0.395111,-5.87022 z m 23.763113,-4.71311 v 20.94088 l 1.157111,1.41111 5.418662,-4.54378 V 116.6848 l 12.925768,12.92577 1.439332,-1.21355 v 2.42711 l 1.15711,1.41111 5.418663,-4.54378 v -20.94087 l -1.185333,-1.41111 -5.39044,4.54377 v 11.00666 L 60.33726,107.96414 58.897928,109.1777 v -2.42711 l -1.185332,-1.41111 z m 30.338891,0 v 20.94088 l 1.15711,1.41111 5.418662,-4.54378 v -1.41111 h 12.925772 l 1.60866,-1.35466 1.12889,1.35466 5.41866,-4.51555 v -9.08755 l -1.18533,-1.41111 H 90.67615 l -1.439332,1.21356 v -5.72911 l -1.185332,-1.41111 z m 6.575772,7.30955 h 14.506212 v 3.16089 H 90.67615 l -1.439332,1.21355 z m 61.750192,-7.90221 -6.51933,6.51933 h -3.55599 l -1.43934,1.21355 v -10.27288 l -1.18533,-1.41111 -5.39044,4.54377 v 20.94088 l 1.15711,1.41111 5.41866,-4.54378 v -5.92666 h 9.82133 l 4.54377,9.05933 1.15711,1.41111 5.41867,-4.54378 -5.24933,-10.47043 -1.15711,-1.41111 h -4.91067 l 1.07245,-0.62089 7.84577,-7.84577 -0.90311,-1.58045 z m 20.91267,-6.23711 c 2.82222,-0.28222 6.9991,-1.60866 8.91821,-2.70933 l 2.59645,-2.17311 -0.53623,-0.64911 c -1.91911,1.100665 -6.09599,2.398887 -8.91821,2.70933 l -2.59644,2.17311 z m -7.50711,8.24088 h 10.55511 l -1.29823,1.07245 v 13.91354 h -5.02355 l -5.39044,4.54378 1.15711,1.41111 h 20.94088 l 5.41866,-4.54378 -1.18533,-1.41111 h -10.75266 l 1.43933,-1.21355 v -13.77244 h 5.08 l 5.41866,-4.54377 -1.18533,-1.41111 H 168.6259 l -5.39044,4.54377 z m 29.18178,-1.41111 v 13.0951 l 1.15711,1.38289 h 18.34443 l 1.43933,-1.18533 v 7.64822 l 1.15711,1.41111 5.41866,-4.54378 v -20.94087 l -1.18533,-1.41111 -5.39044,4.54377 v 8.55133 h -14.3651 v -11.68399 l -1.18533,-1.41111 z m 41.31733,-6.82977 h 3.556 l 2.59644,-2.17311 -0.53622,-0.64911 h -3.556 l -2.59644,2.17311 z m -9.82133,8.24088 h 0.28222 l -1.43933,1.21356 v 18.31621 l 1.15711,1.41111 h 20.94088 l 5.41866,-4.54378 -1.18533,-1.41111 h -19.75554 v -4.51555 h 10.3011 l 5.39044,-4.54377 -1.15711,-1.41111 h -13.37732 l -1.15711,0.98777 v -5.50333 h 15.52221 l 5.41866,-4.54377 -1.18533,-1.41111 h -20.94088 l -5.39044,4.54377 z m 29.18176,-1.41111 v 20.94088 l 1.15711,1.41111 5.41866,-4.54378 V 116.6848 l 12.92577,12.92577 1.43933,-1.21355 v 2.42711 l 1.15711,1.41111 5.41867,-4.54378 v -20.94087 l -1.18534,-1.41111 -5.39044,4.54377 v 11.00666 l -12.92577,-12.92577 -1.43933,1.21356 v -2.42711 l -1.18533,-1.41111 z"
       id="text2"
       aria-label="Mônþ Kíчėn" />
  </g>
</svg>
