<?xml version="1.0" encoding="UTF-8" standalone="no"?>
<!-- Created with Inkscape (http://www.inkscape.org/) -->

<svg
   width="1337.8655"
   height="135.25418"
   viewBox="0 0 353.97689 35.786006"
   version="1.1"
   id="svg1"
   inkscape:version="1.4 (86a8ad7, 2024-10-11)"
   sodipodi:docname="Word Hangeulic Chunky Clothing Weather.svg"
   xmlns:inkscape="http://www.inkscape.org/namespaces/inkscape"
   xmlns:sodipodi="http://sodipodi.sourceforge.net/DTD/sodipodi-0.dtd"
   xmlns="http://www.w3.org/2000/svg"
   xmlns:svg="http://www.w3.org/2000/svg">
  <sodipodi:namedview
     id="namedview1"
     pagecolor="#ffffff"
     bordercolor="#000000"
     borderopacity="0.25"
     inkscape:showpageshadow="2"
     inkscape:pageopacity="0.0"
     inkscape:pagecheckerboard="0"
     inkscape:deskcolor="#d1d1d1"
     inkscape:document-units="px"
     inkscape:zoom="0.84032951"
     inkscape:cx="680.09036"
     inkscape:cy="179.09641"
     inkscape:window-width="1920"
     inkscape:window-height="1027"
     inkscape:window-x="-8"
     inkscape:window-y="-8"
     inkscape:window-maximized="1"
     inkscape:current-layer="layer1" />
  <defs
     id="defs1" />
  <g
     inkscape:label="Layer 1"
     inkscape:groupmode="layer"
     id="layer1"
     transform="translate(40.279766,-56.507481)">
    <text
       xml:space="preserve"
       style="font-size:28.2222px;line-height:1;font-family:'BlockTrain Hand';-inkscape-font-specification:'BlockTrain Hand';text-align:start;writing-mode:lr-tb;direction:ltr;text-anchor:start;display:none;fill:#19919b;fill-opacity:1;stroke:#7c7c7c;stroke-width:0.79375;stroke-dasharray:none;stroke-opacity:1"
       x="136.70659"
       y="88.739998"
       id="text1"><tspan
         sodipodi:role="line"
         id="tspan1"
         style="font-style:normal;font-variant:normal;font-weight:bold;font-stretch:normal;font-size:28.2222px;font-family:'NewEng Hangeul';-inkscape-font-specification:'NewEng Hangeul';text-align:center;text-anchor:middle;fill:#19919b;fill-opacity:1;stroke:#7c7c7c;stroke-width:0.79375;stroke-dasharray:none;stroke-opacity:1"
         x="0"
         y="0">Clōðiŋ Ƕéðer</tspan></text>
    <path
       style="font-weight:bold;font-size:28.2222px;line-height:1;font-family:'NewEng Hangeul';-inkscape-font-specification:'NewEng Hangeul';text-align:center;text-anchor:middle;fill:#19919b;stroke:#7c7c7c;stroke-width:0.79375"
       d="m -38.567504,70.790678 h 0.282223 l -1.439333,1.213555 v 18.316208 l 1.15711,1.41111 h 20.940873 l 5.418663,-4.543774 -1.185333,-1.41111 h -19.75554 V 70.790678 h 15.52221 l 5.418663,-4.543774 -1.185333,-1.41111 h -20.940872 l -5.390441,4.543774 z m 29.1817765,-1.41111 v 20.940873 l 1.1571103,1.41111 H 12.712255 l 5.418663,-4.543774 -1.185332,-1.41111 H -2.8099548 V 66.246904 l -1.1853324,-1.41111 z M 25.750933,62.60624 h 15.691543 l 2.596443,-2.201331 -0.536222,-0.649111 H 27.782931 l -2.596442,2.201332 z m -4.797774,14.6191 v 5.249329 c 0,3.753553 0,5.700885 0.846666,6.716884 l 1.185332,1.41111 c 0.931333,1.128888 2.878665,1.128888 6.999106,1.128888 h 5.221107 c 3.753553,0 5.729107,0 6.745106,-0.874888 l 5.39044,-4.515552 c 1.128888,-0.959555 1.128888,-2.906887 1.128888,-6.999106 v -5.249329 c 0,-3.753553 0,-5.700885 -0.846666,-6.745106 L 46.437806,65.964682 C 45.506473,64.835794 43.530919,64.835794 39.4387,64.835794 h -5.249329 c -3.753553,0 -5.700885,0 -6.716884,0.874888 l -5.418662,4.515552 c -1.100666,0.931333 -1.100666,2.906887 -1.100666,6.999106 z m 6.575772,-3.132664 c 0,-1.298221 0,-2.398887 0.02822,-3.301998 0.705555,0 1.523999,0 2.427109,0 h 5.221107 c 3.245553,0 5.164663,0 6.293551,0.536222 0,1.15711 0.39511,2.991553 0.39511,5.89844 v 5.249329 c 0,1.298222 0,2.398887 -0.05644,3.301998 -0.705555,0 -1.495777,0 -2.398887,0 h -5.249329 c -3.245553,0 -5.164663,0 -6.265329,-0.564444 0,-1.128888 -0.395111,-2.963331 -0.395111,-5.870218 z m 24.807339,4.346219 v 11.881546 l 1.185333,1.41111 1.552221,-1.298221 1.072443,1.298221 H 71.6967 c 0.931332,-0.790222 1.862665,-1.552221 2.793998,-2.342443 v 0 L 79.90936,84.873556 V 71.468011 l -1.185332,-1.41111 -5.24933,-5.221107 H 60.379597 l -1.552221,1.298221 -1.072443,-1.298221 -5.418663,4.543774 v 3.104442 h 1.016 l -5.390441,4.543775 1.15711,1.41111 z m 6.603995,-7.648217 h 10.301103 l 4.063997,4.035775 V 85.776667 H 60.379597 l -1.439332,1.213554 v -8.551326 h 2.427109 l 5.390441,-4.543775 -1.185333,-1.41111 h -6.632217 z m 24.948431,0 h 10.555103 l -1.298221,1.072444 v 13.913545 h -5.023552 l -5.39044,4.543774 1.15711,1.41111 h 20.940874 l 5.41866,-4.543774 -1.18533,-1.41111 H 98.310241 l 1.439332,-1.213555 V 70.790678 h 5.079997 l 5.41866,-4.543774 -1.18533,-1.41111 H 88.122026 l -5.39044,4.543774 z m 29.181784,-1.41111 v 20.940873 l 1.15711,1.41111 5.41866,-4.543774 V 73.866898 l 12.92577,7.394217 1.43933,-1.213555 v 5.729107 h -5.08 l -5.39044,4.543774 1.15711,1.41111 h 10.47044 l 5.41866,-4.543774 V 66.246904 l -1.18533,-1.41111 -5.39044,4.543774 v 4.346219 l -12.92577,-7.394216 -1.43933,1.213554 v -1.298221 l -1.18533,-1.41111 z m 50.09443,0 v 20.940873 l 1.15711,1.41111 5.41867,-4.543774 v -5.926662 h 2.4271 l 1.43934,-1.213555 v 10.272881 l 1.18533,1.41111 h 7.81755 l 1.55222,-1.326443 1.12889,1.326443 5.39044,-4.543774 V 66.246904 l -1.18533,-1.41111 -5.39044,4.543774 V 85.776667 H 180.1829 V 69.210235 l -1.18533,-1.41111 -5.39044,4.543774 v 2.963331 h -2.42711 l -1.43933,1.213555 V 66.246904 l -1.18534,-1.41111 z m 38.83378,-6.829772 c 2.82222,-0.282222 6.99911,-1.608666 8.91822,-2.709331 l 2.59644,-2.17311 -0.53622,-0.64911 c -1.91911,1.100665 -6.096,2.398887 -8.91822,2.709331 l -2.59644,2.173109 z m -7.33777,8.240882 h 0.28222 l -1.43933,1.213555 v 18.316208 l 1.15711,1.41111 h 20.94087 l 5.41867,-4.543774 -1.18534,-1.41111 h -19.75554 v -4.515552 h 10.30111 l 5.39044,-4.543775 -1.15711,-1.41111 h -13.37733 l -1.15711,0.987777 v -5.503329 h 15.52221 l 5.41867,-4.543774 -1.18534,-1.41111 h -20.94087 l -5.39044,4.543774 z m 30.22601,7.648217 v 11.881546 l 1.18533,1.41111 1.55222,-1.298221 1.07245,1.298221 h 15.55043 c 0.93133,-0.790222 1.86266,-1.552221 2.794,-2.342443 v 0 l 5.41866,-4.515552 V 71.468011 l -1.18533,-1.41111 -5.24933,-5.221107 h -13.0951 l -1.55222,1.298221 -1.07245,-1.298221 -5.41866,4.543774 v 3.104442 h 1.016 l -5.39044,4.543775 1.15711,1.41111 z m 6.60399,-7.648217 h 10.30111 l 4.06399,4.035775 v 10.950214 h -12.92576 l -1.43934,1.213554 v -8.551326 h 2.42711 l 5.39044,-4.543775 -1.18533,-1.41111 h -6.63222 z m 24.94841,0 h 0.28222 l -1.43933,1.213555 v 18.316208 l 1.15711,1.41111 h 20.94088 l 5.41866,-4.543774 -1.18533,-1.41111 h -19.75555 v -4.515552 h 10.30111 l 5.39044,-4.543775 -1.15711,-1.41111 h -13.37732 l -1.15712,0.987777 v -5.503329 h 15.52222 l 5.41866,-4.543774 -1.18533,-1.41111 h -20.94088 l -5.39044,4.543774 z m 29.18179,-1.41111 v 20.940873 l 1.15711,1.41111 5.41866,-4.543774 v -5.926662 h 7.95866 l -1.46755,1.213554 1.18533,1.382888 7.84577,7.873994 5.41867,-4.543774 -1.18534,-1.41111 -5.58799,-5.587996 0.28222,-0.225777 1.07244,1.298221 5.41867,-4.543775 V 66.246904 l -1.18534,-1.41111 h -18.31621 l -1.55222,1.298221 -1.07244,-1.298221 z m 6.57577,1.41111 h 14.3651 v 4.515552 h -12.92577 l -1.43933,1.213555 z"
       id="text2"
       aria-label="Clōðiŋ Ƕéðer" />
  </g>
</svg>
