<?xml version="1.0" encoding="UTF-8" standalone="no"?>
<!-- Created with Inkscape (http://www.inkscape.org/) -->

<svg
   width="719.69189"
   height="103.37325"
   viewBox="0 0 190.41848 27.350841"
   version="1.1"
   id="svg1"
   inkscape:version="1.4 (86a8ad7, 2024-10-11)"
   sodipodi:docname="Word Leaf Tech Stronger Thanks.svg"
   xmlns:inkscape="http://www.inkscape.org/namespaces/inkscape"
   xmlns:sodipodi="http://sodipodi.sourceforge.net/DTD/sodipodi-0.dtd"
   xmlns="http://www.w3.org/2000/svg"
   xmlns:svg="http://www.w3.org/2000/svg">
  <sodipodi:namedview
     id="namedview1"
     pagecolor="#ffffff"
     bordercolor="#000000"
     borderopacity="0.25"
     inkscape:showpageshadow="2"
     inkscape:pageopacity="0.0"
     inkscape:pagecheckerboard="0"
     inkscape:deskcolor="#d1d1d1"
     inkscape:document-units="px"
     inkscape:zoom="1.0393815"
     inkscape:cx="335.29556"
     inkscape:cy="46.662366"
     inkscape:window-width="1920"
     inkscape:window-height="1027"
     inkscape:window-x="-8"
     inkscape:window-y="-8"
     inkscape:window-maximized="1"
     inkscape:current-layer="layer1" />
  <defs
     id="defs1" />
  <g
     inkscape:label="Layer 1"
     inkscape:groupmode="layer"
     id="layer1"
     transform="translate(-41.497322,-65.765363)">
    <text
       xml:space="preserve"
       style="font-size:28.2222px;line-height:1;font-family:'BlockTrain Hand';-inkscape-font-specification:'BlockTrain Hand';text-align:start;letter-spacing:0px;writing-mode:lr-tb;direction:ltr;text-anchor:start;display:none;fill:#17a23e;fill-opacity:0.854902;stroke:#4d804f;stroke-width:0.79375;stroke-dasharray:none;stroke-opacity:1"
       x="136.70659"
       y="88.739998"
       id="text1"><tspan
         sodipodi:role="line"
         id="tspan1"
         style="font-style:normal;font-variant:normal;font-weight:normal;font-stretch:normal;font-size:28.2222px;font-family:'Leaf Tech';-inkscape-font-specification:'Leaf Tech';text-align:center;letter-spacing:0px;text-anchor:middle;fill:#17a23e;fill-opacity:0.854902;stroke:#4d804f;stroke-width:0.79375;stroke-dasharray:none;stroke-opacity:1"
         x="0"
         y="0">Stronger Thanks</tspan></text>
    <path
       style="font-size:28.2222px;line-height:1;font-family:'Leaf Tech';-inkscape-font-specification:'Leaf Tech';text-align:center;letter-spacing:0px;text-anchor:middle;fill:#17a23e;fill-opacity:0.854902;stroke:#4d804f;stroke-width:0.79375"
       d="M 41.894197,66.162238 V 72.0889 c 0,3.330219 2.709331,6.011328 6.011328,6.011328 h 4.656663 v 4.684886 c 0,2.596442 -2.088442,4.684885 -4.713107,4.684885 h -4.656663 v -4.628441 c 0,-0.366889 -0.282222,-0.649111 -0.649111,-0.649111 -0.338666,0 -0.64911,0.282222 -0.64911,0.649111 v 5.89844 h 5.954884 c 3.301997,0 6.011329,-2.652887 6.011329,-5.954884 v -5.983107 h -5.954885 c -2.596442,0 -4.713107,-2.088443 -4.713107,-4.713107 v -4.628441 h 4.656663 c 2.624665,0 4.713107,2.088443 4.713107,4.684885 0,0.366889 0.282222,0.649111 0.649111,0.649111 0.338667,0 0.649111,-0.282222 0.649111,-0.649111 0,-3.301997 -2.709332,-5.983106 -6.011329,-5.983106 z m 14.308634,5.305773 c -0.366888,0 -0.64911,0.282222 -0.64911,0.649111 v 10.611547 c 0,3.301998 2.709331,6.011329 6.011328,6.011329 0.366889,0 0.649111,-0.282222 0.649111,-0.649111 0,-0.338666 -0.282222,-0.64911 -0.649111,-0.64911 -2.624664,0 -4.713107,-2.088443 -4.713107,-4.713108 v -4.656663 h 4.656663 c 0.366889,0 0.649111,-0.282222 0.649111,-0.64911 0,-0.338667 -0.282222,-0.620889 -0.649111,-0.620889 h -4.656663 v -4.684885 c 0,-0.366889 -0.310444,-0.649111 -0.649111,-0.649111 z m 9.143976,3.951108 h 0.677333 c 0.395111,0 0.677333,0.310444 0.677333,0.677333 v 0.733777 H 66.02414 c -0.395111,0 -0.677333,-0.338666 -0.677333,-0.733777 z M 64.048586,74.14912 v 1.947332 c 0,1.100666 0.90311,1.975554 1.975554,1.975554 h 0.677333 v 4.684885 c 0,2.596443 -2.088443,4.684886 -4.684886,4.684886 -0.338666,0 -0.64911,0.310444 -0.64911,0.64911 0,0.366889 0.310444,0.649111 0.64911,0.649111 3.301998,0 5.983107,-2.681109 5.983107,-5.983107 v -4.684885 h 1.128888 c 1.608665,0 2.906886,1.298221 2.906886,2.906887 V 85.438 c 0,1.806221 1.495777,3.301998 3.301998,3.301998 0.366888,0 0.64911,-0.282222 0.64911,-0.649111 0,-0.338666 -0.282222,-0.64911 -0.64911,-0.64911 -1.128888,0 -2.003776,-0.874889 -2.003776,-2.003777 v -4.459107 c 0,-2.285998 -1.890888,-4.148664 -4.205108,-4.148664 h -1.128888 v -0.733777 c 0,-1.072444 -0.903111,-1.947332 -1.975554,-1.947332 z M 87.3601,76.802007 h -5.926662 c -2.906887,0 -5.333996,2.088443 -5.89844,4.825996 -0.08467,0.395111 -0.112889,0.790222 -0.112889,1.185333 v 5.926662 h 5.954884 c 3.301998,0 5.983107,-2.681109 5.983107,-5.983107 z m -1.298222,1.298221 v 4.656663 c 0,2.596443 -2.088442,4.684886 -4.684885,4.684886 H 76.72033 v -4.628441 c 0,-2.624665 2.088443,-4.713108 4.713108,-4.713108 z m 14.280432,10.63977 c 0.36688,0 0.64911,-0.254 0.64911,-0.620889 v -0.02822 -10.667991 c 0,-0.338667 -0.28223,-0.592667 -0.64911,-0.592667 -0.33867,0 -0.649114,0.254 -0.649114,0.592667 V 79.14445 C 98.59253,77.705118 96.899198,76.830229 94.980088,76.830229 h -5.926662 v 5.926662 c 0,3.301998 2.681109,5.983107 5.983107,5.983107 0.366888,0 0.64911,-0.282222 0.64911,-0.649111 0,-0.338666 -0.282222,-0.64911 -0.64911,-0.64911 -2.596443,0 -4.713108,-2.088443 -4.713108,-4.684886 v -4.684885 h 4.656663 c 2.624665,0 4.713108,2.116665 4.713108,4.74133 v 5.277551 c 0,0.366889 0.282222,0.649111 0.649114,0.649111 z m 3.64065,-10.667992 h 4.65667 c 2.59644,0 4.7131,2.116665 4.7131,4.713108 v 4.656663 h -4.65666 c -2.62466,0 -4.71311,-2.088443 -4.71311,-4.713108 z m -1.29822,12.925768 c 0,0.254 0.14111,0.451555 0.31045,0.564444 1.27,0.733777 2.76577,1.15711 4.34622,1.15711 h 7.28132 v -9.934214 c 0,-3.301998 -2.68111,-5.983107 -5.9831,-5.983107 h -5.95489 v 5.926662 c 0,3.301998 2.70933,6.011329 6.01133,6.011329 h 4.65666 v 2.681109 h -6.01132 c -1.35467,0 -2.59645,-0.338667 -3.69711,-0.959555 -0.0847,-0.05644 -0.19756,-0.112889 -0.31045,-0.112889 -0.33866,0 -0.64911,0.282222 -0.64911,0.649111 z m 13.63132,-14.167545 v 5.89844 c 0,3.301998 2.70934,6.011329 6.01133,6.011329 h 5.27755 c 0.36689,0 0.64911,-0.282222 0.64911,-0.649111 0,-0.338666 -0.28222,-0.64911 -0.64911,-0.64911 h -5.27755 c -2.37066,0 -4.31799,-1.721555 -4.65666,-4.007553 0.70555,0.649111 1.58044,1.128888 2.85044,1.128888 h 7.73288 v -1.777998 c 0,-3.301998 -2.6811,-5.954885 -5.9831,-5.954885 z m 1.29823,1.269999 h 4.65666 c 2.59644,0 4.68488,2.088443 4.68488,4.684886 v 0.479777 h -6.43466 c -1.63689,0 -2.90688,-1.298221 -2.90688,-2.906887 z m 13.77241,-2.681109 h 0.67734 c 0.39511,0 0.67733,0.310444 0.67733,0.677333 v 0.733777 h -0.67733 c -0.39512,0 -0.67734,-0.338666 -0.67734,-0.733777 z m -1.29822,-1.269999 v 1.947332 c 0,1.100666 0.90311,1.975554 1.97556,1.975554 h 0.67733 v 4.684885 c 0,2.596443 -2.08844,4.684886 -4.68489,4.684886 -0.33866,0 -0.64911,0.310444 -0.64911,0.64911 0,0.366889 0.31045,0.649111 0.64911,0.649111 3.302,0 5.98311,-2.681109 5.98311,-5.983107 v -4.684885 h 1.12889 c 1.60866,0 2.90688,1.298221 2.90688,2.906887 V 85.438 c 0,1.806221 1.49578,3.301998 3.302,3.301998 0.36689,0 0.64911,-0.282222 0.64911,-0.649111 0,-0.338666 -0.28222,-0.64911 -0.64911,-0.64911 -1.12889,0 -2.00377,-0.874889 -2.00377,-2.003777 v -4.459107 c 0,-2.285998 -1.89089,-4.148664 -4.20511,-4.148664 h -1.12889 v -0.733777 c 0,-1.072444 -0.90311,-1.947332 -1.97555,-1.947332 z m 26.30305,-7.986882 c -2.31422,0 -4.20511,1.890887 -4.20511,4.205107 0,0.338667 0.28222,0.649111 0.64911,0.649111 0.36689,0 0.64911,-0.310444 0.64911,-0.649111 0,-1.608665 1.29822,-2.906886 2.90689,-2.906886 h 1.12888 c 0,3.809997 0,7.619994 0,11.401769 0,1.919109 0,3.809997 0,5.700884 0,2.314221 1.89089,4.176886 4.20511,4.176886 0.36689,0 0.64911,-0.254 0.64911,-0.620889 0,-0.338666 -0.28222,-0.64911 -0.64911,-0.64911 -1.60866,0 -2.93511,-1.269999 -2.93511,-2.82222 0,0 0,-0.02822 0.0282,-0.05644 v -17.13088 h 4.68489 c 0.33867,0 0.62089,-0.310444 0.62089,-0.649111 0,-0.366888 -0.28222,-0.64911 -0.62089,-0.64911 z m 6.60398,0.620888 c 0,0.169333 0.0564,0.310444 0.16933,0.423333 1.15711,1.298221 1.86267,3.019775 1.86267,4.910663 v 10.611547 c 0,3.301998 2.70933,6.011329 6.01132,6.011329 0.36689,0 0.64912,-0.282222 0.64912,-0.649111 0,-0.338666 -0.28223,-0.64911 -0.64912,-0.64911 -2.59644,0 -4.7131,-2.088443 -4.7131,-4.713108 v -4.656663 h 4.65666 c 2.62466,0 4.71311,2.116665 4.71311,4.713108 v 5.305773 c 0,0.366889 0.28222,0.649111 0.64911,0.649111 0.33866,0 0.64911,-0.282222 0.64911,-0.649111 v -5.305773 c 0,-3.301998 -2.70933,-5.983107 -6.01133,-5.983107 h -4.65666 v -4.684885 c 0,-2.229554 -0.84667,-4.23333 -2.20133,-5.785551 -0.11289,-0.112889 -0.28223,-0.169333 -0.47978,-0.169333 -0.36689,0 -0.64911,0.253999 -0.64911,0.620888 z m 16.98975,13.941767 h 4.65667 c 2.59644,0 4.71311,2.088443 4.71311,4.684885 v 2.031999 h -4.65667 c -2.62466,0 -4.71311,-2.116665 -4.71311,-4.74133 z m -0.64911,-3.894664 c -0.36688,0 -0.64911,0.254 -0.64911,0.620889 0,0.338666 0.28223,0.64911 0.64911,0.64911 h 6.66044 c 1.86267,0 3.35845,1.467555 3.35845,3.33022 v 0.310444 c -1.10067,-1.382888 -2.794,-2.31422 -4.71311,-2.31422 h -5.95489 v 3.273775 c 0,3.33022 2.70933,6.039551 6.01133,6.039551 h 5.92666 v -7.30955 c 0,-2.56822 -2.08844,-4.600219 -4.62844,-4.600219 z m 24.27109,11.909769 c 0.36689,0 0.64911,-0.254 0.64911,-0.620889 v -0.02822 -10.667991 c 0,-0.338667 -0.28222,-0.592667 -0.64911,-0.592667 -0.33867,0 -0.64911,0.254 -0.64911,0.592667 v 1.721554 c -1.10067,-1.439332 -2.794,-2.314221 -4.71311,-2.314221 h -5.92666 v 5.926662 c 0,3.301998 2.68111,5.983107 5.98311,5.983107 0.36689,0 0.64911,-0.282222 0.64911,-0.649111 0,-0.338666 -0.28222,-0.64911 -0.64911,-0.64911 -2.59645,0 -4.71311,-2.088443 -4.71311,-4.684886 v -4.684885 h 4.65666 c 2.62467,0 4.71311,2.116665 4.71311,4.74133 v 5.277551 c 0,0.366889 0.28222,0.649111 0.64911,0.649111 z m 2.99155,-17.271987 c -0.36689,0 -0.64911,0.282222 -0.64911,0.649111 v 10.611547 c 0,3.301998 2.70933,6.011329 6.01133,6.011329 0.36688,0 0.64911,-0.282222 0.64911,-0.649111 0,-0.338666 -0.28223,-0.64911 -0.64911,-0.64911 -2.62467,0 -4.71311,-2.088443 -4.71311,-4.713108 v -4.656663 h 4.62844 c 2.62466,0 4.74133,2.116665 4.74133,4.74133 v 5.277551 c 0,0.366889 0.28222,0.649111 0.64911,0.649111 0.33867,0 0.62089,-0.282222 0.62089,-0.649111 v -5.277551 c 0,-2.427109 -1.43933,-4.515552 -3.52778,-5.475107 1.29822,-0.818444 2.17311,-2.257776 2.17311,-3.894664 0,-0.366888 -0.28222,-0.64911 -0.64911,-0.64911 -0.36689,0 -0.64911,0.282222 -0.64911,0.64911 0,1.862665 -1.49577,3.358442 -3.35844,3.358442 h -4.62844 v -4.684885 c 0,-0.366889 -0.31045,-0.649111 -0.64911,-0.649111 z m 24.6662,8.127994 c 0,-0.08467 -0.0282,-0.169333 -0.0565,-0.254 -0.62089,-1.41111 -2.08844,-2.539998 -3.86644,-2.539998 h -7.76111 v 2.427109 c 0,2.285999 1.89089,4.176886 4.20511,4.176886 h 6.46289 v 1.128888 c 0,1.608665 -1.29822,2.906887 -2.90689,2.906887 h -7.11199 c -0.36689,0 -0.64912,0.310444 -0.64912,0.64911 0,0.366889 0.28223,0.649111 0.64912,0.649111 h 7.11199 c 2.31422,0 4.17689,-1.890888 4.17689,-4.205108 v -2.398887 h -7.73289 c -1.60866,0 -2.90688,-1.298221 -2.90688,-2.906887 v -1.15711 h 6.46288 c 1.24178,0 2.25778,0.790222 2.68111,1.777999 0.0847,0.225777 0.31044,0.395111 0.59267,0.395111 0.36688,0 0.64911,-0.310445 0.64911,-0.649111 z"
       id="text2"
       aria-label="Stronger Thanks" />
  </g>
</svg>
