<?xml version="1.0" encoding="UTF-8" standalone="no"?>
<!-- Created with Inkscape (http://www.inkscape.org/) -->

<svg
   width="471.18433"
   height="94.068069"
   viewBox="0 0 124.66752 24.888843"
   version="1.1"
   id="svg1"
   inkscape:version="1.4 (86a8ad7, 2024-10-11)"
   sodipodi:docname="Word Couple Should.svg"
   xmlns:inkscape="http://www.inkscape.org/namespaces/inkscape"
   xmlns:sodipodi="http://sodipodi.sourceforge.net/DTD/sodipodi-0.dtd"
   xmlns="http://www.w3.org/2000/svg"
   xmlns:svg="http://www.w3.org/2000/svg">
  <sodipodi:namedview
     id="namedview1"
     pagecolor="#ffffff"
     bordercolor="#000000"
     borderopacity="0.25"
     inkscape:showpageshadow="2"
     inkscape:pageopacity="0.0"
     inkscape:pagecheckerboard="0"
     inkscape:deskcolor="#d1d1d1"
     inkscape:document-units="px"
     inkscape:zoom="2.078763"
     inkscape:cx="226.81758"
     inkscape:cy="90.919453"
     inkscape:window-width="1512"
     inkscape:window-height="1018"
     inkscape:window-x="399"
     inkscape:window-y="0"
     inkscape:window-maximized="0"
     inkscape:current-layer="layer1" />
  <defs
     id="defs1" />
  <g
     inkscape:label="Layer 1"
     inkscape:groupmode="layer"
     id="layer1"
     transform="translate(-74.386934,-65.004272)">
    <text
       xml:space="preserve"
       style="font-size:28.2222px;line-height:1;font-family:'BlockTrain Hand';-inkscape-font-specification:'BlockTrain Hand';text-align:start;writing-mode:lr-tb;direction:ltr;text-anchor:start;display:none;fill:#19919b;fill-opacity:1;stroke:#7c7c7c;stroke-width:0.79375;stroke-dasharray:none;stroke-opacity:1"
       x="136.70659"
       y="88.739998"
       id="text1"><tspan
         sodipodi:role="line"
         id="tspan1"
         style="font-style:normal;font-variant:normal;font-weight:normal;font-stretch:normal;font-size:28.2222px;font-family:'NewEng Rune';-inkscape-font-specification:'NewEng Rune';text-align:center;text-anchor:middle;fill:#19919b;fill-opacity:1;stroke:#7c7c7c;stroke-width:0.79375;stroke-dasharray:none;stroke-opacity:1"
         x="136.70659"
         y="88.739998">cȣpl ʃȣld</tspan></text>
    <path
       style="font-size:28.2222px;line-height:1;font-family:'NewEng Rune';-inkscape-font-specification:'NewEng Rune';text-align:center;text-anchor:middle;fill:#19919b;stroke:#7c7c7c;stroke-width:0.79375"
       d="m 90.323421,66.162238 -6.773328,11.28888 0.254,0.64911 6.773328,11.28888 1.834443,-0.64911 -0.197555,-0.649111 -6.462884,-10.752658 6.660439,-11.175991 -0.197555,-0.649111 z m 7.083776,15.606876 3.273773,-5.757329 3.49955,6.039551 -3.30199,4.967108 z m 4.487333,-7.817549 4.43088,-7.789327 -0.19755,-0.649111 -1.89089,0.649111 -3.38666,5.954884 -3.753557,-6.603995 -1.890888,0.649111 0.254,0.64911 4.205108,7.365994 -4.459108,7.789328 0.254,0.64911 4.515552,6.773328 1.834443,-0.64911 4.51555,-6.773328 -0.19755,-0.649111 z m 7.25309,14.788433 0.254,0.64911 1.80622,-0.64911 v -9.031104 l 6.80155,-6.773328 -0.19756,-0.649111 -6.77332,-6.773328 -1.89089,0.649111 z m 6.54755,-15.578655 -4.48733,4.48733 v -8.97466 z m 5.10822,15.578655 0.254,0.64911 1.80622,-0.64911 6.80155,-11.28888 -0.19756,-0.649111 -1.89088,0.649111 -4.71311,7.817549 V 66.162238 l -0.16933,-0.649111 -1.89089,0.649111 z m 25.37175,-21.92865 h 4.60022 l 1.83444,-0.64911 -0.19755,-0.649111 h -6.77333 l -1.89089,0.649111 0.254,0.64911 4.26155,10.667992 -4.51555,11.260658 0.254,0.64911 h 6.77333 l 1.83444,-0.64911 -0.19755,-0.649111 h -6.32178 l 4.26155,-10.639769 -0.19755,-0.649111 z m 11.4582,14.957766 3.27378,-5.757329 3.49955,6.039551 -3.30199,4.967108 z m 4.48733,-7.817549 4.43089,-7.789327 -0.19756,-0.649111 -1.89088,0.649111 -3.38667,5.954884 -3.75355,-6.603995 -1.89089,0.649111 0.254,0.64911 4.20511,7.365994 -4.45911,7.789328 0.254,0.64911 4.51555,6.773328 1.83445,-0.64911 4.51555,-6.773328 -0.19756,-0.649111 z m 7.25309,14.788433 0.254,0.64911 1.80622,-0.64911 6.80155,-11.28888 -0.19755,-0.649111 -1.89089,0.649111 -4.71311,7.817549 V 66.162238 l -0.16933,-0.649111 -1.89089,0.649111 z m 13.71599,0 6.80155,-11.28888 -0.19755,-0.649111 -6.77333,-11.28888 -1.89089,0.649111 0.254,0.64911 6.46289,10.752659 -4.65667,7.70466 v -7.817549 l -0.16933,-0.649111 -1.89089,0.649111 v 11.28888 l 0.254,0.64911 z"
       id="text2"
       aria-label="cȣpl ʃȣld" />
  </g>
</svg>
