<?xml version="1.0" encoding="UTF-8" standalone="no"?>
<!-- Created with Inkscape (http://www.inkscape.org/) -->

<svg
   width="471.18433"
   height="94.068069"
   viewBox="0 0 124.66752 24.888843"
   version="1.1"
   id="svg1"
   inkscape:version="1.4 (86a8ad7, 2024-10-11)"
   sodipodi:docname="Word Photograph.svg"
   xmlns:inkscape="http://www.inkscape.org/namespaces/inkscape"
   xmlns:sodipodi="http://sodipodi.sourceforge.net/DTD/sodipodi-0.dtd"
   xmlns="http://www.w3.org/2000/svg"
   xmlns:svg="http://www.w3.org/2000/svg">
  <sodipodi:namedview
     id="namedview1"
     pagecolor="#ffffff"
     bordercolor="#000000"
     borderopacity="0.25"
     inkscape:showpageshadow="2"
     inkscape:pageopacity="0.0"
     inkscape:pagecheckerboard="0"
     inkscape:deskcolor="#d1d1d1"
     inkscape:document-units="px"
     inkscape:zoom="2.078763"
     inkscape:cx="231.14708"
     inkscape:cy="75.044628"
     inkscape:window-width="1512"
     inkscape:window-height="1018"
     inkscape:window-x="399"
     inkscape:window-y="0"
     inkscape:window-maximized="0"
     inkscape:current-layer="layer1" />
  <defs
     id="defs1" />
  <g
     inkscape:label="Layer 1"
     inkscape:groupmode="layer"
     id="layer1"
     transform="translate(-74.386934,-65.004272)">
    <text
       xml:space="preserve"
       style="font-size:28.2222px;line-height:1;font-family:'BlockTrain Hand';-inkscape-font-specification:'BlockTrain Hand';text-align:start;writing-mode:lr-tb;direction:ltr;text-anchor:start;display:none;fill:#19919b;fill-opacity:1;stroke:#7c7c7c;stroke-width:0.79375;stroke-dasharray:none;stroke-opacity:1"
       x="73.439995"
       y="88.739998"
       id="text1"><tspan
         sodipodi:role="line"
         id="tspan1"
         style="font-style:normal;font-variant:normal;font-weight:normal;font-stretch:normal;font-size:28.2222px;font-family:'NewEng Rune';-inkscape-font-specification:'NewEng Rune';fill:#19919b;fill-opacity:1;stroke:#7c7c7c;stroke-width:0.79375;stroke-dasharray:none;stroke-opacity:1"
         x="0"
         y="0">φōtograφ</tspan></text>
    <path
       style="font-size:28.2222px;line-height:1;font-family:'NewEng Rune';-inkscape-font-specification:'NewEng Rune';fill:#19919b;stroke:#7c7c7c;stroke-width:0.79375"
       d="m 81.624433,66.162238 v 4.515552 l -6.773328,6.773328 0.254,0.64911 6.519328,6.575773 v 4.063997 l 0.254,0.64911 1.834443,-0.64911 v -4.515552 l 6.773328,-6.773328 -0.197556,-0.649111 -6.575772,-6.575773 V 66.162238 L 83.51532,65.513127 Z m 2.088443,16.001987 v -8.97466 l 4.459107,4.48733 z m -2.088443,-0.479777 -4.48733,-4.459108 4.48733,-4.48733 z m 17.130857,-7.027328 3.49955,5.164663 -3.273773,4.938885 -3.47133,-5.24933 z m -5.446885,5.051774 0.254,0.64911 4.515552,6.773328 1.834443,-0.64911 4.51555,-6.773328 -0.19755,-0.649111 -4.515555,-6.773328 -1.890888,0.649111 z m 2.511776,-10.63977 h 4.515549 l 1.83445,-0.64911 -0.19756,-0.649111 h -4.515552 l -1.890887,0.649111 z m 17.836419,-3.555997 -1.89089,0.649111 -4.51555,4.515552 0.254,0.64911 1.80622,-0.64911 2.45533,-2.455332 v 20.51754 l 0.254,0.64911 1.83444,-0.64911 V 68.674013 l 2.68111,2.652887 1.83444,-0.64911 -0.19755,-0.649111 z m 12.95399,6.886217 3.49955,5.164663 -3.27377,4.938885 -3.47133,-5.24933 z m -5.44689,5.051774 0.254,0.64911 4.51556,6.773328 1.83444,-0.64911 4.51555,-6.773328 -0.19755,-0.649111 -4.51556,-6.773328 -1.89088,0.649111 z m 20.06601,-11.28888 -6.77333,11.28888 0.254,0.64911 6.77333,11.28888 1.83444,-0.64911 6.77333,-11.28888 -0.19756,-0.649111 h -6.77333 l -1.89088,0.649111 0.254,0.64911 h 6.15244 l -5.27755,8.748882 -5.70089,-9.510881 6.66044,-11.175991 -0.19756,-0.649111 z m 11.65576,0 v 22.57776 l 0.254,0.64911 1.80622,-0.64911 V 81.20467 l 4.96711,8.184438 1.83444,-0.64911 -0.19756,-0.649111 -6.46288,-10.724436 6.66044,-5.559773 -0.19756,-0.649111 -6.77332,-5.64444 z m 6.4911,5.870217 -4.43088,3.668886 v -7.30955 z m 13.01045,-0.818444 5.95488,15.917321 1.83444,-0.64911 c -2.31422,-6.237106 -4.65666,-12.474213 -6.97088,-18.711319 l -1.89089,0.649111 -6.77333,18.062208 0.254,0.64911 1.80623,-0.64911 z m 17.35665,-5.051773 v 4.515552 l -6.77333,6.773328 0.254,0.64911 6.51933,6.575773 v 4.063997 l 0.25399,0.64911 1.83445,-0.64911 v -4.515552 l 6.77333,-6.773328 -0.19756,-0.649111 -6.57577,-6.575773 v -4.063996 l -0.19756,-0.649111 z m 2.08844,16.001987 v -8.97466 l 4.45911,4.48733 z m -2.08844,-0.479777 -4.48733,-4.459108 4.48733,-4.48733 z"
       id="text2"
       aria-label="φōtograφ" />
  </g>
</svg>
