<?xml version="1.0" encoding="UTF-8" standalone="no"?>
<!-- Created with Inkscape (http://www.inkscape.org/) -->

<svg
   width="596.49274"
   height="88.333267"
   viewBox="0 0 157.82204 23.371511"
   version="1.1"
   id="svg1"
   inkscape:version="1.4 (86a8ad7, 2024-10-11)"
   sodipodi:docname="Word Leaf Tech Month Kitchen.svg"
   xmlns:inkscape="http://www.inkscape.org/namespaces/inkscape"
   xmlns:sodipodi="http://sodipodi.sourceforge.net/DTD/sodipodi-0.dtd"
   xmlns="http://www.w3.org/2000/svg"
   xmlns:svg="http://www.w3.org/2000/svg">
  <sodipodi:namedview
     id="namedview1"
     pagecolor="#ffffff"
     bordercolor="#000000"
     borderopacity="0.25"
     inkscape:showpageshadow="2"
     inkscape:pageopacity="0.0"
     inkscape:pagecheckerboard="0"
     inkscape:deskcolor="#d1d1d1"
     inkscape:document-units="px"
     inkscape:zoom="1.0393815"
     inkscape:cx="305.47013"
     inkscape:cy="65.904579"
     inkscape:window-width="1920"
     inkscape:window-height="1027"
     inkscape:window-x="-8"
     inkscape:window-y="-8"
     inkscape:window-maximized="1"
     inkscape:current-layer="layer1" />
  <defs
     id="defs1" />
  <g
     inkscape:label="Layer 1"
     inkscape:groupmode="layer"
     id="layer1"
     transform="translate(-57.795571,-65.765363)">
    <text
       xml:space="preserve"
       style="font-size:28.2222px;line-height:1;font-family:'BlockTrain Hand';-inkscape-font-specification:'BlockTrain Hand';text-align:start;letter-spacing:0px;writing-mode:lr-tb;direction:ltr;text-anchor:start;display:none;fill:#17a23e;fill-opacity:0.854902;stroke:#4d804f;stroke-width:0.79375;stroke-dasharray:none;stroke-opacity:1"
       x="136.70659"
       y="88.739998"
       id="text1"><tspan
         sodipodi:role="line"
         id="tspan1"
         style="font-style:normal;font-variant:normal;font-weight:normal;font-stretch:normal;font-size:28.2222px;font-family:'Leaf Tech';-inkscape-font-specification:'Leaf Tech';text-align:center;letter-spacing:0px;text-anchor:middle;fill:#17a23e;fill-opacity:0.854902;stroke:#4d804f;stroke-width:0.79375;stroke-dasharray:none;stroke-opacity:1"
         x="0"
         y="0">Month Kitchen</tspan></text>
    <path
       style="font-size:28.2222px;line-height:1;font-family:'Leaf Tech';-inkscape-font-specification:'Leaf Tech';text-align:center;letter-spacing:0px;text-anchor:middle;fill:#17a23e;fill-opacity:0.854902;stroke:#4d804f;stroke-width:0.79375"
       d="m 58.192446,66.162238 v 18.400874 c 0,2.314221 1.890888,4.176886 4.205108,4.176886 0.366889,0 0.649111,-0.254 0.649111,-0.620889 0,-0.338666 -0.282222,-0.64911 -0.649111,-0.64911 -1.608665,0 -2.906886,-1.269999 -2.906886,-2.906887 V 67.460459 h 4.684885 c 2.596442,0 4.684885,2.088443 4.684885,4.684885 v 12.417768 c 0,0.366889 0.282222,0.649111 0.649111,0.649111 0.338666,0 0.64911,-0.282222 0.64911,-0.649111 V 67.460459 h 4.684886 c 2.596442,0 4.684885,2.088443 4.684885,4.684885 v 15.973765 c 0,0.366889 0.282222,0.620889 0.649111,0.620889 0.338666,0 0.620888,-0.254 0.620888,-0.620889 V 72.145344 c 0,-3.301997 -2.681109,-5.983106 -5.954884,-5.983106 h -5.983107 v 2.31422 c -1.100666,-1.41111 -2.765775,-2.31422 -4.684885,-2.31422 z m 36.237308,10.639769 h -5.926662 c -2.906887,0 -5.333996,2.088443 -5.89844,4.825996 -0.08467,0.395111 -0.112889,0.790222 -0.112889,1.185333 v 5.926662 h 5.954884 c 3.301998,0 5.983107,-2.681109 5.983107,-5.983107 z m -1.298222,1.298221 v 4.656663 c 0,2.596443 -2.088442,4.684886 -4.684885,4.684886 h -4.656663 v -4.628441 c 0,-2.624665 2.088443,-4.713108 4.713108,-4.713108 z m 14.280428,10.63977 c 0.36689,0 0.64911,-0.254 0.64911,-0.620889 v -0.02822 -10.667991 c 0,-0.338667 -0.28222,-0.592667 -0.64911,-0.592667 -0.33867,0 -0.64911,0.254 -0.64911,0.592667 v 1.721554 c -1.10067,-1.439332 -2.794,-2.314221 -4.71311,-2.314221 h -5.92666 v 5.926662 c 0,3.301998 2.681109,5.983107 5.98311,5.983107 0.36689,0 0.64911,-0.282222 0.64911,-0.649111 0,-0.338666 -0.28222,-0.64911 -0.64911,-0.64911 -2.596446,0 -4.713111,-2.088443 -4.713111,-4.684886 v -4.684885 h 4.656661 c 2.62467,0 4.71311,2.116665 4.71311,4.74133 v 5.277551 c 0,0.366889 0.28222,0.649111 0.64911,0.649111 z m 2.99155,-17.271987 c -0.36689,0 -0.64911,0.282222 -0.64911,0.649111 v 10.611547 c 0,3.301998 2.70933,6.011329 6.01133,6.011329 0.36688,0 0.64911,-0.282222 0.64911,-0.649111 0,-0.338666 -0.28223,-0.64911 -0.64911,-0.64911 -2.62467,0 -4.71311,-2.088443 -4.71311,-4.713108 v -4.656663 h 4.65666 c 0.36689,0 0.64911,-0.282222 0.64911,-0.64911 0,-0.338667 -0.28222,-0.620889 -0.64911,-0.620889 h -4.65666 v -4.684885 c 0,-0.366889 -0.31045,-0.649111 -0.64911,-0.649111 z m 3.47132,-4.684885 c 0,0.169333 0.0564,0.310444 0.16934,0.423333 1.15711,1.298221 1.86266,3.019775 1.86266,4.910663 v 10.611547 c 0,3.301998 2.70933,6.011329 6.01133,6.011329 0.36689,0 0.64911,-0.282222 0.64911,-0.649111 0,-0.338666 -0.28222,-0.64911 -0.64911,-0.64911 -2.59644,0 -4.71311,-2.088443 -4.71311,-4.713108 v -4.656663 h 4.65667 c 2.62466,0 4.7131,2.116665 4.7131,4.713108 v 5.305773 c 0,0.366889 0.28223,0.649111 0.64912,0.649111 0.33866,0 0.64911,-0.282222 0.64911,-0.649111 v -5.305773 c 0,-3.301998 -2.70934,-5.983107 -6.01133,-5.983107 h -4.65667 v -4.684885 c 0,-2.229554 -0.84666,-4.23333 -2.20133,-5.785551 -0.11289,-0.112889 -0.28222,-0.169333 -0.47977,-0.169333 -0.36689,0 -0.64912,0.253999 -0.64912,0.620888 z m 24.80729,21.956872 c 0.36689,0 0.64911,-0.254 0.64911,-0.620889 V 80.04756 c 0,-1.072443 0.90311,-1.947332 2.00377,-1.947332 h 0.90312 c 0.81844,0 1.58044,-0.169333 2.28599,-0.479777 l 0.254,0.282222 c 1.18534,1.298221 1.89089,3.019775 1.89089,4.882441 0,2.229553 0.81844,4.23333 2.20133,5.757328 0.11289,0.141111 0.28222,0.197556 0.47978,0.197556 0.36689,0 0.64911,-0.254 0.64911,-0.620889 0,-0.169333 -0.0847,-0.310444 -0.16933,-0.423333 -1.18534,-1.298221 -1.89089,-3.019775 -1.89089,-4.910662 0,-2.257776 -0.87489,-4.317997 -2.286,-5.870218 0.64911,-0.508 1.21356,-1.128888 1.66511,-1.834443 0.81845,-1.326444 1.27,-2.935109 1.27,-4.543774 0,-0.508 -0.0564,-1.044222 -0.14111,-1.552221 l -0.47978,-2.314221 c -0.0564,-0.282222 -0.31044,-0.507999 -0.62089,-0.507999 -0.39511,0 -0.64911,0.310444 -0.64911,0.64911 v 0.112889 l 0.47978,2.31422 c 0.0847,0.451556 0.14111,0.903111 0.14111,1.326444 0,3.189108 -2.11666,6.237106 -5.07999,6.237106 H 141.335 c -0.76199,0 -1.43933,0.282222 -2.00377,0.705555 V 66.811348 c 0,-0.366888 -0.28222,-0.64911 -0.64911,-0.64911 -0.36689,0 -0.64911,0.282222 -0.64911,0.64911 v 21.307761 c 0,0.366889 0.28222,0.620889 0.64911,0.620889 z m 16.96153,-0.649111 c 0,-0.169333 -0.0565,-0.310444 -0.16934,-0.423333 -1.15711,-1.298221 -1.89088,-3.019775 -1.89088,-4.910663 v -5.333995 c 0,-0.338667 -0.28223,-0.620889 -0.62089,-0.620889 -0.36689,0 -0.64911,0.282222 -0.64911,0.620889 v 5.333995 c 0,2.229554 0.81844,4.23333 2.20133,5.757329 0.11289,0.141111 0.28222,0.225778 0.47978,0.225778 0.36688,0 0.64911,-0.282222 0.64911,-0.649111 z m -3.95111,-14.393322 v 1.269999 h 1.24177 c 0.70556,0 1.27,-0.564444 1.27,-1.269999 v -1.241777 h -1.24177 c -0.73378,0 -1.27,0.564444 -1.27,1.241777 z m 4.88248,-2.229554 c -0.36689,0 -0.64911,0.282222 -0.64911,0.649111 v 10.611547 c 0,3.301998 2.70933,6.011329 6.01132,6.011329 0.36689,0 0.64912,-0.282222 0.64912,-0.649111 0,-0.338666 -0.28223,-0.64911 -0.64912,-0.64911 -2.62466,0 -4.7131,-2.088443 -4.7131,-4.713108 v -4.656663 h 4.65666 c 0.36689,0 0.64911,-0.282222 0.64911,-0.64911 0,-0.338667 -0.28222,-0.620889 -0.64911,-0.620889 h -4.65666 v -4.684885 c 0,-0.366889 -0.31045,-0.649111 -0.64911,-0.649111 z m 5.16464,5.333996 v 5.926662 c 0,3.301998 2.70934,6.011329 6.01133,6.011329 h 5.30578 c 0.33866,0 0.62089,-0.282222 0.62089,-0.649111 0,-0.338666 -0.28223,-0.64911 -0.62089,-0.64911 h -5.30578 c -2.62466,0 -4.7131,-2.088443 -4.7131,-4.713108 v -4.656663 h 6.01132 c 1.86267,0 3.35845,1.495777 3.35845,3.358442 0,0.366889 0.28222,0.649111 0.64911,0.649111 0.33866,0 0.62089,-0.282222 0.62089,-0.649111 0,-2.539998 -2.08845,-4.628441 -4.62845,-4.628441 z m 12.22023,-10.018881 c 0,0.169333 0.0565,0.310444 0.16934,0.423333 1.15711,1.298221 1.86266,3.019775 1.86266,4.910663 v 10.611547 c 0,3.301998 2.70933,6.011329 6.01133,6.011329 0.36689,0 0.64911,-0.282222 0.64911,-0.649111 0,-0.338666 -0.28222,-0.64911 -0.64911,-0.64911 -2.59644,0 -4.71311,-2.088443 -4.71311,-4.713108 v -4.656663 h 4.65667 c 2.62466,0 4.71311,2.116665 4.71311,4.713108 v 5.305773 c 0,0.366889 0.28222,0.649111 0.64911,0.649111 0.33866,0 0.64911,-0.282222 0.64911,-0.649111 v -5.305773 c 0,-3.301998 -2.70934,-5.983107 -6.01133,-5.983107 h -4.65667 v -4.684885 c 0,-2.229554 -0.84666,-4.23333 -2.20133,-5.785551 -0.11289,-0.112889 -0.28222,-0.169333 -0.47977,-0.169333 -0.36689,0 -0.64912,0.253999 -0.64912,0.620888 z m 15.69154,10.047103 v 5.89844 c 0,3.301998 2.70933,6.011329 6.01133,6.011329 h 5.27755 c 0.36689,0 0.64911,-0.282222 0.64911,-0.649111 0,-0.338666 -0.28222,-0.64911 -0.64911,-0.64911 h -5.27755 c -2.37067,0 -4.318,-1.721555 -4.65666,-4.007553 0.70555,0.649111 1.58044,1.128888 2.85044,1.128888 h 7.73288 v -1.777998 c 0,-3.301998 -2.68111,-5.954885 -5.9831,-5.954885 z m 1.29822,1.269999 h 4.65667 c 2.59644,0 4.68488,2.088443 4.68488,4.684886 v 0.479777 h -6.43466 c -1.63689,0 -2.90689,-1.298221 -2.90689,-2.906887 z m 23.62198,10.63977 c 0.36689,0 0.64911,-0.254 0.64911,-0.620889 v -0.02822 -10.667991 c 0,-0.338667 -0.28222,-0.592667 -0.64911,-0.592667 -0.33867,0 -0.64911,0.254 -0.64911,0.592667 v 1.721554 c -1.10067,-1.439332 -2.794,-2.314221 -4.71311,-2.314221 h -5.92666 v 5.926662 c 0,3.301998 2.68111,5.983107 5.9831,5.983107 0.36689,0 0.64912,-0.282222 0.64912,-0.649111 0,-0.338666 -0.28223,-0.64911 -0.64912,-0.64911 -2.59644,0 -4.7131,-2.088443 -4.7131,-4.684886 v -4.684885 h 4.65666 c 2.62466,0 4.71311,2.116665 4.71311,4.74133 v 5.277551 c 0,0.366889 0.28222,0.649111 0.64911,0.649111 z"
       id="text2"
       aria-label="Month Kitchen" />
  </g>
</svg>
