<?xml version="1.0" encoding="UTF-8" standalone="no"?>
<!-- Created with Inkscape (http://www.inkscape.org/) -->

<svg
   width="372.59973"
   height="105.39992"
   viewBox="0 0 98.583684 27.887062"
   version="1.1"
   id="svg1"
   inkscape:version="1.4 (86a8ad7, 2024-10-11)"
   sodipodi:docname="Word TallThin Aether.svg"
   xmlns:inkscape="http://www.inkscape.org/namespaces/inkscape"
   xmlns:sodipodi="http://sodipodi.sourceforge.net/DTD/sodipodi-0.dtd"
   xmlns="http://www.w3.org/2000/svg"
   xmlns:svg="http://www.w3.org/2000/svg">
  <sodipodi:namedview
     id="namedview1"
     pagecolor="#ffffff"
     bordercolor="#000000"
     borderopacity="0.25"
     inkscape:showpageshadow="2"
     inkscape:pageopacity="0.0"
     inkscape:pagecheckerboard="0"
     inkscape:deskcolor="#d1d1d1"
     inkscape:document-units="px"
     inkscape:zoom="1.4699074"
     inkscape:cx="182.32441"
     inkscape:cy="24.151181"
     inkscape:window-width="1920"
     inkscape:window-height="1027"
     inkscape:window-x="-8"
     inkscape:window-y="-8"
     inkscape:window-maximized="1"
     inkscape:current-layer="layer1" />
  <defs
     id="defs1" />
  <g
     inkscape:label="Layer 1"
     inkscape:groupmode="layer"
     id="layer1"
     transform="translate(-88.120295,-66.894251)">
    <text
       xml:space="preserve"
       style="font-size:28.2222px;line-height:1;font-family:'BlockTrain Hand';-inkscape-font-specification:'BlockTrain Hand';text-align:start;writing-mode:lr-tb;direction:ltr;text-anchor:start;display:none;fill:#19919b;fill-opacity:1;stroke:#7c7c7c;stroke-width:0.79375;stroke-dasharray:none;stroke-opacity:1"
       x="136.70659"
       y="88.739998"
       id="text1"><tspan
         sodipodi:role="line"
         id="tspan1"
         style="font-style:normal;font-variant:normal;font-weight:normal;font-stretch:normal;font-size:28.2222px;font-family:TallThin;-inkscape-font-specification:TallThin;text-align:center;text-anchor:middle;fill:#19919b;fill-opacity:1;stroke:#7c7c7c;stroke-width:0.79375;stroke-dasharray:none;stroke-opacity:1"
         x="136.70659"
         y="88.739998">Æþer Çircl</tspan></text>
    <path
       style="font-size:28.2222px;line-height:1;font-family:TallThin;-inkscape-font-specification:TallThin;text-align:center;text-anchor:middle;fill:#19919b;stroke:#7c7c7c;stroke-width:0.79375"
       d="M 95.57272,80.837782 H 90.774946 V 69.690013 c 0,-0.705555 0.564444,-1.269999 1.269999,-1.269999 h 2.257776 c 0.705555,0 1.269999,0.564444 1.269999,1.269999 z m 0,7.902216 h 1.523999 v -0.338667 c 0.225777,0.197556 0.536221,0.338667 0.874888,0.338667 h 6.914443 V 87.61111 h -5.785555 c -0.705555,0 -1.269999,-0.564444 -1.269999,-1.269999 V 81.96667 h 5.785554 V 80.837782 H 97.830496 V 68.420014 h 7.055554 v -1.128888 h -7.309554 -0.282222 c -0.225778,0 -0.423333,0.05644 -0.592666,0.141111 -0.169333,-0.08467 -0.366889,-0.141111 -0.592666,-0.141111 h -6.321773 c -0.705555,0 -1.269999,0.564444 -1.269999,1.269999 v 20.178873 h 2.257776 V 81.96667 h 4.797774 z m 15.12709,-13.518434 c 0.70556,0 1.24178,0.592666 1.24178,1.298221 v 8.551327 c 0,1.41111 -1.10066,2.539998 -2.51177,2.539998 h -0.0282 V 76.519785 c 0,-0.705555 0.53623,-1.298221 1.24178,-1.298221 z m -1.29822,13.236212 c 0.22578,0.169333 0.47978,0.282222 0.79023,0.282222 h 0.0564 0.0564 1.35467 c 1.41111,0 2.54,-1.128888 2.54,-2.539998 v -9.595548 c 0,-1.41111 -1.12889,-2.539998 -2.54,-2.539998 h -1.35467 -0.0564 -0.0564 c -0.31045,0 -0.56445,0.112888 -0.79023,0.282222 V 67.85557 h -2.25777 v 26.528868 h 2.25777 z m 8.32555,-14.393322 c -0.70555,0 -1.27,0.564444 -1.27,1.269999 v 12.135546 c 0,0.705555 0.56445,1.269999 1.27,1.269999 h 5.78555 V 87.61111 h -3.52777 c -0.70556,0 -1.27,-0.564444 -1.27,-1.269999 V 81.96667 h 3.52777 c 0.70556,0 1.27,-0.564444 1.27,-1.269999 v -5.362218 c 0,-0.705555 -0.56444,-1.269999 -1.27,-1.269999 z m 2.22955,1.128888 h 0.0565 c 0.70555,0 1.24178,0.592666 1.24178,1.298221 v 3.07622 c 0,0.705555 -0.56445,1.269999 -1.27,1.269999 h -1.27 v -4.374441 c 0,-0.705555 0.53622,-1.269999 1.24177,-1.269999 z m 8.18444,0.141111 c 0,0.423333 -0.11289,0.705555 -0.33867,1.015999 -0.0282,0.05644 -0.0847,0.112889 -0.11288,0.141111 -0.0847,0 -0.16934,0 -0.28223,-0.02822 -0.56444,-0.08467 -0.95955,-0.451556 -0.95955,-1.016 0,-0.564444 0.36689,-0.931332 0.93133,-0.931332 0.45156,0 0.762,0.310444 0.762,0.761999 z m -0.90311,2.624664 c -0.0282,0.254 -0.0564,0.592667 -0.0564,0.959555 v 1.91911 c 0,0.225777 0.11288,0.479777 0.31044,0.64911 l 0.81844,0.790222 0.81845,-0.790222 c 0.19755,-0.169333 0.31044,-0.423333 0.31044,-0.64911 v -3.753553 l 0.14111,-0.141111 1.04422,-1.044221 c 0.36689,-0.366889 0.64911,-0.564444 1.07245,-0.649111 v 13.490212 h 2.25777 V 74.064454 h -1.69333 -0.0282 c -0.90311,0 -1.80622,0.39511 -2.51178,1.128888 l -0.28222,0.310444 V 74.91112 c 0,-1.100666 -0.87489,-1.975554 -1.97555,-1.975554 -1.38289,0 -2.54,1.100665 -2.54,2.511775 0,1.326444 1.04422,2.370665 2.31422,2.511776 z m 24.49687,8.664216 c 0,0.705555 -0.56444,0.987777 -1.27,0.987777 h -2.25777 c -0.70556,0 -1.27,-0.564444 -1.27,-1.269999 h -2.25778 v 1.128888 c 0,0.705555 0.56444,1.269999 1.27,1.269999 h 6.77333 c 0.70555,0 1.27,-0.395111 1.27,-1.100666 v -0.112889 c 0,-0.451555 -0.28223,-0.874888 -0.87489,-1.495776 l -1.46756,-1.523999 h 2.34245 V 83.37778 h -5.78555 c -0.70556,0 -1.27,-0.564444 -1.27,-1.269999 V 69.690013 c 0,-0.705555 0.56444,-1.269999 1.27,-1.269999 h 5.78555 v -1.128888 h -8.04333 c -0.70556,0 -1.27,0.564444 -1.27,1.269999 v 14.675544 c 0,0.705555 0.56444,1.269999 1.27,1.269999 h 4.17688 l 1.04423,1.044221 c 0.47977,0.479778 0.56444,0.649111 0.56444,1.015999 z m 4.51555,0.846666 V 74.064454 h 2.25777 v 12.276657 c 0,0.705555 0.508,1.269999 1.12889,1.269999 h 1.27 v 1.128888 h -3.52777 c -0.62089,0 -1.12889,-0.564444 -1.12889,-1.269999 z m -0.28222,-16.594654 c 0,0.282222 0.14111,0.620888 0.39511,0.818444 l 1.016,0.987777 1.016,-0.987777 c 0.254,-0.197556 0.39511,-0.536222 0.39511,-0.818444 0,-0.282222 -0.14111,-0.592666 -0.39511,-0.790222 l -1.016,-0.987777 -1.016,0.987777 c -0.254,0.197556 -0.39511,0.508 -0.39511,0.790222 z m 8.43844,4.459108 c 0,0.423333 -0.11289,0.705555 -0.33867,1.015999 -0.0282,0.05644 -0.0847,0.112889 -0.11289,0.141111 -0.0847,0 -0.16933,0 -0.28222,-0.02822 -0.56444,-0.08467 -0.95956,-0.451556 -0.95956,-1.016 0,-0.564444 0.36689,-0.931332 0.93134,-0.931332 0.45155,0 0.762,0.310444 0.762,0.761999 z m -0.90311,2.624664 c -0.0282,0.254 -0.0564,0.592667 -0.0564,0.959555 v 1.91911 c 0,0.225777 0.11289,0.479777 0.31045,0.64911 l 0.81844,0.790222 0.81844,-0.790222 c 0.19756,-0.169333 0.31045,-0.423333 0.31045,-0.64911 v -3.753553 l 0.14111,-0.141111 1.04422,-1.044221 c 0.36689,-0.366889 0.64911,-0.564444 1.07244,-0.649111 v 13.490212 h 2.25778 V 74.064454 h -1.69333 -0.0282 c -0.90312,0 -1.80623,0.39511 -2.51178,1.128888 l -0.28222,0.310444 V 74.91112 c 0,-1.100666 -0.87489,-1.975554 -1.97556,-1.975554 -1.38288,0 -2.53999,1.100665 -2.53999,2.511775 0,1.326444 1.04422,2.370665 2.31422,2.511776 z m 16.03023,9.651993 H 176.006 c -0.70555,0 -1.26999,-0.564444 -1.26999,-1.269999 v -9.87777 c 0,-0.705555 0.56444,-1.269999 1.26999,-1.269999 h 3.52778 v -1.128888 h -5.78555 c -0.70556,0 -1.27,0.564444 -1.27,1.269999 v 12.135546 c 0,0.705555 0.56444,1.269999 1.27,1.269999 h 5.78555 z m 4.51555,1.128888 h 1.524 0.0282 c 0.19756,0 0.22578,-0.05644 0.31044,-0.141111 l 0.39512,-0.423333 -0.39512,-0.423333 c -0.0847,-0.08467 -0.11288,-0.141111 -0.31044,-0.141111 -1.83444,0 -1.83444,-1.128888 -1.83444,-2.539998 V 67.85557 h -2.25778 V 86.2 c 0,1.41111 1.12889,2.539998 2.54,2.539998 z"
       id="text2"
       aria-label="Æþer Çircl" />
  </g>
</svg>
