<?xml version="1.0" encoding="UTF-8" standalone="no"?>
<!-- Created with Inkscape (http://www.inkscape.org/) -->

<svg
   width="1255.6356"
   height="132.91283"
   viewBox="0 0 332.22024 35.166518"
   version="1.1"
   id="svg1"
   inkscape:version="1.4 (86a8ad7, 2024-10-11)"
   sodipodi:docname="Word Hangeulic Regular Couple Should Ought.svg"
   xmlns:inkscape="http://www.inkscape.org/namespaces/inkscape"
   xmlns:sodipodi="http://sodipodi.sourceforge.net/DTD/sodipodi-0.dtd"
   xmlns="http://www.w3.org/2000/svg"
   xmlns:svg="http://www.w3.org/2000/svg">
  <sodipodi:namedview
     id="namedview1"
     pagecolor="#ffffff"
     bordercolor="#000000"
     borderopacity="0.25"
     inkscape:showpageshadow="2"
     inkscape:pageopacity="0.0"
     inkscape:pagecheckerboard="0"
     inkscape:deskcolor="#d1d1d1"
     inkscape:document-units="px"
     inkscape:zoom="0.70281555"
     inkscape:cx="589.77067"
     inkscape:cy="157.22475"
     inkscape:window-width="1920"
     inkscape:window-height="1027"
     inkscape:window-x="-8"
     inkscape:window-y="-8"
     inkscape:window-maximized="1"
     inkscape:current-layer="layer1" />
  <defs
     id="defs1" />
  <g
     inkscape:label="Layer 1"
     inkscape:groupmode="layer"
     id="layer1"
     transform="translate(29.4017,-55.77468)">
    <text
       xml:space="preserve"
       style="font-style:normal;font-variant:normal;font-weight:normal;font-stretch:normal;font-size:28.2222px;line-height:1;font-family:'Dots n Lines';-inkscape-font-specification:'Dots n Lines';text-align:start;writing-mode:lr-tb;direction:ltr;text-anchor:start;display:none;fill:#19919b;fill-opacity:1;stroke:#7c7c7c;stroke-width:0.79375;stroke-dasharray:none;stroke-opacity:1"
       x="136.70659"
       y="88.739998"
       id="text1"><tspan
         sodipodi:role="line"
         id="tspan1"
         style="font-style:normal;font-variant:normal;font-weight:normal;font-stretch:normal;font-size:28.2222px;font-family:'NewEng Hangeul';-inkscape-font-specification:'NewEng Hangeul';text-align:center;text-anchor:middle;fill:#19919b;fill-opacity:1;stroke:#7c7c7c;stroke-width:0.79375;stroke-dasharray:none;stroke-opacity:1"
         x="136.70659"
         y="88.739998">Cȣ̂pl Ʃȣld Ȣ̊ȝt</tspan></text>
    <path
       style="font-size:28.2222px;line-height:1;font-family:'NewEng Hangeul';-inkscape-font-specification:'NewEng Hangeul';text-align:center;text-anchor:middle;fill:#19919b;stroke:#7c7c7c;stroke-width:0.79375"
       d="m -28.139429,69.407791 h 1.382888 l -2.088443,1.777998 v 18.316208 l 0.705555,0.874888 h 20.940873 l 2.8222201,-2.370664 -0.7337772,-0.874889 H -25.317209 V 69.690013 l -0.225777,-0.282222 h 18.34443 L -4.3763359,67.065348 -5.1101131,66.19046 H -26.050986 l -2.793998,2.370665 z m 46.510214,20.969094 c 0.818444,0 1.241777,0 1.467555,-0.197555 l 2.82222,-2.370665 c 0.254,-0.197555 0.254,-0.677333 0.254,-1.636887 l -0.733778,-0.874889 -2.173109,1.834443 H 4.8805735 c -1.4957766,0 -2.3706649,-0.112888 -2.8786645,-0.112888 -0.028222,-0.225778 -0.028222,-0.508 -0.028222,-0.846666 v -6.293551 c 0.2539998,0.02822 0.5362218,0.02822 0.7902216,0.02822 H 16.367009 c 1.354666,0 2.229554,0.197556 2.765776,0.564444 0.225777,0.536222 0.253999,1.213555 0.253999,1.890888 v 2.737553 l 0.705555,0.874888 2.822221,-2.370665 v -2.737553 c 0,-0.90311 0,-1.777999 -0.536222,-2.398887 L 21.644561,77.620451 C 21.50345,77.422896 21.305894,77.281785 21.051894,77.140674 l 1.382888,-1.157111 c 0.310444,-0.282222 0.479778,-0.733777 0.479778,-1.439332 v -7.478883 l -0.733778,-0.874888 -2.793998,2.370665 v 7.45066 l -0.818443,0.649111 c -0.02822,0 -0.08467,0 -0.112889,0 H 4.8523513 c -1.0724436,0 -2.1166651,0 -2.8222201,-0.366889 -0.028222,-0.169333 -0.056444,-0.338666 -0.056444,-0.564444 V 67.065348 L 1.2399096,66.19046 -1.5540882,68.561125 v 8.664215 c 0,0.479778 0.1128888,0.818444 0.3386664,1.072444 l 0.705555,0.874888 c 0.14111101,0.141111 0.28222201,0.254 0.47977741,0.366889 L -1.5540882,80.80956 v 6.857994 c 0,0.733777 0,1.15711 0.2257776,1.439332 l 0.705555,0.846666 c 0.36688861,0.423333 1.21355462,0.423333 3.4148862,0.423333 z M 13.883464,60.884682 c -0.02822,-0.05644 -0.05645,-0.08467 -0.05645,-0.141111 l -0.536221,-0.64911 c -3.132665,1.326443 -6.2653289,2.031998 -6.2653289,2.031998 l -2.5964425,2.201332 0.5362219,0.64911 c 0,0 3.0762198,-0.705555 6.1524395,-2.003776 l 0.366889,0.423333 c 0.987777,1.185333 4.261552,1.523999 4.261552,1.523999 l 2.596442,-2.201332 -0.536221,-0.64911 c 0,0 -2.681109,-0.254 -3.922886,-1.185333 z m 11.853343,7.676443 v 20.940872 l 0.705555,0.874888 2.82222,-2.370664 v -5.503329 h 15.522211 l 1.890887,-1.580444 v 0.733778 l 0.705555,0.846666 2.82222,-2.342443 V 67.065348 L 49.471678,66.19046 H 31.15547 l -1.890888,1.608665 V 67.065348 L 28.530805,66.19046 Z m 3.527775,0.846666 H 46.67768 v 9.87777 H 31.15547 l -1.890888,1.580443 z M 56.55548,87.131332 V 67.065348 l -0.733778,-0.874888 -2.793997,2.370665 v 20.940872 l 0.705555,0.874888 h 20.940872 l 2.82222,-2.370664 -0.733777,-0.874889 z m 61.69376,-10.724436 -1.29822,1.072444 0.70556,0.874888 c 0.45155,-0.366888 0.87488,-0.733777 1.29822,-1.072443 v 0 l 0.508,-0.451556 c 0.45155,-0.338666 0.87488,-0.705555 1.29822,-1.072443 l 1.016,-0.846666 v -7.845772 l -0.73378,-0.874888 h -20.99732 l -2.793995,2.370665 0.705555,0.874888 c 1.354666,0 2.70933,0 4.064,0 l -2.116668,1.777998 0.705558,0.874889 15.09887,15.042432 H 100.7797 v -6.970883 l 1.29822,-1.072444 -0.73378,-0.874888 c -1.382884,1.15711 -2.737549,2.285998 -4.092215,3.443109 v 7.845771 l 0.705555,0.874888 h 20.99732 l 2.82222,-2.370664 -0.73378,-0.874889 h -3.95111 l 2.06022,-1.721554 -0.73377,-0.874888 -15.15533,-15.098877 c 4.99533,0 9.99066,0 14.98599,0 z m 26.27486,13.969989 c 0.81845,0 1.24178,0 1.46756,-0.197555 l 2.82222,-2.370665 c 0.254,-0.197555 0.254,-0.677333 0.254,-1.636887 l -0.73378,-0.874889 -2.17311,1.834443 h -15.1271 c -1.49577,0 -2.37066,-0.112888 -2.87866,-0.112888 -0.0282,-0.225778 -0.0282,-0.508 -0.0282,-0.846666 v -6.293551 c 0.254,0.02822 0.53622,0.02822 0.79022,0.02822 h 13.6031 c 1.35466,0 2.22955,0.197556 2.76577,0.564444 0.22578,0.536222 0.254,1.213555 0.254,1.890888 v 2.737553 l 0.70556,0.874888 2.82222,-2.370665 v -2.737553 c 0,-0.90311 0,-1.777999 -0.53622,-2.398887 l -0.73378,-0.846666 c -0.14111,-0.197555 -0.33867,-0.338666 -0.59267,-0.479777 l 1.38289,-1.157111 c 0.31044,-0.282222 0.47978,-0.733777 0.47978,-1.439332 v -7.478883 l -0.73378,-0.874888 -2.794,2.370665 v 7.45066 l -0.81844,0.649111 c -0.0282,0 -0.0847,0 -0.11289,0 h -13.6031 c -1.07244,0 -2.11667,0 -2.82222,-0.366889 -0.0282,-0.169333 -0.0564,-0.338666 -0.0564,-0.564444 v -8.664215 l -0.73378,-0.874888 -2.794,2.370665 v 8.664215 c 0,0.479778 0.11289,0.818444 0.33867,1.072444 l 0.70555,0.874888 c 0.14111,0.141111 0.28222,0.254 0.47978,0.366889 l -1.524,1.269999 v 6.857994 c 0,0.733777 0,1.15711 0.22578,1.439332 l 0.70555,0.846666 c 0.36689,0.423333 1.21356,0.423333 3.41489,0.423333 z m 10.89381,-3.245553 V 67.065348 l -0.73377,-0.874888 -2.794,2.370665 v 20.940872 l 0.70555,0.874888 h 20.94088 l 2.82222,-2.370664 -0.73378,-0.874889 z m 23.76312,-18.570207 v 20.940872 l 0.70556,0.874888 2.82222,-2.370664 v -18.59843 h 12.89754 l 4.51556,4.515552 v 11.175991 l 0.70555,0.874888 2.82222,-2.370665 V 72.286455 l -0.73378,-0.846666 -5.2211,-5.249329 h -13.0951 l -1.89089,1.608665 v -0.733777 l -0.73378,-0.874888 z m 3.33022,21.81576 h 13.0951 c 1.43934,-1.241776 2.90689,-2.455331 4.34622,-3.668886 l -0.70555,-0.874888 -1.55222,1.298221 h -13.0951 l -2.82223,2.370665 z m 60.81888,0 c 0.81845,0 1.24178,0 1.46756,-0.197555 l 2.82222,-2.370665 c 0.254,-0.197555 0.254,-0.677333 0.254,-1.636887 l -0.73378,-0.874889 -2.17311,1.834443 h -15.1271 c -1.49577,0 -2.37066,-0.112888 -2.87866,-0.112888 -0.0282,-0.225778 -0.0282,-0.508 -0.0282,-0.846666 v -6.293551 c 0.254,0.02822 0.53622,0.02822 0.79022,0.02822 h 13.6031 c 1.35466,0 2.22955,0.197556 2.76577,0.564444 0.22578,0.536222 0.254,1.213555 0.254,1.890888 v 2.737553 l 0.70556,0.874888 2.82222,-2.370665 v -2.737553 c 0,-0.90311 0,-1.777999 -0.53622,-2.398887 l -0.73378,-0.846666 c -0.14111,-0.197555 -0.33867,-0.338666 -0.59267,-0.479777 l 1.38289,-1.157111 c 0.31045,-0.282222 0.47978,-0.733777 0.47978,-1.439332 v -7.478883 l -0.73378,-0.874888 -2.794,2.370665 v 7.45066 l -0.81844,0.649111 c -0.0282,0 -0.0847,0 -0.11289,0 h -13.6031 c -1.07244,0 -2.11667,0 -2.82222,-0.366889 -0.0282,-0.169333 -0.0564,-0.338666 -0.0564,-0.564444 v -8.664215 l -0.73378,-0.874888 -2.794,2.370665 v 8.664215 c 0,0.479778 0.11289,0.818444 0.33867,1.072444 l 0.70555,0.874888 c 0.14111,0.141111 0.28222,0.254 0.47978,0.366889 l -1.524,1.269999 v 6.857994 c 0,0.733777 0,1.15711 0.22578,1.439332 l 0.70555,0.846666 c 0.36689,0.423333 1.21356,0.423333 3.41489,0.423333 z m -4.45911,-34.20533 c -0.62089,0 -1.55222,0.112889 -2.42711,0.846666 l -2.59644,2.17311 c -0.11289,0.08467 -0.22578,0.197555 -0.33867,0.338666 l 0.19755,0.225778 -0.67733,0.564444 c -0.0847,0.254 -0.0847,0.310444 -0.0847,0.592666 0,1.100666 0.47978,1.693332 0.62089,1.834443 l 0.53623,0.649111 c 0.56444,0.64911 1.41111,1.044221 2.4271,1.044221 0.11289,0 0.42334,-0.02822 0.42334,-0.02822 0.56444,0 1.60866,-0.112889 2.42711,-0.790222 l 2.59644,-2.173109 c 0.22578,-0.197556 0.42333,-0.423333 0.59267,-0.705555 l -0.36689,-0.451555 0.64911,-0.536222 c 0.0282,-0.141111 0.0282,-0.254 0.0282,-0.395111 0,-0.310444 -0.0847,-0.592666 -0.16933,-0.874888 -0.11289,-0.282222 -0.16934,-0.338667 -0.93134,-1.241777 -0.42333,-0.508 -1.21355,-1.072444 -2.48355,-1.072444 -0.11289,0 -0.42333,0 -0.42333,0 z m -2.76578,2.878665 c 0.254,-0.02822 0.508,-0.05645 0.70556,-0.05645 0,0 0.31044,0 0.42333,0 1.016,0 1.74978,0.366889 2.20133,0.762 0.16933,0.282222 0.31045,0.733777 0.31045,1.15711 0,0.112889 -0.0282,0.225778 -0.0282,0.366889 l 0.16934,0.225777 c -0.33867,0.08467 -0.64911,0.08467 -0.87489,0.08467 0,0 -0.31045,0 -0.42334,0 -0.84666,0 -1.58044,-0.254 -2.14488,-0.705555 -0.28222,-0.508 -0.36689,-1.072444 -0.36689,-1.495777 0,-0.169333 0,-0.254 0.0282,-0.338666 z m 35.33423,10.385793 v 3.668886 l -4.318,3.584219 h -7.64821 l -2.794,2.370665 0.70556,0.874888 h 7.64821 c 3.302,-2.765775 6.63222,-5.531551 9.93422,-8.297327 v -4.571996 l -0.73378,-0.874888 h -20.74332 l -2.794,2.370665 0.70556,0.874888 z m -20.03776,20.940872 h 13.6031 c 3.33022,-2.793997 6.66044,-5.531551 9.96244,-8.325549 v -4.487329 l -0.73378,-0.874889 h -3.95111 l -2.794,2.370665 0.70556,0.874888 h 3.21733 v 3.58422 l -4.318,3.612441 h -13.6031 l -2.794,2.370665 z m 27.09332,-20.969094 h 11.85333 l -2.08845,1.777998 v 18.316208 l 0.70556,0.874888 2.82222,-2.370664 V 69.690013 l -0.22578,-0.282222 h 7.87399 l 2.82222,-2.342443 -0.73377,-0.874888 h -20.94088 l -2.79399,2.370665 z"
       id="text2"
       aria-label="Cȣ̂pl Ʃȣld Ȣ̊ȝt" />
  </g>
</svg>
