<?xml version="1.0" encoding="UTF-8" standalone="no"?>
<!-- Created with Inkscape (http://www.inkscape.org/) -->

<svg
   width="1100.1472"
   height="105.90039"
   viewBox="0 0 291.08063 28.019479"
   version="1.1"
   id="svg1"
   inkscape:version="1.4 (86a8ad7, 2024-10-11)"
   sodipodi:docname="Word Hangeulic Regular Aether Circle.svg"
   xmlns:inkscape="http://www.inkscape.org/namespaces/inkscape"
   xmlns:sodipodi="http://sodipodi.sourceforge.net/DTD/sodipodi-0.dtd"
   xmlns="http://www.w3.org/2000/svg"
   xmlns:svg="http://www.w3.org/2000/svg">
  <sodipodi:namedview
     id="namedview1"
     pagecolor="#ffffff"
     bordercolor="#000000"
     borderopacity="0.25"
     inkscape:showpageshadow="2"
     inkscape:pageopacity="0.0"
     inkscape:pagecheckerboard="0"
     inkscape:deskcolor="#d1d1d1"
     inkscape:document-units="px"
     inkscape:zoom="1.0393815"
     inkscape:cx="507.03231"
     inkscape:cy="78.412018"
     inkscape:window-width="1920"
     inkscape:window-height="1027"
     inkscape:window-x="-8"
     inkscape:window-y="-8"
     inkscape:window-maximized="1"
     inkscape:current-layer="layer1" />
  <defs
     id="defs1" />
  <g
     inkscape:label="Layer 1"
     inkscape:groupmode="layer"
     id="layer1"
     transform="translate(8.7524921,-64.274002)">
    <text
       xml:space="preserve"
       style="font-style:normal;font-variant:normal;font-weight:normal;font-stretch:normal;font-size:28.2222px;line-height:1;font-family:'NewEng Hangeul';-inkscape-font-specification:'NewEng Hangeul';text-align:start;writing-mode:lr-tb;direction:ltr;text-anchor:start;display:none;fill:#19919b;fill-opacity:1;stroke:#7c7c7c;stroke-width:0.79375;stroke-dasharray:none;stroke-opacity:1"
       x="136.70659"
       y="88.739998"
       id="text1"><tspan
         sodipodi:role="line"
         id="tspan1"
         style="font-style:normal;font-variant:normal;font-weight:800;font-stretch:normal;font-size:28.2222px;font-family:'NewEng Hangeul';-inkscape-font-specification:'NewEng Hangeul Ultra-Bold';text-align:center;text-anchor:middle;fill:#19919b;fill-opacity:1;stroke:#7c7c7c;stroke-width:0.79375;stroke-dasharray:none;stroke-opacity:1"
         x="0"
         y="0">Æþer Çircl</tspan></text>
    <path
       style="font-weight:800;font-size:28.2222px;line-height:1;font-family:'NewEng Hangeul';-inkscape-font-specification:'NewEng Hangeul Ultra-Bold';text-align:center;text-anchor:middle;fill:#19919b;stroke:#7c7c7c;stroke-width:0.79375"
       d="m 8.6623697,70.790678 c 1.6933323,0 3.3866643,0 5.1082183,0 l 5.39044,-4.543774 -1.185332,-1.41111 H 10.101702 L 8.5777031,66.134015 7.4770373,64.835794 h -7.81754948 l -1.52399882,1.298221 -1.1006658,-1.298221 -5.3904403,4.543774 v 20.940873 l 1.1853324,1.41111 5.3904403,-4.543774 v -5.926662 h 3.8664415 v 9.059326 l 1.1853324,1.41111 1.5239988,-1.298221 1.1006658,1.298221 h 7.8739939 l 5.39044,-4.543774 -1.185332,-1.41111 h -7.873994 l -1.4393323,1.213554 v -5.729106 h 2.2295543 l 5.39044,-4.543775 -1.185333,-1.41111 H 9.81948 v 0 H 8.6623697 Z m -10.4422141,5.729107 v -5.729107 c 1.29822121,0 2.56822023,0 3.8664415,0 V 75.30623 H -0.34051218 Z M 21.983269,69.379568 v 20.940873 l 1.15711,1.41111 5.418663,-4.543774 v -1.41111 H 41.48481 l 1.608665,-1.354666 1.128888,1.354666 5.418663,-4.515552 v -9.087549 l -1.185333,-1.41111 H 29.998374 l -1.439332,1.213555 v -5.729107 l -1.185333,-1.41111 z m 6.575773,7.30955 h 14.506211 v 3.160887 H 29.998374 l -1.439332,1.213554 z m 25.061314,-5.89844 h 0.282222 l -1.439332,1.213555 v 18.316208 l 1.15711,1.41111 h 20.940873 l 5.418662,-4.543774 -1.185332,-1.41111 h -19.75554 v -4.515552 h 10.301103 l 5.39044,-4.543775 -1.15711,-1.41111 H 60.196129 l -1.15711,0.987777 v -5.503329 h 15.52221 l 5.418662,-4.543774 -1.185332,-1.41111 H 57.853686 l -5.39044,4.543774 z m 29.181772,-1.41111 v 20.940873 l 1.15711,1.41111 5.418663,-4.543774 v -5.926662 h 7.95866 l -1.467554,1.213554 1.185332,1.382888 7.845771,7.873994 5.41866,-4.543774 -1.18533,-1.41111 -5.58799,-5.587996 0.28222,-0.225777 1.07244,1.298221 5.41866,-4.543775 V 66.246904 l -1.18533,-1.41111 H 90.817233 l -1.552221,1.298221 -1.072443,-1.298221 z m 6.575773,1.41111 H 103.743 V 75.30623 H 90.817233 l -1.439332,1.213555 z m 44.675789,0 h 0.28222 l -1.43933,1.213555 v 7.873994 l 1.15711,1.41111 h 17.80821 l -4.54378,3.781775 v 0.705555 h -5.13644 l -5.39044,4.543774 1.18534,1.41111 h 10.52688 l 5.41866,-4.543774 V 81.96667 l -0.56444,-0.677333 h 1.63688 l 5.41867,-4.543774 -1.18534,-1.41111 h -19.75554 v -4.543775 h 15.52221 l 5.41867,-4.543774 -1.18534,-1.41111 h -20.94087 l -5.39044,4.543774 z m 30.33888,0 h 10.55511 l -1.29823,1.072444 v 13.913545 h -5.02355 l -5.39044,4.543774 1.15711,1.41111 h 20.94088 l 5.41866,-4.543774 -1.18533,-1.41111 h -10.75266 l 1.43933,-1.213555 V 70.790678 h 5.08 l 5.41866,-4.543774 -1.18533,-1.41111 H 168.6259 l -5.39044,4.543774 z m 29.18178,-1.41111 v 20.940873 l 1.15711,1.41111 5.41866,-4.543774 v -5.926662 h 7.95866 l -1.46756,1.213554 1.18534,1.382888 7.84577,7.873994 5.41866,-4.543774 -1.18533,-1.41111 -5.588,-5.587996 0.28222,-0.225777 1.07245,1.298221 5.41866,-4.543775 V 66.246904 l -1.18533,-1.41111 h -18.31621 l -1.55222,1.298221 -1.07244,-1.298221 z m 6.57577,1.41111 h 14.3651 v 4.515552 h -12.92577 l -1.43933,1.213555 z m 24.92023,0 h 0.28222 l -1.43933,1.213555 v 18.316208 l 1.15711,1.41111 h 20.94088 l 5.41866,-4.543774 -1.18533,-1.41111 H 230.48902 V 70.790678 h 15.52221 l 5.41866,-4.543774 -1.18533,-1.41111 h -20.94088 l -5.39044,4.543774 z m 29.18176,-1.41111 v 20.940873 l 1.15711,1.41111 h 20.94087 l 5.41867,-4.543774 -1.18534,-1.41111 H 260.82788 V 66.246904 l -1.18533,-1.41111 z"
       id="text10"
       aria-label="Æþer Çircl" />
  </g>
</svg>
