<?xml version="1.0" encoding="UTF-8" standalone="no"?>
<!-- Created with Inkscape (http://www.inkscape.org/) -->

<svg
   width="492.59973"
   height="100.06657"
   viewBox="0 0 130.33368 26.475947"
   version="1.1"
   id="svg1"
   inkscape:version="1.4 (86a8ad7, 2024-10-11)"
   sodipodi:docname="Word TallThin Photograph.svg"
   xmlns:inkscape="http://www.inkscape.org/namespaces/inkscape"
   xmlns:sodipodi="http://sodipodi.sourceforge.net/DTD/sodipodi-0.dtd"
   xmlns="http://www.w3.org/2000/svg"
   xmlns:svg="http://www.w3.org/2000/svg">
  <sodipodi:namedview
     id="namedview1"
     pagecolor="#ffffff"
     bordercolor="#000000"
     borderopacity="0.25"
     inkscape:showpageshadow="2"
     inkscape:pageopacity="0.0"
     inkscape:pagecheckerboard="0"
     inkscape:deskcolor="#d1d1d1"
     inkscape:document-units="px"
     inkscape:zoom="1.4699074"
     inkscape:cx="241.51181"
     inkscape:cy="54.765355"
     inkscape:window-width="1920"
     inkscape:window-height="1027"
     inkscape:window-x="-8"
     inkscape:window-y="-8"
     inkscape:window-maximized="1"
     inkscape:current-layer="layer1" />
  <defs
     id="defs1" />
  <g
     inkscape:label="Layer 1"
     inkscape:groupmode="layer"
     id="layer1"
     transform="translate(-101.09597,-66.894251)">
    <text
       xml:space="preserve"
       style="font-size:28.2222px;line-height:1;font-family:'BlockTrain Hand';-inkscape-font-specification:'BlockTrain Hand';text-align:start;writing-mode:lr-tb;direction:ltr;text-anchor:start;display:none;fill:#19919b;fill-opacity:1;stroke:#7c7c7c;stroke-width:0.79375;stroke-dasharray:none;stroke-opacity:1"
       x="166.26282"
       y="88.739998"
       id="text1"><tspan
         sodipodi:role="line"
         id="tspan1"
         style="font-style:normal;font-variant:normal;font-weight:normal;font-stretch:normal;font-size:28.2222px;font-family:TallThin;-inkscape-font-specification:TallThin;text-align:center;text-anchor:middle;fill:#19919b;fill-opacity:1;stroke:#7c7c7c;stroke-width:0.79375;stroke-dasharray:none;stroke-opacity:1"
         x="0"
         y="0">Φotograφ Mꝏn</tspan></text>
    <path
       style="font-size:28.2222px;line-height:1;font-family:TallThin;-inkscape-font-specification:TallThin;text-align:center;text-anchor:middle;fill:#19919b;stroke:#7c7c7c;stroke-width:0.79375"
       d="m 107.70172,86.2 h 1.41111 c 1.41111,0 2.54,-1.128888 2.54,-2.539998 v -11.28888 c 0,-1.41111 -1.12889,-2.539998 -2.54,-2.539998 h -1.41111 v -2.539998 h -2.25777 v 2.539998 h -1.41111 c -1.41111,0 -2.54,1.128888 -2.54,2.539998 v 11.28888 c 0,1.41111 1.12889,2.539998 2.54,2.539998 h 1.41111 v 2.539998 h 2.25777 z m -0.14111,-1.213555 V 71.044678 c 1.07245,0.310444 1.83445,1.298221 1.83445,2.455332 v 9.031104 c 0,1.15711 -0.762,2.144887 -1.83445,2.455331 z m -1.97555,-13.941767 v 13.941767 c -1.07245,-0.310444 -1.83444,-1.298221 -1.83444,-2.455331 V 73.50001 c 0,-1.157111 0.76199,-2.144888 1.83444,-2.455332 z m 10.58334,6.688662 c 0,-1.354666 0,-2.539998 1.27,-2.539998 1.27,0 1.27,1.185332 1.27,2.539998 v 7.337772 c 0,1.354665 0,2.539998 -1.27,2.539998 -1.27,0 -1.27,-1.185333 -1.27,-2.539998 z M 113.91062,86.2 c 0,1.41111 1.12889,2.539998 2.54,2.539998 h 1.97555 c 1.41111,0 2.54,-1.128888 2.54,-2.539998 v -9.595548 c 0,-1.41111 -1.12889,-2.539998 -2.54,-2.539998 h -1.97555 c -1.41111,0 -2.54,1.128888 -2.54,2.539998 z m 13.96999,-9.680215 v 9.821326 c 0,0.705555 0.508,1.269999 1.12889,1.269999 h 1.27 v 1.128888 h -3.52778 c -0.62089,0 -1.12889,-0.564444 -1.12889,-1.269999 V 76.209341 75.193342 h -0.42333 -1.97555 v -1.128888 h 1.07244 0.59267 c 0.70555,0 0.73377,-0.254 0.73377,-0.959555 v -0.310444 -1.552221 c 0,-0.225778 0.11289,-0.479778 0.31045,-0.649111 l 0.81844,-0.790222 0.81844,0.790222 c 0.19756,0.169333 0.31045,0.423333 0.31045,0.649111 v 2.82222 h 2.39889 v 1.128888 h -1.12889 -0.59267 c -0.67733,0 -0.67733,0.310444 -0.67733,1.015999 z m 6.91444,1.213555 c 0,-1.354666 0,-2.539998 1.26999,-2.539998 1.27,0 1.27,1.185332 1.27,2.539998 v 7.337772 c 0,1.354665 0,2.539998 -1.27,2.539998 -1.26999,0 -1.26999,-1.185333 -1.26999,-2.539998 z M 132.53727,86.2 c 0,1.41111 1.12889,2.539998 2.54,2.539998 h 1.97555 c 1.41111,0 2.54,-1.128888 2.54,-2.539998 v -9.595548 c 0,-1.41111 -1.12889,-2.539998 -2.54,-2.539998 h -1.97555 c -1.41111,0 -2.54,1.128888 -2.54,2.539998 z m 11.5711,-9.397993 v 9.454437 0.02822 c 0,0.705555 0.53622,1.298222 1.24178,1.298222 h 0.0282 0.0282 c 0.70556,0 1.24178,-0.592667 1.24178,-1.298222 v -0.02822 -9.567326 -0.141111 -0.02822 c 0,-0.705555 -0.53622,-1.298221 -1.24178,-1.298221 h -0.0282 -0.0282 c -0.70556,0 -1.24178,0.592666 -1.24178,1.298221 v 0.02822 z m 2.54,11.599324 c -0.22578,0.225778 -0.508,0.338667 -0.84667,0.338667 h -0.0282 -0.0282 -0.36689 -0.59267 -0.254 -0.14111 c -1.41111,0 -2.54,-1.128888 -2.54,-2.539998 v -9.595548 c 0,-1.41111 1.12889,-2.539998 2.54,-2.539998 h 1.21356 0.0847 0.0282 c 0.36689,0 0.70556,0.141111 0.93134,0.338666 v -0.338666 h 2.25777 v 2.82222 11.571102 3.189109 0.05644 c 0,0.705555 -0.56444,1.269999 -1.27,1.269999 h -5.50332 V 91.84444 h 3.24555 c 0.70555,0 1.27,-0.564444 1.27,-1.269999 v -0.05644 -0.39511 z m 6.88621,-13.066878 c 0,0.423333 -0.11289,0.705555 -0.33866,1.015999 -0.0282,0.05644 -0.0847,0.112889 -0.11289,0.141111 -0.0847,0 -0.16934,0 -0.28223,-0.02822 -0.56444,-0.08467 -0.95955,-0.451556 -0.95955,-1.016 0,-0.564444 0.36689,-0.931332 0.93133,-0.931332 0.45156,0 0.762,0.310444 0.762,0.761999 z m -0.90311,2.624664 c -0.0282,0.254 -0.0564,0.592667 -0.0564,0.959555 v 1.91911 c 0,0.225777 0.11289,0.479777 0.31044,0.64911 l 0.81845,0.790222 0.81844,-0.790222 c 0.19755,-0.169333 0.31044,-0.423333 0.31044,-0.64911 v -3.753553 l 0.14111,-0.141111 1.04423,-1.044221 c 0.36688,-0.366889 0.64911,-0.564444 1.07244,-0.649111 v 13.490212 h 2.25778 V 74.064454 h -1.69334 -0.0282 c -0.90311,0 -1.80622,0.39511 -2.51177,1.128888 l -0.28223,0.310444 V 74.91112 c 0,-1.100666 -0.87488,-1.975554 -1.97555,-1.975554 -1.38289,0 -2.54,1.100665 -2.54,2.511775 0,1.326444 1.04422,2.370665 2.31422,2.511776 z m 11.90979,2.850443 h -0.67733 -0.95955 -0.0282 c -0.70555,0 -1.26999,0.592666 -1.26999,1.298221 v 5.192885 0.141111 c 0,0.705555 0.56444,1.298221 1.26999,1.298221 h 0.0282 2.42711 0.0282 0.0847 0.0282 c 0.36689,0 0.70555,-0.169333 0.93133,-0.451555 v 0.451555 h 0.95955 1.29823 V 87.215999 76.802007 75.362675 c 0,-0.705555 -0.56445,-1.298221 -1.27,-1.298221 h -0.0282 -1.94733 -2.51177 -0.0282 c -0.70555,0 -1.26999,0.592666 -1.26999,1.298221 v 0.05644 1.044222 h 2.14488 0.0565 0.0564 c 0,-0.705555 0.53622,-1.269999 1.24178,-1.269999 h 0.0282 0.0282 c 0.70556,0 1.24178,0.592666 1.24178,1.298221 v 0.02822 0.423333 2.483554 0.05644 0.02822 c 0,0.705555 -0.53622,1.298222 -1.24178,1.298222 h -0.0282 z m 0.98778,1.15711 h 0.0282 c 0.33867,0 0.62089,-0.112889 0.84667,-0.338667 v 4.48733 0.141111 0.02822 c 0,0.705555 -0.53622,1.298222 -1.24178,1.298222 h -0.0282 -0.0282 c -0.70556,0 -1.24178,-0.592667 -1.24178,-1.298222 v -0.02822 -0.254 -2.709331 -0.02822 c 0,-0.705555 0.53622,-1.298221 1.24178,-1.298221 h 0.0282 0.36689 z m 11.59933,-7.902216 v -3.668886 h -2.25778 v 3.668886 h -1.41111 c -1.41111,0 -2.54,1.128888 -2.54,2.539998 V 86.2 c 0,1.41111 1.12889,2.539998 2.54,2.539998 h 1.41111 v 3.668886 h 2.25778 v -3.668886 h 1.41111 c 1.41111,0 2.54,-1.128888 2.54,-2.539998 v -9.595548 c 0,-1.41111 -1.12889,-2.539998 -2.54,-2.539998 z m 0,13.405545 V 75.334453 c 0.98777,0.338666 1.69333,1.298221 1.69333,2.398887 v 7.337772 c 0,1.100666 -0.70556,2.06022 -1.69333,2.398887 z m -2.25778,-12.135546 v 12.135546 c -0.98778,-0.338667 -1.69333,-1.298221 -1.69333,-2.398887 V 77.73334 c 0,-1.100666 0.70555,-2.060221 1.69333,-2.398887 z M 194.3439,88.739998 V 69.66179 c 0.79022,0 1.524,0.310445 2.06022,0.846666 l 1.60867,1.552221 v 16.679321 h 2.25778 V 72.060677 l 1.60866,-1.552221 c 0.53622,-0.536221 1.27,-0.846666 2.06022,-0.846666 v 19.078208 h 2.25778 V 67.291126 h -1.016 -0.22578 -0.16933 c -0.79022,0 -1.524,0.310444 -2.06022,0.846666 -0.81845,0.790221 -1.63689,1.580443 -2.45533,2.342442 v -3.189108 h -2.25778 v 3.189108 c -0.81844,-0.761999 -1.63689,-1.552221 -2.45533,-2.342442 -0.53622,-0.536222 -1.27,-0.846666 -2.06022,-0.846666 h -0.19756 -0.19755 -1.016 V 88.739998 Z M 210.99501,77.73334 c 0,-1.354666 0,-2.539998 1.55222,-2.539998 0.53622,0 0.90311,0.197555 1.12889,0.564444 -0.0847,0.253999 -0.14111,0.536221 -0.14111,0.846666 v 8.46666 c 0,1.354665 0,2.539998 -1.27,2.539998 -1.27,0 -1.27,-1.185333 -1.27,-2.539998 z M 208.73723,86.2 c 0,1.41111 1.12889,2.539998 2.54,2.539998 h 1.97555 c 0.47978,0 0.93134,-0.141111 1.29823,-0.366889 0.33866,0.225778 0.76199,0.366889 1.24177,0.366889 h 2.25778 c 1.41111,0 2.54,-1.128888 2.54,-2.539998 v -9.595548 c 0,-1.41111 -1.12889,-2.539998 -2.54,-2.539998 H 216.075 c -0.47977,0 -0.93133,0.141111 -1.29822,0.366888 -0.33866,-0.225777 -0.762,-0.366888 -1.24177,-0.366888 h -2.25778 c -1.41111,0 -2.54,1.128888 -2.54,2.539998 z m 6.91444,0.846666 c 0.0847,-0.254 0.14111,-0.536222 0.14111,-0.846666 v -8.46666 c 0,-1.354666 0,-2.539998 1.27,-2.539998 1.27,0 1.27,1.185332 1.27,2.539998 v 7.337772 c 0,1.354665 0,2.539998 -1.55222,2.539998 -0.53622,0 -0.90311,-0.197556 -1.12889,-0.564444 z m 9.45444,1.693332 v -12.30488 c 0.79022,0 1.524,0.310445 2.06022,0.846667 l 1.60866,1.552221 v 9.905992 h 2.25778 v -14.1111 c 0,-0.225778 -0.11289,-0.451556 -0.31044,-0.620889 l -0.81845,-0.790221 -0.81844,0.790221 c -0.19756,0.169333 -0.31045,0.395111 -0.31045,0.620889 v 2.624664 l -2.45533,-2.342442 c -0.53622,-0.536222 -1.27,-0.846666 -2.06022,-0.846666 h -0.19755 -0.19756 -1.016 v 14.675544 z"
       id="text2"
       aria-label="Φotograφ Mꝏn" />
  </g>
</svg>
