<?xml version="1.0" encoding="UTF-8" standalone="no"?>
<!-- Created with Inkscape (http://www.inkscape.org/) -->

<svg
   width="756.59967"
   height="84.493248"
   viewBox="0 0 200.18366 22.355505"
   version="1.1"
   id="svg1"
   inkscape:version="1.4 (86a8ad7, 2024-10-11)"
   sodipodi:docname="Word DotsNLines Couple.svg"
   xmlns:inkscape="http://www.inkscape.org/namespaces/inkscape"
   xmlns:sodipodi="http://sodipodi.sourceforge.net/DTD/sodipodi-0.dtd"
   xmlns="http://www.w3.org/2000/svg"
   xmlns:svg="http://www.w3.org/2000/svg">
  <sodipodi:namedview
     id="namedview1"
     pagecolor="#ffffff"
     bordercolor="#000000"
     borderopacity="0.25"
     inkscape:showpageshadow="2"
     inkscape:pageopacity="0.0"
     inkscape:pagecheckerboard="0"
     inkscape:deskcolor="#d1d1d1"
     inkscape:document-units="px"
     inkscape:zoom="1.4699074"
     inkscape:cx="363.28819"
     inkscape:cy="117.35433"
     inkscape:window-width="1920"
     inkscape:window-height="1027"
     inkscape:window-x="-8"
     inkscape:window-y="-8"
     inkscape:window-maximized="1"
     inkscape:current-layer="layer1" />
  <defs
     id="defs1" />
  <g
     inkscape:label="Layer 1"
     inkscape:groupmode="layer"
     id="layer1"
     transform="translate(-36.65708,-67.289366)">
    <text
       xml:space="preserve"
       style="font-style:normal;font-variant:normal;font-weight:normal;font-stretch:normal;font-size:28.2222px;line-height:1;font-family:'Dots n Lines';-inkscape-font-specification:'Dots n Lines';text-align:start;writing-mode:lr-tb;direction:ltr;text-anchor:start;display:none;fill:#19919b;fill-opacity:1;stroke:#7c7c7c;stroke-width:0.79375;stroke-dasharray:none;stroke-opacity:1"
       x="136.70659"
       y="88.739998"
       id="text1"><tspan
         sodipodi:role="line"
         id="tspan1"
         style="font-style:normal;font-variant:normal;font-weight:normal;font-stretch:normal;font-size:28.2222px;font-family:'Dots n Lines';-inkscape-font-specification:'Dots n Lines';text-align:center;text-anchor:middle;fill:#19919b;fill-opacity:1;stroke:#7c7c7c;stroke-width:0.79375;stroke-dasharray:none;stroke-opacity:1"
         x="0"
         y="0">cȣpl ʃȣld</tspan></text>
    <path
       style="font-size:28.2222px;line-height:1;font-family:'Dots n Lines';-inkscape-font-specification:'Dots n Lines';text-align:center;text-anchor:middle;fill:#19919b;stroke:#7c7c7c;stroke-width:0.79375"
       d="m 48.596867,88.852887 c 0.790221,0 1.777998,0.02822 2.652886,0.02822 0.903111,0 1.693332,-0.02822 2.003777,-0.282222 0.620888,-0.508 0.818444,-0.592666 0.987777,-0.762 0.02822,-0.02822 1.072443,-1.439332 1.072443,-1.80622 0,-0.08467 0,-0.112889 -0.112888,-0.112889 -0.05645,0 -5.24933,-0.197556 -6.011329,-0.197556 h -0.649111 c -2.229554,0 -4.571996,-0.112888 -6.095995,-1.777998 -0.366889,-0.366889 -0.620888,-0.762 -0.620888,-0.874888 0,-0.508 -0.620889,-0.169334 -0.620889,-3.922886 0,-2.201332 0.366889,-3.866442 1.044222,-5.164663 0.39511,-0.733777 1.947331,-2.342443 3.104442,-2.850442 0.620888,-0.254 1.693332,-0.620889 3.866441,-0.620889 2.201332,0 2.991553,0.338667 3.612442,0.338667 0.90311,0 2.088443,-1.523999 2.088443,-1.91911 0,-0.225777 -0.874889,-0.592666 -1.411111,-0.733777 -0.253999,-0.08467 -0.790221,-0.112889 -1.439332,-0.112889 -0.987777,0 -2.201331,0.08467 -3.07622,0.225778 -5.446884,0.90311 -9.313326,5.221107 -9.397992,5.305773 -0.169334,0.254 -0.508,0.649111 -0.733778,0.903111 -0.479777,0.507999 -1.015999,1.721554 -1.439332,3.07622 -0.366888,1.15711 -0.366888,2.652887 -0.366888,4.571996 0,1.439332 0.08467,1.806221 0.564444,2.991553 0.479777,1.185333 1.241776,1.975554 2.681109,2.765776 1.326443,0.733777 1.580443,0.733777 4.459107,0.846666 1.016,0.05644 2.060221,0.08467 3.104442,0.08467 z M 62.369315,67.770903 c -0.05644,0 -1.777998,0.141111 -3.612441,1.608665 -0.141111,0.112889 -0.197556,0.225778 -0.197556,0.874889 v 0.90311 c 0.141111,4.120441 0.282222,4.910663 1.298222,5.89844 1.072443,1.015999 2.539998,1.382888 2.539998,1.693332 0,0.141111 -0.479778,0.423333 -1.213555,0.846666 -1.044221,0.620888 -2.737553,2.511776 -2.793998,4.374441 v 0.254 c 0,0.790221 0.141111,1.580443 0.649111,2.088443 2.370665,2.370664 6.434662,2.681109 9.200437,2.681109 1.185333,0 2.850442,-0.02822 3.499553,-0.112889 3.358442,-0.395111 5.13644,-1.241777 5.192885,-1.269999 2.596442,-1.298221 3.047998,-3.217331 3.047998,-4.402663 0,-0.649111 -0.141111,-1.354666 -0.366889,-1.975554 -0.310444,-0.790222 -1.66511,-2.455332 -2.539998,-2.850443 -0.366889,-0.169333 -0.564444,-0.282222 -0.564444,-0.338666 0,-0.05644 0.112889,-0.141111 0.225777,-0.197555 0.169334,-0.112889 1.495777,-1.128889 1.806221,-1.749777 0.479778,-0.874888 0.846666,-1.806221 1.072444,-2.737553 0.08467,-0.338667 0.141111,-2.116665 0.141111,-2.765776 v -1.044221 c 0,-0.282222 0,-0.592667 -0.169333,-0.959555 -0.169334,-0.395111 -0.310445,-0.677333 -1.354666,-0.677333 -0.282222,0 -2.088443,0.423333 -2.991553,1.213555 -0.366889,0.338666 -0.423333,0.479777 -0.564444,2.398887 -0.08467,0.931332 -0.02822,1.580443 -0.141111,2.370664 -0.254,2.031999 -0.677333,3.217331 -2.737554,3.217331 h -0.338666 c -3.245553,0 -4.769552,-0.761999 -5.926662,-1.326443 -0.931333,-0.479778 -1.580443,-1.072444 -1.580443,-1.580443 0,-0.05645 -0.169334,-2.398887 -0.254,-4.515552 -0.05645,-1.185333 -0.197556,-1.157111 -0.282222,-1.41111 -0.141111,-0.508 -0.564444,-0.508 -0.846666,-0.508 z m 10.63977,11.627547 0.592666,0.366888 c 1.044222,0.620889 1.91911,1.241777 1.91911,2.624665 0,1.777998 -0.931333,3.443108 -0.959555,3.47133 -0.254,0.254 -0.366889,0.649111 -2.596442,0.649111 h -0.733778 c -3.47133,0 -4.854218,-0.366889 -6.54755,-1.241777 -0.931333,-0.479777 -1.269999,-0.90311 -1.269999,-2.088443 0,-0.818443 0.08467,-1.072443 0.451555,-1.721554 0.225778,-0.395111 0.649111,-0.959555 0.90311,-1.213554 l 0.592667,-0.564444 1.298221,0.169333 c 0.649111,0.08467 1.15711,0.112889 1.693332,0.112889 h 0.254 c 2.737553,0 3.612441,-0.310445 4.402663,-0.564444 z m 12.44598,-8.269105 c 0.05644,0 1.834444,-0.282222 5.079997,-0.282222 2.596442,0 4.515552,0.08467 6.29355,1.636887 0.790222,0.677333 1.41111,1.693332 1.41111,4.205108 0,0.987777 -0.112889,2.003777 -0.254,2.229554 -0.620888,0.903111 -1.354665,1.382888 -2.624664,1.382888 -0.141111,0 -0.282222,-0.02822 -0.423333,-0.05644 h -2.483554 c -0.564444,0 -1.15711,-0.02822 -1.721554,-0.02822 h -0.141111 c -1.693332,0 -2.963331,0.05644 -5.164663,0.112889 -1.354665,0.903111 -2.427109,1.947332 -2.427109,2.314221 v 0.02822 c 0,0.02822 0.395111,0.423333 1.66511,0.423333 0.564444,0 1.241777,-0.05644 1.806221,-0.05644 h 0.197555 c 1.015999,0 2.003776,-0.02822 3.019776,-0.02822 h 0.02822 c 0.64911,0 1.298221,0.02822 1.947332,0.02822 h 0.874888 c 1.523999,0 2.596442,-0.253999 2.624664,-0.253999 1.213555,-0.310445 3.922886,-1.580444 5.24933,-3.019776 0.64911,-0.733777 1.35467,-1.213554 1.58044,-2.511776 0.14112,-0.90311 0.28223,-1.721554 0.28223,-2.455331 0,-2.17311 -0.70556,-3.555997 -1.97556,-4.459108 -3.330219,-2.342442 -6.491105,-2.342442 -8.269104,-2.342442 -0.790221,0 -1.439332,-0.05644 -2.173109,-0.05644 -1.072444,0 -2.201332,0.08467 -3.809997,0.225778 -0.733778,0.08467 -2.681109,1.947332 -2.681109,2.285998 0,0.02822 -0.02822,0.02822 0,0.02822 0.169333,0 1.439332,0.649111 2.088442,0.649111 z m 1.298222,13.349101 c -0.508,0 -0.762,0.08467 -1.41111,0.592666 -0.366889,0.282222 -0.620889,0.423333 -0.874889,0.64911 -0.536221,0.508 -1.241776,0.959555 -1.382887,1.693332 0,0.05644 -0.02822,0.08467 -0.02822,0.141111 0,0.282222 0.141111,0.536222 0.310445,0.818444 0.169333,0.310444 1.15711,0.620889 2.06022,0.620889 h 0.197556 c 0.620888,-0.08467 0.90311,-0.423333 1.806221,-0.931333 1.241776,-0.733777 1.919109,-1.552221 1.919109,-2.285998 0,-0.649111 -1.580443,-1.298221 -2.596442,-1.298221 z m 36.406673,1.298221 h -1.43933 c -0.0282,0 -0.762,0.02822 -1.91911,0.02822 -0.79023,0 -1.83445,0 -2.90689,-0.02822 -0.53622,0 -1.04422,-0.02822 -1.55222,-0.02822 -1.35467,0 -2.59644,0.02822 -3.89467,0.02822 h -1.12888 c -0.254,-4.092219 -0.33867,-13.320879 -0.33867,-13.46199 v -1.721554 c 0,-1.015999 -0.0564,-1.975554 -0.28222,-2.285998 -0.22578,-0.282222 -0.254,-0.423333 -0.47978,-0.423333 0,0 -2.45533,0.564444 -3.83822,1.834443 0,0 -0.0564,2.201331 -0.0564,3.273775 0,0.874888 -0.0282,1.66511 -0.0282,2.539998 v 1.213555 c 0,3.894663 0.0282,7.30955 0.254,11.486435 l 0.67734,0.225778 c 0.64911,0.225777 1.12889,0.225777 4.62844,0.282222 2.08844,0.02822 2.794,0.02822 3.18911,0.02822 h 4.48733 c 1.016,0 1.91911,0 2.14488,-0.02822 1.97556,-0.225778 3.33022,-2.229554 3.33022,-2.596443 0,-0.366888 -0.62089,-0.366888 -0.84666,-0.366888 z m 28.33509,-17.356653 h -3.10444 l -2.62467,-0.02822 -0.90311,0.197556 c -0.62089,0.225777 -1.07244,0.395111 -1.58044,0.705555 -0.56445,0.310444 -1.38289,1.185332 -1.72156,1.439332 -0.22577,0.141111 -0.31044,0.282222 -0.31044,0.395111 0,0.08467 0.0564,0.112889 0.16933,0.169333 0.0282,0.02822 1.778,1.298221 2.286,1.66511 2.76578,2.173109 8.09977,7.337772 8.91822,7.337772 0.33866,-0.02822 3.52777,-0.987777 3.52777,-1.495777 0,-0.90311 -6.18066,-6.54755 -7.30955,-7.337772 -0.14111,-0.112889 -0.254,-0.225777 -0.254,-0.282222 0.0282,-0.02822 0.762,-0.05644 1.83445,-0.05644 h 1.12888 c 0.22578,0 0.45156,0.02822 0.67734,0.02822 1.27,0 8.7771,-0.536222 9.25688,-0.677333 0.81844,-0.282222 1.35466,-0.564444 1.74977,-0.874888 0.42334,-0.338666 0.762,-0.451555 0.762,-0.790222 0,-0.90311 -0.28222,-1.100665 -1.21355,-1.128888 h -0.19756 c -0.36688,0 -3.61244,0.733778 -11.09132,0.733778 z M 156.2646,85.946 h -0.62089 c -3.72533,0 -9.00288,-0.366889 -9.51088,-0.423333 h -0.0564 c -0.0565,0 -2.96333,1.41111 -3.78178,1.975554 -0.33866,0.225778 -0.42333,0.451555 -0.42333,0.620888 0,0.310445 0.36689,0.479778 0.59266,0.564444 1.58045,0.508 8.21267,0.564444 8.89,0.564444 2.59644,0 5.16466,-0.08467 7.59177,-0.197555 2.59644,-0.112889 2.85044,-0.197555 4.26155,-0.564444 0.47978,-0.08467 1.69333,-0.931333 1.69333,-1.608665 0,-0.141111 -0.0564,-0.282222 -0.22577,-0.451556 -0.70556,-0.705555 -0.87489,-0.705555 -1.63689,-0.705555 -0.31045,0 -0.67733,0.02822 -0.95956,0.02822 h -0.42333 c -1.29822,0 -5.33399,0.197555 -5.39044,0.197555 z m 15.71977,-18.175097 c -0.0565,0 -1.778,0.141111 -3.61244,1.608665 -0.14112,0.112889 -0.19756,0.225778 -0.19756,0.874889 v 0.90311 c 0.14111,4.120441 0.28222,4.910663 1.29822,5.89844 1.07244,1.015999 2.54,1.382888 2.54,1.693332 0,0.141111 -0.47978,0.423333 -1.21356,0.846666 -1.04422,0.620888 -2.73755,2.511776 -2.79399,4.374441 v 0.254 c 0,0.790221 0.14111,1.580443 0.64911,2.088443 2.37066,2.370664 6.43466,2.681109 9.20043,2.681109 1.18534,0 2.85045,-0.02822 3.49956,-0.112889 3.35844,-0.395111 5.13644,-1.241777 5.19288,-1.269999 2.59644,-1.298221 3.048,-3.217331 3.048,-4.402663 0,-0.649111 -0.14111,-1.354666 -0.36689,-1.975554 -0.31044,-0.790222 -1.66511,-2.455332 -2.54,-2.850443 -0.36689,-0.169333 -0.56444,-0.282222 -0.56444,-0.338666 0,-0.05644 0.11289,-0.141111 0.22578,-0.197555 0.16933,-0.112889 1.49577,-1.128889 1.80622,-1.749777 0.47977,-0.874888 0.84666,-1.806221 1.07244,-2.737553 0.0847,-0.338667 0.14111,-2.116665 0.14111,-2.765776 v -1.044221 c 0,-0.282222 0,-0.592667 -0.16933,-0.959555 -0.16933,-0.395111 -0.31045,-0.677333 -1.35467,-0.677333 -0.28222,0 -2.08844,0.423333 -2.99155,1.213555 -0.36689,0.338666 -0.42333,0.479777 -0.56444,2.398887 -0.0847,0.931332 -0.0282,1.580443 -0.14111,2.370664 -0.254,2.031999 -0.67734,3.217331 -2.73756,3.217331 h -0.33866 c -3.24556,0 -4.76956,-0.761999 -5.92667,-1.326443 -0.93133,-0.479778 -1.58044,-1.072444 -1.58044,-1.580443 0,-0.05645 -0.16933,-2.398887 -0.254,-4.515552 -0.0564,-1.185333 -0.19756,-1.157111 -0.28222,-1.41111 -0.14111,-0.508 -0.56445,-0.508 -0.84667,-0.508 z m 10.63977,11.627547 0.59266,0.366888 c 1.04422,0.620889 1.91911,1.241777 1.91911,2.624665 0,1.777998 -0.93133,3.443108 -0.95955,3.47133 -0.254,0.254 -0.36689,0.649111 -2.59645,0.649111 h -0.73377 c -3.47133,0 -4.85422,-0.366889 -6.54755,-1.241777 -0.93134,-0.479777 -1.27,-0.90311 -1.27,-2.088443 0,-0.818443 0.0847,-1.072443 0.45155,-1.721554 0.22578,-0.395111 0.64911,-0.959555 0.90311,-1.213554 l 0.59267,-0.564444 1.29822,0.169333 c 0.64911,0.08467 1.15711,0.112889 1.69333,0.112889 h 0.254 c 2.73756,0 3.61244,-0.310445 4.40267,-0.564444 z m 27.85529,6.378217 h -1.43933 c -0.0282,0 -0.762,0.02822 -1.91911,0.02822 -0.79022,0 -1.83444,0 -2.90689,-0.02822 -0.53622,0 -1.04422,-0.02822 -1.55222,-0.02822 -1.35466,0 -2.59644,0.02822 -3.89466,0.02822 h -1.12889 c -0.254,-4.092219 -0.33867,-13.320879 -0.33867,-13.46199 v -1.721554 c 0,-1.015999 -0.0564,-1.975554 -0.28222,-2.285998 -0.22578,-0.282222 -0.254,-0.423333 -0.47978,-0.423333 0,0 -2.45533,0.564444 -3.83822,1.834443 0,0 -0.0564,2.201331 -0.0564,3.273775 0,0.874888 -0.0282,1.66511 -0.0282,2.539998 v 1.213555 c 0,3.894663 0.0282,7.30955 0.254,11.486435 l 0.67733,0.225778 c 0.64911,0.225777 1.12889,0.225777 4.62844,0.282222 2.08844,0.02822 2.794,0.02822 3.18911,0.02822 h 4.48733 c 1.016,0 1.91911,0 2.14489,-0.02822 1.97555,-0.225778 3.33022,-2.229554 3.33022,-2.596443 0,-0.366888 -0.62089,-0.366888 -0.84667,-0.366888 z m 5.58801,-15.324655 c 0.39511,0 0.87489,-0.112889 1.24178,-0.112889 h 0.28222 c 1.016,0 1.89089,-0.197555 3.61244,-0.197555 0.762,0 5.24933,0.02822 6.71689,1.213554 3.1891,2.455332 3.78177,6.124218 3.78177,8.692438 0,2.17311 -0.42333,4.656663 -1.60866,5.559774 -0.56445,0.479777 -2.54,0.90311 -3.97934,0.90311 -0.28222,0 -2.56822,-0.197555 -2.59644,-0.197555 -5.4751,-0.366889 -4.20511,-0.451556 -5.07999,-0.451556 -0.39511,0 -0.762,0.141111 -1.778,0.508 -0.79022,0.282222 -2.31422,1.495777 -2.31422,1.806221 0,0.112889 0.11289,0.141111 0.28222,0.141111 0.16933,0 0.36689,-0.05644 0.73378,-0.05644 0.0847,0 5.19288,0.508 8.04332,0.508 4.03578,0 7.95866,-1.241777 9.79311,-2.624665 2.59644,-1.919109 2.70933,-2.511775 3.07622,-4.995329 0.0847,-0.649111 0.16933,-1.241777 0.16933,-2.229554 0,-4.48733 -1.97555,-7.732883 -4.65666,-9.228659 -2.62467,-1.495777 -4.88244,-1.693332 -6.57578,-1.693332 -0.11288,0 -10.07532,0.366888 -10.18821,1.890887 0.16933,0.508 0.90311,0.564444 1.04422,0.564444 z m 1.60867,10.018881 c 0.28222,0 2.11666,-0.310444 3.38666,-1.552221 0.39511,-0.395111 1.21356,-1.072443 1.21356,-1.185332 0,-0.395111 -0.56445,-0.874889 -1.21356,-1.439333 -0.254,-0.225777 -0.31044,-0.253999 -0.67733,-0.253999 -0.508,0 -0.56445,0 -2.286,0.818443 -1.72155,0.790222 -2.25778,1.326444 -2.25778,2.229554 0,1.128888 1.524,1.382888 1.83445,1.382888 z"
       id="text2"
       aria-label="cȣpl ʃȣld" />
  </g>
</svg>
