<?xml version="1.0" encoding="UTF-8" standalone="no"?>
<!-- Created with Inkscape (http://www.inkscape.org/) -->

<svg
   width="430.19952"
   height="100.06657"
   viewBox="0 0 113.82362 26.475948"
   version="1.1"
   id="svg1"
   inkscape:version="1.4 (86a8ad7, 2024-10-11)"
   sodipodi:docname="Word TallThin Clothing.svg"
   xmlns:inkscape="http://www.inkscape.org/namespaces/inkscape"
   xmlns:sodipodi="http://sodipodi.sourceforge.net/DTD/sodipodi-0.dtd"
   xmlns="http://www.w3.org/2000/svg"
   xmlns:svg="http://www.w3.org/2000/svg">
  <sodipodi:namedview
     id="namedview1"
     pagecolor="#ffffff"
     bordercolor="#000000"
     borderopacity="0.25"
     inkscape:showpageshadow="2"
     inkscape:pageopacity="0.0"
     inkscape:pagecheckerboard="0"
     inkscape:deskcolor="#d1d1d1"
     inkscape:document-units="px"
     inkscape:zoom="2.078763"
     inkscape:cx="218.39912"
     inkscape:cy="62.296664"
     inkscape:window-width="1920"
     inkscape:window-height="1027"
     inkscape:window-x="-8"
     inkscape:window-y="-8"
     inkscape:window-maximized="1"
     inkscape:current-layer="layer1" />
  <defs
     id="defs1" />
  <g
     inkscape:label="Layer 1"
     inkscape:groupmode="layer"
     id="layer1"
     transform="translate(-79.935851,-66.894251)">
    <text
       xml:space="preserve"
       style="font-size:28.2222px;line-height:1;font-family:'BlockTrain Hand';-inkscape-font-specification:'BlockTrain Hand';text-align:start;writing-mode:lr-tb;direction:ltr;text-anchor:start;display:none;fill:#19919b;fill-opacity:1;stroke:#7c7c7c;stroke-width:0.79375;stroke-dasharray:none;stroke-opacity:1"
       x="136.70659"
       y="88.739998"
       id="text1"><tspan
         sodipodi:role="line"
         id="tspan1"
         style="font-style:normal;font-variant:normal;font-weight:normal;font-stretch:normal;font-size:28.2222px;font-family:TallThin;-inkscape-font-specification:TallThin;text-align:center;text-anchor:middle;fill:#19919b;fill-opacity:1;stroke:#7c7c7c;stroke-width:0.79375;stroke-dasharray:none;stroke-opacity:1"
         x="0"
         y="0">Cloðiŋ Ƕeðer</tspan></text>
    <path
       style="font-size:28.2222px;line-height:1;font-family:TallThin;-inkscape-font-specification:TallThin;text-align:center;text-anchor:middle;fill:#19919b;stroke:#7c7c7c;stroke-width:0.79375"
       d="m 89.646052,87.61111 h -5.785551 c -0.705555,0 -1.269999,-0.564444 -1.269999,-1.269999 V 69.690013 c 0,-0.705555 0.564444,-1.269999 1.269999,-1.269999 h 5.785551 v -1.128888 h -8.043327 c -0.705555,0 -1.269999,0.564444 -1.269999,1.269999 v 18.908874 c 0,0.705555 0.564444,1.269999 1.269999,1.269999 h 8.043327 z m 4.797783,1.128888 h 1.523998 0.02822 c 0.197555,0 0.225777,-0.05644 0.310444,-0.141111 L 96.701611,88.175554 96.3065,87.752221 c -0.08467,-0.08467 -0.112889,-0.141111 -0.310444,-0.141111 -1.834443,0 -1.834443,-1.128888 -1.834443,-2.539998 V 67.85557 H 91.903837 V 86.2 c 0,1.41111 1.128888,2.539998 2.539998,2.539998 z M 99.806068,77.73334 c 0,-1.354666 0,-2.539998 1.270002,-2.539998 1.27,0 1.27,1.185332 1.27,2.539998 v 7.337772 c 0,1.354665 0,2.539998 -1.27,2.539998 -1.270002,0 -1.270002,-1.185333 -1.270002,-2.539998 z M 97.548292,86.2 c 0,1.41111 1.128888,2.539998 2.539998,2.539998 h 1.97555 c 1.41111,0 2.54,-1.128888 2.54,-2.539998 v -9.595548 c 0,-1.41111 -1.12889,-2.539998 -2.54,-2.539998 h -1.97555 c -1.41111,0 -2.539998,1.128888 -2.539998,2.539998 z M 111.06672,72.935566 v -1.975554 c 0.64911,0.05644 1.15711,0.592666 1.15711,1.269999 v 0.05644 0.141111 c 0,1.044221 -0.28222,1.241777 -0.45155,2.088443 -0.22578,-0.282222 -0.56445,-0.451555 -0.95956,-0.451555 h -0.0282 -0.0282 -0.36689 -0.59267 -0.254 -0.14111 c -1.41111,0 -2.53999,1.128888 -2.53999,2.539998 V 86.2 c 0,1.41111 1.12888,2.539998 2.53999,2.539998 h 1.97556 c 1.41111,0 2.54,-1.128888 2.54,-2.539998 v -11.853324 -3.189109 -0.05644 c 0,-0.705555 -0.56445,-1.269999 -1.27,-1.269999 h -1.58045 V 67.85557 h -1.69333 v 1.975554 h -1.94733 v 1.128888 h 1.94733 v 1.975554 z m -1.94733,13.066878 v -9.454437 -0.02822 c 0,-0.705555 0.53622,-1.298221 1.24178,-1.298221 h 0.0282 0.0282 c 0.70556,0 1.24178,0.592666 1.24178,1.298221 v 0.02822 9.567326 0.141111 0.02822 c 0,0.705555 -0.53622,1.298222 -1.24178,1.298222 h -0.0282 -0.0282 c -0.70556,0 -1.24178,-0.592667 -1.24178,-1.298222 v -0.02822 z m 7.05555,1.467555 V 74.064454 h 2.25778 v 12.276657 c 0,0.705555 0.508,1.269999 1.12888,1.269999 h 1.27 v 1.128888 h -3.52777 c -0.62089,0 -1.12889,-0.564444 -1.12889,-1.269999 z m -0.28222,-16.594654 c 0,0.282222 0.14111,0.620888 0.39511,0.818444 l 1.016,0.987777 1.016,-0.987777 c 0.254,-0.197556 0.39511,-0.536222 0.39511,-0.818444 0,-0.282222 -0.14111,-0.592666 -0.39511,-0.790222 l -1.016,-0.987777 -1.016,0.987777 c -0.254,0.197556 -0.39511,0.508 -0.39511,0.790222 z m 8.32554,17.864653 v -12.30488 c 0.79023,0 1.524,0.310445 2.06023,0.846667 l 1.60866,1.552221 v 9.341548 0.564444 1.777998 0.05644 c 0,0.705555 -0.56444,1.269999 -1.27,1.269999 h -4.37444 v 1.128888 h 5.36222 c 1.41111,0 2.54,-1.128888 2.54,-2.539998 V 90.263997 88.739998 88.175554 74.628898 c 0,-0.225778 -0.11289,-0.451556 -0.31045,-0.620889 l -0.81844,-0.790221 -0.81844,0.790221 c -0.19756,0.169333 -0.31045,0.395111 -0.31045,0.620889 v 2.624664 l -2.45533,-2.342442 c -0.53622,-0.536222 -1.27,-0.846666 -2.06022,-0.846666 h -0.19756 -0.19755 -1.016 v 14.675544 z m 24.83555,-1.354666 V 70.395568 h -2.25778 v 10.442214 h -3.66889 V 67.291126 h -2.25777 v 21.448872 h 2.25777 V 81.96667 h 3.66889 v 6.773328 h 1.04422 0.0847 0.0564 0.508 c 0.45156,0 0.93133,-0.197556 1.29822,-0.564444 l 2.65289,-2.624665 c 0,-0.02822 0,-0.02822 1.58044,-1.66511 0.59267,-0.592666 0.95956,-1.636887 0.95956,-2.793997 V 80.950671 67.291126 h -2.25778 v 14.534433 0.112889 c 0,0.987777 -0.22578,1.890887 -0.70555,2.483553 z m 9.45443,-13.320878 c -0.70556,0 -1.27,0.564444 -1.27,1.269999 v 12.135546 c 0,0.705555 0.56444,1.269999 1.27,1.269999 h 5.78555 V 87.61111 h -3.52777 c -0.70556,0 -1.27,-0.564444 -1.27,-1.269999 V 81.96667 h 3.52777 c 0.70556,0 1.27,-0.564444 1.27,-1.269999 v -5.362218 c 0,-0.705555 -0.56444,-1.269999 -1.27,-1.269999 z m 2.22955,1.128888 h 0.0565 c 0.70555,0 1.24177,0.592666 1.24177,1.298221 v 3.07622 c 0,0.705555 -0.56444,1.269999 -1.26999,1.269999 h -1.27 v -4.374441 c 0,-0.705555 0.53622,-1.269999 1.24177,-1.269999 z m 10.01888,-2.257776 v -1.975554 c 0.64911,0.05644 1.15711,0.592666 1.15711,1.269999 v 0.05644 0.141111 c 0,1.044221 -0.28222,1.241777 -0.45155,2.088443 -0.22578,-0.282222 -0.56445,-0.451555 -0.95956,-0.451555 h -0.0282 -0.0282 -0.36689 -0.59267 -0.254 -0.14111 c -1.41111,0 -2.54,1.128888 -2.54,2.539998 V 86.2 c 0,1.41111 1.12889,2.539998 2.54,2.539998 h 1.97556 c 1.41111,0 2.53999,-1.128888 2.53999,-2.539998 v -11.853324 -3.189109 -0.05644 c 0,-0.705555 -0.56444,-1.269999 -1.26999,-1.269999 h -1.58045 V 67.85557 h -1.69333 v 1.975554 h -1.94733 v 1.128888 h 1.94733 v 1.975554 z m -1.94733,13.066878 v -9.454437 -0.02822 c 0,-0.705555 0.53622,-1.298221 1.24178,-1.298221 h 0.0282 0.0282 c 0.70556,0 1.24178,0.592666 1.24178,1.298221 v 0.02822 9.567326 0.141111 0.02822 c 0,0.705555 -0.53622,1.298222 -1.24178,1.298222 h -0.0282 -0.0282 c -0.70556,0 -1.24178,-0.592667 -1.24178,-1.298222 v -0.02822 z m 8.32555,-11.93799 c -0.70556,0 -1.27,0.564444 -1.27,1.269999 v 12.135546 c 0,0.705555 0.56444,1.269999 1.27,1.269999 h 5.78555 V 87.61111 h -3.52778 c -0.70555,0 -1.27,-0.564444 -1.27,-1.269999 V 81.96667 h 3.52778 c 0.70555,0 1.27,-0.564444 1.27,-1.269999 v -5.362218 c 0,-0.705555 -0.56445,-1.269999 -1.27,-1.269999 z m 2.22955,1.128888 h 0.0565 c 0.70555,0 1.24177,0.592666 1.24177,1.298221 v 3.07622 c 0,0.705555 -0.56444,1.269999 -1.27,1.269999 h -1.27 v -4.374441 c 0,-0.705555 0.53623,-1.269999 1.24178,-1.269999 z m 8.18444,0.141111 c 0,0.423333 -0.11289,0.705555 -0.33867,1.015999 -0.0282,0.05644 -0.0847,0.112889 -0.11289,0.141111 -0.0847,0 -0.16933,0 -0.28222,-0.02822 -0.56444,-0.08467 -0.95955,-0.451556 -0.95955,-1.016 0,-0.564444 0.36688,-0.931332 0.93133,-0.931332 0.45155,0 0.762,0.310444 0.762,0.761999 z m -0.90311,2.624664 c -0.0282,0.254 -0.0565,0.592667 -0.0565,0.959555 v 1.91911 c 0,0.225777 0.11289,0.479777 0.31045,0.64911 l 0.81844,0.790222 0.81844,-0.790222 c 0.19756,-0.169333 0.31045,-0.423333 0.31045,-0.64911 v -3.753553 l 0.14111,-0.141111 1.04422,-1.044221 c 0.36689,-0.366889 0.64911,-0.564444 1.07244,-0.649111 v 13.490212 h 2.25778 V 74.064454 h -1.69333 -0.0282 c -0.90311,0 -1.80622,0.39511 -2.51178,1.128888 l -0.28222,0.310444 V 74.91112 c 0,-1.100666 -0.87489,-1.975554 -1.97556,-1.975554 -1.38288,0 -2.53999,1.100665 -2.53999,2.511775 0,1.326444 1.04422,2.370665 2.31422,2.511776 z"
       id="text2"
       aria-label="Cloðiŋ Ƕeðer" />
  </g>
</svg>
