<?xml version="1.0" encoding="UTF-8" standalone="no"?>
<!-- Created with Inkscape (http://www.inkscape.org/) -->

<svg
   width="495.90628"
   height="103.47992"
   viewBox="0 0 131.20854 27.379063"
   version="1.1"
   id="svg1"
   inkscape:version="1.4 (86a8ad7, 2024-10-11)"
   sodipodi:docname="Word Leaf Tech Psychedelic.svg"
   xmlns:inkscape="http://www.inkscape.org/namespaces/inkscape"
   xmlns:sodipodi="http://sodipodi.sourceforge.net/DTD/sodipodi-0.dtd"
   xmlns="http://www.w3.org/2000/svg"
   xmlns:svg="http://www.w3.org/2000/svg">
  <sodipodi:namedview
     id="namedview1"
     pagecolor="#ffffff"
     bordercolor="#000000"
     borderopacity="0.25"
     inkscape:showpageshadow="2"
     inkscape:pageopacity="0.0"
     inkscape:pagecheckerboard="0"
     inkscape:deskcolor="#d1d1d1"
     inkscape:document-units="px"
     inkscape:zoom="1.0393815"
     inkscape:cx="224.65284"
     inkscape:cy="65.904579"
     inkscape:window-width="1920"
     inkscape:window-height="1027"
     inkscape:window-x="-8"
     inkscape:window-y="-8"
     inkscape:window-maximized="1"
     inkscape:current-layer="layer1" />
  <defs
     id="defs1" />
  <g
     inkscape:label="Layer 1"
     inkscape:groupmode="layer"
     id="layer1"
     transform="translate(-71.102323,-65.765363)">
    <text
       xml:space="preserve"
       style="font-size:28.2222px;line-height:1;font-family:'BlockTrain Hand';-inkscape-font-specification:'BlockTrain Hand';text-align:start;letter-spacing:0px;writing-mode:lr-tb;direction:ltr;text-anchor:start;display:none;fill:#17a23e;fill-opacity:0.854902;stroke:#4d804f;stroke-width:0.79375;stroke-dasharray:none;stroke-opacity:1"
       x="136.70659"
       y="88.739998"
       id="text1"><tspan
         sodipodi:role="line"
         id="tspan1"
         style="font-style:normal;font-variant:normal;font-weight:normal;font-stretch:normal;font-size:28.2222px;font-family:'Leaf Tech';-inkscape-font-specification:'Leaf Tech';text-align:center;letter-spacing:0px;text-anchor:middle;fill:#17a23e;fill-opacity:0.854902;stroke:#4d804f;stroke-width:0.79375;stroke-dasharray:none;stroke-opacity:1"
         x="0"
         y="0">Psychedelic</tspan></text>
    <path
       style="font-size:28.2222px;line-height:1;font-family:'Leaf Tech';-inkscape-font-specification:'Leaf Tech';text-align:center;letter-spacing:0px;text-anchor:middle;fill:#17a23e;fill-opacity:0.854902;stroke:#4d804f;stroke-width:0.79375"
       d="m 77.482305,67.460459 h 4.684885 v 4.684885 c 0,2.596442 -2.088443,4.656663 -4.684885,4.656663 h -4.684886 v -4.656663 c 0,-2.596442 2.088443,-4.684885 4.684886,-4.684885 z m 0,-1.298221 c -3.301998,0 -5.983107,2.681109 -5.983107,5.983106 v 15.973765 c 0,0.366889 0.310444,0.620889 0.649111,0.620889 0.366888,0 0.64911,-0.254 0.64911,-0.620889 V 78.100228 h 4.684886 c 3.301997,0 5.983106,-2.681109 5.983106,-5.954884 v -5.983106 z m 19.360408,13.433767 c 0,-0.08467 -0.02822,-0.169333 -0.05644,-0.254 -0.620889,-1.41111 -2.088443,-2.539998 -3.866442,-2.539998 h -7.761105 v 2.427109 c 0,2.285999 1.890888,4.176886 4.205108,4.176886 h 6.462884 v 1.128888 c 0,1.608665 -1.298221,2.906887 -2.906887,2.906887 h -7.111994 c -0.366889,0 -0.649111,0.310444 -0.649111,0.64911 0,0.366889 0.282222,0.649111 0.649111,0.649111 h 7.111994 c 2.314221,0 4.176886,-1.890888 4.176886,-4.205108 V 82.136003 H 89.36383 c -1.608665,0 -2.906887,-1.298221 -2.906887,-2.906887 v -1.15711 h 6.462884 c 1.241777,0 2.257776,0.790222 2.681109,1.777999 0.08467,0.225777 0.310444,0.395111 0.592666,0.395111 0.366889,0 0.649111,-0.310445 0.649111,-0.649111 z m 13.885317,8.494882 V 77.422896 c 0,-0.338667 -0.28222,-0.620889 -0.62089,-0.620889 -0.36689,0 -0.64911,0.282222 -0.64911,0.620889 v 10.018881 h -4.65666 c -2.62467,0 -4.71311,-2.088443 -4.71311,-4.713108 v -5.305773 c 0,-0.338667 -0.310445,-0.620889 -0.649111,-0.620889 -0.366889,0 -0.649111,0.282222 -0.649111,0.620889 v 5.305773 c 0,3.301998 2.709332,6.011329 6.011332,6.011329 h 4.57199 c -0.28222,1.552221 -1.63688,2.709331 -3.27377,2.709331 h -6.660441 c -0.366889,0 -0.649111,0.282222 -0.649111,0.649111 0,0.338666 0.282222,0.64911 0.649111,0.64911 h 6.660441 c 2.54,0 4.62844,-2.088443 4.62844,-4.656663 z m 1.69333,-11.28888 v 5.926662 c 0,3.301998 2.70933,6.011329 6.01132,6.011329 h 5.30578 c 0.33866,0 0.62089,-0.282222 0.62089,-0.649111 0,-0.338666 -0.28223,-0.64911 -0.62089,-0.64911 h -5.30578 c -2.62466,0 -4.7131,-2.088443 -4.7131,-4.713108 v -4.656663 h 6.01133 c 1.86266,0 3.35844,1.495777 3.35844,3.358442 0,0.366889 0.28222,0.649111 0.64911,0.649111 0.33866,0 0.62089,-0.282222 0.62089,-0.649111 0,-2.539998 -2.08845,-4.628441 -4.62844,-4.628441 z m 12.22023,-10.018881 c 0,0.169333 0.0564,0.310444 0.16933,0.423333 1.15711,1.298221 1.86266,3.019775 1.86266,4.910663 v 10.611547 c 0,3.301998 2.70934,6.011329 6.01133,6.011329 0.36689,0 0.64911,-0.282222 0.64911,-0.649111 0,-0.338666 -0.28222,-0.64911 -0.64911,-0.64911 -2.59644,0 -4.7131,-2.088443 -4.7131,-4.713108 v -4.656663 h 4.65666 c 2.62466,0 4.71311,2.116665 4.71311,4.713108 v 5.305773 c 0,0.366889 0.28222,0.649111 0.64911,0.649111 0.33866,0 0.64911,-0.282222 0.64911,-0.649111 v -5.305773 c 0,-3.301998 -2.70933,-5.983107 -6.01133,-5.983107 h -4.65666 v -4.684885 c 0,-2.229554 -0.84667,-4.23333 -2.20134,-5.785551 -0.11289,-0.112889 -0.28222,-0.169333 -0.47977,-0.169333 -0.36689,0 -0.64911,0.253999 -0.64911,0.620888 z m 15.69153,10.047103 v 5.89844 c 0,3.301998 2.70933,6.011329 6.01133,6.011329 h 5.27755 c 0.36689,0 0.64911,-0.282222 0.64911,-0.649111 0,-0.338666 -0.28222,-0.64911 -0.64911,-0.64911 h -5.27755 c -2.37066,0 -4.318,-1.721555 -4.65666,-4.007553 0.70555,0.649111 1.58044,1.128888 2.85044,1.128888 h 7.73288 v -1.777998 c 0,-3.301998 -2.68111,-5.954885 -5.9831,-5.954885 z m 1.29822,1.269999 h 4.65667 c 2.59644,0 4.68488,2.088443 4.68488,4.684886 v 0.479777 h -6.43466 c -1.63689,0 -2.90689,-1.298221 -2.90689,-2.906887 z m 18.28798,-11.93799 c -0.36689,0 -0.64911,0.253999 -0.64911,0.620888 0,0.338666 0.28222,0.649111 0.64911,0.649111 2.59645,0 4.71311,2.088442 4.71311,4.684885 v 6.999106 c -1.10067,-1.41111 -2.794,-2.314221 -4.71311,-2.314221 h -5.95488 v 5.926662 c 0,3.301998 2.70933,6.011329 6.01133,6.011329 h 5.92666 V 72.117122 c 0,-3.301998 -2.68111,-5.954884 -5.98311,-5.954884 z m -4.65666,11.909768 h 4.65666 c 2.59645,0 4.71311,2.116665 4.71311,4.713108 v 4.656663 h -4.65666 c -2.62467,0 -4.71311,-2.088443 -4.71311,-4.713108 z m 12.3331,-1.241777 v 5.89844 c 0,3.301998 2.70933,6.011329 6.01132,6.011329 h 5.27756 c 0.36688,0 0.64911,-0.282222 0.64911,-0.649111 0,-0.338666 -0.28223,-0.64911 -0.64911,-0.64911 h -5.27756 c -2.37066,0 -4.31799,-1.721555 -4.65666,-4.007553 0.70556,0.649111 1.58044,1.128888 2.85044,1.128888 h 7.73289 v -1.777998 c 0,-3.301998 -2.68111,-5.954885 -5.98311,-5.954885 z m 1.29822,1.269999 h 4.65666 c 2.59644,0 4.68489,2.088443 4.68489,4.684886 v 0.479777 h -6.43467 c -1.63688,0 -2.90688,-1.298221 -2.90688,-2.906887 z m 10.92201,-11.28888 c 0,0.169333 0.0564,0.310444 0.16933,0.423333 1.15711,1.298221 1.86266,3.019776 1.86266,4.882441 v 5.333996 5.333996 c 0,1.834443 0.56445,3.527775 1.55223,4.910662 0.19755,0.310445 0.39511,0.564444 0.64911,0.818444 0.11288,0.141111 0.28222,0.225778 0.47977,0.225778 0.36689,0 0.64911,-0.282222 0.64911,-0.649111 0,-0.169333 -0.0564,-0.310444 -0.16933,-0.423333 -1.15711,-1.298221 -1.86266,-3.019775 -1.86266,-4.88244 v -5.333996 -5.333996 c 0,-2.201332 -0.84667,-4.205108 -2.20134,-5.729107 -0.14111,-0.141111 -0.31044,-0.225777 -0.47977,-0.225777 -0.36689,0 -0.64911,0.282222 -0.64911,0.64911 z m 9.87774,21.279539 c 0,-0.169333 -0.0564,-0.310444 -0.16933,-0.423333 -1.15711,-1.298221 -1.89089,-3.019775 -1.89089,-4.910663 v -5.333995 c 0,-0.338667 -0.28222,-0.620889 -0.62089,-0.620889 -0.36689,0 -0.64911,0.282222 -0.64911,0.620889 v 5.333995 c 0,2.229554 0.81844,4.23333 2.20133,5.757329 0.11289,0.141111 0.28222,0.225778 0.47978,0.225778 0.36689,0 0.64911,-0.282222 0.64911,-0.649111 z m -3.95111,-14.393322 v 1.269999 h 1.24178 c 0.70555,0 1.27,-0.564444 1.27,-1.269999 v -1.241777 h -1.24178 c -0.73378,0 -1.27,0.564444 -1.27,1.241777 z m 4.23338,3.104442 v 5.926662 c 0,3.301998 2.70933,6.011329 6.01133,6.011329 h 5.30577 c 0.33867,0 0.62089,-0.282222 0.62089,-0.649111 0,-0.338666 -0.28222,-0.64911 -0.62089,-0.64911 h -5.30577 c -2.62467,0 -4.71311,-2.088443 -4.71311,-4.713108 v -4.656663 h 6.01133 c 1.86266,0 3.35844,1.495777 3.35844,3.358442 0,0.366889 0.28222,0.649111 0.64911,0.649111 0.33867,0 0.62089,-0.282222 0.62089,-0.649111 0,-2.539998 -2.08844,-4.628441 -4.62844,-4.628441 z"
       id="text2"
       aria-label="Psychedelic" />
  </g>
</svg>
