<?xml version="1.0" encoding="UTF-8" standalone="no"?>
<!-- Created with Inkscape (http://www.inkscape.org/) -->

<svg
   width="794.33679"
   height="138.35989"
   viewBox="0 0 210.16829 36.607724"
   version="1.1"
   id="svg1"
   inkscape:version="1.4 (86a8ad7, 2024-10-11)"
   sodipodi:docname="Word Hangeulic Regular Stronger Thanks.svg"
   xmlns:inkscape="http://www.inkscape.org/namespaces/inkscape"
   xmlns:sodipodi="http://sodipodi.sourceforge.net/DTD/sodipodi-0.dtd"
   xmlns="http://www.w3.org/2000/svg"
   xmlns:svg="http://www.w3.org/2000/svg">
  <sodipodi:namedview
     id="namedview1"
     pagecolor="#ffffff"
     bordercolor="#000000"
     borderopacity="0.25"
     inkscape:showpageshadow="2"
     inkscape:pageopacity="0.0"
     inkscape:pagecheckerboard="0"
     inkscape:deskcolor="#d1d1d1"
     inkscape:document-units="px"
     inkscape:zoom="1.4699074"
     inkscape:cx="399.00473"
     inkscape:cy="65.650394"
     inkscape:window-width="1920"
     inkscape:window-height="1027"
     inkscape:window-x="-8"
     inkscape:window-y="-8"
     inkscape:window-maximized="1"
     inkscape:current-layer="layer1" />
  <defs
     id="defs1" />
  <g
     inkscape:label="Layer 1"
     inkscape:groupmode="layer"
     id="layer1"
     transform="translate(-31.622426,-54.166037)">
    <text
       xml:space="preserve"
       style="font-size:28.2222px;line-height:1;font-family:'BlockTrain Hand';-inkscape-font-specification:'BlockTrain Hand';text-align:start;writing-mode:lr-tb;direction:ltr;text-anchor:start;display:none;fill:#19919b;fill-opacity:1;stroke:#7c7c7c;stroke-width:0.79375;stroke-dasharray:none;stroke-opacity:1"
       x="136.70659"
       y="88.739998"
       id="text1"><tspan
         sodipodi:role="line"
         id="tspan1"
         style="font-style:normal;font-variant:normal;font-weight:normal;font-stretch:normal;font-size:28.2222px;font-family:'NewEng Hangeul';-inkscape-font-specification:'NewEng Hangeul';text-align:center;text-anchor:middle;fill:#19919b;fill-opacity:1;stroke:#7c7c7c;stroke-width:0.79375;stroke-dasharray:none;stroke-opacity:1"
         x="136.70659"
         y="88.739998"
         dx="0 -2.8001435">Stróŋg̊er</tspan></text>
    <path
       style="font-size:28.2222px;line-height:1;font-family:'NewEng Hangeul';-inkscape-font-specification:'NewEng Hangeul';text-align:center;text-anchor:middle;fill:#19919b;stroke:#7c7c7c;stroke-width:0.79375"
       d="m 32.724856,69.407791 h 1.382888 l -2.088443,1.777998 v 7.845772 l 0.705555,0.874888 h 20.235318 v 7.224883 H 34.813299 l -2.793998,2.370665 0.705555,0.874888 h 18.34443 l 1.890888,-1.608665 v 0.733777 l 0.705555,0.874888 2.82222,-2.370664 V 77.535784 L 55.754172,76.660896 H 35.547076 v -6.970883 l -0.225777,-0.282222 h 18.34443 l 2.82222,-2.342443 -0.733777,-0.874888 H 34.813299 l -2.793998,2.370665 z m 24.490751,0 h 11.853325 l -2.088443,1.777998 v 18.316208 l 0.705555,0.874888 2.82222,-2.370664 V 69.690013 L 70.282486,69.407791 H 78.15648 L 80.9787,67.065348 80.244923,66.19046 H 59.30405 l -2.793998,2.370665 z m 23.255122,-0.846666 v 20.940872 l 0.705555,0.874888 2.82222,-2.370664 V 79.906449 H 95.62605 l -2.088443,1.749777 0.733778,0.846666 7.845775,7.873993 2.82222,-2.370664 -0.73378,-0.874889 -7.253106,-7.224883 h 2.56822 l 1.890886,-1.608665 v 0.733777 l 0.70556,0.874888 2.82222,-2.370665 V 67.065348 L 104.2056,66.19046 H 85.889391 l -1.890887,1.608665 V 67.065348 L 83.264726,66.19046 Z m 3.527775,0.846666 H 101.4116 v 7.253105 H 85.889391 l -1.890887,1.608666 z m 30.423566,-5.729107 c 2.82222,-0.282222 6.9991,-1.608666 8.91821,-2.709331 l 2.59644,-2.17311 -0.53622,-0.64911 c -1.91911,1.100665 -6.09599,2.398887 -8.94644,2.709331 l -2.56822,2.173109 z m -6.66044,12.728212 v 5.24933 c 0,3.753552 0,5.700884 0.84666,6.716883 l 0.73378,0.874888 c 0.93133,1.128888 2.87866,1.128888 6.9991,1.128888 h 5.22111 c 3.75355,0 5.72911,0 6.74511,-0.874888 l 2.794,-2.342442 c 1.12888,-0.959555 1.12888,-2.906887 1.12888,-6.999106 V 74.91112 c 0,-3.753553 0,-5.700885 -0.84666,-6.745106 l -0.73378,-0.846666 C 129.7185,66.19046 127.74294,66.19046 123.65072,66.19046 h -5.24932 c -3.75356,0 -5.70089,0 -6.71689,0.874888 l -2.82222,2.342443 c -1.10066,0.931332 -1.10066,2.906886 -1.10066,6.999105 z m 3.52777,-1.495776 c 0,-2.483554 0,-4.176886 0.254,-5.333996 1.12889,0 2.65289,-0.169333 4.79777,-0.169333 h 5.22111 c 3.58422,0 5.53155,0 6.57577,0.761999 0,1.100666 0.56445,3.019775 0.56445,6.237106 v 5.24933 c 0,2.483553 0,4.176885 -0.254,5.333995 -1.12889,0 -2.68111,0.141111 -4.79778,0.141111 h -5.24932 c -3.556,0 -5.50333,0 -6.57578,-0.733777 0,-1.128888 -0.53622,-3.019775 -0.53622,-6.237106 z m 45.40955,15.465765 2.82222,-2.370664 V 67.065348 l -0.73378,-0.874888 -2.794,2.370665 v 7.986882 l -15.52221,-8.861771 -1.89089,1.608666 v -2.229554 l -0.73377,-0.874888 -2.794,2.370665 v 16.086654 l 0.70555,0.846666 2.82222,-2.342443 V 71.016456 l 15.52221,8.889993 1.89089,-1.608665 v 8.833548 h -14.08288 l -2.82222,2.370665 0.73378,0.874888 z m 6.46291,-20.969094 h 1.27 l -2.08845,1.777998 v 18.316208 l 0.70556,0.874888 h 20.94087 l 2.82222,-2.370664 -0.73378,-0.874889 h -1.35466 l 2.08844,-1.749776 v -7.845772 l -0.73378,-0.874888 h -10.47043 l -2.794,2.370665 0.70555,0.874888 h 9.76489 v 6.970884 l 0.19755,0.253999 H 165.87119 V 69.690013 l -0.22578,-0.282222 h 18.34443 l 2.82222,-2.342443 -0.73378,-0.874888 H 165.2503 l -2.82222,2.370665 z m 12.50246,-14.844879 c -0.62089,0 -1.55222,0.112889 -2.42711,0.846666 l -2.59644,2.17311 c -0.11289,0.08467 -0.22578,0.197555 -0.33867,0.338666 l 0.19756,0.225778 -0.67734,0.564444 c -0.0847,0.254 -0.0847,0.310444 -0.0847,0.592666 0,1.100666 0.47977,1.693332 0.62088,1.834443 l 0.53623,0.649111 c 0.56444,0.64911 1.41111,1.044221 2.42711,1.044221 0.11288,0 0.42333,-0.02822 0.42333,-0.02822 0.56444,0 1.60866,-0.112889 2.42711,-0.790222 l 2.59644,-2.173109 c 0.22578,-0.197556 0.42333,-0.423333 0.59267,-0.705555 l -0.36689,-0.451555 0.64911,-0.536222 c 0.0282,-0.141111 0.0282,-0.254 0.0282,-0.395111 0,-0.310444 -0.0847,-0.592666 -0.16933,-0.874888 -0.11289,-0.282222 -0.16934,-0.338667 -0.93134,-1.241777 -0.42333,-0.508 -1.21355,-1.072444 -2.48355,-1.072444 -0.11289,0 -0.42333,0 -0.42333,0 z m -2.76578,2.878665 c 0.254,-0.02822 0.508,-0.05645 0.70556,-0.05645 0,0 0.31044,0 0.42333,0 1.016,0 1.74978,0.366889 2.20133,0.762 0.16934,0.282222 0.31045,0.733777 0.31045,1.15711 0,0.112889 -0.0282,0.225778 -0.0282,0.366889 l 0.16934,0.225777 c -0.33867,0.08467 -0.64911,0.08467 -0.87489,0.08467 0,0 -0.31045,0 -0.42333,0 -0.84667,0 -1.58045,-0.254 -2.14489,-0.705555 -0.28222,-0.508 -0.36689,-1.072444 -0.36689,-1.495777 0,-0.169333 0,-0.254 0.0282,-0.338666 z m 17.44132,11.966214 h 1.38289 l -2.08844,1.777998 v 18.316208 l 0.70555,0.874888 h 20.94087 l 2.82222,-2.370664 -0.73377,-0.874889 h -20.2071 v -7.224883 h 12.89755 l 2.794,-2.370665 -0.70556,-0.874888 h -13.37732 l -1.60867,1.354666 v -8.325549 l -0.22578,-0.282222 h 18.34443 l 2.82222,-2.342443 -0.73377,-0.874888 H 192.4283 l -2.79399,2.370665 z m 26.58534,-0.846666 v 20.940872 l 0.70556,0.874888 2.82222,-2.370664 v -8.099772 h 11.62754 l -2.08844,1.749777 0.73378,0.846666 7.84577,7.873993 2.82222,-2.370664 -0.73378,-0.874889 -7.2531,-7.224883 h 2.56822 l 1.89088,-1.608665 v 0.733777 l 0.70556,0.874888 2.82222,-2.370665 V 67.065348 l -0.73378,-0.874888 h -18.31621 l -1.89088,1.608665 V 67.065348 L 219.7192,66.19046 Z m 3.52778,0.846666 h 17.41309 v 7.253105 h -15.52221 l -1.89088,1.608666 z"
       id="text2"
       aria-label="Stróŋg̊er" />
  </g>
</svg>
