<?xml version="1.0" encoding="UTF-8" standalone="no"?>
<!-- Created with Inkscape (http://www.inkscape.org/) -->

<svg
   width="545.18604"
   height="88.33326"
   viewBox="0 0 144.24714 23.371509"
   version="1.1"
   id="svg1"
   inkscape:version="1.4 (86a8ad7, 2024-10-11)"
   sodipodi:docname="Word Leaf Tech Aether Circle.svg"
   xmlns:inkscape="http://www.inkscape.org/namespaces/inkscape"
   xmlns:sodipodi="http://sodipodi.sourceforge.net/DTD/sodipodi-0.dtd"
   xmlns="http://www.w3.org/2000/svg"
   xmlns:svg="http://www.w3.org/2000/svg">
  <sodipodi:namedview
     id="namedview1"
     pagecolor="#ffffff"
     bordercolor="#000000"
     borderopacity="0.25"
     inkscape:showpageshadow="2"
     inkscape:pageopacity="0.0"
     inkscape:pagecheckerboard="0"
     inkscape:deskcolor="#d1d1d1"
     inkscape:document-units="px"
     inkscape:zoom="2.078763"
     inkscape:cx="280.21473"
     inkscape:cy="41.611286"
     inkscape:window-width="1920"
     inkscape:window-height="1027"
     inkscape:window-x="-8"
     inkscape:window-y="-8"
     inkscape:window-maximized="1"
     inkscape:current-layer="layer1" />
  <defs
     id="defs1" />
  <g
     inkscape:label="Layer 1"
     inkscape:groupmode="layer"
     id="layer1"
     transform="translate(-64.583023,-65.765363)">
    <text
       xml:space="preserve"
       style="font-size:28.2222px;line-height:1;font-family:'BlockTrain Hand';-inkscape-font-specification:'BlockTrain Hand';text-align:start;letter-spacing:0px;writing-mode:lr-tb;direction:ltr;text-anchor:start;display:none;fill:#17a23e;fill-opacity:0.854902;stroke:#4d804f;stroke-width:0.79375;stroke-dasharray:none;stroke-opacity:1"
       x="136.70659"
       y="88.739998"
       id="text1"><tspan
         sodipodi:role="line"
         id="tspan1"
         style="font-style:normal;font-variant:normal;font-weight:normal;font-stretch:normal;font-size:28.2222px;font-family:'Leaf Tech';-inkscape-font-specification:'Leaf Tech';text-align:center;letter-spacing:0px;text-anchor:middle;fill:#17a23e;fill-opacity:0.854902;stroke:#4d804f;stroke-width:0.79375;stroke-dasharray:none;stroke-opacity:1"
         x="0"
         y="0">Aether Circle</tspan></text>
    <path
       style="font-size:28.2222px;line-height:1;font-family:'Leaf Tech';-inkscape-font-specification:'Leaf Tech';text-align:center;letter-spacing:0px;text-anchor:middle;fill:#17a23e;fill-opacity:0.854902;stroke:#4d804f;stroke-width:0.79375"
       d="m 70.934783,67.460459 h 4.684885 v 4.684885 1.326443 c 0,1.862666 -1.495777,3.33022 -3.358442,3.33022 h -2.652887 c -1.326443,0 -2.511776,0.592666 -3.358442,1.467555 V 77.47934 72.145344 c 0,-2.596442 2.088443,-4.684885 4.684886,-4.684885 z m 0,-1.269999 c -3.273776,0 -5.954885,2.652887 -5.954885,5.954884 v 5.333996 3.97933 6.660439 c 0,0.366889 0.282222,0.620889 0.620889,0.620889 0.366888,0 0.64911,-0.254 0.64911,-0.620889 V 81.45867 c 0,-1.862665 1.495777,-3.358442 3.358442,-3.358442 h 2.652887 c 1.326443,0 2.511776,-0.564444 3.358442,-1.439332 v 0.818444 7.986883 c 0,1.128888 -0.874888,2.003776 -2.003776,2.003776 -0.366889,0 -0.649111,0.310444 -0.649111,0.64911 0,0.366889 0.282222,0.620889 0.649111,0.620889 1.80622,0 3.301997,-1.467555 3.301997,-3.273775 V 77.47934 73.471787 72.145344 66.19046 Z m 7.676432,10.639769 v 5.89844 c 0,3.301998 2.709332,6.011329 6.011329,6.011329 h 5.277552 c 0.366888,0 0.64911,-0.282222 0.64911,-0.649111 0,-0.338666 -0.282222,-0.64911 -0.64911,-0.64911 h -5.277552 c -2.370665,0 -4.317997,-1.721555 -4.656663,-4.007553 0.705555,0.649111 1.580443,1.128888 2.850442,1.128888 h 7.732883 v -1.777998 c 0,-3.301998 -2.681109,-5.954885 -5.983106,-5.954885 z m 1.298222,1.269999 H 84.5661 c 2.596442,0 4.684885,2.088443 4.684885,4.684886 v 0.479777 h -6.434662 c -1.636887,0 -2.906886,-1.298221 -2.906886,-2.906887 z m 12.982206,-6.632217 c -0.366888,0 -0.64911,0.282222 -0.64911,0.649111 v 10.611547 c 0,3.301998 2.709331,6.011329 6.011328,6.011329 0.366889,0 0.649111,-0.282222 0.649111,-0.649111 0,-0.338666 -0.282222,-0.64911 -0.649111,-0.64911 -2.624664,0 -4.713107,-2.088443 -4.713107,-4.713108 v -4.656663 h 4.656663 c 0.366888,0 0.64911,-0.282222 0.64911,-0.64911 0,-0.338667 -0.282222,-0.620889 -0.64911,-0.620889 h -4.656663 v -4.684885 c 0,-0.366889 -0.310444,-0.649111 -0.649111,-0.649111 z m 3.471327,-4.684885 c 0,0.169333 0.05644,0.310444 0.169333,0.423333 1.157111,1.298221 1.862666,3.019775 1.862666,4.910663 v 10.611547 c 0,3.301998 2.709331,6.011329 6.011331,6.011329 0.36689,0 0.64911,-0.282222 0.64911,-0.649111 0,-0.338666 -0.28222,-0.64911 -0.64911,-0.64911 -2.59645,0 -4.71311,-2.088443 -4.71311,-4.713108 v -4.656663 h 4.65666 c 2.62467,0 4.71311,2.116665 4.71311,4.713108 v 5.305773 c 0,0.366889 0.28222,0.649111 0.64911,0.649111 0.33867,0 0.64911,-0.282222 0.64911,-0.649111 v -5.305773 c 0,-3.301998 -2.70933,-5.983107 -6.01133,-5.983107 h -4.65666 v -4.684885 c 0,-2.229554 -0.846666,-4.23333 -2.201332,-5.785551 -0.112889,-0.112889 -0.282222,-0.169333 -0.479777,-0.169333 -0.366889,0 -0.649111,0.253999 -0.649111,0.620888 z m 15.69154,10.047103 v 5.89844 c 0,3.301998 2.70933,6.011329 6.01132,6.011329 h 5.27756 c 0.36688,0 0.64911,-0.282222 0.64911,-0.649111 0,-0.338666 -0.28223,-0.64911 -0.64911,-0.64911 h -5.27756 c -2.37066,0 -4.31799,-1.721555 -4.65666,-4.007553 0.70556,0.649111 1.58045,1.128888 2.85044,1.128888 h 7.73289 v -1.777998 c 0,-3.301998 -2.68111,-5.954885 -5.98311,-5.954885 z m 1.29822,1.269999 h 4.65666 c 2.59644,0 4.68489,2.088443 4.68489,4.684886 v 0.479777 h -6.43467 c -1.63688,0 -2.90688,-1.298221 -2.90688,-2.906887 z m 13.77242,-2.681109 h 0.67734 c 0.39511,0 0.67733,0.310444 0.67733,0.677333 v 0.733777 h -0.67733 c -0.39512,0 -0.67734,-0.338666 -0.67734,-0.733777 z m -1.29822,-1.269999 v 1.947332 c 0,1.100666 0.90311,1.975554 1.97556,1.975554 h 0.67733 v 4.684885 c 0,2.596443 -2.08844,4.684886 -4.68489,4.684886 -0.33866,0 -0.64911,0.310444 -0.64911,0.64911 0,0.366889 0.31045,0.649111 0.64911,0.649111 3.302,0 5.98311,-2.681109 5.98311,-5.983107 v -4.684885 h 1.12889 c 1.60866,0 2.90688,1.298221 2.90688,2.906887 V 85.438 c 0,1.806221 1.49578,3.301998 3.302,3.301998 0.36689,0 0.64911,-0.282222 0.64911,-0.649111 0,-0.338666 -0.28222,-0.64911 -0.64911,-0.64911 -1.12889,0 -2.00377,-0.874889 -2.00377,-2.003777 v -4.459107 c 0,-2.285998 -1.89089,-4.148664 -4.20511,-4.148664 h -1.12889 v -0.733777 c 0,-1.072444 -0.90311,-1.947332 -1.97555,-1.947332 z m 22.09794,-7.95866 v 16.594654 c 0,3.301997 2.68111,5.954884 5.9831,5.954884 h 5.334 c 0.33867,0 0.64911,-0.254 0.64911,-0.620889 0,-0.338666 -0.31044,-0.64911 -0.64911,-0.64911 h -5.334 c -2.59644,0 -4.68488,-2.088443 -4.68488,-4.684885 V 67.460459 h 4.68488 c 2.59645,0 4.68489,2.088443 4.68489,4.684885 0,0.338666 0.28222,0.649111 0.64911,0.649111 0.33867,0 0.64911,-0.310445 0.64911,-0.649111 0,-3.301997 -2.68111,-5.954884 -5.98311,-5.954884 z m 20.34817,9.228659 h 0.67734 c 0.36688,0 0.67733,0.310444 0.67733,0.677333 v 0.705555 h -0.67733 c -0.39512,0 -0.67734,-0.310444 -0.67734,-0.705555 z m -5.9831,-3.019775 c -0.70556,0 -1.27,0.592666 -1.27,1.269999 v 1.269999 h 1.27 c 0.67733,0 1.24177,-0.592666 1.24177,-1.269999 v -1.269999 z m -0.64911,5.051774 v 0.620888 4.684885 2.681109 c 0,1.806221 1.49577,3.301998 3.30199,3.301998 3.302,0 5.98311,-2.681109 5.98311,-5.983107 v -4.684885 h 1.12889 c 1.60866,0 2.90688,1.298221 2.90688,2.906887 V 85.438 c 0,1.806221 1.46756,3.301998 3.302,3.301998 0.33867,0 0.64911,-0.282222 0.64911,-0.649111 0,-0.338666 -0.31044,-0.64911 -0.64911,-0.64911 -1.12889,0 -2.00377,-0.874889 -2.00377,-2.003777 v -4.459107 c 0,-2.314221 -1.89089,-4.176886 -4.20511,-4.176886 h -1.12889 v -0.705555 c 0,-1.072444 -0.90311,-1.975554 -1.97555,-1.975554 h -1.97556 v 1.975554 c 0,1.100666 0.87489,1.975554 1.97556,1.975554 h 0.67733 v 4.684885 c 0,2.596443 -2.08844,4.684886 -4.68489,4.684886 -1.12888,0 -2.032,-0.874889 -2.032,-2.003777 v -2.681109 -4.684885 -0.620888 c 0,-0.423333 -0.31044,-0.649111 -0.64911,-0.649111 -0.31044,0 -0.62088,0.225778 -0.62088,0.649111 z m 16.98977,-0.649111 v 5.926662 c 0,3.301998 2.70933,6.011329 6.01133,6.011329 h 5.30577 c 0.33867,0 0.62089,-0.282222 0.62089,-0.649111 0,-0.338666 -0.28222,-0.64911 -0.62089,-0.64911 h -5.30577 c -2.62466,0 -4.71311,-2.088443 -4.71311,-4.713108 v -4.656663 h 6.01133 c 1.86267,0 3.35844,1.495777 3.35844,3.358442 0,0.366889 0.28223,0.649111 0.64911,0.649111 0.33867,0 0.62089,-0.282222 0.62089,-0.649111 0,-2.539998 -2.08844,-4.628441 -4.62844,-4.628441 z m 12.22023,-9.990659 c 0,0.169333 0.0564,0.310444 0.16934,0.423333 1.15711,1.298221 1.86266,3.019776 1.86266,4.882441 v 5.333996 5.333996 c 0,1.834443 0.56444,3.527775 1.55222,4.910662 0.19756,0.310445 0.39511,0.564444 0.64911,0.818444 0.11289,0.141111 0.28222,0.225778 0.47978,0.225778 0.36689,0 0.64911,-0.282222 0.64911,-0.649111 0,-0.169333 -0.0564,-0.310444 -0.16933,-0.423333 -1.15711,-1.298221 -1.86267,-3.019775 -1.86267,-4.88244 v -5.333996 -5.333996 c 0,-2.201332 -0.84666,-4.205108 -2.20133,-5.729107 -0.14111,-0.141111 -0.31044,-0.225777 -0.47978,-0.225777 -0.36689,0 -0.64911,0.282222 -0.64911,0.64911 z m 5.64446,10.018881 v 5.89844 c 0,3.301998 2.70934,6.011329 6.01133,6.011329 h 5.27755 c 0.36689,0 0.64912,-0.282222 0.64912,-0.649111 0,-0.338666 -0.28223,-0.64911 -0.64912,-0.64911 h -5.27755 c -2.37066,0 -4.31799,-1.721555 -4.65666,-4.007553 0.70556,0.649111 1.58044,1.128888 2.85044,1.128888 h 7.73289 v -1.777998 c 0,-3.301998 -2.68111,-5.954885 -5.98311,-5.954885 z m 1.29823,1.269999 h 4.65666 c 2.59644,0 4.68488,2.088443 4.68488,4.684886 v 0.479777 h -6.43466 c -1.63689,0 -2.90688,-1.298221 -2.90688,-2.906887 z"
       id="text2"
       aria-label="Aether Circle" />
  </g>
</svg>
