<?xml version="1.0" encoding="UTF-8" standalone="no"?>
<!-- Created with Inkscape (http://www.inkscape.org/) -->

<svg
   width="1442.9999"
   height="135.25418"
   viewBox="0 0 381.79373 35.786001"
   version="1.1"
   id="svg1"
   inkscape:version="1.4 (86a8ad7, 2024-10-11)"
   sodipodi:docname="Word Hangeulic Chunky Mechanic Techno.svg"
   xmlns:inkscape="http://www.inkscape.org/namespaces/inkscape"
   xmlns:sodipodi="http://sodipodi.sourceforge.net/DTD/sodipodi-0.dtd"
   xmlns="http://www.w3.org/2000/svg"
   xmlns:svg="http://www.w3.org/2000/svg">
  <sodipodi:namedview
     id="namedview1"
     pagecolor="#ffffff"
     bordercolor="#000000"
     borderopacity="0.25"
     inkscape:showpageshadow="2"
     inkscape:pageopacity="0.0"
     inkscape:pagecheckerboard="0"
     inkscape:deskcolor="#d1d1d1"
     inkscape:document-units="px"
     inkscape:zoom="0.7349537"
     inkscape:cx="770.79685"
     inkscape:cy="112.25197"
     inkscape:window-width="1920"
     inkscape:window-height="1027"
     inkscape:window-x="-8"
     inkscape:window-y="-8"
     inkscape:window-maximized="1"
     inkscape:current-layer="layer1" />
  <defs
     id="defs1" />
  <g
     inkscape:label="Layer 1"
     inkscape:groupmode="layer"
     id="layer1"
     transform="translate(54.190279,-56.507481)">
    <text
       xml:space="preserve"
       style="font-size:28.2222px;line-height:1;font-family:'BlockTrain Hand';-inkscape-font-specification:'BlockTrain Hand';text-align:start;writing-mode:lr-tb;direction:ltr;text-anchor:start;display:none;fill:#19919b;fill-opacity:1;stroke:#7c7c7c;stroke-width:0.79375;stroke-dasharray:none;stroke-opacity:1"
       x="136.70659"
       y="88.739998"
       id="text1"><tspan
         sodipodi:role="line"
         id="tspan1"
         style="font-style:normal;font-variant:normal;font-weight:bold;font-stretch:normal;font-size:28.2222px;font-family:'NewEng Hangeul';-inkscape-font-specification:'NewEng Hangeul';text-align:center;text-anchor:middle;fill:#19919b;fill-opacity:1;stroke:#7c7c7c;stroke-width:0.79375;stroke-dasharray:none;stroke-opacity:1"
         x="0"
         y="0">Meʞánic Téʞnō</tspan></text>
    <path
       style="font-weight:bold;font-size:28.2222px;line-height:1;font-family:'NewEng Hangeul';-inkscape-font-specification:'NewEng Hangeul';text-align:center;text-anchor:middle;fill:#19919b;stroke:#7c7c7c;stroke-width:0.79375"
       d="m -53.793404,69.379568 v 20.940873 l 1.15711,1.41111 5.418663,-4.543774 V 76.181119 l 5.051774,5.079996 5.418662,-4.543775 3.894664,-3.894663 v 17.497764 l 1.15711,1.41111 5.418663,-4.543774 V 66.246904 l -1.185333,-1.41111 -5.39044,4.543774 v 0.423333 l -2.624665,2.201332 -2.878664,2.878664 -7.422439,-7.422438 -1.439332,1.213554 v -2.427109 l -1.185333,-1.41111 z m 31.495997,1.41111 h 0.282222 l -1.439333,1.213555 v 18.316208 l 1.157111,1.41111 H -1.3565347 L 4.0621278,87.187777 2.8767954,85.776667 H -16.878745 V 81.261115 H -6.5776418 L -1.1872015,76.71734 -2.3443117,75.30623 H -15.721635 l -1.15711,0.987777 V 70.790678 H -1.3565347 L 4.0621278,66.246904 2.8767954,64.835794 H -18.064077 l -5.390441,4.543774 z m 38.579768,16.989765 6.547551,-6.519328 h 3.555997 l 1.439332,-1.213555 v 10.272881 l 1.157111,1.41111 5.418662,-4.543774 V 66.246904 l -1.185332,-1.41111 -5.390441,4.543774 v 5.926662 h -9.849548 l -4.515552,-9.059326 -1.185332,-1.41111 -5.3904403,4.543774 5.2211073,10.470437 1.185332,1.41111 h 4.910663 l -1.072444,0.620888 -7.8739935,7.845772 0.9313325,1.580443 z m 29.43578,-25.230647 c 2.82222,-0.282222 6.999106,-1.608666 8.918215,-2.709331 l 2.596443,-2.17311 -0.536222,-0.64911 c -1.91911,1.100665 -6.095995,2.398887 -8.918215,2.709331 l -2.596443,2.173109 z m -1.91911,24.637981 v -5.926662 h 12.925768 l 1.439332,-1.213555 v 10.272881 l 1.157111,1.41111 5.418662,-4.543774 V 66.246904 l -1.185332,-1.41111 H 45.238364 l -1.552221,1.298221 -1.072444,-1.298221 -5.39044,4.543774 v 20.940873 l 1.15711,1.41111 z m 0,-16.397099 h 14.3651 V 75.30623 H 45.238364 l -1.439333,1.213555 z m 23.76311,-1.41111 v 20.940873 l 1.15711,1.41111 5.418663,-4.543774 V 76.181119 l 12.925768,12.925767 1.439332,-1.213554 v 2.427109 l 1.15711,1.41111 5.418663,-4.543774 V 66.246904 l -1.185333,-1.41111 -5.39044,4.543774 V 80.386227 L 75.577246,67.460459 74.137914,68.674013 v -2.427109 l -1.185333,-1.41111 z m 31.495993,1.41111 h 10.555106 l -1.29822,1.072444 v 13.913545 h -5.02356 l -5.390436,4.543774 1.15711,1.41111 h 20.940876 l 5.41866,-4.543774 -1.18533,-1.41111 h -10.75266 l 1.43933,-1.213555 V 70.790678 h 5.08 l 5.41866,-4.543774 -1.18533,-1.41111 h -20.94088 l -5.390436,4.543774 z m 30.338896,0 h 0.28222 l -1.43933,1.213555 v 18.316208 l 1.15711,1.41111 h 20.94087 l 5.41867,-4.543774 -1.18534,-1.41111 H 134.81569 V 70.790678 h 15.52221 l 5.41867,-4.543774 -1.18534,-1.41111 h -20.94087 l -5.39044,4.543774 z m 50.09444,0 h 10.75266 l -1.43934,1.213555 v 18.316208 l 1.15711,1.41111 5.41867,-4.543774 V 70.790678 h 5.05177 l 5.41866,-4.543774 -1.18533,-1.41111 H 183.7248 l -5.39044,4.543774 z m 37.67665,-8.240882 c 2.82222,-0.282222 6.99911,-1.608666 8.91822,-2.709331 l 2.59644,-2.17311 -0.53622,-0.64911 c -1.91911,1.100665 -6.096,2.398887 -8.91822,2.709331 l -2.59644,2.173109 z m -7.33777,8.240882 h 0.28222 l -1.43933,1.213555 v 18.316208 l 1.15711,1.41111 h 20.94087 l 5.41867,-4.543774 -1.18534,-1.41111 h -19.75554 v -4.515552 h 10.30111 l 5.39044,-4.543775 -1.15711,-1.41111 h -13.37733 l -1.15711,0.987777 v -5.503329 h 15.52221 l 5.41867,-4.543774 -1.18534,-1.41111 h -20.94087 l -5.39044,4.543774 z m 38.57978,16.989765 6.54755,-6.519328 h 3.556 l 1.43933,-1.213555 v 10.272881 l 1.15711,1.41111 5.41866,-4.543774 V 66.246904 l -1.18533,-1.41111 -5.39044,4.543774 v 5.926662 h -9.84955 l -4.51555,-9.059326 -1.18533,-1.41111 -5.39044,4.543774 5.22111,10.470437 1.18533,1.41111 h 4.91066 l -1.07244,0.620888 -7.874,7.845772 0.93134,1.580443 z m 20.94088,-18.400875 v 20.940873 l 1.15711,1.41111 5.41866,-4.543774 V 76.181119 l 12.92577,12.925767 1.43933,-1.213554 v 2.427109 l 1.15711,1.41111 5.41866,-4.543774 V 66.246904 l -1.18533,-1.41111 -5.39044,4.543774 v 11.006659 l -12.92577,-12.925768 -1.43933,1.213554 v -2.427109 l -1.18533,-1.41111 z m 35.13667,-6.773328 h 15.69154 l 2.59644,-2.201331 -0.53622,-0.649111 h -15.71976 l -2.59645,2.201332 z m -4.79778,14.6191 v 5.249329 c 0,3.753553 0,5.700885 0.84667,6.716884 l 1.18533,1.41111 c 0.93133,1.128888 2.87867,1.128888 6.99911,1.128888 h 5.2211 c 3.75356,0 5.72911,0 6.74511,-0.874888 l 5.39044,-4.515552 c 1.12889,-0.959555 1.12889,-2.906887 1.12889,-6.999106 v -5.249329 c 0,-3.753553 0,-5.700885 -0.84667,-6.745106 l -1.18533,-1.382888 c -0.93133,-1.128888 -2.90689,-1.128888 -6.99911,-1.128888 h -5.24932 c -3.75356,0 -5.70089,0 -6.71689,0.874888 l -5.41866,4.515552 c -1.10067,0.931333 -1.10067,2.906887 -1.10067,6.999106 z m 6.57578,-3.132664 c 0,-1.298221 0,-2.398887 0.0282,-3.301998 0.70555,0 1.524,0 2.42711,0 h 5.2211 c 3.24556,0 5.16467,0 6.29355,0.536222 0,1.15711 0.39512,2.991553 0.39512,5.89844 v 5.249329 c 0,1.298222 0,2.398887 -0.0565,3.301998 -0.70555,0 -1.49578,0 -2.39889,0 h -5.24932 c -3.24556,0 -5.16467,0 -6.26533,-0.564444 0,-1.128888 -0.39511,-2.963331 -0.39511,-5.870218 z"
       id="text2"
       aria-label="Meʞánic Téʞnō" />
  </g>
</svg>
