<?xml version="1.0" encoding="UTF-8" standalone="no"?>
<!-- Created with Inkscape (http://www.inkscape.org/) -->

<svg
   width="814.94592"
   height="87.053268"
   viewBox="0 0 215.62111 23.032844"
   version="1.1"
   id="svg1"
   inkscape:version="1.4 (86a8ad7, 2024-10-11)"
   sodipodi:docname="Word DotsNLines Month Kitchen.svg"
   xmlns:inkscape="http://www.inkscape.org/namespaces/inkscape"
   xmlns:sodipodi="http://sodipodi.sourceforge.net/DTD/sodipodi-0.dtd"
   xmlns="http://www.w3.org/2000/svg"
   xmlns:svg="http://www.w3.org/2000/svg">
  <sodipodi:namedview
     id="namedview1"
     pagecolor="#ffffff"
     bordercolor="#000000"
     borderopacity="0.25"
     inkscape:showpageshadow="2"
     inkscape:pageopacity="0.0"
     inkscape:pagecheckerboard="0"
     inkscape:deskcolor="#d1d1d1"
     inkscape:document-units="px"
     inkscape:zoom="1.0393815"
     inkscape:cx="392.06009"
     inkscape:cy="55.321362"
     inkscape:window-width="1920"
     inkscape:window-height="1027"
     inkscape:window-x="-8"
     inkscape:window-y="-8"
     inkscape:window-maximized="1"
     inkscape:current-layer="layer1" />
  <defs
     id="defs1" />
  <g
     inkscape:label="Layer 1"
     inkscape:groupmode="layer"
     id="layer1"
     transform="translate(-28.924259,-66.837806)">
    <text
       xml:space="preserve"
       style="font-style:normal;font-variant:normal;font-weight:normal;font-stretch:normal;font-size:28.2222px;line-height:1;font-family:'Dots n Lines';-inkscape-font-specification:'Dots n Lines';text-align:start;writing-mode:lr-tb;direction:ltr;text-anchor:start;display:none;fill:#19919b;fill-opacity:1;stroke:#7c7c7c;stroke-width:0.79375;stroke-dasharray:none;stroke-opacity:1"
       x="136.70659"
       y="88.739998"
       id="text1"><tspan
         sodipodi:role="line"
         id="tspan1"
         style="font-style:normal;font-variant:normal;font-weight:normal;font-stretch:normal;font-size:28.2222px;font-family:'Dots n Lines';-inkscape-font-specification:'Dots n Lines';text-align:center;text-anchor:middle;fill:#19919b;fill-opacity:1;stroke:#7c7c7c;stroke-width:0.79375;stroke-dasharray:none;stroke-opacity:1"
         x="0"
         y="0">monþ kiчen</tspan></text>
    <path
       style="font-size:28.2222px;line-height:1;font-family:'Dots n Lines';-inkscape-font-specification:'Dots n Lines';text-align:center;text-anchor:middle;fill:#19919b;stroke:#7c7c7c;stroke-width:0.79375"
       d="m 29.462237,77.564007 v 5.954884 l -0.02822,5.13644 0.451555,0.169333 c 0.05644,0.02822 0.112889,0.02822 0.169333,0.02822 0.366889,0 2.850442,-0.733778 2.878665,-0.733778 1.185332,-0.366888 1.15711,-0.338666 1.213554,-0.846666 0.08467,-0.39511 0.169333,-9.285103 0.169333,-9.397992 v -0.169333 c 0,-0.338667 -0.08467,-4.854219 -0.08467,-4.910663 0,-0.874889 0.02822,-1.185333 0.112889,-1.269999 0.366888,-0.366889 3.132664,-0.366889 3.160886,-0.366889 0.649111,0 1.91911,0.02822 2.56822,0.02822 0.225778,0 1.044222,-0.02822 1.269999,-0.02822 0.733778,-0.02822 0.818444,-0.141111 2.596443,-0.141111 1.580443,0 1.890887,-0.141111 3.330219,-0.282222 0.02822,0 0,-0.05644 0.02822,-0.05644 0.112888,0 0.39511,0.253999 0.39511,0.818443 0,0.225778 -0.02822,0.423333 -0.02822,0.649111 v 0.169333 c 0,0.423333 -0.02822,0.846666 -0.02822,1.269999 v 0.141111 c 0,0.762 0.02822,1.467555 0.02822,2.229554 v 0.225778 c -0.02822,2.201331 -0.225777,10.583325 -0.225777,10.696214 0,2.116665 0.112888,2.116665 0.479777,2.116665 0.05644,0 1.749776,-0.141111 3.781775,-1.298222 0.225777,-0.141111 0.395111,-0.225777 0.395111,-1.15711 V 78.89045 c 0,-0.90311 -0.02822,-1.890888 -0.02822,-2.793998 v -1.41111 c 0,-0.620888 -0.02822,-1.213555 -0.02822,-1.834443 -0.02822,-0.761999 -0.05644,-1.66511 -0.05644,-2.342443 v -0.64911 c 0,-0.874888 -0.08467,-1.128888 -0.169333,-1.41111 l -0.112889,-0.366889 h -1.213555 c -0.987777,0.05645 -1.975554,0.225778 -2.963331,0.310444 -2.229554,0.141111 -12.671768,0.536222 -12.784657,0.536222 -0.225777,0 -0.39511,-0.02822 -0.423333,-0.05644 -0.02822,-0.02822 -0.112888,-0.310444 -0.112888,-0.451555 -0.02822,-0.254 -0.02822,-0.254 -0.366889,-0.254 h -0.02822 c -0.366889,0 -2.398887,0.846666 -3.58422,1.185332 -0.225777,0.05644 -0.90311,0.620889 -0.90311,1.044222 0,0.08467 0.141111,-0.310445 0.141111,7.168439 z m 12.925768,0.112888 h -0.282222 c -0.564444,0 -0.762,0.225778 -1.128888,0.254 -0.112889,0 -1.41111,0.395111 -2.201332,1.636888 -0.310444,0.507999 -0.479777,0.818444 -0.508,1.044221 v 0.112889 c 0,1.298221 1.947332,1.326443 1.975554,1.326443 0.423333,0 1.608666,-0.197555 2.257777,-0.705555 0.987777,-0.733777 1.382887,-1.552221 1.439332,-2.031998 v -0.05644 c 0,-0.254 -0.508,-1.467555 -1.552221,-1.580444 z M 64.119109,67.629792 c 0,0.08467 -0.451555,0.338666 -1.015999,0.564444 -3.245553,1.354666 -5.475107,2.624665 -7.111995,6.80155 -0.508,1.269999 -0.733777,2.652887 -0.790222,4.007553 0,0.254 -0.02822,0.507999 -0.02822,0.761999 0,1.015999 0.08467,2.031999 0.423333,2.935109 2.257776,6.180662 7.81755,6.519328 9.031104,6.519328 0.903111,0 1.806221,-0.112889 2.709332,-0.254 2.088442,-0.310444 5.079996,-2.06022 5.13644,-2.088442 0.818444,-0.564444 1.608666,-1.241777 2.229554,-2.031999 1.834443,-2.31422 1.91911,-6.519328 1.91911,-6.603995 0,-1.41111 -0.395111,-3.330219 -1.044222,-4.402663 -1.382888,-2.455331 -5.39044,-5.531551 -8.127994,-5.531551 h -0.225777 c 0.620888,-0.620889 0.620888,-0.592666 0.620888,-0.677333 v -0.08467 c -0.08467,-0.08467 -0.564444,-0.141111 -1.185332,-0.141111 h -0.254 c -0.987777,0 -2.285998,0.08467 -2.285998,0.225778 z m 2.539998,3.499553 c 0.987777,0.423333 2.906886,1.834443 3.386664,2.455331 2.060221,2.56822 2.173109,4.007553 2.229554,6.208884 v 0.141111 c 0,2.878665 -1.693332,5.616218 -1.721555,5.672663 -0.507999,0.620888 -2.850442,0.64911 -3.019775,0.64911 -3.189109,0 -4.825996,-1.41111 -5.362218,-2.031998 -2.201332,-2.370665 -2.229554,-6.462884 -2.229554,-6.547551 0,-4.120441 2.060221,-6.54755 2.229554,-6.773328 0,0 0.564444,-0.282222 1.495777,-0.282222 1.100665,0 2.539998,0.310444 2.991553,0.508 z m 27.714201,0.225777 c 0,0.620889 0.90311,1.354666 1.693332,1.354666 0.141111,0 0.536222,0.169333 0.959555,0.169333 h 0.282222 c 1.185332,0 1.326443,-0.395111 1.636887,-0.395111 0.225778,0 2.314216,-1.072443 2.370666,-1.80622 v -0.05644 c 0,-0.366888 -0.14111,-1.015999 -0.16933,-1.15711 0,-0.02822 -0.16934,-0.282222 -0.39511,-0.536222 -0.508,-0.620888 -1.072449,-0.818444 -2.060226,-0.846666 h -0.225777 c -1.382888,0 -4.092219,1.693332 -4.092219,3.273775 z M 79.979986,88.570665 c 0.02822,0.02822 0.08467,0.02822 0.197555,0.02822 0.05644,0 2.681109,-0.08467 4.430885,-1.552221 0.112889,-0.08467 0.112889,-0.282222 0.112889,-0.649111 0,-0.254 0.08467,-0.536222 0.112889,-0.790221 0.141111,-2.314221 0.366889,-9.285104 0.366889,-9.369771 v -0.282222 c 0.05644,0 0.225777,0.169333 0.310444,0.310444 0.64911,0.790222 8.240882,9.256882 10.724436,11.571102 l 0.874888,0.790222 c 0.08467,0.08467 0.141111,0.112889 0.282222,0.112889 0.649111,0 2.850447,-1.298221 2.878667,-1.326444 0.62089,-0.366888 1.016,-0.479777 1.016,-0.705555 0,-0.112888 -0.11289,-0.282222 -0.254,-0.423333 -3.160889,-3.273775 -7.055553,-7.478883 -7.111997,-7.535327 -3.07622,-3.245553 -5.136441,-5.841996 -5.192885,-5.89844 -0.02822,-0.05644 -2.342443,-3.104442 -2.991554,-4.007552 -0.253999,-0.338667 -0.507999,-0.620889 -0.620888,-0.649111 -0.02822,0 -0.141111,-0.02822 -0.282222,-0.02822 h -0.169333 c -1.354666,0 -3.838219,1.15711 -4.063997,1.326443 -0.366889,0.254 -0.931333,0.846666 -0.931333,0.987777 0,0.05645 0.112889,0.169333 0.141111,0.254 0.225778,0.790222 0.338667,6.660439 0.395111,9.200437 0,0.790222 0.02822,1.580444 0.02822,2.370665 0,4.430886 -0.253999,5.729107 -0.253999,6.265329 z M 108.51263,67.234681 c -0.508,0 -1.016,0.169333 -1.43933,0.310444 -0.508,0.141111 -0.90311,0.508 -1.29822,0.818444 -0.36689,0.282222 -0.81845,0.564444 -1.04423,0.987777 -0.11289,0.225778 -0.22577,0.479778 -0.22577,0.705555 0,1.015999 1.24177,1.128888 1.63688,1.128888 0.93134,0 3.52778,-0.846666 3.52778,-2.765775 0,-1.072444 -0.79022,-1.185333 -1.15711,-1.185333 z m 3.83822,5.192885 c -3.78178,0 -5.334,0.310444 -6.66044,0.959555 -0.39511,0.225777 -1.10067,0.64911 -1.10067,1.15711 0,0.254 0.19756,0.282222 0.31045,0.282222 0.14111,0 0.36689,-0.05644 0.508,-0.05644 0.0564,0 3.30199,0.112888 5.33399,0.112888 0.93133,0 1.97556,-0.02822 2.90689,-0.02822 h 0.98778 c 0.39511,0 0.84666,0 1.41111,0.05644 1.07244,0.112888 1.69333,0 2.9351,1.15711 1.18534,1.072444 1.46756,2.31422 1.46756,3.33022 0,1.580443 -0.36689,1.693332 -0.73378,1.80622 -0.62089,0.169334 -3.38666,0.197556 -3.41488,0.197556 -2.20134,0 -4.318,-0.169333 -6.51933,-0.169333 -0.56445,0 -2.62467,0.02822 -2.96333,0.112888 -0.16934,0.05644 -0.14111,0.02822 -0.762,0.423333 -1.41111,0.931333 -1.69334,1.862666 -1.69334,1.890888 0,0.141111 0.11289,0.282222 0.22578,0.282222 0,0 0,-0.02822 0.31045,-0.02822 0.0564,0 3.69711,0.112888 4.74133,0.112888 1.38288,0 3.04799,-0.05644 4.12044,-0.05644 0.67733,0 1.35466,0.02822 2.08844,0.02822 0.33867,0 0.70556,0 1.07244,-0.02822 3.75356,-0.169333 3.24556,-0.338666 4.74133,-0.959555 0.36689,-0.141111 1.778,-1.298221 2.14489,-2.031998 0.14111,-0.225778 0.39511,-0.705555 0.56445,-1.015999 0.25399,-0.479778 0.39511,-1.552221 0.39511,-2.455332 0,-1.072444 -0.16934,-1.495777 -0.33867,-1.862665 -0.62089,-1.072444 -1.66511,-1.947332 -2.73755,-2.56822 -0.64911,-0.366889 -1.63689,-0.620889 -2.87867,-0.620889 -0.98778,0 -2.14489,0.02822 -3.21733,0.02822 -0.0282,0 -3.16089,-0.05644 -3.24555,-0.05644 z m -7.45066,15.889099 c 0,0.338666 0.14111,0.620888 0.39511,0.846666 0.31044,0.254 1.46755,0.310444 1.49577,0.310444 0.16934,0 0.36689,-0.02822 0.53623,-0.08467 0.47977,-0.141111 2.59644,-1.608665 2.87866,-2.116665 0.11289,-0.225777 0.22578,-0.479777 0.22578,-0.705555 0,-0.536221 -0.56445,-0.846666 -0.90311,-0.987777 -0.22578,-0.112888 -0.22578,0 -0.45156,-0.08467 l -0.33866,-0.112889 h -0.11289 c -1.27,0 -3.72533,2.031998 -3.72533,2.935109 z m 37.53551,0.790221 c 0.33867,0 4.23334,-0.874888 4.28978,-1.834443 0.0282,-0.64911 0.11289,-2.652886 0.19755,-3.72533 0.0847,-1.41111 0.0564,-1.41111 0.36689,-1.636888 0.11289,-0.08467 4.51556,-2.596442 4.572,-2.624664 1.74978,-1.072444 2.51178,-1.721554 3.69711,-2.624665 1.15711,-0.874888 1.43933,-0.959555 3.35844,-2.681109 0.762,-0.649111 2.25778,-1.693332 2.90689,-2.709331 0.28222,-0.423333 0.53622,-1.552221 0.53622,-2.060221 v -0.169333 c 0,-0.761999 -0.14111,-0.818444 -0.64911,-0.846666 h -0.31045 c -0.33866,0 -0.70555,0 -1.18533,0.141111 -0.508,0.141111 -0.73378,0.451555 -0.90311,0.592666 -0.508,0.423333 -2.68111,2.991553 -3.75355,4.063997 -2.62467,2.539998 -7.95866,6.773328 -8.26911,6.80155 -0.14111,0 -0.36689,-0.08467 -0.36689,-0.479777 0,-1.072444 -0.0282,-1.495777 -0.0564,-2.483554 0,-0.169333 -0.0282,-0.846666 -0.0282,-1.015999 0,-1.326443 0.11289,-2.624665 0.11289,-3.97933 v -1.41111 c 0,-1.354666 -0.0282,-1.693332 -0.19756,-2.060221 -0.14111,-0.254 -0.16933,-0.479777 -0.45155,-0.479777 h -0.0565 c -1.07244,0.08467 -3.52777,1.100666 -3.86644,1.66511 -0.16933,0.310444 -0.19755,2.285998 -0.22578,3.443108 v 0.508 c 0,1.185332 0.0847,2.455331 0.0847,3.640664 v 1.015999 c 0,0.761999 -0.0282,1.439332 -0.0282,2.201331 0,1.354666 0,2.596443 -0.11289,6.434662 0,0.508 -0.0847,1.241777 -0.0847,1.721554 0,0.564444 0.22578,0.592666 0.33867,0.592666 z m 15.77621,-0.197555 h 0.254 c 0.762,0 3.95111,-0.536222 4.09222,-2.483554 v -0.141111 c 0,-1.185332 -1.15711,-2.624664 -2.22955,-2.624664 h -0.16933 c -2.08845,0 -3.33022,1.015999 -4.03578,2.003776 -0.28222,0.451555 -0.31044,0.649111 -0.31044,1.15711 0,1.636888 1.04422,1.947332 2.39888,2.088443 z m 8.12802,0.310444 c 0.64911,0 1.91911,-0.705555 2.25778,-0.818444 0.36689,-0.141111 1.86266,-0.705555 2.42711,-1.015999 0.22577,-0.141111 0.28222,-0.112889 0.28222,-0.423333 0,-0.02822 -0.0565,-1.693332 -0.0565,-2.878664 0,-1.91911 0.11289,-1.495777 0.11289,-2.681109 0,-0.479778 -0.0564,-0.959555 -0.0564,-1.439332 0,-0.141111 0.0847,-7.619995 0.11289,-9.22866 0,0 0.0564,-0.987777 0.0564,-1.495777 v -1.044221 c 0,-0.536222 -0.0564,-0.564444 -0.19755,-0.564444 -0.36689,0 -3.49956,1.269999 -4.318,1.834443 l -0.36689,0.225778 -0.0847,1.326443 c -0.0847,1.241777 -0.16933,13.46199 -0.16933,13.603101 -0.0847,1.072443 -0.0847,1.693332 -0.14111,2.963331 0,0 -0.11289,0.507999 -0.11289,0.931332 0,0.677333 0.16933,0.705555 0.254,0.705555 z m 7.76111,-17.159098 v 0.225778 c 0,0.677333 -0.0282,1.382888 -0.0282,2.060221 v 0.564444 c 0.0282,0.818443 -0.0282,1.693332 0.19756,2.483553 0.22577,0.733778 0.53622,1.439333 1.07244,1.947332 1.74978,1.636888 4.85422,2.596443 6.604,2.963331 0.90311,0.225778 2.85044,0.338667 4.76955,0.338667 0.90311,0 1.74977,-0.02822 2.54,-0.08467 h 0.42333 c 0.64911,0 0.62089,0.08467 0.62089,0.592666 0,0.02822 -0.11289,1.269999 -0.11289,3.386664 0,2.624665 0.14111,2.681109 0.39511,2.709331 0,0 0.62089,0.05644 1.016,0.05644 0.0847,0 0.0847,-0.02822 0.16933,-0.02822 0.508,-0.05644 3.07622,-0.818444 3.21733,-1.185333 0.14111,-0.366888 0.0565,-2.003776 0.11289,-3.019775 0.0564,-1.072444 0.254,-2.088443 0.254,-3.160887 0,-0.225777 -0.0282,-0.39511 -0.0282,-0.620888 -0.0565,-0.649111 0.0282,-1.382888 -0.33867,-1.947332 -0.22578,-0.310444 -0.42333,-0.451555 -0.79022,-0.451555 -0.22578,0 -0.53622,0.05644 -0.90311,0.169333 -0.93133,0.310444 -5.39044,0.366889 -5.44688,0.366889 -2.17311,0 -4.17689,-0.423333 -6.20889,-1.241777 -1.58044,-0.649111 -2.73755,-1.213555 -2.73755,-3.527775 0,-0.366889 0,-0.733777 0.0564,-1.15711 0.0282,-0.536222 0.0282,-1.834443 0.0564,-2.737554 0,-0.310444 0.0282,-0.507999 0.0282,-0.733777 0,-1.382888 -0.33867,-1.862665 -0.39511,-2.031998 -0.0282,-0.141111 -0.42333,-0.254 -0.762,-0.254 -0.22578,0 -2.06022,0.733777 -2.93511,1.354665 -0.93133,0.649111 -0.93133,0.677333 -0.93133,1.016 0,0.02822 0.0847,0.818443 0.0847,1.947331 z m 17.13088,0.395111 c 0.90311,0 2.70933,-0.790221 2.73755,-0.790221 0.14111,0 1.41111,-0.620889 1.63689,-0.790222 0.14111,-0.141111 0.19756,-0.366889 0.19756,-0.620888 0,-0.423333 -0.19756,-0.959555 -0.53623,-1.326444 -0.11288,-0.141111 -0.31044,-0.451555 -0.45155,-0.677333 -0.16933,-0.282222 -0.31045,-0.507999 -1.35467,-0.507999 h -0.16933 c -0.42333,0.05644 -3.78177,0.931332 -3.78177,2.511776 0,0.05644 0.0282,0.05644 0.0282,0.112888 0,1.580444 0.762,2.088443 1.69333,2.088443 z m 19.13463,-4.289774 h -1.46756 -3.97933 -0.53622 c -1.12889,0 -3.01978,0.310444 -3.92289,0.536222 -0.31044,0.08467 -1.32644,1.269999 -1.46755,1.495776 -0.0847,0.112889 -0.14111,1.044222 -0.14111,1.834443 0,0.08467 0.22578,3.443109 0.22578,7.789328 0,4.289774 -0.19756,7.309549 -0.19756,7.394216 0,0.112889 0,1.382888 1.15711,1.382888 0.14111,0 0.22578,-0.02822 0.36689,-0.02822 0,0 0.19755,0.02822 0.33867,0.02822 0.11288,0 5.41866,-0.112889 9.84954,-0.112889 h 2.17311 c 0.56445,0 0.39511,-0.02822 0.70556,-0.02822 0.62089,0 3.80999,0.141111 3.83822,0.141111 0.14111,0 0.36689,-0.338667 0.53622,-0.479778 0.33866,-0.310444 0.79022,-0.564444 1.04422,-0.931332 0.16933,-0.254 0.53622,-0.790222 0.53622,-1.015999 0,-0.05644 0,-0.05644 -0.0564,-0.05644 h -0.0282 l -0.73378,0.02822 -3.49955,-0.141111 c -1.86267,-0.08467 -4.45911,-0.141111 -5.36222,-0.141111 h -2.06022 -0.31045 c -1.07244,0 -1.27,0.08467 -2.17311,0.08467 -0.79022,0 -1.69333,-0.02822 -1.74977,-0.08467 0,-0.02822 -0.0282,-0.282222 -0.0282,-0.64911 0,-2.596443 0.16934,-4.99533 0.16934,-7.591772 0,-2.793998 -0.19756,-3.640664 -0.19756,-4.261552 0,-0.395111 0.0565,-0.225778 0.0565,-0.508 0,-0.508 -0.11289,-1.044221 -0.11289,-1.354666 0,-0.169333 0.0282,-0.253999 0.14111,-0.310444 0.62089,-0.395111 3.35844,-0.254 5.05177,-0.338666 0.79022,-0.02822 2.00378,-0.08467 3.86644,-0.08467 0.79023,0 1.60867,0.08467 2.39889,0.08467 1.83444,0 1.69333,-0.197556 2.06022,-0.197556 0.0847,0 0.0847,0.02822 0.14111,0.02822 0.31045,0 2.17311,-2.060221 2.17311,-2.314221 0,-0.141111 -0.14111,-0.197555 -1.04422,-0.197555 h -1.32644 -0.70556 z m 1.38288,11.03488 c 0,0.254 0.64911,0.987777 1.07245,1.15711 0.33866,0.141111 1.016,0.395111 1.38288,0.395111 0.56445,0 1.04423,-0.423333 1.55223,-0.705555 0.508,-0.282222 1.01599,-0.620888 1.49577,-0.987777 0.39511,-0.338666 1.04422,-0.620888 1.12889,-1.15711 v -0.05644 c 0,-0.762 -1.63689,-1.580444 -2.31422,-1.580444 -1.43933,0 -4.318,2.257776 -4.318,2.935109 z m 25.4564,-7.845772 c 0,0.620889 0.90311,1.354666 1.69333,1.354666 0.14111,0 0.53622,0.169333 0.95956,0.169333 h 0.28222 c 1.18533,0 1.32644,-0.395111 1.63689,-0.395111 0.22578,0 2.31422,-1.072443 2.37066,-1.80622 v -0.05644 c 0,-0.366888 -0.14111,-1.015999 -0.16933,-1.15711 0,-0.02822 -0.16933,-0.282222 -0.39511,-0.536222 -0.508,-0.620888 -1.07245,-0.818444 -2.06022,-0.846666 h -0.22578 c -1.38289,0 -4.09222,1.693332 -4.09222,3.273775 z m -14.39332,17.215543 c 0.0282,0.02822 0.0847,0.02822 0.19755,0.02822 0.0564,0 2.68111,-0.08467 4.43089,-1.552221 0.11289,-0.08467 0.11289,-0.282222 0.11289,-0.649111 0,-0.254 0.0847,-0.536222 0.11289,-0.790221 0.14111,-2.314221 0.36689,-9.285104 0.36689,-9.369771 v -0.282222 c 0.0564,0 0.22577,0.169333 0.31044,0.310444 0.64911,0.790222 8.24088,9.256882 10.72444,11.571102 l 0.87488,0.790222 c 0.0847,0.08467 0.14112,0.112889 0.28223,0.112889 0.64911,0 2.85044,-1.298221 2.87866,-1.326444 0.62089,-0.366888 1.016,-0.479777 1.016,-0.705555 0,-0.112888 -0.11289,-0.282222 -0.254,-0.423333 -3.16089,-3.273775 -7.05555,-7.478883 -7.11199,-7.535327 -3.07622,-3.245553 -5.13644,-5.841996 -5.19289,-5.89844 -0.0282,-0.05644 -2.34244,-3.104442 -2.99155,-4.007552 -0.254,-0.338667 -0.508,-0.620889 -0.62089,-0.649111 -0.0282,0 -0.14111,-0.02822 -0.28222,-0.02822 h -0.16934 c -1.35466,0 -3.83822,1.15711 -4.06399,1.326443 -0.36689,0.254 -0.93134,0.846666 -0.93134,0.987777 0,0.05645 0.11289,0.169333 0.14112,0.254 0.22577,0.790222 0.33866,6.660439 0.39511,9.200437 0,0.790222 0.0282,1.580444 0.0282,2.370665 0,4.430886 -0.254,5.729107 -0.254,6.265329 z"
       id="text2"
       aria-label="monþ kiчen" />
  </g>
</svg>
