<?xml version="1.0" encoding="UTF-8" standalone="no"?>
<!-- Created with Inkscape (http://www.inkscape.org/) -->

<svg
   width="379.85327"
   height="87.053268"
   viewBox="0 0 100.50285 23.032844"
   version="1.1"
   id="svg1"
   inkscape:version="1.4 (86a8ad7, 2024-10-11)"
   sodipodi:docname="Word DotsNLines Aether.svg"
   xmlns:inkscape="http://www.inkscape.org/namespaces/inkscape"
   xmlns:sodipodi="http://sodipodi.sourceforge.net/DTD/sodipodi-0.dtd"
   xmlns="http://www.w3.org/2000/svg"
   xmlns:svg="http://www.w3.org/2000/svg">
  <sodipodi:namedview
     id="namedview1"
     pagecolor="#ffffff"
     bordercolor="#000000"
     borderopacity="0.25"
     inkscape:showpageshadow="2"
     inkscape:pageopacity="0.0"
     inkscape:pagecheckerboard="0"
     inkscape:deskcolor="#d1d1d1"
     inkscape:document-units="px"
     inkscape:zoom="1.4699074"
     inkscape:cx="198.65197"
     inkscape:cy="73.133859"
     inkscape:window-width="1920"
     inkscape:window-height="1027"
     inkscape:window-x="-8"
     inkscape:window-y="-8"
     inkscape:window-maximized="1"
     inkscape:current-layer="layer1" />
  <defs
     id="defs1" />
  <g
     inkscape:label="Layer 1"
     inkscape:groupmode="layer"
     id="layer1"
     transform="translate(-86.469237,-66.837806)">
    <text
       xml:space="preserve"
       style="font-size:28.2222px;line-height:1;font-family:'BlockTrain Hand';-inkscape-font-specification:'BlockTrain Hand';text-align:start;writing-mode:lr-tb;direction:ltr;text-anchor:start;display:none;fill:#19919b;fill-opacity:1;stroke:#7c7c7c;stroke-width:0.79375;stroke-dasharray:none;stroke-opacity:1"
       x="136.70659"
       y="88.739998"
       id="text1"><tspan
         sodipodi:role="line"
         id="tspan1"
         style="font-style:normal;font-variant:normal;font-weight:normal;font-stretch:normal;font-size:28.2222px;font-family:'Dots n Lines';-inkscape-font-specification:'Dots n Lines';text-align:center;text-anchor:middle;fill:#19919b;fill-opacity:1;stroke:#7c7c7c;stroke-width:0.79375;stroke-dasharray:none;stroke-opacity:1"
         x="0"
         y="0">æþer</tspan></text>
    <path
       style="font-size:28.2222px;line-height:1;font-family:'Dots n Lines';-inkscape-font-specification:'Dots n Lines';text-align:center;text-anchor:middle;fill:#19919b;stroke:#7c7c7c;stroke-width:0.79375"
       d="m 87.091958,88.373109 c 0.282222,0 0.677332,-0.310444 0.959554,-0.451555 0.479778,-0.225778 0.874889,-0.451555 1.269999,-0.761999 1.411111,-1.072444 2.963332,-2.370665 3.866442,-3.725331 0.761999,-1.128888 1.072444,-1.66511 1.072444,-1.777998 0,-0.169334 3.527775,-5.587996 3.527775,-5.587996 0.141111,-0.423333 0.987777,-1.523999 1.269999,-2.314221 l 0.112888,-0.310444 0.112889,0.254 c 0.141111,0.338666 0.366889,4.910663 0.366889,7.676439 0,1.80622 0.05644,2.709331 0.310444,5.164662 0.141109,1.467555 0.253999,1.636888 0.733779,1.636888 0.79022,0 0.14111,0.536222 3.78177,0.705555 0.90311,0.05644 1.29822,0.141111 1.80622,0.141111 0.62089,0 0.47978,-0.112889 0.84667,-0.112889 0.16933,0 0.39511,0.05644 0.56444,0.05644 0.79023,0 4.62844,-0.310444 4.93889,-0.451555 0.11289,-0.05644 0.508,-0.112889 0.84667,-0.197555 0.98777,-0.225778 0.95955,-0.254 1.18533,-0.649111 0.36689,-0.64911 0.90311,-0.451555 0.90311,-0.846666 0,0 -0.0847,-0.761999 -0.39511,-0.761999 -0.0282,0 -2.85045,0.310444 -3.38667,0.310444 -1.43933,0 -5.36222,-0.197555 -6.01133,-0.338666 -0.36688,-0.08467 -0.79022,-0.112889 -0.93133,-0.141111 -0.22578,-0.02822 -0.31044,-0.112889 -0.42333,-0.395111 -0.16933,-0.508 -0.47978,-4.684885 -0.56445,-7.30955 -0.14111,-4.374441 -0.33866,-7.196661 -0.33866,-7.281328 v -0.112889 c 0.0847,-0.08467 4.82599,-0.112888 4.88244,-0.112888 1.38289,0 2.87866,0.08467 4.064,0.08467 2.03199,0 2.28599,-0.254 2.76577,-0.761999 0.56445,-0.564444 0.90311,-1.580443 0.90311,-1.580443 l -1.69333,-0.05644 c -6.23711,-0.225777 -4.85422,-0.282222 -7.53533,-0.338666 h -0.0847 -0.67734 c -0.508,0 -0.95955,-0.02822 -1.58044,-0.02822 h -0.0847 c -0.508,0 -0.87489,-0.08467 -1.18533,-0.08467 -0.14111,0 -0.254,0 -0.36689,0.02822 -2.794,0.818444 -3.273773,1.015999 -4.035773,1.806221 -0.423333,0.479777 -1.128888,1.298221 -1.636887,1.975554 -0.254,0.366889 -1.749777,2.906887 -1.749777,2.935109 0,0.02822 -1.015999,1.693332 -1.523998,2.596442 -0.620889,1.185333 -1.41111,2.116665 -2.681109,4.402664 -0.987778,1.721554 -2.314221,3.443108 -3.499553,5.13644 -0.310445,0.395111 -0.762,0.761999 -0.903111,1.269999 -0.02822,0.05644 -0.02822,0.08467 -0.02822,0.141111 0,0.141111 0.197555,0.169333 0.225778,0.169333 z m 26.698202,-11.79688 c -0.16933,0 -0.39511,0.08467 -0.56444,0.141111 -0.28223,0.08467 -0.508,0.254 -0.762,0.395111 -1.80623,0.903111 -2.68111,1.298222 -2.68111,2.681109 0,0.818444 0.36689,0.931333 0.59266,0.931333 0.56445,0 2.62467,-0.536222 3.302,-1.15711 0.90311,-0.790222 0.98778,-0.846666 0.98778,-1.523999 0,-0.818444 -0.47978,-1.467555 -0.87489,-1.467555 z m -16.848654,7.986883 c -0.05645,0 -3.386664,1.834443 -3.386664,2.596443 0,0.141111 0.282222,0.536221 0.282222,0.677332 0,0.141111 0.141111,0.254 0.366888,0.254 0.620889,0 1.467555,-0.395111 2.116665,-0.733777 0.903111,-0.479777 1.354666,-0.705555 1.354666,-1.495777 0,-1.185332 -0.705555,-1.298221 -0.733777,-1.298221 z M 123.32928,67.234681 c -0.508,0 -1.016,0.169333 -1.43933,0.310444 -0.508,0.141111 -0.90312,0.508 -1.29823,0.818444 -0.36688,0.282222 -0.81844,0.564444 -1.04422,0.987777 -0.11289,0.225778 -0.22577,0.479778 -0.22577,0.705555 0,1.015999 1.24177,1.128888 1.63688,1.128888 0.93134,0 3.52778,-0.846666 3.52778,-2.765775 0,-1.072444 -0.79022,-1.185333 -1.15711,-1.185333 z m 3.83822,5.192885 c -3.78178,0 -5.334,0.310444 -6.66044,0.959555 -0.39511,0.225777 -1.10067,0.64911 -1.10067,1.15711 0,0.254 0.19756,0.282222 0.31045,0.282222 0.14111,0 0.36688,-0.05644 0.508,-0.05644 0.0564,0 3.30199,0.112888 5.33399,0.112888 0.93133,0 1.97556,-0.02822 2.90689,-0.02822 h 0.98778 c 0.39511,0 0.84666,0 1.41111,0.05644 1.07244,0.112888 1.69333,0 2.9351,1.15711 1.18534,1.072444 1.46756,2.31422 1.46756,3.33022 0,1.580443 -0.36689,1.693332 -0.73378,1.80622 -0.62089,0.169334 -3.38666,0.197556 -3.41489,0.197556 -2.20133,0 -4.31799,-0.169333 -6.51932,-0.169333 -0.56445,0 -2.62467,0.02822 -2.96333,0.112888 -0.16934,0.05644 -0.14112,0.02822 -0.762,0.423333 -1.41111,0.931333 -1.69334,1.862666 -1.69334,1.890888 0,0.141111 0.11289,0.282222 0.22578,0.282222 0,0 0,-0.02822 0.31045,-0.02822 0.0564,0 3.6971,0.112888 4.74133,0.112888 1.38288,0 3.04799,-0.05644 4.12044,-0.05644 0.67733,0 1.35466,0.02822 2.08844,0.02822 0.33867,0 0.70555,0 1.07244,-0.02822 3.75356,-0.169333 3.24556,-0.338666 4.74133,-0.959555 0.36689,-0.141111 1.778,-1.298221 2.14489,-2.031998 0.14111,-0.225778 0.39511,-0.705555 0.56444,-1.015999 0.254,-0.479778 0.39511,-1.552221 0.39511,-2.455332 0,-1.072444 -0.16933,-1.495777 -0.33866,-1.862665 -0.62089,-1.072444 -1.66511,-1.947332 -2.73755,-2.56822 -0.64912,-0.366889 -1.63689,-0.620889 -2.87867,-0.620889 -0.98778,0 -2.14489,0.02822 -3.21733,0.02822 -0.0282,0 -3.16089,-0.05644 -3.24555,-0.05644 z m -7.45066,15.889099 c 0,0.338666 0.14111,0.620888 0.39511,0.846666 0.31044,0.254 1.46755,0.310444 1.49577,0.310444 0.16934,0 0.36689,-0.02822 0.53623,-0.08467 0.47977,-0.141111 2.59644,-1.608665 2.87866,-2.116665 0.11289,-0.225777 0.22578,-0.479777 0.22578,-0.705555 0,-0.536221 -0.56445,-0.846666 -0.90311,-0.987777 -0.22578,-0.112888 -0.22578,0 -0.45156,-0.08467 l -0.33866,-0.112889 h -0.11289 c -1.27,0 -3.72533,2.031998 -3.72533,2.935109 z M 154.1197,68.166014 h -1.46756 -3.97933 -0.53622 c -1.12889,0 -3.01977,0.310444 -3.92288,0.536222 -0.31045,0.08467 -1.32645,1.269999 -1.46756,1.495776 -0.0847,0.112889 -0.14111,1.044222 -0.14111,1.834443 0,0.08467 0.22578,3.443109 0.22578,7.789328 0,4.289774 -0.19756,7.309549 -0.19756,7.394216 0,0.112889 0,1.382888 1.15711,1.382888 0.14111,0 0.22578,-0.02822 0.36689,-0.02822 0,0 0.19756,0.02822 0.33867,0.02822 0.11289,0 5.41866,-0.112889 9.84955,-0.112889 h 2.17311 c 0.56444,0 0.39511,-0.02822 0.70555,-0.02822 0.62089,0 3.81,0.141111 3.83822,0.141111 0.14111,0 0.36689,-0.338667 0.53622,-0.479778 0.33867,-0.310444 0.79022,-0.564444 1.04422,-0.931332 0.16934,-0.254 0.53623,-0.790222 0.53623,-1.015999 0,-0.05644 0,-0.05644 -0.0565,-0.05644 h -0.0282 l -0.73378,0.02822 -3.49955,-0.141111 c -1.86267,-0.08467 -4.45911,-0.141111 -5.36222,-0.141111 h -2.06022 -0.31044 c -1.07245,0 -1.27,0.08467 -2.17311,0.08467 -0.79023,0 -1.69334,-0.02822 -1.74978,-0.08467 0,-0.02822 -0.0282,-0.282222 -0.0282,-0.64911 0,-2.596443 0.16933,-4.99533 0.16933,-7.591772 0,-2.793998 -0.19755,-3.640664 -0.19755,-4.261552 0,-0.395111 0.0564,-0.225778 0.0564,-0.508 0,-0.508 -0.11289,-1.044221 -0.11289,-1.354666 0,-0.169333 0.0282,-0.253999 0.14111,-0.310444 0.62089,-0.395111 3.35844,-0.254 5.05178,-0.338666 0.79022,-0.02822 2.00377,-0.08467 3.86644,-0.08467 0.79022,0 1.60866,0.08467 2.39888,0.08467 1.83445,0 1.69334,-0.197556 2.06022,-0.197556 0.0847,0 0.0847,0.02822 0.14112,0.02822 0.31044,0 2.17311,-2.060221 2.17311,-2.314221 0,-0.141111 -0.14112,-0.197555 -1.04423,-0.197555 h -1.32644 -0.70555 z m 1.38289,11.03488 c 0,0.254 0.64911,0.987777 1.07244,1.15711 0.33867,0.141111 1.016,0.395111 1.38289,0.395111 0.56444,0 1.04422,-0.423333 1.55222,-0.705555 0.508,-0.282222 1.016,-0.620888 1.49578,-0.987777 0.39511,-0.338666 1.04422,-0.620888 1.12888,-1.15711 v -0.05644 c 0,-0.762 -1.63688,-1.580444 -2.31422,-1.580444 -1.43933,0 -4.31799,2.257776 -4.31799,2.935109 z M 167.751,71.665567 c 0.31045,0 0.56445,-0.197556 0.98778,-0.366889 1.66511,-0.620888 5.39044,-0.818444 6.68866,-0.818444 1.778,0 4.37444,0.282222 5.55977,1.467555 1.18534,1.185332 1.35467,3.076219 1.35467,4.007552 0,1.495777 -0.508,2.229554 -2.42711,2.737554 -2.96333,0.790221 -3.33022,0.874888 -6.37822,1.128888 -4.23333,0.310444 -3.89466,0.282222 -4.93888,0.790221 -1.66511,0.818444 -2.11667,1.015999 -2.20133,1.41111 -0.0282,0.08467 -0.0282,0.310444 -0.0282,0.592666 0,2.370665 0.14112,3.697109 0.14112,5.221107 v 0.225778 l -0.0282,0.761999 0.42334,0.141111 c 0.36688,0.141111 0.53622,0.338667 0.81844,0.338667 h 0.0564 c 0.508,0 0.95956,-0.310444 1.43934,-0.479778 1.80622,-0.761999 1.83444,-1.072443 1.83444,-1.693332 0,-0.02822 0,-0.02822 0,-0.05644 v -0.90311 c -0.0847,-2.060221 -0.31044,-2.850443 -0.31044,-3.414887 0,-0.310444 0.0847,-0.253999 0.19755,-0.310444 0.62089,-0.225777 1.27,-0.05644 3.302,-0.451555 0.62089,-0.141111 1.524,-0.282222 1.94733,-0.366889 1.18533,-0.225777 1.10067,-0.338666 2.39889,-0.64911 1.55222,-0.338667 4.37444,-1.41111 5.24933,-2.031999 2.22955,-1.495776 2.59644,-2.483553 2.59644,-4.007552 0,-1.777999 -0.22578,-2.455332 -0.28222,-2.596443 -0.762,-1.862665 -2.11667,-2.681109 -3.89467,-3.584219 -0.762,-0.310444 -2.79399,-0.846666 -4.31799,-0.846666 -3.24556,0 -6.77333,0.649111 -7.93044,1.015999 -2.59644,0.874888 -3.75355,1.749777 -3.75355,2.003776 0,0.08467 0.98777,0.733778 1.49577,0.733778 z m 12.55888,14.1111 c -0.64911,0.564444 -0.73378,0.705555 -0.73378,1.044221 0,0.508 0.39512,0.762 0.56445,1.128888 0.14111,0.338667 1.89089,1.015999 2.39889,1.015999 0.42333,0 1.86266,-0.338666 2.11666,-0.479777 0.87489,-0.423333 1.91911,-1.552221 1.91911,-1.947332 0,-0.254 -0.64911,-1.213554 -1.15711,-1.636887 -0.508,-0.423333 -1.32644,-0.677333 -1.69333,-0.677333 h -0.0282 c -1.74978,0.141111 -3.35845,1.523999 -3.38667,1.552221 z"
       id="text2"
       aria-label="æþer" />
  </g>
</svg>
