<?xml version="1.0" encoding="UTF-8" standalone="no"?>
<!-- Created with Inkscape (http://www.inkscape.org/) -->

<svg
   width="897.0799"
   height="157.77321"
   viewBox="0 0 237.35239 41.744163"
   version="1.1"
   id="svg1"
   inkscape:version="1.4 (86a8ad7, 2024-10-11)"
   sodipodi:docname="Word Hangeulic Regular Photograph Moon.svg"
   xmlns:inkscape="http://www.inkscape.org/namespaces/inkscape"
   xmlns:sodipodi="http://sodipodi.sourceforge.net/DTD/sodipodi-0.dtd"
   xmlns="http://www.w3.org/2000/svg"
   xmlns:svg="http://www.w3.org/2000/svg">
  <sodipodi:namedview
     id="namedview1"
     pagecolor="#ffffff"
     bordercolor="#000000"
     borderopacity="0.25"
     inkscape:showpageshadow="2"
     inkscape:pageopacity="0.0"
     inkscape:pagecheckerboard="0"
     inkscape:deskcolor="#d1d1d1"
     inkscape:document-units="px"
     inkscape:zoom="1.0393815"
     inkscape:cx="451.71095"
     inkscape:cy="132.29021"
     inkscape:window-width="1920"
     inkscape:window-height="1027"
     inkscape:window-x="-8"
     inkscape:window-y="-8"
     inkscape:window-maximized="1"
     inkscape:current-layer="layer1" />
  <defs
     id="defs1" />
  <g
     inkscape:label="Layer 1"
     inkscape:groupmode="layer"
     id="layer1"
     transform="translate(-47.586615,-53.008928)">
    <text
       xml:space="preserve"
       style="font-size:28.2222px;line-height:1;font-family:'BlockTrain Hand';-inkscape-font-specification:'BlockTrain Hand';text-align:start;writing-mode:lr-tb;direction:ltr;text-anchor:start;display:none;fill:#19919b;fill-opacity:1;stroke:#7c7c7c;stroke-width:0.79375;stroke-dasharray:none;stroke-opacity:1"
       x="166.26282"
       y="88.739998"
       id="text1"><tspan
         sodipodi:role="line"
         id="tspan1"
         style="font-style:normal;font-variant:normal;font-weight:800;font-stretch:normal;font-size:28.2222px;font-family:'NewEng Hangeul';-inkscape-font-specification:'NewEng Hangeul Ultra-Bold';text-align:center;text-anchor:middle;fill:#19919b;fill-opacity:1;stroke:#7c7c7c;stroke-width:0.79375;stroke-dasharray:none;stroke-opacity:1"
         x="166.26282"
         y="88.739998">Φṓtogrâφ</tspan></text>
    <path
       style="font-weight:800;font-size:28.2222px;line-height:1;font-family:'NewEng Hangeul';-inkscape-font-specification:'NewEng Hangeul Ultra-Bold';text-align:center;text-anchor:middle;fill:#19919b;stroke:#7c7c7c;stroke-width:0.79375"
       d="m 58.453926,66.754904 v 3.330219 H 53.37393 l -5.39044,4.515552 v 10.470437 l 1.15711,1.41111 h 9.313326 v 6.462884 l 1.15711,1.41111 5.418663,-4.543775 v -3.330219 h 5.051774 L 75.500135,81.96667 V 71.468011 L 74.314803,70.085123 H 65.029699 V 63.62224 l -1.185333,-1.411111 z m 0,9.256881 v 4.543775 h -3.894663 v -4.543775 z m 6.575773,0 h 3.894664 V 80.55556 H 65.029699 Z M 86.986592,58.937354 c 2.82222,-0.282222 6.999105,-1.608665 8.918215,-2.709331 l 2.596442,-2.173109 -0.536221,-0.649111 c -1.91911,1.100666 -6.095996,2.398887 -8.918216,2.709331 l -2.596442,2.17311 z M 83.12015,62.60624 h 15.691544 l 2.596446,-2.201331 -0.53623,-0.649111 H 85.152149 l -2.596443,2.201332 z m -4.797774,14.6191 v 5.249329 c 0,3.753553 0,5.700885 0.846666,6.716884 l 1.185333,1.41111 c 0.931332,1.128888 2.878664,1.128888 6.999105,1.128888 h 5.221107 c 3.753553,0 5.729107,0 6.745106,-0.874888 l 5.390437,-4.515552 c 1.12889,-0.959555 1.12889,-2.906887 1.12889,-6.999106 v -5.249329 c 0,-3.753553 0,-5.700885 -0.84666,-6.745106 l -1.18534,-1.382888 c -0.93133,-1.128888 -2.90688,-1.128888 -6.999103,-1.128888 h -5.249329 c -3.753553,0 -5.700884,0 -6.716884,0.874888 l -5.418662,4.515552 c -1.100666,0.931333 -1.100666,2.906887 -1.100666,6.999106 z m 6.575773,-3.132664 c 0,-1.298221 0,-2.398887 0.02822,-3.301998 0.705555,0 1.523999,0 2.427109,0 h 5.221107 c 3.245553,0 5.164663,0 6.293551,0.536222 0,1.15711 0.395111,2.991553 0.395111,5.89844 v 5.249329 c 0,1.298222 0,2.398887 -0.05644,3.301998 -0.705555,0 -1.495776,0 -2.398887,0 h -5.249329 c -3.245553,0 -5.164663,0 -6.265328,-0.564444 0,-1.128888 -0.395111,-2.963331 -0.395111,-5.870218 z m 24.920221,-3.301998 h 10.75266 l -1.43933,1.213555 v 18.316208 l 1.15711,1.41111 5.41866,-4.543774 V 70.790678 h 5.05178 l 5.41866,-4.543774 -1.18533,-1.41111 H 114.0517 l -5.39044,4.543774 z m 25.85156,6.434662 v 5.249329 c 0,3.753553 0,5.700885 0.84667,6.716884 l 1.18533,1.41111 c 0.93133,1.128888 2.87866,1.128888 6.9991,1.128888 h 5.22111 c 3.75355,0 5.72911,0 6.74511,-0.874888 l 5.39044,-4.515552 c 1.12888,-0.959555 1.12888,-2.906887 1.12888,-6.999106 v -5.249329 c 0,-3.753553 0,-5.700885 -0.84666,-6.745106 l -1.18533,-1.382888 c -0.93134,-1.128888 -2.90689,-1.128888 -6.99911,-1.128888 h -5.24933 c -3.75355,0 -5.70088,0 -6.71688,0.874888 l -5.41866,4.515552 c -1.10067,0.931333 -1.10067,2.906887 -1.10067,6.999106 z m 6.57577,-3.132664 c 0,-1.298221 0,-2.398887 0.0282,-3.301998 0.70556,0 1.524,0 2.42711,0 h 5.22111 c 3.24555,0 5.16466,0 6.29355,0.536222 0,1.15711 0.39511,2.991553 0.39511,5.89844 v 5.249329 c 0,1.298222 0,2.398887 -0.0564,3.301998 -0.70556,0 -1.49578,0 -2.39889,0 h -5.24933 c -3.24555,0 -5.16466,0 -6.26533,-0.564444 0,-1.128888 -0.39511,-2.963331 -0.39511,-5.870218 z m 25.03312,-3.301998 h 0.16933 l -1.43933,1.213555 v 18.316208 l 1.15711,1.41111 h 20.94087 l 5.41866,-4.543774 -1.18533,-1.41111 h -0.254 l 1.43933,-1.213555 V 76.71734 l -1.18533,-1.41111 H 181.8697 l -5.39044,4.543775 1.15711,1.41111 h 9.31332 v 4.515552 h -14.3651 V 70.790678 h 15.52221 l 5.41866,-4.543774 -1.18533,-1.41111 h -20.82798 l -5.41866,4.543774 z m 29.06888,-1.41111 v 20.940873 l 1.15711,1.41111 5.41866,-4.543774 v -5.926662 h 7.95867 l -1.46756,1.213554 1.18533,1.382888 7.84577,7.873994 5.41867,-4.543774 -1.18534,-1.41111 -5.58799,-5.587996 0.28222,-0.225777 1.07244,1.298221 5.41867,-4.543775 V 66.246904 l -1.18534,-1.41111 h -18.3162 l -1.55222,1.298221 -1.07245,-1.298221 z m 6.57577,1.41111 h 14.3651 v 4.515552 h -12.92576 l -1.43934,1.213555 z m 40.10377,-11.796879 c -0.0282,-0.02822 -0.0565,-0.08467 -0.0565,-0.112889 l -0.53622,-0.649111 c -3.13266,1.326444 -6.26533,2.031999 -6.26533,2.031999 l -2.59644,2.173109 0.53622,0.649111 c 0,0 3.07622,-0.705555 6.15244,-2.003777 l 0.36689,0.423333 c 0.98778,1.185333 4.26155,1.523999 4.26155,1.523999 l 2.59645,-2.173109 -0.53623,-0.649111 c 0,0 -2.6811,-0.282222 -3.92288,-1.213554 z m -9.76488,28.193978 v -5.926662 h 12.92576 l 1.43934,-1.213555 v 10.272881 l 1.15711,1.41111 5.41866,-4.543774 V 66.246904 l -1.18533,-1.41111 h -18.31621 l -1.55222,1.298221 -1.07245,-1.298221 -5.39044,4.543774 v 20.940873 l 1.15711,1.41111 z m 0,-16.397099 h 14.3651 v 4.515552 h -12.92577 l -1.43933,1.213555 z m 34.23356,-4.035774 v 3.330219 h -5.08 l -5.39044,4.515552 v 10.470437 l 1.15711,1.41111 h 9.31333 v 6.462884 l 1.15711,1.41111 5.41866,-4.543775 v -3.330219 h 5.05177 l 5.41867,-4.515552 V 71.468011 l -1.18534,-1.382888 h -9.2851 V 63.62224 l -1.18533,-1.411111 z m 0,9.256881 v 4.543775 h -3.89467 v -4.543775 z m 6.57577,0 h 3.89466 v 4.543775 h -3.89466 z"
       id="text2"
       aria-label="Φṓtogrâφ" />
  </g>
</svg>
