<?xml version="1.0" encoding="UTF-8" standalone="no"?>
<!-- Created with Inkscape (http://www.inkscape.org/) -->

<svg
   width="1138.9999"
   height="134.19991"
   viewBox="0 0 301.36039 35.507056"
   version="1.1"
   id="svg1"
   inkscape:version="1.4 (86a8ad7, 2024-10-11)"
   sodipodi:docname="Word Hangeulic Regular Psychedelic.svg"
   xmlns:inkscape="http://www.inkscape.org/namespaces/inkscape"
   xmlns:sodipodi="http://sodipodi.sourceforge.net/DTD/sodipodi-0.dtd"
   xmlns="http://www.w3.org/2000/svg"
   xmlns:svg="http://www.w3.org/2000/svg">
  <sodipodi:namedview
     id="namedview1"
     pagecolor="#ffffff"
     bordercolor="#000000"
     borderopacity="0.25"
     inkscape:showpageshadow="2"
     inkscape:pageopacity="0.0"
     inkscape:pagecheckerboard="0"
     inkscape:deskcolor="#d1d1d1"
     inkscape:document-units="px"
     inkscape:zoom="1.0393815"
     inkscape:cx="571.97478"
     inkscape:cy="82.26046"
     inkscape:window-width="1920"
     inkscape:window-height="1027"
     inkscape:window-x="-8"
     inkscape:window-y="-8"
     inkscape:window-maximized="1"
     inkscape:current-layer="layer1" />
  <defs
     id="defs1" />
  <g
     inkscape:label="Layer 1"
     inkscape:groupmode="layer"
     id="layer1"
     transform="translate(13.973611,-56.62137)">
    <text
       xml:space="preserve"
       style="font-size:28.2222px;line-height:1;font-family:'BlockTrain Hand';-inkscape-font-specification:'BlockTrain Hand';text-align:start;writing-mode:lr-tb;direction:ltr;text-anchor:start;display:none;fill:#19919b;fill-opacity:1;stroke:#7c7c7c;stroke-width:0.79375;stroke-dasharray:none;stroke-opacity:1"
       x="136.70659"
       y="88.739998"
       id="text1"><tspan
         sodipodi:role="line"
         id="tspan1"
         style="font-style:normal;font-variant:normal;font-weight:800;font-stretch:normal;font-size:28.2222px;font-family:'NewEng Hangeul';-inkscape-font-specification:'NewEng Hangeul Ultra-Bold';text-align:center;text-anchor:middle;fill:#19919b;fill-opacity:1;stroke:#7c7c7c;stroke-width:0.79375;stroke-dasharray:none;stroke-opacity:1"
         x="136.70659"
         y="88.739998">P̀sȳʞėdélic</tspan></text>
    <path
       style="font-weight:800;font-size:28.2222px;line-height:1;font-family:'NewEng Hangeul';-inkscape-font-specification:'NewEng Hangeul Ultra-Bold';text-align:center;text-anchor:middle;fill:#19919b;stroke:#7c7c7c;stroke-width:0.79375"
       d="m -13.576736,69.379568 v 20.940873 l 1.15711,1.41111 5.4186627,-4.543774 v -3.33022 H 5.9248045 l 1.5239988,-1.269999 1.0724436,1.269999 5.4186621,-4.515552 V 66.246904 l -1.185332,-1.41111 H -5.5616311 l -1.552221,1.298221 -1.0724436,-1.298221 z m 6.5757727,1.41111 h 14.3651 v 7.140217 H -5.5616311 L -7.0009633,79.14445 Z M 6.0094529,60.546012 c -0.5079996,-0.39511 -2.5964424,-1.80622 -8.9182153,-2.709331 l -2.5964424,2.201332 0.5362218,0.64911 c 6.3217729,0.874889 8.4102157,2.285999 8.9182153,2.709332 L 6.5456747,61.195123 Z M 17.91926,70.790678 h 0.282222 l -1.439332,1.213555 v 7.845772 l 1.15711,1.41111 h 19.783763 v 4.515552 H 22.152591 l -5.390441,4.543774 1.15711,1.41111 h 18.344431 l 1.523999,-1.298221 1.072443,1.298221 5.418663,-4.543774 V 76.71734 l -1.185333,-1.41111 h -19.75554 v -4.515552 h 15.52221 l 5.418663,-4.543774 -1.185333,-1.41111 H 22.152591 L 16.76215,69.379568 Z M 51.644811,62.60624 h 15.691543 l 2.596443,-2.201331 -0.536222,-0.649111 H 53.676809 l -2.596442,2.201332 z m 16.397098,6.773328 -5.954884,5.926662 h -8.410216 v -9.059326 l -1.185332,-1.41111 -5.39044,4.543774 v 10.470437 l 1.15711,1.41111 h 7.902216 l -9.059326,9.059326 1.15711,1.41111 5.418662,-4.543774 20.940873,-20.940873 -1.185333,-1.41111 z m 18.79601,18.400875 6.547551,-6.519328 h 3.555997 l 1.439332,-1.213555 v 10.272881 l 1.15711,1.41111 5.418661,-4.543774 V 66.246904 l -1.18533,-1.41111 -5.390441,4.543774 v 5.926662 h -9.849548 l -4.515552,-9.059326 -1.185332,-1.41111 -5.39044,4.543774 5.221107,10.470437 1.185332,1.41111 h 4.910663 l -1.072444,0.620888 -7.873994,7.845772 0.931333,1.580443 z M 118.75724,62.549796 h 3.556 l 2.59644,-2.17311 -0.53622,-0.64911 h -3.55599 l -2.59645,2.173109 z m -9.82132,8.240882 h 0.28222 l -1.43933,1.213555 v 18.316208 l 1.15711,1.41111 h 20.94087 l 5.41866,-4.543774 -1.18533,-1.41111 h -19.75554 v -4.515552 h 10.3011 l 5.39045,-4.543775 -1.15712,-1.41111 h -13.37732 l -1.15711,0.987777 v -5.503329 h 15.52221 l 5.41866,-4.543774 -1.18533,-1.41111 h -20.94087 l -5.39044,4.543774 z m 29.18177,-1.41111 v 20.940873 l 1.15711,1.41111 1.55222,-1.298221 1.07245,1.298221 h 15.71976 l 1.524,-1.298221 1.07244,1.298221 5.41867,-4.543774 V 71.468011 l -1.18534,-1.382888 -5.2211,-5.249329 h -13.0951 l -1.55222,1.298221 -1.07245,-1.298221 z m 6.57577,1.41111 h 10.30111 l 4.06399,4.035775 V 85.776667 H 146.1328 l -1.43934,1.213554 z m 32.25801,-8.240882 c 2.82222,-0.282222 6.99911,-1.608666 8.91822,-2.709331 l 2.59644,-2.17311 -0.53622,-0.64911 c -1.91911,1.100665 -6.096,2.398887 -8.91822,2.709331 l -2.59644,2.173109 z m -7.33777,8.240882 h 0.28222 l -1.43933,1.213555 v 18.316208 l 1.15711,1.41111 h 20.94087 l 5.41866,-4.543774 -1.18533,-1.41111 h -19.75554 v -4.515552 h 10.30111 l 5.39044,-4.543775 -1.15711,-1.41111 h -13.37733 l -1.15711,0.987777 v -5.503329 h 15.52221 l 5.41866,-4.543774 -1.18533,-1.41111 h -20.94087 l -5.39044,4.543774 z m 29.18177,-1.41111 v 20.940873 l 1.15711,1.41111 h 20.94087 l 5.41867,-4.543774 -1.18534,-1.41111 H 205.37124 V 66.246904 l -1.18533,-1.41111 z m 31.49599,1.41111 h 10.55511 l -1.29822,1.072444 v 13.913545 h -5.02356 l -5.39044,4.543774 1.15711,1.41111 h 20.94088 l 5.41866,-4.543774 -1.18533,-1.41111 h -10.75266 l 1.43933,-1.213555 V 70.790678 h 5.08 l 5.41866,-4.543774 -1.18533,-1.41111 h -20.94088 l -5.39044,4.543774 z m 30.3389,0 h 0.28222 l -1.43933,1.213555 v 18.316208 l 1.15711,1.41111 h 20.94087 l 5.41867,-4.543774 -1.18534,-1.41111 H 266.04902 V 70.790678 h 15.52221 l 5.41867,-4.543774 -1.18534,-1.41111 h -20.94087 l -5.39044,4.543774 z"
       id="text2"
       aria-label="P̀sȳʞėdélic" />
  </g>
</svg>
