<?xml version="1.0" encoding="UTF-8" standalone="no"?>
<!-- Created with Inkscape (http://www.inkscape.org/) -->

<svg
   width="717.23938"
   height="85.773285"
   viewBox="0 0 189.76959 22.694181"
   version="1.1"
   id="svg1"
   inkscape:version="1.4 (86a8ad7, 2024-10-11)"
   sodipodi:docname="Word DotsNLines Stronger.svg"
   xmlns:inkscape="http://www.inkscape.org/namespaces/inkscape"
   xmlns:sodipodi="http://sodipodi.sourceforge.net/DTD/sodipodi-0.dtd"
   xmlns="http://www.w3.org/2000/svg"
   xmlns:svg="http://www.w3.org/2000/svg">
  <sodipodi:namedview
     id="namedview1"
     pagecolor="#ffffff"
     bordercolor="#000000"
     borderopacity="0.25"
     inkscape:showpageshadow="2"
     inkscape:pageopacity="0.0"
     inkscape:pagecheckerboard="0"
     inkscape:deskcolor="#d1d1d1"
     inkscape:document-units="px"
     inkscape:zoom="1.4699074"
     inkscape:cx="357.16535"
     inkscape:cy="91.502362"
     inkscape:window-width="1920"
     inkscape:window-height="1027"
     inkscape:window-x="-8"
     inkscape:window-y="-8"
     inkscape:window-maximized="1"
     inkscape:current-layer="layer1" />
  <defs
     id="defs1" />
  <g
     inkscape:label="Layer 1"
     inkscape:groupmode="layer"
     id="layer1"
     transform="translate(-41.835894,-67.007136)">
    <text
       xml:space="preserve"
       style="font-size:28.2222px;line-height:1;font-family:'BlockTrain Hand';-inkscape-font-specification:'BlockTrain Hand';text-align:start;writing-mode:lr-tb;direction:ltr;text-anchor:start;display:none;fill:#19919b;fill-opacity:1;stroke:#7c7c7c;stroke-width:0.79375;stroke-dasharray:none;stroke-opacity:1"
       x="136.70659"
       y="88.739998"
       id="text1"><tspan
         sodipodi:role="line"
         id="tspan1"
         style="font-style:normal;font-variant:normal;font-weight:normal;font-stretch:normal;font-size:28.2222px;font-family:'Dots n Lines';-inkscape-font-specification:'Dots n Lines';text-align:center;text-anchor:middle;fill:#19919b;fill-opacity:1;stroke:#7c7c7c;stroke-width:0.79375;stroke-dasharray:none;stroke-opacity:1"
         x="0"
         y="0">stroŋger</tspan></text>
    <path
       style="font-size:28.2222px;line-height:1;font-family:'Dots n Lines';-inkscape-font-specification:'Dots n Lines';text-align:center;text-anchor:middle;fill:#19919b;stroke:#7c7c7c;stroke-width:0.79375"
       d="m 47.961875,77.056007 c 0,-0.677333 0.05645,-0.846666 0.592667,-1.91911 0.761999,-1.495776 1.495776,-2.483553 2.793997,-3.47133 1.552221,-1.185333 1.890888,-1.128888 2.935109,-1.41111 1.128888,-0.282222 2.229554,-0.197556 3.414886,-0.225778 h 0.338667 c 0.761999,0 1.523999,0.05644 2.285998,0.05644 h 0.282222 c 0.282222,0 0.592666,0.02822 0.90311,0.02822 0.282222,0 0.592667,-0.02822 0.733778,-0.112889 0.310444,-0.169333 0.564444,-0.423333 1.044221,-0.705555 0.479778,-0.282222 0.592666,-0.451555 0.592666,-0.564444 0,-0.225778 -1.213554,-0.818444 -5.221107,-0.818444 h -0.08467 c -4.515552,0 -6.40644,0.846666 -7.591772,1.382888 -1.975554,0.90311 -3.104442,1.636887 -4.882441,3.273775 -1.580443,1.467554 -2.173109,2.624665 -2.398887,3.132664 -0.366889,0.987777 -0.536222,2.568221 -0.536222,2.596443 v 0.225777 c 0,0.141111 0.112889,0.536222 0.112889,0.536222 0,0 0.846666,0.338667 0.987777,0.366889 0.05644,0 0.08467,0.02822 0.141111,0.02822 1.241777,0 2.765776,-0.959555 3.132664,-1.213555 0.366889,-0.253999 0.423333,-0.451555 0.423333,-0.987777 z m 2.850443,2.285998 c 0,0.141111 0.08467,0.282222 0.169333,0.423333 0.254,0.479778 2.511776,0.903111 2.878664,0.903111 1.015999,0 2.652887,-1.157111 2.991553,-1.523999 0.225778,-0.254 0.536222,-0.395111 0.536222,-0.903111 0,-0.90311 -2.793998,-1.552221 -3.047997,-1.552221 -0.254,0 -3.527775,1.523999 -3.527775,2.652887 z m 12.756434,-2.398887 c -0.790221,0 -2.229554,0.874888 -3.612442,1.66511 -0.423333,0.254 -0.197555,1.777999 -0.705555,3.358442 -0.507999,1.721554 -0.733777,2.398887 -1.919109,3.019775 -1.806221,0.903111 -5.164663,0.931333 -5.587996,0.931333 -0.507999,0 -0.987777,-0.02822 -4.628441,-0.02822 h -0.479777 c -1.241777,0 -1.580443,0.02822 -2.483554,0.64911 -0.677333,0.423333 -1.919109,1.354666 -1.919109,1.580443 0,0.05645 0.282222,0.197556 0.423333,0.310445 0.790221,0.423333 0.931332,0.451555 1.495776,0.451555 0.02822,0 1.354666,-0.05644 3.555997,-0.05644 h 1.495777 c 4.007553,0 7.083772,-0.987777 7.168439,-1.015999 1.777999,-0.507999 3.838219,-1.862665 4.317997,-2.173109 2.173109,-1.467555 3.499553,-2.455332 3.640664,-7.111995 v -0.64911 c 0,-0.762 -0.08467,-0.931333 -0.451556,-0.931333 z m 17.695302,-9.002882 c -0.677333,0 -1.495777,0.05644 -2.398887,0.05644 -3.640664,0.02822 -7.30955,0.02822 -8.21266,0.02822 -0.479778,0 -0.592667,0 -0.846666,0.112889 -0.254,0.112888 -0.366889,0.310444 -0.874889,0.846666 -0.366888,0.366888 -0.959554,0.959554 -1.185332,1.269999 l -0.395111,0.507999 0.649111,0.338667 c 1.072443,0.423333 4.007552,0.507999 5.64444,0.507999 3.471331,0 10.103548,-0.05644 11.006658,-0.112889 1.636888,-0.08467 2.398887,-0.338666 2.906887,-0.592666 0.366888,-0.225777 2.173109,-1.298221 2.173109,-1.975554 v -0.05644 c 0,-0.762 -2.398887,-0.931333 -8.46666,-0.931333 z M 77.708057,89.02222 c 0.90311,0 2.31422,-0.959555 2.709331,-1.269999 0.479777,-0.338667 0.874888,-0.536222 1.185332,-1.185333 0.08467,-0.169333 0.141111,-0.253999 0.141111,-0.423333 0,-0.225777 -0.02822,-0.479777 -0.112888,-0.846666 -0.05644,-0.225777 -0.649111,-1.015999 -0.874889,-1.185332 -0.39511,-0.338666 -0.790221,-0.366889 -1.213554,-0.451555 h -0.536222 c -0.874888,0.02822 -0.90311,0.197555 -1.326443,0.423333 -1.608666,0.874888 -2.568221,1.382888 -2.935109,2.285998 -0.08467,0.225778 -0.169333,0.366889 -0.169333,0.620888 0,1.580444 2.624664,2.031999 3.132664,2.031999 z M 94.302722,71.665567 c 0.310444,0 0.564444,-0.197556 0.987777,-0.366889 1.66511,-0.620888 5.390441,-0.818444 6.688661,-0.818444 1.778,0 4.37444,0.282222 5.55977,1.467555 1.18534,1.185332 1.35467,3.076219 1.35467,4.007552 0,1.495777 -0.508,2.229554 -2.42711,2.737554 -2.96333,0.790221 -3.33022,0.874888 -6.37822,1.128888 -4.233327,0.310444 -3.894661,0.282222 -4.938882,0.790221 -1.66511,0.818444 -2.116665,1.015999 -2.201332,1.41111 -0.02822,0.08467 -0.02822,0.310444 -0.02822,0.592666 0,2.370665 0.141111,3.697109 0.141111,5.221107 v 0.225778 l -0.02822,0.761999 0.423333,0.141111 c 0.366889,0.141111 0.536222,0.338667 0.818444,0.338667 h 0.05644 c 0.508,0 0.959555,-0.310444 1.439332,-0.479778 1.806221,-0.761999 1.834443,-1.072443 1.834443,-1.693332 0,-0.02822 0,-0.02822 0,-0.05644 v -0.90311 c -0.08467,-2.060221 -0.310444,-2.850443 -0.310444,-3.414887 0,-0.310444 0.08467,-0.253999 0.197556,-0.310444 0.620888,-0.225777 1.269999,-0.05644 3.301999,-0.451555 0.62089,-0.141111 1.524,-0.282222 1.94733,-0.366889 1.18533,-0.225777 1.10067,-0.338666 2.39889,-0.64911 1.55222,-0.338667 4.37444,-1.41111 5.24933,-2.031999 2.22955,-1.495776 2.59644,-2.483553 2.59644,-4.007552 0,-1.777999 -0.22578,-2.455332 -0.28222,-2.596443 -0.762,-1.862665 -2.11667,-2.681109 -3.89467,-3.584219 -0.762,-0.310444 -2.79399,-0.846666 -4.31799,-0.846666 -3.24556,0 -6.773332,0.649111 -7.930442,1.015999 -2.596442,0.874888 -3.753553,1.749777 -3.753553,2.003776 0,0.08467 0.987777,0.733778 1.495777,0.733778 z m 12.558878,14.1111 c -0.64911,0.564444 -0.73378,0.705555 -0.73378,1.044221 0,0.508 0.39511,0.762 0.56445,1.128888 0.14111,0.338667 1.89089,1.015999 2.39889,1.015999 0.42333,0 1.86266,-0.338666 2.11666,-0.479777 0.87489,-0.423333 1.91911,-1.552221 1.91911,-1.947332 0,-0.254 -0.64911,-1.213554 -1.15711,-1.636887 -0.508,-0.423333 -1.32644,-0.677333 -1.69333,-0.677333 h -0.0282 c -1.74978,0.141111 -3.35845,1.523999 -3.38667,1.552221 z m 18.288,-18.146875 c 0,0.08467 -0.45155,0.338666 -1.016,0.564444 -3.24555,1.354666 -5.4751,2.624665 -7.11199,6.80155 -0.508,1.269999 -0.73378,2.652887 -0.79022,4.007553 0,0.254 -0.0282,0.507999 -0.0282,0.761999 0,1.015999 0.0847,2.031999 0.42333,2.935109 2.25778,6.180662 7.81755,6.519328 9.0311,6.519328 0.90311,0 1.80622,-0.112889 2.70933,-0.254 2.08845,-0.310444 5.08,-2.06022 5.13645,-2.088442 0.81844,-0.564444 1.60866,-1.241777 2.22955,-2.031999 1.83444,-2.31422 1.91911,-6.519328 1.91911,-6.603995 0,-1.41111 -0.39511,-3.330219 -1.04422,-4.402663 -1.38289,-2.455331 -5.39044,-5.531551 -8.128,-5.531551 h -0.22577 c 0.62088,-0.620889 0.62088,-0.592666 0.62088,-0.677333 v -0.08467 c -0.0847,-0.08467 -0.56444,-0.141111 -1.18533,-0.141111 h -0.254 c -0.98777,0 -2.286,0.08467 -2.286,0.225778 z m 2.54,3.499553 c 0.98778,0.423333 2.90689,1.834443 3.38667,2.455331 2.06022,2.56822 2.17311,4.007553 2.22955,6.208884 v 0.141111 c 0,2.878665 -1.69333,5.616218 -1.72155,5.672663 -0.508,0.620888 -2.85045,0.64911 -3.01978,0.64911 -3.18911,0 -4.826,-1.41111 -5.36222,-2.031998 -2.20133,-2.370665 -2.22955,-6.462884 -2.22955,-6.547551 0,-4.120441 2.06022,-6.54755 2.22955,-6.773328 0,0 0.56445,-0.282222 1.49578,-0.282222 1.10066,0 2.54,0.310444 2.99155,0.508 z m 15.35287,-2.455332 c -1.49577,0.790222 -1.69333,1.213555 -1.86266,1.213555 -0.16933,0 -0.28222,0.508 -0.28222,1.41111 0,0.169333 0.0282,0.395111 0.0282,0.620888 v 0.395111 c 0,0.987777 -0.0847,2.455332 -0.0847,3.640664 v 0.987777 3.894664 0.338666 c 0,1.91911 0,3.866442 -0.0564,5.785551 0,0.310444 0,0.479778 -0.0564,0.959555 l -0.0282,0.874888 0.42333,0.05644 h 0.0565 c 0.90311,0 2.48355,-0.818444 3.66888,-1.382888 0.11289,0 0.19756,-0.05644 0.19756,-0.112889 0.42333,-2.765776 0.22578,-10.809103 0.59267,-12.728212 v -0.02822 c 0.11288,0 1.60866,1.636888 1.63688,1.66511 1.016,1.185333 1.60867,1.947332 1.60867,1.975554 0,0.02822 0.62089,0.733778 1.41111,1.523999 3.49955,3.58422 4.88244,5.051774 4.88244,6.237106 0,0.762 -1.016,0.790222 -1.15711,0.790222 -0.67733,0 -1.72155,-0.423333 -2.08844,-0.90311 -0.508,-0.649111 -0.22578,-2.031999 -0.98778,-2.031999 -0.79022,0 -3.24555,1.777999 -3.38666,2.427109 v 0.08467 c 0,0.479777 0.53622,1.693332 1.01599,2.060221 0.73378,0.564444 1.58045,0.677332 2.20134,0.677332 0.90311,0 2.17311,-0.169333 3.10444,-0.39511 0.73378,-0.141111 1.43933,-0.479778 2.11666,-0.762 1.60867,-0.677333 1.58045,-0.677333 2.59645,-1.580443 0.90311,-0.790222 0.98777,-1.693332 0.98777,-2.060221 0,-0.790221 -0.39511,-1.269999 -1.18533,-2.285998 -1.18533,-1.495776 -1.18533,-1.552221 -4.34622,-4.797774 l -1.12889,-1.213555 c -0.67733,-0.790221 -1.35466,-1.636887 -2.03199,-2.427109 -3.72534,-4.148663 -3.72534,-4.120441 -4.51556,-4.769552 -0.36689,-0.310444 -1.24177,-0.818443 -1.41111,-0.818443 -0.62089,0 -1.07244,0.225777 -1.91911,0.677332 z m 10.18822,2.201332 c 0,0.141111 0.0564,0.338666 0.19755,0.649111 0.64911,1.241776 2.56822,1.41111 2.59645,1.41111 1.07244,0 2.85044,-1.185333 2.87866,-1.213555 1.18533,-1.072444 1.21355,-1.890887 1.21355,-1.975554 0,-0.141111 0.0282,-0.282222 -0.0282,-0.508 -0.0564,-0.225777 -0.64911,-0.959554 -0.87489,-1.100665 -0.39511,-0.338667 -0.53622,-0.282222 -1.18533,-0.366889 h -0.0282 c -0.0847,0 -0.14111,0.02822 -0.19756,0.02822 -0.0564,0 -0.11288,-0.02822 -0.14111,-0.05644 -0.81844,0.05644 -0.93133,0.05644 -1.41111,0.197555 -0.14111,0 -3.01977,1.185333 -3.01977,2.935109 z m 22.86,-2.681109 c -3.72533,0 -6.60399,2.088443 -8.80532,4.120441 -2.45533,2.314221 -2.45533,2.82222 -3.10444,4.515552 -0.53623,1.439333 -0.98778,2.991554 -0.98778,4.543775 0,3.189108 2.08844,5.362218 3.27377,6.29355 1.41111,1.15711 8.24089,1.213555 8.26911,1.213555 2.22955,0 5.10822,-0.451555 5.24933,-0.508 1.58044,-0.507999 3.89466,-3.330219 3.89466,-3.668886 0,-0.282222 -1.18533,-1.100666 -1.49577,-1.100666 -0.62089,0 -1.04423,2.060221 -6.88622,2.060221 -1.41111,0 -4.65666,-0.169333 -6.12422,-1.777999 -0.73378,-0.90311 -1.38289,-1.552221 -1.89089,-3.132664 -0.0564,-0.225777 -0.14111,-0.733777 -0.14111,-1.467554 0,-1.721554 0.11289,-2.370665 1.016,-4.289775 0.79022,-1.636887 1.29822,-2.031998 1.94733,-2.652887 1.524,-1.41111 3.13267,-1.41111 4.54378,-1.41111 0.22578,0 2.76577,0.05645 2.794,0.05645 0.0282,0 2.99155,0 3.30199,-0.225778 0.33867,-0.225777 1.524,-1.806221 1.524,-2.173109 0,-0.366889 -0.98777,-0.395111 -4.31799,-0.395111 z m 5.55978,8.21266 c -0.56445,0 -2.00378,0.677333 -2.62467,0.987777 -1.35466,0.790222 -1.83444,1.044222 -1.83444,1.806221 0,0.08467 0.22578,1.66511 2.00378,1.66511 1.55222,0 2.70933,-1.072444 2.76577,-1.128888 0.36689,-0.366889 0.90311,-0.536222 1.524,-1.185332 l 0.67733,-0.705555 -0.36688,-0.395111 c -0.16934,-0.225778 -1.04423,-1.100666 -1.60867,-1.100666 -0.14111,0 -0.31044,0.02822 -0.53622,0.05644 z m 17.10263,-8.240882 h -1.46755 -3.97933 -0.53622 c -1.12889,0 -3.01978,0.310444 -3.92289,0.536222 -0.31044,0.08467 -1.32644,1.269999 -1.46755,1.495776 -0.0847,0.112889 -0.14112,1.044222 -0.14112,1.834443 0,0.08467 0.22578,3.443109 0.22578,7.789328 0,4.289774 -0.19755,7.309549 -0.19755,7.394216 0,0.112889 0,1.382888 1.15711,1.382888 0.14111,0 0.22577,-0.02822 0.36689,-0.02822 0,0 0.19755,0.02822 0.33866,0.02822 0.11289,0 5.41866,-0.112889 9.84955,-0.112889 h 2.17311 c 0.56444,0 0.39511,-0.02822 0.70555,-0.02822 0.62089,0 3.81,0.141111 3.83822,0.141111 0.14111,0 0.36689,-0.338667 0.53623,-0.479778 0.33866,-0.310444 0.79022,-0.564444 1.04422,-0.931332 0.16933,-0.254 0.53622,-0.790222 0.53622,-1.015999 0,-0.05644 0,-0.05644 -0.0565,-0.05644 h -0.0282 l -0.73377,0.02822 -3.49956,-0.141111 c -1.86266,-0.08467 -4.45911,-0.141111 -5.36222,-0.141111 h -2.06022 -0.31044 c -1.07244,0 -1.27,0.08467 -2.17311,0.08467 -0.79022,0 -1.69333,-0.02822 -1.74978,-0.08467 0,-0.02822 -0.0282,-0.282222 -0.0282,-0.64911 0,-2.596443 0.16933,-4.99533 0.16933,-7.591772 0,-2.793998 -0.19755,-3.640664 -0.19755,-4.261552 0,-0.395111 0.0564,-0.225778 0.0564,-0.508 0,-0.508 -0.11289,-1.044221 -0.11289,-1.354666 0,-0.169333 0.0282,-0.253999 0.14112,-0.310444 0.62088,-0.395111 3.35844,-0.254 5.05177,-0.338666 0.79022,-0.02822 2.00378,-0.08467 3.86644,-0.08467 0.79022,0 1.60867,0.08467 2.39889,0.08467 1.83444,0 1.69333,-0.197556 2.06022,-0.197556 0.0847,0 0.0847,0.02822 0.14111,0.02822 0.31044,0 2.17311,-2.060221 2.17311,-2.314221 0,-0.141111 -0.14111,-0.197555 -1.04422,-0.197555 h -1.32645 -0.70555 z m 1.38289,11.03488 c 0,0.254 0.64911,0.987777 1.07244,1.15711 0.33867,0.141111 1.016,0.395111 1.38289,0.395111 0.56445,0 1.04422,-0.423333 1.55222,-0.705555 0.508,-0.282222 1.016,-0.620888 1.49578,-0.987777 0.39511,-0.338666 1.04422,-0.620888 1.12889,-1.15711 v -0.05644 c 0,-0.762 -1.63689,-1.580444 -2.31422,-1.580444 -1.43934,0 -4.318,2.257776 -4.318,2.935109 z m 12.24841,-7.535327 c 0.31044,0 0.56444,-0.197556 0.98778,-0.366889 1.66511,-0.620888 5.39044,-0.818444 6.68866,-0.818444 1.778,0 4.37444,0.282222 5.55977,1.467555 1.18533,1.185332 1.35467,3.076219 1.35467,4.007552 0,1.495777 -0.508,2.229554 -2.42711,2.737554 -2.96333,0.790221 -3.33022,0.874888 -6.37822,1.128888 -4.23333,0.310444 -3.89466,0.282222 -4.93889,0.790221 -1.66511,0.818444 -2.11666,1.015999 -2.20133,1.41111 -0.0282,0.08467 -0.0282,0.310444 -0.0282,0.592666 0,2.370665 0.14111,3.697109 0.14111,5.221107 v 0.225778 l -0.0282,0.761999 0.42333,0.141111 c 0.36689,0.141111 0.53622,0.338667 0.81845,0.338667 h 0.0564 c 0.508,0 0.95956,-0.310444 1.43933,-0.479778 1.80622,-0.761999 1.83445,-1.072443 1.83445,-1.693332 0,-0.02822 0,-0.02822 0,-0.05644 v -0.90311 c -0.0847,-2.060221 -0.31045,-2.850443 -0.31045,-3.414887 0,-0.310444 0.0847,-0.253999 0.19756,-0.310444 0.62089,-0.225777 1.27,-0.05644 3.30199,-0.451555 0.62089,-0.141111 1.524,-0.282222 1.94734,-0.366889 1.18533,-0.225777 1.10066,-0.338666 2.39888,-0.64911 1.55222,-0.338667 4.37444,-1.41111 5.24933,-2.031999 2.22956,-1.495776 2.59645,-2.483553 2.59645,-4.007552 0,-1.777999 -0.22578,-2.455332 -0.28223,-2.596443 -0.762,-1.862665 -2.11666,-2.681109 -3.89466,-3.584219 -0.762,-0.310444 -2.794,-0.846666 -4.318,-0.846666 -3.24555,0 -6.77333,0.649111 -7.93044,1.015999 -2.59644,0.874888 -3.75355,1.749777 -3.75355,2.003776 0,0.08467 0.98778,0.733778 1.49578,0.733778 z m 12.55888,14.1111 c -0.64911,0.564444 -0.73378,0.705555 -0.73378,1.044221 0,0.508 0.39511,0.762 0.56444,1.128888 0.14112,0.338667 1.89089,1.015999 2.39889,1.015999 0.42333,0 1.86267,-0.338666 2.11667,-0.479777 0.87488,-0.423333 1.91911,-1.552221 1.91911,-1.947332 0,-0.254 -0.64911,-1.213554 -1.15711,-1.636887 -0.508,-0.423333 -1.32645,-0.677333 -1.69334,-0.677333 h -0.0282 c -1.74977,0.141111 -3.35844,1.523999 -3.38666,1.552221 z"
       id="text2"
       aria-label="stroŋger" />
  </g>
</svg>
